<svg width="200" height="170" xmlns="http://www.w3.org/2000/svg">
 <defs>
  <linearGradient y2="0.19531" x2="0.99216" y1="0.01871" x1="0.74183" id="linear0">
   <stop stop-color="rgb(80.392157%,3.529412%,5.098039%)" offset="0"/>
   <stop stop-color="rgb(95.294118%,57.254902%,44.705882%)" offset="1"/>
  </linearGradient>
  <linearGradient y2="0.89343" x2="0.44686" y1="0.02916" x1="0.44686" id="linear1">
   <stop stop-color="rgb(100%,100%,100%)" offset="0"/>
   <stop stop-color="rgb(100%,100%,100%)" stop-opacity="0.49804" offset="0.3"/>
   <stop stop-color="rgb(100%,100%,100%)" stop-opacity="0" offset="1"/>
  </linearGradient>
  <linearGradient y2="0.83903" x2="0.62887" y1="0.83903" x1="0.00287" id="linear2">
   <stop stop-color="rgb(55.686275%,3.529412%,0.784314%)" offset="0"/>
   <stop stop-color="rgb(88.627451%,3.137255%,5.490196%)" offset="1"/>
  </linearGradient>
  <linearGradient y2="-0.01637" x2="0.68623" y1="1.25709" x1="0.68623" id="linear3">
   <stop stop-color="rgb(34.509804%,0%,0%)" stop-opacity="0.86274" offset="0"/>
   <stop stop-color="rgb(45.490196%,1.960784%,0%)" stop-opacity="0.51372" offset="0.54748"/>
   <stop stop-color="rgb(50.196078%,2.745098%,0%)" stop-opacity="0.2549" offset="0.81538"/>
   <stop stop-color="rgb(54.901961%,3.921569%,0%)" stop-opacity="0" offset="1"/>
  </linearGradient>
  <radialGradient gradientTransform="matrix(-0.317626,0.307599,-0.293362,-0.305433,409.154959,22.686142)" r="27.8125" fy="426.02725" fx="470.80954" cy="426.02725" cx="470.80954" gradientUnits="userSpaceOnUse" id="radial0">
   <stop stop-color="rgb(100%,100%,100%)" offset="0"/>
   <stop stop-color="rgb(27.45098%,27.45098%,27.45098%)" offset="0.5"/>
   <stop stop-color="rgb(0%,0%,0%)" offset="1"/>
  </radialGradient>
  <radialGradient gradientTransform="matrix(0.233909,0,0,0.234875,24.134662,-60.867605)" r="28.70313" fy="420.19824" fx="477.29605" cy="420.19824" cx="477.29605" gradientUnits="userSpaceOnUse" id="radial1">
   <stop stop-color="rgb(93.72549%,93.72549%,93.72549%)" offset="0"/>
   <stop stop-color="rgb(68.627451%,68.627451%,68.627451%)" offset="0.55"/>
   <stop stop-color="rgb(24.705882%,24.705882%,24.705882%)" offset="1"/>
  </radialGradient>
  <linearGradient y2="0.5951" x2="0.57519" y1="0.16807" x1="0.61644" id="linear4">
   <stop stop-color="rgb(100%,100%,100%)" stop-opacity="0.76471" offset="0"/>
   <stop stop-color="rgb(66.666667%,66.666667%,66.666667%)" stop-opacity="0.47451" offset="1"/>
  </linearGradient>
  <radialGradient gradientTransform="matrix(0.193313,0,0,0.194112,54.697856,-58.337635)" r="15.125" fy="493.48718" fx="413.125" cy="493.48718" cx="413.125" gradientUnits="userSpaceOnUse" id="radial2">
   <stop stop-color="rgb(100%,100%,100%)" offset="0"/>
   <stop stop-color="rgb(100%,100%,100%)" stop-opacity="0" offset="1"/>
  </radialGradient>
 </defs>
 <g>
  <title>background</title>
  <rect fill="none" id="canvas_background" height="172" width="202" y="-1" x="-1"/>
 </g>
 <g>
  <title>Layer 1</title>
  <g stroke="null" id="surface1">
   <path stroke="null" id="svg_1" fill-rule="nonzero" fill="url(#linear0)" d="m19.51856,11.74219c-4.17891,0 -7.54794,3.19271 -7.54794,7.14921l0,96.36672c0,3.96161 3.36904,7.14922 7.54794,7.14922l155.8828,0c4.17889,0 7.54793,-3.18761 7.54793,-7.14922l0,-51.18511c-8.65474,-0.01018 -15.66279,-6.65529 -15.66279,-14.85346c0,-8.19309 7.00804,-14.83818 15.66279,-14.84837l0,-15.47978c0,-3.9565 -3.36904,-7.14921 -7.54793,-7.14921l-155.8828,0zm0,0"/>
   <path stroke="null" id="svg_2" fill-rule="nonzero" fill="url(#linear1)" d="m16.40868,17.21613c1.82489,0.76889 3.36904,2.46454 4.62163,5.15313l153.62596,0c0.34554,-2.24558 1.8033,-3.99215 3.99534,-5.40265c-0.91784,-1.07442 -1.93288,-1.66001 -3.07209,-1.69055l-156.21753,0c-1.28499,0.30042 -2.28383,0.93184 -2.95331,1.94006zm0,0"/>
   <path stroke="null" id="svg_3" fill-rule="nonzero" fill="url(#linear2)" d="m12.24597,17.01753c-0.01079,0.03056 -0.0162,0.05601 -0.0216,0.08657l0,27.30857l0.0216,-27.39514zm157.46473,40.13541l-0.0486,0.07128c-51.22125,26.11194 -104.262,28.07748 -157.43774,28.27097c-0.01079,0 -0.02159,0 -0.03238,0l-0.22137,0l0,29.77821c0,3.95651 3.36904,7.13394 7.54794,7.13394l155.8828,0c4.17889,0 7.54793,-3.17743 7.54793,-7.13394l0,-51.20038c-5.57187,-0.0051 -10.46345,-2.76497 -13.23858,-6.92007zm0,0"/>
   <path stroke="null" id="svg_4" fill-rule="nonzero" fill="rgb(100%,100%,100%)" d="m25.40898,111.77007c0,0 -1.03663,-0.12729 -0.96105,-0.41754c0.30235,-1.10498 0.55071,-1.70074 0.63169,-2.08773c0.0702,-0.37172 0.85847,0.04582 0.85847,0.04582l0.59929,-1.29846c0,0 -0.86386,-0.23424 -0.73967,-0.52447c0.30774,-0.72307 0.69648,-1.2781 0.82605,-1.54289c0.15118,-0.30043 0.74507,0.23933 0.74507,0.23933c0,0 0.33475,-0.387 0.51292,-0.56013c0.74507,-0.73325 1.50634,-1.20173 1.82489,-1.86369l0.52372,-1.17117c0,0 -0.80987,-0.43791 -0.6047,-0.71797c0.42112,-0.58049 0.54531,-0.79945 0.97183,-1.49196c0.14037,-0.23424 0.65869,0.50921 0.65869,0.50921l0.56691,-0.86056c0,0 -0.6209,-0.38699 -0.46433,-0.68234c0.28615,-0.54993 0.76668,-1.09478 1.17161,-1.57852c0.16737,-0.1986 0.6533,0.43282 0.6533,0.43282c0,0 1.24178,-1.52252 1.92207,-1.61927c0.44813,-0.03564 1.26339,0.68234 1.26339,0.68234l1.55494,1.37484l1.55494,1.37995l0.93945,0c1.74932,-0.0051 6.09018,-1.17627 11.11675,-2.99412c2.75893,-0.99295 5.77704,-1.9808 6.71647,-2.19466c0,0 1.11762,-0.387 1.70072,-0.387c0.29155,0 0.84227,0.20368 0.84227,0.20368l0.84766,0.1986l-0.81526,-1.31884c-0.44813,-0.72307 -1.43617,-2.48491 -2.19204,-3.91578c-0.83686,-1.37994 -1.29039,-2.78534 -1.99227,-4.11436l-0.77207,0.27497l-1.54955,-3.49314c-4.25989,-8.35602 -4.82678,-10.7391 -4.51364,-15.93806c0.31855,-1.28319 0.69649,-1.96552 1.36057,-2.90755l-0.83146,-0.16803c0,0 -0.92325,0.15785 -0.91244,-0.1324c0.05938,-1.83822 0.39953,-5.45866 0.39953,-5.45866c0.70188,-6.17154 1.52795,-12.28198 3.02889,-16.63058l0.64789,-1.87387l2.17045,-0.96239l2.17043,-0.95731l-1.09602,0.15276c-0.6047,0.08657 -3.19086,0.31571 -5.75544,0.50921l-4.65943,0.35135l-4.42185,4.43007l-4.8268,4.20602l-0.37794,1.45632c0,0 -0.12417,1.01841 -0.37254,1.46141c-0.27536,0.49393 -1.18781,1.24245 -1.18781,1.24245c-0.64789,0.68234 -1.7331,1.50724 -2.4026,1.83313c-0.41032,0.1935 -0.77747,0.48884 -1.22019,0.59068c-0.31314,0.06619 -0.96104,0 -0.96104,0c-1.2256,0 -1.98148,-0.28006 -1.96528,-0.72307c0.01081,-0.1935 0.58311,-0.96749 1.27958,-1.71601c0.69649,-0.75363 1.22021,-1.4105 1.16081,-1.46651c-0.05939,-0.05601 -0.6533,0.20368 -1.32278,0.57539c0,0 -0.83147,0.8351 -1.29578,0.74853c-0.39414,-0.10183 -0.6425,-0.63141 -0.76127,-1.29338c0.05938,-0.34625 0.84766,-0.57031 1.23639,-0.83509c1.19859,-0.81982 1.54413,-1.35448 2.4026,-2.64277c0.38874,-0.58557 1.177,-1.3443 1.75471,-1.68037l1.04742,-0.61613l2.72655,-4.2824c1.50095,-2.35761 3.35284,-5.18369 4.11411,-6.27848c0,0 0.71808,-1.51233 1.38757,-1.99098c0.36713,-0.26479 1.32817,-0.39718 1.32817,-0.39718l1.67372,-0.45318c-0.09718,-0.51939 -0.35634,-1.16099 0.16198,-1.27302c4.69182,-0.98785 6.25216,-1.67527 10.47425,-2.38816c3.55801,-0.59577 6.72728,-0.49392 6.72728,-0.49392l1.45776,0.26988c2.08405,0.38699 5.43689,1.16607 6.98103,1.62945l1.32278,0.39717l0.73428,-1.30864c0.92325,-1.64473 2.71576,-3.36583 4.33548,-4.15001c2.23523,-0.92166 4.04933,-1.24755 6.23596,-0.66704l1.40916,0.49902c2.33782,1.44613 3.60661,3.46767 4.68102,5.82529c0.25375,2.54601 0.5831,4.31295 -0.89625,5.55541c-0.34554,0.29024 -0.83686,0.24442 -1.64672,0.65178c-0.98264,0.49392 -1.79251,1.69055 -2.85072,3.15705c0,0 -0.46433,0.66196 -0.84767,0.87584c-0.36173,0.19858 -0.71808,0.12221 -1.04742,0.07638c-0.78286,-0.09675 -1.34437,0.28515 -1.34437,0.28515l-1.11762,0.62632c-0.61009,0.34117 -1.46315,0.62122 -1.88428,0.62122c0,0 -0.45352,0.08657 -0.68029,-0.02546c-0.37254,-0.18331 -0.80985,-0.93693 -0.80985,-0.93693l-0.72348,-0.96239l-0.24836,0.62122c-1.99766,5.20916 -2.28922,11.02935 -4.33007,16.19267l2.50518,0.2495c1.29038,0.1324 4.73501,0.62632 7.65052,1.12534c0,0 3.76858,0.34117 5.29653,0.74345c0.38333,0.10183 0.71808,1.07442 0.71808,1.07442l3.16387,0.61104c1.73851,0.34115 4.57303,1.11006 6.30074,1.71601l3.13687,1.10498c0,0 2.22444,-0.51429 3.34745,-0.4532c1.30658,0.07639 3.80097,0.86564 3.80097,0.86564l0.21056,-0.34625l2.9965,1.17117c1.50095,0.58559 4.82139,2.11829 7.81251,3.31491c6.17117,2.47982 10.48504,3.99215 12.93624,4.53699l1.68452,0.37682l4.78361,-0.51429c2.62936,-0.28007 5.49088,-0.63652 6.36014,-0.79436c2.25682,-0.39718 2.93711,-0.34117 3.66059,0.34626c0.41032,0.45318 1.04742,1.12024 0.80987,1.32392c-0.29696,0.24951 -0.74509,0.56521 -1.05823,0.7027c0,0 0.41573,0.47356 0.22676,0.62124c-0.43732,0.34115 -0.77207,0.45828 -1.31737,0.71288c-0.13498,0.06111 -0.41573,-0.51429 -0.41573,-0.51429l-0.91786,0.61104c0.16738,0.18331 0.43193,0.46338 0.28076,0.58049c-0.49132,0.387 -0.77207,0.51429 -1.35518,0.88092c-0.17818,0.11712 -0.27536,-0.26988 -0.48592,-0.46338l-5.34511,3.98707c0,0 0.68029,0.49902 0.36174,0.75871c-0.6695,0.54993 -0.71269,0.54993 -1.1932,0.8962c-0.12419,0.09165 -0.52911,-0.35645 -0.75048,-0.60595l-0.77207,0.52447c0,0 0.5561,0.60595 0.35093,0.75871c-0.29155,0.22406 -0.71267,0.43792 -1.31737,0.77909c-0.32395,0.1884 -0.86926,-0.68743 -0.86926,-0.68743c0,0 -1.7493,1.11007 -2.49439,0.77909c-0.47512,-0.21386 -0.5237,-1.18135 -1.07982,-2.1794c0,0 -0.46972,-1.25773 -1.02043,-1.68545c-0.40493,-0.31571 -1.34437,-0.46338 -1.34437,-0.46338c-2.74275,-0.51429 -7.58034,-1.46651 -10.42566,-1.65491c-9.59961,-0.65178 -11.64047,-1.00823 -15.03109,-2.64786l-2.42961,-1.16609l-7.11061,-0.25968l-7.32117,-0.29025l-0.50752,0.83509l-14.64236,0l0,0.67215c0,0.37172 0.48053,2.12847 0.76668,4.23147c0,0 0.84225,3.76811 0.36174,4.07363c-0.49672,0.31061 -1.18781,0.77399 -1.18781,0.77399l0.82066,4.68977c1.1932,6.81823 1.2094,6.93026 1.231,9.44063l0.02159,2.29651l-0.38333,0.91656c-0.21057,0.50411 -0.75048,1.37994 -1.2094,1.94516l-0.82607,1.02859l-1.98146,0.88602c-1.08522,0.48374 -1.72771,0.72816 -2.10025,0.81981c-0.28615,0.06621 -0.99884,0.22406 -1.23639,0.32081c-0.11878,0.05092 -0.0702,0.34625 -0.25377,0.39208c-0.33475,0.08657 -3.88735,0.27497 -3.88735,0.27497c-2.12724,0.16295 -8.15264,0.50411 -13.38436,0.75361l-9.50782,0.4532l-1.32278,0.84018c-2.75354,1.74656 -5.24253,3.77319 -6.48432,5.27534c0,0 -0.98803,1.03878 -1.57653,1.39013c-0.46433,0.28006 -1.1932,0.51429 -1.71692,0.51429c-1.09061,0 -1.76011,-0.50411 -1.7493,-1.11006c0.01079,-0.76889 0.40493,-1.87896 0.40493,-1.87896zm0,0"/>
   <path stroke="null" id="svg_5" fill-rule="nonzero" fill="url(#linear3)" d="m11.97602,114.77438l0,0.49393c0,3.9616 3.36363,7.13903 7.54254,7.13903l155.8828,0c4.17889,0 7.54793,-3.17743 7.54793,-7.13903l0,-0.49393l-170.97327,0zm0,0"/>
   <path stroke="null" id="svg_6" fill-rule="nonzero" fill="url(#radial0)" d="m182.85211,40.85334c-4.03852,0 -7.30497,2.34233 -7.30497,5.22442c0,2.88209 3.26645,5.21424 7.30497,5.21424c4.03313,0 7.30499,-2.33215 7.30499,-5.21424c0,-2.88209 -3.27186,-5.22442 -7.30499,-5.22442zm7.8071,3.84449c0.54531,0.91656 0.84766,1.94006 0.84766,3.02466c0,3.85467 -3.84956,6.97608 -8.59537,6.97608c-4.7458,0 -8.58996,-3.12141 -8.58996,-6.97608c0,-0.66196 0.11338,-1.29846 0.32394,-1.90442c-0.42652,0.93185 -0.66409,1.95026 -0.66409,3.01448c0,4.40461 4.02233,7.97922 8.98951,7.97922c4.96717,0 8.98951,-3.57461 8.98951,-7.97922c0,-1.51742 -0.47512,-2.92791 -1.30119,-4.13472zm0,0"/>
   <path stroke="null" id="svg_7" fill-rule="nonzero" fill="url(#radial1)" d="m182.88991,40.42052c-5.12915,0 -9.28645,3.94124 -9.28645,8.79394c0,4.85271 4.1573,8.78375 9.28645,8.78375c5.12374,0 9.27025,-3.93104 9.27025,-8.78375c0,-4.8527 -4.14651,-8.79394 -9.27025,-8.79394zm-2.96951,0.84528c0.07019,0.01018 1.80869,-0.48375 2.9425,-0.41756c1.2472,0.07129 4.47587,0.53977 6.01461,2.52056c2.83453,3.65607 -0.37254,5.95258 -0.88546,6.39559c-0.03779,-0.33099 -0.6371,-2.61731 -1.2418,-3.64081c-0.35093,-0.59068 -0.95024,-1.30866 -1.31197,-1.70074c-0.58851,-0.6416 -1.16621,-1.06424 -1.8843,-1.58362c-2.45659,-0.53977 -0.42112,0.10183 0.39414,0.64668c0,0 3.45002,2.88718 3.75237,6.41087c-1.27958,0.78927 -3.03968,1.40031 -4.86459,1.40031c-4.03313,0 -7.19159,-2.30161 -7.19159,-5.18369c0.74507,-3.56953 2.85611,-3.96161 2.9911,-4.25185c0.40493,-0.23424 0.86386,-0.39718 1.28499,-0.59577zm3.05049,15.54088c-8.19584,-0.49902 -9.89655,-6.92007 -8.28222,-10.93768c-1.7871,4.01761 1.94908,8.67682 8.24982,8.89069c3.5958,0.01528 4.75661,-1.23227 4.75661,-1.23227c0,0 -0.02699,0.78417 -0.11338,1.19662c-0.09179,0.4481 -0.24836,0.94203 -0.24836,0.94203c-1.43616,0.86564 -1.82489,0.90638 -4.36247,1.14062zm0,0"/>
   <path stroke="null" id="svg_8" fill-rule="nonzero" fill="url(#linear4)" d="m188.10543,50.28887c-0.23216,-0.80963 -0.31855,-1.31374 -0.49671,-1.93497c-0.0216,-0.06111 -0.28615,-0.93185 -0.30775,-0.99295c-1.1284,-2.97884 -2.64556,-3.8954 -4.59464,-5.06149c-0.56151,-0.46336 -2.01925,-1.09988 -2.69415,-1.26791c0.77208,-0.2597 1.04744,-0.21896 1.44697,-0.34626c1.93827,-0.06619 3.73078,0.09675 5.79863,1.12534c2.32702,1.15081 3.5958,2.82608 3.6012,4.74578c0,0.5754 -0.05399,0.97257 -0.19436,1.46651c-0.29155,0.99295 -0.74509,1.84331 -1.58195,2.96865c-0.31853,0.3819 -0.6047,0.48884 -0.80985,0.41246c-0.19437,-0.07129 -0.054,-0.72307 -0.16738,-1.11516zm0,0"/>
   <path stroke="null" id="svg_9" fill-rule="nonzero" fill="url(#radial2)" d="m185.69744,45.25795c0,2.11319 -1.80871,3.82921 -4.04394,3.82921c-2.22983,0 -4.03852,-1.71602 -4.03852,-3.82921c0,-2.1132 1.80869,-3.82412 4.03852,-3.82412c2.23523,0 4.04394,1.71092 4.04394,3.82412zm0,0"/>
   <path stroke="rgb(100%,100%,100%)" id="svg_10" fill-rule="nonzero" fill="rgb(100%,100%,100%)" stroke-miterlimit="4" d="m178.48428,46.36282c1.23639,-1.32902 3.17467,-2.07245 6.54371,-1.60399c-1.03663,-1.20172 -2.27842,-2.06736 -3.6336,-2.75478c-2.86152,0.55503 -4.13571,1.89932 -4.85379,3.51859c0.52371,0.14767 1.00423,0.24951 1.94368,0.84018zm0,0"/>
   <path stroke="null" id="svg_11" fill-rule="nonzero" fill="#fff" d="m107.94501,133.87968c-3.01809,0 -5.15614,1.11006 -6.19277,3.21307c-0.43193,0.87074 -0.44813,0.97259 -0.38874,2.42891c0.0486,1.21189 0.12417,1.64472 0.38874,2.11829c0.77207,1.39521 1.93288,2.05717 5.70145,3.24362c3.63899,1.14062 4.35168,1.64473 4.35707,3.05012c0.0054,0.87074 -0.45892,1.51742 -1.41996,1.97062c-0.6533,0.31061 -0.93404,0.35645 -2.24603,0.35135c-1.8141,-0.01018 -2.75893,-0.32079 -4.21129,-1.35957c-0.52912,-0.3819 -1.04744,-0.69252 -1.14462,-0.69252c-0.23216,0 -2.20283,1.85859 -2.20283,2.07247c0,0.23932 1.51715,1.5276 2.27842,1.92987c0.90705,0.47865 1.8465,0.81473 2.88851,1.04388c1.2472,0.27496 4.04392,0.17313 5.27493,-0.1935c1.89508,-0.57031 3.18007,-1.62945 3.80636,-3.13161c0.26997,-0.64159 0.33475,-1.09478 0.34015,-2.29141c0.01079,-1.34938 -0.02699,-1.55816 -0.41034,-2.29651c-0.45892,-0.886 -1.32817,-1.69055 -2.44579,-2.26595c-0.39953,-0.20877 -1.93827,-0.76889 -3.42303,-1.24755c-1.47935,-0.47865 -2.9479,-1.02859 -3.26106,-1.22209c-1.05281,-0.65178 -1.27418,-1.78221 -0.52911,-2.6835c1.09602,-1.31375 4.35708,-1.217 6.33855,0.20368c0.44272,0.3157 0.86386,0.58049 0.92325,0.58049c0.23755,0 2.14344,-1.9197 2.14344,-2.15392c0,-0.35645 -1.38217,-1.35449 -2.61856,-1.89424c-1.33359,-0.58559 -2.30542,-0.77399 -3.94674,-0.77399zm45.34703,0.0051c-2.00846,-0.0051 -3.02889,0.20368 -4.63783,0.94202c-2.03006,0.93693 -3.52561,2.74461 -4.36247,5.29063c-0.31314,0.94711 -0.35093,1.3392 -0.35093,3.54405c0,2.68859 0.19436,3.64081 1.07982,5.32117c1.2094,2.29141 3.48242,3.9005 6.07939,4.31295c3.33124,0.52449 6.74347,-0.29533 8.62236,-2.07755c1.64672,-1.56326 2.24603,-3.24872 2.3702,-6.66547l0.08639,-2.30669l-8.28222,0l0,3.68663l1.34979,0c1.32817,0 1.34437,0.0051 1.34437,0.34626c0,0.84018 -0.71808,1.79749 -1.61972,2.16412c-0.6101,0.24442 -2.07866,0.26988 -2.79133,0.04582c-0.6587,-0.20368 -1.61974,-1.22209 -1.8519,-1.96552c-0.36174,-1.13552 -0.49132,-2.80062 -0.31855,-4.094c0.32934,-2.52565 1.39298,-3.73246 3.28806,-3.72736c0.68568,0.0051 1.66832,0.43282 2.05706,0.90129c0.16737,0.20368 0.44813,0.37171 0.61549,0.37171c0.33475,0 4.80521,-1.63453 5.01577,-1.83313c0.21056,-0.19858 -0.64789,-1.55306 -1.47396,-2.34233c-1.42536,-1.3443 -3.26105,-1.9146 -6.21976,-1.9146zm-85.80248,0.2546l0,19.05947l3.85495,-0.06619c2.9803,-0.05601 4.05472,-0.12729 4.72962,-0.31061c4.44886,-1.20681 6.68948,-4.30786 6.68948,-9.26241c0,-1.88405 -0.31855,-3.36583 -1.03663,-4.7865c-1.02043,-2.04191 -2.67795,-3.40657 -5.02116,-4.13982c-1.16621,-0.37172 -1.34438,-0.387 -5.21013,-0.44301l-4.00614,-0.05092zm-15.91115,0.01528l-1.66832,0.03564l-1.66832,0.04074l-0.0324,9.29296c-0.0216,5.10731 -0.01079,9.37442 0.0324,9.47117c0.05399,0.13749 0.45892,0.17314 1.60893,0.14258l1.53874,-0.04074l0.03779,-6.65019c-0.08639,-3.06541 -0.16196,-6.38033 -0.16196,-6.38033c0,0 0.15117,0.08147 1.68991,1.9859c0.82066,1.23737 2.82913,4.22639 4.45967,6.64511l2.9587,4.39952l3.14767,0l0.0378,-9.47119l0.03779,-9.46609l-3.29885,0l-0.00539,6.62983c-0.0054,4.2824 -0.05939,6.55854 -0.15118,6.42105c-0.08098,-0.11711 -2.04086,-3.10614 -4.35707,-6.63491l-4.2059,-6.42105zm123.84454,0l-5.85802,0.07638l-7.05662,18.76414l6.10098,0.10185l0.96644,-3.12141l5.74464,0.10693l1.05823,3.08578l6.18196,-0.11712l-7.13761,-18.89653zm-164.09482,0.00508l0,9.41008c0,5.17351 0.04319,9.45081 0.09718,9.50174c0.16198,0.15275 8.72494,0.10693 9.78857,-0.05093c1.15001,-0.17313 2.56996,-0.77399 3.31505,-1.39012c1.16621,-0.97259 1.89508,-2.99921 1.72771,-4.84762c-0.14039,-1.57853 -0.90705,-2.84136 -2.17045,-3.56443c-0.30235,-0.16803 -0.5723,-0.32589 -0.59929,-0.34625c-0.02699,-0.01528 0.24836,-0.29025 0.6209,-0.61104c1.02583,-0.90129 1.33898,-1.73638 1.27418,-3.41676c-0.04319,-1.19153 -0.11338,-1.47669 -0.50211,-2.20484c-0.56151,-1.03878 -1.57114,-1.80258 -2.89392,-2.19467c-0.86925,-0.2546 -1.38756,-0.28515 -5.80403,-0.28515l-4.85378,0zm29.80303,0l-0.0054,5.63688c0,3.10105 -0.0648,6.0799 -0.15118,6.61965c-0.39413,2.58675 -1.84109,3.84449 -4.38406,3.80883c-1.82489,-0.02036 -3.0289,-0.81981 -3.75777,-2.49509c-0.30235,-0.69761 -0.31855,-1.03368 -0.38874,-7.11357l-0.07559,-6.38541l-3.29345,0l0,6.31412c-0.16737,6.01879 -0.03779,12.79628 7.56414,12.89303c3.84416,0.03054 6.38173,-1.74148 7.43996,-5.18878c0.21596,-0.70779 0.25916,-1.75676 0.30774,-7.45983l0.05939,-6.62983l-3.31504,0zm93.74995,0l-0.05939,18.95764l5.9714,-0.02036l0.07559,-18.93728l-5.9876,0zm-49.49894,0.07129l-0.03779,9.29296c-0.0216,5.10731 -0.0054,9.36934 0.03238,9.46609c0.05939,0.13749 1.54415,0.17822 6.74348,0.17822l6.66789,0l0,-3.12143l-10.03693,0l0,-5.52994l5.54488,0l0,-3.12141l-5.54488,0l0,-4.25695l9.74537,0l-0.04319,-1.45123l-0.03779,-1.45632l-13.03343,0zm33.24766,0l-0.0378,9.29296c-0.02159,5.10731 -0.00539,9.36934 0.0324,9.46609c0.05939,0.13749 1.52795,0.17822 6.66789,0.17822l6.5923,0l0,-4.82216l-7.33198,0l-0.04319,-7.05757l-0.03779,-7.05755l-5.84182,0zm-100.7094,2.79552c0.97724,0.01019 1.87888,0.05093 2.21903,0.11203c1.38217,0.24442 2.08944,1.16607 1.92748,2.51547c-0.08639,0.76381 -0.79367,1.5327 -1.59813,1.74656c-0.29155,0.07639 -1.76011,0.13749 -3.26645,0.13749l-2.73735,0l0.08639,-4.47081l2.3756,-0.03564c0.32394,-0.0051 0.66409,-0.0051 0.99343,-0.0051zm52.86258,0.11203l0.78827,0.0051c1.37137,0.00508 3.51482,0.26478 4.17891,0.51429c2.3918,0.88602 3.5688,2.86682 3.5688,5.99331c0,1.52252 -0.20517,2.52565 -0.70188,3.48805c-0.72348,1.39012 -1.97067,2.31687 -3.63899,2.68859c-0.55071,0.12221 -1.67372,0.21895 -2.58618,0.21895l-1.60893,0l0,-12.9083zm101.77302,3.44222l1.55494,4.89344l-3.23406,-0.07129l1.67911,-4.82214zm-158.08022,3.79356l2.68336,0c3.37983,0 4.07631,0.13239 4.89697,0.90638c1.56034,1.48178 0.94485,4.22131 -1.07442,4.75088c-0.34014,0.09165 -1.85189,0.15785 -3.5526,0.15785l-2.95331,0l0,-5.8151zm0,0"/>
  </g>
 </g>
</svg>