<?xml version="1.0" encoding="UTF-8" standalone="no"?>
<svg height="412.4621" viewBox="0 0 234 412.46208" width="234" xmlns="http://www.w3.org/2000/svg" xmlns:xlink="http://www.w3.org/1999/xlink">
   <linearGradient id="a">
      <stop offset="0" stop-color="#147ad1"/>
      <stop offset="1" stop-color="#002d71"/>
   </linearGradient>
   <linearGradient id="b" gradientUnits="userSpaceOnUse" x1="371.89429" x2="1334.9531" xlink:href="#a" y1="2114.7334" y2="2670.7556"/>
   <linearGradient id="c" gradientUnits="userSpaceOnUse" x1="2095.9402" x2="1191.2711" xlink:href="#a" y1="2087.896" y2="2721.3523"/>
   <linearGradient id="d" gradientUnits="userSpaceOnUse" x1="1055.9733" x2="1614.481" xlink:href="#a" y1="2523.6011" y2="2201.1465"/>
   <linearGradient id="e" gradientUnits="userSpaceOnUse" x1="1431.259" x2="950.29858" xlink:href="#a" y1="1969.1974" y2="1632.4252"/>
   <linearGradient id="f" gradientUnits="userSpaceOnUse" x1="1149.2131" x2="1842.0645" xlink:href="#a" y1="1610.6727" y2="2303.5242"/>
   <linearGradient id="g" gradientUnits="userSpaceOnUse" x1="1636.4025" x2="1115.7302" xlink:href="#a" y1="2248.8899" y2="2613.4685"/>
   <g transform="matrix(.09211422 0 0 .09211422 2 2)">
      <path d="m1959.8 4434.2h-1422.7c-296.7 0-537.1-240.4-537.1-537v-3360.1c0-296.7 240.4-537.1 537.1-537.1h1422.7c296.6 0 537.1 240.4 537.1 537.1v3360.1c-.1 296.6-240.5 537-537.1 537z" fill="#fff"/>
      <path d="m0 3484.3v412.9c0 296.6 240.4 537.1 537.1 537.1h1422.7c296.6 0 537.1-240.4 537.1-537.1v-412.9z" fill="#024494"/>
      <path d="m2155.2 3681.6h-33.5c-42.9 0-45.7 4.7-49 12.3l-66.4 159.3c-22.1 52.8-44.8 109.8-53.7 139-8-29.7-22.6-68.8-53.7-141.8l-66.4-156.4c-4.2-9.4-20.7-12.3-57-12.3h-37.7c-36.8 0-44.3 3.3-44.3 10.8v480.2c0 9 7.5 10.8 45.7 10.8h20.7c37.7 0 48.1-1.9 48.1-10.8v-284.7h2.8c0 0 3.3 13.2 9 25.4l76.3 178.6c3.3 8 7.5 11.3 42.9 11.3h22.6c36.3 0 38.6-2.8 41.9-11.3l69.7-172c6.6-16 11.3-32 11.3-32h2.8v285c0 9 7.1 10.8 46.6 10.8h20.3c36.8 0 47.6-1.9 47.6-10.8v-480.6c1-7.5-9.8-10.8-46.6-10.8" fill="#ff1f11"/>
      <path d="m1600.2 3692.4c0-7.5-10.4-10.8-47.6-10.8h-21.2c-38.6 0-45.7 3.3-45.7 10.8v480.2c0 9 6.6 10.8 45.7 10.8h21.7c36.8 0 47.6-1.9 47.6-10.8z" fill="#fff"/>
      <path d="m1396.1 3681.6c9.9 0 12.3 1.4 12.3 36.8v33c0 33.9-2.8 38.2-12.3 38.2h-113.6v383.1c0 9-10.8 10.8-49 10.8h-20.3c-38.6 0-45.7-1.9-45.7-10.8v-383.1h-113.6c-9.4 0-12.3-2.8-12.3-38.2v-33c0-36.8 1.9-36.8 11.8-36.8z" fill="#00be1b"/>
      <path d="m548 4076h-211.1c-8 0-15.1 3.3-20.3 8.5-5.2 5.2-8.5 12.3-8.5 20.3v49.5c0 8 3.3 15.1 8.5 20.3 5.2 5.2 12.3 8.5 20.3 8.5h211.1zm352 8.5c-5.2-5.2-12.3-8.5-20.3-8.5h-211.1v107h211.1c8 0 15.5-3.3 20.3-8.5 5.2-5.2 8.5-12.3 8.5-20.3v-49.5c0-8-3.3-15.1-8.5-20.2m0-197c-5.2-5.2-12.3-8.5-20.3-8.5h-211.1v107.4h211.1c8 0 15.5-3.3 20.3-8.5 5.2-5.2 8.5-12.3 8.5-20.3v-49.5c0-8.4-3.3-15.4-8.5-20.6m-352-8.5h-211.1c-8 0-15.1 3.3-20.3 8.5-5.2 5.2-8.5 12.3-8.5 20.3v49.5c0 8 3.3 15.1 8.5 20.3 5.2 5.2 12.3 8.5 20.3 8.5h211.1zm331.7-90h-542.8c-8 0-15.1-3.3-20.3-8.5-5.2-5.2-8.5-12.3-8.5-20.3v-49.5c0-8 3.3-15.1 8.5-20.3 5.2-5.2 12.3-8.5 20.3-8.5h542.8c8 0 15.5 3.3 20.3 8.5 5.2 5.2 8.5 12.3 8.5 20.3v49.5c0 8-3.3 15.1-8.5 20.3-5.2 5.2-12.3 8.5-20.3 8.5" fill="#e40d2c"/>
      <polygon clip-rule="evenodd" fill="url(#b)" fill-rule="evenodd" points="309.8 2222.3 1254 2811 882 2222.3"/>
      <polygon clip-rule="evenodd" fill="url(#c)" fill-rule="evenodd" points="1617.8 2222.3 1254 2811 2190.1 2222.3"/>
      <polygon clip-rule="evenodd" fill="url(#d)" fill-rule="evenodd" points="882 2222.3 1254 2811 1254 2222.3"/>
      <polygon clip-rule="evenodd" fill="url(#e)" fill-rule="evenodd" points="1249.9 1204.5 882 2222.3 1254 2222.3"/>
      <polygon clip-rule="evenodd" fill="url(#f)" fill-rule="evenodd" points="1249.9 1204.5 1254 2222.3 1617.8 2222.3"/>
      <polygon clip-rule="evenodd" fill="url(#g)" fill-rule="evenodd" points="1254 2222.3 1254 2811 1617.8 2222.3"/>
      <path d="m2190.1 2222.3v0l-748.1-1741.3c-171.7 0-212.6 0-388.3 0l-743.9 1741.3h572.2l367.9-1017.8 171.7 474.2h-171.7l-98.1 294.3h376.1l89.9 249.3z" fill="#008fd7"/>
      <path d="m427.5 3320.9c-28.2 0-55.5-4.9-81.9-14.6-26.4-9.7-47.1-21.9-62.1-36.6-2.9-2.9-3.1-6-.6-9.3l41.8-47.8c2.2-2.9 4.9-3.1 8.2-.5 32.2 25.7 64.9 38.5 97.8 38.5 19 0 34-4 44.8-12.1 10.8-8.1 16.2-18.9 16.2-32.4 0-11.7-4.3-20.9-12.9-27.5-8.6-6.6-23.6-11.4-44.8-14.3l-19.8-2.7c-78.8-11-118.2-48.4-118.2-112.1 0-34.4 12-62.1 36-83 24-20.9 56.1-31.3 96.5-31.3 50.9 0 93.3 13 127 39 3.3 2.2 3.7 4.9 1.1 8.2l-33.5 50c-2.2 2.9-4.8 3.5-7.7 1.6-29.3-19-58.3-28.6-86.8-28.6-16.1 0-28.5 3.8-37.1 11.3-8.6 7.5-12.9 17.3-12.9 29.4 0 11 4.5 19.9 13.5 26.7 9 6.8 23.9 11.6 44.8 14.6l19.8 2.7c78.4 10.6 117.6 48.4 117.6 113.2 0 35.2-12.7 63.6-38.2 85.2-25.5 21.5-61.7 32.4-108.6 32.4z" fill="#002d71"/>
      <path d="m629.8 3309.3v-362.8c0-3.7 1.8-5.5 5.5-5.5h239.6c3.7 0 5.5 1.8 5.5 5.5v58.8c0 3.7-1.8 5.5-5.5 5.5h-161c-2.2 0-3.3 1.1-3.3 3.3v74.2c0 2.2 1.1 3.3 3.3 3.3h134.1c3.7 0 5.5 1.8 5.5 5.5v58.3c0 3.7-1.8 5.5-5.5 5.5h-134.1c-2.2 0-3.3 1.1-3.3 3.3v77.5c0 2.2 1.1 3.3 3.3 3.3h161.1c3.7 0 5.5 1.8 5.5 5.5v58.8c0 3.7-1.8 5.5-5.5 5.5h-239.7c-3.7 0-5.5-1.8-5.5-5.5z" fill="#002d71"/>
      <path d="m1234 3314.8h-78.1c-4 0-6.8-1.8-8.2-5.5l-64.3-136.9h-50c-2.2 0-3.3 1.1-3.3 3.3v133.6c0 3.7-1.8 5.5-5.5 5.5h-69.8c-3.7 0-5.5-1.8-5.5-5.5v-362.8c0-3.7 1.8-5.5 5.5-5.5h149c38.1 0 68.8 10.7 92.1 32.2 23.3 21.4 34.9 49.4 34.9 83.8 0 23.8-5.9 44.8-17.6 62.9-11.7 18.1-28 31.8-48.9 41l73.7 147.3c.7 1.5.7 2.9 0 4.4-.9 1.5-2.2 2.2-4 2.2zm-134.7-211.1c15.4 0 27.7-4.2 36.8-12.6 9.2-8.4 13.7-19.8 13.7-34.1 0-13.9-4.6-25.1-13.7-33.5-9.2-8.4-21.4-12.6-36.8-12.6h-66c-2.2 0-3.3 1.1-3.3 3.3v86.3c0 2.2 1.1 3.3 3.3 3.3h66z" fill="#002d71"/>
      <path d="m1295.3 3309.3v-362.8c0-3.7 1.8-5.5 5.5-5.5h69.8c3.7 0 5.5 1.8 5.5 5.5v362.8c0 3.7-1.8 5.5-5.5 5.5h-69.8c-3.7 0-5.5-1.8-5.5-5.5z" fill="#002d71"/>
      <path d="m1456.2 3309.3v-362.8c0-3.7 1.8-5.5 5.5-5.5h239.6c3.7 0 5.5 1.8 5.5 5.5v58.8c0 3.7-1.8 5.5-5.5 5.5h-161.1c-2.2 0-3.3 1.1-3.3 3.3v74.2c0 2.2 1.1 3.3 3.3 3.3h134.1c3.7 0 5.5 1.8 5.5 5.5v58.3c0 3.7-1.8 5.5-5.5 5.5h-134.1c-2.2 0-3.3 1.1-3.3 3.3v77.5c0 2.2 1.1 3.3 3.3 3.3h161.1c3.7 0 5.5 1.8 5.5 5.5v58.8c0 3.7-1.8 5.5-5.5 5.5h-239.6c-3.6 0-5.5-1.8-5.5-5.5z" fill="#002d71"/>
      <path d="m1879.4 3309.3l128.6-362.8c1.1-3.7 3.5-5.5 7.1-5.5h69.3c3.7 0 6 1.8 7.1 5.5l126.4 362.8c1.1 3.7-.2 5.5-3.8 5.5h-71.5c-3.7 0-6-1.8-7.1-5.5l-21.4-65.4h-130.8l-20.9 65.4c-1.1 3.7-3.5 5.5-7.1 5.5h-72c-3.8 0-5-1.8-3.9-5.5zm126.4-134.1h86.3l-42.3-130.8h-1.7z" fill="#002d71"/>
   </g>
</svg>
