<?xml version="1.0" encoding="UTF-8" standalone="no"?>
<!-- Generator: Adobe Illustrator 18.0.0, SVG Export Plug-In . SVG Version: 6.00 Build 0)  -->

<svg
   xmlns:dc="http://purl.org/dc/elements/1.1/"
   xmlns:cc="http://creativecommons.org/ns#"
   xmlns:rdf="http://www.w3.org/1999/02/22-rdf-syntax-ns#"
   xmlns:svg="http://www.w3.org/2000/svg"
   xmlns="http://www.w3.org/2000/svg"
   xmlns:sodipodi="http://sodipodi.sourceforge.net/DTD/sodipodi-0.dtd"
   xmlns:inkscape="http://www.inkscape.org/namespaces/inkscape"
   version="1.1"
   id="Ebene_1"
   x="0px"
   y="0px"
   viewBox="0 0 4096 4096"
   enable-background="new 0 0 87 99"
   xml:space="preserve"
   sodipodi:docname="1-fc-koln-logo.svg"
   width="4096"
   height="4096"
   inkscape:version="0.92.4 (5da689c313, 2019-01-14)"
   inkscape:export-filename="G:\Users\suitedoalex\sites\1-fc-koln-logo-0.png"
   inkscape:export-xdpi="96"
   inkscape:export-ydpi="96"><metadata
   id="metadata69"><rdf:RDF><cc:Work
       rdf:about=""><dc:format>image/svg+xml</dc:format><dc:type
         rdf:resource="http://purl.org/dc/dcmitype/StillImage" /><dc:title></dc:title></cc:Work></rdf:RDF></metadata><defs
   id="defs67" /><sodipodi:namedview
   pagecolor="#ffffff"
   bordercolor="#666666"
   borderopacity="1"
   objecttolerance="10"
   gridtolerance="10"
   guidetolerance="10"
   inkscape:pageopacity="0"
   inkscape:pageshadow="2"
   inkscape:window-width="1600"
   inkscape:window-height="837"
   id="namedview65"
   showgrid="false"
   inkscape:zoom="0.10535177"
   inkscape:cx="2393.9149"
   inkscape:cy="1193.5918"
   inkscape:window-x="-8"
   inkscape:window-y="-8"
   inkscape:window-maximized="1"
   inkscape:current-layer="Ebene_1" />
<g
   id="g62"
   transform="matrix(25.869239,0,0,25.869239,923.63752,767.47267)"
   inkscape:export-filename="G:\Users\suitedoalex\sites\1-fc-koln-logo-4.png"
   inkscape:export-xdpi="17.076342"
   inkscape:export-ydpi="17.076342">
	<path
   d="m 86.6,49.5 c 0.1,0 0,0 0,0 0.1,-0.3 0.2,-0.5 0.2,-0.8 0,-0.2 0,-0.4 -0.1,-0.6 -0.1,-0.1 -0.1,-0.2 -0.2,-0.3 0.1,-0.2 0.2,-0.6 0.2,-0.6 0,-0.1 0,-0.2 0,-0.3 0,-0.4 -0.2,-0.8 -0.6,-1.1 -0.5,-0.3 -1.1,-0.3 -1.6,0 -0.4,0.2 -0.6,0.7 -0.9,1.1 -0.2,-0.2 -0.3,-0.3 -0.6,-0.2 -0.4,0.1 -0.4,0.2 -0.7,0.7 -1.2,1.7 -2.8,4.5 -4.6,4.6 -0.4,0 -0.5,-0.2 -1,-0.9 C 72.8,44.8 68,41.1 61.6,36.6 61.2,36.3 60.4,35 59.6,33.8 58.2,31.7 56.7,29.3 55.2,28.2 54,27.3 52.7,26.9 51.5,26.4 50,25.9 48.6,25.4 47.4,24.2 46.9,23.7 46.4,23 45.9,22.3 44.8,20.7 43.5,18.8 40.9,17.2 41,16.8 41,16.3 41,15.7 c 0,-0.8 -0.2,-2 -0.6,-2.6 -0.3,-0.5 -0.7,-0.8 -1.1,-0.9 -0.7,-0.2 -1.8,0.1 -2.6,0.4 1.5,-4.5 5,-7.4 6.9,-8.9 1,-0.8 1.6,-1.3 1.6,-2 0,-0.1 0,-0.2 0,-0.3 C 45.2,0.1 43.8,0 43.2,0 H 43.1 C 42.3,0 39.8,0.1 38,1.4 37.5,1.5 37,1.8 36.6,2 36.6,1.9 36.6,1.8 36.5,1.8 36.3,1.3 35.7,0.9 34.8,1 33,1.3 32,1.7 31.3,2.1 c 0,0 -0.2,0.1 -0.2,0.1 -0.6,0.4 -1.6,1 -2.4,2.5 C 28,5.2 27.2,6 26.9,7.3 26.1,7.8 25.5,8.7 25.5,9.9 25,10.5 24.7,11.1 24.6,11.7 23.8,11 22.9,10.6 21.9,10.4 h -0.1 -0.1 c -0.3,0 -1,0 -1.6,0.5 V 11 L 20,11.2 c -0.1,0.2 -0.1,0.4 -0.1,0.5 0,0.4 0.2,0.8 0.3,0.9 l 0.1,0.1 c 0,0 0.2,0.9 0.2,0.9 l 0.1,0.9 c 0.3,1.5 0.9,2.3 1.8,3 -0.2,0.5 -0.3,1 -0.3,1.5 0,0.7 0.2,1.3 0.4,1.9 0,0 0,0.1 0.1,0.2 0,0.1 0,0.2 0,0.3 0,1 -0.4,3.1 -0.7,4.3 0,0 -0.1,0.4 -0.1,0.4 -0.2,0.7 -0.7,2.1 -0.7,3.5 0,0.5 0.1,1.1 0.2,1.6 0.3,0.9 1,2 2,2.5 0,0 0.6,0.2 0.6,0.2 0.5,0.2 0.6,0.2 0.9,0.6 0.2,0.3 0.3,1.2 0.3,2.1 0,0.7 0,1.4 -0.1,1.9 v 0.1 c 0,0 0,0.1 0,0.1 0,0.5 0.3,1 0.8,1.2 0.4,0.2 1,0.1 1.6,-0.4 0.3,-0.3 0.6,-0.7 0.9,-1.1 0.1,0.1 0.1,0.2 0.2,0.3 v 0 0 c 0.2,0.1 0.4,0.2 0.6,0.2 -0.6,0.4 -1.4,0.9 -2.4,1.5 -6,0.9 -9.9,3.1 -10.7,5.8 C 6.1,50.9 0,60.6 0,71.2 0,86.5 12.4,99 27.7,99 43,99 55.5,86.5 55.5,71.2 c 0,-3.6 -0.7,-7.1 -2.1,-10.4 0.1,0 0.2,-0.1 0.4,-0.2 0.1,0.1 0.2,0.2 0.2,0.2 0.3,0.4 1,0.9 1.6,0.9 0.6,0 0.9,-0.1 0.9,-0.1 0,0 0,0 0.1,0 0,0.1 0.3,0.5 0.3,0.5 0.5,0.8 1.4,0.8 1.9,0.8 0.3,0 0.5,0 0.8,0.1 0.3,0.1 0.4,0.5 0.5,1.4 l 0.1,0.6 c 0.2,0.7 0.5,1 0.8,1.2 0,0 0,0 0,0 0,0.2 0.2,0.9 0.2,0.9 0.1,0.7 0.2,1.6 1,1.9 0,0 0,0 0.1,0 0.1,0.6 0.2,1.4 0.9,1.8 0.2,0.1 0.4,0.1 0.6,0.1 0,0 0,0.1 0,0.1 0.2,0.9 0.9,1.2 1.2,1.3 0,0 0,0 0,0 0,0.1 0.5,0.8 0.5,0.8 0.3,0.5 0.6,1.1 1,1.4 l 0.2,0.1 0.2,0.1 c 0.1,0 0.2,0 0.3,0 0.9,1.2 3.4,4.9 3.4,8.4 0,0.2 0,0.3 0,0.5 -0.2,2.4 -1.1,3.6 -1.8,4.4 -0.7,0.9 -0.8,2 -0.8,2.4 v 0.1 c 0.1,1 0.6,1.4 1,1.6 0.4,0.2 1.6,0.7 3.2,0 1.3,-0.6 1.6,-1.6 1.8,-2.3 0.1,-0.3 0.1,-0.5 0.2,-0.6 0.6,-0.6 1.4,-1.5 1.4,-2.9 0,-0.1 0,-0.2 0,-0.4 0,-1.2 -0.4,-2.7 -0.8,-4.1 -0.2,-0.6 -0.4,-1.9 -0.4,-3.2 0.5,0.7 1,1.5 1.2,1.9 l 0.1,0.2 c 0.3,0.6 1.3,2.3 1.3,4 0,0.2 0,0.4 0,0.5 -0.2,1.1 -0.5,1.8 -0.9,2.5 -0.4,0.8 -0.9,1.6 -1.2,3.1 0,0.2 0,0.4 0,0.6 0,0.8 0.3,1.4 0.8,1.9 0.8,0.6 1.9,0.8 3.1,0.3 1.5,-0.5 2.6,-2.3 2.9,-4.6 0.2,-0.1 0.4,-0.3 0.4,-0.3 0.4,-0.4 0.5,-0.9 0.5,-1.4 0,-0.4 -0.1,-0.7 -0.1,-0.8 -0.8,-3.3 -1,-4.9 -1,-6.1 0,-0.3 0,-0.7 0,-1 L 81.4,76.6 C 81.3,75.7 80.9,75.1 80.5,74.7 80.3,74.5 79.9,74 79.9,74 c -0.4,-0.4 -1,-1 -1.1,-1.5 -0.2,-0.6 -0.2,-1.4 -0.2,-2.3 0,-1.6 0.2,-3.4 0.4,-5.2 0.2,-1.9 0.4,-3.8 0.4,-5.5 0,-0.7 0,-1.4 -0.1,-2 4.5,0.1 6.6,-4.5 7.3,-6.1 l 0.1,-0.3 c 0.1,-0.3 0.2,-0.6 0.2,-0.9 C 87,50 86.8,49.7 86.6,49.5 M 31.9,33.6 c 0.1,-0.5 0.1,-0.8 0.2,-1.2 0.1,0 0.2,0.1 0.4,0.1 0.1,0.8 0.6,1.2 0.9,1.4 0,0 0.2,0.9 0.2,0.9 0,0 0,0.1 0.1,0.1 -0.3,0.2 -0.6,0.5 -1,0.9 L 32,36.3 c -0.6,0.5 -1,0.9 -1.5,1.3 0.7,-1.2 1.2,-2.8 1.4,-4"
   id="path2"
   inkscape:connector-curvature="0"
   style="fill:#ffffff" />
	<path
   d="m 80.7,74.9 c 0,0 0,0 0,0 0.1,0.1 0.1,0.2 0.1,0.2 z"
   id="path4"
   inkscape:connector-curvature="0"
   style="fill:#ffffff" />
	<path
   d="M 1.1,71.2 C 1.1,56.4 13,44.5 27.8,44.5 c 14.7,0 26.7,12 26.7,26.7 C 54.5,86 42.6,97.9 27.8,97.9 13,97.9 1.1,86 1.1,71.2"
   id="path6"
   inkscape:connector-curvature="0"
   style="fill:#e20613" />
	<path
   d="m 4.3,71.2 c 0,-13 10.5,-23.5 23.5,-23.5 13,0 23.5,10.5 23.5,23.5 0,13 -10.5,23.5 -23.5,23.5 -13,0 -23.5,-10.5 -23.5,-23.5"
   id="path8"
   inkscape:connector-curvature="0"
   style="fill:#ffffff" />
	<path
   d="m 6,71.2 c 0,-12 9.7,-21.8 21.7,-21.8 12,0 21.7,9.7 21.7,21.8 C 49.4,83.2 39.7,93 27.7,93 15.8,93 6,83.2 6,71.2"
   id="path10"
   inkscape:connector-curvature="0"
   style="fill:#e20613" />
	<path
   d="m 50.6,57.2 c -0.4,-0.5 -0.9,-1.1 -0.9,-1.1 -4.8,-7 -12.9,-11.6 -22,-11.6 v 0.1 c -0.4,0.1 -0.7,0.3 -1.2,0.6 -0.8,0.4 -1.7,0.5 -2.5,0.5 -0.7,0 -0.2,-0.9 -0.6,-0.7 -0.5,0.1 -1.5,0.5 -2,0.8 0,1 -3.2,2.1 -4.9,1.3 0.2,-2.5 4.3,-4.6 10.2,-5.5 3.7,-2.2 4.2,-2.8 6.6,-4.9 1.1,-1 1.6,-1.4 1.9,-1.4 0.2,-0.1 0,-0.2 -0.1,-0.2 -0.3,-0.1 -0.5,-0.4 -0.6,-0.6 -0.2,-0.4 -0.1,-0.9 -0.3,-1.1 -0.3,-0.2 -0.7,-0.4 -0.8,-0.9 0,-0.3 0,-0.7 -0.4,-0.7 -0.5,0 -0.7,0.1 -0.8,-1 0,-0.5 0,-1.3 -0.3,-1.3 -0.4,0 -0.7,1.2 -1.1,4.2 -0.3,2.2 -1.6,4.7 -2,4.4 -0.4,-0.4 -0.1,-2.7 -0.7,-3.7 -0.1,-0.2 0.2,2.5 -1.8,4.6 -0.3,0.3 -0.5,0.1 -0.5,0 0.1,-0.6 0.3,-3.8 -0.3,-4.8 C 25,33.4 24.4,33.3 23.7,33 23,32.7 22.5,31.8 22.3,31.2 c -0.5,-2.1 0.4,-4.3 0.6,-5 0.2,-0.7 0.9,-3.8 0.7,-5 -0.3,-1 -0.7,-1.9 -0.1,-3.4 0.1,-0.2 0.2,-0.3 0,-0.4 -1,-0.7 -1.6,-1.3 -1.9,-2.8 -0.2,-0.9 0,-1.2 -0.4,-2 -0.1,-0.3 -0.4,-0.5 -0.3,-0.7 0.2,-0.2 0.5,-0.2 0.8,-0.2 1.6,0.3 2.6,1.2 3.2,2.1 0.2,-0.4 0.4,-0.7 0.7,-0.9 -0.1,-1 0.4,-1.7 1,-2.4 -0.1,-1.2 0.7,-2 1.3,-2.2 0.1,-1 0.7,-1.8 1.7,-2.5 0.7,-1.6 1.7,-2.1 2.3,-2.4 0.6,-0.3 1.5,-0.7 3.1,-1 0.7,-0.1 0.8,0.3 0.5,0.6 -1,0.8 -3.4,3.4 -4.4,6.2 0.3,-0.6 1.1,-1.5 2,-1.9 0.5,-1.4 1.8,-2.1 2.6,-2.5 0.4,-0.8 1.4,-1.9 2.9,-2.2 1.6,-1.4 4.2,-1.3 4.6,-1.3 0.5,0 1.2,0 1.3,0.5 0.2,0.7 -7.8,4.8 -9.1,13.2 0,0.4 2,-1.9 4.1,-1.6 0.1,0.1 0.2,0.1 0.3,0.3 1,2.1 0,4.1 0.3,4.2 4.2,2.4 5.1,5.5 6.8,7.3 2.5,2.4 5.5,2.3 7.9,4.1 2.3,1.7 5,7.2 6.4,8.4 5.8,4 10.8,7.7 14.8,14 0.5,0.8 0.9,1.3 1.9,1.4 2.2,-0.1 4,-2.7 5.5,-5 0.1,-0.1 0.2,-0.2 0.3,-0.1 0.2,0.1 0.1,0.5 0.3,0.5 0.5,0.1 0.9,-1.4 1.4,-1.7 0.2,-0.1 0.5,0 0.4,0.2 -0.1,0.5 -0.5,1.2 -0.5,1.6 0,0.1 0.1,0.1 0.1,0 0.1,-0.1 0.2,-0.1 0.3,-0.1 0.2,0 0.2,0.3 0.1,0.4 -0.2,0.3 -0.3,0.7 -0.4,1.1 0,0.3 0.3,0.1 0.4,0.2 0.2,0.1 0.2,0.4 0.1,0.7 -0.6,1.4 -2.5,6.4 -7,5.7 C 78.3,56.5 78,56.1 78.2,56.7 79.3,60.6 77.1,69 78,73 c 0.3,1.1 1.6,2.1 2,2.7 0.2,0.2 0.5,0.7 0.6,1.2 0.3,3.4 -0.6,3.7 1,10.1 0.1,0.5 0.1,0.9 -0.2,1.2 -0.3,0.3 -0.5,0.2 -0.6,0.5 -0.2,2 -1,3.7 -2.2,4.1 -1.7,0.6 -2.7,-0.2 -2.5,-1.6 0.5,-2.5 1.7,-3 2.1,-5.6 0.3,-2.2 -1,-4.4 -1.4,-5.2 -0.4,-0.7 -1.5,-2.6 -2.8,-3.8 -0.2,-0.2 -0.3,-0.2 -0.4,0 -0.5,1.6 0,4.8 0.2,5.6 0.4,1.3 0.8,3 0.7,4.1 -0.1,1.1 -0.6,1.7 -1.1,2.2 -0.8,0.8 -0.3,2 -1.7,2.6 -1.1,0.4 -1.9,0.3 -2.2,0.1 C 69.2,91 69,90.9 69,90.5 c 0,-0.5 0.1,-1.2 0.5,-1.8 0.8,-1 1.8,-2.4 2,-5 C 71.8,79 67.7,73.6 67.4,73.5 67.1,73.4 67.2,73.7 67,73.6 66.6,73.3 66.1,72 65.6,71.5 65.4,71.2 64.8,71.3 64.7,70.8 64.6,70.4 64.5,70.1 64.2,69.9 64,69.8 63.9,70 63.7,69.9 63.2,69.5 63.2,68.1 63,68 c -0.2,-0.1 -0.4,0.1 -0.5,0 -0.4,-0.2 -0.3,-1.4 -0.6,-2.2 -0.1,-0.4 -0.6,-0.4 -0.7,-1 -0.2,-1 -0.2,-2.3 -1.2,-2.7 -1.1,-0.5 -1.8,0.2 -2.3,-0.6 -0.3,-0.3 -0.2,-0.9 -0.9,-1 -0.4,-0.2 -0.5,-0.6 -0.9,-0.5 -0.2,0.1 0,0.4 -0.4,0.6 -0.5,0 -1,-1.3 -1.7,-1.3 -0.2,0.1 -0.3,0.4 -0.6,0.4 -0.3,0 -0.3,-1.5 -1.3,-1.9 -0.2,-0.1 -0.3,0.3 -0.5,0 0.1,0.1 -0.3,-0.2 -0.8,-0.6"
   id="path12"
   inkscape:connector-curvature="0"
   style="fill:#1d1d1b" />
	<path
   d="m 50.6,57.2 c -0.4,-0.5 -0.9,-1.1 -0.9,-1.1 -4.8,-7 -12.9,-11.6 -22,-11.6 v 0.1 c -0.4,0.1 -0.7,0.3 -1.2,0.6 -0.8,0.4 -1.7,0.5 -2.5,0.5 -0.7,0 -0.2,-0.9 -0.6,-0.7 -0.5,0.1 -1.5,0.5 -2,0.8 0,1 -3.2,2.1 -4.9,1.3 0.2,-2.5 4.3,-4.6 10.2,-5.5 3.7,-2.2 4.2,-2.8 6.6,-4.9 1.1,-1 1.6,-1.4 1.9,-1.4 0.2,-0.1 0,-0.2 -0.1,-0.2 -0.3,-0.1 -0.5,-0.4 -0.6,-0.6 -0.2,-0.4 -0.1,-0.9 -0.3,-1.1 -0.3,-0.2 -0.7,-0.4 -0.8,-0.9 0,-0.3 0,-0.7 -0.4,-0.7 -0.5,0 -0.7,0.1 -0.8,-1 0,-0.5 0,-1.3 -0.3,-1.3 -0.4,0 -0.7,1.2 -1.1,4.2 -0.3,2.2 -1.6,4.7 -2,4.4 -0.4,-0.4 -0.1,-2.7 -0.7,-3.7 -0.1,-0.2 0.2,2.5 -1.8,4.6 -0.3,0.3 -0.5,0.1 -0.5,0 0.1,-0.6 0.3,-3.8 -0.3,-4.8 C 25,33.4 24.4,33.3 23.7,33 23,32.7 22.5,31.8 22.3,31.2 c -0.5,-2.1 0.4,-4.3 0.6,-5 0.2,-0.7 0.9,-3.8 0.7,-5 -0.3,-1 -0.7,-1.9 -0.1,-3.4 0.1,-0.2 0.2,-0.3 0,-0.4 -1,-0.7 -1.6,-1.3 -1.9,-2.8 -0.2,-0.9 0,-1.2 -0.4,-2 -0.1,-0.3 -0.4,-0.5 -0.3,-0.7 0.2,-0.2 0.5,-0.2 0.8,-0.2 1.6,0.3 2.6,1.2 3.2,2.1 0.2,-0.4 0.4,-0.7 0.7,-0.9 -0.1,-1 0.4,-1.7 1,-2.4 -0.1,-1.2 0.7,-2 1.3,-2.2 0.1,-1 0.7,-1.8 1.7,-2.5 0.7,-1.6 1.7,-2.1 2.3,-2.4 0.6,-0.3 1.5,-0.7 3.1,-1 0.7,-0.1 0.8,0.3 0.5,0.6 -1,0.8 -3.4,3.4 -4.4,6.2 0.3,-0.6 1.1,-1.5 2,-1.9 0.5,-1.4 1.8,-2.1 2.6,-2.5 0.4,-0.8 1.4,-1.9 2.9,-2.2 1.6,-1.4 4.2,-1.3 4.6,-1.3 0.5,0 1.2,0 1.3,0.5 0.2,0.7 -7.8,4.8 -9.1,13.2 0,0.4 2,-1.9 4.1,-1.6 0.1,0.1 0.2,0.1 0.3,0.3 1,2.1 0,4.1 0.3,4.2 4.2,2.4 5.1,5.5 6.8,7.3 2.5,2.4 5.5,2.3 7.9,4.1 2.3,1.7 5,7.2 6.4,8.4 5.8,4 10.8,7.7 14.8,14 0.5,0.8 0.9,1.3 1.9,1.4 2.2,-0.1 4,-2.7 5.5,-5 0.1,-0.1 0.2,-0.2 0.3,-0.1 0.2,0.1 0.1,0.5 0.3,0.5 0.5,0.1 0.9,-1.4 1.4,-1.7 0.2,-0.1 0.5,0 0.4,0.2 -0.1,0.5 -0.5,1.2 -0.5,1.6 0,0.1 0.1,0.1 0.1,0 0.1,-0.1 0.2,-0.1 0.3,-0.1 0.2,0 0.2,0.3 0.1,0.4 -0.2,0.3 -0.3,0.7 -0.4,1.1 0,0.3 0.3,0.1 0.4,0.2 0.2,0.1 0.2,0.4 0.1,0.7 -0.6,1.4 -2.5,6.4 -7,5.7 C 78.3,56.5 78,56.1 78.2,56.7 79.3,60.6 77.1,69 78,73 c 0.3,1.1 1.6,2.1 2,2.7 0.2,0.2 0.5,0.7 0.6,1.2 0.3,3.4 -0.6,3.7 1,10.1 0.1,0.5 0.1,0.9 -0.2,1.2 -0.3,0.3 -0.5,0.2 -0.6,0.5 -0.2,2 -1,3.7 -2.2,4.1 -1.7,0.6 -2.7,-0.2 -2.5,-1.6 0.5,-2.5 1.7,-3 2.1,-5.6 0.3,-2.2 -1,-4.4 -1.4,-5.2 -0.4,-0.7 -1.5,-2.6 -2.8,-3.8 -0.2,-0.2 -0.3,-0.2 -0.4,0 -0.5,1.6 0,4.8 0.2,5.6 0.4,1.3 0.8,3 0.7,4.1 -0.1,1.1 -0.6,1.7 -1.1,2.2 -0.8,0.8 -0.3,2 -1.7,2.6 -1.1,0.4 -1.9,0.3 -2.2,0.1 C 69.2,91 69,90.9 69,90.5 c 0,-0.5 0.1,-1.2 0.5,-1.8 0.8,-1 1.8,-2.4 2,-5 C 71.8,79 67.7,73.6 67.4,73.5 67.1,73.4 67.2,73.7 67,73.6 66.6,73.3 66.1,72 65.6,71.5 65.4,71.2 64.8,71.3 64.7,70.8 64.6,70.4 64.5,70.1 64.2,69.9 64,69.8 63.9,70 63.7,69.9 63.2,69.5 63.2,68.1 63,68 c -0.2,-0.1 -0.4,0.1 -0.5,0 -0.4,-0.2 -0.3,-1.4 -0.6,-2.2 -0.1,-0.4 -0.6,-0.4 -0.7,-1 -0.2,-1 -0.2,-2.3 -1.2,-2.7 -1.1,-0.5 -1.8,0.2 -2.3,-0.6 -0.3,-0.3 -0.2,-0.9 -0.9,-1 -0.4,-0.2 -0.5,-0.6 -0.9,-0.5 -0.2,0.1 0,0.4 -0.4,0.6 -0.5,0 -1,-1.3 -1.7,-1.3 -0.2,0.1 -0.3,0.4 -0.6,0.4 -0.3,0 -0.3,-1.5 -1.3,-1.9 -0.2,-0.1 -0.3,0.3 -0.5,0 0.1,0.1 -0.3,-0.2 -0.8,-0.6 z"
   id="path14"
   inkscape:connector-curvature="0"
   style="fill:none;stroke:#1d1d1b;stroke-width:0.127" />
	<path
   d="m 27,10.7 c 0.4,-0.5 1.3,-0.8 1.2,-0.9 -0.1,-0.2 -0.4,0 -0.6,0 -0.1,0 -0.2,0 -0.2,-0.1 0.4,-1.4 1.8,-1.6 2.2,-2.1 0,-0.1 0,-0.1 -0.1,-0.1 -0.2,0 -0.6,0.2 -0.6,0 0.2,-1.4 1.8,-2.1 2.2,-2.2 0.1,-0.1 0,-0.2 -0.1,-0.2 -0.1,0 -0.3,0.1 -0.3,-0.1 0.2,-0.7 1.1,-1.2 1.7,-1.5 0.6,-0.2 1.8,-0.6 1.8,-0.4 0,0.1 -0.9,0.5 -1.2,1 -0.3,0.4 -0.5,0.6 -0.5,1.2 -1,0.5 -1.4,1.5 -1.5,2.5 -0.7,0.4 -1.2,1.6 -1,2.1 -0.8,0.8 -1.2,1.9 -1.1,3 -1.7,2.2 -1.2,3.1 0.7,3.8 0.3,0.1 0.5,0.1 0.6,0 0.1,-0.1 -0.2,-0.2 -0.2,-0.4 -1,-2.3 0.3,-3.4 2.1,-4.2 0.1,-0.1 0,-0.2 -0.2,-0.2 -0.5,0 -0.9,0.1 -1,0 C 30.6,11.2 32.6,9.6 33.5,9.3 33.9,9.2 33.7,9 33.6,9 33.3,9 33,9.1 32.8,8.8 33,8 35.3,6.9 35.7,6.7 35.9,6.6 36,6.3 35,6.5 34.9,6.5 34.8,6.5 34.8,6.4 35,5.8 37.1,5 38.2,4.6 38.4,4.5 38.4,4.2 37.9,4.4 37.7,4.4 37.4,4.6 37.3,4.4 37.4,3.6 39.7,3 40.6,2.8 40.8,2.7 40.8,2.6 40.7,2.5 40.4,2.4 40,2.6 40.2,2.3 40.8,1.9 42.5,1.9 43.1,2 c 0.2,0 0.2,0.1 0.2,0.1 -0.2,0.4 -3,1.3 -3.4,3 C 39,5.5 38.2,6.3 38.1,7 37.7,7.2 36.8,8 36.7,9 36.2,9.4 34.9,10.5 35.4,11.9 34.5,12.4 34,13 34,14.8 c 0,0.6 -0.8,1.6 -1.6,1.9 -0.2,0.1 -0.1,0.3 0,0.3 1.4,0.4 2.7,-0.3 3.2,-0.8 1.6,-1.5 2.7,-2.1 3.4,-2.2 0.1,0 0.1,0.1 0.2,0.1 0.1,0.4 0.4,1.4 0,2.8 -0.5,1.7 -1.8,2.5 -2.1,3 -0.1,0.1 0.2,0.8 0.1,1.2 -0.2,0.5 0,0.8 0.2,0.8 0.5,0.2 0.8,-1.6 1.1,-1.6 0.2,0 0.2,0.4 0.5,0.5 0.1,0.1 0.4,0 0.4,-0.2 0,-0.5 0.2,-1.7 0.3,-1.8 0.1,-0.1 0.4,0.4 0.4,0.8 0,1.4 -0.8,2.6 -0.3,3.5 0.1,0.2 0.3,0.2 0.5,0 0.4,-0.4 0.7,-2.1 1.6,-2.3 1.3,-0.3 2.5,3.2 1.6,4.1 -0.4,0.4 -1,0 -1.5,0.3 -0.6,0.3 -0.5,1.6 -0.9,2.1 -0.2,0.2 -0.5,0.3 -1,0.3 -1.1,0.1 -0.8,3.3 -0.6,3.9 0.1,0.3 0.4,0.3 0.5,0.2 0.2,-0.1 0.3,-0.8 0.3,-1.4 0,-0.2 0.4,-0.3 0.6,-0.5 0.3,-0.2 0.1,-0.4 0.3,-0.6 0.2,-0.3 0.5,0 0.6,-0.3 0.5,-0.4 0.1,-1 0.5,-1.3 0.6,-0.4 1.1,-0.2 1.6,-0.8 0.3,-0.4 0.4,-1.1 0.8,-1.2 2.4,-0.1 4.7,2.7 5.1,3.5 1.2,2.4 -0.7,6.1 0.6,6.7 1.6,0.9 1.3,2.7 1.1,3.2 -0.3,0.9 -2.9,2.1 -3.2,4.2 -0.2,2.1 0.9,1.6 1,1.4 0.1,-0.3 0.2,-0.6 0.3,-0.9 0.1,-0.2 0.4,-0.1 0.5,0.1 0.1,0.2 0.5,0.7 1.1,-0.5 0.4,-0.8 1.5,-1.8 2.3,-2.3 0.8,-0.6 1,-2.4 1.2,-2.8 0.1,-0.4 0.4,-0.4 0.4,-0.7 0,-0.4 -0.7,-1.7 -0.3,-2.6 0.2,-0.3 0.7,-0.5 1.1,-0.1 0.4,0.4 -0.2,1.9 0.5,2 0.6,0 0.7,-0.7 1.2,-0.6 0.5,0.1 -0.4,2 0.1,2.3 0.3,0.1 0.7,0 0.9,0.3 0.1,0.5 -0.8,1.5 0,1.5 8.8,-0.2 12,6.7 11.4,8 -0.3,0.5 -1.3,-0.2 -1.5,0.2 -0.8,2.7 1,4.7 1.5,5.1 0.2,0.1 0.4,0 0.4,-0.4 -0.1,-0.8 -0.5,-1.2 -0.4,-1.9 0.1,-1.3 3.1,-0.5 3.3,0.5 0.1,0.4 0.1,0.7 0.4,1 0.4,0.4 1.4,-0.1 1.5,0.8 0.1,1.7 -2,1.8 -3.5,2.9 -0.7,0.5 -0.6,0.9 0.1,1.1 0.7,0.2 1.9,0 2.4,0.8 0.8,1.2 -0.3,3.7 -0.3,4.7 -0.1,1.1 1.8,4.1 1.9,5.7 0.1,0.8 -0.4,1.2 -1.1,0.6 -0.6,-0.7 -1.3,-1.7 -1.8,-2.5 -0.1,-0.2 -0.5,-0.3 -0.5,0.2 0,1.4 6.4,9.8 6.6,11.2 0.1,0.7 -0.3,1.3 -0.1,2 0.1,0.2 0.3,0.1 0.3,0.3 0,0.5 -0.4,1.2 0.2,1.5 0.3,0.9 0,1.3 0.2,2.1 0.1,0.8 0.4,1.8 0.5,2.6 -0.2,2.2 -1,3 -1.7,3.3 -0.6,0.3 -0.8,-0.2 -0.8,-0.7 0.2,-1.3 1.6,-3.6 1,-6.3 C 77.1,76.3 69.9,71.6 68.7,69 68.3,68 66.9,67.9 66.9,66.8 66.8,66.4 66.4,66.5 66.1,66.2 65.8,65.9 65.8,65 65.6,64.4 c -0.1,-0.2 -0.3,-0.1 -0.5,-0.3 -1,-1.4 -0.8,-8 -1.7,-8.9 -0.7,-0.4 -1.2,0.7 -2,0.8 -0.6,0.1 -1.7,-1.5 -2.1,-1.1 -0.3,0.3 -0.2,1.1 -0.2,1.3 0,0.1 0.2,0.7 0,0.7 -0.2,0 -0.5,-0.4 -1.3,-0.7 -0.5,-0.2 -1.1,0 -1.3,-0.2 -0.6,-0.6 0,-1.9 -0.9,-2.2 -0.3,-0.1 -0.3,-0.8 -0.4,-1 -0.1,-0.2 -0.4,-0.2 -0.5,-0.3 -0.3,-0.4 -0.4,-0.8 -0.5,-1.4 -0.1,-0.4 -0.9,0.1 -1,-0.5 -0.1,-0.4 -0.5,-0.5 -0.9,-0.6 -0.4,-0.1 -0.2,-1 -0.6,-1.2 -0.2,-0.1 -0.2,0.1 -0.4,0 -0.2,-0.2 -0.1,-0.4 -0.4,-0.6 -0.2,-0.1 -0.4,0.1 -0.5,-0.1 -0.5,-0.7 -0.1,-1.8 -0.4,-2.1 -0.2,-0.2 -0.5,0 -0.8,-0.2 -0.3,-0.2 -0.3,-0.6 -0.5,-0.6 -0.5,0 -0.7,-0.1 -0.8,-0.3 -0.9,-1.2 -0.8,-2.6 -1.1,-3.2 -0.2,-0.3 -0.5,-0.5 -0.7,0.1 -0.4,1.1 -0.4,5.1 -1.7,5.6 -1,0.5 -1.9,-1.2 -2.3,-1.5 -0.2,-0.1 -0.3,0.2 -0.4,0.3 -0.4,-0.2 -0.3,-0.7 -0.7,-0.9 -0.4,-0.2 -0.2,0.3 -0.4,0.3 -0.4,-0.3 -0.4,-1.2 -0.7,-1.3 -0.3,-0.1 -0.4,0.2 -0.5,0.1 -0.5,-0.4 -0.2,-1.4 -0.8,-1.7 -0.3,-0.1 -0.2,0.4 -0.5,0.2 -0.3,-0.1 -0.2,-1.5 -1,-1.4 -0.1,0 -0.1,-0.2 -0.2,-0.2 -0.2,0 -0.4,0.3 -0.7,0.1 -0.3,-0.5 -0.6,-0.7 -0.8,-0.8 -0.3,-0.3 -0.9,0.1 -1.3,-0.2 -1.5,-0.7 -4.9,2 -6.4,3.5 -0.6,-0.5 -1.3,0 -1.9,0.1 -0.2,0.1 -0.9,0 -0.4,-0.8 1.4,-1.5 2.4,-1.4 5,-3.3 1.9,-1.4 3.6,-2.8 4.3,-3.2 0.5,-0.3 1.3,-0.5 2,0.4 1,1.3 3.1,3.4 4,3.8 1.9,0.8 2,-0.6 2.2,-1.1 0.2,-0.5 0.3,-0.1 0.3,0.4 0,0.3 0.1,0.8 0.4,0.8 0.5,0.1 0.5,-0.3 0.6,-0.6 0.6,-2.3 2.9,-5.1 3.7,-4.5 0.7,0.4 1,0.4 1.2,-0.4 0.2,-1 -0.6,-2 -0.8,-3 -0.2,-1.2 -0.1,-2.9 -0.6,-3.1 -0.3,-0.1 -0.7,0.2 -0.9,0.5 -0.3,0.4 -0.3,0.8 -0.4,1.2 0,0.3 -1.1,0.5 -1.2,1.9 0,0.2 -0.4,-0.2 -0.7,0 -0.6,0.4 -0.5,2.6 -0.7,2.7 -0.2,0 -0.5,-0.2 -0.6,0.1 0,0.4 -0.1,1.2 -0.3,1.3 -0.1,0 -0.3,-0.1 -0.5,0 -0.5,0.4 -0.3,1 -0.8,1.5 -0.3,0.4 -0.5,0.1 -0.5,-0.2 -0.1,-0.5 -0.5,-1.3 -0.9,-1.7 -1.1,-1.1 -0.4,-3.1 -2,-3.8 -0.5,-0.2 -0.5,-0.5 -0.5,-0.9 0,-0.5 -0.3,-0.8 -0.5,-0.8 -0.4,-0.1 -0.5,-0.4 -0.5,-0.7 0,-0.8 -0.6,-0.8 -0.9,-0.9 -0.8,-0.1 -0.8,-0.2 -0.5,-2.1 0.1,-0.5 0.1,-1 -0.1,-1.4 -0.4,-0.6 -1.3,-0.2 -1.2,-1.2 0.1,-0.6 1.2,-1.5 1.7,-2 0.3,-0.3 0.5,-1.2 -0.5,-1 -2.3,0.6 -4.1,4.7 -4.5,5.4 -1.7,3 -3.1,4.2 -4.4,4.7 -0.6,0.2 -2.8,0.4 -3.3,-1.7 -0.2,-1.1 0,-2.2 0.6,-3.9 2.2,-7.7 -0.3,-6.2 0.9,-8.8 0.8,-0.9 1.9,-0.8 3,-0.9 0.2,0 0.2,-0.4 0.1,-0.5 0,-0.1 -0.3,-0.2 -0.6,-0.3 -0.3,-0.1 -1.1,-0.7 -1.1,-1.4 -0.1,-0.8 0.4,-1.2 0.8,-1.6 0.5,-0.5 0.8,-0.5 0.8,-0.6 0,-0.4 -0.9,0.2 -1,0 -0.4,-0.6 0.2,-1.2 0.5,-1.6"
   id="path16"
   inkscape:connector-curvature="0"
   style="fill:#ffffff" />
	<path
   d="m 24.6,14.7 c 0,0.3 0,0.7 0.3,1.6 -0.4,0.1 -0.6,0.4 -0.9,0.2 -1,-0.6 -1.6,-1.6 -1.9,-2.6 -0.2,-0.6 -0.2,-1.3 -0.5,-1.9 1.8,0.1 3.1,2.5 3,2.7"
   id="path18"
   inkscape:connector-curvature="0"
   style="fill:#ffffff" />
	<path
   d="m 38.8,15 c 0.1,0 0.1,0 0.1,0.1 -0.1,1.3 -1.4,3.8 -3.1,4.2 -0.1,0 -0.2,0 -0.2,-0.1 -0.2,-0.9 0.4,-2.4 1.8,-2.9 0.7,-0.3 1,-0.7 1.4,-1.3"
   id="path20"
   inkscape:connector-curvature="0"
   style="fill:#1d1d1b" />
	<path
   d="m 33,19.9 c 0.1,0.3 0,0.3 -0.3,0.2 -0.9,-0.9 -1.7,-0.7 -2.2,-0.4 -0.3,0.1 -0.3,0.1 -0.3,-0.1 0.9,-1.3 2.4,-0.7 2.8,0.3"
   id="path22"
   inkscape:connector-curvature="0"
   style="fill:#1d1d1b" />
	<path
   d="m 28.3,20.1 c 0.5,0.7 0.3,1.7 -0.1,2.4 -0.3,0.6 -0.8,1.5 -1,1.9 -0.1,0.2 -0.3,0.3 -0.4,0.2 -0.1,0 0.6,-1.2 0.8,-2.6 0.1,-0.6 -0.1,-1.4 0.3,-2 0.1,-0.1 0.3,0 0.4,0.1"
   id="path24"
   inkscape:connector-curvature="0"
   style="fill:#1d1d1b" />
	<path
   d="m 32.1,20.7 c 0.3,0.8 -0.5,1.1 -1,1.2 -0.3,0.1 -0.6,0 -0.9,-0.2 -0.2,-0.1 -0.1,-0.2 -0.2,-0.2 -0.3,0 -0.2,0.1 -0.5,0.2 -0.2,0 -0.2,-0.1 -0.1,-0.3 0.3,-0.5 0.5,-0.9 1,-1.1 0.6,-0.1 1.3,-0.3 1.7,0.4"
   id="path26"
   inkscape:connector-curvature="0"
   style="fill:#1d1d1b" />
	<path
   d="m 29.5,23.9 c 0.4,1.5 0.1,2.1 -0.2,2.5 -0.1,0.1 -1,0.3 -1.1,-0.8 0.4,-0.5 0.7,-1.3 0.9,-1.8 0.2,-0.3 0.3,-0.3 0.4,0.1"
   id="path28"
   inkscape:connector-curvature="0"
   style="fill:#1d1d1b" />
	<path
   d="m 26.4,28.2 c -0.2,1 -0.6,1.5 -1.3,1.6 -0.8,0.1 -1.1,-0.8 -1,-0.8 0.8,0.1 1.6,-0.3 2.1,-0.9 0.1,-0.2 0.3,-0.1 0.2,0.1"
   id="path30"
   inkscape:connector-curvature="0"
   style="fill:#1d1d1b" />
	<path
   d="m 65.5,43.1 c 0.4,0.1 0.6,0.6 0.5,0.8 -0.2,0.4 -0.6,0.7 -0.6,1.1 0,0.3 -0.1,0.5 -0.3,0.6 -0.5,0.1 -0.8,-1 -1.2,-0.3 -0.2,0.4 -0.7,0.1 -0.8,-0.1 -0.1,-0.3 -0.3,-0.6 -0.6,-0.7 -1,0 -1.3,-1.6 -1.1,-2.1 0.7,-1.7 2.6,0.2 4.1,0.7"
   id="path32"
   inkscape:connector-curvature="0"
   style="fill:#1d1d1b" />
	<path
   d="m 24.9,42.8 c -0.5,0.4 -0.9,0.9 -1.2,1.5 -0.6,0.1 -1.7,0.5 -2.5,0.9 -0.3,0.1 -1.3,0.2 -2.3,0.3 -0.1,0 -0.2,-0.1 -0.2,-0.2 -0.1,-0.7 4.4,-2.6 6.1,-2.7 0.3,-0.1 0.4,0 0.1,0.2"
   id="path34"
   inkscape:connector-curvature="0"
   style="fill:#ffffff" />
	<path
   d="m 84.1,52.1 c 0.1,0.4 -0.2,0.8 -0.6,1.3 -0.4,0.5 -2.1,1.7 -3.5,1.6 -0.4,-0.1 -0.8,-0.5 -0.7,-1 0.1,-0.4 1.5,-0.6 2.6,-0.9 0.8,-0.3 1.1,-0.4 1.7,-0.9 0.3,-0.4 0.4,-0.2 0.5,-0.1"
   id="path36"
   inkscape:connector-curvature="0"
   style="fill:#ffffff" />
	<path
   d="m 71.9,78.8 c 0.3,0 0.2,-0.1 0.4,0 0.2,0 0.2,0.9 0.2,1.3 0,0.3 -0.1,0.7 0.2,1 0.3,0.2 -0.3,1.1 0.1,1.5 0.2,0.3 -0.3,1.2 0.1,1.7 0.2,0 0.3,0.1 0.4,0.2 -0.2,1 0.3,2.6 0.1,3.1 -0.4,0.7 -0.8,0.6 -1.2,1.8 -0.6,1.1 -2.2,0.4 -1.9,-0.5 1.1,-1.9 1.6,-4.1 1.6,-5.1 0.2,-2.5 -1.1,-6.4 -1.2,-6.9 0,-0.5 0.1,-0.8 0.5,-0.3 0.7,0.9 0.4,2.2 0.7,2.2"
   id="path38"
   inkscape:connector-curvature="0"
   style="fill:#ffffff" />
	<path
   d="M 30.1,58 30,58.2 c 0,0 -1.2,-1.9 -1.5,-2.2 0,0.5 -0.6,7.8 -0.6,7.8 h -0.2 c 0,0 -0.6,-7.3 -0.6,-7.8 -0.3,0.4 -1.5,2.2 -1.5,2.2 0,0 -2.6,-11.9 -2.8,-12.7 -0.2,0.8 -2.8,12.7 -2.8,12.7 0,0 -1.2,-1.9 -1.5,-2.2 0,0.6 -2.6,33.3 -2.6,33.3 0,0 0,0 0,0 3.5,2.3 7.6,3.6 11.9,3.6 v 0 c 4.3,0 8.4,-1.2 11.9,-3.6 v 0 c 0,0 -2.4,-30.1 -2.6,-33.3 -0.3,0.4 -1.5,2.2 -1.5,2.2 0,0 -2.6,-11.9 -2.8,-12.7 C 32.6,46.3 30.1,58 30.1,58"
   id="path40"
   inkscape:connector-curvature="0"
   style="fill:#ffffff" />
	<path
   d="M 39.8,89.3 37.1,55.7 35.6,58 32.8,45 30,58 28.5,55.7 27.8,63.8 27.2,55.7 25.7,58 22.9,45 20.1,58 18.6,55.7 15.9,89.3 v 0.1 c 3.4,2.3 7.6,3.6 12,3.6 v 0 c 4.4,0 8.6,-1.3 12,-3.6 v -0.1 z"
   id="path42"
   inkscape:connector-curvature="0"
   style="fill:#1d1d1b" />
	<polygon
   points="47,58.1 4.7,70.1 7.4,82.1 50.4,70 "
   id="polygon44"
   style="fill:#ffffff" />
	<polygon
   points="18.2,67.6 17.3,78.1 13.4,79.2 14.1,72.1 12.4,72.6 12.7,69.3 "
   id="polygon46"
   style="fill:#e20613" />
	<path
   d="m 23,74.9 c -0.1,1.1 -1.2,2 -2.3,2.3 -1.1,0.3 -2.1,0 -2,-1.1 C 18.8,75 20,74 21,73.7 c 1.1,-0.2 2.1,0.1 2,1.2"
   id="path48"
   inkscape:connector-curvature="0"
   style="fill:#e20613" />
	<polygon
   points="29.2,67.4 29.1,68.5 32,67.7 31.7,70.4 28.9,71.2 28.5,74.9 24.6,76 25.6,65.6 32.8,63.5 32.5,66.5 "
   id="polygon50"
   style="fill:#e20613" />
	<path
   d="m 42,65.1 c -0.6,-0.4 -1.3,-0.6 -2.2,-0.4 -1.2,0.3 -2.2,1.5 -2.3,2.6 -0.1,1.1 0.8,1.7 2,1.4 0.9,-0.2 1.6,-0.8 2.3,-1.6 L 41.3,71 c -0.6,0.5 -2.1,1 -2.8,1.2 -3.1,0.9 -5.2,-0.8 -5,-3.7 0.3,-3.1 3,-6.2 6.1,-7.1 0.9,-0.2 1.8,-0.4 2.6,-0.3 z"
   id="path52"
   inkscape:connector-curvature="0"
   style="fill:#e20613" />
	<path
   d="m 25.1,79 c 0,0.4 -0.3,0.8 -0.7,0.9 -0.3,0.1 -0.5,-0.2 -0.5,-0.6 0,-0.4 0.3,-0.8 0.6,-0.9 0.4,-0.1 0.6,0.2 0.6,0.6 m 1.7,-0.5 c 0,0.4 -0.3,0.8 -0.6,0.9 -0.3,0.1 -0.5,-0.2 -0.5,-0.6 0,-0.4 0.3,-0.8 0.6,-0.9 0.3,-0.1 0.5,0.2 0.5,0.6 m 1.1,4.4 c -0.2,2.2 -1.6,3.9 -3.2,4.4 -1.6,0.5 -2.8,-0.5 -2.6,-2.7 0.2,-2.2 1.6,-3.9 3.2,-4.4 1.5,-0.5 2.7,0.5 2.6,2.7 M 24,84 c -0.1,0.8 0.3,1.2 0.9,1.1 0.6,-0.2 1,-0.8 1.1,-1.6 0.1,-0.8 -0.3,-1.3 -0.9,-1.1 -0.6,0.2 -1,0.9 -1.1,1.6"
   id="path54"
   inkscape:connector-curvature="0"
   style="fill:#ffffff" />
	<polygon
   points="30.7,78.7 30.3,83.4 31.9,83 31.7,85.2 28.2,86.1 28.8,79.2 "
   id="polygon56"
   style="fill:#ffffff" />
	<path
   d="M 32.8,78.1 34.6,77.6 36,81 v 0 c 0,-0.6 -0.1,-1.1 0,-1.7 l 0.2,-2.1 1.8,-0.5 -0.6,6.9 -1.8,0.5 -1.4,-3.1 h -0.1 c 0,0.5 0,0.9 0,1.4 L 34,84.5 32.2,85 Z"
   id="path58"
   inkscape:connector-curvature="0"
   style="fill:#ffffff" />
	<path
   d="m 17.5,82.4 1.8,-0.5 -0.3,3 v 0 c 0.1,-0.3 0.2,-0.6 0.3,-0.9 l 1.1,-2.5 2.1,-0.6 -1.9,3.8 1.5,3 -2.2,0.6 -0.7,-1.8 C 19.1,86.3 19,86.1 19,85.8 h -0.1 l -0.2,2.9 -1.8,0.5 z"
   id="path60"
   inkscape:connector-curvature="0"
   style="fill:#ffffff" />
</g>
</svg>