<?xml version="1.0" encoding="UTF-8"?>
<svg xmlns="http://www.w3.org/2000/svg" xmlns:xlink="http://www.w3.org/1999/xlink" width="471.24pt" height="423.54pt" viewBox="0 0 471.24 423.54" version="1.1">
<defs>
<clipPath id="clip1">
  <path d="M 0 0 L 471.238281 0 L 471.238281 423.539063 L 0 423.539063 Z M 0 0 "/>
</clipPath>
</defs>
<g id="surface1">
<g clip-path="url(#clip1)" clip-rule="nonzero">
<path style=" stroke:none;fill-rule:nonzero;fill:rgb(0%,0%,0%);fill-opacity:1;" d="M 467.558594 75.335938 C 444.96875 52.746094 420.78125 37.371094 400.097656 25.3125 L 396.390625 23.152344 L 387.023438 37.121094 C 363.953125 24.714844 308.820313 0.00390625 235.621094 0.00390625 C 162.421875 0.00390625 107.285156 24.714844 84.21875 37.121094 L 74.851563 23.152344 L 71.144531 25.3125 C 50.464844 37.371094 26.273438 52.746094 3.683594 75.335938 L 0 79.019531 C 0 79.019531 45.859375 80.65625 49.742188 80.796875 C 49.839844 84.605469 50.808594 122.375 50.808594 122.375 L 74.351563 102.5625 L 74.351563 166.605469 C 74.351563 212.890625 82.636719 255.164063 98.96875 292.25 C 112.097656 322.058594 130.414063 348.574219 153.410156 371.058594 C 192.722656 409.496094 233.40625 423.539063 235.621094 423.539063 C 237.835938 423.539063 278.519531 409.496094 317.828125 371.058594 C 340.828125 348.574219 359.144531 322.058594 372.273438 292.25 C 388.609375 255.164063 396.890625 212.890625 396.890625 166.605469 L 396.890625 102.5625 L 420.433594 122.375 C 420.433594 122.375 421.402344 84.605469 421.496094 80.796875 C 425.382813 80.65625 471.242188 79.019531 471.242188 79.019531 L 467.558594 75.335938 "/>
</g>
<path style=" stroke:none;fill-rule:nonzero;fill:rgb(89.0625%,8.227539%,13.719177%);fill-opacity:1;" d="M 235.621094 54.605469 C 294.621094 54.605469 359.953125 92.269531 359.953125 92.269531 C 361.953125 92.269531 397.621094 48.605469 397.621094 45.9375 C 397.621094 45.9375 333.289063 2.269531 235.621094 2.269531 C 137.953125 2.269531 73.621094 45.9375 73.621094 45.9375 C 73.621094 48.605469 109.285156 92.269531 111.289063 92.269531 C 111.289063 92.269531 176.621094 54.605469 235.621094 54.605469 "/>
<path style=" stroke:none;fill-rule:nonzero;fill:rgb(89.0625%,8.227539%,13.719177%);fill-opacity:1;" d="M 89.945313 71.539063 C 73.265625 51.066406 71.550781 47.449219 71.375 46.269531 L 70.953125 46.269531 L 72.289063 27.269531 C 48.851563 40.933594 26.121094 56.105469 5.289063 76.9375 L 51.953125 78.605469 L 52.953125 117.605469 L 97.222656 80.355469 C 95.144531 77.875 92.742188 74.96875 89.945313 71.539063 "/>
<path style=" stroke:none;fill-rule:nonzero;fill:rgb(89.0625%,8.227539%,13.719177%);fill-opacity:1;" d="M 381.296875 71.539063 C 397.976563 51.066406 399.691406 47.449219 399.867188 46.269531 L 400.289063 46.269531 L 398.953125 27.269531 C 422.390625 40.933594 445.121094 56.105469 465.953125 76.9375 L 419.289063 78.605469 L 418.289063 117.605469 L 374.019531 80.355469 C 376.101563 77.875 378.5 74.96875 381.296875 71.539063 "/>
<path style=" stroke:none;fill-rule:nonzero;fill:rgb(89.0625%,8.227539%,13.719177%);fill-opacity:1;" d="M 359.953125 94.539063 L 359.347656 94.539063 L 358.820313 94.234375 C 358.171875 93.863281 293.320313 56.871094 235.621094 56.871094 C 177.925781 56.871094 113.066406 93.863281 112.421875 94.234375 L 111.894531 94.539063 L 111.289063 94.539063 C 110.34375 94.539063 109.210938 94.535156 98.683594 82.09375 L 76.621094 100.65625 L 76.621094 166.605469 C 76.621094 367.9375 232.621094 421.273438 235.621094 421.273438 C 238.621094 421.273438 394.621094 367.9375 394.621094 166.605469 L 394.621094 100.65625 L 372.558594 82.09375 C 362.03125 94.535156 360.898438 94.539063 359.953125 94.539063 "/>
<path style=" stroke:none;fill-rule:nonzero;fill:rgb(100%,93.359375%,0.392151%);fill-opacity:1;" d="M 181.621094 65.460938 L 181.621094 386.402344 C 195.359375 396.804688 207.980469 404.0625 217.621094 408.859375 L 217.621094 57.976563 C 205.394531 59.410156 193.175781 62.128906 181.621094 65.460938 "/>
<path style=" stroke:none;fill-rule:nonzero;fill:rgb(100%,93.359375%,0.392151%);fill-opacity:1;" d="M 112.421875 94.234375 L 111.894531 94.539063 L 111.289063 94.539063 C 110.929688 94.539063 110.539063 94.535156 109.621094 93.851563 L 109.621094 299.007813 C 119.265625 318.65625 131.324219 336.714844 145.621094 352.957031 L 145.621094 78.269531 C 125.929688 86.53125 112.710938 94.070313 112.421875 94.234375 "/>
<path style=" stroke:none;fill-rule:nonzero;fill:rgb(100%,93.359375%,0.392151%);fill-opacity:1;" d="M 253.621094 57.976563 L 253.621094 408.859375 C 263.265625 404.0625 275.882813 396.804688 289.621094 386.402344 L 289.621094 65.460938 C 278.066406 62.125 265.847656 59.410156 253.621094 57.976563 "/>
<path style=" stroke:none;fill-rule:nonzero;fill:rgb(100%,93.359375%,0.392151%);fill-opacity:1;" d="M 361.621094 93.851563 C 360.703125 94.535156 360.3125 94.539063 359.953125 94.539063 L 359.347656 94.539063 L 358.820313 94.234375 C 358.53125 94.070313 345.3125 86.53125 325.621094 78.269531 L 325.621094 352.953125 C 339.914063 336.714844 351.976563 318.65625 361.621094 299.007813 L 361.621094 93.851563 "/>
<path style=" stroke:none;fill-rule:nonzero;fill:rgb(100%,100%,100%);fill-opacity:1;" d="M 281.359375 248.992188 C 281.308594 248.964844 281.304688 248.964844 281.253906 248.9375 C 281.300781 248.953125 281.351563 248.964844 281.398438 248.976563 C 281.386719 248.984375 281.371094 248.988281 281.359375 248.992188 Z M 258.933594 243.964844 C 257.132813 243.964844 255.839844 243.90625 254.878906 243.832031 C 255.652344 242.964844 255.910156 241.632813 255.949219 240.386719 C 257.914063 238.507813 260.035156 236.53125 261.335938 235.394531 C 261.644531 235.871094 261.914063 236.480469 261.914063 237.105469 C 261.914063 240.539063 264.84375 242.957031 268.71875 244.789063 C 265.925781 244.304688 262.714844 243.964844 258.933594 243.964844 Z M 334.847656 226.796875 C 334.847656 226.796875 314.257813 235.054688 312.339844 235.824219 C 310.488281 234.695313 307.953125 233.339844 306.371094 233.339844 C 305.035156 233.339844 303.621094 233.933594 302.378906 234.457031 C 302.378906 234.457031 302.246094 234.511719 302.1875 234.53125 C 302.160156 234.5 302.089844 234.410156 302.089844 234.410156 C 301.191406 233.203125 300.167969 231.839844 298.496094 231.839844 C 297.402344 231.839844 296.546875 232.335938 295.90625 232.964844 C 294.503906 232.964844 291.496094 232.964844 291.496094 232.964844 C 290.140625 232.871094 284.300781 229.832031 279.425781 226.914063 C 277.839844 223.117188 274.515625 214.265625 274.515625 209.980469 C 274.515625 208.097656 273.171875 206.019531 270.988281 202.78125 C 270.328125 201.808594 269.441406 200.46875 268.796875 199.34375 C 270.039063 200.289063 271.652344 202.113281 272.300781 202.851563 C 273.871094 204.636719 274.738281 205.621094 276.121094 205.621094 C 278.761719 205.621094 280.890625 202.125 280.890625 199.230469 C 280.890625 197.746094 280.359375 196.496094 279.84375 195.292969 C 279.355469 194.136719 278.890625 193.042969 278.890625 191.730469 C 278.890625 191.65625 278.886719 191.570313 278.882813 191.472656 C 279.65625 190.988281 280.277344 190.390625 280.773438 189.828125 C 281.054688 190.316406 281.339844 190.847656 281.542969 191.222656 C 282.683594 193.347656 283.4375 194.746094 285.121094 194.746094 C 287.777344 194.746094 289.640625 190.519531 289.640625 188.230469 C 289.640625 181.617188 286.1875 178.800781 283.902344 176.933594 C 282.316406 175.640625 281.765625 175.109375 281.765625 174.230469 C 281.765625 174.230469 281.765625 173.507813 281.765625 172.890625 C 283.089844 173.050781 283.976563 173.277344 283.988281 173.28125 L 284.296875 173.371094 L 284.621094 173.371094 C 284.621094 173.371094 288.121094 173.371094 289.496094 173.371094 C 291.503906 175.519531 294.078125 177.746094 296.121094 177.746094 L 298.804688 177.746094 L 298.355469 175.101563 C 297.316406 168.960938 288.746094 163.792969 272.269531 159.308594 C 271.648438 158.246094 270.484375 156.414063 268.957031 154.796875 C 267.480469 153.234375 266.03125 152.171875 264.496094 151.046875 L 261.113281 148.398438 L 257.359375 144.820313 C 255.132813 142.617188 253.707031 141.230469 252.589844 140.617188 L 252.484375 140.5625 C 248.253906 138.515625 235.992188 136.214844 231.996094 136.214844 C 227.535156 136.214844 222.664063 143.917969 220.773438 147.230469 L 219.511719 149.449219 L 221.863281 150.441406 C 223.613281 151.183594 225.921875 150.242188 229.84375 148.507813 C 230.988281 148.003906 232.671875 147.261719 233.257813 147.140625 C 233.824219 147.25 235.339844 147.972656 236.371094 148.464844 C 238.554688 149.511719 240.617188 150.496094 242.246094 150.496094 C 242.96875 150.496094 243.320313 150.53125 243.503906 150.558594 C 243.597656 150.742188 243.785156 151.109375 243.785156 151.109375 C 243.785156 151.109375 243.867188 151.28125 243.953125 151.453125 C 244.089844 152.175781 244.480469 154.402344 244.480469 156.355469 C 244.480469 157.425781 244.269531 158.226563 244.023438 159.152344 C 243.769531 160.128906 243.480469 161.230469 243.480469 162.605469 C 243.480469 166.757813 236.445313 170.339844 232.996094 170.339844 C 227.964844 170.339844 221.933594 168.238281 221.875 168.21875 L 218.855469 167.152344 L 218.855469 170.355469 C 218.855469 174.976563 224.945313 176.707031 229.59375 177.355469 C 229.144531 177.707031 228.769531 178.074219 228.550781 178.4375 C 228.550781 178.4375 228.011719 179.339844 227.5 180.191406 C 224.082031 180.894531 222.539063 183.207031 222.171875 184.679688 L 221.46875 187.496094 C 221.46875 187.496094 225.492188 187.496094 226.261719 187.496094 C 225.527344 188.527344 225.128906 189.691406 225.003906 190.523438 C 225.003906 190.523438 224.757813 192.183594 224.578125 193.375 C 224.503906 193.421875 224.265625 193.566406 224.265625 193.566406 C 224.265625 193.566406 224.449219 193.78125 224.511719 193.847656 C 224.476563 194.066406 224.402344 194.582031 224.402344 194.582031 C 224.402344 194.582031 224.808594 194.402344 224.941406 194.34375 C 225.460938 194.9375 226.039063 195.597656 226.039063 195.597656 C 226.121094 195.691406 226.367188 195.910156 226.691406 196.15625 C 216.761719 200.347656 203.464844 206.101563 199.921875 208.304688 L 199.703125 208.441406 L 199.519531 208.628906 C 196.101563 212.046875 187.019531 221.125 182.65625 223.179688 L 182.183594 223.398438 L 181.855469 223.804688 C 178.878906 227.496094 168.953125 236.457031 168.851563 236.546875 L 166.03125 239.089844 L 169.609375 240.367188 C 171.003906 240.863281 173.40625 240.402344 179.925781 238.964844 C 183.5625 238.160156 187.6875 237.246094 189.371094 237.246094 C 191.488281 237.246094 193.085938 237.351563 194.347656 237.492188 C 190.703125 240.171875 187.40625 243.691406 184.605469 246.699219 C 182.527344 248.933594 179.679688 251.988281 178.65625 252.21875 C 174.90625 252.214844 170.980469 252.601563 170.980469 255.480469 C 170.980469 260.070313 182.503906 260.121094 182.996094 260.121094 C 185.664063 260.121094 192.765625 259.589844 196.964844 259.253906 C 196.378906 261.539063 195.730469 264.378906 195.730469 265.730469 C 195.730469 267.457031 197.308594 270.917969 198.769531 273.746094 C 197.089844 274.363281 196.003906 274.761719 194.949219 275.148438 C 194.871094 275.039063 194.789063 274.933594 194.726563 274.832031 L 194.058594 273.777344 L 192.808594 273.773438 L 189.355469 273.773438 C 189.355469 273.773438 189.355469 274.449219 189.355469 275.089844 C 188.800781 275.089844 188.519531 275.089844 188.230469 275.089844 C 186.296875 273.988281 179.671875 270.464844 174.121094 270.464844 C 171.464844 270.464844 158.542969 271.183594 157.992188 271.21875 L 157.722656 271.230469 L 130.640625 279.503906 L 130.007813 285.824219 C 130.007813 285.824219 131.03125 286.847656 131.289063 287.105469 C 131.289063 287.726563 131.289063 288.296875 131.289063 288.390625 C 130.757813 288.503906 130.105469 288.640625 130.105469 288.640625 L 130.105469 294.402344 C 130.105469 294.402344 133.140625 296.1875 134.355469 296.902344 C 134.355469 298.050781 134.355469 300.421875 134.355469 300.421875 C 134.355469 300.421875 138.253906 304.320313 138.960938 305.023438 C 139.136719 305.691406 139.765625 308.09375 139.765625 308.09375 C 139.765625 308.09375 142.378906 308.765625 143.519531 309.0625 C 143.699219 310.0625 144.335938 313.628906 144.335938 313.628906 L 176.640625 304.027344 C 186.460938 301.128906 190.820313 292.714844 192.171875 289.457031 C 193.441406 289.203125 196.484375 288.59375 196.484375 288.59375 C 196.484375 288.59375 197.359375 286.554688 197.695313 285.777344 C 198.707031 285.40625 201.785156 284.289063 205.039063 283.105469 C 203.773438 284.914063 202.355469 286.957031 202.355469 289.230469 L 202.355469 291.105469 C 202.355469 294.253906 192.480469 302.941406 189.746094 302.964844 C 184.890625 302.964844 180.636719 311.800781 179.03125 315.597656 L 177.480469 319.269531 L 181.429688 318.726563 C 181.574219 318.707031 195.851563 316.746094 202.121094 316.746094 C 203.695313 316.746094 206.058594 315.707031 208.496094 314.34375 C 208.925781 314.863281 209.503906 315.558594 209.503906 315.558594 C 210.371094 316.597656 212.261719 317.121094 215.121094 317.121094 C 220.242188 317.121094 224.203125 312.261719 228.039063 307.5625 C 228.503906 306.988281 228.980469 306.40625 229.464844 305.832031 C 229.433594 305.996094 229.371094 306.171875 229.371094 306.328125 C 229.371094 306.964844 229.601563 307.542969 230.144531 308.085938 C 231.59375 309.535156 233.714844 308.8125 237.9375 307.367188 C 238.621094 307.132813 239.386719 306.878906 240.144531 306.632813 C 236.539063 311.082031 236.480469 312.105469 236.480469 312.730469 C 236.480469 315.246094 238.605469 317.371094 241.121094 317.371094 C 241.722656 317.371094 242.738281 317.210938 244.789063 316.875 C 247.519531 316.425781 251.644531 315.746094 254.121094 315.746094 C 259.84375 315.746094 273.195313 316.730469 273.328125 316.742188 L 274.359375 316.816406 L 275.09375 316.089844 C 282.070313 309.171875 290.390625 300.195313 290.390625 296.730469 C 290.390625 293.4375 288.683594 291.964844 286.996094 291.964844 C 286.132813 291.964844 285.953125 292.058594 280.640625 295.378906 C 277.59375 297.28125 272.050781 300.738281 270.570313 301.300781 C 269.777344 301.195313 267.433594 300.402344 265.136719 299.46875 C 264.882813 299.140625 264.652344 298.773438 264.640625 298.597656 C 264.640625 296.78125 266.300781 295.121094 268.121094 295.121094 L 270.136719 295.121094 C 270.136719 295.121094 270.925781 288.421875 271.046875 287.386719 C 274.640625 282.851563 288.015625 265.527344 288.015625 258.730469 C 288.015625 258.730469 288.015625 257.203125 288.015625 255.945313 C 289.664063 255.195313 293.152344 253.621094 294.632813 252.949219 C 296.328125 254.078125 299.191406 255.746094 301.371094 255.746094 C 308.378906 255.746094 314.945313 250.1875 315.222656 249.953125 L 315.871094 249.394531 C 315.871094 249.394531 316.261719 246.609375 316.441406 245.300781 C 318.527344 244.394531 338.578125 235.664063 338.578125 235.664063 L 334.847656 226.796875 "/>
<path style=" stroke:none;fill-rule:nonzero;fill:rgb(0%,0%,0%);fill-opacity:1;" d="M 281.183594 251.355469 C 280.246094 251.355469 273.871094 246.230469 258.933594 246.230469 C 253.058594 246.230469 251.058594 245.667969 251.058594 245.105469 C 251.058594 244.542969 251.433594 243.480469 251.433594 243.480469 C 251.433594 243.480469 252.558594 242.980469 253.183594 242.355469 C 253.808594 241.730469 253.683594 239.417969 253.683594 239.417969 C 253.683594 239.417969 260.871094 232.480469 261.433594 232.480469 C 261.996094 232.480469 264.183594 234.542969 264.183594 237.105469 C 264.183594 244.167969 285.996094 246.792969 285.996094 248.417969 C 285.996094 249.605469 282.121094 251.355469 281.183594 251.355469 Z M 333.621094 229.730469 L 312.121094 238.355469 C 312.121094 238.355469 307.871094 235.605469 306.371094 235.605469 C 304.871094 235.605469 302.371094 237.105469 301.621094 237.105469 C 300.871094 237.105469 299.496094 234.105469 298.496094 234.105469 C 297.496094 234.105469 296.996094 235.230469 296.996094 235.230469 L 291.496094 235.230469 C 288.746094 235.230469 277.621094 228.480469 277.621094 228.480469 C 277.621094 228.480469 272.246094 215.980469 272.246094 209.980469 C 272.246094 207.355469 265.746094 200.480469 265.746094 197.605469 C 265.746094 196.855469 266.496094 196.480469 267.621094 196.480469 C 270.871094 196.480469 275.121094 203.355469 276.121094 203.355469 C 277.121094 203.355469 278.621094 201.230469 278.621094 199.230469 C 278.621094 196.980469 276.621094 194.980469 276.621094 191.730469 C 276.621094 191.105469 274.683594 189.792969 274.683594 189.792969 L 274.871094 187.605469 L 275.621094 187.230469 L 275.621094 189.230469 L 276.371094 189.980469 C 278.621094 189.980469 279.746094 186.730469 280.996094 186.730469 C 282.246094 186.730469 284.371094 192.480469 285.121094 192.480469 C 285.871094 192.480469 287.371094 189.980469 287.371094 188.230469 C 287.371094 178.730469 279.496094 179.105469 279.496094 174.230469 L 279.496094 170.480469 C 282.496094 170.480469 284.621094 171.105469 284.621094 171.105469 L 290.496094 171.105469 C 290.496094 171.105469 294.371094 175.480469 296.121094 175.480469 C 294.871094 168.105469 278.269531 163.226563 270.746094 161.230469 C 270.746094 161.230469 269.359375 158.527344 267.308594 156.355469 C 264.980469 153.890625 262.609375 152.714844 259.621094 150.105469 C 256.636719 147.496094 253.035156 143.449219 251.496094 142.605469 C 247.621094 140.730469 235.621094 138.480469 231.996094 138.480469 C 228.371094 138.480469 222.746094 148.355469 222.746094 148.355469 C 224.371094 149.042969 231.496094 144.855469 233.246094 144.855469 C 234.996094 144.855469 240.121094 148.230469 242.246094 148.230469 C 245.246094 148.230469 245.121094 148.730469 246.121094 150.730469 C 246.121094 150.730469 246.746094 153.730469 246.746094 156.355469 C 246.746094 158.980469 245.746094 160.355469 245.746094 162.605469 C 245.746094 168.355469 237.371094 172.605469 232.996094 172.605469 C 227.496094 172.605469 221.121094 170.355469 221.121094 170.355469 C 221.121094 174.855469 232.996094 175.480469 234.746094 175.480469 C 237.246094 175.480469 237.621094 176.605469 239.496094 176.605469 C 241.371094 176.605469 242.246094 175.480469 242.246094 175.480469 C 242.246094 176.980469 240.246094 178.355469 238.621094 178.355469 L 233.496094 178.355469 C 231.246094 178.355469 230.496094 179.605469 230.496094 179.605469 L 235.621094 180.230469 L 235.621094 181.230469 C 235.621094 181.230469 233.996094 182.230469 229.621094 182.230469 C 225.121094 182.230469 224.371094 185.230469 224.371094 185.230469 L 230.996094 185.230469 C 230.996094 185.230469 231.621094 185.230469 231.621094 185.855469 C 231.621094 186.480469 231.871094 187.480469 230.621094 187.480469 C 227.746094 187.480469 227.246094 190.855469 227.246094 190.855469 C 227.246094 190.855469 231.933594 188.792969 232.496094 189.355469 C 232.496094 191.230469 227.746094 194.105469 227.746094 194.105469 C 227.746094 194.105469 228.621094 195.105469 230.621094 195.105469 C 233.621094 195.105469 238.621094 191.605469 238.621094 191.605469 C 238.621094 191.605469 239.558594 191.980469 239.558594 192.542969 C 239.558594 193.105469 238.996094 193.480469 238.996094 193.480469 C 238.996094 193.480469 206.746094 206.730469 201.121094 210.230469 C 195.496094 215.855469 187.871094 223.230469 183.621094 225.230469 C 180.496094 229.105469 170.371094 238.230469 170.371094 238.230469 C 172.121094 238.855469 185.371094 234.980469 189.371094 234.980469 C 196.871094 234.980469 199.746094 236.230469 199.746094 236.855469 C 190.496094 241.105469 182.496094 254.480469 178.746094 254.480469 C 175.871094 254.480469 173.246094 254.855469 173.246094 255.480469 C 173.246094 256.730469 179.246094 257.855469 182.996094 257.855469 C 186.746094 257.855469 199.996094 256.730469 199.996094 256.730469 C 199.996094 256.730469 197.996094 263.730469 197.996094 265.730469 C 197.996094 267.730469 201.996094 274.980469 201.996094 274.980469 L 194.496094 277.730469 C 193.871094 277.730469 192.808594 276.042969 192.808594 276.042969 L 191.621094 276.042969 L 191.621094 277.355469 L 187.621094 277.355469 C 187.621094 277.355469 179.996094 272.730469 174.121094 272.730469 C 171.496094 272.730469 158.121094 273.480469 158.121094 273.480469 L 132.746094 281.230469 L 132.371094 284.980469 L 133.558594 286.167969 L 133.558594 288.480469 C 133.558594 290.230469 132.371094 290.480469 132.371094 290.480469 L 132.371094 293.105469 L 136.621094 295.605469 L 136.621094 299.480469 L 140.996094 303.855469 L 141.621094 306.230469 L 145.496094 307.230469 L 146.121094 310.730469 L 175.996094 301.855469 C 186.996094 298.605469 190.496094 287.480469 190.496094 287.480469 L 194.871094 286.605469 L 195.996094 283.980469 L 208.371094 279.480469 C 210.496094 281.605469 204.621094 285.730469 204.621094 289.230469 L 204.621094 291.105469 C 204.621094 295.730469 193.496094 305.230469 189.746094 305.230469 C 185.871094 305.230469 181.121094 316.480469 181.121094 316.480469 C 181.121094 316.480469 195.621094 314.480469 202.121094 314.480469 C 205.621094 314.480469 216.246094 306.480469 216.246094 306.480469 C 218.183594 308.417969 211.246094 314.105469 211.246094 314.105469 C 211.246094 314.105469 211.871094 314.855469 215.121094 314.855469 C 222.871094 314.855469 229.121094 298.480469 235.621094 298.480469 C 237.371094 298.480469 230.871094 305.605469 231.746094 306.480469 C 232.621094 307.355469 240.746094 303.480469 243.746094 303.480469 C 244.746094 303.480469 245.371094 303.980469 245.371094 303.980469 C 245.371094 303.980469 238.746094 311.480469 238.746094 312.730469 C 238.746094 313.980469 239.871094 315.105469 241.121094 315.105469 C 242.371094 315.105469 249.996094 313.480469 254.121094 313.480469 C 259.996094 313.480469 273.496094 314.480469 273.496094 314.480469 C 273.496094 314.480469 288.121094 299.980469 288.121094 296.730469 C 288.121094 295.230469 287.621094 294.230469 286.996094 294.230469 C 286.371094 294.230469 272.371094 303.605469 270.746094 303.605469 C 269.121094 303.605469 263.746094 301.355469 263.746094 301.355469 C 263.746094 301.355469 262.371094 299.980469 262.371094 298.605469 C 262.371094 295.605469 264.996094 292.855469 268.121094 292.855469 L 268.871094 286.480469 C 268.871094 286.480469 285.746094 265.355469 285.746094 258.730469 L 285.746094 254.480469 L 294.871094 250.355469 C 294.871094 250.355469 299.121094 253.480469 301.371094 253.480469 C 307.621094 253.480469 313.746094 248.230469 313.746094 248.230469 L 314.371094 243.730469 L 335.621094 234.480469 L 333.621094 229.730469 "/>
<path style=" stroke:none;fill-rule:nonzero;fill:rgb(100%,100%,100%);fill-opacity:1;" d="M 184.6875 82.4375 L 184.6875 92.5625 L 183.871094 92.5625 C 183.238281 89.902344 182.0625 87.859375 180.335938 86.441406 C 178.613281 85.023438 176.65625 84.3125 174.472656 84.3125 C 172.644531 84.3125 170.972656 84.839844 169.449219 85.882813 C 167.925781 86.925781 166.8125 88.296875 166.105469 89.984375 C 165.199219 92.144531 164.746094 94.550781 164.746094 97.199219 C 164.746094 99.804688 165.078125 102.175781 165.738281 104.316406 C 166.398438 106.460938 167.433594 108.074219 168.839844 109.171875 C 170.242188 110.265625 172.066406 110.8125 174.304688 110.8125 C 176.140625 110.8125 177.824219 110.414063 179.351563 109.609375 C 180.882813 108.808594 182.492188 107.425781 184.1875 105.464844 L 184.1875 107.980469 C 182.550781 109.675781 180.84375 110.90625 179.074219 111.671875 C 177.300781 112.433594 175.230469 112.8125 172.863281 112.8125 C 169.746094 112.8125 166.980469 112.191406 164.5625 110.949219 C 162.144531 109.710938 160.28125 107.925781 158.96875 105.59375 C 157.652344 103.265625 156.996094 100.789063 156.996094 98.160156 C 156.996094 95.390625 157.726563 92.765625 159.1875 90.28125 C 160.644531 87.796875 162.613281 85.867188 165.089844 84.496094 C 167.570313 83.125 170.203125 82.4375 172.988281 82.4375 C 175.042969 82.4375 177.214844 82.886719 179.496094 83.785156 C 180.820313 84.304688 181.660156 84.5625 182.019531 84.5625 C 182.480469 84.5625 182.878906 84.394531 183.214844 84.054688 C 183.554688 83.714844 183.773438 83.175781 183.871094 82.4375 L 184.6875 82.4375 "/>
<path style="fill:none;stroke-width:11.0001;stroke-linecap:butt;stroke-linejoin:miter;stroke:rgb(0%,0%,0%);stroke-opacity:1;stroke-miterlimit:4;" d="M 1846.875 3411.025 L 1846.875 3309.775 L 1838.710938 3309.775 C 1832.382813 3336.376563 1820.625 3356.80625 1803.359375 3370.985938 C 1786.132813 3385.165625 1766.5625 3392.275 1744.726563 3392.275 C 1726.445313 3392.275 1709.726563 3387.001563 1694.492188 3376.571875 C 1679.257813 3366.142188 1668.125 3352.43125 1661.054688 3335.55625 C 1651.992188 3313.954688 1647.460938 3289.892188 1647.460938 3263.407813 C 1647.460938 3237.353125 1650.78125 3213.642188 1657.382813 3192.235938 C 1663.984375 3170.790625 1674.335938 3154.657813 1688.398438 3143.68125 C 1702.421875 3132.74375 1720.664063 3127.275 1743.046875 3127.275 C 1761.40625 3127.275 1778.242188 3131.259375 1793.515625 3139.30625 C 1808.828125 3147.314063 1824.921875 3161.142188 1841.875 3180.751563 L 1841.875 3155.595313 C 1825.507813 3138.642188 1808.4375 3126.3375 1790.742188 3118.68125 C 1773.007813 3111.064063 1752.304688 3107.275 1728.632813 3107.275 C 1697.460938 3107.275 1669.804688 3113.485938 1645.625 3125.907813 C 1621.445313 3138.290625 1602.8125 3156.142188 1589.6875 3179.4625 C 1576.523438 3202.74375 1569.960938 3227.509375 1569.960938 3253.798438 C 1569.960938 3281.49375 1577.265625 3307.74375 1591.875 3332.5875 C 1606.445313 3357.43125 1626.132813 3376.728125 1650.898438 3390.439063 C 1675.703125 3404.15 1702.03125 3411.025 1729.882813 3411.025 C 1750.429688 3411.025 1772.148438 3406.532813 1794.960938 3397.548438 C 1808.203125 3392.353125 1816.601563 3389.775 1820.195313 3389.775 C 1824.804688 3389.775 1828.789063 3391.454688 1832.148438 3394.853125 C 1835.546875 3398.251563 1837.734375 3403.642188 1838.710938 3411.025 Z M 1846.875 3411.025 " transform="matrix(0.1,0,0,-0.1,0,423.54)"/>
<path style=" stroke:none;fill-rule:nonzero;fill:rgb(100%,100%,100%);fill-opacity:1;" d="M 201.617188 102.3125 L 197.25 92.269531 L 192.742188 102.3125 Z M 202.296875 103.878906 L 192.042969 103.878906 L 190.769531 106.71875 C 190.367188 107.675781 190.167969 108.46875 190.167969 109.089844 C 190.167969 109.917969 190.496094 110.527344 191.15625 110.917969 C 191.542969 111.148438 192.492188 111.324219 194.011719 111.4375 L 194.011719 112.1875 L 184.324219 112.1875 L 184.324219 111.4375 C 185.367188 111.28125 186.230469 110.84375 186.902344 110.125 C 187.574219 109.410156 188.40625 107.929688 189.394531 105.683594 L 199.820313 82.4375 L 200.230469 82.4375 L 210.726563 106.332031 C 211.730469 108.621094 212.554688 110.0625 213.195313 110.65625 C 213.683594 111.105469 214.371094 111.367188 215.261719 111.4375 L 215.261719 112.1875 L 201.210938 112.1875 L 201.210938 111.4375 L 201.789063 111.4375 C 202.921875 111.4375 203.714844 111.277344 204.175781 110.957031 C 204.488281 110.722656 204.644531 110.386719 204.644531 109.949219 C 204.644531 109.6875 204.605469 109.417969 204.519531 109.140625 C 204.488281 109.011719 204.273438 108.464844 203.871094 107.5 L 202.296875 103.878906 "/>
<path style="fill:none;stroke-width:11.0001;stroke-linecap:butt;stroke-linejoin:miter;stroke:rgb(0%,0%,0%);stroke-opacity:1;stroke-miterlimit:4;" d="M 2016.171875 3212.275 L 1972.5 3312.704688 L 1927.421875 3212.275 Z M 2022.96875 3196.610938 L 1920.429688 3196.610938 L 1907.695313 3168.2125 C 1903.671875 3158.642188 1901.679688 3150.7125 1901.679688 3144.501563 C 1901.679688 3136.220313 1904.960938 3130.126563 1911.5625 3126.220313 C 1915.429688 3123.915625 1924.921875 3122.157813 1940.117188 3121.025 L 1940.117188 3113.525 L 1843.242188 3113.525 L 1843.242188 3121.025 C 1853.671875 3122.5875 1862.304688 3126.9625 1869.023438 3134.15 C 1875.742188 3141.298438 1884.0625 3156.103125 1893.945313 3178.564063 L 1998.203125 3411.025 L 2002.304688 3411.025 L 2107.265625 3172.079688 C 2117.304688 3149.189063 2125.546875 3134.775 2131.953125 3128.8375 C 2136.835938 3124.345313 2143.710938 3121.728125 2152.617188 3121.025 L 2152.617188 3113.525 L 2012.109375 3113.525 L 2012.109375 3121.025 L 2017.890625 3121.025 C 2029.21875 3121.025 2037.148438 3122.626563 2041.757813 3125.829688 C 2044.882813 3128.173438 2046.445313 3131.532813 2046.445313 3135.907813 C 2046.445313 3138.525 2046.054688 3141.220313 2045.195313 3143.99375 C 2044.882813 3145.282813 2042.734375 3150.751563 2038.710938 3160.4 Z M 2022.96875 3196.610938 " transform="matrix(0.1,0,0,-0.1,0,423.54)"/>
<path style=" stroke:none;fill-rule:nonzero;fill:rgb(100%,100%,100%);fill-opacity:1;" d="M 240.578125 101.878906 L 239.453125 112.1875 L 213.574219 112.1875 L 213.574219 111.4375 L 214.546875 111.4375 C 215.398438 111.4375 216.082031 111.285156 216.601563 110.980469 C 216.972656 110.777344 217.261719 110.429688 217.464844 109.933594 C 217.621094 109.585938 217.699219 108.671875 217.699219 107.1875 L 217.699219 88.0625 C 217.699219 86.554688 217.621094 85.609375 217.464844 85.230469 C 217.304688 84.851563 216.984375 84.523438 216.503906 84.238281 C 216.019531 83.957031 215.367188 83.8125 214.546875 83.8125 L 213.574219 83.8125 L 213.574219 83.0625 L 229.140625 83.0625 L 229.140625 83.8125 L 227.867188 83.8125 C 227.019531 83.8125 226.339844 83.96875 225.820313 84.273438 C 225.449219 84.476563 225.152344 84.824219 224.9375 85.316406 C 224.78125 85.667969 224.699219 86.582031 224.699219 88.0625 L 224.699219 106.613281 C 224.699219 108.101563 224.785156 109.050781 224.957031 109.460938 C 225.128906 109.867188 225.464844 110.171875 225.964844 110.371094 C 226.320313 110.5 227.1875 110.5625 228.558594 110.5625 L 230.980469 110.5625 C 232.523438 110.5625 233.808594 110.289063 234.839844 109.738281 C 235.867188 109.1875 236.757813 108.320313 237.507813 107.132813 C 238.257813 105.945313 238.96875 104.191406 239.640625 101.878906 L 240.578125 101.878906 "/>
<path style="fill:none;stroke-width:11.0001;stroke-linecap:butt;stroke-linejoin:miter;stroke:rgb(0%,0%,0%);stroke-opacity:1;stroke-miterlimit:4;" d="M 2405.78125 3216.610938 L 2394.53125 3113.525 L 2135.742188 3113.525 L 2135.742188 3121.025 L 2145.46875 3121.025 C 2153.984375 3121.025 2160.820313 3122.548438 2166.015625 3125.595313 C 2169.726563 3127.626563 2172.617188 3131.103125 2174.648438 3136.064063 C 2176.210938 3139.540625 2176.992188 3148.68125 2176.992188 3163.525 L 2176.992188 3354.775 C 2176.992188 3369.853125 2176.210938 3379.30625 2174.648438 3383.095313 C 2173.046875 3386.884375 2169.84375 3390.165625 2165.039063 3393.017188 C 2160.195313 3395.829688 2153.671875 3397.275 2145.46875 3397.275 L 2135.742188 3397.275 L 2135.742188 3404.775 L 2291.40625 3404.775 L 2291.40625 3397.275 L 2278.671875 3397.275 C 2270.195313 3397.275 2263.398438 3395.7125 2258.203125 3392.665625 C 2254.492188 3390.634375 2251.523438 3387.157813 2249.375 3382.235938 C 2247.8125 3378.720313 2246.992188 3369.579688 2246.992188 3354.775 L 2246.992188 3169.267188 C 2246.992188 3154.384375 2247.851563 3144.892188 2249.570313 3140.790625 C 2251.289063 3136.728125 2254.648438 3133.68125 2259.648438 3131.689063 C 2263.203125 3130.4 2271.875 3129.775 2285.585938 3129.775 L 2309.804688 3129.775 C 2325.234375 3129.775 2338.085938 3132.509375 2348.398438 3138.017188 C 2358.671875 3143.525 2367.578125 3152.196875 2375.078125 3164.071875 C 2382.578125 3175.946875 2389.6875 3193.485938 2396.40625 3216.610938 Z M 2405.78125 3216.610938 " transform="matrix(0.1,0,0,-0.1,0,423.54)"/>
<path style=" stroke:none;fill-rule:nonzero;fill:rgb(100%,100%,100%);fill-opacity:1;" d="M 268.34375 82.4375 L 268.34375 92.5625 L 267.53125 92.5625 C 266.898438 89.902344 265.71875 87.859375 263.996094 86.441406 C 262.269531 85.023438 260.316406 84.3125 258.132813 84.3125 C 256.304688 84.3125 254.628906 84.839844 253.105469 85.882813 C 251.582031 86.925781 250.46875 88.296875 249.765625 89.984375 C 248.859375 92.144531 248.40625 94.550781 248.40625 97.199219 C 248.40625 99.804688 248.738281 102.175781 249.398438 104.316406 C 250.058594 106.460938 251.089844 108.074219 252.496094 109.171875 C 253.902344 110.265625 255.726563 110.8125 257.964844 110.8125 C 259.800781 110.8125 261.484375 110.414063 263.011719 109.609375 C 264.539063 108.808594 266.152344 107.425781 267.84375 105.464844 L 267.84375 107.980469 C 266.207031 109.675781 264.503906 110.90625 262.730469 111.671875 C 260.960938 112.433594 258.890625 112.8125 256.523438 112.8125 C 253.40625 112.8125 250.640625 112.191406 248.222656 110.949219 C 245.804688 109.710938 243.9375 107.925781 242.625 105.59375 C 241.3125 103.265625 240.65625 100.789063 240.65625 98.160156 C 240.65625 95.390625 241.386719 92.765625 242.84375 90.28125 C 244.300781 87.796875 246.269531 85.867188 248.746094 84.496094 C 251.226563 83.125 253.859375 82.4375 256.648438 82.4375 C 258.703125 82.4375 260.871094 82.886719 263.15625 83.785156 C 264.476563 84.304688 265.320313 84.5625 265.679688 84.5625 C 266.136719 84.5625 266.535156 84.394531 266.871094 84.054688 C 267.210938 83.714844 267.429688 83.175781 267.53125 82.4375 L 268.34375 82.4375 "/>
<path style="fill:none;stroke-width:11.0001;stroke-linecap:butt;stroke-linejoin:miter;stroke:rgb(0%,0%,0%);stroke-opacity:1;stroke-miterlimit:4;" d="M 2683.4375 3411.025 L 2683.4375 3309.775 L 2675.3125 3309.775 C 2668.984375 3336.376563 2657.1875 3356.80625 2639.960938 3370.985938 C 2622.695313 3385.165625 2603.164063 3392.275 2581.328125 3392.275 C 2563.046875 3392.275 2546.289063 3387.001563 2531.054688 3376.571875 C 2515.820313 3366.142188 2504.6875 3352.43125 2497.65625 3335.55625 C 2488.59375 3313.954688 2484.0625 3289.892188 2484.0625 3263.407813 C 2484.0625 3237.353125 2487.382813 3213.642188 2493.984375 3192.235938 C 2500.585938 3170.790625 2510.898438 3154.657813 2524.960938 3143.68125 C 2539.023438 3132.74375 2557.265625 3127.275 2579.648438 3127.275 C 2598.007813 3127.275 2614.84375 3131.259375 2630.117188 3139.30625 C 2645.390625 3147.314063 2661.523438 3161.142188 2678.4375 3180.751563 L 2678.4375 3155.595313 C 2662.070313 3138.642188 2645.039063 3126.3375 2627.304688 3118.68125 C 2609.609375 3111.064063 2588.90625 3107.275 2565.234375 3107.275 C 2534.0625 3107.275 2506.40625 3113.485938 2482.226563 3125.907813 C 2458.046875 3138.290625 2439.375 3156.142188 2426.25 3179.4625 C 2413.125 3202.74375 2406.5625 3227.509375 2406.5625 3253.798438 C 2406.5625 3281.49375 2413.867188 3307.74375 2428.4375 3332.5875 C 2443.007813 3357.43125 2462.695313 3376.728125 2487.460938 3390.439063 C 2512.265625 3404.15 2538.59375 3411.025 2566.484375 3411.025 C 2587.03125 3411.025 2608.710938 3406.532813 2631.5625 3397.548438 C 2644.765625 3392.353125 2653.203125 3389.775 2656.796875 3389.775 C 2661.367188 3389.775 2665.351563 3391.454688 2668.710938 3394.853125 C 2672.109375 3398.251563 2674.296875 3403.642188 2675.3125 3411.025 Z M 2683.4375 3411.025 " transform="matrix(0.1,0,0,-0.1,0,423.54)"/>
<path style=" stroke:none;fill-rule:nonzero;fill:rgb(100%,100%,100%);fill-opacity:1;" d="M 283.789063 111.4375 L 283.789063 112.1875 L 268.539063 112.1875 L 268.539063 111.4375 L 269.511719 111.4375 C 270.363281 111.4375 271.046875 111.285156 271.5625 110.980469 C 271.9375 110.777344 272.226563 110.429688 272.429688 109.933594 C 272.585938 109.585938 272.664063 108.671875 272.664063 107.1875 L 272.664063 88.0625 C 272.664063 86.554688 272.585938 85.609375 272.425781 85.230469 C 272.269531 84.851563 271.949219 84.523438 271.464844 84.238281 C 270.984375 83.957031 270.332031 83.8125 269.511719 83.8125 L 268.539063 83.8125 L 268.539063 83.0625 L 283.789063 83.0625 L 283.789063 83.8125 L 282.824219 83.8125 C 281.976563 83.8125 281.296875 83.96875 280.78125 84.273438 C 280.410156 84.476563 280.117188 84.824219 279.902344 85.316406 C 279.742188 85.667969 279.664063 86.582031 279.664063 88.0625 L 279.664063 107.1875 C 279.664063 108.699219 279.746094 109.644531 279.914063 110.023438 C 280.078125 110.402344 280.398438 110.730469 280.878906 111.015625 C 281.359375 111.296875 282.007813 111.4375 282.824219 111.4375 L 283.789063 111.4375 "/>
<path style="fill:none;stroke-width:11.0001;stroke-linecap:butt;stroke-linejoin:miter;stroke:rgb(0%,0%,0%);stroke-opacity:1;stroke-miterlimit:4;" d="M 2837.890625 3121.025 L 2837.890625 3113.525 L 2685.390625 3113.525 L 2685.390625 3121.025 L 2695.117188 3121.025 C 2703.632813 3121.025 2710.46875 3122.548438 2715.625 3125.595313 C 2719.375 3127.626563 2722.265625 3131.103125 2724.296875 3136.064063 C 2725.859375 3139.540625 2726.640625 3148.68125 2726.640625 3163.525 L 2726.640625 3354.775 C 2726.640625 3369.853125 2725.859375 3379.30625 2724.257813 3383.095313 C 2722.695313 3386.884375 2719.492188 3390.165625 2714.648438 3393.017188 C 2709.84375 3395.829688 2703.320313 3397.275 2695.117188 3397.275 L 2685.390625 3397.275 L 2685.390625 3404.775 L 2837.890625 3404.775 L 2837.890625 3397.275 L 2828.242188 3397.275 C 2819.765625 3397.275 2812.96875 3395.7125 2807.8125 3392.665625 C 2804.101563 3390.634375 2801.171875 3387.157813 2799.023438 3382.235938 C 2797.421875 3378.720313 2796.640625 3369.579688 2796.640625 3354.775 L 2796.640625 3163.525 C 2796.640625 3148.407813 2797.460938 3138.954688 2799.140625 3135.165625 C 2800.78125 3131.376563 2803.984375 3128.095313 2808.789063 3125.24375 C 2813.59375 3122.43125 2820.078125 3121.025 2828.242188 3121.025 Z M 2837.890625 3121.025 " transform="matrix(0.1,0,0,-0.1,0,423.54)"/>
<path style=" stroke:none;fill-rule:nonzero;fill:rgb(100%,100%,100%);fill-opacity:1;" d="M 298.929688 84.003906 C 296.261719 84.003906 294.234375 85.359375 292.84375 88.078125 C 291.710938 90.3125 291.144531 93.515625 291.144531 97.691406 C 291.144531 102.65625 292.019531 106.324219 293.769531 108.699219 C 294.988281 110.359375 296.691406 111.1875 298.886719 111.1875 C 300.363281 111.1875 301.59375 110.832031 302.585938 110.117188 C 303.84375 109.199219 304.828125 107.738281 305.53125 105.726563 C 306.230469 103.71875 306.582031 101.097656 306.582031 97.863281 C 306.582031 94.015625 306.226563 91.136719 305.507813 89.226563 C 304.789063 87.316406 303.878906 85.96875 302.765625 85.183594 C 301.65625 84.394531 300.375 84.003906 298.929688 84.003906 Z M 298.671875 82.628906 C 303.3125 82.453125 307.082031 83.808594 309.984375 86.683594 C 312.882813 89.5625 314.332031 93.160156 314.332031 97.484375 C 314.332031 101.175781 313.25 104.425781 311.089844 107.230469 C 308.222656 110.953125 304.179688 112.8125 298.949219 112.8125 C 293.707031 112.8125 289.65625 111.039063 286.789063 107.488281 C 284.527344 104.683594 283.394531 101.355469 283.394531 97.507813 C 283.394531 93.183594 284.867188 89.578125 287.8125 86.695313 C 290.753906 83.8125 294.371094 82.453125 298.671875 82.628906 "/>
<path style="fill:none;stroke-width:11.0001;stroke-linecap:butt;stroke-linejoin:miter;stroke:rgb(0%,0%,0%);stroke-opacity:1;stroke-miterlimit:4;" d="M 2989.296875 3395.360938 C 2962.617188 3395.360938 2942.34375 3381.80625 2928.4375 3354.61875 C 2917.109375 3332.275 2911.445313 3300.24375 2911.445313 3258.485938 C 2911.445313 3208.8375 2920.195313 3172.157813 2937.695313 3148.407813 C 2949.882813 3131.80625 2966.914063 3123.525 2988.867188 3123.525 C 3003.632813 3123.525 3015.9375 3127.079688 3025.859375 3134.228125 C 3038.4375 3143.407813 3048.28125 3158.017188 3055.3125 3178.134375 C 3062.304688 3198.2125 3065.820313 3224.423438 3065.820313 3256.767188 C 3065.820313 3295.24375 3062.265625 3324.032813 3055.078125 3343.134375 C 3047.890625 3362.235938 3038.789063 3375.7125 3027.65625 3383.564063 C 3016.5625 3391.454688 3003.75 3395.360938 2989.296875 3395.360938 Z M 2986.71875 3409.110938 C 3033.125 3410.86875 3070.820313 3397.314063 3099.84375 3368.564063 C 3128.828125 3339.775 3143.320313 3303.798438 3143.320313 3260.55625 C 3143.320313 3223.642188 3132.5 3191.142188 3110.898438 3163.095313 C 3082.226563 3125.86875 3041.796875 3107.275 2989.492188 3107.275 C 2937.070313 3107.275 2896.5625 3125.009375 2867.890625 3160.517188 C 2845.273438 3188.564063 2833.945313 3221.845313 2833.945313 3260.321875 C 2833.945313 3303.564063 2848.671875 3339.61875 2878.125 3368.446875 C 2907.539063 3397.275 2943.710938 3410.86875 2986.71875 3409.110938 Z M 2986.71875 3409.110938 " transform="matrix(0.1,0,0,-0.1,0,423.54)"/>
<path style=" stroke:none;fill-rule:nonzero;fill:rgb(100%,100%,100%);fill-opacity:1;" d="M 119.480469 57.035156 L 123.292969 65.574219 L 123.710938 66.5625 C 124.027344 67.269531 124.445313 67.722656 124.964844 67.921875 C 125.484375 68.121094 126.097656 68.0625 126.804688 67.746094 C 127.851563 67.28125 128.714844 66.617188 129.390625 65.757813 C 130.0625 64.898438 130.441406 63.921875 130.515625 62.828125 C 130.59375 61.734375 130.390625 60.644531 129.902344 59.558594 C 129.347656 58.316406 128.5625 57.332031 127.546875 56.601563 C 126.527344 55.871094 125.429688 55.535156 124.246094 55.589844 C 123.0625 55.648438 121.476563 56.132813 119.480469 57.035156 Z M 118.796875 55.507813 C 120.652344 54.675781 121.929688 53.855469 122.628906 53.042969 C 123.320313 52.230469 123.734375 51.339844 123.867188 50.371094 C 124 49.402344 123.804688 48.328125 123.277344 47.148438 C 122.753906 45.972656 122.089844 45.113281 121.289063 44.566406 C 120.488281 44.023438 119.566406 43.746094 118.527344 43.738281 C 117.488281 43.734375 116.019531 44.164063 114.113281 45.027344 Z M 126.175781 52.847656 C 128.964844 52.308594 131.054688 52.230469 132.449219 52.609375 C 134.445313 53.144531 135.867188 54.363281 136.714844 56.261719 C 137.609375 58.261719 137.542969 60.273438 136.519531 62.300781 C 135.25 64.765625 132.734375 66.84375 128.964844 68.523438 L 115.445313 74.5625 L 115.121094 73.839844 C 116.351563 73.289063 117.132813 72.800781 117.46875 72.378906 C 117.804688 71.953125 117.980469 71.515625 117.992188 71.070313 C 118.007813 70.625 117.691406 69.683594 117.050781 68.246094 L 109.335938 50.976563 C 108.691406 49.539063 108.199219 48.671875 107.855469 48.378906 C 107.515625 48.085938 107.070313 47.925781 106.523438 47.902344 C 105.980469 47.878906 105.101563 48.136719 103.882813 48.679688 L 103.558594 47.953125 L 116.3125 42.257813 C 119.363281 40.894531 121.640625 40.203125 123.152344 40.179688 C 124.664063 40.15625 126.027344 40.519531 127.242188 41.269531 C 128.457031 42.023438 129.335938 43.007813 129.882813 44.222656 C 130.453125 45.507813 130.496094 46.855469 130.015625 48.269531 C 129.53125 49.6875 128.253906 51.210938 126.175781 52.847656 "/>
<path style="fill:none;stroke-width:11.0001;stroke-linecap:butt;stroke-linejoin:miter;stroke:rgb(0%,0%,0%);stroke-opacity:1;stroke-miterlimit:4;" d="M 1194.804688 3665.048438 L 1232.929688 3579.657813 L 1237.109375 3569.775 C 1240.273438 3562.704688 1244.453125 3558.173438 1249.648438 3556.18125 C 1254.84375 3554.189063 1260.976563 3554.775 1268.046875 3557.939063 C 1278.515625 3562.5875 1287.148438 3569.228125 1293.90625 3577.821875 C 1300.625 3586.415625 1304.414063 3596.18125 1305.15625 3607.11875 C 1305.9375 3618.05625 1303.90625 3628.954688 1299.023438 3639.814063 C 1293.476563 3652.235938 1285.625 3662.079688 1275.46875 3669.384375 C 1265.273438 3676.689063 1254.296875 3680.048438 1242.460938 3679.501563 C 1230.625 3678.915625 1214.765625 3674.071875 1194.804688 3665.048438 Z M 1187.96875 3680.321875 C 1206.523438 3688.642188 1219.296875 3696.845313 1226.289063 3704.970313 C 1233.203125 3713.095313 1237.34375 3722.001563 1238.671875 3731.689063 C 1240 3741.376563 1238.046875 3752.11875 1232.773438 3763.915625 C 1227.539063 3775.673438 1220.898438 3784.267188 1212.890625 3789.735938 C 1204.882813 3795.165625 1195.664063 3797.939063 1185.273438 3798.017188 C 1174.882813 3798.05625 1160.195313 3793.759375 1141.132813 3785.126563 Z M 1261.757813 3706.923438 C 1289.648438 3712.314063 1310.546875 3713.095313 1324.492188 3709.30625 C 1344.453125 3703.954688 1358.671875 3691.767188 1367.148438 3672.782813 C 1376.09375 3652.782813 1375.429688 3632.665625 1365.195313 3612.392188 C 1352.5 3587.74375 1327.34375 3566.9625 1289.648438 3550.165625 L 1154.453125 3489.775 L 1151.210938 3497.001563 C 1163.515625 3502.509375 1171.328125 3507.392188 1174.6875 3511.610938 C 1178.046875 3515.86875 1179.804688 3520.24375 1179.921875 3524.696875 C 1180.078125 3529.15 1176.914063 3538.564063 1170.507813 3552.939063 L 1093.359375 3725.634375 C 1086.914063 3740.009375 1081.992188 3748.68125 1078.554688 3751.610938 C 1075.15625 3754.540625 1070.703125 3756.142188 1065.234375 3756.376563 C 1059.804688 3756.610938 1051.015625 3754.032813 1038.828125 3748.603125 L 1035.585938 3755.86875 L 1163.125 3812.821875 C 1193.632813 3826.454688 1216.40625 3833.36875 1231.523438 3833.603125 C 1246.640625 3833.8375 1260.273438 3830.204688 1272.421875 3822.704688 C 1284.570313 3815.165625 1293.359375 3805.321875 1298.828125 3793.173438 C 1304.53125 3780.321875 1304.960938 3766.845313 1300.15625 3752.704688 C 1295.3125 3738.525 1282.539063 3723.290625 1261.757813 3706.923438 Z M 1261.757813 3706.923438 " transform="matrix(0.1,0,0,-0.1,0,423.54)"/>
<path style=" stroke:none;fill-rule:nonzero;fill:rgb(100%,100%,100%);fill-opacity:1;" d="M 140.929688 34.25 L 144.792969 45.453125 L 145.339844 45.261719 C 147.085938 44.660156 148.160156 43.675781 148.566406 42.308594 C 148.976563 40.941406 148.917969 39.152344 148.394531 36.941406 L 149.167969 36.675781 L 154.140625 51.085938 L 153.367188 51.347656 C 152.664063 49.835938 151.878906 48.671875 151.011719 47.847656 C 150.144531 47.027344 149.308594 46.5625 148.5 46.457031 C 147.691406 46.347656 146.632813 46.519531 145.316406 46.972656 L 147.992188 54.726563 C 148.515625 56.242188 148.898438 57.148438 149.144531 57.441406 C 149.390625 57.734375 149.726563 57.929688 150.152344 58.023438 C 150.578125 58.121094 151.183594 58.03125 151.96875 57.761719 L 153.613281 57.191406 C 156.183594 56.304688 158.035156 55 159.175781 53.273438 C 160.3125 51.550781 160.800781 49.351563 160.636719 46.683594 L 161.390625 46.425781 L 163.171875 55.597656 L 139.386719 63.804688 L 139.125 63.054688 L 140.039063 62.738281 C 140.835938 62.464844 141.429688 62.101563 141.820313 61.648438 C 142.105469 61.339844 142.265625 60.921875 142.296875 60.394531 C 142.332031 60.019531 142.113281 59.140625 141.636719 57.761719 L 135.390625 39.65625 C 134.960938 38.414063 134.664063 37.660156 134.496094 37.398438 C 134.199219 36.972656 133.820313 36.695313 133.367188 36.5625 C 132.722656 36.363281 131.953125 36.414063 131.0625 36.722656 L 130.148438 37.039063 L 129.890625 36.289063 L 152.921875 28.339844 L 155.730469 36.476563 L 154.960938 36.742188 C 153.882813 34.890625 152.835938 33.652344 151.828125 33.03125 C 150.816406 32.410156 149.59375 32.121094 148.15625 32.164063 C 147.3125 32.183594 145.851563 32.550781 143.769531 33.269531 L 140.929688 34.25 "/>
<path style="fill:none;stroke-width:11.0001;stroke-linecap:butt;stroke-linejoin:miter;stroke:rgb(0%,0%,0%);stroke-opacity:1;stroke-miterlimit:4;" d="M 1409.296875 3892.9 L 1447.929688 3780.86875 L 1453.398438 3782.782813 C 1470.859375 3788.798438 1481.601563 3798.642188 1485.664063 3812.314063 C 1489.765625 3825.985938 1489.179688 3843.876563 1483.945313 3865.985938 L 1491.679688 3868.642188 L 1541.40625 3724.540625 L 1533.671875 3721.923438 C 1526.640625 3737.040625 1518.789063 3748.68125 1510.117188 3756.923438 C 1501.445313 3765.126563 1493.085938 3769.775 1485 3770.829688 C 1476.914063 3771.923438 1466.328125 3770.204688 1453.164063 3765.673438 L 1479.921875 3688.134375 C 1485.15625 3672.978125 1488.984375 3663.915625 1491.445313 3660.985938 C 1493.90625 3658.05625 1497.265625 3656.103125 1501.523438 3655.165625 C 1505.78125 3654.189063 1511.835938 3655.0875 1519.6875 3657.782813 L 1536.132813 3663.485938 C 1561.835938 3672.353125 1580.351563 3685.4 1591.757813 3702.665625 C 1603.125 3719.892188 1608.007813 3741.884375 1606.367188 3768.564063 L 1613.90625 3771.142188 L 1631.71875 3679.423438 L 1393.867188 3597.353125 L 1391.25 3604.853125 L 1400.390625 3608.017188 C 1408.359375 3610.751563 1414.296875 3614.384375 1418.203125 3618.915625 C 1421.054688 3622.001563 1422.65625 3626.18125 1422.96875 3631.454688 C 1423.320313 3635.204688 1421.132813 3643.99375 1416.367188 3657.782813 L 1353.90625 3838.8375 C 1349.609375 3851.259375 1346.640625 3858.798438 1344.960938 3861.415625 C 1341.992188 3865.673438 1338.203125 3868.446875 1333.671875 3869.775 C 1327.226563 3871.767188 1319.53125 3871.259375 1310.625 3868.173438 L 1301.484375 3865.009375 L 1298.90625 3872.509375 L 1529.21875 3952.001563 L 1557.304688 3870.634375 L 1549.609375 3867.978125 C 1538.828125 3886.49375 1528.359375 3898.876563 1518.28125 3905.0875 C 1508.164063 3911.298438 1495.9375 3914.189063 1481.5625 3913.759375 C 1473.125 3913.564063 1458.515625 3909.892188 1437.695313 3902.704688 Z M 1409.296875 3892.9 " transform="matrix(0.1,0,0,-0.1,0,423.54)"/>
<path style=" stroke:none;fill-rule:nonzero;fill:rgb(100%,100%,100%);fill-opacity:1;" d="M 167.191406 24.394531 L 185.402344 38.617188 L 182.472656 26.429688 C 182.0625 24.726563 181.542969 23.636719 180.914063 23.15625 C 180.050781 22.507813 178.835938 22.386719 177.265625 22.792969 L 177.078125 22.019531 L 186.445313 19.769531 L 186.628906 20.542969 C 185.46875 20.984375 184.710938 21.378906 184.359375 21.71875 C 184.007813 22.0625 183.78125 22.535156 183.683594 23.140625 C 183.585938 23.746094 183.699219 24.71875 184.019531 26.058594 L 189.691406 49.660156 L 188.980469 49.828125 L 164.140625 30.835938 L 168.46875 48.851563 C 168.859375 50.484375 169.496094 51.496094 170.382813 51.886719 C 171.265625 52.28125 172.1875 52.359375 173.148438 52.128906 L 173.816406 51.96875 L 174.003906 52.742188 L 163.949219 55.15625 L 163.761719 54.386719 C 165.320313 53.996094 166.328125 53.414063 166.789063 52.640625 C 167.253906 51.863281 167.304688 50.726563 166.941406 49.21875 L 162.136719 29.214844 L 161.347656 28.605469 C 160.570313 28 159.921875 27.632813 159.402344 27.503906 C 158.886719 27.378906 158.195313 27.40625 157.324219 27.585938 L 157.136719 26.8125 L 167.191406 24.394531 "/>
<path style="fill:none;stroke-width:11.0001;stroke-linecap:butt;stroke-linejoin:miter;stroke:rgb(0%,0%,0%);stroke-opacity:1;stroke-miterlimit:4;" d="M 1671.914063 3991.454688 L 1854.023438 3849.228125 L 1824.726563 3971.103125 C 1820.625 3988.134375 1815.429688 3999.032813 1809.140625 4003.8375 C 1800.507813 4010.321875 1788.359375 4011.532813 1772.65625 4007.470313 L 1770.78125 4015.204688 L 1864.453125 4037.704688 L 1866.289063 4029.970313 C 1854.6875 4025.55625 1847.109375 4021.610938 1843.59375 4018.2125 C 1840.078125 4014.775 1837.8125 4010.048438 1836.835938 4003.99375 C 1835.859375 3997.939063 1836.992188 3988.2125 1840.195313 3974.814063 L 1896.914063 3738.798438 L 1889.804688 3737.11875 L 1641.40625 3927.040625 L 1684.6875 3746.884375 C 1688.59375 3730.55625 1694.960938 3720.439063 1703.828125 3716.532813 C 1712.65625 3712.5875 1721.875 3711.80625 1731.484375 3714.110938 L 1738.164063 3715.7125 L 1740.039063 3707.978125 L 1639.492188 3683.8375 L 1637.617188 3691.532813 C 1653.203125 3695.439063 1663.28125 3701.259375 1667.890625 3708.99375 C 1672.539063 3716.767188 1673.046875 3728.134375 1669.414063 3743.2125 L 1621.367188 3943.251563 L 1613.476563 3949.345313 C 1605.703125 3955.4 1599.21875 3959.071875 1594.023438 3960.360938 C 1588.867188 3961.610938 1581.953125 3961.3375 1573.242188 3959.540625 L 1571.367188 3967.275 Z M 1671.914063 3991.454688 " transform="matrix(0.1,0,0,-0.1,0,423.54)"/>
<path style=" stroke:none;fill-rule:nonzero;fill:rgb(100%,100%,100%);fill-opacity:1;" d="M 199.59375 19.699219 L 201.125 31.457031 L 201.699219 31.382813 C 203.53125 31.144531 204.785156 30.398438 205.460938 29.140625 C 206.132813 27.882813 206.4375 26.117188 206.371094 23.84375 L 207.179688 23.738281 L 209.152344 38.859375 L 208.339844 38.96875 C 207.957031 37.34375 207.421875 36.039063 206.738281 35.058594 C 206.054688 34.078125 205.328125 33.457031 204.554688 33.1875 C 203.785156 32.921875 202.710938 32.878906 201.332031 33.054688 L 202.390625 41.191406 C 202.597656 42.78125 202.792969 43.746094 202.972656 44.085938 C 203.15625 44.421875 203.445313 44.679688 203.84375 44.859375 C 204.242188 45.039063 204.855469 45.074219 205.679688 44.96875 L 207.402344 44.742188 C 210.101563 44.390625 212.183594 43.484375 213.644531 42.023438 C 215.109375 40.5625 216.027344 38.507813 216.40625 35.859375 L 217.195313 35.757813 L 217.089844 45.105469 L 192.125 48.355469 L 192.023438 47.570313 L 192.980469 47.445313 C 193.820313 47.335938 194.472656 47.097656 194.945313 46.734375 C 195.289063 46.484375 195.53125 46.109375 195.664063 45.597656 C 195.777344 45.238281 195.738281 44.335938 195.550781 42.886719 L 193.078125 23.886719 C 192.90625 22.578125 192.765625 21.78125 192.65625 21.492188 C 192.449219 21.011719 192.136719 20.664063 191.71875 20.441406 C 191.128906 20.117188 190.363281 20.011719 189.425781 20.136719 L 188.464844 20.261719 L 188.363281 19.472656 L 212.539063 16.324219 L 213.652344 24.867188 L 212.84375 24.972656 C 212.160156 22.9375 211.386719 21.515625 210.523438 20.703125 C 209.660156 19.890625 208.515625 19.359375 207.097656 19.113281 C 206.269531 18.960938 204.761719 19.027344 202.574219 19.3125 L 199.59375 19.699219 "/>
<path style="fill:none;stroke-width:11.0001;stroke-linecap:butt;stroke-linejoin:miter;stroke:rgb(0%,0%,0%);stroke-opacity:1;stroke-miterlimit:4;" d="M 1995.9375 4038.407813 L 2011.25 3920.829688 L 2016.992188 3921.571875 C 2035.3125 3923.954688 2047.851563 3931.415625 2054.609375 3943.99375 C 2061.328125 3956.571875 2064.375 3974.228125 2063.710938 3996.9625 L 2071.796875 3998.017188 L 2091.523438 3846.80625 L 2083.398438 3845.7125 C 2079.570313 3861.9625 2074.21875 3875.009375 2067.382813 3884.814063 C 2060.546875 3894.61875 2053.28125 3900.829688 2045.546875 3903.525 C 2037.851563 3906.18125 2027.109375 3906.610938 2013.320313 3904.853125 L 2023.90625 3823.485938 C 2025.976563 3807.5875 2027.929688 3797.939063 2029.726563 3794.540625 C 2031.5625 3791.18125 2034.453125 3788.603125 2038.4375 3786.80625 C 2042.421875 3785.009375 2048.554688 3784.657813 2056.796875 3785.7125 L 2074.023438 3787.978125 C 2101.015625 3791.49375 2121.835938 3800.55625 2136.445313 3815.165625 C 2151.09375 3829.775 2160.273438 3850.321875 2164.0625 3876.80625 L 2171.953125 3877.821875 L 2170.898438 3784.345313 L 1921.25 3751.845313 L 1920.234375 3759.696875 L 1929.804688 3760.946875 C 1938.203125 3762.040625 1944.726563 3764.423438 1949.453125 3768.05625 C 1952.890625 3770.55625 1955.3125 3774.30625 1956.640625 3779.423438 C 1957.773438 3783.017188 1957.382813 3792.040625 1955.507813 3806.532813 L 1930.78125 3996.532813 C 1929.0625 4009.61875 1927.65625 4017.5875 1926.5625 4020.478125 C 1924.492188 4025.282813 1921.367188 4028.759375 1917.1875 4030.985938 C 1911.289063 4034.228125 1903.632813 4035.282813 1894.257813 4034.032813 L 1884.648438 4032.782813 L 1883.632813 4040.673438 L 2125.390625 4072.157813 L 2136.523438 3986.728125 L 2128.4375 3985.673438 C 2121.601563 4006.025 2113.867188 4020.24375 2105.234375 4028.36875 C 2096.601563 4036.49375 2085.15625 4041.80625 2070.976563 4044.267188 C 2062.695313 4045.790625 2047.617188 4045.126563 2025.742188 4042.275 Z M 1995.9375 4038.407813 " transform="matrix(0.1,0,0,-0.1,0,423.54)"/>
<path style=" stroke:none;fill-rule:nonzero;fill:rgb(100%,100%,100%);fill-opacity:1;" d="M 248.304688 15.3125 L 248.3125 16.109375 C 247.253906 16.292969 246.316406 16.867188 245.496094 17.839844 C 244.902344 18.5625 244.023438 20.253906 242.867188 22.917969 L 233.078125 45.285156 L 232.371094 45.292969 L 222.121094 22.242188 C 220.886719 19.464844 220.0625 17.835938 219.648438 17.351563 C 219.234375 16.867188 218.464844 16.570313 217.332031 16.453125 L 217.320313 15.65625 L 231.285156 15.503906 L 231.296875 16.296875 L 230.824219 16.304688 C 229.5625 16.316406 228.703125 16.484375 228.25 16.804688 C 227.921875 17.023438 227.761719 17.339844 227.765625 17.757813 C 227.769531 18.011719 227.828125 18.316406 227.949219 18.667969 C 228.066406 19.015625 228.464844 19.953125 229.140625 21.480469 L 235.511719 35.910156 L 241.125 22.9375 C 241.796875 21.367188 242.203125 20.316406 242.359375 19.785156 C 242.507813 19.253906 242.582031 18.800781 242.578125 18.429688 C 242.574219 18 242.453125 17.621094 242.222656 17.296875 C 241.988281 16.96875 241.648438 16.71875 241.203125 16.554688 C 240.585938 16.316406 239.769531 16.203125 238.75 16.214844 L 238.742188 15.421875 L 248.304688 15.3125 "/>
<path style="fill:none;stroke-width:11.0001;stroke-linecap:butt;stroke-linejoin:miter;stroke:rgb(0%,0%,0%);stroke-opacity:1;stroke-miterlimit:4;" d="M 2483.046875 4082.275 L 2483.125 4074.30625 C 2472.539063 4072.470313 2463.164063 4066.728125 2454.960938 4057.001563 C 2449.023438 4049.775 2440.234375 4032.860938 2428.671875 4006.220313 L 2330.78125 3782.548438 L 2323.710938 3782.470313 L 2221.210938 4012.978125 C 2208.867188 4040.751563 2200.625 4057.040625 2196.484375 4061.884375 C 2192.34375 4066.728125 2184.648438 4069.696875 2173.320313 4070.86875 L 2173.203125 4078.8375 L 2312.851563 4080.360938 L 2312.96875 4072.43125 L 2308.242188 4072.353125 C 2295.625 4072.235938 2287.03125 4070.55625 2282.5 4067.353125 C 2279.21875 4065.165625 2277.617188 4062.001563 2277.65625 4057.821875 C 2277.695313 4055.282813 2278.28125 4052.235938 2279.492188 4048.720313 C 2280.664063 4045.24375 2284.648438 4035.86875 2291.40625 4020.595313 L 2355.117188 3876.298438 L 2411.25 4006.025 C 2417.96875 4021.728125 2422.03125 4032.235938 2423.59375 4037.548438 C 2425.078125 4042.860938 2425.820313 4047.392188 2425.78125 4051.103125 C 2425.742188 4055.4 2424.53125 4059.189063 2422.226563 4062.43125 C 2419.882813 4065.7125 2416.484375 4068.2125 2412.03125 4069.853125 C 2405.859375 4072.235938 2397.695313 4073.36875 2387.5 4073.251563 L 2387.421875 4081.18125 Z M 2483.046875 4082.275 " transform="matrix(0.1,0,0,-0.1,0,423.54)"/>
<path style=" stroke:none;fill-rule:nonzero;fill:rgb(100%,100%,100%);fill-opacity:1;" d="M 260.976563 18.40625 L 259.679688 30.195313 L 260.257813 30.261719 C 262.09375 30.464844 263.488281 30.03125 264.441406 28.96875 C 265.394531 27.90625 266.109375 26.261719 266.582031 24.039063 L 267.394531 24.128906 L 265.726563 39.292969 L 264.914063 39.203125 C 264.925781 37.535156 264.714844 36.140625 264.28125 35.027344 C 263.851563 33.914063 263.289063 33.136719 262.605469 32.691406 C 261.917969 32.246094 260.882813 31.949219 259.503906 31.800781 L 258.605469 39.960938 C 258.429688 41.554688 258.390625 42.539063 258.488281 42.910156 C 258.582031 43.28125 258.804688 43.597656 259.148438 43.867188 C 259.492188 44.136719 260.078125 44.316406 260.90625 44.40625 L 262.636719 44.597656 C 265.339844 44.894531 267.578125 44.507813 269.347656 43.433594 C 271.117188 42.359375 272.496094 40.578125 273.492188 38.09375 L 274.28125 38.179688 L 271.964844 47.246094 L 246.929688 44.492188 L 247.015625 43.699219 L 247.976563 43.804688 C 248.816406 43.898438 249.511719 43.824219 250.054688 43.582031 C 250.449219 43.421875 250.769531 43.113281 251.023438 42.648438 C 251.21875 42.324219 251.394531 41.4375 251.554688 39.984375 L 253.652344 20.925781 C 253.792969 19.617188 253.847656 18.808594 253.808594 18.503906 C 253.722656 17.988281 253.5 17.574219 253.144531 17.261719 C 252.648438 16.804688 251.929688 16.523438 250.988281 16.421875 L 250.027344 16.3125 L 250.117188 15.523438 L 274.363281 18.191406 L 273.417969 26.757813 L 272.609375 26.667969 C 272.425781 24.527344 272.007813 22.964844 271.363281 21.96875 C 270.714844 20.976563 269.730469 20.1875 268.410156 19.609375 C 267.640625 19.265625 266.160156 18.976563 263.96875 18.734375 L 260.976563 18.40625 "/>
<path style="fill:none;stroke-width:11.0001;stroke-linecap:butt;stroke-linejoin:miter;stroke:rgb(0%,0%,0%);stroke-opacity:1;stroke-miterlimit:4;" d="M 2609.765625 4051.3375 L 2596.796875 3933.446875 L 2602.578125 3932.782813 C 2620.9375 3930.751563 2634.882813 3935.0875 2644.414063 3945.7125 C 2653.945313 3956.3375 2661.09375 3972.782813 2665.820313 3995.009375 L 2673.945313 3994.110938 L 2657.265625 3842.470313 L 2649.140625 3843.36875 C 2649.257813 3860.048438 2647.148438 3873.99375 2642.8125 3885.126563 C 2638.515625 3896.259375 2632.890625 3904.032813 2626.054688 3908.485938 C 2619.179688 3912.939063 2608.828125 3915.907813 2595.039063 3917.392188 L 2586.054688 3835.790625 C 2584.296875 3819.853125 2583.90625 3810.009375 2584.882813 3806.298438 C 2585.820313 3802.5875 2588.046875 3799.423438 2591.484375 3796.728125 C 2594.921875 3794.032813 2600.78125 3792.235938 2609.0625 3791.3375 L 2626.367188 3789.423438 C 2653.398438 3786.454688 2675.78125 3790.321875 2693.476563 3801.064063 C 2711.171875 3811.80625 2724.960938 3829.61875 2734.921875 3854.4625 L 2742.8125 3853.603125 L 2719.648438 3762.939063 L 2469.296875 3790.478125 L 2470.15625 3798.407813 L 2479.765625 3797.353125 C 2488.164063 3796.415625 2495.117188 3797.157813 2500.546875 3799.579688 C 2504.492188 3801.18125 2507.695313 3804.267188 2510.234375 3808.915625 C 2512.1875 3812.157813 2513.945313 3821.025 2515.546875 3835.55625 L 2536.523438 4026.142188 C 2537.929688 4039.228125 2538.476563 4047.314063 2538.085938 4050.360938 C 2537.226563 4055.517188 2535 4059.657813 2531.445313 4062.782813 C 2526.484375 4067.353125 2519.296875 4070.165625 2509.882813 4071.18125 L 2500.273438 4072.275 L 2501.171875 4080.165625 L 2743.632813 4053.485938 L 2734.179688 3967.821875 L 2726.09375 3968.720313 C 2724.257813 3990.126563 2720.078125 4005.751563 2713.632813 4015.7125 C 2707.148438 4025.634375 2697.304688 4033.525 2684.101563 4039.30625 C 2676.40625 4042.74375 2661.601563 4045.634375 2639.6875 4048.05625 Z M 2609.765625 4051.3375 " transform="matrix(0.1,0,0,-0.1,0,423.54)"/>
<path style=" stroke:none;fill-rule:nonzero;fill:rgb(100%,100%,100%);fill-opacity:1;" d="M 289.191406 21.003906 L 299.3125 41.738281 L 302.019531 29.515625 C 302.394531 27.808594 302.40625 26.601563 302.050781 25.894531 C 301.558594 24.933594 300.519531 24.296875 298.933594 23.972656 L 299.105469 23.195313 L 308.496094 25.277344 L 308.328125 26.050781 C 307.089844 25.941406 306.238281 25.960938 305.773438 26.113281 C 305.308594 26.265625 304.898438 26.59375 304.546875 27.09375 C 304.191406 27.597656 303.867188 28.515625 303.570313 29.859375 L 298.328125 53.53125 L 297.617188 53.371094 L 283.632813 25.445313 L 279.632813 43.519531 C 279.269531 45.152344 279.398438 46.34375 280.019531 47.078125 C 280.640625 47.816406 281.433594 48.292969 282.398438 48.507813 L 283.070313 48.65625 L 282.898438 49.429688 L 272.8125 47.199219 L 272.984375 46.425781 C 274.554688 46.757813 275.714844 46.675781 276.46875 46.183594 C 277.222656 45.691406 277.765625 44.6875 278.101563 43.179688 L 282.539063 23.117188 L 282.101563 22.226563 C 281.664063 21.339844 281.246094 20.726563 280.835938 20.386719 C 280.429688 20.046875 279.792969 19.765625 278.933594 19.546875 L 279.105469 18.769531 L 289.191406 21.003906 "/>
<path style="fill:none;stroke-width:11.0001;stroke-linecap:butt;stroke-linejoin:miter;stroke:rgb(0%,0%,0%);stroke-opacity:1;stroke-miterlimit:4;" d="M 2891.914063 4025.360938 L 2993.125 3818.017188 L 3020.195313 3940.24375 C 3023.945313 3957.314063 3024.0625 3969.384375 3020.507813 3976.454688 C 3015.585938 3986.064063 3005.195313 3992.43125 2989.335938 3995.673438 L 2991.054688 4003.446875 L 3084.960938 3982.626563 L 3083.28125 3974.892188 C 3070.898438 3975.985938 3062.382813 3975.790625 3057.734375 3974.267188 C 3053.085938 3972.74375 3048.984375 3969.4625 3045.46875 3964.4625 C 3041.914063 3959.423438 3038.671875 3950.24375 3035.703125 3936.80625 L 2983.28125 3700.0875 L 2976.171875 3701.689063 L 2836.328125 3980.946875 L 2796.328125 3800.204688 C 2792.695313 3783.876563 2793.984375 3771.9625 2800.195313 3764.61875 C 2806.40625 3757.235938 2814.335938 3752.470313 2823.984375 3750.321875 L 2830.703125 3748.8375 L 2828.984375 3741.103125 L 2728.125 3763.407813 L 2729.84375 3771.142188 C 2745.546875 3767.821875 2757.148438 3768.642188 2764.6875 3773.564063 C 2772.226563 3778.485938 2777.65625 3788.525 2781.015625 3803.603125 L 2825.390625 4004.228125 L 2821.015625 4013.134375 C 2816.640625 4022.001563 2812.460938 4028.134375 2808.359375 4031.532813 C 2804.296875 4034.93125 2797.929688 4037.74375 2789.335938 4039.93125 L 2791.054688 4047.704688 Z M 2891.914063 4025.360938 " transform="matrix(0.1,0,0,-0.1,0,423.54)"/>
<path style=" stroke:none;fill-rule:nonzero;fill:rgb(100%,100%,100%);fill-opacity:1;" d="M 335.675781 34.132813 L 333.226563 41.625 L 332.492188 41.386719 C 332.621094 39.515625 332.542969 38.117188 332.261719 37.1875 C 331.976563 36.257813 331.445313 35.417969 330.664063 34.664063 C 330.226563 34.253906 329.363281 33.835938 328.070313 33.410156 L 326.007813 32.738281 L 319.03125 54.09375 C 318.570313 55.507813 318.359375 56.417969 318.402344 56.824219 C 318.441406 57.226563 318.648438 57.636719 319.015625 58.050781 C 319.386719 58.46875 319.964844 58.800781 320.753906 59.058594 L 321.671875 59.359375 L 321.425781 60.117188 L 306.929688 55.382813 L 307.175781 54.625 L 308.097656 54.925781 C 308.898438 55.1875 309.59375 55.257813 310.175781 55.132813 C 310.589844 55.054688 310.976563 54.820313 311.332031 54.425781 C 311.589844 54.144531 311.945313 53.3125 312.398438 51.925781 L 319.371094 30.570313 L 317.371094 29.917969 C 315.507813 29.308594 314.023438 29.261719 312.921875 29.773438 C 311.378906 30.488281 310.117188 31.816406 309.136719 33.757813 L 308.359375 33.503906 L 310.808594 26.011719 L 335.675781 34.132813 "/>
<path style="fill:none;stroke-width:11.0001;stroke-linecap:butt;stroke-linejoin:miter;stroke:rgb(0%,0%,0%);stroke-opacity:1;stroke-miterlimit:4;" d="M 3356.757813 3894.071875 L 3332.265625 3819.15 L 3324.921875 3821.532813 C 3326.210938 3840.24375 3325.429688 3854.228125 3322.617188 3863.525 C 3319.765625 3872.821875 3314.453125 3881.220313 3306.640625 3888.759375 C 3302.265625 3892.860938 3293.632813 3897.040625 3280.703125 3901.298438 L 3260.078125 3908.017188 L 3190.3125 3694.4625 C 3185.703125 3680.321875 3183.59375 3671.220313 3184.023438 3667.157813 C 3184.414063 3663.134375 3186.484375 3659.032813 3190.15625 3654.892188 C 3193.867188 3650.7125 3199.648438 3647.392188 3207.539063 3644.814063 L 3216.71875 3641.80625 L 3214.257813 3634.228125 L 3069.296875 3681.571875 L 3071.757813 3689.15 L 3080.976563 3686.142188 C 3088.984375 3683.525 3095.9375 3682.821875 3101.757813 3684.071875 C 3105.898438 3684.853125 3109.765625 3687.196875 3113.320313 3691.142188 C 3115.898438 3693.954688 3119.453125 3702.275 3123.984375 3716.142188 L 3193.710938 3929.696875 L 3173.710938 3936.220313 C 3155.078125 3942.314063 3140.234375 3942.782813 3129.21875 3937.665625 C 3113.789063 3930.517188 3101.171875 3917.235938 3091.367188 3897.821875 L 3083.59375 3900.360938 L 3108.085938 3975.282813 Z M 3356.757813 3894.071875 " transform="matrix(0.1,0,0,-0.1,0,423.54)"/>
<path style=" stroke:none;fill-rule:nonzero;fill:rgb(100%,100%,100%);fill-opacity:1;" d="M 351.632813 41.867188 C 349.1875 40.808594 346.785156 41.25 344.429688 43.191406 C 342.5 44.792969 340.703125 47.511719 339.039063 51.351563 C 337.0625 55.910156 336.402344 59.628906 337.058594 62.507813 C 337.515625 64.515625 338.746094 65.957031 340.757813 66.828125 C 342.113281 67.414063 343.386719 67.578125 344.578125 67.3125 C 346.097656 66.972656 347.578125 66.019531 349.027344 64.453125 C 350.472656 62.886719 351.835938 60.617188 353.125 57.644531 C 354.660156 54.109375 355.476563 51.324219 355.582031 49.285156 C 355.6875 47.246094 355.386719 45.644531 354.679688 44.476563 C 353.976563 43.3125 352.960938 42.441406 351.632813 41.867188 Z M 351.941406 40.503906 C 356.269531 42.191406 359.191406 44.933594 360.703125 48.730469 C 362.222656 52.527344 362.117188 56.410156 360.398438 60.378906 C 358.925781 63.769531 356.640625 66.324219 353.539063 68.039063 C 349.425781 70.316406 344.972656 70.414063 340.175781 68.332031 C 335.367188 66.246094 332.351563 63.003906 331.140625 58.601563 C 330.179688 55.128906 330.464844 51.621094 332 48.085938 C 333.722656 44.117188 336.507813 41.394531 340.355469 39.917969 C 344.203125 38.441406 348.066406 38.636719 351.941406 40.503906 "/>
<path style="fill:none;stroke-width:11.0001;stroke-linecap:butt;stroke-linejoin:miter;stroke:rgb(0%,0%,0%);stroke-opacity:1;stroke-miterlimit:4;" d="M 3516.328125 3816.728125 C 3491.875 3827.314063 3467.851563 3822.9 3444.296875 3803.485938 C 3425 3787.470313 3407.03125 3760.282813 3390.390625 3721.884375 C 3370.625 3676.298438 3364.023438 3639.110938 3370.585938 3610.321875 C 3375.15625 3590.24375 3387.460938 3575.829688 3407.578125 3567.11875 C 3421.132813 3561.259375 3433.867188 3559.61875 3445.78125 3562.275 C 3460.976563 3565.673438 3475.78125 3575.204688 3490.273438 3590.86875 C 3504.726563 3606.532813 3518.359375 3629.228125 3531.25 3658.954688 C 3546.601563 3694.30625 3554.765625 3722.157813 3555.820313 3742.548438 C 3556.875 3762.939063 3553.867188 3778.954688 3546.796875 3790.634375 C 3539.765625 3802.275 3529.609375 3810.985938 3516.328125 3816.728125 Z M 3519.414063 3830.360938 C 3562.695313 3813.485938 3591.914063 3786.064063 3607.03125 3748.095313 C 3622.226563 3710.126563 3621.171875 3671.298438 3603.984375 3631.610938 C 3589.257813 3597.704688 3566.40625 3572.157813 3535.390625 3555.009375 C 3494.257813 3532.235938 3449.726563 3531.259375 3401.757813 3552.079688 C 3353.671875 3572.939063 3323.515625 3605.360938 3311.40625 3649.384375 C 3301.796875 3684.110938 3304.648438 3719.189063 3320 3754.540625 C 3337.226563 3794.228125 3365.078125 3821.454688 3403.554688 3836.220313 C 3442.03125 3850.985938 3480.664063 3849.032813 3519.414063 3830.360938 Z M 3519.414063 3830.360938 " transform="matrix(0.1,0,0,-0.1,0,423.54)"/>
</g>
</svg>
