<?xml version="1.0" encoding="UTF-8" standalone="no"?>
<!-- Created with Inkscape (http://www.inkscape.org/) -->

<svg
   xmlns:dc="http://purl.org/dc/elements/1.1/"
   xmlns:cc="http://creativecommons.org/ns#"
   xmlns:rdf="http://www.w3.org/1999/02/22-rdf-syntax-ns#"
   xmlns:svg="http://www.w3.org/2000/svg"
   xmlns="http://www.w3.org/2000/svg"
   xmlns:sodipodi="http://sodipodi.sourceforge.net/DTD/sodipodi-0.dtd"
   xmlns:inkscape="http://www.inkscape.org/namespaces/inkscape"
   id="svg2"
   version="1.1"
   inkscape:version="0.91 r13725"
   xml:space="preserve"
   width="600"
   height="700"
   viewBox="0 0 599.99999 700"
   sodipodi:docname="Logo Burnley FC.svg"><metadata
     id="metadata8"><rdf:RDF><cc:Work
         rdf:about=""><dc:format>image/svg+xml</dc:format><dc:type
           rdf:resource="http://purl.org/dc/dcmitype/StillImage" /><dc:title></dc:title></cc:Work></rdf:RDF></metadata><defs
     id="defs6"><linearGradient
       x1="0"
       y1="0"
       x2="1"
       y2="0"
       gradientUnits="userSpaceOnUse"
       gradientTransform="matrix(46.66381,-85.50977,85.50977,46.66381,305.879,148.6874)"
       spreadMethod="pad"
       id="linearGradient366"><stop
         style="stop-opacity:1;stop-color:#241d10"
         offset="0"
         id="stop368" /><stop
         style="stop-opacity:1;stop-color:#fff30d"
         offset="1"
         id="stop370" /></linearGradient><linearGradient
       x1="0"
       y1="0"
       x2="1"
       y2="0"
       gradientUnits="userSpaceOnUse"
       gradientTransform="matrix(-48.252062,-66.575362,-66.575362,48.252062,452.55425,695.32225)"
       spreadMethod="pad"
       id="linearGradient556"><stop
         style="stop-opacity:1;stop-color:#241d10"
         offset="0"
         id="stop558" /><stop
         style="stop-opacity:1;stop-color:#fff30d"
         offset="1"
         id="stop560" /></linearGradient></defs><sodipodi:namedview
     pagecolor="#ffffff"
     bordercolor="#666666"
     borderopacity="1"
     objecttolerance="10"
     gridtolerance="10"
     guidetolerance="10"
     inkscape:pageopacity="0"
     inkscape:pageshadow="2"
     inkscape:window-width="1440"
     inkscape:window-height="788"
     id="namedview4"
     showgrid="false"
     inkscape:zoom="0.53176208"
     inkscape:cx="423.1865"
     inkscape:cy="273.86083"
     inkscape:window-x="0"
     inkscape:window-y="1"
     inkscape:window-maximized="1"
     inkscape:current-layer="g10" /><g
     id="g10"
     inkscape:groupmode="layer"
     inkscape:label="comp-clarets-collection-full-leaflet"
     transform="matrix(1.25,0,0,-1.25,0,700.00003)"><g
       id="g564"><g
         id="g566"><g
           id="g572" /></g></g><g
       id="g5891"><g
         transform="matrix(6.3881343,0,0,6.3881343,-1918.6362,-295.92657)"
         id="g5390"><g
           id="g546"><g
             id="g548"><g
               id="g554"><path
                 style="fill:url(#linearGradient556);stroke:none"
                 d="m 375.42969,576.61133 0,44.24219 0,11.89257 c 0,12.11663 4.90665,23.79735 14.1914,33.77735 8.55163,9.2015 20.18888,16.15622 32.76563,19.58984 l 0.28711,0.0762 0.29687,-0.0391 c 3.43025,-0.49087 13.76586,-4.00266 23.78711,-11.70703 8.95625,-6.88838 20.09722,-19.14517 22.32422,-38.41992 l 0.004,-15.0586 0.006,-44.35351 z"
                 id="path562"
                 inkscape:connector-curvature="0"
                 sodipodi:nodetypes="ccsccccccccc"
                 transform="matrix(0.8,0,0,-0.8,0,595.276)" /></g></g></g><g
           id="g356"><g
             id="g358"><g
               id="g364"><path
                 inkscape:connector-curvature="0"
                 id="path372"
                 style="fill:url(#linearGradient366);stroke:none"
                 d="m 302.0176,131.6874 0,-42.4644 c 0,-9.3007 3.7651,-18.2249 10.883,-25.7965 6.4458,-6.8607 15.1489,-12.0449 24.5104,-14.6011 l 0.7026,-0.1606 0.7857,0.0776 0.036,0.0055 c 2.7581,0.3929 6.3323,1.9365 7.3614,2.4011 3.8093,1.7152 7.4112,3.8897 10.6949,6.4597 9.5191,7.4525 15.2539,17.492 16.5873,29.0277 l 0.0221,45.051" /></g></g></g><path
           inkscape:connector-curvature="0"
           id="path374"
           style="fill:#97d9f6;fill-opacity:1;fill-rule:evenodd;stroke:none"
           d="m 305.0394,128.7062 65.536,0 0,-41.7311 C 367.6126,61.3249 342.4301,52.3092 338.1699,51.7006 320.57,56.5058 305.0394,71.306 305.0394,89.224" /></g><g
         id="g5800"><g
           id="g5705"
           transform="matrix(6.3881343,0,0,6.3881343,-1918.6362,-295.92657)"><path
             d="m 337.287,127.7154 c 0,0 0.0719,-0.4814 0,-0.8439 -0.0719,-0.365 -0.1438,-0.4841 -0.1438,-0.4841 0,0 0.5283,0.2656 0.7939,0.3376 0.2656,0.0719 0.675,0.1465 0.8189,0.1936 0.1438,0.047 -0.841,-0.4121 -1.1785,-0.6031 -0.3375,-0.1937 -0.6999,-0.4121 -0.8438,-0.6279 -0.1438,-0.2185 -0.675,-0.9184 -0.675,-1.1592 0,-0.2434 0.2905,-0.5091 0.2407,-0.8685 -0.047,-0.3625 -0.1687,-0.5589 -0.2407,-0.6308 -0.0719,-0.072 -0.0968,0.0498 -0.1189,0.3623 -0.0249,0.3154 -0.0719,0.4345 -0.0719,0.4345 0,0 -0.1466,-0.1191 -0.2186,-0.2878 -0.0719,-0.1688 -0.0968,-0.3375 -0.3126,-0.6058 -0.2185,-0.2656 -0.4094,-0.4094 -0.4094,-0.4094 0,0 0.0719,1.137 0.3126,1.4245 0.2407,0.2906 0.3845,0.5312 0.3845,0.5312 0,0 0.2656,0.653 0.2435,1.0153 -0.0249,0.3623 0.1189,1.0872 0.3845,1.4247 0.2655,0.3375 0.8188,0.6999 1.0346,0.7968"
             style="fill:#fff30d;fill-opacity:1;fill-rule:evenodd;stroke:none"
             id="path474"
             inkscape:connector-curvature="0" /><path
             d="m 337.287,127.7154 -0.0553,-0.008 c 0,0 0.0304,-0.2102 0.0304,-0.4564 0,-0.1218 -0.005,-0.2545 -0.0304,-0.3679 -0.036,-0.1798 -0.0692,-0.2989 -0.0968,-0.3708 l -0.0305,-0.0774 -0.008,-0.0194 -0.0995,-0.1632 0.1715,0.0857 c 0,0 0.5311,0.2656 0.7829,0.3349 0.2628,0.0719 0.6696,0.1438 0.8217,0.1936 l 0.005,0.003 -0.008,0.036 0,-0.0387 0.008,0.003 -0.008,0.036 0,-0.0387 0,0.0552 -0.0221,-0.0498 0.0221,-0.005 0,0.0552 -0.0221,-0.0498 0.0221,0.0498 -0.0551,0 0.033,-0.0498 0.0221,0.0498 -0.0551,0 0.0523,0 -0.0385,0.0389 -0.0138,-0.0389 0.0523,0 -0.0385,0.0389 0.0221,-0.0194 -0.0167,0.0221 -0.005,-0.003 0.0221,-0.0194 -0.0167,0.0221 c -0.0637,-0.0416 -0.8825,-0.426 -1.1841,-0.6003 -0.3402,-0.1936 -0.7026,-0.4094 -0.8631,-0.6446 -0.0719,-0.1051 -0.2407,-0.3376 -0.3928,-0.5726 -0.1494,-0.2352 -0.285,-0.4648 -0.2905,-0.617 0.008,-0.2627 0.2518,-0.4952 0.2462,-0.7856 l -0.005,-0.0775 c -0.0443,-0.3512 -0.1632,-0.5366 -0.2241,-0.5947 l -0.008,-0.008 0.0111,-0.0167 0,0.0194 -0.0111,-0.003 0.0111,-0.0167 0,0.0194 0,-0.0304 0.0193,0.0249 -0.0193,0.005 0,-0.0304 0.0193,0.0249 0,-0.003 0,0.003 0,-0.003 0,0.003 c -0.0138,0.0194 -0.0332,0.1438 -0.047,0.3375 -0.0249,0.3181 -0.0747,0.4454 -0.0774,0.451 l -0.0277,0.0719 -0.0581,-0.0498 c -0.003,-0.003 -0.1549,-0.1273 -0.2352,-0.3098 -0.0746,-0.1799 -0.094,-0.332 -0.3043,-0.592 l 0.003,0 -0.003,0 c -0.1051,-0.13 -0.2074,-0.2297 -0.2794,-0.2989 -0.0746,-0.0692 -0.1189,-0.1023 -0.1189,-0.1023 l 0.0332,-0.0442 0.0553,-0.003 c 0,0 0.0194,0.2823 0.0664,0.5975 0.0443,0.3182 0.13,0.6751 0.2351,0.7941 0.2435,0.2931 0.3873,0.5393 0.3873,0.5393 l 0.003,0.003 0.003,0.006 c 0,0.003 0.2462,0.5973 0.2462,0.9847 l 0,0.0527 -0.003,0.0802 c -0.003,0.3679 0.1411,1.0152 0.3762,1.3084 l 0,-0.003 0,0.003 c 0.2518,0.3237 0.8078,0.6889 1.0125,0.7802 l -0.0221,0.0498 -0.0553,-0.008 0.0553,0.008 -0.0221,0.0497 c -0.2268,-0.1024 -0.7801,-0.462 -1.0568,-0.8132 l 0,0.003 c -0.26,-0.3348 -0.3983,-0.982 -0.4011,-1.3776 l 0.003,-0.0858 0.003,-0.0471 c 0,-0.1716 -0.0581,-0.4122 -0.1189,-0.603 -0.0609,-0.1936 -0.1218,-0.3404 -0.1218,-0.3404 l 0.0526,-0.0221 -0.047,0.0304 c 0,-0.003 -0.1411,-0.2379 -0.379,-0.5256 -0.1383,-0.1687 -0.2103,-0.5228 -0.26,-0.8492 -0.0499,-0.3209 -0.0665,-0.6058 -0.0665,-0.6086 l -0.008,-0.1189 0.0969,0.0719 c 0.003,0.003 0.1992,0.1493 0.4205,0.4204 0.2213,0.2712 0.2517,0.4564 0.3181,0.617 0.0332,0.0774 0.0858,0.1439 0.1273,0.1935 l 0.0747,0.0748 -0.0332,0.0416 -0.0526,-0.0195 c 0,0 0.008,-0.025 0.0249,-0.0913 0.0138,-0.0664 0.0304,-0.1716 0.0443,-0.3264 0.008,-0.1273 0.0193,-0.2241 0.0332,-0.2933 l 0.0276,-0.0885 0.0775,-0.0525 0.0747,0.036 c 0.0857,0.0858 0.2074,0.2877 0.2572,0.661 l 0.006,0.0914 c -0.003,0.3458 -0.2545,0.6002 -0.2462,0.7856 -0.003,0.0885 0.1245,0.3293 0.2738,0.5589 0.1494,0.2296 0.3182,0.4591 0.3901,0.5699 0.1328,0.199 0.4896,0.4177 0.8272,0.6085 0.1521,0.0886 0.4509,0.2379 0.7109,0.3652 0.13,0.0637 0.249,0.1217 0.3375,0.166 l 0.1051,0.0525 0.0305,0.0167 0.011,0.008 0.008,0.008 0.0164,0.0386 -0.0332,0.0527 -0.0221,0.005 -0.0304,-0.008 c -0.1356,-0.0442 -0.5478,-0.1188 -0.8161,-0.1908 -0.2766,-0.0774 -0.805,-0.3431 -0.805,-0.3431 l 0.0249,-0.0498 0.047,-0.0303 c 0.005,0.008 0.0774,0.1355 0.1521,0.5035 0.0249,0.1244 0.0332,0.2627 0.0332,0.39 0,0.2544 -0.0332,0.4702 -0.0332,0.4731 l -0.011,0.0719 -0.0664,-0.0305"
             style="fill:#0c2950;fill-opacity:1;fill-rule:nonzero;stroke:none"
             id="path476"
             inkscape:connector-curvature="0" /><path
             d="m 342.0572,117.6849 c 0.1438,0.0248 0.3126,0.0469 0.3126,0.0469 l -0.1688,0.2435 c 0,0 0.5533,-0.2904 0.628,-0.3154 0.0717,-0.0249 0.1437,0.0719 0.1437,0.0719 0,0 0.097,-0.0719 0.2159,-0.0968 0.1217,-0.0221 0.2435,0.1466 0.3624,0.2905 0.119,0.1465 0.2656,0.2904 0.0249,0.3375 -0.2434,0.0498 -0.3624,0.1217 -0.556,0.1937 -0.1909,0.0719 -0.2407,0.1713 -0.2407,0.1713 l 0.2905,0.0472 c 0,0 -0.747,0.5311 -0.9406,0.8437 -0.1909,0.3154 -0.6501,0.8466 -1.1564,1.2311 -0.5035,0.3873 -1.0097,0.7994 -1.444,0.8962 -0.4344,0.094 -0.6972,0.1688 -0.6972,0.1688 0,0 0.0222,0.9405 0.119,1.303 0.0968,0.3624 0.4592,1.2311 0.4592,1.4744 0,0.2408 0.047,0.6031 -0.2905,0.9407 -0.3375,0.3375 -0.6279,0.4592 -0.9875,0.4592 -0.3597,0 -0.7829,-0.249 -1.0458,-0.3708 -0.2655,-0.1188 -0.4232,-0.2794 -0.7137,-0.4233 -0.2877,-0.1465 -0.4067,-0.1881 -0.4814,-0.26 -0.0719,-0.0719 -0.0359,-0.0994 -0.0359,-0.0994 l 0.1051,-0.0306 c 0,0 0.3043,0.0969 0.5699,0.1439 0.2656,0.0498 0.4924,-0.13 0.805,-0.3237 0.3126,-0.1937 0.4371,-0.3512 0.4371,-0.7137 0,-0.3624 -0.3375,-1.0623 -0.5561,-1.4246 -0.2157,-0.3625 -0.5781,-0.7249 -0.65,-1.1093 -0.072,-0.3874 -0.1937,-0.7747 -0.1439,-1.1842 0.047,-0.4121 0.3126,-1.0152 0.6252,-1.3776 0,0 0.3292,-0.545 0.5754,-0.6806 0.249,-0.1354 0.8355,-0.0912 0.9932,-0.0912 0.1576,0 0.2462,-0.1798 0.675,-0.4039 0.4951,-0.3348 1.4496,-0.6058 1.5796,-0.4537 0.1798,0.0691 0.2683,0.2047 0.5615,0.2932 0.2933,0.0913 0.6253,0.2021 0.6253,0.2021"
             style="fill:#fff200;fill-opacity:1;fill-rule:evenodd;stroke:none"
             id="path478"
             inkscape:connector-curvature="0" /><path
             d="m 342.0572,117.6849 0.008,-0.0554 c 0.1436,0.0248 0.3126,0.0469 0.3126,0.0469 l 0.0885,0.0139 -0.2186,0.3154 -0.047,-0.0304 -0.0249,-0.0498 c 0.003,-0.003 0.5478,-0.2877 0.6335,-0.3181 l 0.0415,-0.008 c 0.1079,0.008 0.1605,0.0967 0.166,0.0994 l -0.0444,0.0333 -0.0331,-0.0442 c 0.003,-0.003 0.1024,-0.0775 0.238,-0.1052 l 0.0359,-0.005 c 0.1632,0.011 0.2656,0.1825 0.3818,0.3125 0.0689,0.0913 0.1577,0.1687 0.166,0.2766 0,0.0831 -0.0747,0.1356 -0.1743,0.1521 -0.2352,0.0471 -0.3486,0.1164 -0.5478,0.191 -0.0885,0.0332 -0.1438,0.0719 -0.1743,0.0996 l -0.0304,0.036 -0.005,0.005 -0.0498,-0.0223 0.0111,-0.0552 0.2877,0.047 0.1328,0.0221 -0.1107,0.0775 c 0,0 -0.1826,0.1329 -0.3928,0.3043 -0.2075,0.1688 -0.4427,0.3817 -0.5312,0.5256 -0.1964,0.321 -0.6556,0.8549 -1.1702,1.2449 l 0,0.003 0.003,-0.003 c -0.5063,0.3873 -1.0125,0.8022 -1.4662,0.9047 -0.4343,0.0967 -0.6971,0.1687 -0.6971,0.1687 l -0.0139,-0.0526 0.0554,-0.003 c -0.003,0 0.0248,0.9433 0.1189,1.292 0.0443,0.1769 0.1605,0.4841 0.2628,0.7774 0.1024,0.296 0.1937,0.567 0.1964,0.7108 0,0.0498 0,0.1108 0,0.1744 0.003,0.2295 -0.0304,0.5284 -0.307,0.8049 -0.3403,0.3458 -0.6529,0.4787 -1.0263,0.4758 -0.3846,0 -0.8078,-0.2571 -1.0679,-0.3762 l -0.003,0 0.003,0 c -0.2766,-0.1244 -0.4343,-0.2848 -0.7165,-0.4232 -0.2849,-0.1466 -0.4039,-0.1826 -0.4952,-0.271 l -0.0608,-0.1162 0.0304,-0.0665 0.008,-0.005 0.1162,-0.0333 0.0166,-0.006 0.0138,0.006 c 0.003,0 0.3043,0.0967 0.5644,0.1411 l 0.0774,0.008 c 0.1992,0.003 0.4067,-0.1494 0.6861,-0.3237 0.307,-0.1963 0.4067,-0.3181 0.4094,-0.6667 0.003,-0.3347 -0.3292,-1.0401 -0.545,-1.3971 -0.2102,-0.3541 -0.5781,-0.7164 -0.6584,-1.1286 -0.0581,-0.3209 -0.1549,-0.6502 -0.1549,-0.9987 0,-0.0663 0.003,-0.1327 0.0111,-0.2019 l 0,0.003 0,-0.003 c 0.0498,-0.426 0.3181,-1.0319 0.639,-1.4053 l 0.0415,0.0359 -0.047,-0.0277 c 0.005,-0.003 0.3237,-0.545 0.5975,-0.6999 0.1688,-0.0914 0.4426,-0.1051 0.6723,-0.1051 0.1521,0 0.2849,0.005 0.3458,0.005 0.1078,0.0139 0.2157,-0.166 0.6501,-0.3983 l 0.0249,0.0498 -0.0305,-0.0471 c 0.4094,-0.2766 1.1011,-0.5035 1.4469,-0.5062 0.0857,0.003 0.1547,0.011 0.2047,0.0637 l -0.0415,0.0359 0.0193,-0.0526 c 0.1992,0.0803 0.2794,0.2075 0.5588,0.2932 0.2933,0.0914 0.6253,0.202 0.6253,0.202 l -0.0166,0.0527 0.008,-0.0554 -0.008,0.0554 -0.0166,0.0525 c -0.003,0 -0.332,-0.1108 -0.6253,-0.202 l 0,0.003 c -0.307,-0.0967 -0.4038,-0.2379 -0.5643,-0.296 l -0.0138,-0.005 -0.0113,-0.011 c 0,-0.006 -0.044,-0.025 -0.1187,-0.025 -0.3043,0 -1.0015,0.2269 -1.386,0.487 l -0.003,0.003 -0.003,0.003 c -0.4204,0.2158 -0.4925,0.3983 -0.6998,0.4122 -0.0664,0 -0.1965,-0.008 -0.3458,-0.008 -0.2214,0 -0.4925,0.0193 -0.6197,0.0912 -0.1079,0.0581 -0.2518,0.2241 -0.3624,0.3764 -0.1107,0.1492 -0.1909,0.2821 -0.1909,0.2848 l -0.003,0.003 -0.003,0.003 c -0.3071,0.3513 -0.5699,0.9543 -0.6142,1.3472 l -0.0111,0.1881 c 0,0.3293 0.0941,0.6501 0.155,0.9793 0.0636,0.3597 0.4205,0.722 0.6445,1.0928 0.2186,0.3706 0.5589,1.0622 0.5616,1.4523 0.003,0.3762 -0.1438,0.5698 -0.4647,0.7608 -0.2739,0.1687 -0.4869,0.3375 -0.7442,0.3402 l -0.0968,-0.008 c -0.2711,-0.0498 -0.5754,-0.1465 -0.5782,-0.1465 l 0.0166,-0.0527 0.0166,0.0527 -0.1051,0.0304 -0.0166,-0.0525 0.0359,0.0442 -0.0165,-0.0221 0.0276,0 -0.0111,0.0221 -0.0165,-0.0221 0.0276,0 0.003,0.005 0.0276,0.0333 c 0.0526,0.058 0.1743,0.1023 0.4676,0.249 l -0.003,0 c 0.2988,0.1466 0.4565,0.307 0.711,0.4231 0.2683,0.1247 0.686,0.3653 1.0236,0.3653 0.3485,-0.003 0.6168,-0.1106 0.9488,-0.4426 0.249,-0.2518 0.2739,-0.5064 0.2739,-0.7276 l -0.003,-0.1744 c 0.003,-0.0994 -0.0857,-0.3844 -0.1881,-0.6749 -0.1023,-0.2906 -0.2158,-0.5975 -0.2656,-0.7856 -0.0996,-0.3764 -0.1217,-1.3142 -0.1245,-1.3169 l 0,-0.0442 0.0415,-0.0111 c 0,0 0.2656,-0.072 0.7027,-0.1687 0.4122,-0.0914 0.9184,-0.4952 1.4219,-0.8853 0.5007,-0.3791 0.9545,-0.9102 1.1426,-1.2145 l 0,-0.003 0,0.003 c 0.2102,-0.3347 0.9516,-0.8576 0.9544,-0.8632 l 0.0332,0.0472 -0.0111,0.0553 -0.2877,-0.0498 -0.0747,-0.0111 0.0332,-0.0664 c 0.005,-0.0111 0.0664,-0.1217 0.2711,-0.1992 0.1881,-0.0691 0.3154,-0.1439 0.5643,-0.1937 0.0886,-0.0221 0.0858,-0.0387 0.0858,-0.0442 0.005,-0.0221 -0.0664,-0.1189 -0.1411,-0.2047 -0.1106,-0.1411 -0.2351,-0.2821 -0.296,-0.2711 l -0.0138,0 -0.1356,0.0527 -0.0553,0.033 -0.047,0.0333 -0.0332,-0.0442 -0.0279,-0.0277 -0.0496,-0.025 -0.005,0 -0.0166,-0.0525 0.0166,0.0525 c -0.0249,0.008 -0.1881,0.0886 -0.332,0.1633 -0.1466,0.0746 -0.2849,0.1465 -0.2849,0.1494 l -0.072,-0.0831 0.1688,-0.2406 0.0443,0.0304 -0.008,0.0554 c 0,0 -0.1688,-0.0221 -0.3126,-0.0471 l -0.006,0 -0.003,-0.003"
             style="fill:#0c2950;fill-opacity:1;fill-rule:nonzero;stroke:none"
             id="path480"
             inkscape:connector-curvature="0" /><path
             d="m 336.9315,125.6091 c -0.2932,-0.1385 -0.3734,-0.2104 -0.6916,-0.3764 -0.3181,-0.166 -0.5173,-0.3818 -0.6058,-0.4564 -0.1051,-0.0885 -0.1107,-0.1689 -0.1107,-0.1689 l 0.1024,0.0472 c 0,0 0.5062,0.1161 0.7967,0.1715 0.2905,0.0554 0.5284,-0.0165 0.8742,-0.2352 0,0 -0.2739,0.4758 -0.3209,0.722 -0.047,0.249 -0.0443,0.2962 -0.0443,0.2962"
             style="fill:#630530;fill-opacity:1;fill-rule:evenodd;stroke:none"
             id="path482"
             inkscape:connector-curvature="0" /><path
             d="m 338.1192,121.1697 c 0,-0.003 0.0221,-0.8604 0.2822,-1.339 0.0359,-0.0665 0.0802,-0.1328 0.13,-0.2019 0.0498,-0.0692 0.1079,-0.1356 0.166,-0.2019 0.307,-0.3458 0.7137,-0.6503 0.9599,-0.7276 0.0747,-0.0221 0.1355,-0.0415 0.1881,-0.0554 l -0.0581,0.0719 0.1301,0.1218 c 0,0 0.2268,-0.2075 0.4509,-0.2462 l 0.0387,-0.008 -0.1079,0.1632 -0.003,0.003 0.1521,0.0968 0.003,-0.003 0.003,-0.008 0.0194,-0.0275 c 0.0581,-0.0858 0.2186,-0.3044 0.3043,-0.2518 0.1604,0.0995 0.1936,0.1714 0.1936,0.1714 l 0.155,-0.0912 c 0,0 -0.0526,-0.1079 -0.2545,-0.2323 l -0.1079,-0.0333 0.0276,-0.0415 -0.2075,0.0388 -0.2489,0.0443 -0.0802,0.0221 0.0193,-0.0221 -0.1936,0 c 0,0 -0.1024,0 -0.4786,0.1161 -0.2711,0.0858 -0.711,0.4122 -1.0374,0.7774 -0.0637,0.0719 -0.1245,0.1466 -0.1771,0.2185 -0.0553,0.0746 -0.1023,0.1466 -0.1438,0.2214 l 0,0.003 c -0.2794,0.5146 -0.3043,1.4164 -0.3043,1.4191"
             style="fill:#0c2950;fill-opacity:1;fill-rule:nonzero;stroke:none"
             id="path484"
             inkscape:connector-curvature="0" /><path
             d="m 337.7141,125.5753 c 0,0 0.1136,0.0912 0.249,0.0912 0.1328,0 0.3376,-0.0912 0.3376,-0.0912 0,0 -0.1134,-0.1135 -0.2489,-0.1356 -0.1358,-0.0221 -0.3377,0.1356 -0.3377,0.1356"
             style="fill:#0c2950;fill-opacity:1;fill-rule:evenodd;stroke:none"
             id="path486"
             inkscape:connector-curvature="0" /><path
             d="m 337.6605,118.1745 c 0,0 0.2988,-0.2573 0.4094,-0.4621 0.1079,-0.2074 0.3154,-0.5366 0.3375,-0.6197 0.0249,-0.0858 0.036,-0.1244 -0.0359,-0.1244 -0.072,0.003 -0.3265,0.025 -0.6668,0.0746 -0.3402,0.0498 -0.8354,0.3652 -0.9322,0.4483 -0.0968,0.0858 -0.415,0.2683 -0.6695,0.2931 -0.2545,0.025 -0.4233,0.025 -0.4233,0.025 0,0 0.6308,-0.6806 0.7885,-0.816 0.1577,-0.1329 0.5588,-0.4871 0.9101,-0.6447 0.3513,-0.1577 0.7137,-0.498 1.1619,-0.5589 0.4509,-0.0608 0.4981,-0.0968 0.6695,0.0858 0.1687,0.1828 0.3375,0.4622 0.3375,0.4622 0,0 0.0636,-0.0611 0.0498,-0.3654 -0.0109,-0.3041 -0.2186,-0.8022 -0.2684,-0.9376 -0.047,-0.133 -0.3622,-0.8384 -0.4232,-0.985 -0.0607,-0.1439 -0.1577,-0.2435 -0.1577,-0.2435 0,0 0.0498,-0.0828 0.2296,-0.0828 l 0.4371,0 c 0.2683,0 0.3651,0.0607 0.3651,0.0607 0,0 -0.0496,0.2186 0.072,0.5728 0.1217,0.3512 0.7635,1.1645 0.899,1.2503 0.1301,0.0857 0.4952,0.3762 0.4952,0.426 0,0.047 -0.0719,0.2434 -0.1079,0.4371 -0.0385,0.1964 -0.1355,0.6695 -0.1355,0.6695 0,0 0.0691,0.0581 -0.332,0.0802 -0.4011,0.0248 -0.5035,0.0885 -1.0208,0.3072 -0.8382,0.5754 -0.9959,0.5808 -0.9959,0.5808 0,0 -0.3319,-0.0192 -0.4647,-0.008 -0.1356,0.0112 -0.5284,0.0748 -0.5284,0.0748"
             style="fill:#630530;fill-opacity:1;fill-rule:evenodd;stroke:none"
             id="path488"
             inkscape:connector-curvature="0" /><path
             d="m 336.6179,117.1317 c 0.1854,-0.5838 -0.3679,-1.2837 -1.2421,-1.5603 -0.8714,-0.2794 -1.7263,-0.0305 -1.9116,0.556 -0.1854,0.5866 0.3707,1.2836 1.2421,1.5603 0.8714,0.2793 1.7263,0.0304 1.9116,-0.556"
             style="fill:#fff30d;fill-opacity:1;fill-rule:evenodd;stroke:none"
             id="path490"
             inkscape:connector-curvature="0" /><path
             d="m 336.6179,117.1317 -0.0526,-0.0167 c 0.0222,-0.0719 0.0332,-0.1439 0.0332,-0.2158 0.003,-0.4896 -0.4952,-1.0401 -1.2393,-1.2753 -0.2352,-0.0747 -0.4703,-0.1106 -0.6889,-0.1106 -0.5754,0 -1.0318,0.2407 -1.1535,0.6307 -0.0222,0.0692 -0.0332,0.1411 -0.0332,0.2158 -0.003,0.4896 0.4952,1.0402 1.2393,1.2752 0.2352,0.0749 0.4703,0.1108 0.6888,0.1108 0.5755,0 1.0319,-0.2408 1.1536,-0.6308 l 0.0526,0.0167 0.0526,0.0166 c -0.1467,0.4564 -0.6584,0.7108 -1.2588,0.7108 -0.2296,0 -0.4758,-0.0387 -0.7247,-0.1161 -0.7719,-0.2489 -1.3113,-0.8188 -1.3141,-1.3832 0,-0.0858 0.0111,-0.1687 0.0388,-0.249 0.1466,-0.4564 0.6556,-0.7109 1.2586,-0.7109 0.2297,0 0.4759,0.0387 0.7221,0.1162 0.7746,0.2489 1.314,0.8188 1.3168,1.3831 0,0.0831 -0.0111,0.1689 -0.0387,0.2491"
             style="fill:#0c2950;fill-opacity:1;fill-rule:nonzero;stroke:none"
             id="path492"
             inkscape:connector-curvature="0" /><path
             transform="matrix(0.8,0,0,-0.8,0,595.276)"
             id="path494"
             d="m 420.83594,600.70898 c 0,0 -0.15891,1.31113 -0.26953,1.42188 -0.10713,0.11062 -0.47071,0.23437 -0.47071,0.23437 l -1.96093,-1.04101 -1.45508,1.35547 c 0,0 -1.58008,-0.92946 -1.58008,-1.03321 0,-0.10037 -0.17364,1.02757 -0.32227,1.17969 -0.0186,0.0186 -0.0596,0.0314 -0.0898,0.0469 l -3.0957,0 c -1.00625,0 -1.82227,0.81837 -1.82227,1.82812 0,1.00625 0.81602,1.82617 1.82227,1.82617 l 0,0.0137 16.06054,0 c -0.8814,0.0163 -1.09259,-0.74782 -1.86718,-0.96875 -0.22138,-0.7605 -1.33241,-1.00968 -1.84766,-1.66993 -0.22475,-0.657 0.81288,-0.45335 1.32812,-0.60546 0.18025,-0.019 0.3524,-0.028 0.51563,-0.0293 2.44844,-0.02 3.08453,1.85113 4.95508,2.6582 l 0,0.55664 c -1.62525,-0.35275 -2.14336,-1.16179 -3.47461,-1.66992 -1.10663,0.80912 0.8125,0.96117 0.8125,1.66992 -0.15689,0.038 -0.29596,0.0563 -0.42188,0.0586 l 6.10547,0 c 1.00638,0 1.82227,-0.81838 1.82227,-1.82813 0,-1.00625 -0.81589,-1.82617 -1.82227,-1.82617 l 0,-0.0137 -2.88672,0 c -0.38328,-0.34721 -0.86328,-1.13672 -0.86328,-1.13672 l -0.34375,0.31445 c 0,0 -0.61426,0.2667 -1.11914,0.0801 -0.50162,-0.1905 -1.02148,-1.04102 -1.02148,-1.04102 l -2.17383,0.69532 -0.4707,-0.8711 -0.89844,0.79102 -0.26758,-0.42774 -0.51758,0.42774 -0.16211,-0.92383 c 0,0 -0.74537,1.02483 -0.89062,1.17383 -0.15225,0.15212 -1.30664,-1.2461 -1.30664,-1.2461 z m -2.86719,2.29688 c 0.4448,-0.0251 0.91402,0.0378 1.29102,0.0879 1.49362,0.70912 2.55598,1.77172 3.36523,2.93359 l 0,0.45313 c -0.9335,0.0521 -1.43152,-1.05792 -2.24414,-0.4043 l 0.24805,0.30274 c -1.18275,0.25237 -1.68322,-0.90833 -2.4961,-1.36133 -0.18675,-0.60863 -1.31054,-0.80931 -1.31054,-1.57031 0.28181,-0.30257 0.70168,-0.41633 1.14648,-0.44141 z m -5.23242,0.49023 c 1.18393,0.0485 1.24337,1.20803 2.1875,1.51953 0.15212,0.505 1.53887,0.85711 0.84375,1.36524 -1.767,0.15212 -1.45935,-1.81955 -3.07422,-1.01367 -0.23163,0.45625 0.38366,0.45745 0.69141,0.6582 l 0,0.25195 c -0.92325,0.408 -1.15404,-0.4525 -1.76954,-0.65625 -0.22825,-0.80925 -0.22868,-1.41526 0.53907,-2.07226 0.22087,-0.0441 0.41289,-0.0597 0.58203,-0.0527 z m 20.25586,0.0527 c 0.0346,-0.008 0.0724,-0.006 0.11133,0.002 0.25973,0.0563 0.59242,0.43586 0.6875,0.65625 l 0,0.45313 c -0.50838,0.2525 -0.80902,-0.35332 -1.00977,-0.75782 0.0282,-0.22763 0.10719,-0.33052 0.21094,-0.35351 z"
             style="fill:#630530;fill-opacity:1;fill-rule:nonzero;stroke:none"
             inkscape:connector-curvature="0" /></g><g
           id="g5763"><g
             transform="matrix(6.3881343,0,0,6.3881343,-1918.6362,-295.92657)"
             id="g5486"><path
               inkscape:connector-curvature="0"
               id="path406"
               style="fill:#06121e;fill-opacity:1;fill-rule:evenodd;stroke:none"
               d="m 310.6854,83.9549 c 0,0 -0.3127,1.9363 0,2.7773 0.3153,0.8354 1.4109,2.0416 2.4039,2.0416 0.9904,0 2.2436,-1.3113 2.4538,-2.0942 0.2075,-0.7884 -0.1576,-1.8867 -0.2102,-2.7774 -0.0498,-0.8881 0.0526,-2.357 0.0526,-2.357 l -4.3848,1.101" /><path
               inkscape:connector-curvature="0"
               id="path408"
               style="fill:#fab41d;fill-opacity:1;fill-rule:nonzero;stroke:none"
               d="m 310.9384,86.6371 c -0.2766,-0.7414 -0.008,-2.4925 0.0139,-2.6309 l 0.2711,-1.1371 3.8703,-0.9709 c -0.0278,0.498 -0.0665,1.3943 -0.0305,2.0195 0.0194,0.3264 0.0775,0.6667 0.1356,1.0125 0.0995,0.6059 0.2047,1.22 0.0829,1.6737 l 0,0.0055 c -0.1356,0.509 -0.7718,1.267 -1.4579,1.6599 -0.1328,0.0745 -0.2628,0.1326 -0.3872,0.1742 -0.1218,0.0388 -0.2379,0.0581 -0.3458,0.0581 l -0.003,0 c -0.6197,0 -1.3085,-0.5698 -1.7567,-1.1757 -0.0885,-0.1189 -0.1688,-0.2407 -0.2351,-0.3569 -0.0637,-0.1163 -0.119,-0.2268 -0.1578,-0.3319 m -0.52,-2.7222 c 0,0.0056 -0.3237,2.0057 0.0139,2.9103 l 0,0.0028 c 0.0497,0.13 0.1161,0.2655 0.1935,0.4065 0.0775,0.1357 0.1688,0.2768 0.2712,0.4123 0.5339,0.7193 1.3832,1.397 2.191,1.397 l 0.003,0 c 0.1659,0 0.3374,-0.0331 0.509,-0.0857 0.1631,-0.0526 0.3291,-0.1273 0.4896,-0.2186 0.7995,-0.4564 1.5492,-1.3693 1.7152,-1.9918 l 0,-0.0055 c 0.1494,-0.5671 0.0359,-1.2393 -0.0747,-1.9005 -0.0553,-0.332 -0.1106,-0.6612 -0.1273,-0.9544 -0.0498,-0.8714 0.0526,-2.3183 0.0526,-2.3238 l 0.0276,-0.3707 -0.3623,0.0911 -4.3875,1.0985 -0.1577,0.0415 -0.0388,0.1604 -0.3126,1.3085" /><path
               inkscape:connector-curvature="0"
               id="path410"
               style="fill:#06121e;fill-opacity:1;fill-rule:evenodd;stroke:none"
               d="m 315.438,85.0018 c 0,0 -1.776,0.0526 -2.4012,-0.5754 -0.628,-0.6282 -0.9932,-0.9959 -0.888,-1.4136 0.1051,-0.4205 1.2006,-0.5258 1.6709,-0.628 0.4703,-0.1051 1.5658,-0.1577 1.5658,-0.1577 0,0 -0.0526,1.3085 -0.0526,1.8839 0,0.5782 0.1051,0.8908 0.1051,0.8908" /><path
               inkscape:connector-curvature="0"
               id="path412"
               style="fill:#fab41d;fill-opacity:1;fill-rule:nonzero;stroke:none"
               d="m 312.8459,84.6185 c 0.7082,0.7108 2.5949,0.6527 2.6005,0.6527 l 0.3623,-0.0109 -0.1134,-0.3432 c 0,0 -0.0913,-0.2684 -0.0913,-0.8051 0,-0.592 0.0498,-1.87 0.0526,-1.8756 l 0.011,-0.2932 -0.2932,0.0138 c -0.003,0 -1.1204,0.0526 -1.6128,0.1632 -0.0637,0.0139 -0.177,0.0332 -0.3044,0.0581 -0.5975,0.1052 -1.4412,0.2575 -1.5712,0.7663 l 0,0.003 c -0.0748,0.2958 0.008,0.5615 0.2102,0.8491 0.1743,0.2434 0.426,0.5007 0.7497,0.8218 z m 2.2601,0.1105 c -0.5117,-0.0139 -1.4855,-0.0996 -1.8783,-0.4952 -0.3071,-0.3043 -0.5477,-0.5478 -0.6889,-0.7497 -0.1106,-0.1548 -0.1576,-0.2848 -0.13,-0.4065 0.0443,-0.1689 0.6861,-0.2851 1.1425,-0.3679 0.1107,-0.0196 0.2131,-0.036 0.3264,-0.0611 0.2988,-0.0664 0.8771,-0.1106 1.2283,-0.1355 -0.0166,0.426 -0.0442,1.2034 -0.0442,1.5989 0,0.2518 0.0221,0.4593 0.0442,0.617" /><path
               inkscape:connector-curvature="0"
               id="path414"
               style="fill:#06121e;fill-opacity:1;fill-rule:evenodd;stroke:none"
               d="m 311.4693,77.8806 c 0,0 -1.0429,2.0416 -1.148,3.5603 -0.1052,1.5188 0.2601,2.9324 0.2601,2.9324 0,0 1.2531,-1.2034 2.0886,-1.5687 0.8354,-0.368 4.2823,-0.8381 4.8577,-1.0485 0.5755,-0.2102 1.9309,-0.9959 2.036,-1.7816 0.1053,-0.7856 -0.1549,-3.1426 -0.4177,-3.5603 -0.26,-0.4203 -0.6778,-0.6804 -0.6778,-0.6804 l -6.8938,1.3609" /><path
               inkscape:connector-curvature="0"
               id="path416"
               style="fill:#fab41d;fill-opacity:1;fill-rule:nonzero;stroke:none"
               d="m 310.5899,81.4594 c 0.0996,-1.4636 1.1149,-3.4497 1.1177,-3.4552 l 0.0303,-0.0885 0.0776,-0.5922 6.5922,-1.3028 c 0.1217,0.0911 0.3486,0.2792 0.509,0.5367 0.166,0.2655 0.3375,1.5075 0.3873,2.4759 0.0111,0.1936 0.0166,0.3705 0.0139,0.5256 0,0.1492 -0.008,0.2792 -0.0194,0.3788 l 0,0.003 c -0.0636,0.459 -0.722,0.9599 -1.2808,1.2806 -0.1079,0.0611 -0.2186,0.1164 -0.3237,0.169 -0.0996,0.0468 -0.1881,0.0857 -0.2573,0.1104 -0.2185,0.0803 -0.9322,0.2103 -1.7483,0.3571 -1.1923,0.2128 -2.5976,0.4675 -3.1206,0.6942 l -0.005,0.0029 c -0.5919,0.2601 -1.3693,0.9074 -1.8147,1.3002 -0.0968,-0.523 -0.2241,-1.4387 -0.1577,-2.3957 m 0.6196,-3.6601 c -0.1521,0.3072 -1.0595,2.1801 -1.159,3.6242 -0.1079,1.5628 0.2683,3.0126 0.2683,3.0153 l 0.1135,0.4537 0.3374,-0.3237 c 0.003,-0.0027 1.2117,-1.1674 2.0029,-1.5159 l 0.003,0 0.003,-0.003 c 0.4648,-0.2019 1.8397,-0.4507 3.0071,-0.661 0.841,-0.1523 1.5768,-0.2849 1.8342,-0.379 l 0.003,0 c 0.0912,-0.0359 0.1964,-0.0776 0.3043,-0.13 0.1079,-0.0526 0.2268,-0.1162 0.3568,-0.191 0.6695,-0.3789 1.4579,-1.0098 1.5492,-1.6792 l 0,-0.0026 c 0.0139,-0.1192 0.0222,-0.2713 0.0249,-0.4454 0,-0.1717 -0.003,-0.3598 -0.0138,-0.5561 -0.0526,-1.0348 -0.2601,-2.3985 -0.4675,-2.7359 -0.296,-0.4703 -0.7636,-0.7663 -0.7663,-0.7663 l -0.0913,-0.0554 -0.1024,0.0194 -6.8938,1.3611 -0.1909,0.0387 -0.0249,0.1936" /><path
               inkscape:connector-curvature="0"
               id="path418"
               style="fill:#06121e;fill-opacity:1;fill-rule:evenodd;stroke:none"
               d="m 365.3859,83.8179 c 0,0 0.3155,1.9393 0,2.7773 -0.3125,0.8383 -1.408,2.0416 -2.4011,2.0416 -0.9905,0 -2.2465,-1.3112 -2.454,-2.094 -0.2102,-0.7856 0.1551,-1.8868 0.2075,-2.7776 0.0526,-0.888 -0.0524,-2.3542 -0.0524,-2.3542 l 4.3875,1.0983" /><path
               inkscape:connector-curvature="0"
               id="path420"
               style="fill:#fab41d;fill-opacity:1;fill-rule:nonzero;stroke:none"
               d="m 365.6395,86.6891 c 0.3375,-0.9046 0.0139,-2.9075 0.0139,-2.913 l -0.003,-0.0195 -0.3099,-1.289 c -0.0166,-0.1025 -0.0914,-0.1937 -0.2019,-0.2213 l -4.3875,-1.0984 -0.0832,-0.0082 c -0.1492,0.0111 -0.2627,0.1411 -0.2518,0.2877 0,0.0056 0.1054,1.4524 0.0528,2.3238 -0.0168,0.2931 -0.072,0.6224 -0.1274,0.9544 -0.1105,0.6584 -0.2214,1.3277 -0.0746,1.8948 l 0.003,0.0113 c 0.166,0.6224 0.9131,1.5353 1.7152,1.9916 0.1578,0.0915 0.3237,0.166 0.4896,0.2187 0.169,0.0552 0.3403,0.0856 0.5092,0.0856 0.8104,0 1.6571,-0.6778 2.191,-1.3969 0.1022,-0.1355 0.1937,-0.2766 0.271,-0.4123 0.0774,-0.1409 0.1438,-0.2792 0.1936,-0.4065 l 0,-0.0028 z M 365.1224,83.87 c 0.0247,0.1551 0.2877,1.8924 0.0136,2.6308 l -0.003,0 c -0.0385,0.1026 -0.0912,0.2158 -0.1576,0.3294 -0.0662,0.119 -0.1439,0.2405 -0.235,0.3596 -0.4483,0.6059 -1.1344,1.1756 -1.7567,1.1756 l 0,0.0029 c -0.1108,0 -0.227,-0.0249 -0.3487,-0.0608 -0.1245,-0.0417 -0.2545,-0.0998 -0.3843,-0.1743 -0.6891,-0.393 -1.3253,-1.1536 -1.4609,-1.6599 l -0.003,-0.011 c -0.1162,-0.4537 -0.0138,-1.0679 0.0884,-1.6683 0.0555,-0.3458 0.1135,-0.6861 0.1329,-1.0124 0.036,-0.6252 -0.003,-1.5215 -0.0306,-2.0194 l 3.8732,0.9708" /><path
               inkscape:connector-curvature="0"
               id="path422"
               style="fill:#06121e;fill-opacity:1;fill-rule:evenodd;stroke:none"
               d="m 360.6353,84.8668 c 0,0 1.7758,0.0525 2.401,-0.5755 0.628,-0.6281 0.9933,-0.996 0.888,-1.4163 -0.1023,-0.4178 -1.2004,-0.5231 -1.6709,-0.628 -0.4703,-0.1053 -1.5657,-0.1551 -1.5657,-0.1551 0,0 0.0525,1.3087 0.0525,1.8841 0,0.5754 -0.1049,0.8908 -0.1049,0.8908" /><path
               inkscape:connector-curvature="0"
               id="path424"
               style="fill:#fab41d;fill-opacity:1;fill-rule:nonzero;stroke:none"
               d="m 362.8456,84.0996 c -0.3956,0.3954 -1.3666,0.4784 -1.8784,0.495 0.0221,-0.1604 0.0415,-0.3679 0.0415,-0.6167 0,-0.3958 -0.0251,-1.1732 -0.0415,-1.5992 0.3514,0.0222 0.9321,0.0664 1.2281,0.1328 0.1135,0.0251 0.2158,0.0443 0.3266,0.0636 0.4565,0.0803 1.0981,0.1965 1.1424,0.3654 l 0,0.0026 c 0.0277,0.1191 -0.0192,0.2491 -0.13,0.4066 -0.1439,0.2047 -0.3844,0.4454 -0.6859,0.7499 l -0.003,0 z m -2.2186,1.0374 c 0.005,0 1.8894,0.0552 2.6004,-0.653 0.3237,-0.3263 0.5781,-0.5838 0.7497,-0.8244 0.2019,-0.2876 0.2847,-0.5531 0.2102,-0.8491 l 0,-0.003 c -0.13,-0.5088 -0.9737,-0.6612 -1.5713,-0.7663 -0.1273,-0.0221 -0.2408,-0.0442 -0.3043,-0.0581 -0.4952,-0.1079 -1.6074,-0.1632 -1.6128,-0.1632 -0.1468,-0.0055 -0.2739,0.1079 -0.2824,0.2573 l 0,0.0332 c 0.006,0.1051 0.0528,1.3002 0.0528,1.8675 0,0.5337 -0.0887,0.8021 -0.0915,0.8048 -0.0468,0.1411 0.0304,0.2933 0.1717,0.3405" /><path
               inkscape:connector-curvature="0"
               id="path426"
               style="fill:#06121e;fill-opacity:1;fill-rule:evenodd;stroke:none"
               d="m 364.603,77.7443 c 0,0 1.0459,2.0414 1.1508,3.5604 0.1023,1.5187 -0.2627,2.9324 -0.2627,2.9324 0,0 -1.2531,-1.2034 -2.0886,-1.5714 -0.8354,-0.3653 -4.2825,-0.8354 -4.8579,-1.0458 -0.5727,-0.2103 -1.931,-0.9959 -2.0359,-1.7816 -0.1024,-0.7856 0.1577,-3.1426 0.4177,-3.5603 0.2626,-0.4204 0.6804,-0.6804 0.6804,-0.6804 l 6.8912,1.3609" /><path
               inkscape:connector-curvature="0"
               id="path428"
               style="fill:#fab41d;fill-opacity:1;fill-rule:nonzero;stroke:none"
               d="m 366.0228,81.2872 c -0.0996,-1.4442 -1.0069,-3.3197 -1.1565,-3.6241 l -0.0966,-0.7191 c -0.006,-0.1218 -0.0941,-0.2271 -0.2188,-0.2518 l -6.8939,-1.3611 c -0.0634,-0.0112 -0.1326,0 -0.1934,0.036 -0.003,0.0026 -0.4731,0.296 -0.7665,0.7661 -0.21,0.3377 -0.412,1.7014 -0.4675,2.7362 -0.008,0.1962 -0.0138,0.3843 -0.0138,0.5558 0.003,0.1717 0.0112,0.3265 0.025,0.4456 l 0,0.0026 c 0.0911,0.6695 0.8797,1.3004 1.5463,1.6821 0.1302,0.0746 0.2517,0.1356 0.3596,0.1882 0.1079,0.0524 0.2132,0.0966 0.3045,0.13 l 0.003,0 c 0.2573,0.094 0.9903,0.2267 1.8342,0.379 1.1562,0.2073 2.5229,0.4535 2.9958,0.6556 l 0.0139,0.0083 0.003,0 c 0.7497,0.332 1.8812,1.3971 1.9946,1.5077 l 0.13,0.0775 c 0.1439,0.0359 0.2931,-0.0528 0.329,-0.1994 0.003,-0.0026 0.3735,-1.4523 0.2685,-3.0152 m -1.6543,-3.4084 c 0.0801,0.1551 1.0179,2.0389 1.1149,3.4442 0.0664,0.9572 -0.061,1.8728 -0.1577,2.3957 -0.4454,-0.3927 -1.2229,-1.04 -1.8148,-1.3 l -0.003,0 -0.003,-0.003 -0.008,-0.0026 c -0.5313,-0.227 -1.9283,-0.4787 -3.115,-0.6945 -0.8133,-0.1466 -1.527,-0.2739 -1.7457,-0.3541 -0.069,-0.0247 -0.1577,-0.0636 -0.2571,-0.1105 -0.1052,-0.0498 -0.2158,-0.1079 -0.3266,-0.1717 -0.5587,-0.3179 -1.2143,-0.8159 -1.2754,-1.2779 l -0.003,-0.0029 c -0.0112,-0.0996 -0.0195,-0.2296 -0.0195,-0.3788 -0.003,-0.1551 0.003,-0.332 0.0138,-0.5257 0.05,-0.9684 0.2215,-2.2103 0.3875,-2.4761 0.1603,-0.2572 0.3873,-0.4479 0.509,-0.5365 l 6.5924,1.3028 0.0802,0.5922" /><path
               inkscape:connector-curvature="0"
               id="path430"
               style="fill:#06121e;fill-opacity:1;fill-rule:evenodd;stroke:none"
               d="m 311.2945,78.2853 c 0,0 7.6241,-0.5147 12.507,-4.5536 4.8825,-4.0362 10.7611,-8.0918 14.7337,-7.9866 3.2534,0.0857 8.9078,3.2617 11.9038,5.7542 2.999,2.4896 6.3406,5.0679 8.9963,5.754 2.6559,0.6888 4.9657,0.4288 4.9657,0.4288 0.003,0 0.7748,-1.1149 0.5173,-2.7471 -0.2572,-1.6321 -0.8575,-3.0928 -1.3719,-3.6073 -0.5148,-0.5174 -2.7417,-0.2573 -4.6254,-1.3749 -1.8841,-1.1177 -5.652,-3.8647 -7.7958,-5.8399 -2.1413,-1.9752 -6.1194,-4.5452 -12.8307,-4.5922 -7.2978,-0.0471 -13.7682,5.0182 -15.8651,6.7389 -2.8247,2.3183 -6.1664,4.1219 -7.7931,4.7222 -1.6294,0.6031 -2.3127,0.4318 -2.8272,1.2034 -0.5146,0.7746 -1.2006,3.8676 -0.8576,4.9823" /><path
               inkscape:connector-curvature="0"
               id="path432"
               style="fill:#fab41d;fill-opacity:1;fill-rule:nonzero;stroke:none"
               d="m 323.6296,73.5235 c -4.3432,3.5934 -10.8885,4.3569 -12.1417,4.4731 l -0.2795,-0.9074 c -0.2295,-0.7525 0.0526,-2.5119 0.4123,-3.7234 0.0719,-0.2379 0.1439,-0.4511 0.2158,-0.6282 0.0663,-0.1687 0.1328,-0.3043 0.1936,-0.3954 l 0.005,-0.0084 c 0.2739,-0.4122 0.6446,-0.5063 1.2698,-0.6667 0.3762,-0.0969 0.8382,-0.2131 1.4219,-0.4288 1.1869,-0.437 3.27,-1.505 5.4056,-2.9435 0.4178,-0.2794 0.8355,-0.5726 1.2421,-0.8742 0.4205,-0.3098 0.83,-0.6279 1.2256,-0.9487 l 0,-0.0029 c 1.0429,-0.8547 3.1702,-2.5396 5.9366,-4.0028 2.7609,-1.4581 6.1581,-2.6974 9.7544,-2.6725 3.3169,0.0221 5.9533,0.6667 8.0281,1.5491 2.0665,0.8798 3.5714,1.9974 4.6226,2.9684 1.552,1.4302 3.9477,3.2618 5.8758,4.5952 0.3735,0.2571 0.7331,0.5005 1.0624,0.7137 0.3373,0.2211 0.6417,0.4094 0.9046,0.5669 1.137,0.6723 2.3708,0.8631 3.3169,1.0099 0.6058,0.0912 1.0817,0.166 1.2447,0.3125 l 0.009,0.0083 0,0.0027 0.003,-0.0027 0,0.0027 c 0.3375,0.3375 0.7248,1.1538 1.0123,2.1717 0.0556,0.1964 0.1079,0.4066 0.1551,0.6252 0.0498,0.2268 0.0913,0.4455 0.1245,0.6556 l 0,0.0028 c 0.1965,1.2423 -0.2379,2.1522 -0.4039,2.451 -0.52,0.0415 -2.5036,0.1468 -4.7443,-0.4343 -1.2921,-0.3346 -2.7637,-1.137 -4.2852,-2.1634 -1.5326,-1.0374 -3.1094,-2.2987 -4.6033,-3.538 -2.1744,-1.8066 -5.7347,-3.9727 -8.7861,-5.0791 -0.6003,-0.2187 -1.1785,-0.3956 -1.7262,-0.5203 -0.5505,-0.1272 -1.0706,-0.2047 -1.5492,-0.2185 l -0.011,0 c -2.0417,-0.0526 -4.5508,0.9489 -7.1678,2.4787 -2.5894,1.5132 -5.2921,3.5437 -7.7432,5.5717 m -12.316,5.0319 c 0.0222,-0.0026 7.7072,-0.5229 12.6591,-4.6144 2.4317,-2.0111 5.1095,-4.0251 7.6712,-5.5217 2.5368,-1.4828 4.9546,-2.4566 6.8828,-2.4068 l 0.0111,0.0028 c 0.4369,0.0111 0.924,0.083 1.444,0.2019 0.5256,0.1218 1.0845,0.2933 1.6626,0.5035 2.9931,1.0845 6.4871,3.2118 8.6257,4.988 1.5021,1.2503 3.0956,2.52 4.6448,3.5685 1.5656,1.0569 3.09,1.8867 4.4539,2.2382 2.7026,0.6997 5.057,0.4369 5.0625,0.4369 0.0828,-0.0083 0.1547,-0.0551 0.1992,-0.1217 0.0525,-0.0802 0.8188,-1.2585 0.5531,-2.9378 -0.0386,-0.2463 -0.0828,-0.4758 -0.13,-0.6916 -0.0469,-0.2187 -0.1022,-0.4372 -0.1631,-0.6556 -0.3126,-1.1012 -0.7525,-2.0086 -1.1508,-2.4097 l -0.003,0 -0.0193,-0.0166 c -0.2822,-0.2656 -0.8327,-0.3513 -1.5354,-0.4592 -0.8991,-0.1383 -2.0777,-0.3207 -3.1233,-0.9404 -0.2657,-0.1577 -0.5643,-0.3432 -0.8824,-0.5533 -0.3266,-0.2102 -0.6806,-0.4483 -1.0513,-0.7056 -1.9088,-1.3194 -4.2825,-3.1343 -5.815,-4.548 -1.0901,-1.0042 -2.6446,-2.1604 -4.7803,-3.0677 -2.1303,-0.9074 -4.8357,-1.5688 -8.2356,-1.5937 -3.7014,-0.0248 -7.1843,1.2449 -10.0088,2.736 -2.8162,1.4883 -4.9712,3.198 -6.0252,4.0611 l -0.003,0.0028 c -0.3956,0.3266 -0.7995,0.6364 -1.2006,0.9322 -0.4094,0.3043 -0.8189,0.592 -1.2255,0.8633 -2.097,1.4107 -4.133,2.4566 -5.2894,2.8826 -0.5533,0.2046 -1.0042,0.318 -1.3693,0.412 -0.7553,0.1937 -1.1979,0.3043 -1.588,0.8964 l -0.003,0.0029 c -0.0829,0.1243 -0.1659,0.2931 -0.2461,0.495 -0.0803,0.1966 -0.1577,0.4262 -0.2325,0.675 -0.3817,1.2866 -0.6721,3.1814 -0.4094,4.0362 l 0.3431,1.1178 c 0.0387,0.1215 0.1549,0.199 0.2766,0.1907" /></g><g
             transform="matrix(6.3881343,0,0,6.3881343,-1918.6362,-295.92657)"
             id="g5449"><path
               inkscape:connector-curvature="0"
               id="path506"
               style="fill:#97d9f6;fill-opacity:1;fill-rule:nonzero;stroke:none"
               d="m 315.8076,74.166 0.4205,-0.1689 c 0.1688,-0.0664 0.2932,-0.0609 0.3597,0.1078 0.0525,0.1328 -0.0388,0.2214 -0.202,0.2878 l -0.4233,0.1659 -0.1549,-0.3926 z m -0.3845,-0.9712 0.4703,-0.1854 c 0.166,-0.0663 0.3291,-0.0774 0.4094,0.1218 0.0608,0.1549 0.003,0.2738 -0.1854,0.3485 l -0.5035,0.1992 -0.1908,-0.4841 z m -0.0139,2.3044 1.422,-0.5671 c 0.6833,-0.2711 0.675,-0.7137 0.5698,-0.9821 -0.1023,-0.2628 -0.2877,-0.3541 -0.52,-0.3817 0.1991,-0.1743 0.343,-0.4482 0.1936,-0.83 -0.2075,-0.5228 -0.7663,-0.6141 -1.2254,-0.4315 l -1.4718,0.5865" /><path
               inkscape:connector-curvature="0"
               id="path508"
               style="fill:#97d9f6;fill-opacity:1;fill-rule:nonzero;stroke:none"
               d="m 319.6198,71.8151 c -0.3292,-0.7055 -0.8659,-0.8661 -1.6405,-0.5035 -0.7719,0.3596 -0.9987,0.8767 -0.6695,1.5794 l 0.7276,1.5603 0.7801,-0.365 -0.6446,-1.3832 c -0.1217,-0.2601 -0.2739,-0.5837 0.1051,-0.761 0.3707,-0.1715 0.5229,0.1522 0.6419,0.4122 l 0.6473,1.3832 0.7801,-0.3624" /><path
               inkscape:connector-curvature="0"
               id="path510"
               style="fill:#97d9f6;fill-opacity:1;fill-rule:nonzero;stroke:none"
               d="m 320.8684,71.6873 0.3901,-0.2243 c 0.1383,-0.0802 0.343,-0.166 0.4675,0.0498 0.0885,0.1549 0.0553,0.2905 -0.2296,0.4565 l -0.3486,0.1992 -0.2794,-0.4812 z m -0.1327,1.4909 1.4191,-0.8189 c 0.4233,-0.2462 0.6529,-0.6916 0.3901,-1.1508 -0.1466,-0.2517 -0.415,-0.4509 -0.7138,-0.3983 0.1577,-0.1963 0.1522,-0.4925 0.006,-0.8106 -0.0581,-0.1245 -0.2213,-0.415 -0.2186,-0.5669 l -0.7441,0.4286 c 0.0332,0.1438 0.0913,0.2794 0.1549,0.4094 0.1134,0.2435 0.2296,0.498 -0.0636,0.6667 l -0.3956,0.2296 -0.4897,-0.8465 -0.7442,0.4288" /><path
               inkscape:connector-curvature="0"
               id="path512"
               style="fill:#97d9f6;fill-opacity:1;fill-rule:nonzero;stroke:none"
               d="m 323.4384,71.5856 0.6833,-0.5562 -0.3153,-1.6792 0.008,-0.0055 0.9462,1.1646 0.6307,-0.5118 -1.7677,-2.1771 -0.6501,0.5284 0.3015,1.729 -0.008,0.0055 -0.9655,-1.1896 -0.6307,0.5146" /><path
               inkscape:connector-curvature="0"
               id="path514"
               style="fill:#97d9f6;fill-opacity:1;fill-rule:nonzero;stroke:none"
               d="m 325.609,69.7966 0.6806,-0.5256 -1.2754,-1.6517 0.9793,-0.7552 -0.4398,-0.5699 -1.6599,1.2865" /><path
               inkscape:connector-curvature="0"
               id="path516"
               style="fill:#97d9f6;fill-opacity:1;fill-rule:nonzero;stroke:none"
               d="m 327.3537,68.4437 1.9144,-1.2947 -0.4011,-0.5949 -1.2034,0.8133 -0.1937,-0.2903 1.09,-0.7388 -0.3735,-0.5533 -1.0927,0.7386 -0.1936,-0.2903 1.2365,-0.8354 -0.4011,-0.5976 -1.9503,1.3222" /><path
               inkscape:connector-curvature="0"
               id="path518"
               style="fill:#97d9f6;fill-opacity:1;fill-rule:nonzero;stroke:none"
               d="m 329.1059,65.203 0,2.025 0.8301,-0.4621 -0.0915,-1.1287 0.9242,0.6694 0.8244,-0.4592 -1.7347,-1.0621 -0.5007,-0.902 -0.7525,0.4177" /><path
               inkscape:connector-curvature="0"
               id="path520"
               style="fill:#97d9f6;fill-opacity:1;fill-rule:nonzero;stroke:none"
               d="m 332.3875,65.5175 2.0361,-0.7248 -0.2436,-0.6777 -1.2226,0.4369 -0.1163,-0.3291 1.0512,-0.3762 -0.2268,-0.6281 -1.0513,0.3734 -0.3568,-1.004 -0.8132,0.2877" /><path
               inkscape:connector-curvature="0"
               id="path522"
               style="fill:#97d9f6;fill-opacity:1;fill-rule:nonzero;stroke:none"
               d="m 335.2731,62.3944 c 0.2158,-0.0442 0.5754,0.0332 0.6943,0.6474 0.1218,0.6141 -0.1825,0.8216 -0.3956,0.8631 -0.2157,0.0415 -0.5754,-0.036 -0.6943,-0.6474 -0.1217,-0.6141 0.1798,-0.8188 0.3956,-0.8631 m 0.4343,2.1966 c 0.8327,-0.166 1.2698,-0.877 1.1066,-1.7152 -0.166,-0.841 -0.841,-1.3307 -1.6765,-1.1674 -0.8327,0.1632 -1.2725,0.8769 -1.1065,1.7151 0.166,0.841 0.8409,1.3334 1.6764,1.1675" /><path
               inkscape:connector-curvature="0"
               id="path524"
               style="fill:#97d9f6;fill-opacity:1;fill-rule:nonzero;stroke:none"
               d="m 338.3616,62.0638 c 0.2184,-0.0055 0.5588,0.1356 0.5697,0.758 0.0112,0.6252 -0.3207,0.7774 -0.542,0.7802 -0.2186,0.0055 -0.5563,-0.1328 -0.5701,-0.758 -0.0111,-0.6252 0.3237,-0.7774 0.5424,-0.7802 m 0.0415,2.2381 c 0.852,-0.0166 1.4079,-0.6393 1.3915,-1.4968 -0.0166,-0.8547 -0.595,-1.4578 -1.447,-1.4412 -0.8493,0.0166 -1.4052,0.6391 -1.3886,1.4967 0.0165,0.8548 0.5948,1.4577 1.4441,1.4413" /><path
               inkscape:connector-curvature="0"
               id="path526"
               style="fill:#97d9f6;fill-opacity:1;fill-rule:nonzero;stroke:none"
               d="m 340.5668,63.6315 -0.7717,-0.1274 -0.119,0.7082 2.3957,0.3956 0.119,-0.708 -0.7746,-0.1275 0.3458,-2.0552 -0.852,-0.1413" /><path
               inkscape:connector-curvature="0"
               id="path528"
               style="fill:#97d9f6;fill-opacity:1;fill-rule:nonzero;stroke:none"
               d="m 343.6874,62.918 0.4759,0.1713 c 0.1687,0.0581 0.2987,0.1606 0.2268,0.3626 -0.0555,0.1547 -0.1798,0.2073 -0.3707,0.1383 l -0.509,-0.18 0.177,-0.4922 z m -0.3513,0.982 0.426,0.152 c 0.1716,0.0638 0.2601,0.1496 0.1992,0.3182 -0.0498,0.1329 -0.1771,0.1412 -0.3403,0.0831 l -0.4287,-0.1551 0.1438,-0.3982 z m -1.1785,0.7357 1.4385,0.5175 c 0.6917,0.2488 0.9821,-0.0914 1.0762,-0.3598 0.0968,-0.2656 0.0194,-0.4564 -0.1384,-0.6335 0.2656,0.0028 0.5533,-0.1079 0.6942,-0.4952 0.1883,-0.5282 -0.1685,-0.9655 -0.6335,-1.1314 l -1.4911,-0.5339" /><path
               inkscape:connector-curvature="0"
               id="path530"
               style="fill:#97d9f6;fill-opacity:1;fill-rule:nonzero;stroke:none"
               d="m 346.559,64.5456 -0.6254,0.6472 -0.005,-0.0028 0.1632,-0.8907 0.4676,0.2463 z m -1.4388,1.278 0.7444,0.3928 2.2048,-2.0057 -0.7886,-0.4149 -0.2903,0.2988 -0.7856,-0.415 0.0774,-0.4122 -0.7665,-0.4039" /><path
               inkscape:connector-curvature="0"
               id="path532"
               style="fill:#97d9f6;fill-opacity:1;fill-rule:nonzero;stroke:none"
               d="m 346.6559,66.6618 0.7193,0.4758 1.151,-1.7401 1.0317,0.6859 0.3956,-0.6001 -1.7484,-1.1591" /><path
               inkscape:connector-curvature="0"
               id="path534"
               style="fill:#97d9f6;fill-opacity:1;fill-rule:nonzero;stroke:none"
               d="m 348.489,67.8873 0.6889,0.5171 1.2504,-1.6653 0.9876,0.7415 0.4315,-0.5756 -1.6764,-1.2587" /><path
               inkscape:connector-curvature="0"
               id="path536"
               style="fill:#97d9f6;fill-opacity:1;fill-rule:nonzero;stroke:none"
               d="m 353.1572,70.1901 c -0.0775,0.0692 -0.3292,0.2628 -0.6088,0.0415 -0.3154,-0.2517 -0.1743,-0.639 0.0609,-0.9322 0.2351,-0.296 0.5809,-0.5229 0.8963,-0.2711 0.2268,0.1798 0.1881,0.4094 0.0638,0.6473 l 0.6637,0.5282 c 0.3515,-0.4424 0.3653,-1.1977 -0.2738,-1.7069 -0.7081,-0.5641 -1.5076,-0.3816 -2.0249,0.2658 -0.5477,0.6916 -0.4787,1.4938 0.1963,2.0305 0.6032,0.4758 1.1869,0.4205 1.6821,-0.0802" /><path
               inkscape:connector-curvature="0"
               id="path538"
               style="fill:#97d9f6;fill-opacity:1;fill-rule:nonzero;stroke:none"
               d="m 353.3375,71.6781 0.6833,0.5227 1.2641,-1.6571 0.985,0.7497 0.4341,-0.5725 -1.6679,-1.2727" /><path
               inkscape:connector-curvature="0"
               id="path540"
               style="fill:#97d9f6;fill-opacity:1;fill-rule:nonzero;stroke:none"
               d="m 358.3922,73.0402 c 0.3984,-0.6668 0.2295,-1.2035 -0.5035,-1.6406 -0.7331,-0.4371 -1.2863,-0.3318 -1.6847,0.3347 l -0.8797,1.4773 0.7384,0.4398 0.7831,-1.3113 c 0.1464,-0.2462 0.3292,-0.5531 0.6888,-0.3373 0.3486,0.2073 0.166,0.5144 0.0192,0.7606 l -0.7827,1.3113 0.7414,0.4428" /><path
               inkscape:connector-curvature="0"
               id="path542"
               style="fill:#97d9f6;fill-opacity:1;fill-rule:nonzero;stroke:none"
               d="m 359.6478,73.0684 0.4759,0.1714 c 0.1687,0.061 0.2987,0.1606 0.2242,0.3651 -0.0555,0.1551 -0.1772,0.2077 -0.3681,0.1383 l -0.509,-0.1824 0.177,-0.4924 z m -0.3541,0.9821 0.4288,0.1547 c 0.1688,0.0611 0.2601,0.1468 0.1992,0.3154 -0.0498,0.1355 -0.177,0.1413 -0.343,0.0832 l -0.4259,-0.1551 0.1409,-0.3982 z m -1.1783,0.7357 1.4411,0.5175 c 0.6916,0.2517 0.9795,-0.0887 1.0762,-0.3571 0.097,-0.2683 0.0193,-0.4564 -0.1383,-0.6335 0.2655,0.003 0.5534,-0.1079 0.6943,-0.495 0.1881,-0.5285 -0.1687,-0.9655 -0.6335,-1.1315 l -1.4939,-0.5368" /></g></g><g
           id="g5721"
           transform="matrix(6.3881343,0,0,6.3881343,-1918.6362,-295.92657)"><path
             d="m 321.2262,99.6893 0,-14.8059 c 0,0 1.2172,-5.552 2.1965,-6.537 0.9848,-0.9849 5.1067,-5.7486 6.6781,-6.4568 1.5713,-0.7082 8.1913,-3.6019 8.1913,-3.6019 l 8.6948,4.0749 4.6337,4.2522 2.5894,3.8589 0.7082,2.8356 0.0802,5.5909 0.1549,11.262 -33.9354,0.0304"
             style="fill:#fff30d;fill-opacity:1;fill-rule:evenodd;stroke:none"
             id="path376"
             inkscape:connector-curvature="0" /><path
             d="m 321.3188,99.3703 33.6588,0 0,10.125 -33.6588,0 0,-10.125 z"
             style="fill:#06121e;fill-opacity:1;fill-rule:nonzero;stroke:none"
             id="path380"
             inkscape:connector-curvature="0" /><g
             id="g5655"><path
               inkscape:connector-curvature="0"
               id="path378"
               style="fill:#630530;fill-opacity:1;fill-rule:evenodd;stroke:none"
               d="m 321.5628,83.5434 1.5409,0 0,2.1438 1.6681,0 0,2.0167 2.3515,0 0,2.357 2.3099,0 0,2.1024 2.3514,0 0,2.1855 2.736,0 0,2.3182 2.5672,0 1.2062,1.8673 1.4247,-1.8673 2.3874,0 0.0277,-2.4453 2.3099,0 0,-1.8867 2.1799,0 0,-2.1884 2.0113,0 0,-2.4427 2.2241,0 0,-2.1025 2.3514,0 0,-2.5311 1.3694,0 c 0,0 -0.13,-1.2008 -0.4288,-1.9283 -0.2988,-0.7302 -0.8548,-1.1149 -0.8548,-1.1149 l -2.0527,0 0,2.6585 -2.866,0 0,2.4014 -2.2657,0 0,2.2296 -2.3099,0 0,2.274 -2.2242,0 0,2.3154 -2.0941,0 0,2.2714 -0.5561,0 -2.0527,0 0,-2.1856 -2.3542,0 0,-2.3596 -2.4372,0 0,-2.2714 -2.3099,0 0,-2.3597 -2.4787,0 0,-2.3597 -2.1827,0 0,-2.3155 -2.0527,0 c 0,0 -0.8548,1.0733 -1.1121,1.8009 -0.2572,0.7303 -0.3845,1.4166 -0.3845,1.4166" /><g
               id="g5470"><path
                 d="m 341.189,87.8844 c -0.2626,-0.7276 0.6861,-1.0734 0.2905,-1.7345 -0.1466,-0.2656 -0.2766,-0.5699 -0.2905,-0.8606 -0.1853,-0.2517 -0.1466,-0.6084 -0.1187,-0.9542 l 0.0247,-0.1577 c -0.1439,-0.094 -0.3541,0.1854 -0.4344,-0.1079 0.0803,-0.1715 0.0526,-0.3956 0.1439,-0.5671 l -0.3292,-0.0692 c 0,-0.2379 0.1191,-0.4094 -0.0247,-0.6196 -0.4511,0 -0.4235,0.4758 -0.7138,0.6888 -0.1716,-0.0166 -0.2379,-0.2545 -0.3847,-0.3071 -0.0802,-0.1051 -0.224,-0.1853 -0.3679,-0.1991 -0.0415,0.2266 0.0775,0.5062 -0.1992,0.5975 -0.2268,-0.0913 -0.4094,-0.2794 -0.6612,-0.3043 -0.0248,-0.0666 -0.0912,-0.0527 -0.1438,-0.0527 -0.0526,0.2379 0.2102,0.4234 0.1438,0.6751 -0.0802,0.0663 -0.13,0.1465 -0.2378,0.119 -0.1052,-0.0527 -0.2352,-0.1079 -0.3293,-0.0941 -0.0525,-0.1328 -0.1715,-0.0525 -0.2655,-0.0774 -0.0249,0.3845 0.3181,0.6196 0.5422,0.9129 0.3707,0.1575 0.7248,0.3181 1.1621,0.3568 0.2653,0.0941 0.5558,0.2406 0.5946,0.545 0.0138,0.0773 -0.0139,0.1577 -0.0664,0.2103 -0.1439,-0.0389 -0.1963,-0.1854 -0.238,-0.3043 -0.1576,-0.1577 -0.3679,-0.3183 -0.5671,-0.2104 -0.0911,0.0388 -0.199,0.0914 -0.2904,0.13 l 0,0.0276 c 0.1576,0.0279 0.3845,0.0389 0.4758,0.238 0.1189,0.2379 -0.0277,0.4123 -0.0415,0.6502 0,0.0913 -0.0109,0.1714 -0.105,0.2379 -0.3681,0.0139 -0.6337,-0.2517 -0.9905,-0.0527 -0.0913,0.1439 -0.0249,0.2907 -0.0526,0.4758 0.2241,0.1053 0.4233,0.2907 0.6889,0.2907 0.2489,-0.0666 0.4205,-0.4233 0.7,-0.2907 0.1824,0.1053 0.3291,0.2518 0.567,0.2907 -0.0139,0.1466 -0.199,0.2268 -0.2905,0.2792 -0.2241,-0.0524 -0.3956,-0.1741 -0.6223,-0.0941 0,0.1468 0.1603,0.1856 0.238,0.2658 0.3041,-0.0387 0.5282,-0.119 0.8325,-0.0526 0.1853,0.0415 0.3708,0.0664 0.5809,0.1052 0.0941,0.0664 0.2379,0.0413 0.332,0.1215 0.1577,0 0.3155,-0.0137 0.4481,-0.1077"
                 style="fill:#06121e;fill-opacity:1;fill-rule:evenodd;stroke:none"
                 id="path382"
                 inkscape:connector-curvature="0" /><path
                 style="fill:#06121e;fill-opacity:1;fill-rule:evenodd;stroke:none"
                 d="m 334.77344,87.638496 c -0.10751,-0.0228 -0.2108,-0.07048 -0.30626,-0.15 -0.1328,-0.3044 0.30132,-0.199496 0.39532,-0.437496 l -0.0656,-0.0656 c -0.238,0.105096 -0.4371,0.01336 -0.675,-0.02816 -0.3817,-0.318096 0.35641,-0.317832 0.34531,-0.660936 -0.2517,0.01392 -0.55595,0.262552 -0.81875,0.118752 0,-0.583704 0.76445,-0.782792 1.06875,-1.192192 0.0138,-0.3458 0.027,-0.702888 -0.18594,-0.954688 -0.0637,-0.0912 -0.17129,-0.210096 -0.26249,-0.262496 l 0,-0.06872 c 0.10509,-0.0913 0.26277,-0.132648 0.40937,-0.143752 0.3043,-0.237896 -0.1474,-0.45116 -0.2,-0.689056 0.1992,-0.119104 0.54271,-0.05368 0.59531,-0.34688 -0.0664,-0.2628 -0.38431,-0.1846 -0.39531,-0.475 0.4869,-0.1854 1.02838,-0.436696 1.58437,-0.237496 0.0664,-0.0388 0.23558,0.01376 0.17188,-0.132816 -0.4232,-0.3322 -0.89945,-0.689808 -1.28125,-1.032808 -0.1853,-0.1328 -0.35575,-0.383504 -0.59375,-0.425 -0.3845,-0.249 -0.87149,0.0272 -1.24219,0.212496 -0.1051,0.05256 -0.27771,-0.02848 -0.38281,0.0656 -0.0664,-0.0941 -0.22676,3.52e-4 -0.27656,-0.118744 -0.2656,0.014 -0.37095,-0.26564 -0.55626,-0.39844 0,-0.119 -0.0789,-0.251048 -0.0125,-0.331248 0.3043,-0.119 0.3034,0.240272 0.475,0.359368 0.0663,0.0248 0.17224,0.03816 0.21094,-0.05312 -0.0249,-0.2794 -0.35816,-0.477824 -0.26406,-0.740624 0.1715,-0.01376 0.35766,0.118496 0.47656,0.237496 0.0775,0.05256 0.21084,0.02528 0.18594,-0.09375 -0.1467,-0.1576 -0.14766,-0.304024 -0.21406,-0.50312 0.3044,-0.132704 0.51575,0.02784 0.80624,0.146872 0.2268,0.01376 0.33127,-0.185624 0.46407,-0.290624 0.3016,-0.160496 0.21001,0.290472 0.39531,0.409376 0.3292,0.0803 0.35647,-0.451136 0.67187,-0.42344 0.17151,0.05248 0.0677,0.262312 0.0953,0.395312 0,0.2932 0.20966,0.02712 0.35626,0.07968 0.473,-0.3956 0.36783,0.424224 0.68594,0.490624 0.19649,-0.01376 0.41,0.159744 0.59531,0.19844 0.238,0.1992 0.22302,0.569912 0.32813,0.807816 0.0803,0.01376 0.11936,-0.08006 0.17187,-0.118752 -0.0276,-0.304304 -0.11871,-0.595336 -0.26251,-0.860936 -0.14669,-0.01376 -0.22667,-0.160576 -0.38436,-0.14688 -0.0387,-0.03848 -0.14376,-0.09027 -0.14376,-0.184376 0.1189,-0.337496 0.33424,-0.578144 0.58594,-0.793744 0.18952,-0.165 0.39778,-0.31752 0.59844,-0.487504 -0.0176,0.09686 -0.0538,0.24076 0.0578,0.301568 0.1161,-0.0802 0.24906,-0.198552 0.30157,-0.331256 0.0553,-0.157696 0.18453,-0.277264 0.19843,-0.45156 0.3568,-0.6224 -0.2624,-1.164776 -0.2375,-1.759376 0,-0.796696 0.88488,-1.125136 1.34688,-1.54844 0.7523,-0.569896 0.48968,-1.61912 0.40937,-2.465624 l -0.44844,-0.398432 c -0.56989,-0.157504 -0.88541,0.35952 -1.50781,0.240624 -0.2102,-0.1468 -0.48822,-0.184664 -0.56562,-0.464064 l 0.0906,-0.118752 c 0.2517,-0.02768 0.4621,0.05232 0.7,0.118752 0.1079,-0.1328 0.33214,-0.02888 0.39844,-0.214064 -0.3292,-0.02488 -0.7147,6.48e-4 -0.9,-0.356248 -0.0775,-0.132704 0.0141,-0.238088 0.14688,-0.279688 0.224,-0.143904 0.3962,0.13376 0.59531,0.214064 0.105,-0.02496 0.26338,0.05152 0.32969,-0.08126 -0.1466,-0.185296 -0.49011,-0.251784 -0.43751,-0.567184 l 0.52813,-0.04064 c 0.119,0.107896 0.34324,0.05208 0.42344,0.212496 0.1854,0.01392 0.23787,0.223968 0.40937,0.276568 0.1467,-0.014 0.30454,0.05224 0.44844,-0.03904 0.1466,-0.0276 0.31813,5.36e-4 0.26562,0.185936 -0.0913,0.1466 -0.0254,0.356624 -0.0531,0.528128 0.13,0.370496 0.36851,-0.02512 0.62031,0.09374 -0.0388,0.356904 -0.19625,0.623112 -0.14375,1.007816 0.1577,0.1992 0.3036,-0.01416 0.5,0.09375 -0.10509,0.3292 -0.27577,0.660712 -0.20937,1.045312 0.2102,0.2904 0.32772,-0.146704 0.56562,0 0.0913,0.2764 -0.0655,0.567832 -0.0406,0.885936 -0.0498,0.121704 -0.1824,0.159376 -0.2875,0.159376 -0.1715,0.07744 -0.43786,0.09169 -0.47656,0.329688 -0.0277,0.3458 0.0249,0.677984 0.14375,0.954688 0.0941,0.4756 0.74195,0.172096 0.99375,0.462496 0.3956,0.202 0.60594,0.571592 0.71094,0.967192 0.21589,0.5284 0.0631,1.054696 -0.15,1.525 l -1.44376,0 0.16563,-0.04216 c 0.3043,-0.143896 0.72789,0.108304 0.97969,-0.237496 0.1964,-0.370704 0.32868,-0.96524 0.0797,-1.335936 -0.1328,-0.1992 -0.34159,-0.319016 -0.55469,-0.357816 -0.1327,-0.132696 -0.44881,-0.02736 -0.62031,-0.09375 -0.3707,0.237904 -0.43763,0.755136 -0.72812,1.07344 -0.26551,0.309896 -0.56412,0.634048 -0.75782,0.993752 -0.1521,0.284896 -0.24075,0.594824 -0.19375,0.940624 -0.1466,0.318096 0.0553,0.636488 0,0.954688 0.0276,0.315296 0.25171,0.62236 0.13281,0.95156 -0.1328,0.01376 -0.19855,0.159216 -0.35624,0.145312 -0.0941,-0.1466 -0.0808,-0.383184 -0.18595,-0.554688 -0.37069,0.03872 -0.54162,0.474704 -0.76562,0.687504 -0.2379,0.157896 -0.39569,-0.264952 -0.56719,-0.356256 -0.0415,-0.0276 -0.15824,-0.0552 -0.18593,0.02496 -0.10511,0.1992 -0.19844,0.411576 -0.19844,0.62188 0,0.107896 -0.11651,0.133176 -0.18282,0.171872 -0.1716,-0.105096 -0.37121,-0.118848 -0.57031,-0.143752 -0.2379,0.0388 -0.0525,0.276512 -0.14374,0.395312 l -0.0547,-0.03904 c -0.21031,0.02768 -0.42086,0.02768 -0.60626,0 l -0.14374,0.09218 c -0.0941,0.121704 0.0392,0.2686 0.0641,0.412504 0.0526,0.356896 0.48983,0.646808 0.29063,1.020312 -0.3154,0.580896 -0.62097,1.335776 -0.26407,1.996872 -0.0277,0.213104 0.1577,0.492664 0.025,0.689064 0.094,0.188096 -0.0774,0.384648 -0.14375,0.531248 -0.2676,0.207528 -0.62434,0.36524 -0.94687,0.296872 z m 3.15,-9.32656 c 0.002,-0.0089 0.003,-0.02176 0.005,-0.02968 l 0,0.02656 c -0.002,0.0016 -0.003,0.0016 -0.005,0.0032 z"
                 id="path384"
                 inkscape:connector-curvature="0" /><path
                 d="m 341.2072,78.7992 c -0.2132,0.0636 -0.4096,0.1715 -0.5478,0.3845 0.1327,0.0109 0.2267,-0.0138 0.3567,-0.0664 0.1217,0.0913 0.2656,-0.1051 0.4094,0 0.0664,0.0249 0.1467,0.0249 0.1856,0.0913 -0.3294,0.3845 -1.0155,0.5173 -1.0817,1.1287 0.2379,-0.2407 0.5808,-0.332 0.9238,-0.2932 0.0802,0.0912 -0.0415,0.1604 -0.0524,0.2379 -0.2104,0.1466 -0.357,0.4122 -0.5009,0.5975 -0.0691,0.1439 -0.1217,0.3292 -0.1217,0.4758 0.133,-0.1079 0.3043,-0.2657 0.4758,-0.213 0.1468,0.2931 0.0415,0.5976 0.1715,0.888 -0.13,0.4095 0.2656,0.7138 0.238,1.1398 0.2794,0.3984 0.3432,0.8742 0.6611,1.2449 0.3707,0.4094 0.8052,0.7552 1.3335,0.7163 0.0802,-0.0552 0.1604,0.0776 0.2378,0.0112 0.451,-0.1853 0.4897,-0.6362 0.5673,-1.018 0.0801,-0.2407 0.0552,-0.4648 0.0275,-0.7165 -0.0913,-0.7692 -0.4481,-1.4164 -0.686,-2.1191 -0.0941,-0.1993 -0.1328,-0.3983 -0.2103,-0.5947 -0.1992,0.0664 -0.1188,0.3817 -0.1715,0.6224 -0.0802,0.1188 -0.2518,0.0664 -0.3596,0.0387 -0.0498,0.5422 0.3319,0.9129 0.5948,1.3362 0.0278,0.0415 -0.025,0.1328 -0.0914,0.1466 -0.224,-0.0138 -0.3292,-0.0525 -0.5034,-0.1993 l -0.0637,0.0527 c 0.1854,0.5035 0.7387,0.6501 0.9904,1.0734 0.0249,0.1715 0.1466,0.3983 0.0249,0.5698 -0.0387,0.2656 -0.329,0.332 -0.5145,0.4371 -0.8051,-0.1438 -1.3334,-0.9267 -1.5714,-1.6543 -0.0662,-0.3983 -0.2766,-0.7303 -0.2655,-1.1674 -0.0913,-0.5035 0.0525,-1.1121 0.1466,-1.5881 0.224,-0.4231 0.3956,-0.8602 0.6862,-1.2447 0.0524,-0.1025 0.105,-0.2075 0.1548,-0.3181"
                 style="fill:#06121e;fill-opacity:1;fill-rule:evenodd;stroke:none"
                 id="path388"
                 inkscape:connector-curvature="0" /><path
                 d="m 336.9362,84.0574 c -0.0138,-0.1855 -0.1853,-0.3321 -0.1189,-0.5036 0.1715,-0.2905 0.3817,0.0525 0.6196,-0.0277 0.0553,0.0664 0.1992,0.0802 0.2379,0.0277 -0.0911,-0.1716 -0.2241,-0.3431 -0.2241,-0.5312 0.3709,-0.1964 0.7138,-0.0387 1.0956,0.0802 0.0803,-0.1438 -0.1716,-0.3845 0.1189,-0.4758 0.3432,0.0526 0.6613,0.1466 0.924,0.3707 0.2517,0.0802 0.3847,-0.3043 0.5975,-0.3707 0,-0.0664 0.1024,-0.1466 0,-0.1992 -0.1326,0.0249 -0.3705,0.0664 -0.3982,-0.1466 0.0415,-0.0774 0.0139,-0.1992 0.0277,-0.3043 -0.2132,0.0526 -0.3709,0.2932 -0.6226,0.2932 -0.2241,-0.1466 -0.0911,-0.5422 -0.3541,-0.556 -0.2656,0.1715 -0.1464,0.5948 -0.5035,0.6197 -0.1992,-0.1051 -0.3569,-0.3431 -0.5671,-0.4095 -0.1466,0.238 0,0.5838 -0.213,0.794 -0.2101,0 -0.3569,-0.2102 -0.5808,-0.0913 -0.0666,0.1992 0.1714,0.4509 -0.119,0.5422 -0.2379,-0.0802 -0.4483,-0.2102 -0.7139,-0.2379 l -0.0387,0.119 c 0.1715,0.4094 0.3292,0.7663 0.7416,1.0208"
                 style="fill:#06121e;fill-opacity:1;fill-rule:evenodd;stroke:none"
                 id="path390"
                 inkscape:connector-curvature="0" /><path
                 d="m 337.0813,77.9252 c 0.1992,-0.0943 0.462,-0.0666 0.7109,-0.0666 0.238,-0.2517 -0.1161,-0.8216 0.451,-0.7689 -0.1854,-0.3956 -0.2629,-0.8605 -0.3569,-1.2561 -0.4731,-0.0664 -1.0291,0.4482 -1.386,-0.0802 -0.0415,-0.1743 0.0526,-0.2518 0.0802,-0.3984 0.1826,-0.2517 0.2241,-0.5948 0.2767,-0.9129 0.0138,-0.0553 0,-0.1605 -0.0941,-0.1188 -0.1964,0.0773 -0.3679,0.2627 -0.592,0.1714 -0.1604,-0.3043 0.2103,-0.6225 0.0526,-0.9544 -0.0664,-0.1439 -0.1992,-0.0249 -0.2656,0.0278 -0.0387,0.0911 -0.1715,0.0662 -0.2628,0.1188 -0.2517,-0.1188 -0.094,-0.3984 -0.1604,-0.5837 -0.1826,-0.105 -0.3569,0.1715 -0.5008,0 -0.2517,-0.3956 -0.7275,-0.5174 -1.1618,-0.4508 -0.0665,0.199 0.1327,0.4399 0.3015,0.5699 l 0.0276,0.08 c -0.0387,0.0526 -0.0912,0.0803 -0.1715,0.0664 -0.2379,-0.094 -0.4094,-0.3319 -0.6611,-0.2655 -0.0775,0.1991 0.1189,0.343 0.213,0.4787 0.0774,0.0662 0.2379,0.0524 0.2379,0.199 -0.2518,0.1577 -0.4509,-0.094 -0.6612,-0.1466 -0.0664,0.3043 0.3292,0.3432 0.5146,0.4758 0.1466,0 0.3319,0 0.4509,-0.0913 0.4481,-0.1217 0.9101,0.1716 1.1729,0.5424 0.3044,0.8325 0.1079,1.5492 0.1605,2.4619 0.1853,0.3045 0.2766,0.7306 0.6446,0.9021"
                 style="fill:#06121e;fill-opacity:1;fill-rule:evenodd;stroke:none"
                 id="path392"
                 inkscape:connector-curvature="0" /></g><path
               inkscape:connector-curvature="0"
               id="path402"
               style="fill:#06121e;fill-opacity:1;fill-rule:evenodd;stroke:none"
               d="m 326.0304,97.8657 -1.7097,-2.8468 1.7372,-3.2228 1.6792,3.2534" /><path
               inkscape:connector-curvature="0"
               id="path404"
               style="fill:#06121e;fill-opacity:1;fill-rule:evenodd;stroke:none"
               d="m 350.8908,98.04 -1.7096,-2.8468 1.7374,-3.2228 1.6791,3.2534" /><g
               id="g5502"><path
                 d="m 326.6661,107.5123 c -0.05,0.0856 -0.0195,0.1965 0.0662,0.2462 0.0887,0.0469 0.1966,0.0192 0.2464,-0.0693 l 3.4772,-6.111 c 0.05,-0.0857 0.0194,-0.1962 -0.069,-0.2434 -0.083,-0.0498 -0.1938,-0.0194 -0.2436,0.0664"
                 style="fill:#fff30d;fill-opacity:1;fill-rule:nonzero;stroke:none"
                 id="path434"
                 inkscape:connector-curvature="0" /><path
                 d="m 326.7797,101.2717 c -0.0498,-0.0858 -0.1577,-0.1164 -0.2462,-0.0666 -0.0857,0.0472 -0.1162,0.1577 -0.0664,0.2462 l 3.4774,6.1082 c 0.0498,0.0887 0.1577,0.1162 0.2462,0.0694 0.0857,-0.0498 0.1162,-0.1605 0.0664,-0.2462"
                 style="fill:#fff30d;fill-opacity:1;fill-rule:nonzero;stroke:none"
                 id="path436"
                 inkscape:connector-curvature="0" /><path
                 d="m 327.2248,104.225 c 0,1.8756 0.5366,3.3944 1.1978,3.3944 0.6641,0 1.2008,-1.5188 1.2008,-3.3944 0,-1.8758 -0.5367,-3.3946 -1.2008,-3.3946 -0.6612,0 -1.1978,1.5188 -1.1978,3.3946"
                 style="fill:#fff200;fill-opacity:1;fill-rule:evenodd;stroke:none"
                 id="path438"
                 inkscape:connector-curvature="0" /><path
                 d="m 327.2422,103.8069 c 0,0 0.7912,-0.1494 1.1785,-0.1411 0.3901,0.0109 1.1785,0.1937 1.1785,0.1937 0,0 0.0277,-0.1413 0.0111,-0.3043 -0.0194,-0.166 -0.0526,-0.4262 -0.0526,-0.4262 0,0 -0.971,-0.1824 -1.1619,-0.1824 -0.1909,0 -1.101,0.1051 -1.101,0.1051"
                 style="fill:#06121e;fill-opacity:1;fill-rule:evenodd;stroke:none"
                 id="path440"
                 inkscape:connector-curvature="0" /><path
                 d="m 327.3557,102.6243 c 0,0 0.6943,-0.1745 1.0733,-0.1549 0.3818,0.0164 1.0512,0.1549 1.0512,0.1549 0,0 -0.1051,-0.5644 -0.166,-0.678 -0.0608,-0.1132 -0.7275,-0.1464 -0.8769,-0.1381 -0.1466,0.008 -0.8659,0.0608 -0.8908,0.1051 -0.0276,0.0415 -0.1825,0.6335 -0.1908,0.711"
                 style="fill:#06121e;fill-opacity:1;fill-rule:evenodd;stroke:none"
                 id="path442"
                 inkscape:connector-curvature="0" /><path
                 d="m 327.7023,101.5378 c 0,0 0.6335,-0.1632 0.805,-0.1302 0.1743,0.0333 0.6252,0.0693 0.6584,0.1302 l -0.26,-0.4262 c -0.0581,-0.0607 -0.4675,-0.033 -0.5699,-0.033 -0.1051,0 -0.3652,0.0166 -0.4343,0.0857 -0.0692,0.069 -0.2268,0.329 -0.2268,0.365"
                 style="fill:#06121e;fill-opacity:1;fill-rule:evenodd;stroke:none"
                 id="path444"
                 inkscape:connector-curvature="0" /><path
                 d="m 327.748,106.4341 c 0,0 0.1576,0.5284 0.3707,0.6557 0.213,0.13 0.3983,0.2296 0.6113,0.0138 0.2131,-0.213 0.2407,-0.3126 0.285,-0.4841 0.0415,-0.1715 0.0581,-0.2711 0.0581,-0.2711 l -1.339,0"
                 style="fill:#06121e;fill-opacity:1;fill-rule:evenodd;stroke:none"
                 id="path446"
                 inkscape:connector-curvature="0" /><path
                 d="m 332.5758,103.5355 c -0.1549,-0.5533 -2.1384,-0.4788 -4.4345,0.1659 -2.2933,0.6472 -4.0251,1.6182 -3.8702,2.1715 0.1521,0.5535 2.1384,0.4786 4.4318,-0.1686 2.2933,-0.6447 4.0279,-1.6157 3.8729,-2.1688"
                 style="fill:#fff30d;fill-opacity:1;fill-rule:evenodd;stroke:none"
                 id="path448"
                 inkscape:connector-curvature="0" /><path
                 d="m 332.7961,105.8743 c -0.0774,0.5505 -2.0748,0.4231 -4.465,-0.285 -2.3901,-0.7054 -4.2657,-1.7264 -4.1883,-2.2741 0.0747,-0.5504 2.0748,-0.4231 4.465,0.2851 2.3902,0.7054 4.2658,1.7235 4.1883,2.274"
                 style="fill:#fff30d;fill-opacity:1;fill-rule:evenodd;stroke:none"
                 id="path450"
                 inkscape:connector-curvature="0" /><path
                 d="m 327.3145,104.2323 0,0 0,-0.003 c 0,-1.2891 0.2545,-2.404 0.628,-2.9571 0.0691,-0.1025 0.1411,-0.1853 0.2157,-0.2434 0.0858,-0.0664 0.1771,-0.1024 0.2656,-0.1024 0.2877,0 0.5588,0.3567 0.7635,0.9349 0.2131,0.603 0.3458,1.4413 0.3458,2.368 l 0,0.003 c 0,0.9265 -0.1327,1.762 -0.3458,2.3678 -0.2047,0.5782 -0.4758,0.9352 -0.7635,0.9352 -0.2904,0 -0.5588,-0.357 -0.7635,-0.9322 -0.213,-0.6088 -0.3458,-1.4443 -0.3458,-2.3708 m -0.1798,-0.003 0,0.003 c 0,0.9487 0.1355,1.8062 0.3568,2.4288 0.2297,0.6502 0.5589,1.054 0.9323,1.054 0.3735,0 0.7027,-0.4038 0.9323,-1.054 0.2213,-0.6226 0.3569,-1.4801 0.3569,-2.4288 l 0,-0.003 c 0,-0.9459 -0.1356,-1.8064 -0.3569,-2.4287 -0.2296,-0.6501 -0.5588,-1.054 -0.9323,-1.054 -0.1328,0 -0.2573,0.0498 -0.3734,0.1383 -0.0913,0.0719 -0.1771,0.166 -0.2573,0.2848 -0.3929,0.5811 -0.6584,1.7374 -0.6584,3.0596"
                 style="fill:#fff30d;fill-opacity:1;fill-rule:nonzero;stroke:none"
                 id="path452"
                 inkscape:connector-curvature="0" /></g><g
               id="g5514"><path
                 d="m 338.5495,107.0685 -0.0414,-0.0858 c -0.0995,-0.6003 0.0857,-1.1729 -0.058,-1.7041 -0.0555,-0.1274 -0.2573,-0.1412 -0.3845,-0.0996 -0.1855,0.3293 0.0581,0.6446 -0.13,0.9877 0.0883,0.5007 -0.1855,1.1591 0.2294,1.6183 0.4288,0 0.2988,-0.4731 0.3845,-0.7165"
                 style="fill:#fff30d;fill-opacity:1;fill-rule:evenodd;stroke:none"
                 id="path394"
                 inkscape:connector-curvature="0" /><path
                 d="m 337.6798,107.3991 c 0.1439,-0.6169 0.0581,-1.4192 0.0858,-2.1329 0,-0.0858 -0.1024,-0.1577 -0.1577,-0.1854 l -0.213,-0.058 c -0.3292,0.5422 -0.1162,1.2172 -0.1715,1.859 0.0442,0.2462 0.0996,0.4315 0.2849,0.5892 0.072,0.0138 0.1273,-0.0166 0.1715,-0.0719"
                 style="fill:#fff30d;fill-opacity:1;fill-rule:evenodd;stroke:none"
                 id="path396"
                 inkscape:connector-curvature="0" /><path
                 d="m 339.1502,107.3699 c 0.1134,-0.6143 -0.0277,-1.2036 0.0277,-1.9311 -0.0997,-0.0886 -0.0277,-0.2573 -0.1577,-0.3016 -0.1273,-0.0443 -0.2267,0.0443 -0.2545,0.1439 -0.0305,0.6141 -0.072,1.2448 0,1.9171 0.0691,0.1272 0.1853,0.3292 0.3845,0.1717"
                 style="fill:#fff30d;fill-opacity:1;fill-rule:evenodd;stroke:none"
                 id="path398"
                 inkscape:connector-curvature="0" /><path
                 d="m 337.0375,106.5543 c 0,-0.5452 0.0139,-1.0459 -0.0719,-1.5743 -0.0553,-0.1438 -0.2434,-0.0442 -0.3126,-0.2157 0.0277,-0.1273 0.1549,-0.1992 0.2573,-0.2573 0.2711,-0.0443 0.4564,0.0996 0.6971,0.0857 0.2158,0.0858 0.4869,-0.058 0.6722,0.0996 0.3127,-0.0415 0.7276,0.1162 0.9406,-0.1272 -0.0857,-0.329 -0.5394,-0.2295 -0.7995,-0.3871 -0.1853,-0.072 -0.3983,-0.072 -0.556,-0.2298 -0.0139,-0.4426 -0.1273,-0.8879 0.0996,-1.2587 0.0719,0.0415 0.1853,0.1577 0.0719,0.2572 l 0.0581,0.6861 c 0.1853,0.2739 0.5118,0.2877 0.7967,0.4151 0.1743,0.072 0.5146,0.0443 0.6446,0.2295 0.0276,0.473 -0.1992,0.9295 0.1715,1.2891 0.2435,-0.0138 0.13,-0.5007 0.4979,-0.4314 0.0582,-0.1412 0,-0.3432 -0.0553,-0.4981 0,-0.4896 0,-1.0595 0.0277,-1.5462 -0.1577,-0.4594 -0.4841,-1.0182 -1.0568,-1.0457 -0.0996,-0.0581 -0.1576,-0.1136 -0.1992,-0.2158 0.0416,-0.1413 0.2573,-0.0555 0.2573,-0.2575 0.0415,-0.2434 0.0415,-0.5145 -0.1134,-0.7439 -0.2711,-0.0139 -0.545,-0.072 -0.7857,-0.1577 -0.2157,0.1298 -0.5007,0.0719 -0.7275,0.1577 -0.13,0 -0.2297,-0.0998 -0.3569,-0.0279 0.0138,0.2711 -0.0138,0.6584 -0.0719,0.9574 -0.1411,0.1576 -0.3016,0.2877 -0.4703,0.3871 -0.3016,1.2753 -0.1992,2.5921 -0.0443,3.8093 -0.0138,0.3128 0.0277,0.6861 0.1992,0.9295 0.2711,0.0858 0.1162,-0.2434 0.2296,-0.329"
                 style="fill:#fff30d;fill-opacity:1;fill-rule:evenodd;stroke:none"
                 id="path400"
                 inkscape:connector-curvature="0" /></g><g
               id="g5571"><path
                 d="m 346.3358,107.5123 c -0.0499,0.0856 -0.0196,0.1965 0.0662,0.2462 0.0885,0.0469 0.1964,0.0192 0.2462,-0.0693 l 3.4775,-6.111 c 0.0498,-0.0857 0.0194,-0.1962 -0.0664,-0.2434 -0.0857,-0.0498 -0.1966,-0.0194 -0.2462,0.0664"
                 style="fill:#fff30d;fill-opacity:1;fill-rule:nonzero;stroke:none"
                 id="path454"
                 inkscape:connector-curvature="0" /><path
                 d="m 346.4493,101.2717 c -0.0498,-0.0858 -0.1576,-0.1164 -0.2462,-0.0666 -0.0857,0.0472 -0.1134,0.1577 -0.0664,0.2462 l 3.4776,6.1082 c 0.0496,0.0887 0.1602,0.1162 0.246,0.0694 0.0859,-0.0498 0.1162,-0.1605 0.0664,-0.2462"
                 style="fill:#fff30d;fill-opacity:1;fill-rule:nonzero;stroke:none"
                 id="path456"
                 inkscape:connector-curvature="0" /><path
                 d="m 346.8942,104.225 c 0,1.8756 0.5367,3.3944 1.1979,3.3944 0.6639,0 1.2006,-1.5188 1.2006,-3.3944 0,-1.8758 -0.5367,-3.3946 -1.2006,-3.3946 -0.6612,0 -1.1979,1.5188 -1.1979,3.3946"
                 style="fill:#fff30d;fill-opacity:1;fill-rule:evenodd;stroke:none"
                 id="path458"
                 inkscape:connector-curvature="0" /><path
                 d="m 346.9129,103.8069 c 0,0 0.7882,-0.1494 1.1783,-0.1411 0.3901,0.0109 1.1785,0.1937 1.1785,0.1937 0,0 0.0278,-0.1413 0.008,-0.3043 -0.0164,-0.166 -0.0498,-0.4262 -0.0498,-0.4262 0,0 -0.971,-0.1824 -1.1619,-0.1824 -0.1909,0 -1.101,0.1051 -1.101,0.1051"
                 style="fill:#06121e;fill-opacity:1;fill-rule:evenodd;stroke:none"
                 id="path460"
                 inkscape:connector-curvature="0" /><path
                 d="m 349.149,102.6243 c 0,0 -0.105,-0.5644 -0.163,-0.678 -0.0611,-0.1132 -0.7305,-0.1464 -0.877,-0.1381 -0.1466,0.008 -0.8659,0.0608 -0.891,0.1051 -0.0274,0.0415 -0.1851,0.6335 -0.1936,0.711 0,0 0.6945,-0.1745 1.0763,-0.1549"
                 style="fill:#06121e;fill-opacity:1;fill-rule:evenodd;stroke:none"
                 id="path462"
                 inkscape:connector-curvature="0" /><path
                 d="m 347.3723,101.5378 c 0,0 0.6307,-0.1632 0.805,-0.1302 0.1743,0.0333 0.6252,0.0693 0.6612,0.1302 l -0.2603,-0.4262 c -0.0634,-0.0607 -0.47,-0.033 -0.5752,-0.033 -0.1025,0 -0.3624,0.0166 -0.4315,0.0857 -0.0692,0.069 -0.2269,0.329 -0.2269,0.365"
                 style="fill:#06121e;fill-opacity:1;fill-rule:evenodd;stroke:none"
                 id="path464"
                 inkscape:connector-curvature="0" /><path
                 d="m 347.4186,106.4341 c 0,0 0.1551,0.5284 0.368,0.6557 0.2157,0.13 0.4012,0.2296 0.6143,0.0138 0.2128,-0.213 0.2406,-0.3126 0.2847,-0.4841 0.0417,-0.1715 0.0555,-0.2711 0.0555,-0.2711 l -1.3363,0"
                 style="fill:#06121e;fill-opacity:1;fill-rule:evenodd;stroke:none"
                 id="path466"
                 inkscape:connector-curvature="0" /><path
                 d="m 352.2455,103.5355 c -0.155,-0.5533 -2.1385,-0.4788 -4.4316,0.1659 -2.2963,0.6472 -4.0279,1.6182 -3.8758,2.1715 0.1548,0.5535 2.1411,0.4786 4.4344,-0.1686 2.2935,-0.6447 4.0281,-1.6157 3.873,-2.1688"
                 style="fill:#fff30d;fill-opacity:1;fill-rule:evenodd;stroke:none"
                 id="path468"
                 inkscape:connector-curvature="0" /><path
                 d="m 352.4661,105.8743 c -0.0776,0.5505 -2.0748,0.4231 -4.465,-0.285 -2.3903,-0.7054 -4.2658,-1.7264 -4.1913,-2.2741 0.0777,-0.5504 2.0778,-0.4231 4.4678,0.2851 2.3902,0.7054 4.2659,1.7235 4.1885,2.274"
                 style="fill:#fff30d;fill-opacity:1;fill-rule:evenodd;stroke:none"
                 id="path470"
                 inkscape:connector-curvature="0" /><path
                 d="m 346.9831,104.2323 0,0 0,-0.003 c 0,-1.2891 0.2571,-2.404 0.6305,-2.9571 0.0666,-0.1025 0.1413,-0.1853 0.2158,-0.2434 0.0858,-0.0664 0.1743,-0.1024 0.263,-0.1024 0.2905,0 0.5587,0.3567 0.7635,0.9349 0.2129,0.603 0.3458,1.4413 0.3458,2.368 l 0,0.003 c 0,0.9265 -0.1329,1.762 -0.3458,2.3678 -0.2048,0.5782 -0.473,0.9352 -0.7635,0.9352 -0.2877,0 -0.559,-0.357 -0.7635,-0.9322 -0.2132,-0.6088 -0.3458,-1.4443 -0.3458,-2.3708 m -0.1798,-0.003 0,0.003 c 0,0.9487 0.1383,1.8062 0.3567,2.4288 0.2296,0.6502 0.5589,1.054 0.9324,1.054 0.3762,0 0.7025,-0.4038 0.9351,-1.054 0.2185,-0.6226 0.3541,-1.4801 0.3541,-2.4288 l 0,-0.003 c 0,-0.9459 -0.1356,-1.8064 -0.3541,-2.4287 -0.2326,-0.6501 -0.5589,-1.054 -0.9351,-1.054 -0.133,0 -0.2573,0.0498 -0.3735,0.1383 -0.0885,0.0719 -0.1743,0.166 -0.2545,0.2848 -0.3928,0.5811 -0.6611,1.7374 -0.6611,3.0596"
                 style="fill:#fff200;fill-opacity:1;fill-rule:nonzero;stroke:none"
                 id="path472"
                 inkscape:connector-curvature="0" /></g></g><path
             d="m 320.903,109.5074 c -0.006,-0.8937 -0.1604,-21.9266 0.003,-24.4937 0.3264,-5.2037 3.3999,-9.7517 8.8912,-13.1459 4.1026,-2.5368 8.0475,-3.5329 8.2107,-3.5742 l 0.1327,-0.0306 0.1301,0.0306 c 0.1687,0.0413 4.1413,1.0262 8.2606,3.5547 5.516,3.3916 8.5731,7.9451 8.847,13.1708 0.21,4.0279 0.2847,24.2115 0.2847,24.4164 l 0.003,0.5531 -34.7573,0.0666 -0.005,-0.5478 z m 9.45,-36.6854 c -5.234,3.2422 -8.0419,7.3669 -8.349,12.2607 -0.0525,0.841 -0.0719,3.8151 -0.0719,7.4112 0,6.2218 -0.003,14.2746 0.0111,16.4269 l 32.472,-0.006 0.008,-23.8961 c -0.2573,-4.9076 -3.1925,-8.977 -8.4431,-12.2137 -3.5825,-2.2074 -7.1428,-3.2201 -7.8372,-3.4054 -0.6916,0.1881 -4.2243,1.2117 -7.7902,3.422"
             style="fill:#fab217;fill-opacity:1;fill-rule:evenodd;stroke:none"
             id="path544"
             inkscape:connector-curvature="0" /></g></g></g></g></svg>