<?xml version="1.0" encoding="UTF-8" standalone="no"?>
<!-- Generator: Adobe Illustrator 21.0.2, SVG Export Plug-In . SVG Version: 6.00 Build 0)  -->

<svg
   xmlns:dc="http://purl.org/dc/elements/1.1/"
   xmlns:cc="http://creativecommons.org/ns#"
   xmlns:rdf="http://www.w3.org/1999/02/22-rdf-syntax-ns#"
   xmlns:svg="http://www.w3.org/2000/svg"
   xmlns="http://www.w3.org/2000/svg"
   xmlns:sodipodi="http://sodipodi.sourceforge.net/DTD/sodipodi-0.dtd"
   xmlns:inkscape="http://www.inkscape.org/namespaces/inkscape"
   version="1.1"
   id="Livello_1"
   x="0px"
   y="0px"
   width="700"
   height="700"
   viewBox="0 0 700.00001 699.99998"
   xml:space="preserve"
   sodipodi:docname="acf-fiorentina-logo.svg"
   inkscape:version="0.92.4 (5da689c313, 2019-01-14)"
   inkscape:export-filename="G:\Users\suitedoalex\sites\svg\fiorentina-logo-0.png"
   inkscape:export-xdpi="561.73712"
   inkscape:export-ydpi="561.73712"><metadata
   id="metadata31"><rdf:RDF><cc:Work
       rdf:about=""><dc:format>image/svg+xml</dc:format><dc:type
         rdf:resource="http://purl.org/dc/dcmitype/StillImage" /><dc:title></dc:title></cc:Work></rdf:RDF></metadata><defs
   id="defs29" /><sodipodi:namedview
   pagecolor="#ffffff"
   bordercolor="#666666"
   borderopacity="1"
   objecttolerance="10"
   gridtolerance="10"
   guidetolerance="10"
   inkscape:pageopacity="0"
   inkscape:pageshadow="2"
   inkscape:window-width="1600"
   inkscape:window-height="837"
   id="namedview27"
   showgrid="false"
   inkscape:zoom="0.48307192"
   inkscape:cx="-51.952349"
   inkscape:cy="453.8217"
   inkscape:window-x="-8"
   inkscape:window-y="-8"
   inkscape:window-maximized="1"
   inkscape:current-layer="Livello_1" />
<style
   type="text/css"
   id="style2">
	.st0{fill:#50408F;}
	.st1{fill:#B1A77A;}
	.st2{fill:#FFFFFF;}
	.st3{fill:#B33A2C;}
	.st4{fill-rule:evenodd;clip-rule:evenodd;fill:#FFFFFF;}
	.st5{fill-rule:evenodd;clip-rule:evenodd;fill:#CC2229;}
</style>

<g
   id="g24"
   transform="matrix(0.76864604,0,0,0.76695,171.36666,85.057122)"
   inkscape:export-xdpi="107.48272"
   inkscape:export-ydpi="107.48272"><g
     id="g10"><polygon
       class="st0"
       points="415.5,296 419.6,292.4 232.4,454.7 45.3,292.4 49.4,296 232.4,641.7 "
       id="polygon4"
       style="fill:#4e2b85;fill-opacity:1" /><path
       inkscape:connector-curvature="0"
       class="st1"
       d="M 233.9,1.6 232.4,0 0,253.1 232.4,690.9 464.8,253.1 Z M 49.4,296 l 183,158.8 183,-158.8 -183,345.8 z"
       id="path6"
       style="fill:#ac9e6f;fill-opacity:1" /><polygon
       class="st2"
       points="431.9,251.2 232.4,424.3 32.9,251.2 232.4,34 "
       id="polygon8"
       style="fill:#ffffff" /></g><path
     inkscape:connector-curvature="0"
     class="st3"
     d="m 322.9,210.6 c -38.3,0 -47.1,22.7 -69.8,58.2 0,-14.8 21.2,-59 44.2,-80.7 l 11.4,-2.6 v -16.7 l -15.6,2.4 -2.1,11.4 c -17.6,18.7 -31.1,39.4 -40.2,62.1 0,0 20.4,-57.9 20.4,-94.7 0,-45.7 -38.6,-73.3 -38.6,-73.3 0,0 -38.6,27.5 -38.6,73.3 0,36.8 20.4,94.7 20.4,94.7 -9.1,-22.8 -22.6,-43.5 -40.2,-62.1 l -2.1,-11.4 -15.6,-2.4 v 16.7 l 11.4,2.6 c 23,21.7 44.2,65.8 44.2,80.7 -22.7,-35.4 -31.5,-58.2 -69.8,-58.2 -38.3,0 -39.1,30.1 -39.1,37.3 0,16.4 9,30.1 18.8,33.3 9.8,3.2 36.8,-6.1 43.9,15.1 0,0 6.9,0.3 6.9,-10.6 0,-10.8 -16.9,-18.8 -16.9,-23.8 0,-5 3.4,-7.1 8.5,-7.1 5,0 39.7,4.5 49.8,65.8 h -18.6 v 9 h 18.5 c -2.2,9.2 -7.6,18.4 -14.8,27.8 h 15.9 c 0,15 4.7,24.8 17.7,25.7 13,-0.8 17.8,-10.6 17.7,-25.7 H 266 c -7.2,-9.3 -12.7,-18.6 -14.8,-27.8 h 18.5 v -9 h -18.6 c 10.2,-61.4 44.8,-65.8 49.8,-65.8 5,0 8.5,2.1 8.5,7.1 0,5 -16.9,13 -16.9,23.8 0,10.8 6.9,10.6 6.9,10.6 7.1,-21.2 34.1,-11.9 43.9,-15.1 9.8,-3.2 18.8,-16.9 18.8,-33.3 -0.1,-7.1 -0.9,-37.3 -39.2,-37.3 z"
     id="path12"
     style="fill:#ee2c23;fill-opacity:1" /></g><g
   id="g22"
   transform="matrix(0.81999833,0,0,0.77623694,160.93884,84.751614)"
   style="fill:#ffffff"
   inkscape:export-xdpi="107.48272"
   inkscape:export-ydpi="107.48272"><g
     id="g18"
     style="fill:#ffffff"><path
       inkscape:connector-curvature="0"
       class="st4"
       d="m 193.98066,482.73303 4.8,-17.4 4.8,17.4 z m 14.7,18.6 h 14.2 l -16.5,-48.5 h -14.9 l -16.4,48.5 h 13.9 l 2.2,-8 h 15.3 z"
       id="path14"
       style="clip-rule:evenodd;fill:#ffffff;fill-rule:evenodd" /><path
       inkscape:connector-curvature="0"
       class="st4"
       d="m 274.14507,481.61964 11.9,3.9 c -0.8,3.7 -2.1,6.8 -3.8,9.2 -1.7,2.5 -3.8,4.3 -6.4,5.6 -2.5,1.3 -5.8,1.9 -9.7,1.9 -4.8,0 -8.7,-0.8 -11.7,-2.3 -3,-1.5 -5.6,-4.2 -7.8,-8.1 -2.2,-3.9 -3.3,-8.8 -3.3,-14.8 0,-8 1.9,-14.2 5.8,-18.5 3.9,-4.3 9.3,-6.5 16.4,-6.5 5.5,0 9.8,1.2 13,3.7 3.2,2.5 5.5,6.3 7.1,11.4 l -12,2.9 c -0.4,-1.5 -0.9,-2.5 -1.3,-3.2 -0.8,-1.1 -1.7,-2 -2.8,-2.6 -1.1,-0.6 -2.3,-0.9 -3.7,-0.9 -3.1,0 -5.4,1.4 -7.1,4.1 -1.2,2 -1.9,5.2 -1.9,9.5 0,5.3 0.7,9 2.2,11 1.5,2 3.5,3 6.2,3 2.6,0 4.5,-0.8 5.8,-2.4 1.6,-1.5 2.5,-3.9 3.1,-6.9 z"
       id="path16"
       style="clip-rule:evenodd;fill:#ffffff;fill-rule:evenodd" /></g><polygon
     class="st5"
     points="215.7,567 215.7,518.5 249.2,518.5 249.2,529 229.3,529 229.3,537.4 246.3,537.4 246.3,547.2 229.3,547.2 229.3,567 "
     id="polygon20"
     style="clip-rule:evenodd;fill:#f42a1b;fill-opacity:1;fill-rule:evenodd" /></g></svg>