<?xml version="1.0" encoding="UTF-8"?>
<svg xmlns="http://www.w3.org/2000/svg" xmlns:xlink="http://www.w3.org/1999/xlink" width="283.19pt" height="299.06pt" viewBox="0 0 283.19 299.06" version="1.1">
<defs>
<clipPath id="clip1">
  <path d="M 0 15 L 283.191406 15 L 283.191406 299.058594 L 0 299.058594 Z M 0 15 "/>
</clipPath>
</defs>
<g id="surface1">
<g clip-path="url(#clip1)" clip-rule="nonzero">
<path style=" stroke:none;fill-rule:nonzero;fill:rgb(13.299561%,11.799622%,12.199402%);fill-opacity:1;" d="M 141.59375 249.324219 C 91.113281 249.324219 50.046875 208.109375 50.046875 157.449219 C 50.046875 132.847656 59.609375 109.734375 76.972656 92.371094 C 94.253906 75.089844 117.199219 65.574219 141.59375 65.574219 C 165.988281 65.574219 188.933594 75.089844 206.214844 92.371094 C 223.578125 109.734375 233.140625 132.847656 233.140625 157.449219 C 233.140625 208.109375 192.070313 249.324219 141.59375 249.324219 M 141.59375 15.839844 C 63.394531 15.839844 0 79.238281 0 157.449219 C 0 235.660156 63.394531 299.058594 141.59375 299.058594 C 219.792969 299.058594 283.1875 235.660156 283.1875 157.449219 C 283.1875 79.238281 219.792969 15.839844 141.59375 15.839844 "/>
</g>
<path style=" stroke:none;fill-rule:nonzero;fill:rgb(13.299561%,24.299622%,53.29895%);fill-opacity:1;" d="M 141.59375 251.304688 C 90.015625 251.304688 48.054688 209.203125 48.054688 157.449219 C 48.054688 132.320313 57.824219 108.714844 75.5625 90.976563 C 93.214844 73.320313 116.664063 63.59375 141.59375 63.59375 C 166.519531 63.59375 189.972656 73.320313 207.628906 90.976563 C 225.363281 108.714844 235.132813 132.320313 235.132813 157.449219 C 235.132813 209.203125 193.167969 251.304688 141.59375 251.304688 M 240.300781 58.710938 C 213.9375 32.339844 178.878906 17.816406 141.59375 17.816406 C 64.617188 17.816406 1.992188 80.457031 1.992188 157.449219 C 1.992188 234.445313 64.617188 297.078125 141.59375 297.078125 C 218.570313 297.078125 281.195313 234.445313 281.195313 157.449219 C 281.195313 120.148438 266.675781 85.085938 240.300781 58.710938 "/>
<path style=" stroke:none;fill-rule:nonzero;fill:rgb(100%,100%,100%);fill-opacity:1;" d="M 38.597656 163.085938 C 38.6875 166.359375 38.199219 169.441406 37.125 172.332031 L 30.535156 172.515625 C 31.222656 171.328125 31.734375 170.039063 32.085938 168.644531 C 32.429688 167.253906 32.585938 165.863281 32.546875 164.476563 C 32.503906 162.996094 32.148438 161.671875 31.488281 160.503906 C 30.820313 159.328125 29.910156 158.421875 28.753906 157.773438 C 27.601563 157.128906 26.292969 156.828125 24.835938 156.867188 C 22.546875 156.929688 20.851563 157.675781 19.746094 159.105469 C 18.640625 160.535156 18.117188 162.351563 18.179688 164.5625 C 18.203125 165.351563 18.246094 165.941406 18.3125 166.324219 L 21.394531 166.238281 L 21.304688 162.980469 L 26.898438 162.828125 L 27.1875 173.070313 L 13.101563 173.460938 C 13.003906 173.125 12.851563 172.515625 12.648438 171.621094 C 12.445313 170.734375 12.234375 169.570313 12.019531 168.140625 C 11.800781 166.710938 11.671875 165.214844 11.628906 163.648438 C 11.585938 162.140625 11.640625 160.785156 11.792969 159.59375 C 11.945313 158.398438 12.226563 157.253906 12.644531 156.160156 C 13.058594 155.066406 13.625 153.992188 14.34375 152.941406 C 14.933594 152.070313 15.707031 151.246094 16.660156 150.472656 C 17.609375 149.699219 18.730469 149.058594 20.015625 148.550781 C 21.300781 148.039063 22.679688 147.765625 24.148438 147.722656 C 26.339844 147.660156 28.328125 148.015625 30.105469 148.785156 C 31.890625 149.554688 33.398438 150.648438 34.640625 152.074219 C 35.878906 153.496094 36.835938 155.152344 37.503906 157.039063 C 38.171875 158.929688 38.535156 160.945313 38.597656 163.085938 "/>
<path style=" stroke:none;fill-rule:nonzero;fill:rgb(100%,100%,100%);fill-opacity:1;" d="M 39.21875 175.011719 L 44.257813 193.980469 L 38.890625 195.390625 L 36.171875 185.164063 L 31.632813 186.355469 L 34.113281 195.695313 L 28.816406 197.082031 L 26.335938 187.742188 L 21.589844 188.992188 L 24.332031 199.324219 L 18.851563 200.761719 L 13.78125 181.683594 "/>
<path style=" stroke:none;fill-rule:nonzero;fill:rgb(100%,100%,100%);fill-opacity:1;" d="M 44.015625 194.117188 L 55.847656 216.726563 L 49.988281 219.753906 L 46.175781 212.472656 L 28.691406 221.507813 L 24.4375 213.382813 L 41.925781 204.347656 L 38.15625 197.140625 "/>
<path style=" stroke:none;fill-rule:nonzero;fill:rgb(100%,100%,100%);fill-opacity:1;" d="M 57.617188 228.996094 L 47.035156 232.621094 L 52.378906 238.882813 Z M 59.757813 220.960938 L 65.992188 228.273438 L 53.78125 254.386719 L 47.867188 247.453125 L 50.007813 243.394531 L 42.25 234.296875 L 37.871094 235.730469 L 32.027344 228.882813 "/>
<path style=" stroke:none;fill-rule:nonzero;fill:rgb(100%,100%,100%);fill-opacity:1;" d="M 74.519531 236.769531 L 90.125 247.925781 L 86.882813 252.402344 L 78.664063 246.527344 L 75.859375 250.402344 L 83.574219 255.917969 L 80.332031 260.394531 L 72.621094 254.878906 L 66.53125 263.285156 L 59.144531 258.003906 "/>
<path style=" stroke:none;fill-rule:nonzero;fill:rgb(100%,100%,100%);fill-opacity:1;" d="M 91.246094 248.488281 L 109.308594 256.496094 L 107.039063 261.554688 L 97.304688 257.238281 L 95.398438 261.488281 L 104.285156 265.429688 L 102.050781 270.410156 L 93.160156 266.46875 L 91.167969 270.90625 L 101.003906 275.269531 L 98.691406 280.417969 L 80.527344 272.363281 "/>
<path style=" stroke:none;fill-rule:nonzero;fill:rgb(100%,100%,100%);fill-opacity:1;" d="M 136.179688 260.699219 C 138.125 260.84375 139.765625 261.097656 141.097656 261.457031 C 142.425781 261.820313 143.835938 262.371094 145.324219 263.105469 L 144.75 270.707031 C 143.460938 269.808594 142.269531 269.117188 141.164063 268.628906 C 140.058594 268.140625 138.789063 267.84375 137.347656 267.734375 C 135.90625 267.628906 134.601563 267.773438 133.433594 268.171875 C 132.269531 268.570313 131.324219 269.222656 130.601563 270.125 C 129.882813 271.027344 129.472656 272.148438 129.371094 273.496094 C 129.265625 274.910156 129.496094 276.132813 130.066406 277.164063 C 130.640625 278.195313 131.484375 278.996094 132.601563 279.574219 C 133.722656 280.152344 135.03125 280.5 136.539063 280.609375 C 139.117188 280.804688 141.730469 280.242188 144.363281 278.929688 L 143.84375 285.871094 C 142.746094 286.316406 141.667969 286.664063 140.617188 286.921875 C 139.5625 287.179688 138.472656 287.34375 137.339844 287.417969 C 136.207031 287.492188 134.96875 287.480469 133.628906 287.378906 C 131.449219 287.21875 129.484375 286.742188 127.742188 285.957031 C 125.996094 285.175781 124.535156 284.144531 123.359375 282.859375 C 122.183594 281.578125 121.320313 280.105469 120.765625 278.445313 C 120.214844 276.78125 120.011719 275.019531 120.148438 273.152344 C 120.359375 270.359375 121.199219 267.984375 122.660156 266.027344 C 124.125 264.070313 126.035156 262.644531 128.394531 261.738281 C 130.753906 260.832031 133.347656 260.488281 136.179688 260.699219 "/>
<path style=" stroke:none;fill-rule:nonzero;fill:rgb(100%,100%,100%);fill-opacity:1;" d="M 154.746094 277.496094 C 155.570313 277.40625 156.378906 277.519531 157.15625 277.84375 C 157.9375 278.164063 158.589844 278.660156 159.105469 279.324219 C 159.625 279.992188 159.929688 280.757813 160.027344 281.625 C 160.117188 282.457031 159.996094 283.253906 159.671875 284.015625 C 159.339844 284.777344 158.839844 285.410156 158.164063 285.921875 C 157.488281 286.433594 156.710938 286.734375 155.820313 286.835938 C 154.972656 286.925781 154.167969 286.800781 153.414063 286.457031 C 152.65625 286.113281 152.027344 285.605469 151.519531 284.933594 C 151.019531 284.257813 150.71875 283.511719 150.628906 282.695313 C 150.484375 281.402344 150.816406 280.25 151.625 279.230469 C 152.429688 278.214844 153.472656 277.632813 154.746094 277.496094 "/>
<path style=" stroke:none;fill-rule:nonzero;fill:rgb(100%,100%,100%);fill-opacity:1;" d="M 160.480469 259.769531 L 179.003906 254.65625 L 180.488281 259.972656 L 170.75 262.664063 L 172.03125 267.253906 L 181.175781 264.730469 L 182.660156 270.046875 L 173.519531 272.570313 L 176.308594 282.550781 L 167.527344 284.972656 "/>
<path style=" stroke:none;fill-rule:nonzero;fill:rgb(100%,100%,100%);fill-opacity:1;" d="M 191.558594 267.363281 C 192.3125 267.019531 193.109375 266.875 193.953125 266.9375 C 194.800781 266.996094 195.570313 267.261719 196.277344 267.730469 C 196.976563 268.199219 197.515625 268.828125 197.882813 269.621094 C 198.234375 270.382813 198.375 271.175781 198.304688 272.003906 C 198.234375 272.828125 197.960938 273.589844 197.484375 274.285156 C 197.007813 274.980469 196.363281 275.515625 195.550781 275.886719 C 194.773438 276.242188 193.972656 276.375 193.148438 276.285156 C 192.316406 276.199219 191.558594 275.914063 190.867188 275.4375 C 190.175781 274.953125 189.652344 274.339844 189.304688 273.59375 C 188.757813 272.414063 188.707031 271.214844 189.144531 269.996094 C 189.589844 268.777344 190.390625 267.898438 191.558594 267.363281 "/>
<path style=" stroke:none;fill-rule:nonzero;fill:rgb(100%,100%,100%);fill-opacity:1;" d="M 207.503906 236.871094 C 208.757813 235.828125 210.054688 235.0625 211.382813 234.578125 C 212.71875 234.089844 214.125 233.832031 215.613281 233.800781 L 220.050781 239.078125 C 218.523438 239.027344 217.15625 239.101563 215.945313 239.304688 C 214.734375 239.503906 213.699219 239.964844 212.835938 240.679688 C 212.324219 241.105469 211.949219 241.605469 211.710938 242.179688 C 211.472656 242.753906 211.558594 243.285156 211.976563 243.777344 C 212.21875 244.066406 212.574219 244.246094 213.046875 244.320313 C 213.519531 244.390625 213.980469 244.371094 214.4375 244.269531 L 219.242188 243.277344 C 222.453125 242.582031 225.015625 243.371094 226.925781 245.636719 C 228.445313 247.449219 228.960938 249.515625 228.464844 251.839844 C 228.21875 253.011719 227.75 254.066406 227.0625 255.003906 C 226.371094 255.945313 225.449219 256.890625 224.304688 257.847656 C 223.015625 258.914063 221.785156 259.753906 220.625 260.359375 C 219.460938 260.964844 218.058594 261.535156 216.421875 262.078125 L 211.832031 256.621094 C 212.382813 256.523438 212.945313 256.425781 213.519531 256.324219 C 214.09375 256.21875 214.675781 256.085938 215.273438 255.921875 C 215.867188 255.757813 216.484375 255.523438 217.128906 255.21875 C 217.769531 254.914063 218.355469 254.546875 218.882813 254.109375 C 220.289063 252.941406 220.609375 251.910156 219.859375 251.015625 C 219.398438 250.472656 218.71875 250.289063 217.804688 250.472656 L 212.644531 251.46875 C 211.34375 251.730469 210.015625 251.617188 208.652344 251.136719 C 207.289063 250.652344 206.183594 249.90625 205.335938 248.902344 C 204.269531 247.632813 203.675781 246.277344 203.554688 244.839844 C 203.433594 243.398438 203.726563 241.988281 204.433594 240.609375 C 205.144531 239.226563 206.164063 237.980469 207.503906 236.871094 "/>
<path style=" stroke:none;fill-rule:nonzero;fill:rgb(100%,100%,100%);fill-opacity:1;" d="M 231.734375 237.605469 C 232.28125 236.984375 232.953125 236.535156 233.753906 236.25 C 234.550781 235.96875 235.363281 235.898438 236.195313 236.046875 C 237.027344 236.195313 237.773438 236.558594 238.433594 237.136719 C 239.066406 237.6875 239.519531 238.359375 239.796875 239.140625 C 240.066406 239.925781 240.128906 240.730469 239.976563 241.558594 C 239.824219 242.386719 239.453125 243.132813 238.863281 243.796875 C 238.300781 244.433594 237.621094 244.875 236.828125 245.128906 C 236.035156 245.378906 235.226563 245.421875 234.394531 245.257813 C 233.570313 245.101563 232.84375 244.746094 232.222656 244.203125 C 231.242188 243.339844 230.703125 242.265625 230.605469 240.972656 C 230.511719 239.679688 230.890625 238.558594 231.734375 237.605469 "/>
<path style=" stroke:none;fill-rule:nonzero;fill:rgb(100%,100%,100%);fill-opacity:1;" d="M 237.226563 212.4375 L 244.277344 221.070313 L 248.363281 213.933594 Z M 228.882813 213.191406 L 233.652344 204.863281 L 262.539063 207.304688 L 258.015625 215.207031 L 253.445313 214.601563 L 247.511719 224.96875 L 250.363281 228.566406 L 245.890625 236.367188 "/>
<path style=" stroke:none;fill-rule:nonzero;fill:rgb(100%,100%,100%);fill-opacity:1;" d="M 256.347656 194.695313 C 256.605469 193.910156 257.039063 193.230469 257.65625 192.652344 C 258.273438 192.074219 258.992188 191.6875 259.8125 191.492188 C 260.636719 191.292969 261.464844 191.328125 262.304688 191.597656 C 263.105469 191.855469 263.789063 192.285156 264.351563 192.898438 C 264.914063 193.507813 265.296875 194.222656 265.488281 195.046875 C 265.683594 195.867188 265.640625 196.699219 265.367188 197.539063 C 265.101563 198.351563 264.660156 199.027344 264.035156 199.574219 C 263.410156 200.117188 262.6875 200.484375 261.859375 200.664063 C 261.035156 200.847656 260.226563 200.8125 259.4375 200.558594 C 258.195313 200.160156 257.269531 199.390625 256.667969 198.238281 C 256.0625 197.089844 255.957031 195.910156 256.347656 194.695313 "/>
<path style=" stroke:none;fill-rule:nonzero;fill:rgb(100%,100%,100%);fill-opacity:1;" d="M 250.050781 174.34375 L 263.710938 175.929688 L 263.914063 174.183594 C 264.070313 172.578125 264.03125 171.246094 263.789063 170.183594 C 263.550781 169.121094 262.972656 168.246094 262.0625 167.566406 C 261.148438 166.886719 259.792969 166.441406 257.984375 166.230469 C 255.464844 165.9375 253.609375 166.347656 252.433594 167.457031 C 251.253906 168.566406 250.53125 170.253906 250.265625 172.511719 Z M 242.761719 182.722656 L 244.308594 169.582031 C 244.535156 167.648438 245.058594 165.863281 245.878906 164.226563 C 246.699219 162.59375 247.769531 161.207031 249.082031 160.074219 C 250.394531 158.941406 251.929688 158.117188 253.679688 157.59375 C 255.433594 157.070313 257.328125 156.929688 259.359375 157.164063 C 261.808594 157.449219 263.945313 158.226563 265.761719 159.492188 C 267.570313 160.757813 268.90625 162.398438 269.765625 164.414063 C 270.625 166.433594 270.910156 168.644531 270.625 171.058594 L 268.894531 185.757813 "/>
<path style=" stroke:none;fill-rule:nonzero;fill:rgb(100%,100%,100%);fill-opacity:1;" d="M 261.851563 148.210938 C 261.789063 147.390625 261.933594 146.597656 262.285156 145.832031 C 262.640625 145.066406 263.15625 144.4375 263.847656 143.949219 C 264.535156 143.460938 265.316406 143.183594 266.195313 143.117188 C 267.035156 143.054688 267.832031 143.199219 268.585938 143.554688 C 269.34375 143.90625 269.964844 144.425781 270.453125 145.113281 C 270.945313 145.800781 271.222656 146.585938 271.289063 147.46875 C 271.351563 148.3125 271.199219 149.105469 270.824219 149.84375 C 270.453125 150.582031 269.921875 151.191406 269.226563 151.667969 C 268.527344 152.144531 267.769531 152.414063 266.941406 152.476563 C 265.636719 152.574219 264.488281 152.203125 263.488281 151.367188 C 262.496094 150.53125 261.945313 149.480469 261.851563 148.210938 "/>
<path style=" stroke:none;fill-rule:nonzero;fill:rgb(13.299561%,11.799622%,12.199402%);fill-opacity:1;" d="M 184.542969 52.816406 C 179.453125 76.390625 156.097656 91.394531 132.378906 86.339844 C 108.65625 81.277344 93.554688 58.070313 98.644531 34.5 C 103.730469 10.929688 127.089844 -4.078125 150.808594 0.980469 C 174.53125 6.039063 189.632813 29.246094 184.542969 52.816406 "/>
<path style=" stroke:none;fill-rule:nonzero;fill:rgb(100%,100%,100%);fill-opacity:1;" d="M 153.875 5.730469 L 155.527344 4.707031 C 153.847656 4.117188 152.128906 3.585938 150.335938 3.203125 C 143.492188 1.742188 136.6875 2.074219 130.382813 3.835938 L 132.507813 5.617188 "/>
<path style=" stroke:none;fill-rule:nonzero;fill:rgb(100%,100%,100%);fill-opacity:1;" d="M 158.835938 21.101563 L 151.234375 33.550781 L 155.089844 46.992188 L 167.617188 52.601563 L 178.460938 45.890625 L 171.582031 22.003906 "/>
<path style=" stroke:none;fill-rule:nonzero;fill:rgb(100%,100%,100%);fill-opacity:1;" d="M 111.808594 19.117188 L 110.960938 15.707031 C 106.089844 20.960938 102.492188 27.5 100.878906 34.976563 C 100.125 38.460938 99.890625 41.929688 100.03125 45.335938 L 103.011719 43.496094 "/>
<path style=" stroke:none;fill-rule:nonzero;fill:rgb(100%,100%,100%);fill-opacity:1;" d="M 180.828125 45.90625 L 183.019531 47.738281 C 184.089844 37.023438 180.875 26.660156 174.617188 18.527344 L 173.636719 20.929688 "/>
<path style=" stroke:none;fill-rule:nonzero;fill:rgb(100%,100%,100%);fill-opacity:1;" d="M 128.644531 46.382813 L 133.34375 33.632813 L 126.046875 20.875 L 113.902344 20.007813 L 105.386719 43.601563 L 115.128906 51.757813 "/>
<path style=" stroke:none;fill-rule:nonzero;fill:rgb(100%,100%,100%);fill-opacity:1;" d="M 152.5 82.636719 L 152.082031 83.65625 C 161.027344 81.324219 168.980469 76.078125 174.625 68.777344 L 171.746094 68.574219 "/>
<path style=" stroke:none;fill-rule:nonzero;fill:rgb(100%,100%,100%);fill-opacity:1;" d="M 134.949219 31.867188 L 149.289063 32.390625 L 157.121094 19.554688 L 154.238281 7.992188 L 133.039063 7.875 L 128.117188 19.925781 L 134.945313 31.867188 "/>
<path style=" stroke:none;fill-rule:nonzero;fill:rgb(100%,100%,100%);fill-opacity:1;" d="M 129.335938 48.539063 L 115.851563 53.898438 L 110.980469 65.808594 L 128.851563 78.460938 L 139.785156 71.699219 L 140.394531 57.15625 "/>
<path style=" stroke:none;fill-rule:nonzero;fill:rgb(100%,100%,100%);fill-opacity:1;" d="M 154.628906 49.261719 L 142.664063 57.25 L 142.070313 71.550781 L 152.214844 80.042969 L 169.90625 67.113281 L 166.820313 54.71875 "/>
<path style=" stroke:none;fill-rule:nonzero;fill:rgb(100%,100%,100%);fill-opacity:1;" d="M 108.90625 67.109375 L 107.277344 66.996094 C 112.359375 74.375 119.804688 80.160156 128.84375 83.046875 L 128.292969 80.835938 "/>
<path style=" stroke:none;fill-rule:nonzero;fill:rgb(13.299561%,11.799622%,12.199402%);fill-opacity:1;" d="M 212.371094 82.773438 L 69.824219 82.773438 L 69.824219 185.710938 C 69.824219 225.039063 102.019531 257.035156 141.59375 257.035156 C 181.167969 257.035156 213.367188 225.039063 213.367188 185.710938 L 213.367188 82.773438 "/>
<path style=" stroke:none;fill-rule:nonzero;fill:rgb(92.498779%,91.398621%,30.599976%);fill-opacity:1;" d="M 93.699219 132.648438 C 93.832031 132.46875 93.890625 132.277344 94.003906 132.09375 L 71.816406 132.09375 L 71.816406 150.566406 L 92.289063 150.566406 C 88.785156 143.371094 91.503906 135.554688 93.699219 132.648438 "/>
<path style=" stroke:none;fill-rule:nonzero;fill:rgb(92.498779%,91.398621%,30.599976%);fill-opacity:1;" d="M 96.429688 110.40625 C 96.9375 110.386719 97.375 110.753906 97.445313 111.253906 C 97.726563 113.230469 100.132813 116.023438 101.996094 117.878906 C 101.996094 117.824219 101.996094 117.769531 101.996094 117.714844 C 101.996094 112.167969 101.324219 107.953125 101.316406 107.90625 C 101.308594 107.855469 101.304688 107.804688 101.304688 107.75 C 101.304688 107.359375 101.539063 106.996094 101.914063 106.84375 C 102.335938 106.667969 102.828125 106.804688 103.09375 107.175781 C 103.234375 107.371094 106.085938 111.539063 107.667969 117.109375 C 108.539063 115.246094 109.589844 112.65625 109.589844 110.664063 C 109.589844 110.203125 109.910156 109.808594 110.363281 109.707031 C 110.8125 109.605469 111.277344 109.832031 111.472656 110.25 C 111.550781 110.414063 112.960938 113.472656 112.980469 117.785156 C 113.375 117.234375 113.847656 116.683594 114.304688 116.128906 L 114.304688 84.753906 L 95.710938 84.753906 L 95.710938 110.824219 C 95.882813 110.59375 96.117188 110.417969 96.429688 110.40625 "/>
<path style=" stroke:none;fill-rule:nonzero;fill:rgb(95.698547%,86.698914%,26.699829%);fill-opacity:1;" d="M 95.710938 115.703125 L 95.710938 118.261719 C 95.878906 118.429688 96.046875 118.59375 96.210938 118.761719 C 95.976563 117.648438 95.824219 116.640625 95.710938 115.703125 "/>
<path style=" stroke:none;fill-rule:nonzero;fill:rgb(92.498779%,91.398621%,30.599976%);fill-opacity:1;" d="M 108.0625 164.171875 C 107.832031 164.277344 107.5625 164.289063 107.320313 164.210938 C 107.097656 164.132813 102.070313 162.292969 95.710938 155.332031 L 95.710938 237.824219 C 101.226563 242.628906 107.46875 246.628906 114.304688 249.523438 L 114.304688 159.238281 C 110.871094 162.765625 108.222656 164.089844 108.0625 164.171875 "/>
<path style=" stroke:none;fill-rule:nonzero;fill:rgb(92.498779%,91.398621%,30.599976%);fill-opacity:1;" d="M 120.695313 150.566406 L 141.59375 150.566406 L 141.59375 132.09375 L 118.53125 132.09375 C 121.222656 135.617188 124.242188 143.152344 120.695313 150.566406 "/>
<path style=" stroke:none;fill-rule:nonzero;fill:rgb(74.899292%,12.199402%,14.498901%);fill-opacity:1;" d="M 141.59375 84.753906 L 116.28125 84.753906 L 116.28125 115.230469 C 116.46875 115.371094 116.617188 115.554688 116.660156 115.792969 C 116.703125 116.011719 117.65625 121.125 116.613281 124.019531 C 116.449219 124.472656 116.378906 124.871094 116.28125 125.285156 L 116.28125 128.757813 C 116.433594 129.246094 116.652344 129.703125 116.949219 130.128906 L 141.59375 130.128906 "/>
<path style=" stroke:none;fill-rule:nonzero;fill:rgb(74.899292%,12.199402%,14.498901%);fill-opacity:1;" d="M 91.390625 117.09375 C 91.339844 116.738281 91.480469 116.386719 91.761719 116.164063 C 92.042969 115.949219 92.425781 115.898438 92.753906 116.039063 C 93.078125 116.175781 93.40625 116.367188 93.734375 116.589844 L 93.734375 84.753906 L 71.816406 84.753906 L 71.816406 130.128906 L 93.734375 130.128906 L 93.734375 125.726563 C 93.714844 125.691406 93.710938 125.65625 93.691406 125.617188 C 92.300781 122.976563 91.429688 117.328125 91.390625 117.09375 "/>
<path style=" stroke:none;fill-rule:nonzero;fill:rgb(74.899292%,12.199402%,14.498901%);fill-opacity:1;" d="M 116.28125 250.265625 C 124.140625 253.316406 132.660156 255.058594 141.59375 255.058594 L 141.59375 152.53125 L 119.601563 152.53125 C 118.476563 154.28125 117.363281 155.734375 116.28125 157.03125 "/>
<path style=" stroke:none;fill-rule:nonzero;fill:rgb(74.899292%,12.199402%,14.498901%);fill-opacity:1;" d="M 71.816406 152.53125 L 71.816406 185.710938 C 71.816406 205.53125 80.269531 223.390625 93.734375 236.039063 L 93.734375 152.992188 C 93.625 152.839844 93.507813 152.691406 93.402344 152.53125 "/>
<path style=" stroke:none;fill-rule:nonzero;fill:rgb(100%,100%,100%);fill-opacity:1;" d="M 193.675781 122.351563 L 194.0625 122.214844 L 193.679688 117.214844 C 193.507813 116.757813 192.835938 115.355469 191.761719 115.355469 C 190.230469 115.355469 184.316406 113.507813 183.816406 112.726563 C 183.84375 111.996094 187.703125 111.246094 192.101563 111.242188 L 192.476563 111.242188 L 193.765625 107.757813 C 194.101563 106.671875 194.765625 105.492188 195.183594 105.492188 C 195.59375 105.492188 196.238281 106.667969 196.550781 107.722656 L 197.851563 111.242188 L 198.226563 111.242188 C 202.628906 111.246094 206.476563 111.996094 206.476563 112.84375 C 206.007813 113.507813 200.09375 115.355469 198.558594 115.355469 C 197.488281 115.355469 196.8125 116.757813 196.691406 117.039063 L 196.253906 122.210938 C 196.253906 122.210938 196.914063 122.449219 197.152344 122.539063 C 197.234375 122.988281 197.707031 125.488281 197.875 126.378906 L 192.40625 126.378906 C 192.574219 125.492188 193.039063 123.003906 193.128906 122.542969 C 193.375 122.460938 193.675781 122.351563 193.675781 122.351563 "/>
<path style=" stroke:none;fill-rule:nonzero;fill:rgb(100%,100%,100%);fill-opacity:1;" d="M 156.628906 122.355469 L 157.023438 122.214844 L 156.621094 117.214844 C 156.457031 116.757813 155.785156 115.355469 154.714844 115.355469 C 153.183594 115.355469 147.269531 113.507813 146.773438 112.726563 C 146.800781 111.996094 150.652344 111.246094 155.046875 111.242188 L 155.425781 111.242188 L 156.714844 107.757813 C 157.050781 106.675781 157.722656 105.492188 158.132813 105.492188 C 158.546875 105.492188 159.195313 106.667969 159.5 107.722656 L 160.800781 111.242188 L 161.179688 111.242188 C 165.578125 111.246094 169.433594 111.996094 169.433594 112.84375 C 168.964844 113.507813 163.042969 115.355469 161.511719 115.355469 C 160.4375 115.355469 159.765625 116.757813 159.644531 117.039063 L 159.210938 122.210938 C 159.210938 122.210938 159.867188 122.449219 160.105469 122.539063 C 160.1875 122.988281 160.65625 125.488281 160.824219 126.378906 L 155.359375 126.378906 C 155.527344 125.492188 155.996094 123.003906 156.078125 122.546875 C 156.328125 122.460938 156.628906 122.355469 156.628906 122.355469 "/>
<path style=" stroke:none;fill-rule:nonzero;fill:rgb(100%,100%,100%);fill-opacity:1;" d="M 193.679688 169.816406 L 194.0625 169.675781 L 193.679688 164.679688 C 193.507813 164.222656 192.835938 162.824219 191.761719 162.824219 C 190.226563 162.824219 184.308594 160.972656 183.816406 160.195313 C 183.84375 159.464844 187.703125 158.714844 192.101563 158.714844 L 192.476563 158.714844 L 193.765625 155.230469 C 194.101563 154.148438 194.765625 152.96875 195.183594 152.96875 C 195.59375 152.96875 196.238281 154.140625 196.550781 155.195313 L 197.851563 158.714844 L 198.226563 158.714844 C 202.628906 158.714844 206.476563 159.464844 206.476563 160.3125 C 206.011719 160.972656 200.097656 162.824219 198.558594 162.824219 C 197.488281 162.824219 196.8125 164.222656 196.691406 164.507813 L 196.253906 169.671875 C 196.253906 169.671875 196.914063 169.921875 197.148438 170.007813 C 197.234375 170.453125 197.707031 172.953125 197.871094 173.84375 L 192.40625 173.84375 C 192.574219 172.957031 193.046875 170.472656 193.128906 170.019531 C 193.378906 169.925781 193.679688 169.816406 193.679688 169.816406 "/>
<path style=" stroke:none;fill-rule:nonzero;fill:rgb(100%,100%,100%);fill-opacity:1;" d="M 156.636719 169.816406 L 157.023438 169.679688 L 156.621094 164.679688 C 156.457031 164.222656 155.785156 162.824219 154.714844 162.824219 C 153.179688 162.824219 147.269531 160.972656 146.773438 160.195313 C 146.800781 159.464844 150.652344 158.714844 155.046875 158.714844 L 155.425781 158.714844 L 156.714844 155.230469 C 157.050781 154.148438 157.722656 152.96875 158.132813 152.96875 C 158.546875 152.96875 159.195313 154.140625 159.5 155.195313 L 160.800781 158.714844 L 161.179688 158.714844 C 165.578125 158.714844 169.433594 159.464844 169.433594 160.3125 C 168.964844 160.972656 163.042969 162.824219 161.511719 162.824219 C 160.4375 162.824219 159.765625 164.222656 159.644531 164.507813 L 159.210938 169.671875 C 159.210938 169.671875 159.867188 169.921875 160.101563 170.007813 C 160.1875 170.457031 160.65625 172.953125 160.824219 173.84375 L 155.359375 173.84375 C 155.527344 172.957031 155.996094 170.472656 156.078125 170.019531 C 156.328125 169.929688 156.636719 169.816406 156.636719 169.816406 "/>
<path style=" stroke:none;fill-rule:nonzero;fill:rgb(100%,100%,100%);fill-opacity:1;" d="M 193.675781 217.289063 L 194.0625 217.152344 L 193.679688 212.160156 C 193.511719 211.707031 192.835938 210.292969 191.761719 210.292969 C 190.226563 210.292969 184.308594 208.445313 183.816406 207.671875 C 183.84375 206.9375 187.703125 206.191406 192.101563 206.191406 L 192.476563 206.191406 L 193.765625 202.699219 C 194.097656 201.617188 194.765625 200.441406 195.183594 200.441406 C 195.59375 200.441406 196.238281 201.613281 196.550781 202.65625 L 197.851563 206.191406 L 198.226563 206.191406 C 202.628906 206.191406 206.476563 206.9375 206.476563 207.785156 C 206.011719 208.445313 200.097656 210.292969 198.558594 210.292969 C 197.488281 210.292969 196.8125 211.707031 196.691406 211.988281 L 196.253906 217.148438 C 196.253906 217.148438 196.914063 217.390625 197.152344 217.480469 C 197.234375 217.929688 197.707031 220.429688 197.875 221.316406 L 192.40625 221.316406 C 192.574219 220.433594 193.039063 217.941406 193.128906 217.484375 C 193.375 217.398438 193.675781 217.289063 193.675781 217.289063 "/>
<path style=" stroke:none;fill-rule:nonzero;fill:rgb(100%,100%,100%);fill-opacity:1;" d="M 156.628906 217.292969 L 157.023438 217.152344 L 156.621094 212.160156 C 156.457031 211.707031 155.785156 210.292969 154.714844 210.292969 C 153.179688 210.292969 147.269531 208.445313 146.773438 207.671875 C 146.800781 206.9375 150.652344 206.191406 155.046875 206.191406 L 155.425781 206.191406 L 156.714844 202.699219 C 157.050781 201.621094 157.722656 200.441406 158.132813 200.441406 C 158.546875 200.441406 159.195313 201.613281 159.5 202.65625 L 160.800781 206.191406 L 161.179688 206.191406 C 165.578125 206.191406 169.433594 206.9375 169.433594 207.785156 C 168.964844 208.445313 163.042969 210.292969 161.511719 210.292969 C 160.4375 210.292969 159.765625 211.707031 159.644531 211.988281 L 159.210938 217.148438 C 159.210938 217.148438 159.867188 217.390625 160.105469 217.480469 C 160.1875 217.929688 160.65625 220.429688 160.824219 221.316406 L 155.359375 221.316406 C 155.527344 220.433594 155.996094 217.941406 156.078125 217.488281 C 156.328125 217.398438 156.628906 217.292969 156.628906 217.292969 "/>
<path style=" stroke:none;fill-rule:nonzero;fill:rgb(100%,100%,100%);fill-opacity:1;" d="M 174.996094 144.078125 L 175.390625 143.941406 L 174.996094 138.941406 C 174.832031 138.480469 174.160156 137.074219 173.089844 137.074219 C 171.550781 137.074219 165.632813 135.222656 165.140625 134.449219 C 165.167969 133.734375 169.101563 132.972656 173.414063 132.96875 L 173.796875 132.96875 L 175.085938 129.484375 C 175.417969 128.398438 176.09375 127.21875 176.507813 127.21875 C 176.917969 127.21875 177.5625 128.394531 177.867188 129.445313 L 179.167969 132.96875 L 179.546875 132.96875 C 183.871094 132.972656 187.808594 133.734375 187.808594 134.5625 C 187.339844 135.222656 181.414063 137.074219 179.878906 137.074219 C 178.804688 137.074219 178.132813 138.480469 178.011719 138.765625 L 177.582031 143.929688 C 177.582031 143.929688 178.238281 144.175781 178.472656 144.265625 C 178.558594 144.714844 179.027344 147.207031 179.191406 148.097656 L 173.730469 148.097656 C 173.894531 147.210938 174.359375 144.730469 174.445313 144.273438 C 174.699219 144.183594 174.996094 144.078125 174.996094 144.078125 "/>
<path style=" stroke:none;fill-rule:nonzero;fill:rgb(100%,100%,100%);fill-opacity:1;" d="M 174.996094 193.859375 L 175.390625 193.722656 L 174.996094 188.71875 C 174.832031 188.261719 174.160156 186.859375 173.089844 186.859375 C 171.558594 186.859375 165.636719 185.011719 165.140625 184.230469 C 165.167969 183.5 169.023438 182.753906 173.414063 182.753906 L 173.796875 182.753906 L 175.085938 179.269531 C 175.417969 178.179688 176.09375 176.996094 176.507813 176.996094 C 176.917969 176.996094 177.5625 178.175781 177.867188 179.230469 L 179.167969 182.753906 L 179.546875 182.753906 C 183.949219 182.753906 187.808594 183.5 187.808594 184.351563 C 187.335938 185.011719 181.410156 186.859375 179.878906 186.859375 C 178.804688 186.859375 178.132813 188.261719 178.011719 188.542969 L 177.582031 193.710938 C 177.582031 193.710938 178.238281 193.957031 178.472656 194.042969 C 178.558594 194.496094 179.027344 196.992188 179.195313 197.882813 L 173.730469 197.882813 C 173.894531 196.996094 174.359375 194.507813 174.445313 194.050781 C 174.699219 193.964844 174.996094 193.859375 174.996094 193.859375 "/>
<path style=" stroke:none;fill-rule:nonzero;fill:rgb(92.498779%,91.398621%,30.599976%);fill-opacity:1;" d="M 92.820313 145.972656 C 92.878906 146.261719 92.964844 146.554688 93.039063 146.847656 L 119.933594 146.847656 C 120.214844 145.683594 120.367188 144.535156 120.367188 143.441406 C 120.367188 143.175781 120.328125 142.925781 120.316406 142.667969 C 116.433594 142.714844 109.9375 142.90625 108.074219 143.472656 C 106.132813 144.070313 100.613281 145.75 92.820313 145.972656 "/>
<path style=" stroke:none;fill-rule:nonzero;fill:rgb(74.899292%,12.199402%,14.498901%);fill-opacity:1;" d="M 116.1875 132.378906 C 114.726563 130.921875 114 129.214844 114 127.210938 C 114 126.03125 114.25 124.75 114.753906 123.359375 C 115.027344 122.597656 115.121094 121.554688 115.121094 120.488281 C 115.121094 119.757813 115.0625 119.046875 115.003906 118.367188 C 113.453125 120.429688 112.433594 122.421875 112.421875 122.441406 C 112.203125 122.894531 111.675781 123.101563 111.203125 122.933594 C 110.804688 122.792969 110.546875 122.417969 110.546875 122.007813 C 110.546875 121.9375 110.554688 121.863281 110.574219 121.789063 C 110.886719 120.429688 111.007813 119.121094 111.007813 117.921875 C 111.007813 116.738281 110.878906 115.703125 110.714844 114.765625 C 109.761719 117.59375 108.347656 120.1875 108.257813 120.347656 C 108.050781 120.703125 107.640625 120.894531 107.230469 120.824219 C 106.820313 120.753906 106.496094 120.441406 106.425781 120.03125 C 105.886719 117.027344 104.785156 114.355469 103.761719 112.285156 C 103.878906 113.84375 103.976563 115.601563 103.976563 117.667969 C 103.976563 118.46875 103.960938 119.296875 103.933594 120.144531 C 103.917969 120.523438 103.6875 120.863281 103.339844 121.011719 C 102.992188 121.164063 102.585938 121.101563 102.300781 120.855469 C 101.894531 120.511719 99.554688 118.363281 97.707031 115.894531 C 97.957031 117.8125 98.421875 120.136719 99.355469 122.574219 C 99.398438 122.6875 99.417969 122.808594 99.417969 122.921875 C 99.417969 123.277344 99.226563 123.613281 98.894531 123.789063 C 98.457031 124.023438 97.910156 123.894531 97.625 123.492188 C 96.96875 122.566406 95.347656 120.523438 93.78125 119.121094 C 94.148438 120.9375 94.714844 123.324219 95.441406 124.703125 C 96.339844 126.394531 96.785156 127.988281 96.785156 129.472656 C 96.785156 131.046875 96.28125 132.507813 95.277344 133.832031 C 95.230469 133.894531 95.164063 133.996094 95.113281 134.078125 L 117.488281 134.078125 C 116.980469 133.300781 116.511719 132.699219 116.1875 132.378906 "/>
<path style=" stroke:none;fill-rule:nonzero;fill:rgb(74.899292%,12.199402%,14.498901%);fill-opacity:1;" d="M 96.164063 152.917969 C 101.980469 159.667969 106.621094 161.789063 107.578125 162.179688 C 108.507813 161.679688 113.152344 158.9375 117.980469 151.40625 C 118.539063 150.539063 118.945313 149.675781 119.292969 148.8125 L 93.6875 148.8125 C 94.253906 150.195313 95.015625 151.585938 96.164063 152.917969 "/>
<path style=" stroke:none;fill-rule:nonzero;fill:rgb(92.498779%,91.398621%,30.599976%);fill-opacity:1;" d="M 92.621094 141.671875 C 92.574219 142.171875 92.542969 142.683594 92.542969 143.207031 C 92.542969 143.46875 92.59375 143.746094 92.605469 144.007813 C 100.210938 143.8125 105.605469 142.179688 107.492188 141.59375 C 109.699219 140.921875 116.601563 140.75 120.097656 140.703125 C 119.949219 139.890625 119.757813 139.113281 119.515625 138.382813 C 115.59375 138.441406 109.816406 138.644531 108.074219 139.175781 C 106.121094 139.777344 100.515625 141.472656 92.621094 141.671875 "/>
<path style=" stroke:none;fill-rule:nonzero;fill:rgb(92.498779%,91.398621%,30.599976%);fill-opacity:1;" d="M 94.070313 136.042969 C 93.636719 137.042969 93.214844 138.292969 92.917969 139.703125 C 100.363281 139.472656 105.632813 137.871094 107.492188 137.296875 C 109.449219 136.699219 115.078125 136.5 118.769531 136.429688 C 118.707031 136.296875 118.648438 136.171875 118.585938 136.042969 "/>
<path style=" stroke:none;fill-rule:nonzero;fill:rgb(22.698975%,59.199524%,36.099243%);fill-opacity:1;" d="M 207.5625 160.3125 C 207.5625 162.074219 199.558594 163.902344 198.558594 163.902344 C 198.324219 163.902344 197.894531 164.460938 197.726563 164.761719 C 197.726563 164.761719 197.453125 168.285156 197.402344 168.949219 C 197.609375 169.03125 198.109375 169.222656 198.109375 169.222656 L 199.183594 174.921875 L 191.105469 174.921875 L 192.179688 169.214844 C 192.179688 169.214844 192.695313 169.027344 192.921875 168.941406 C 192.875 168.273438 192.640625 164.941406 192.640625 164.941406 C 192.425781 164.460938 191.996094 163.902344 191.761719 163.902344 C 190.765625 163.902344 182.757813 162.074219 182.757813 160.3125 C 182.757813 157.933594 189.25 157.664063 191.714844 157.648438 C 191.917969 157.109375 192.738281 154.890625 192.738281 154.890625 C 192.890625 154.386719 193.722656 151.890625 195.183594 151.890625 C 196.644531 151.890625 197.441406 154.394531 197.578125 154.859375 C 197.578125 154.859375 198.40625 157.105469 198.609375 157.648438 C 201.074219 157.664063 207.5625 157.933594 207.5625 160.3125 M 198.609375 205.121094 C 201.074219 205.144531 207.5625 205.402344 207.5625 207.785156 C 207.5625 209.546875 199.558594 211.371094 198.558594 211.371094 C 198.324219 211.371094 197.894531 211.933594 197.726563 212.246094 C 197.726563 212.246094 197.453125 215.75 197.402344 216.417969 C 197.609375 216.496094 198.105469 216.683594 198.105469 216.683594 L 199.179688 222.394531 L 191.105469 222.394531 L 192.179688 216.679688 C 192.179688 216.679688 192.695313 216.492188 192.921875 216.410156 C 192.875 215.742188 192.640625 212.417969 192.640625 212.417969 C 192.425781 211.933594 191.996094 211.371094 191.761719 211.371094 C 190.765625 211.371094 182.757813 209.546875 182.757813 207.785156 C 182.757813 205.402344 189.25 205.144531 191.714844 205.121094 C 191.917969 204.578125 192.738281 202.355469 192.738281 202.355469 C 192.890625 201.855469 193.722656 199.363281 195.183594 199.363281 C 196.644531 199.363281 197.441406 201.859375 197.578125 202.328125 C 197.578125 202.328125 198.410156 204.578125 198.609375 205.121094 M 172.425781 198.960938 L 173.496094 193.242188 C 173.496094 193.242188 174.019531 193.058594 174.246094 192.980469 C 174.199219 192.300781 173.960938 188.976563 173.960938 188.976563 C 173.746094 188.496094 173.320313 187.9375 173.089844 187.9375 C 172.101563 187.9375 164.082031 186.0625 164.082031 184.351563 C 164.082031 181.96875 170.570313 181.707031 173.035156 181.6875 C 173.234375 181.148438 174.058594 178.925781 174.058594 178.925781 C 174.214844 178.425781 175.050781 175.917969 176.507813 175.917969 C 177.976563 175.917969 178.765625 178.433594 178.894531 178.898438 C 178.894531 178.898438 179.726563 181.144531 179.929688 181.6875 C 182.394531 181.707031 188.894531 181.96875 188.894531 184.351563 C 188.894531 186.0625 180.863281 187.9375 179.878906 187.9375 C 179.644531 187.9375 179.21875 188.496094 179.046875 188.800781 C 179.046875 188.800781 178.777344 192.320313 178.726563 192.992188 C 178.933594 193.066406 179.425781 193.25 179.425781 193.25 L 180.5 198.960938 Z M 161.511719 211.371094 C 161.277344 211.371094 160.847656 211.933594 160.679688 212.246094 C 160.679688 212.246094 160.402344 215.75 160.351563 216.417969 C 160.566406 216.496094 161.054688 216.683594 161.054688 216.683594 L 162.128906 222.394531 L 154.058594 222.394531 L 155.128906 216.675781 C 155.128906 216.675781 155.652344 216.492188 155.878906 216.410156 C 155.828125 215.738281 155.589844 212.417969 155.589844 212.417969 C 155.371094 211.933594 154.945313 211.371094 154.714844 211.371094 C 153.714844 211.371094 145.714844 209.546875 145.714844 207.785156 C 145.714844 205.402344 152.199219 205.144531 154.664063 205.121094 C 154.863281 204.578125 155.6875 202.351563 155.6875 202.351563 C 155.84375 201.851563 156.683594 199.363281 158.132813 199.363281 C 159.597656 199.363281 160.394531 201.859375 160.527344 202.328125 C 160.527344 202.328125 161.363281 204.578125 161.5625 205.121094 C 164.027344 205.144531 170.519531 205.402344 170.519531 207.785156 C 170.519531 209.546875 162.511719 211.371094 161.511719 211.371094 M 154.058594 174.921875 L 155.128906 169.214844 C 155.128906 169.214844 155.652344 169.023438 155.882813 168.941406 C 155.828125 168.269531 155.589844 164.9375 155.589844 164.9375 C 155.371094 164.460938 154.945313 163.902344 154.714844 163.902344 C 153.714844 163.902344 145.714844 162.074219 145.714844 160.3125 C 145.714844 157.933594 152.199219 157.664063 154.664063 157.648438 C 154.863281 157.105469 155.683594 154.890625 155.683594 154.890625 C 155.84375 154.386719 156.683594 151.890625 158.132813 151.890625 C 159.597656 151.890625 160.394531 154.394531 160.527344 154.859375 C 160.527344 154.859375 161.359375 157.105469 161.5625 157.648438 C 164.027344 157.664063 170.519531 157.933594 170.519531 160.3125 C 170.519531 162.074219 162.511719 163.902344 161.511719 163.902344 C 161.277344 163.902344 160.847656 164.460938 160.679688 164.761719 C 160.679688 164.761719 160.402344 168.285156 160.351563 168.949219 C 160.566406 169.03125 161.058594 169.222656 161.058594 169.222656 L 162.128906 174.921875 Z M 154.058594 127.457031 L 155.128906 121.738281 C 155.128906 121.738281 155.652344 121.554688 155.878906 121.472656 C 155.828125 120.796875 155.589844 117.472656 155.589844 117.472656 C 155.371094 116.992188 154.945313 116.433594 154.714844 116.433594 C 153.726563 116.433594 145.714844 114.554688 145.714844 112.84375 C 145.714844 110.464844 152.199219 110.199219 154.664063 110.175781 C 154.863281 109.636719 155.683594 107.414063 155.683594 107.414063 C 155.84375 106.914063 156.683594 104.414063 158.132813 104.414063 C 159.597656 104.414063 160.394531 106.921875 160.527344 107.386719 C 160.527344 107.386719 161.363281 109.632813 161.5625 110.175781 C 164.027344 110.199219 170.519531 110.464844 170.519531 112.84375 C 170.519531 114.554688 162.5 116.433594 161.511719 116.433594 C 161.277344 116.433594 160.847656 116.992188 160.679688 117.296875 C 160.679688 117.296875 160.402344 120.808594 160.351563 121.480469 C 160.566406 121.558594 161.054688 121.746094 161.054688 121.746094 L 162.128906 127.457031 Z M 173.035156 131.898438 C 173.230469 131.359375 174.058594 129.140625 174.058594 129.140625 C 174.214844 128.636719 175.050781 126.140625 176.507813 126.140625 C 177.976563 126.140625 178.765625 128.644531 178.894531 129.109375 C 178.894531 129.109375 179.726563 131.355469 179.929688 131.898438 C 182.394531 131.921875 188.894531 132.191406 188.894531 134.5625 C 188.894531 136.324219 180.878906 138.152344 179.878906 138.152344 C 179.644531 138.152344 179.21875 138.714844 179.046875 139.019531 C 179.046875 139.019531 178.777344 142.539063 178.726563 143.207031 C 178.933594 143.285156 179.425781 143.46875 179.425781 143.46875 L 180.503906 149.175781 L 172.425781 149.175781 L 173.496094 143.460938 C 173.496094 143.460938 174.019531 143.277344 174.246094 143.199219 C 174.199219 142.519531 173.960938 139.195313 173.960938 139.195313 C 173.746094 138.714844 173.320313 138.152344 173.089844 138.152344 C 172.089844 138.152344 164.082031 136.324219 164.082031 134.5625 C 164.082031 132.191406 170.570313 131.921875 173.035156 131.898438 M 191.714844 110.175781 C 191.917969 109.636719 192.738281 107.414063 192.738281 107.414063 C 192.890625 106.914063 193.722656 104.414063 195.183594 104.414063 C 196.644531 104.414063 197.441406 106.921875 197.578125 107.386719 C 197.578125 107.386719 198.410156 109.632813 198.609375 110.175781 C 201.074219 110.199219 207.5625 110.464844 207.5625 112.84375 C 207.5625 114.554688 199.546875 116.433594 198.558594 116.433594 C 198.324219 116.433594 197.894531 116.992188 197.726563 117.296875 C 197.726563 117.296875 197.453125 120.808594 197.402344 121.480469 C 197.609375 121.558594 198.105469 121.746094 198.105469 121.746094 L 199.179688 127.457031 L 191.105469 127.457031 L 192.179688 121.738281 C 192.179688 121.738281 192.695313 121.554688 192.921875 121.472656 C 192.875 120.800781 192.640625 117.476563 192.640625 117.476563 C 192.425781 116.992188 191.996094 116.433594 191.761719 116.433594 C 190.773438 116.433594 182.757813 114.554688 182.757813 112.84375 C 182.757813 110.464844 189.25 110.199219 191.714844 110.175781 M 207.589844 143.464844 C 207.589844 143.464844 208.105469 143.277344 208.328125 143.203125 C 208.28125 142.523438 208.050781 139.191406 208.050781 139.191406 C 207.84375 138.714844 207.414063 138.152344 207.179688 138.152344 C 206.179688 138.152344 198.171875 136.324219 198.171875 134.5625 C 198.171875 132.191406 204.660156 131.921875 207.125 131.898438 C 207.328125 131.359375 208.152344 129.140625 208.152344 129.140625 C 208.308594 128.636719 209.144531 126.140625 210.597656 126.140625 C 210.890625 126.140625 211.136719 126.257813 211.375 126.410156 L 211.375 99.394531 L 206.519531 99.394531 L 207.589844 93.679688 C 207.589844 93.679688 208.105469 93.492188 208.328125 93.414063 C 208.28125 92.738281 208.050781 89.410156 208.050781 89.410156 C 207.84375 88.929688 207.414063 88.371094 207.179688 88.371094 C 206.179688 88.371094 198.171875 86.546875 198.171875 84.785156 C 198.171875 84.773438 198.183594 84.765625 198.183594 84.753906 L 188.878906 84.753906 C 188.878906 84.765625 188.894531 84.773438 188.894531 84.785156 C 188.894531 86.546875 180.878906 88.371094 179.878906 88.371094 C 179.644531 88.371094 179.21875 88.929688 179.046875 89.234375 C 179.046875 89.234375 178.777344 92.753906 178.726563 93.421875 C 178.933594 93.5 179.425781 93.683594 179.425781 93.683594 L 180.5 99.394531 L 172.425781 99.394531 L 173.496094 93.675781 C 173.496094 93.675781 174.019531 93.492188 174.246094 93.410156 C 174.199219 92.734375 173.960938 89.410156 173.960938 89.410156 C 173.746094 88.929688 173.320313 88.371094 173.089844 88.371094 C 172.089844 88.371094 164.082031 86.546875 164.082031 84.785156 C 164.082031 84.773438 164.089844 84.765625 164.089844 84.753906 L 154.78125 84.753906 C 154.78125 84.765625 154.792969 84.773438 154.792969 84.785156 C 154.792969 86.546875 146.789063 88.371094 145.789063 88.371094 C 145.554688 88.371094 145.128906 88.929688 144.953125 89.234375 C 144.953125 89.234375 144.6875 92.753906 144.632813 93.421875 C 144.84375 93.5 145.328125 93.683594 145.328125 93.683594 L 146.394531 99.394531 L 141.59375 99.394531 L 141.59375 126.441406 C 141.84375 126.265625 142.113281 126.140625 142.417969 126.140625 C 143.878906 126.140625 144.667969 128.644531 144.796875 129.109375 C 144.796875 129.109375 145.636719 131.359375 145.839844 131.898438 C 148.304688 131.921875 154.792969 132.191406 154.792969 134.5625 C 154.792969 136.324219 146.789063 138.152344 145.789063 138.152344 C 145.558594 138.152344 145.128906 138.714844 144.953125 139.019531 C 144.953125 139.019531 144.6875 142.539063 144.632813 143.207031 C 144.84375 143.285156 145.328125 143.46875 145.328125 143.46875 L 146.394531 149.175781 L 141.59375 149.175781 L 141.59375 176.21875 C 141.84375 176.046875 142.113281 175.917969 142.417969 175.917969 C 143.878906 175.917969 144.667969 178.433594 144.796875 178.898438 C 144.796875 178.898438 145.636719 181.148438 145.839844 181.6875 C 148.304688 181.707031 154.792969 181.96875 154.792969 184.351563 C 154.792969 186.0625 146.777344 187.9375 145.789063 187.9375 C 145.554688 187.9375 145.128906 188.496094 144.953125 188.800781 C 144.953125 188.800781 144.6875 192.320313 144.632813 192.992188 C 144.84375 193.066406 145.328125 193.25 145.328125 193.25 L 146.394531 198.960938 L 141.59375 198.960938 L 141.59375 226.007813 C 141.84375 225.832031 142.113281 225.703125 142.417969 225.703125 C 143.878906 225.703125 144.667969 228.210938 144.796875 228.675781 C 144.796875 228.675781 145.636719 230.925781 145.839844 231.464844 C 148.304688 231.484375 154.792969 231.746094 154.792969 234.128906 C 154.792969 235.890625 146.789063 237.714844 145.789063 237.714844 C 145.554688 237.714844 145.128906 238.277344 144.953125 238.578125 C 144.953125 238.578125 144.6875 242.097656 144.632813 242.769531 C 144.84375 242.84375 145.328125 243.027344 145.328125 243.027344 L 146.394531 248.738281 L 141.59375 248.738281 L 141.59375 255.058594 C 152.742188 255.058594 163.257813 252.386719 172.613281 247.738281 L 173.496094 243.019531 C 173.496094 243.019531 174.019531 242.839844 174.246094 242.757813 C 174.199219 242.078125 173.960938 238.757813 173.960938 238.757813 C 173.746094 238.277344 173.320313 237.714844 173.089844 237.714844 C 172.089844 237.714844 164.082031 235.890625 164.082031 234.128906 C 164.082031 231.746094 170.570313 231.484375 173.035156 231.464844 C 173.234375 230.925781 174.058594 228.703125 174.058594 228.703125 C 174.214844 228.203125 175.050781 225.703125 176.507813 225.703125 C 177.976563 225.703125 178.765625 228.210938 178.894531 228.675781 C 178.894531 228.675781 179.726563 230.921875 179.929688 231.464844 C 182.394531 231.484375 188.894531 231.746094 188.894531 234.128906 C 188.894531 235.890625 180.878906 237.714844 179.878906 237.714844 C 179.644531 237.714844 179.21875 238.277344 179.046875 238.578125 C 179.046875 238.578125 178.777344 242.097656 178.726563 242.769531 C 178.933594 242.84375 179.425781 243.027344 179.425781 243.027344 L 179.554688 243.726563 C 195.085938 233.65625 206.304688 217.667969 209.972656 198.960938 L 206.519531 198.960938 L 207.589844 193.246094 C 207.589844 193.246094 208.105469 193.058594 208.328125 192.980469 C 208.28125 192.304688 208.050781 188.976563 208.050781 188.976563 C 207.84375 188.496094 207.414063 187.9375 207.179688 187.9375 C 206.191406 187.9375 198.171875 186.0625 198.171875 184.351563 C 198.171875 181.96875 204.660156 181.707031 207.125 181.6875 C 207.328125 181.148438 208.152344 178.925781 208.152344 178.925781 C 208.308594 178.425781 209.144531 175.917969 210.597656 175.917969 C 210.890625 175.917969 211.136719 176.035156 211.375 176.191406 L 211.375 149.175781 L 206.519531 149.175781 "/>
<path style=" stroke:none;fill-rule:nonzero;fill:rgb(100%,100%,100%);fill-opacity:1;" d="M 174.996094 89.152344 L 175.390625 94.15625 L 174.996094 94.292969 C 174.996094 94.292969 174.699219 94.398438 174.445313 94.484375 C 174.359375 94.945313 173.894531 97.429688 173.730469 98.316406 L 179.195313 98.316406 C 179.027344 97.425781 178.558594 94.929688 178.472656 94.476563 C 178.238281 94.390625 177.582031 94.144531 177.582031 94.144531 L 178.011719 88.976563 C 178.132813 88.695313 178.804688 87.292969 179.878906 87.292969 C 181.414063 87.292969 187.339844 85.445313 187.808594 84.785156 C 187.808594 84.773438 187.792969 84.765625 187.792969 84.753906 L 165.246094 84.753906 C 166.050781 85.566406 171.597656 87.292969 173.089844 87.292969 C 174.160156 87.292969 174.832031 88.695313 174.996094 89.152344 "/>
<path style=" stroke:none;fill-rule:nonzero;fill:rgb(100%,100%,100%);fill-opacity:1;" d="M 144.375 94.476563 C 144.144531 94.390625 143.488281 94.144531 143.488281 94.144531 L 143.917969 88.976563 C 144.042969 88.695313 144.714844 87.292969 145.789063 87.292969 C 147.324219 87.292969 153.242188 85.445313 153.707031 84.785156 C 153.707031 84.773438 153.691406 84.765625 153.691406 84.753906 L 141.59375 84.753906 L 141.59375 98.316406 L 145.097656 98.316406 C 144.929688 97.425781 144.464844 94.929688 144.375 94.476563 "/>
<path style=" stroke:none;fill-rule:nonzero;fill:rgb(100%,100%,100%);fill-opacity:1;" d="M 144.378906 144.265625 C 144.144531 144.175781 143.488281 143.929688 143.488281 143.929688 L 143.917969 138.765625 C 144.042969 138.480469 144.714844 137.074219 145.789063 137.074219 C 147.324219 137.074219 153.242188 135.222656 153.707031 134.5625 C 153.707031 133.734375 149.777344 132.972656 145.457031 132.96875 L 145.078125 132.96875 L 143.769531 129.445313 C 143.464844 128.394531 142.824219 127.21875 142.417969 127.21875 C 142.191406 127.21875 141.882813 127.589844 141.59375 128.097656 L 141.59375 148.097656 L 145.097656 148.097656 C 144.929688 147.207031 144.464844 144.714844 144.378906 144.265625 "/>
<path style=" stroke:none;fill-rule:nonzero;fill:rgb(100%,100%,100%);fill-opacity:1;" d="M 144.375 194.042969 C 144.144531 193.957031 143.488281 193.710938 143.488281 193.710938 L 143.917969 188.542969 C 144.042969 188.261719 144.714844 186.859375 145.789063 186.859375 C 147.320313 186.859375 153.238281 185.011719 153.707031 184.351563 C 153.707031 183.5 149.851563 182.753906 145.457031 182.753906 L 145.078125 182.753906 L 143.769531 179.230469 C 143.464844 178.175781 142.824219 176.996094 142.417969 176.996094 C 142.191406 176.996094 141.882813 177.371094 141.59375 177.878906 L 141.59375 197.882813 L 145.097656 197.882813 C 144.929688 196.992188 144.464844 194.496094 144.375 194.042969 "/>
<path style=" stroke:none;fill-rule:nonzero;fill:rgb(100%,100%,100%);fill-opacity:1;" d="M 177.582031 243.488281 L 178.011719 238.324219 C 178.132813 238.039063 178.804688 236.640625 179.878906 236.640625 C 181.414063 236.640625 187.339844 234.789063 187.808594 234.128906 C 187.808594 233.28125 183.949219 232.53125 179.546875 232.53125 L 179.167969 232.53125 L 177.867188 229.011719 C 177.5625 227.957031 176.917969 226.785156 176.507813 226.785156 C 176.09375 226.785156 175.417969 227.964844 175.085938 229.050781 L 173.796875 232.53125 L 173.414063 232.53125 C 169.023438 232.53125 165.167969 233.28125 165.140625 234.015625 C 165.632813 234.789063 171.550781 236.640625 173.089844 236.640625 C 174.160156 236.640625 174.832031 238.039063 174.996094 238.496094 L 175.390625 243.5 L 174.996094 243.636719 C 174.996094 243.636719 174.699219 243.746094 174.445313 243.828125 C 174.371094 244.226563 174.027344 246.074219 173.820313 247.152344 C 175.453125 246.308594 177.027344 245.378906 178.582031 244.40625 C 178.53125 244.152344 178.492188 243.925781 178.472656 243.824219 C 178.238281 243.734375 177.582031 243.488281 177.582031 243.488281 "/>
<path style=" stroke:none;fill-rule:nonzero;fill:rgb(100%,100%,100%);fill-opacity:1;" d="M 144.375 243.824219 C 144.144531 243.734375 143.488281 243.488281 143.488281 243.488281 L 143.917969 238.324219 C 144.042969 238.039063 144.714844 236.640625 145.789063 236.640625 C 147.324219 236.640625 153.242188 234.789063 153.707031 234.128906 C 153.707031 233.28125 149.851563 232.53125 145.457031 232.53125 L 145.078125 232.53125 L 143.769531 229.011719 C 143.464844 227.957031 142.824219 226.785156 142.417969 226.785156 C 142.191406 226.785156 141.882813 227.15625 141.59375 227.660156 L 141.59375 247.660156 L 145.097656 247.660156 C 144.929688 246.773438 144.464844 244.277344 144.375 243.824219 "/>
<path style=" stroke:none;fill-rule:nonzero;fill:rgb(100%,100%,100%);fill-opacity:1;" d="M 209.089844 89.152344 L 209.472656 94.152344 L 209.082031 94.289063 C 209.082031 94.289063 208.789063 94.398438 208.542969 94.480469 C 208.457031 94.941406 207.992188 97.429688 207.824219 98.316406 L 211.375 98.316406 L 211.375 84.753906 L 199.339844 84.753906 C 200.140625 85.566406 205.6875 87.292969 207.179688 87.292969 C 208.261719 87.292969 208.925781 88.699219 209.089844 89.152344 "/>
<path style=" stroke:none;fill-rule:nonzero;fill:rgb(100%,100%,100%);fill-opacity:1;" d="M 210.597656 127.21875 C 210.1875 127.21875 209.515625 128.398438 209.183594 129.484375 L 207.890625 132.96875 L 207.507813 132.96875 C 203.1875 132.972656 199.257813 133.734375 199.230469 134.449219 C 199.722656 135.222656 205.640625 137.074219 207.179688 137.074219 C 208.261719 137.074219 208.925781 138.484375 209.089844 138.941406 L 209.472656 143.9375 L 209.082031 144.074219 C 209.082031 144.074219 208.789063 144.183594 208.542969 144.269531 C 208.457031 144.726563 207.992188 147.210938 207.824219 148.097656 L 211.375 148.097656 L 211.375 128.046875 C 211.109375 127.566406 210.820313 127.21875 210.597656 127.21875 "/>
<path style=" stroke:none;fill-rule:nonzero;fill:rgb(100%,100%,100%);fill-opacity:1;" d="M 210.597656 176.996094 C 210.1875 176.996094 209.515625 178.179688 209.183594 179.269531 L 207.890625 182.753906 L 207.507813 182.753906 C 203.109375 182.753906 199.257813 183.5 199.230469 184.230469 C 199.726563 185.011719 205.644531 186.859375 207.179688 186.859375 C 208.261719 186.859375 208.925781 188.265625 209.089844 188.71875 L 209.472656 193.714844 L 209.082031 193.855469 C 209.082031 193.855469 208.789063 193.964844 208.542969 194.046875 C 208.457031 194.507813 207.992188 196.996094 207.824219 197.882813 L 210.230469 197.882813 C 210.941406 193.921875 211.375 189.867188 211.375 185.710938 L 211.375 177.828125 C 211.109375 177.351563 210.820313 176.996094 210.597656 176.996094 "/>
</g>
</svg>
