<?xml version="1.0" encoding="UTF-8" standalone="no"?>
<svg
   xmlns:dc="http://purl.org/dc/elements/1.1/"
   xmlns:cc="http://creativecommons.org/ns#"
   xmlns:rdf="http://www.w3.org/1999/02/22-rdf-syntax-ns#"
   xmlns:svg="http://www.w3.org/2000/svg"
   xmlns="http://www.w3.org/2000/svg"
   xmlns:sodipodi="http://sodipodi.sourceforge.net/DTD/sodipodi-0.dtd"
   xmlns:inkscape="http://www.inkscape.org/namespaces/inkscape"
   version="1.1"
   id="Ebene_1"
   x="0px"
   y="0px"
   viewBox="0 0 4096 4096"
   enable-background="new 0 0 100 100"
   xml:space="preserve"
   sodipodi:docname="hoffenheim.svg"
   width="4096"
   height="4096"
   inkscape:export-filename="C:\Users\suitedoalex\sites\hoffenheim-logo-0.png"
   inkscape:export-xdpi="96"
   inkscape:export-ydpi="96"
   inkscape:version="0.92.4 (5da689c313, 2019-01-14)"><metadata
     id="metadata35"><rdf:RDF><cc:Work
         rdf:about=""><dc:format>image/svg+xml</dc:format><dc:type
           rdf:resource="http://purl.org/dc/dcmitype/StillImage" /><dc:title></dc:title></cc:Work></rdf:RDF></metadata><defs
     id="defs33" /><sodipodi:namedview
     pagecolor="#ffffff"
     bordercolor="#666666"
     borderopacity="1"
     objecttolerance="10"
     gridtolerance="10"
     guidetolerance="10"
     inkscape:pageopacity="0"
     inkscape:pageshadow="2"
     inkscape:window-width="1600"
     inkscape:window-height="837"
     id="namedview31"
     showgrid="false"
     inkscape:zoom="0.10429825"
     inkscape:cx="2380.8189"
     inkscape:cy="2032.6001"
     inkscape:window-x="-8"
     inkscape:window-y="-8"
     inkscape:window-maximized="1"
     inkscape:current-layer="Ebene_1" /><g
     id="g28"
     transform="matrix(36.129046,0,0,36.129046,241.54372,241.5477)"
     inkscape:export-filename="C:\Users\suitedoalex\sites\hoffenheim-logo-4.png"
     inkscape:export-xdpi="14.105556"
     inkscape:export-ydpi="14.105556"><g
       id="g10"><g
         id="g8"><g
           id="g6"><path
             d="M 87.086,59.282 87.07,59.154 86.34,58.379 C 79.82,51.304 76.75,44.331 77.213,37.654 77.805,29.147 84.111,23.93 84.174,23.88 l 0.859,-0.689 -4.762,-11.792 -1.482,0.912 C 78.746,12.337 74.477,14.89 68.508,14.89 62.233,14.89 56.36,12.192 51.049,6.872 L 50.007,5.827 48.964,6.872 c -5.311,5.32 -11.185,8.018 -17.459,8.018 -5.992,0 -10.234,-2.551 -10.276,-2.576 l -1.487,-0.921 -4.35,10.776 -0.41,1.021 0.854,0.69 c 0.063,0.051 6.372,5.258 6.963,13.775 0.472,6.786 -2.705,13.874 -9.442,21.067 l -0.424,0.46 0.036,0.364 C 12.948,59.711 15.251,77.194 31.162,81.378 44.938,85 48.676,91.361 48.709,91.42 l 1.28,2.365 1.307,-2.356 c 0.037,-0.063 3.785,-6.4 17.557,-10.052 8.096,-2.146 12.613,-7.805 14.979,-12.174 2.484,-4.591 3.336,-9.297 3.254,-9.921 z"
             id="path2"
             inkscape:connector-curvature="0"
             style="fill:#ffffff" /><path
             d="M 49.983,95 48.197,91.697 C 48.169,91.65 44.413,85.465 31.013,81.941 22.575,79.722 17.958,73.8 15.573,69.224 13.17,64.614 12.468,60.41 12.395,59.601 h -0.008 l -0.062,-0.623 0.601,-0.653 c 6.625,-7.073 9.75,-14.014 9.29,-20.631 C 21.645,29.47 15.529,24.382 15.468,24.331 l -1.189,-0.959 0.57,-1.421 4.61,-11.419 2.076,1.286 c 0.037,0.022 4.187,2.489 9.969,2.489 6.113,0 11.849,-2.64 17.046,-7.846 L 50.006,5 51.463,6.459 c 5.195,5.206 10.932,7.846 17.045,7.846 5.762,0 9.938,-2.47 9.979,-2.495 l 2.068,-1.271 5.184,12.835 -1.199,0.96 c -0.057,0.047 -6.174,5.163 -6.742,13.359 -0.453,6.51 2.566,13.336 8.971,20.289 l 0.857,0.909 0.041,0.316 c 0.109,0.856 -0.859,5.723 -3.322,10.272 -2.418,4.47 -7.043,10.259 -15.34,12.46 -13.404,3.553 -17.166,9.719 -17.201,9.78 z M 13.555,59.557 c 0.115,0.889 2.599,17.271 17.754,21.257 14.003,3.683 17.871,10.253 17.908,10.318 l 0.778,1.439 0.792,-1.426 c 0.041,-0.071 3.912,-6.62 17.918,-10.333 7.893,-2.094 12.303,-7.619 14.613,-11.887 2.291,-4.233 3.197,-8.707 3.191,-9.516 L 85.913,58.778 C 79.278,51.575 76.155,44.456 76.63,37.612 77.237,28.884 83.739,23.48 83.804,23.426 l 0.525,-0.421 -4.342,-10.75 -0.895,0.55 c -0.047,0.028 -4.461,2.665 -10.586,2.665 -6.436,0 -12.447,-2.755 -17.871,-8.188 l -0.63,-0.632 -0.63,0.631 c -5.424,5.434 -11.438,8.189 -17.872,8.189 -6.148,0 -10.536,-2.635 -10.58,-2.662 l -0.901,-0.558 -4.34,10.753 0.519,0.419 c 0.065,0.052 6.567,5.383 7.179,14.189 0.483,6.954 -2.746,14.189 -9.599,21.505 l -0.243,0.265 0.017,0.171 z"
             id="path4"
             inkscape:connector-curvature="0"
             style="fill:#005ca8" /></g></g></g><g
       id="g14"><path
         d="M 68.055,43.727 65.59,41.665 c -0.137,-0.115 -0.475,-0.447 -0.475,-0.742 0.004,-0.268 0.051,-0.34 0.24,-0.563 0.4,-0.478 0.826,-0.293 1.197,0.016 l 2.535,2.123 0.5,-0.593 -2.783,-2.329 c -0.863,-0.722 -1.467,-0.181 -1.789,0.203 -0.279,0.333 -0.48,0.732 -0.258,1.262 -0.449,-0.142 -0.91,0.126 -1.189,0.458 -0.359,0.426 -0.482,0.853 -0.236,1.354 l -0.014,0.015 -0.455,-0.382 -0.529,0.629 c 0.271,0.19 0.537,0.388 0.791,0.601 l 2.898,2.427 0.498,-0.593 -2.463,-2.062 c -0.139,-0.116 -0.332,-0.327 -0.422,-0.586 -0.064,-0.202 0.035,-0.539 0.186,-0.72 0.402,-0.478 0.828,-0.293 1.197,0.016 l 2.537,2.123 z m -7.994,0.195 0.561,-0.666 -0.639,-0.534 -0.559,0.665 z m 1.464,0.154 -0.5,0.593 3.66,3.063 0.498,-0.593 z m 0.83,3.11 -0.312,-0.261 c -1.211,-1.013 -2.002,-1.232 -2.877,-0.191 -1.064,1.265 -0.283,2.128 0.789,3.026 1.615,1.354 2.365,0.933 3.016,0.159 0.645,-0.766 0.693,-1.574 -0.111,-2.261 l -0.547,0.65 c 0.352,0.331 0.5,0.813 0.16,1.218 -0.389,0.463 -0.822,0.568 -1.846,-0.288 z m -2.177,1.677 c -1.008,-0.856 -0.928,-1.319 -0.611,-1.695 0.365,-0.434 0.744,-0.621 1.811,0.271 z m 0.968,3.077 -2.594,-2.172 c -0.826,-0.691 -1.43,-0.605 -1.953,0.016 -0.4,0.477 -0.516,0.849 -0.289,1.446 l -0.025,0.028 -2.043,-1.71 -0.498,0.593 5.232,4.38 0.498,-0.593 -2.152,-1.802 c -0.615,-0.516 -0.967,-1.068 -0.469,-1.661 0.426,-0.506 0.867,-0.384 1.316,-0.008 l 2.479,2.075 z m -2.917,3.47 -2.537,-2.123 c -0.725,-0.606 -1.359,-0.806 -2.016,-0.025 -0.396,0.471 -0.496,0.854 -0.277,1.432 l -0.025,0.029 -0.471,-0.395 -0.529,0.629 c 0.271,0.19 0.537,0.389 0.791,0.602 l 2.898,2.426 0.5,-0.593 -2.168,-1.813 c -0.5,-0.42 -1,-0.998 -0.453,-1.649 0.426,-0.505 0.859,-0.376 1.252,-0.049 l 2.535,2.124 z m -4.508,2.041 -0.312,-0.26 C 52.198,56.177 51.407,55.959 50.532,57 c -1.064,1.266 -0.284,2.129 0.789,3.025 1.615,1.354 2.365,0.934 3.016,0.16 0.645,-0.768 0.695,-1.575 -0.111,-2.262 l -0.547,0.65 c 0.352,0.331 0.5,0.814 0.16,1.219 -0.389,0.463 -0.822,0.567 -1.844,-0.287 z m -2.176,1.678 c -1.01,-0.856 -0.93,-1.318 -0.613,-1.695 0.365,-0.434 0.744,-0.621 1.811,0.271 z m -4.012,1.583 0.45,0.376 0.474,-0.564 3.209,2.688 0.5,-0.592 -3.21,-2.688 0.62,-0.738 -0.449,-0.375 -0.621,0.736 -0.623,-0.521 c -0.297,-0.248 -0.474,-0.582 0.099,-1.174 l -0.428,-0.357 c -0.087,0.074 -0.155,0.141 -0.259,0.263 -0.444,0.528 -0.736,1.17 0.003,1.789 l 0.71,0.595 z m -1.691,2.01 0.449,0.376 0.475,-0.563 3.21,2.688 0.499,-0.593 -3.21,-2.688 0.62,-0.738 -0.449,-0.375 -0.621,0.736 -0.623,-0.521 c -0.297,-0.248 -0.474,-0.582 0.099,-1.174 l -0.427,-0.358 c -0.089,0.075 -0.156,0.142 -0.26,0.265 -0.443,0.527 -0.736,1.17 0.002,1.788 l 0.711,0.595 z M 48,67.719 c 0.65,-0.773 0.936,-1.582 -0.681,-2.936 -1.072,-0.897 -2.06,-1.515 -3.124,-0.25 -1.063,1.266 -0.283,2.129 0.789,3.026 1.616,1.353 2.365,0.933 3.016,0.16 m -0.486,-0.407 c -0.517,0.614 -1.072,0.408 -2.261,-0.588 -1,-0.836 -0.956,-1.329 -0.573,-1.785 0.384,-0.455 0.862,-0.584 1.862,0.254 1.189,0.995 1.489,1.504 0.972,2.119 m -3.491,4.987 -2.392,-2.002 1.539,-1.828 2.392,2.002 0.56,-0.666 -5.232,-4.38 -0.56,0.665 2.261,1.893 -1.538,1.83 -2.261,-1.893 -0.56,0.664 5.232,4.381 z"
         id="path12"
         inkscape:connector-curvature="0"
         style="fill:#005ca8" /></g><g
       id="g26"><path
         d="m 57.031,32.061 c -0.443,-0.37 -0.963,-0.412 -1.334,0.03 -0.432,0.513 -0.176,1.047 0.207,1.368 0.174,0.146 0.84,0.617 1.369,-0.012 0.45,-0.535 0.114,-1.089 -0.242,-1.386 z"
         id="path16"
         inkscape:connector-curvature="0"
         style="fill:#005ca8" /><path
         d="m 52.195,41.996 c -0.457,-0.382 -1.018,-0.273 -1.34,0.11 -0.354,0.419 -0.289,0.99 0.137,1.348 0.516,0.431 1.076,0.248 1.369,-0.099 0.256,-0.304 0.399,-0.886 -0.166,-1.359 z"
         id="path18"
         inkscape:connector-curvature="0"
         style="fill:#005ca8" /><path
         d="m 53.529,36.225 c -0.443,-0.37 -0.963,-0.412 -1.334,0.029 -0.432,0.513 -0.178,1.047 0.207,1.369 0.174,0.146 0.84,0.617 1.369,-0.012 0.45,-0.535 0.112,-1.089 -0.242,-1.386 z"
         id="path20"
         inkscape:connector-curvature="0"
         style="fill:#005ca8" /><path
         d="m 48.714,40.29 c -0.304,0.361 -0.307,0.864 0.077,1.186 0.355,0.297 0.865,0.293 1.2,-0.104 0.31,-0.369 0.325,-0.886 -0.081,-1.226 C 49.498,39.799 49,39.95 48.714,40.29 Z"
         id="path22"
         inkscape:connector-curvature="0"
         style="fill:#005ca8" /><path
         d="m 79.473,13.838 -0.535,0.27 c -1.449,0.732 -5.371,2.435 -10.43,2.435 -6.523,0 -12.621,-2.692 -18.119,-8 l -0.383,-0.37 -0.383,0.37 c -5.498,5.309 -11.595,8 -18.119,8 -5.074,0 -8.985,-1.703 -10.432,-2.435 l -0.535,-0.271 -3.564,8.83 0.281,0.258 c 1.548,1.422 6.643,6.678 7.193,14.614 0.498,7.162 -2.731,14.566 -9.6,22.005 l -0.186,0.201 0.048,0.27 c 0.424,2.354 2.846,13.067 12.385,18.038 L 80.143,15.501 Z m -43.821,50.792 -4.37,-3.657 -1.307,1.554 -0.87,-0.729 3.563,-4.236 0.87,0.729 -1.308,1.554 4.37,3.658 z m 4.361,-4.937 c -1.685,2.004 -2.985,0.938 -3.499,0.521 l 0.96,-1.142 c 0.247,0.205 0.981,0.845 1.79,-0.117 0.511,-0.607 0.543,-1.232 0.101,-1.604 -0.464,-0.388 -0.817,-0.129 -1.536,0.402 -1.357,0.983 -2.299,1.354 -3.204,0.596 -0.862,-0.723 -1.106,-1.975 0.116,-3.428 0.455,-0.542 1.12,-1.082 1.941,-1.061 0.626,0.02 1.046,0.371 1.22,0.518 l -0.905,1.076 c -0.193,-0.137 -0.858,-0.594 -1.509,0.18 -0.438,0.52 -0.441,1.096 -0.014,1.455 0.485,0.406 0.895,0.096 1.716,-0.499 0.978,-0.722 1.972,-1.405 2.993,-0.55 0.942,0.79 1.047,2.208 -0.17,3.653 z m 4.816,-5.738 c -1.004,1.192 -1.811,1.564 -2.562,1.637 -1.065,0.106 -1.99,-0.482 -2.541,-0.943 -1.854,-1.553 -1.875,-3.541 -0.543,-5.125 0.565,-0.673 1.338,-1.209 2.155,-1.227 0.69,-0.013 1.122,0.311 1.41,0.54 l -0.979,1.165 c -0.145,-0.108 -0.339,-0.259 -0.65,-0.298 -0.53,-0.074 -0.936,0.289 -1.142,0.535 -1.07,1.273 -0.095,2.52 0.709,3.194 0.355,0.298 1.035,0.781 1.771,0.744 0.509,-0.018 0.96,-0.232 1.482,-0.854 0.456,-0.543 0.549,-0.785 0.616,-0.938 l -1.102,-0.922 -0.852,1.013 -0.869,-0.729 1.794,-2.133 2.616,2.189 c -0.163,0.417 -0.432,1.103 -1.313,2.152 z m 5.192,-6.409 -3.935,-3.294 c -0.018,0.343 -0.109,0.981 -0.347,1.719 l -1.007,-0.843 c 0.192,-0.64 0.315,-1.3 0.363,-1.975 l 0.785,-0.933 5.058,4.234 z m 3.055,-3.47 c -0.865,1.027 -2.119,1.183 -2.931,0.503 -0.392,-0.328 -0.547,-0.715 -0.574,-1.108 -0.032,-0.446 0.09,-0.738 0.183,-0.981 -0.292,0.187 -1.1,0.706 -1.882,0.051 -0.616,-0.516 -0.981,-1.696 0.052,-2.926 0.852,-1.012 2.021,-1.228 2.811,-0.567 0.609,0.51 0.627,1.339 0.275,1.919 0.229,-0.154 0.602,-0.421 1.203,-0.373 0.393,0.033 0.701,0.193 0.947,0.399 0.928,0.777 0.748,2.092 -0.084,3.083 z m 3.383,-3.993 c -0.238,0.282 -1.314,1.562 -2.641,0.452 l 0.92,-1.092 c 0.328,0.226 0.68,0.188 0.936,-0.115 0.633,-0.752 -0.102,-1.465 -0.816,-2.025 0.023,0.634 -0.229,0.978 -0.418,1.202 -1.039,1.236 -2.293,0.729 -2.895,0.226 -0.941,-0.789 -1.093,-2.062 -0.156,-3.175 1.459,-1.735 3.148,-0.396 3.959,0.284 2.138,1.788 2.138,3.02 1.111,4.243 z m 3.502,-4.165 C 59.725,36.2 58.649,37.48 57.322,36.37 l 0.918,-1.092 c 0.328,0.226 0.682,0.188 0.936,-0.115 0.633,-0.752 -0.102,-1.465 -0.814,-2.025 0.021,0.634 -0.23,0.978 -0.42,1.202 -1.039,1.236 -2.291,0.729 -2.893,0.226 -0.943,-0.789 -1.094,-2.062 -0.158,-3.175 1.459,-1.735 3.148,-0.396 3.959,0.284 2.138,1.789 2.138,3.021 1.111,4.243 z"
         id="path24"
         inkscape:connector-curvature="0"
         style="fill:#005ca8" /></g></g></svg>