<?xml version="1.0" encoding="UTF-8"?>
<svg xmlns="http://www.w3.org/2000/svg" xmlns:xlink="http://www.w3.org/1999/xlink" width="275pt" height="275pt" viewBox="0 0 275 275" version="1.1">
<g id="surface1">
<path style=" stroke:none;fill-rule:nonzero;fill:rgb(63.920593%,56.861877%,38.430786%);fill-opacity:1;" d="M 14.023438 137.5 C 14.023438 69.308594 69.308594 14.023438 137.492188 14.023438 C 205.683594 14.023438 260.976563 69.308594 260.976563 137.5 C 260.976563 205.691406 205.683594 260.976563 137.492188 260.976563 C 69.308594 260.976563 14.023438 205.691406 14.023438 137.5 "/>
<path style=" stroke:none;fill-rule:nonzero;fill:rgb(0%,36.470032%,64.312744%);fill-opacity:1;" d="M 137.496094 34.652344 C 80.785156 34.652344 34.648438 80.789063 34.648438 137.5 C 34.648438 194.207031 80.785156 240.347656 137.496094 240.347656 C 194.210938 240.347656 240.355469 194.207031 240.355469 137.5 C 240.355469 80.789063 194.210938 34.652344 137.496094 34.652344 Z M 137.492188 252.421875 C 74.128906 252.421875 22.578125 200.867188 22.578125 137.5 C 22.578125 74.128906 74.128906 22.574219 137.492188 22.574219 C 200.863281 22.574219 252.425781 74.128906 252.425781 137.5 C 252.425781 200.867188 200.863281 252.421875 137.492188 252.421875 "/>
<path style=" stroke:none;fill-rule:nonzero;fill:rgb(0%,0%,0%);fill-opacity:1;" d="M 137.5 45.972656 C 87.027344 45.972656 45.964844 87.03125 45.964844 137.5 C 45.964844 187.96875 87.027344 229.027344 137.5 229.027344 C 187.964844 229.027344 229.027344 187.96875 229.027344 137.5 C 229.027344 87.03125 187.964844 45.972656 137.5 45.972656 Z M 137.492188 240.867188 C 80.496094 240.867188 34.125 194.496094 34.125 137.5 C 34.125 80.5 80.496094 34.132813 137.492188 34.132813 C 194.5 34.132813 240.871094 80.5 240.871094 137.5 C 240.871094 194.496094 194.5 240.867188 137.492188 240.867188 "/>
<path style=" stroke:none;fill-rule:nonzero;fill:rgb(100%,100%,100%);fill-opacity:1;" d="M 199.035156 171.769531 C 187.019531 193.207031 164.097656 207.699219 137.773438 207.699219 C 99.007813 207.699219 67.578125 176.269531 67.578125 137.5 C 67.578125 98.730469 99.007813 67.300781 137.773438 67.300781 C 163.683594 67.300781 186.300781 81.347656 198.460938 102.230469 L 206.527344 92.347656 C 191.824219 70 166.527344 55.246094 137.773438 55.246094 C 92.347656 55.246094 55.523438 92.074219 55.523438 137.5 C 55.523438 182.925781 92.347656 219.75 137.773438 219.75 C 167.257813 219.75 193.113281 204.238281 207.632813 180.929688 L 199.035156 171.769531 "/>
<path style=" stroke:none;fill-rule:nonzero;fill:rgb(100%,100%,100%);fill-opacity:1;" d="M 188.789063 95.253906 L 147.347656 141.257813 L 147.347656 161.328125 L 175.628906 130.3125 L 175.628906 191.824219 C 175.628906 191.824219 185.273438 185.703125 189.441406 179.054688 L 189.441406 114.933594 L 196.480469 106.980469 C 196.480469 106.980469 191.265625 97.207031 188.789063 95.253906 "/>
<path style=" stroke:none;fill-rule:nonzero;fill:rgb(100%,100%,100%);fill-opacity:1;" d="M 130.664063 203.421875 C 135.226563 204.988281 144.480469 203.554688 144.480469 203.554688 L 144.480469 114.800781 L 130.664063 114.800781 L 130.664063 203.421875 "/>
<path style=" stroke:none;fill-rule:nonzero;fill:rgb(100%,100%,100%);fill-opacity:1;" d="M 108.117188 197.167969 C 111.765625 199.644531 121.800781 201.992188 121.800781 201.992188 L 121.800781 159.503906 L 108.378906 144.644531 L 108.117188 197.167969 "/>
<path style=" stroke:none;fill-rule:nonzero;fill:rgb(100%,100%,100%);fill-opacity:1;" d="M 78.402344 106.851563 L 85.441406 114.800781 L 85.441406 178.921875 C 89.609375 185.570313 99.253906 191.695313 99.253906 191.695313 L 99.253906 130.179688 L 127.535156 161.199219 L 127.535156 141.125 L 86.09375 95.121094 C 83.617188 97.074219 78.402344 106.851563 78.402344 106.851563 "/>
<path style=" stroke:none;fill-rule:nonzero;fill:rgb(100%,100%,100%);fill-opacity:1;" d="M 144.445313 71.402344 C 139.460938 70.148438 130.664063 71.402344 130.664063 71.402344 L 130.613281 96.164063 L 144.445313 96.164063 L 144.445313 71.402344 "/>
<path style=" stroke:none;fill-rule:nonzero;fill:rgb(100%,100%,100%);fill-opacity:1;" d="M 174.160156 82.140625 C 160.722656 72.996094 147.476563 71.792969 147.476563 71.792969 L 147.328125 71.800781 L 147.328125 84.140625 C 156.078125 85.167969 165.898438 91.375 165.898438 91.375 L 174.160156 82.140625 "/>
<path style=" stroke:none;fill-rule:nonzero;fill:rgb(100%,100%,100%);fill-opacity:1;" d="M 108.183594 115.128906 L 121.933594 130.246094 L 121.933594 111.738281 L 147.410156 111.738281 L 158.816406 99.097656 L 121.867188 99.097656 L 121.867188 85.542969 C 122.453125 85.28125 127.667969 84.046875 127.667969 84.046875 L 127.667969 71.925781 C 113.460938 72.902344 100.296875 82.414063 100.296875 82.414063 L 108.183594 91.40625 L 108.183594 115.128906 "/>
</g>
</svg>
