<?xml version="1.0" encoding="UTF-8"?>
<svg xmlns="http://www.w3.org/2000/svg" xmlns:xlink="http://www.w3.org/1999/xlink" width="568.9pt" height="383.6pt" viewBox="0 0 568.9 383.6" version="1.1">
<defs>
<clipPath id="clip1">
  <path d="M 179 128 L 389 128 L 389 383.601563 L 179 383.601563 Z M 179 128 "/>
</clipPath>
<clipPath id="clip2">
  <path d="M 0 0 L 568.898438 0 L 568.898438 148 L 0 148 Z M 0 0 "/>
</clipPath>
</defs>
<g id="surface1">
<g clip-path="url(#clip1)" clip-rule="nonzero">
<path style=" stroke:none;fill-rule:evenodd;fill:rgb(13.330078%,27.830505%,48.242188%);fill-opacity:1;" d="M 179.964844 128.40625 L 179.964844 246.070313 C 179.964844 367.265625 282.996094 383.367188 284.035156 383.515625 L 284.367188 383.5625 L 284.695313 383.515625 C 285.734375 383.367188 388.765625 367.265625 388.765625 246.070313 L 388.765625 128.40625 Z M 179.964844 128.40625 "/>
</g>
<path style=" stroke:none;fill-rule:evenodd;fill:rgb(0%,54.881287%,75.78125%);fill-opacity:1;" d="M 284.367188 381.210938 C 284.367188 381.210938 182.296875 366.648438 182.296875 246.070313 L 182.296875 130.734375 L 386.4375 130.734375 L 386.4375 246.070313 C 386.4375 366.648438 284.367188 381.210938 284.367188 381.210938 Z M 284.367188 381.210938 "/>
<path style=" stroke:none;fill-rule:evenodd;fill:rgb(13.330078%,27.830505%,48.242188%);fill-opacity:1;" d="M 189.285156 137.726563 L 189.285156 246.070313 C 189.285156 353.660156 274.257813 372.28125 283.945313 374.050781 L 284.367188 374.128906 L 284.785156 374.050781 C 294.472656 372.28125 379.445313 353.660156 379.445313 246.070313 L 379.445313 137.726563 Z M 189.285156 137.726563 "/>
<path style=" stroke:none;fill-rule:evenodd;fill:rgb(100%,100%,100%);fill-opacity:1;" d="M 377.117188 140.054688 C 377.117188 155.804688 377.117188 246.070313 377.117188 246.070313 C 377.117188 350.988281 296.128906 369.609375 284.367188 371.757813 C 272.605469 369.609375 191.617188 350.988281 191.617188 246.070313 C 191.617188 246.070313 191.617188 155.804688 191.617188 140.054688 C 207.78125 140.054688 360.953125 140.054688 377.117188 140.054688 Z M 377.117188 140.054688 "/>
<path style=" stroke:none;fill-rule:evenodd;fill:rgb(13.330078%,27.830505%,48.242188%);fill-opacity:1;" d="M 210.257813 199.46875 L 210.257813 241.410156 C 210.257813 323.738281 266.558594 343.75 283.816406 347.925781 L 284.367188 348.0625 L 284.914063 347.925781 C 302.171875 343.75 358.476563 323.734375 358.476563 241.410156 L 358.476563 199.46875 Z M 210.257813 199.46875 "/>
<path style=" stroke:none;fill-rule:evenodd;fill:rgb(0%,61.914063%,87.889099%);fill-opacity:1;" d="M 309.804688 201.800781 L 309.804688 335.164063 C 309.890625 335.113281 309.984375 335.058594 310.070313 335.007813 L 310.070313 201.800781 C 309.976563 201.800781 309.894531 201.800781 309.804688 201.800781 Z M 309.804688 201.800781 "/>
<path style=" stroke:none;fill-rule:evenodd;fill:rgb(0%,61.914063%,87.889099%);fill-opacity:1;" d="M 260.179688 201.800781 L 260.179688 335.914063 C 260.265625 335.964844 260.351563 336.011719 260.441406 336.0625 L 260.441406 201.800781 C 260.351563 201.800781 260.265625 201.800781 260.179688 201.800781 Z M 260.179688 201.800781 "/>
<path style=" stroke:none;fill-rule:evenodd;fill:rgb(0%,61.914063%,87.889099%);fill-opacity:1;" d="M 212.589844 201.800781 C 212.589844 220.753906 212.589844 241.410156 212.589844 241.410156 C 212.589844 296.871094 238.429688 323.402344 260.179688 335.914063 L 260.179688 201.800781 C 242.058594 201.800781 225.21875 201.800781 212.589844 201.800781 Z M 212.589844 201.800781 "/>
<path style=" stroke:none;fill-rule:evenodd;fill:rgb(100%,100%,100%);fill-opacity:1;" d="M 260.441406 201.800781 L 260.441406 336.0625 C 270.152344 341.609375 279.023438 344.371094 284.367188 345.664063 C 289.984375 344.300781 299.507813 341.308594 309.804688 335.164063 L 309.804688 201.800781 C 293.726563 201.800781 276.589844 201.800781 260.441406 201.800781 Z M 260.441406 201.800781 "/>
<path style=" stroke:none;fill-rule:evenodd;fill:rgb(0%,61.914063%,87.889099%);fill-opacity:1;" d="M 356.144531 241.410156 C 356.144531 241.410156 356.144531 220.753906 356.144531 201.800781 C 343.867188 201.800781 327.609375 201.800781 310.070313 201.800781 L 310.070313 335.007813 C 331.480469 322.144531 356.144531 295.585938 356.144531 241.410156 Z M 356.144531 241.410156 "/>
<path style=" stroke:none;fill-rule:evenodd;fill:rgb(1.567078%,34.521484%,57.617188%);fill-opacity:1;" d="M 227.734375 163.03125 L 225.820313 170.894531 L 225.277344 170.894531 C 225.152344 169.667969 224.9375 168.6875 224.628906 167.949219 C 224.175781 166.882813 223.570313 166.0625 222.8125 165.480469 C 222.054688 164.902344 221.238281 164.613281 220.367188 164.613281 C 219.515625 164.613281 218.773438 164.953125 218.132813 165.625 C 217.492188 166.300781 217.171875 167.0625 217.171875 167.910156 C 217.171875 168.75 217.394531 169.578125 217.84375 170.386719 C 218.289063 171.195313 219.347656 172.417969 221.007813 174.046875 C 222.339844 175.351563 223.234375 176.472656 223.691406 177.414063 C 224.152344 178.355469 224.382813 179.375 224.382813 180.472656 C 224.382813 181.707031 224.066406 182.847656 223.433594 183.890625 C 222.800781 184.929688 221.878906 185.738281 220.664063 186.308594 C 219.449219 186.882813 218.085938 187.167969 216.554688 187.167969 C 215.609375 187.167969 214.425781 187.023438 213.003906 186.730469 C 211.578125 186.441406 210.632813 186.292969 210.164063 186.292969 C 209.789063 186.292969 209.453125 186.355469 209.15625 186.472656 C 208.859375 186.59375 208.503906 186.824219 208.085938 187.167969 L 207.425781 187.167969 L 209.367188 178.320313 L 209.992188 178.320313 C 210.128906 179.882813 210.429688 181.214844 210.890625 182.3125 C 211.355469 183.410156 212.015625 184.265625 212.871094 184.882813 C 213.730469 185.496094 214.710938 185.800781 215.804688 185.800781 C 216.890625 185.800781 217.800781 185.429688 218.53125 184.683594 C 219.265625 183.9375 219.628906 183.058594 219.628906 182.058594 C 219.628906 181.203125 219.421875 180.386719 219.011719 179.597656 C 218.597656 178.808594 217.65625 177.667969 216.183594 176.175781 C 214.714844 174.679688 213.695313 173.335938 213.132813 172.15625 C 212.730469 171.277344 212.53125 170.347656 212.53125 169.359375 C 212.53125 167.640625 213.179688 166.160156 214.476563 164.90625 C 215.773438 163.65625 217.476563 163.03125 219.578125 163.03125 C 220.523438 163.03125 221.769531 163.25 223.316406 163.683594 C 224.226563 163.941406 224.871094 164.066406 225.246094 164.066406 C 225.5625 164.066406 225.847656 164 226.097656 163.859375 C 226.347656 163.71875 226.640625 163.441406 226.96875 163.03125 Z M 227.734375 163.03125 "/>
<path style=" stroke:none;fill-rule:evenodd;fill:rgb(1.567078%,34.521484%,57.617188%);fill-opacity:1;" d="M 229.152344 181.542969 C 229.910156 181.542969 230.554688 181.816406 231.085938 182.367188 C 231.609375 182.914063 231.878906 183.578125 231.878906 184.355469 C 231.878906 185.132813 231.605469 185.796875 231.074219 186.347656 C 230.539063 186.894531 229.898438 187.167969 229.152344 187.167969 C 228.40625 187.167969 227.773438 186.894531 227.253906 186.347656 C 226.730469 185.796875 226.46875 185.132813 226.46875 184.355469 C 226.46875 183.578125 226.730469 182.914063 227.253906 182.367188 C 227.773438 181.816406 228.40625 181.542969 229.152344 181.542969 Z M 229.152344 181.542969 "/>
<path style=" stroke:none;fill-rule:evenodd;fill:rgb(1.567078%,34.521484%,57.617188%);fill-opacity:1;" d="M 254.78125 163.03125 L 252.867188 170.894531 L 252.324219 170.894531 C 252.199219 169.667969 251.984375 168.6875 251.679688 167.949219 C 251.226563 166.882813 250.617188 166.0625 249.859375 165.480469 C 249.101563 164.902344 248.285156 164.613281 247.414063 164.613281 C 246.566406 164.613281 245.820313 164.953125 245.179688 165.625 C 244.546875 166.300781 244.222656 167.0625 244.222656 167.910156 C 244.222656 168.75 244.445313 169.578125 244.890625 170.386719 C 245.339844 171.195313 246.394531 172.417969 248.058594 174.046875 C 249.386719 175.351563 250.28125 176.472656 250.742188 177.414063 C 251.199219 178.355469 251.429688 179.375 251.429688 180.472656 C 251.429688 181.707031 251.113281 182.847656 250.480469 183.890625 C 249.847656 184.929688 248.925781 185.738281 247.714844 186.308594 C 246.503906 186.882813 245.128906 187.167969 243.605469 187.167969 C 242.65625 187.167969 241.472656 187.023438 240.050781 186.730469 C 238.628906 186.441406 237.679688 186.292969 237.214844 186.292969 C 236.839844 186.292969 236.503906 186.355469 236.203125 186.472656 C 235.910156 186.59375 235.550781 186.824219 235.128906 187.167969 L 234.472656 187.167969 L 236.421875 178.320313 L 237.039063 178.320313 C 237.175781 179.882813 237.476563 181.214844 237.941406 182.3125 C 238.402344 183.410156 239.0625 184.265625 239.921875 184.882813 C 240.777344 185.496094 241.757813 185.800781 242.855469 185.800781 C 243.941406 185.800781 244.847656 185.429688 245.585938 184.683594 C 246.3125 183.9375 246.679688 183.058594 246.679688 182.058594 C 246.679688 181.203125 246.472656 180.386719 246.058594 179.597656 C 245.648438 178.808594 244.710938 177.667969 243.230469 176.175781 C 241.761719 174.679688 240.742188 173.335938 240.179688 172.15625 C 239.78125 171.277344 239.585938 170.347656 239.585938 169.359375 C 239.585938 167.640625 240.230469 166.160156 241.523438 164.90625 C 242.824219 163.65625 244.523438 163.03125 246.628906 163.03125 C 247.570313 163.03125 248.816406 163.25 250.367188 163.683594 C 251.273438 163.941406 251.921875 164.066406 252.296875 164.066406 C 252.609375 164.066406 252.894531 164 253.148438 163.859375 C 253.394531 163.71875 253.6875 163.441406 254.015625 163.03125 Z M 254.78125 163.03125 "/>
<path style=" stroke:none;fill-rule:evenodd;fill:rgb(1.567078%,34.521484%,57.617188%);fill-opacity:1;" d="M 256.203125 181.542969 C 256.964844 181.542969 257.601563 181.816406 258.128906 182.367188 C 258.65625 182.914063 258.921875 183.578125 258.921875 184.355469 C 258.921875 185.132813 258.65625 185.796875 258.121094 186.347656 C 257.589844 186.894531 256.949219 187.167969 256.203125 187.167969 C 255.460938 187.167969 254.820313 186.894531 254.300781 186.347656 C 253.777344 185.796875 253.515625 185.132813 253.515625 184.355469 C 253.515625 183.578125 253.777344 182.914063 254.300781 182.367188 C 254.820313 181.816406 255.460938 181.542969 256.203125 181.542969 Z M 256.203125 181.542969 "/>
<path style=" stroke:none;fill-rule:evenodd;fill:rgb(1.567078%,34.521484%,57.617188%);fill-opacity:1;" d="M 279.003906 186.675781 L 261.253906 186.675781 L 261.421875 186.074219 C 262.464844 186.074219 263.234375 185.859375 263.722656 185.429688 C 264.214844 185 264.660156 184.035156 265.070313 182.527344 L 269.171875 167.628906 C 269.398438 166.808594 269.515625 166.164063 269.515625 165.695313 C 269.515625 165.238281 269.351563 164.875 269.027344 164.601563 C 268.703125 164.328125 268.058594 164.171875 267.089844 164.121094 L 267.277344 163.523438 L 277.960938 163.523438 L 277.769531 164.121094 C 276.742188 164.148438 275.976563 164.386719 275.472656 164.847656 C 274.964844 165.308594 274.511719 166.25 274.117188 167.664063 L 270.363281 181.269531 C 269.886719 183 269.648438 184.050781 269.648438 184.425781 C 269.648438 184.65625 269.769531 184.867188 270.011719 185.066406 C 270.257813 185.269531 270.652344 185.367188 271.199219 185.367188 C 273.023438 185.367188 274.773438 184.929688 276.464844 184.0625 C 278.144531 183.195313 279.574219 181.898438 280.746094 180.175781 L 281.460938 180.175781 Z M 279.003906 186.675781 "/>
<path style=" stroke:none;fill-rule:evenodd;fill:rgb(16.088867%,36.083984%,61.521912%);fill-opacity:1;" d="M 290.78125 177.773438 L 296.828125 170.253906 L 296.390625 177.773438 Z M 296.226563 182.144531 C 296.171875 183.414063 296.011719 184.308594 295.765625 184.820313 C 295.515625 185.335938 295.238281 185.671875 294.933594 185.832031 C 294.78125 185.90625 294.242188 185.980469 293.296875 186.074219 L 293.113281 186.675781 L 302.753906 186.675781 L 302.902344 186.074219 C 302.214844 186.019531 301.722656 185.8125 301.421875 185.457031 C 301.121094 185.105469 300.976563 184.539063 300.976563 183.761719 C 300.976563 183.554688 300.996094 182.960938 301.027344 181.96875 L 301.796875 163.03125 L 301.03125 163.03125 L 285.335938 182.597656 C 284.191406 184.023438 283.324219 184.96875 282.71875 185.425781 C 282.265625 185.753906 281.742188 185.972656 281.148438 186.074219 L 280.980469 186.675781 L 287.589844 186.675781 L 287.589844 186.074219 C 286.9375 186.042969 286.472656 185.910156 286.195313 185.671875 C 285.914063 185.441406 285.777344 185.1875 285.777344 184.90625 C 285.777344 184.644531 285.835938 184.386719 285.945313 184.121094 C 286.085938 183.78125 286.304688 183.394531 286.613281 182.972656 L 288.171875 181.035156 L 289.601563 179.25 L 296.390625 179.25 Z M 296.226563 182.144531 "/>
<path style=" stroke:none;fill-rule:evenodd;fill:rgb(16.088867%,36.083984%,61.521912%);fill-opacity:1;" d="M 327.929688 164.171875 L 310.898438 185.367188 L 312.230469 185.367188 C 314.878906 185.367188 317.007813 184.953125 318.621094 184.125 C 320.230469 183.296875 321.71875 181.925781 323.089844 180.015625 L 323.765625 180.015625 L 321.445313 186.675781 L 304.175781 186.675781 L 304.175781 186.019531 L 321.164063 164.886719 L 319.078125 164.886719 C 316.421875 164.886719 314.441406 165.230469 313.160156 165.917969 C 311.871094 166.605469 310.769531 167.773438 309.847656 169.417969 L 309.199219 169.417969 L 311.09375 163.523438 L 327.929688 163.523438 Z M 327.929688 164.171875 "/>
<path style=" stroke:none;fill-rule:evenodd;fill:rgb(16.088867%,36.083984%,61.521912%);fill-opacity:1;" d="M 330.304688 164.121094 L 330.492188 163.523438 L 341.355469 163.523438 L 341.152344 164.121094 C 340.164063 164.121094 339.40625 164.351563 338.894531 164.8125 C 338.378906 165.269531 337.921875 166.230469 337.53125 167.6875 L 333.445313 182.511719 C 333.152344 183.566406 333.003906 184.273438 333.003906 184.628906 C 333.003906 185.042969 333.15625 185.363281 333.464844 185.59375 C 333.847656 185.890625 334.589844 186.054688 335.679688 186.074219 L 335.507813 186.675781 L 324.507813 186.675781 L 324.695313 186.074219 C 325.789063 186.074219 326.59375 185.855469 327.101563 185.414063 C 327.617188 184.972656 328.085938 184.003906 328.503906 182.511719 L 332.589844 167.6875 C 332.839844 166.769531 332.96875 166.074219 332.96875 165.605469 C 332.96875 165.179688 332.8125 164.847656 332.503906 164.605469 C 332.199219 164.367188 331.46875 164.203125 330.304688 164.121094 Z M 330.304688 164.121094 "/>
<path style=" stroke:none;fill-rule:evenodd;fill:rgb(16.088867%,36.083984%,61.521912%);fill-opacity:1;" d="M 356.691406 165.445313 C 357.253906 166.140625 357.527344 167.265625 357.527344 168.820313 C 357.527344 171.304688 357.007813 174.140625 355.953125 177.324219 C 354.902344 180.503906 353.550781 182.914063 351.890625 184.558594 C 351.058594 185.390625 350.046875 185.800781 348.859375 185.800781 C 347.960938 185.800781 347.21875 185.449219 346.644531 184.738281 C 346.070313 184.03125 345.777344 182.984375 345.777344 181.601563 C 345.777344 179.976563 346.074219 177.953125 346.671875 175.523438 C 347.261719 173.097656 347.894531 171.179688 348.5625 169.761719 C 349.238281 168.351563 349.898438 167.265625 350.546875 166.503906 C 351.195313 165.746094 351.824219 165.203125 352.421875 164.878906 C 353.027344 164.558594 353.761719 164.394531 354.617188 164.394531 C 355.441406 164.394531 356.132813 164.742188 356.691406 165.445313 Z M 354.242188 185.722656 C 356.4375 184.429688 358.40625 182.34375 360.164063 179.460938 C 361.921875 176.574219 362.796875 173.699219 362.796875 170.832031 C 362.796875 169.554688 362.464844 168.285156 361.789063 167.027344 C 361.121094 165.765625 360.183594 164.789063 358.972656 164.082031 C 357.761719 163.382813 356.488281 163.03125 355.148438 163.03125 C 352.863281 163.03125 350.546875 163.796875 348.195313 165.335938 C 345.847656 166.871094 343.976563 168.917969 342.59375 171.46875 C 341.210938 174.027344 340.515625 176.5625 340.515625 179.078125 C 340.515625 180.324219 340.796875 181.605469 341.34375 182.917969 C 341.894531 184.234375 342.714844 185.269531 343.816406 186.03125 C 344.921875 186.789063 346.363281 187.167969 348.144531 187.167969 C 350.554688 187.167969 352.589844 186.683594 354.242188 185.722656 Z M 354.242188 185.722656 "/>
<g clip-path="url(#clip2)" clip-rule="nonzero">
<path style=" stroke:none;fill-rule:evenodd;fill:rgb(66.209412%,53.709412%,6.272888%);fill-opacity:1;" d="M 0.0195313 0.785156 C 0.0195313 0.785156 16.183594 25.46875 43.710938 25.46875 C 43.710938 25.46875 50.476563 41.195313 75.378906 41.195313 C 75.378906 41.195313 79.3125 55.175781 99.628906 55.175781 C 99.628906 55.175781 103.121094 65.664063 122.34375 65.664063 C 122.34375 65.664063 124.089844 72.652344 139.820313 72.652344 C 139.820313 72.652344 148.992188 83.136719 164.503906 83.136719 C 164.503906 83.136719 167.996094 90.125 180.230469 90.125 C 180.230469 90.125 185.910156 97.117188 193.992188 97.117188 C 193.992188 97.117188 198.871094 104.105469 206.222656 104.105469 C 206.222656 104.105469 212.121094 114.808594 236.148438 114.808594 C 236.148438 114.808594 230.6875 121.363281 220.859375 121.363281 C 220.859375 121.363281 221.515625 125.296875 225.445313 126.386719 C 225.445313 126.386719 222.386719 130.320313 216.714844 130.320313 C 216.714844 130.320313 220.421875 139.058594 230.90625 139.058594 C 241.390625 139.058594 238.769531 136 246.636719 139.058594 C 246.636719 139.058594 251.878906 143.425781 245.105469 147.574219 C 245.105469 147.574219 250.128906 148.960938 255.589844 140.804688 C 255.589844 140.804688 258.429688 144.082031 255.152344 147.574219 C 255.152344 147.574219 261.199219 148.375 265.640625 139.058594 C 265.640625 139.058594 272.628906 142.332031 265.640625 147.574219 C 265.640625 147.574219 273.140625 148.375 276.34375 139.058594 C 276.34375 139.058594 282.464844 136.632813 286.828125 139.058594 C 290.757813 141.242188 283.113281 147.359375 283.113281 147.359375 C 283.113281 147.359375 291.414063 150.199219 293.816406 139.058594 C 293.816406 139.058594 301.902344 138.839844 297.09375 147.574219 C 297.09375 147.574219 304.304688 147.792969 304.304688 139.058594 C 304.304688 139.058594 315.660156 138.765625 309.109375 146.921875 C 309.109375 146.921875 318.71875 147.140625 318.066406 132.941406 C 318.066406 132.941406 317.191406 127.480469 311.296875 127.480469 C 311.296875 127.480469 322.433594 125.078125 327.019531 114.589844 C 327.019531 114.589844 335.320313 118.742188 344.277344 114.589844 C 344.277344 114.589844 355.199219 115.683594 360.222656 105.855469 C 360.222656 105.855469 369.179688 106.945313 374.203125 97.117188 C 374.203125 97.117188 384.253906 97.992188 391.679688 88.378906 C 391.679688 88.378906 401.003906 89.035156 406.242188 81.390625 C 406.242188 81.390625 423.132813 82.480469 428.378906 72.652344 C 428.378906 72.652344 443.671875 74.835938 449.5625 63.914063 C 449.5625 63.914063 463.761719 65.664063 470.535156 53.429688 C 470.535156 53.429688 486.921875 54.957031 496.527344 41.195313 C 496.527344 41.195313 516.40625 43.164063 526.234375 27.214844 C 526.234375 27.214844 554.851563 30.273438 570.140625 0.785156 L 370.488281 0.785156 C 370.488281 0.785156 346.898438 -0.0898438 330.296875 16.515625 C 330.296875 16.515625 304.523438 46.222656 284.210938 46.222656 C 284.210938 46.222656 273.941406 49.058594 250.128906 25.25 C 250.128906 25.25 228.722656 0.785156 199.671875 0.785156 Z M 0.0195313 0.785156 "/>
</g>
<path style=" stroke:none;fill-rule:evenodd;fill:rgb(100%,100%,100%);fill-opacity:1;" d="M 245.03125 133.667969 C 245.03125 133.667969 249.546875 135.125 249.546875 138.472656 C 249.546875 138.472656 252.171875 134.6875 248.238281 132.066406 Z M 245.03125 133.667969 "/>
<path style=" stroke:none;fill-rule:evenodd;fill:rgb(100%,100%,100%);fill-opacity:1;" d="M 255.117188 133.523438 C 255.117188 133.523438 261.089844 135.5625 261.089844 138.910156 C 261.089844 138.910156 262.253906 134.542969 258.320313 131.921875 Z M 255.117188 133.523438 "/>
<path style=" stroke:none;fill-rule:evenodd;fill:rgb(100%,100%,100%);fill-opacity:1;" d="M 286.972656 133.667969 C 286.972656 133.667969 290.90625 134.832031 290.90625 138.183594 C 290.90625 138.183594 294.109375 134.6875 290.175781 132.066406 Z M 286.972656 133.667969 "/>
<path style=" stroke:none;fill-rule:evenodd;fill:rgb(100%,100%,100%);fill-opacity:1;" d="M 265.859375 133.8125 C 265.859375 133.8125 272.410156 136.144531 269.933594 138.765625 C 269.933594 138.765625 277.070313 135.125 269.210938 131.921875 Z M 265.859375 133.8125 "/>
<path style=" stroke:none;fill-rule:evenodd;fill:rgb(100%,100%,100%);fill-opacity:1;" d="M 297.3125 133.667969 C 297.3125 133.667969 301.097656 134.980469 301.097656 138.183594 C 301.097656 138.183594 304.886719 134.542969 300.808594 130.320313 C 300.808594 130.320313 297.171875 131.628906 297.3125 133.667969 Z M 297.3125 133.667969 "/>
<path style=" stroke:none;fill-rule:evenodd;fill:rgb(100%,100%,100%);fill-opacity:1;" d="M 306.050781 133.667969 C 306.050781 133.667969 311.4375 134.980469 311.003906 136.726563 C 311.003906 136.726563 314.058594 134.105469 311.148438 130.320313 C 311.148438 130.320313 307.070313 129.738281 306.050781 133.667969 Z M 306.050781 133.667969 "/>
<path style=" stroke:none;fill-rule:evenodd;fill:rgb(100%,100%,100%);fill-opacity:1;" d="M 271.101563 130.175781 L 276.34375 125.078125 C 276.34375 125.078125 278.816406 126.824219 288.429688 126.824219 C 288.429688 126.824219 289.15625 130.175781 271.101563 130.175781 Z M 271.101563 130.175781 "/>
<path style=" stroke:none;fill-rule:evenodd;fill:rgb(100%,100%,100%);fill-opacity:1;" d="M 227.414063 130.175781 L 231.925781 126.097656 C 231.925781 126.097656 231.199219 126.96875 244.742188 126.96875 C 244.742188 126.96875 243.722656 130.175781 227.414063 130.175781 Z M 227.414063 130.175781 "/>
<path style=" stroke:none;fill-rule:evenodd;fill:rgb(100%,100%,100%);fill-opacity:1;" d="M 234.402344 123.039063 L 248.382813 114.589844 C 248.382813 114.589844 261.050781 107.601563 267.605469 107.601563 C 267.605469 107.601563 277.214844 107.308594 277.214844 114.589844 C 277.214844 114.589844 276.925781 123.183594 256.390625 123.183594 C 256.390625 123.183594 234.984375 124.203125 234.402344 123.039063 Z M 234.402344 123.039063 "/>
<path style=" stroke:none;fill-rule:evenodd;fill:rgb(100%,100%,100%);fill-opacity:1;" d="M 282.023438 123.039063 L 306.488281 105.707031 C 306.488281 105.707031 309.398438 103.816406 314.496094 103.816406 C 314.496094 103.816406 319.59375 103.816406 319.59375 107.457031 C 319.59375 107.457031 321.050781 121.582031 294.109375 124.058594 C 294.109375 124.058594 286.828125 124.785156 282.023438 123.039063 Z M 282.023438 123.039063 "/>
<path style=" stroke:none;fill-rule:evenodd;fill:rgb(100%,100%,100%);fill-opacity:1;" d="M 285.078125 106 C 285.078125 106 297.023438 106.726563 299.0625 98.863281 C 299.0625 98.863281 298.335938 101.046875 289.59375 101.195313 Z M 285.078125 106 "/>
<path style=" stroke:none;fill-rule:evenodd;fill:rgb(100%,100%,100%);fill-opacity:1;" d="M 265.859375 103.816406 L 267.753906 100.613281 C 267.753906 100.613281 275.03125 101.195313 276.34375 97.117188 L 283.1875 100.613281 C 283.1875 100.613281 283.1875 109.640625 265.859375 103.816406 Z M 265.859375 103.816406 "/>
<path style=" stroke:none;fill-rule:evenodd;fill:rgb(100%,100%,100%);fill-opacity:1;" d="M 244.886719 103.960938 L 248.382813 98.863281 L 255.226563 98.863281 C 255.226563 98.863281 255.808594 100.464844 260.46875 100.464844 C 260.46875 100.464844 260.761719 105.707031 244.886719 103.960938 Z M 244.886719 103.960938 "/>
<path style=" stroke:none;fill-rule:evenodd;fill:rgb(100%,100%,100%);fill-opacity:1;" d="M 304.15625 100.464844 C 304.15625 100.464844 309.398438 97.117188 309.398438 90.125 C 309.398438 90.125 309.398438 90.125 304.304688 91.875 C 304.304688 91.875 300.664063 99.882813 304.15625 100.464844 Z M 304.15625 100.464844 "/>
<path style=" stroke:none;fill-rule:evenodd;fill:rgb(100%,100%,100%);fill-opacity:1;" d="M 283.1875 93.621094 C 283.1875 93.621094 284.351563 101.484375 298.769531 95.222656 L 297.3125 91.875 Z M 283.1875 93.621094 "/>
<path style=" stroke:none;fill-rule:evenodd;fill:rgb(100%,100%,100%);fill-opacity:1;" d="M 256.828125 86.632813 C 256.828125 86.632813 257.121094 88.234375 260.324219 88.378906 C 260.324219 88.378906 259.160156 94.058594 250.277344 93.476563 C 250.277344 93.476563 251.003906 88.960938 256.828125 86.632813 Z M 256.828125 86.632813 "/>
<path style=" stroke:none;fill-rule:evenodd;fill:rgb(100%,100%,100%);fill-opacity:1;" d="M 258.867188 95.371094 C 258.867188 95.371094 262.800781 99.300781 274.449219 95.222656 L 270.953125 90.273438 C 270.953125 90.273438 261.34375 90.855469 258.867188 95.371094 Z M 258.867188 95.371094 "/>
<path style=" stroke:none;fill-rule:evenodd;fill:rgb(100%,100%,100%);fill-opacity:1;" d="M 269.644531 81.679688 C 269.644531 81.679688 271.683594 83.28125 275.90625 83.28125 C 275.90625 83.28125 268.046875 91.730469 262.363281 84.882813 Z M 269.644531 81.679688 "/>
<path style=" stroke:none;fill-rule:evenodd;fill:rgb(100%,100%,100%);fill-opacity:1;" d="M 278.089844 89.980469 C 278.089844 89.980469 289.886719 91.4375 293.671875 84.882813 L 288.429688 81.390625 C 288.429688 81.390625 278.089844 85.320313 278.089844 89.980469 Z M 278.089844 89.980469 "/>
<path style=" stroke:none;fill-rule:evenodd;fill:rgb(100%,100%,100%);fill-opacity:1;" d="M 309.546875 100.464844 C 309.546875 100.464844 316.828125 100.757813 323.378906 93.476563 C 323.378906 93.476563 323.234375 90.855469 320.03125 90.125 C 320.03125 90.125 317.265625 89.980469 314.933594 91.875 C 314.933594 91.875 309.984375 98.574219 309.546875 100.464844 Z M 309.546875 100.464844 "/>
<path style=" stroke:none;fill-rule:evenodd;fill:rgb(100%,100%,100%);fill-opacity:1;" d="M 311.296875 79.789063 C 311.296875 79.789063 313.039063 81.535156 313.039063 88.234375 L 319.886719 88.234375 C 319.886719 88.234375 315.226563 85.175781 314.644531 79.640625 Z M 311.296875 79.789063 "/>
<path style=" stroke:none;fill-rule:evenodd;fill:rgb(100%,100%,100%);fill-opacity:1;" d="M 307.652344 79.640625 C 307.652344 79.640625 307.796875 83.429688 309.398438 84.738281 C 309.398438 84.738281 306.925781 89.398438 297.460938 88.234375 L 300.808594 83.136719 Z M 307.652344 79.640625 "/>
<path style=" stroke:none;fill-rule:evenodd;fill:rgb(100%,100%,100%);fill-opacity:1;" d="M 295.714844 79.496094 L 299.0625 74.398438 C 299.0625 74.398438 304.011719 75.273438 309.398438 72.652344 C 309.398438 72.652344 308.378906 79.496094 295.714844 79.496094 Z M 295.714844 79.496094 "/>
<path style=" stroke:none;fill-rule:evenodd;fill:rgb(100%,100%,100%);fill-opacity:1;" d="M 297.460938 67.410156 L 300.808594 63.914063 C 300.808594 63.914063 301.535156 65.664063 309.398438 65.664063 C 309.398438 65.664063 301.390625 76 297.460938 67.410156 Z M 297.460938 67.410156 "/>
<path style=" stroke:none;fill-rule:evenodd;fill:rgb(100%,100%,100%);fill-opacity:1;" d="M 290.320313 70.902344 L 293.671875 74.253906 C 293.671875 74.253906 291.925781 79.496094 276.34375 79.496094 L 278.089844 74.398438 C 278.089844 74.398438 288.71875 75.566406 290.320313 70.902344 Z M 290.320313 70.902344 "/>
<path style=" stroke:none;fill-rule:evenodd;fill:rgb(100%,100%,100%);fill-opacity:1;" d="M 213.433594 63.914063 C 213.433594 63.914063 214.453125 67.847656 218.53125 69.011719 L 272.703125 69.011719 C 272.703125 69.011719 277.796875 73.234375 290.175781 69.011719 C 290.175781 69.011719 293.671875 68.28125 295.421875 62.167969 C 295.421875 62.167969 293.378906 62.75 291.925781 58.527344 C 291.925781 58.527344 284.210938 58.378906 277.945313 63.914063 Z M 213.433594 63.914063 "/>
<path style=" stroke:none;fill-rule:evenodd;fill:rgb(100%,100%,100%);fill-opacity:1;" d="M 204.550781 63.914063 C 207.023438 67.847656 209.9375 69.011719 209.9375 69.011719 L 141.640625 69.011719 C 141.640625 69.011719 135.8125 68.867188 131.300781 63.914063 Z M 204.550781 63.914063 "/>
<path style=" stroke:none;fill-rule:evenodd;fill:rgb(100%,100%,100%);fill-opacity:1;" d="M 218.53125 72.652344 C 219.257813 76.730469 222.023438 77.75 222.023438 77.75 L 159.261719 77.75 C 159.261719 77.75 155.328125 78.039063 152.269531 72.652344 Z M 218.53125 72.652344 "/>
<path style=" stroke:none;fill-rule:evenodd;fill:rgb(100%,100%,100%);fill-opacity:1;" d="M 227.558594 72.652344 C 227.558594 72.652344 228.578125 76.582031 232.507813 77.75 L 260.761719 77.75 L 258.867188 81.242188 C 258.867188 81.242188 269.933594 82.410156 272.703125 72.652344 Z M 227.558594 72.652344 "/>
<path style=" stroke:none;fill-rule:evenodd;fill:rgb(100%,100%,100%);fill-opacity:1;" d="M 173.238281 81.390625 C 173.238281 81.390625 176.734375 85.613281 180.230469 86.484375 L 236.003906 86.484375 C 236.003906 86.484375 232.800781 85.613281 231.054688 81.390625 Z M 173.238281 81.390625 "/>
<path style=" stroke:none;fill-rule:evenodd;fill:rgb(100%,100%,100%);fill-opacity:1;" d="M 238.046875 81.390625 C 238.046875 81.390625 238.480469 84.449219 242.996094 86.484375 L 249.984375 86.484375 C 253.628906 85.175781 253.480469 81.390625 253.480469 81.390625 Z M 238.046875 81.390625 "/>
<path style=" stroke:none;fill-rule:evenodd;fill:rgb(100%,100%,100%);fill-opacity:1;" d="M 188.96875 90.125 C 188.96875 90.125 189.695313 92.019531 192.316406 93.476563 L 246.488281 93.476563 C 246.488281 93.476563 248.238281 92.601563 248.238281 90.125 Z M 188.96875 90.125 "/>
<path style=" stroke:none;fill-rule:evenodd;fill:rgb(100%,100%,100%);fill-opacity:1;" d="M 201.054688 97.261719 C 201.054688 97.261719 200.761719 98.71875 202.949219 100.464844 L 241.246094 100.464844 C 243.285156 100.464844 243.140625 97.117188 243.140625 97.117188 Z M 201.054688 97.261719 "/>
<path style=" stroke:none;fill-rule:evenodd;fill:rgb(100%,100%,100%);fill-opacity:1;" d="M 213.578125 104.105469 C 213.578125 104.105469 215.179688 107.019531 218.820313 107.457031 L 234.257813 107.457031 C 236.441406 106.4375 236.003906 104.105469 236.003906 104.105469 Z M 213.578125 104.105469 "/>
<path style=" stroke:none;fill-rule:evenodd;fill:rgb(100%,100%,100%);fill-opacity:1;" d="M 302.554688 48.042969 L 389.785156 48.042969 C 389.785156 48.042969 395.902344 46.4375 398.671875 41.195313 L 323.527344 41.195313 L 332.554688 32.3125 L 414.394531 32.3125 C 414.394531 32.3125 421.09375 31.441406 424.734375 25.46875 L 342.601563 25.46875 C 342.601563 25.46875 351.484375 16.585938 357.601563 16.585938 L 447.453125 16.644531 C 447.453125 16.644531 454.296875 15.710938 457.9375 7.996094 L 363.574219 7.996094 C 363.574219 7.996094 346.972656 9.160156 330.515625 25.46875 C 330.515625 25.46875 316.246094 42.070313 302.554688 48.042969 Z M 302.554688 48.042969 "/>
<path style=" stroke:none;fill-rule:evenodd;fill:rgb(100%,100%,100%);fill-opacity:1;" d="M 466.675781 7.996094 C 466.675781 7.996094 465.65625 13.382813 458.085938 16.730469 L 540.070313 16.761719 C 540.070313 16.761719 549.246094 14.546875 552.300781 7.996094 Z M 466.675781 7.996094 "/>
<path style=" stroke:none;fill-rule:evenodd;fill:rgb(100%,100%,100%);fill-opacity:1;" d="M 433.617188 25.46875 C 433.617188 25.46875 433.765625 28.820313 426.628906 32.3125 L 505.121094 32.3125 C 505.121094 32.3125 512.984375 31.441406 515.605469 25.46875 Z M 433.617188 25.46875 "/>
<path style=" stroke:none;fill-rule:evenodd;fill:rgb(100%,100%,100%);fill-opacity:1;" d="M 407.40625 41.195313 C 407.40625 41.195313 407.695313 44.835938 400.5625 48.042969 L 472.0625 48.042969 C 472.0625 48.042969 479.925781 48.914063 485.898438 41.195313 Z M 407.40625 41.195313 "/>
<path style=" stroke:none;fill-rule:evenodd;fill:rgb(100%,100%,100%);fill-opacity:1;" d="M 374.203125 51.683594 C 374.203125 51.683594 375.949219 54.449219 375.949219 58.671875 L 445.710938 58.671875 C 445.710938 58.671875 455.898438 59.835938 461.578125 51.683594 Z M 374.203125 51.683594 "/>
<path style=" stroke:none;fill-rule:evenodd;fill:rgb(100%,100%,100%);fill-opacity:1;" d="M 110.328125 53.429688 C 110.328125 53.429688 111.347656 57.507813 117.320313 58.527344 L 187.21875 58.527344 C 187.21875 58.527344 184.308594 57.507813 181.835938 53.429688 Z M 110.328125 53.429688 "/>
<path style=" stroke:none;fill-rule:evenodd;fill:rgb(100%,100%,100%);fill-opacity:1;" d="M 85.863281 41.34375 C 85.863281 41.34375 88.921875 48.042969 96.351563 48.042969 L 169.597656 48.042969 C 169.597656 48.042969 164.355469 45.421875 162.753906 41.195313 Z M 85.863281 41.34375 "/>
<path style=" stroke:none;fill-rule:evenodd;fill:rgb(100%,100%,100%);fill-opacity:1;" d="M 54.410156 25.324219 C 54.410156 25.324219 58.488281 32.3125 64.894531 32.3125 L 143.386719 32.3125 C 143.386719 32.3125 138.4375 30.566406 136.398438 25.46875 Z M 54.410156 25.324219 "/>
<path style=" stroke:none;fill-rule:evenodd;fill:rgb(100%,100%,100%);fill-opacity:1;" d="M 19.464844 7.996094 C 19.464844 7.996094 23.390625 16.585938 31.691406 16.585938 L 111.933594 16.585938 C 111.933594 16.585938 105.964844 13.238281 104.941406 7.996094 Z M 19.464844 7.996094 "/>
<path style=" stroke:none;fill-rule:evenodd;fill:rgb(100%,100%,100%);fill-opacity:1;" d="M 290.175781 51.683594 L 290.175781 56.777344 C 290.175781 56.777344 279.839844 56.632813 278.089844 60.273438 L 275.90625 60.273438 C 275.90625 60.273438 273.285156 60.855469 272.703125 58.527344 L 199.453125 58.527344 C 199.453125 58.527344 194.355469 58.378906 192.464844 53.429688 L 262.363281 53.429688 L 256.972656 48.042969 L 182.128906 48.042969 C 182.128906 48.042969 175.425781 47.023438 173.238281 41.195313 L 248.527344 41.195313 L 239.503906 32.3125 L 157.511719 32.3125 C 157.511719 32.3125 150.8125 31.730469 148.628906 25.46875 L 229.160156 25.46875 C 229.160156 25.46875 221.296875 16.585938 213.871094 16.585938 L 124.308594 16.585938 C 124.308594 16.585938 115.574219 16.003906 113.824219 7.996094 L 206.441406 7.996094 C 206.441406 7.996094 223.339844 7.703125 244.742188 28.964844 C 244.742188 28.964844 266.148438 51.683594 278.234375 51.683594 Z M 290.175781 51.683594 "/>
<path style=" stroke:none;fill-rule:evenodd;fill:rgb(100%,100%,100%);fill-opacity:1;" d="M 398.8125 64.058594 C 398.8125 64.058594 400.414063 65.078125 400.414063 69.011719 L 431.726563 69.011719 C 431.726563 69.011719 436.238281 68.867188 438.714844 63.914063 Z M 398.8125 64.058594 "/>
<path style=" stroke:none;fill-rule:evenodd;fill:rgb(100%,100%,100%);fill-opacity:1;" d="M 398.671875 77.75 C 398.671875 77.75 401.871094 76.148438 402.308594 72.652344 L 419.492188 72.652344 C 419.492188 72.652344 419.636719 76.730469 414.253906 77.75 Z M 398.671875 77.75 "/>
<path style=" stroke:none;fill-rule:evenodd;fill:rgb(100%,100%,100%);fill-opacity:1;" d="M 337.503906 86.484375 C 337.503906 86.484375 341.585938 85.464844 344.496094 81.390625 L 396.921875 81.390625 C 396.921875 81.390625 394.152344 86.484375 387.890625 86.484375 Z M 337.503906 86.484375 "/>
<path style=" stroke:none;fill-rule:evenodd;fill:rgb(100%,100%,100%);fill-opacity:1;" d="M 328.914063 93.476563 C 328.914063 93.476563 331.242188 93.039063 332.261719 90.125 L 381.191406 90.125 C 381.191406 90.125 380.320313 93.476563 377.699219 93.476563 Z M 328.914063 93.476563 "/>
<path style=" stroke:none;fill-rule:evenodd;fill:rgb(100%,100%,100%);fill-opacity:1;" d="M 321.777344 100.464844 C 321.777344 100.464844 323.816406 100.320313 325.273438 97.117188 L 368.816406 97.117188 C 368.816406 97.117188 367.941406 100.320313 365.320313 100.464844 Z M 321.777344 100.464844 "/>
<path style=" stroke:none;fill-rule:evenodd;fill:rgb(100%,100%,100%);fill-opacity:1;" d="M 332.261719 104.105469 C 332.261719 104.105469 333.71875 105.125 334.011719 107.601563 L 353.089844 107.601563 C 353.089844 107.601563 353.378906 105.707031 354.839844 104.105469 Z M 332.261719 104.105469 "/>
<path style=" stroke:none;fill-rule:evenodd;fill:rgb(100%,100%,100%);fill-opacity:1;" d="M 370.5625 62.019531 C 370.5625 62.019531 371.726563 51.683594 360.367188 51.683594 L 295.714844 51.683594 C 295.714844 51.683594 296.730469 62.019531 309.839844 62.019531 L 321.777344 62.019531 C 321.777344 62.019531 314.644531 64.496094 313.1875 69.011719 L 316.679688 69.011719 C 316.679688 69.011719 313.1875 71.777344 313.1875 76 L 320.03125 76 C 320.03125 76 316.246094 79.789063 320.03125 82.992188 C 320.03125 82.992188 325.566406 89.253906 339.253906 79.351563 C 339.253906 79.351563 345.078125 75.566406 348.136719 76 C 348.136719 76 350.757813 75.710938 351.632813 77.75 L 393.28125 77.75 C 393.28125 77.75 390.804688 72.652344 383.230469 71.339844 L 356.585938 71.339844 L 356.585938 68.632813 L 388.183594 68.574219 C 388.183594 68.574219 393.863281 68.867188 395.171875 72.507813 C 395.171875 72.507813 394.355469 62.167969 385.710938 62.167969 L 370.621094 62.167969 C 370.621094 62.167969 365.320313 67.410156 360.222656 67.410156 C 360.222656 67.410156 354.839844 67.554688 354.839844 63.769531 L 341.003906 63.769531 C 341.003906 63.769531 341.730469 62.019531 344.933594 62.019531 Z M 370.5625 62.019531 "/>
</g>
</svg>
