<?xml version="1.0" encoding="UTF-8"?>
<svg xmlns="http://www.w3.org/2000/svg" xmlns:xlink="http://www.w3.org/1999/xlink" width="153.19pt" height="145.38pt" viewBox="0 0 153.19 145.38" version="1.1">
<defs>
<clipPath id="clip1">
  <path d="M 67 138 L 86 138 L 86 145.378906 L 67 145.378906 Z M 67 138 "/>
</clipPath>
<clipPath id="clip2">
  <path d="M 125 65 L 153.191406 65 L 153.191406 94 L 125 94 Z M 125 65 "/>
</clipPath>
</defs>
<g id="surface1">
<path style=" stroke:none;fill-rule:evenodd;fill:rgb(100%,94.898987%,0%);fill-opacity:1;" d="M 54.808594 136.40625 C 55.839844 142.996094 65.117188 146.585938 69.988281 138.75 L 54.808594 136.40625 "/>
<path style=" stroke:none;fill-rule:nonzero;fill:rgb(13.699341%,12.199402%,12.5%);fill-opacity:1;" d="M 56.457031 141.40625 C 55.167969 140.125 54.25 138.445313 53.953125 136.539063 L 53.769531 135.367188 L 54.9375 135.546875 L 70.117188 137.890625 L 71.414063 138.085938 L 70.722656 139.207031 C 69.421875 141.300781 67.816406 142.648438 66.113281 143.382813 C 64.390625 144.128906 62.582031 144.242188 60.894531 143.859375 C 59.222656 143.484375 57.671875 142.621094 56.457031 141.40625 Z M 55.957031 137.457031 C 56.316406 138.496094 56.914063 139.425781 57.675781 140.179688 C 58.664063 141.164063 59.917969 141.867188 61.277344 142.171875 C 62.613281 142.476563 64.054688 142.382813 65.429688 141.792969 C 66.503906 141.324219 67.546875 140.542969 68.472656 139.390625 L 55.957031 137.457031 "/>
<path style=" stroke:none;fill-rule:nonzero;fill:rgb(13.699341%,12.199402%,12.5%);fill-opacity:1;" d="M 67.203125 138.03125 C 67.46875 137.628906 68.003906 137.519531 68.402344 137.78125 C 68.804688 138.042969 68.917969 138.582031 68.65625 138.980469 C 67.332031 141.003906 65.648438 141.644531 64.5 141.65625 C 64.089844 141.660156 63.710938 141.582031 63.421875 141.449219 C 62.980469 141.246094 62.691406 140.910156 62.613281 140.496094 C 62.535156 140.054688 62.6875 139.621094 63.140625 139.277344 C 63.519531 138.984375 64.066406 139.058594 64.355469 139.441406 C 64.46875 139.582031 64.523438 139.75 64.53125 139.921875 C 65.234375 139.894531 66.285156 139.4375 67.203125 138.03125 "/>
<path style=" stroke:none;fill-rule:evenodd;fill:rgb(100%,94.898987%,0%);fill-opacity:1;" d="M 98.378906 136.40625 C 97.347656 142.996094 88.070313 146.585938 83.195313 138.75 L 98.378906 136.40625 "/>
<path style=" stroke:none;fill-rule:nonzero;fill:rgb(13.699341%,12.199402%,12.5%);fill-opacity:1;" d="M 95.507813 140.179688 C 96.265625 139.425781 96.867188 138.496094 97.226563 137.457031 L 84.710938 139.390625 C 85.636719 140.542969 86.675781 141.324219 87.757813 141.792969 C 89.128906 142.382813 90.570313 142.476563 91.910156 142.171875 C 93.265625 141.867188 94.523438 141.164063 95.507813 140.179688 Z M 99.230469 136.539063 C 98.929688 138.445313 98.015625 140.125 96.730469 141.40625 C 95.515625 142.621094 93.964844 143.484375 92.289063 143.859375 C 90.601563 144.242188 88.792969 144.128906 87.070313 143.382813 C 85.371094 142.648438 83.765625 141.300781 82.460938 139.207031 L 81.769531 138.085938 L 83.066406 137.890625 L 98.246094 135.546875 L 99.414063 135.367188 L 99.230469 136.539063 "/>
<path style=" stroke:none;fill-rule:nonzero;fill:rgb(13.699341%,12.199402%,12.5%);fill-opacity:1;" d="M 84.527344 138.980469 C 84.269531 138.582031 84.378906 138.042969 84.78125 137.78125 C 85.179688 137.519531 85.71875 137.628906 85.976563 138.03125 C 86.898438 139.4375 87.949219 139.894531 88.652344 139.921875 C 88.664063 139.75 88.71875 139.582031 88.832031 139.441406 C 89.121094 139.058594 89.664063 138.984375 90.039063 139.277344 C 90.496094 139.621094 90.652344 140.054688 90.566406 140.496094 C 90.492188 140.910156 90.203125 141.246094 89.761719 141.449219 C 89.472656 141.582031 89.097656 141.660156 88.679688 141.65625 C 87.539063 141.644531 85.855469 141.003906 84.527344 138.980469 "/>
<path style=" stroke:none;fill-rule:evenodd;fill:rgb(100%,94.898987%,0%);fill-opacity:1;" d="M 68.914063 138.917969 C 70.941406 145.273438 80.65625 147.402344 84.273438 138.910156 L 68.914063 138.917969 "/>
<g clip-path="url(#clip1)" clip-rule="nonzero">
<path style=" stroke:none;fill-rule:nonzero;fill:rgb(13.699341%,12.199402%,12.5%);fill-opacity:1;" d="M 71.304688 143.613281 C 69.835938 142.539063 68.671875 141.019531 68.085938 139.179688 L 67.726563 138.050781 L 68.914063 138.050781 L 84.273438 138.042969 L 85.582031 138.039063 L 85.066406 139.25 C 84.105469 141.515625 82.722656 143.09375 81.152344 144.082031 C 79.5625 145.085938 77.789063 145.476563 76.066406 145.359375 C 74.359375 145.242188 72.695313 144.625 71.304688 143.613281 Z M 70.210938 139.789063 C 70.726563 140.757813 71.464844 141.578125 72.328125 142.207031 C 73.453125 143.027344 74.800781 143.53125 76.1875 143.625 C 77.5625 143.71875 78.972656 143.410156 80.234375 142.617188 C 81.226563 141.988281 82.132813 141.058594 82.875 139.777344 L 70.210938 139.789063 "/>
</g>
<path style=" stroke:none;fill-rule:nonzero;fill:rgb(13.699341%,12.199402%,12.5%);fill-opacity:1;" d="M 81.414063 138.628906 C 81.609375 138.195313 82.121094 138 82.558594 138.195313 C 82.992188 138.394531 83.1875 138.90625 82.988281 139.339844 C 81.988281 141.546875 80.425781 142.433594 79.296875 142.621094 C 78.882813 142.6875 78.5 142.667969 78.199219 142.585938 C 77.734375 142.457031 77.398438 142.164063 77.253906 141.769531 C 77.105469 141.34375 77.195313 140.890625 77.589844 140.476563 C 77.917969 140.136719 78.46875 140.125 78.8125 140.457031 C 78.941406 140.582031 79.027344 140.738281 79.0625 140.90625 C 79.753906 140.769531 80.71875 140.152344 81.414063 138.628906 "/>
<path style=" stroke:none;fill-rule:evenodd;fill:rgb(100%,94.898987%,0%);fill-opacity:1;" d="M 13.945313 66.683594 C 21.144531 66.683594 27.019531 72.5625 27.019531 79.765625 C 27.019531 86.96875 21.144531 92.84375 13.945313 92.84375 C 6.742188 92.84375 0.867188 86.96875 0.867188 79.765625 C 0.867188 72.5625 6.742188 66.683594 13.945313 66.683594 "/>
<path style=" stroke:none;fill-rule:nonzero;fill:rgb(13.699341%,12.199402%,12.5%);fill-opacity:1;" d="M 13.945313 67.554688 L 13.941406 67.554688 C 10.578125 67.554688 7.527344 68.929688 5.316406 71.136719 C 3.105469 73.351563 1.734375 76.40625 1.734375 79.765625 L 1.734375 79.769531 C 1.734375 83.128906 3.105469 86.179688 5.316406 88.390625 C 7.527344 90.601563 10.582031 91.976563 13.941406 91.976563 L 13.945313 91.976563 C 17.308594 91.972656 20.359375 90.601563 22.570313 88.390625 C 24.78125 86.179688 26.152344 83.128906 26.152344 79.769531 L 26.152344 79.761719 C 26.152344 76.40625 24.78125 73.351563 22.570313 71.140625 C 20.359375 68.929688 17.308594 67.554688 13.945313 67.554688 Z M 13.945313 65.820313 C 17.785156 65.820313 21.273438 67.386719 23.796875 69.910156 C 26.320313 72.4375 27.886719 75.921875 27.886719 79.761719 L 27.886719 79.769531 C 27.886719 83.609375 26.320313 87.09375 23.792969 89.617188 C 21.273438 92.144531 17.785156 93.710938 13.945313 93.710938 L 13.941406 93.710938 C 10.101563 93.710938 6.617188 92.144531 4.089844 89.617188 C 1.566406 87.09375 0 83.609375 0 79.769531 L 0 79.765625 C 0 75.921875 1.566406 72.433594 4.09375 69.910156 C 6.617188 67.386719 10.101563 65.820313 13.941406 65.820313 L 13.945313 65.820313 "/>
<path style=" stroke:none;fill-rule:nonzero;fill:rgb(92.89856%,10.998535%,14.099121%);fill-opacity:1;" d="M 13.933594 70.582031 L 13.929688 70.582031 C 11.402344 70.582031 9.109375 71.613281 7.445313 73.273438 C 5.78125 74.933594 4.75 77.234375 4.75 79.769531 L 4.75 79.773438 C 4.75 82.300781 5.78125 84.59375 7.445313 86.25 C 9.105469 87.910156 11.402344 88.941406 13.929688 88.941406 L 13.933594 88.941406 C 16.476563 88.941406 18.769531 87.910156 20.429688 86.253906 C 22.09375 84.59375 23.117188 82.300781 23.117188 79.773438 L 23.117188 79.765625 C 23.117188 77.234375 22.09375 74.933594 20.429688 73.273438 C 18.769531 71.609375 16.476563 70.582031 13.933594 70.582031 Z M 13.929688 68.90625 L 13.933594 68.90625 C 16.933594 68.90625 19.648438 70.128906 21.613281 72.09375 C 23.582031 74.0625 24.792969 76.769531 24.796875 79.765625 L 24.796875 79.773438 C 24.792969 82.761719 23.582031 85.472656 21.609375 87.4375 C 19.648438 89.398438 16.933594 90.617188 13.933594 90.617188 L 13.929688 90.617188 C 10.945313 90.617188 8.230469 89.398438 6.265625 87.4375 C 4.292969 85.472656 3.074219 82.761719 3.074219 79.773438 L 3.074219 79.769531 C 3.074219 76.769531 4.292969 74.058594 6.265625 72.089844 C 8.230469 70.121094 10.945313 68.90625 13.929688 68.90625 "/>
<path style=" stroke:none;fill-rule:nonzero;fill:rgb(92.89856%,10.998535%,14.099121%);fill-opacity:1;" d="M 8.113281 71.480469 L 8.136719 71.503906 C 8.253906 71.609375 8.429688 71.761719 8.644531 71.945313 C 8.867188 72.128906 9.078125 72.304688 9.273438 72.457031 C 10.316406 73.273438 11.601563 74.167969 12.453125 74.527344 C 13.132813 74.382813 14.3125 73.886719 15.363281 73.441406 C 16.015625 73.167969 16.617188 72.90625 17.078125 72.746094 C 17.332031 72.320313 17.402344 71.921875 17.476563 71.480469 C 17.519531 71.234375 17.566406 70.980469 17.625 70.714844 L 19.3125 71.113281 C 19.257813 71.355469 19.222656 71.570313 19.1875 71.769531 C 19.0625 72.5 18.945313 73.136719 18.34375 73.984375 L 17.867188 74.3125 C 17.488281 74.417969 16.792969 74.714844 16.03125 75.035156 C 14.773438 75.566406 13.347656 76.167969 12.480469 76.273438 L 12.476563 76.277344 L 12.464844 76.28125 L 12.070313 76.238281 C 11.035156 75.871094 9.441406 74.792969 8.199219 73.816406 C 7.933594 73.609375 7.707031 73.425781 7.527344 73.273438 C 7.347656 73.121094 7.15625 72.953125 6.964844 72.777344 L 7.441406 72.253906 L 8.113281 71.480469 "/>
<path style=" stroke:none;fill-rule:nonzero;fill:rgb(92.89856%,10.998535%,14.099121%);fill-opacity:1;" d="M 5.09375 76.574219 C 6.367188 78.460938 7.730469 79.613281 9.144531 80.289063 C 10.554688 80.964844 12.050781 81.183594 13.582031 81.203125 L 13.566406 82.9375 C 11.808594 82.917969 10.074219 82.65625 8.394531 81.851563 C 6.714844 81.050781 5.117188 79.710938 3.65625 77.542969 L 5.09375 76.574219 "/>
<path style=" stroke:none;fill-rule:nonzero;fill:rgb(92.89856%,10.998535%,14.099121%);fill-opacity:1;" d="M 13.378906 75.425781 C 14.390625 78.535156 14.929688 80.941406 14.847656 83.1875 C 14.761719 85.480469 14.042969 87.558594 12.546875 89.972656 L 11.074219 89.0625 C 12.402344 86.925781 13.035156 85.105469 13.113281 83.128906 C 13.183594 81.105469 12.679688 78.875 11.730469 75.960938 L 13.378906 75.425781 "/>
<path style=" stroke:none;fill-rule:nonzero;fill:rgb(92.89856%,10.998535%,14.099121%);fill-opacity:1;" d="M 18.257813 72.777344 C 19.945313 74.503906 21.011719 76.632813 21.398438 79.230469 C 21.777344 81.753906 21.5 84.71875 20.515625 88.179688 L 18.851563 87.710938 C 19.761719 84.492188 20.027344 81.769531 19.683594 79.476563 C 19.355469 77.261719 18.445313 75.445313 17.019531 73.984375 L 18.257813 72.777344 "/>
<path style=" stroke:none;fill-rule:nonzero;fill:rgb(92.89856%,10.998535%,14.099121%);fill-opacity:1;" d="M 23.414063 75.824219 L 23.410156 75.824219 C 23.320313 75.933594 23.214844 76.066406 23.089844 76.210938 C 22.960938 76.351563 22.839844 76.484375 22.71875 76.609375 C 22.050781 77.304688 21.230469 77.992188 20.554688 78.359375 L 19.730469 76.839844 C 20.246094 76.5625 20.910156 75.996094 21.46875 75.414063 C 21.589844 75.289063 21.695313 75.175781 21.785156 75.070313 C 21.871094 74.972656 21.960938 74.863281 22.058594 74.742188 L 22.070313 74.730469 L 22.070313 74.726563 L 22.878906 75.386719 L 23.421875 75.8125 C 23.417969 75.816406 23.414063 75.816406 23.414063 75.824219 "/>
<path style=" stroke:none;fill-rule:evenodd;fill:rgb(100%,94.898987%,0%);fill-opacity:1;" d="M 139.242188 66.683594 C 146.445313 66.683594 152.316406 72.5625 152.316406 79.765625 C 152.316406 86.96875 146.445313 92.84375 139.242188 92.84375 C 132.035156 92.84375 126.160156 86.96875 126.160156 79.765625 C 126.160156 72.5625 132.035156 66.683594 139.242188 66.683594 "/>
<g clip-path="url(#clip2)" clip-rule="nonzero">
<path style=" stroke:none;fill-rule:nonzero;fill:rgb(13.699341%,12.199402%,12.5%);fill-opacity:1;" d="M 139.242188 67.554688 L 139.238281 67.554688 C 135.878906 67.554688 132.828125 68.929688 130.613281 71.136719 C 128.402344 73.351563 127.03125 76.40625 127.03125 79.765625 L 127.03125 79.769531 C 127.03125 83.128906 128.402344 86.179688 130.613281 88.390625 C 132.824219 90.601563 135.878906 91.976563 139.238281 91.976563 L 139.246094 91.976563 C 142.605469 91.972656 145.652344 90.601563 147.863281 88.390625 C 150.078125 86.179688 151.449219 83.128906 151.449219 79.769531 L 151.449219 79.761719 C 151.449219 76.40625 150.078125 73.351563 147.867188 71.140625 C 145.652344 68.929688 142.605469 67.554688 139.242188 67.554688 Z M 139.242188 65.820313 C 143.082031 65.820313 146.570313 67.386719 149.09375 69.910156 C 151.617188 72.4375 153.1875 75.921875 153.1875 79.761719 L 153.1875 79.769531 C 153.1875 83.609375 151.621094 87.09375 149.09375 89.617188 C 146.566406 92.144531 143.082031 93.710938 139.246094 93.710938 L 139.238281 93.710938 C 135.398438 93.710938 131.910156 92.144531 129.386719 89.617188 C 126.859375 87.09375 125.296875 83.609375 125.296875 79.769531 L 125.296875 79.765625 C 125.296875 75.921875 126.859375 72.433594 129.386719 69.910156 C 131.914063 67.386719 135.394531 65.820313 139.238281 65.820313 L 139.242188 65.820313 "/>
</g>
<path style=" stroke:none;fill-rule:nonzero;fill:rgb(92.89856%,10.998535%,14.099121%);fill-opacity:1;" d="M 139.253906 70.582031 L 139.246094 70.582031 C 136.710938 70.582031 134.414063 71.609375 132.753906 73.273438 C 131.089844 74.9375 130.0625 77.234375 130.0625 79.769531 L 130.0625 79.773438 C 130.0625 82.300781 131.089844 84.59375 132.75 86.25 C 134.410156 87.910156 136.710938 88.941406 139.25 88.941406 L 139.253906 88.941406 C 141.777344 88.941406 144.078125 87.910156 145.738281 86.253906 C 147.402344 84.59375 148.433594 82.300781 148.433594 79.773438 L 148.433594 79.765625 C 148.433594 77.234375 147.402344 74.9375 145.738281 73.273438 C 144.078125 71.613281 141.777344 70.582031 139.253906 70.582031 Z M 139.253906 68.90625 C 142.238281 68.90625 144.953125 70.125 146.917969 72.089844 C 148.886719 74.058594 150.109375 76.769531 150.113281 79.765625 L 150.113281 79.773438 C 150.109375 82.761719 148.886719 85.472656 146.917969 87.4375 C 144.953125 89.398438 142.238281 90.617188 139.253906 90.617188 L 139.25 90.617188 C 136.25 90.617188 133.539063 89.398438 131.570313 87.4375 C 129.605469 85.472656 128.386719 82.761719 128.382813 79.773438 L 128.382813 79.769531 C 128.386719 76.769531 129.601563 74.054688 131.566406 72.089844 L 131.570313 72.089844 C 133.539063 70.121094 136.25 68.90625 139.246094 68.90625 L 139.253906 68.90625 "/>
<path style=" stroke:none;fill-rule:nonzero;fill:rgb(92.89856%,10.998535%,14.099121%);fill-opacity:1;" d="M 133.394531 71.480469 L 133.398438 71.484375 L 133.414063 71.496094 C 133.566406 71.632813 133.746094 71.785156 133.933594 71.945313 L 133.9375 71.941406 C 134.203125 72.164063 134.417969 72.34375 134.5625 72.457031 C 135.609375 73.273438 136.894531 74.167969 137.757813 74.527344 C 138.414063 74.382813 139.558594 73.902344 140.59375 73.464844 C 141.269531 73.183594 141.902344 72.914063 142.386719 72.746094 C 142.621094 72.328125 142.691406 71.945313 142.765625 71.519531 C 142.808594 71.265625 142.859375 71 142.9375 70.699219 L 144.617188 71.128906 C 144.554688 71.371094 144.511719 71.601563 144.472656 71.820313 C 144.347656 72.523438 144.238281 73.148438 143.664063 73.976563 L 143.175781 74.320313 C 142.789063 74.417969 142.058594 74.730469 141.265625 75.0625 C 140.019531 75.585938 138.625 76.167969 137.789063 76.273438 L 137.785156 76.277344 L 137.773438 76.28125 L 137.390625 76.242188 C 136.332031 75.875 134.746094 74.792969 133.5 73.816406 C 133.1875 73.570313 132.964844 73.390625 132.824219 73.277344 L 132.824219 73.273438 C 132.613281 73.097656 132.417969 72.929688 132.257813 72.78125 L 132.671875 72.320313 L 133.394531 71.480469 "/>
<path style=" stroke:none;fill-rule:nonzero;fill:rgb(92.89856%,10.998535%,14.099121%);fill-opacity:1;" d="M 130.378906 76.574219 C 131.664063 78.460938 133.023438 79.613281 134.433594 80.289063 C 135.847656 80.964844 137.339844 81.183594 138.867188 81.203125 L 138.851563 82.9375 C 137.097656 82.917969 135.367188 82.65625 133.691406 81.851563 C 132.007813 81.050781 130.410156 79.710938 128.945313 77.546875 L 130.378906 76.574219 "/>
<path style=" stroke:none;fill-rule:nonzero;fill:rgb(92.89856%,10.998535%,14.099121%);fill-opacity:1;" d="M 138.691406 75.429688 C 139.6875 78.539063 140.222656 80.945313 140.136719 83.1875 C 140.054688 85.484375 139.34375 87.558594 137.863281 89.972656 L 136.386719 89.0625 C 137.703125 86.921875 138.332031 85.101563 138.40625 83.128906 C 138.476563 81.101563 137.976563 78.871094 137.042969 75.960938 L 138.691406 75.429688 "/>
<path style=" stroke:none;fill-rule:nonzero;fill:rgb(92.89856%,10.998535%,14.099121%);fill-opacity:1;" d="M 143.570313 72.777344 C 145.25 74.503906 146.3125 76.632813 146.695313 79.230469 C 147.070313 81.757813 146.796875 84.71875 145.808594 88.183594 L 144.140625 87.707031 C 145.058594 84.488281 145.316406 81.765625 144.976563 79.476563 C 144.648438 77.261719 143.75 75.445313 142.332031 73.984375 L 143.570313 72.777344 "/>
<path style=" stroke:none;fill-rule:nonzero;fill:rgb(92.89856%,10.998535%,14.099121%);fill-opacity:1;" d="M 148.707031 75.824219 L 148.703125 75.824219 C 148.617188 75.941406 148.507813 76.074219 148.386719 76.210938 C 148.269531 76.351563 148.144531 76.484375 148.019531 76.609375 C 147.351563 77.304688 146.519531 77.992188 145.847656 78.359375 L 145.019531 76.839844 C 145.535156 76.558594 146.207031 75.996094 146.773438 75.414063 C 146.886719 75.289063 146.992188 75.175781 147.085938 75.070313 C 147.171875 74.96875 147.265625 74.863281 147.347656 74.75 L 147.363281 74.730469 L 147.367188 74.726563 L 148.121094 75.339844 L 148.722656 75.800781 C 148.71875 75.808594 148.714844 75.816406 148.707031 75.824219 "/>
<path style=" stroke:none;fill-rule:evenodd;fill:rgb(100%,94.898987%,0%);fill-opacity:1;" d="M 36.371094 94.511719 C 29.582031 86.570313 24.484375 88.167969 20.308594 91.328125 C 13.574219 96.425781 14.640625 103.195313 18.371094 109.601563 C 28.917969 127.699219 48.386719 138.769531 74.226563 139.355469 C 75.765625 139.394531 77.304688 139.394531 78.839844 139.359375 C 104.738281 138.796875 124.253906 127.726563 134.8125 109.601563 C 138.546875 103.195313 139.609375 96.425781 132.871094 91.328125 C 128.699219 88.167969 123.601563 86.570313 116.8125 94.511719 C 106.484375 106.597656 93.542969 113.550781 78.496094 114.320313 C 77.089844 114.394531 75.742188 114.382813 74.335938 114.300781 C 59.4375 113.441406 46.621094 106.5 36.371094 94.511719 "/>
<path style=" stroke:none;fill-rule:nonzero;fill:rgb(13.699341%,12.199402%,12.5%);fill-opacity:1;" d="M 27.425781 87.886719 C 30.285156 88.105469 33.460938 89.773438 37.027344 93.949219 C 44.289063 102.449219 52.859375 108.367188 62.550781 111.335938 C 64.441406 111.910156 66.367188 112.375 68.332031 112.730469 C 70.289063 113.074219 72.300781 113.3125 74.359375 113.429688 L 74.382813 113.433594 C 75.085938 113.472656 75.761719 113.496094 76.417969 113.5 C 77.078125 113.503906 77.75 113.488281 78.453125 113.449219 C 89.101563 112.90625 98.671875 109.214844 106.988281 102.765625 C 108.605469 101.503906 110.179688 100.140625 111.703125 98.675781 C 113.230469 97.210938 114.710938 95.640625 116.136719 93.96875 L 116.15625 93.949219 C 119.722656 89.773438 122.898438 88.105469 125.757813 87.886719 C 128.660156 87.671875 131.160156 88.945313 133.394531 90.636719 C 137 93.363281 138.519531 96.5625 138.636719 99.949219 C 138.75 103.253906 137.503906 106.703125 135.558594 110.039063 C 127.851563 123.273438 115.445313 132.796875 99.320313 137.3125 L 99.316406 137.3125 C 96.183594 138.191406 92.910156 138.878906 89.511719 139.363281 C 86.105469 139.855469 82.570313 140.144531 78.917969 140.226563 C 78.902344 140.226563 78.878906 140.226563 78.859375 140.230469 C 78.234375 140.242188 77.597656 140.25 76.960938 140.253906 C 76.75 140.253906 76.542969 140.253906 76.332031 140.253906 C 76.140625 140.253906 75.949219 140.25 75.761719 140.25 L 75.757813 140.25 C 75.234375 140.246094 74.71875 140.238281 74.214844 140.226563 C 55.402344 139.792969 39.917969 133.871094 28.722656 123.75 C 26.550781 121.789063 24.535156 119.652344 22.675781 117.363281 C 20.820313 115.074219 19.140625 112.644531 17.644531 110.082031 L 17.644531 110.078125 C 17.640625 110.066406 17.632813 110.054688 17.625 110.042969 L 17.621094 110.039063 C 15.679688 106.703125 14.433594 103.253906 14.546875 99.949219 C 14.667969 96.5625 16.183594 93.363281 19.785156 90.636719 C 22.023438 88.945313 24.523438 87.671875 27.425781 87.886719 Z M 35.714844 95.074219 C 32.496094 91.308594 29.726563 89.808594 27.296875 89.625 C 24.90625 89.445313 22.773438 90.550781 20.832031 92.019531 C 17.703125 94.386719 16.382813 97.125 16.28125 100 C 16.179688 102.953125 17.328125 106.09375 19.117188 109.164063 C 19.125 109.183594 19.136719 109.199219 19.144531 109.207031 C 20.601563 111.710938 22.234375 114.070313 24.015625 116.269531 C 25.796875 118.46875 27.761719 120.539063 29.886719 122.460938 C 40.777344 132.304688 55.878906 138.070313 74.246094 138.488281 C 74.757813 138.5 75.269531 138.507813 75.769531 138.511719 C 75.769531 138.511719 75.769531 138.511719 75.773438 138.511719 C 75.960938 138.515625 76.148438 138.515625 76.332031 138.515625 C 76.542969 138.515625 76.75 138.515625 76.960938 138.515625 C 77.570313 138.511719 78.195313 138.503906 78.824219 138.492188 C 78.84375 138.492188 78.867188 138.492188 78.886719 138.492188 C 82.480469 138.410156 85.949219 138.125 89.269531 137.648438 C 92.601563 137.171875 95.796875 136.5 98.851563 135.644531 C 114.535156 131.253906 126.585938 122.007813 134.0625 109.167969 C 135.855469 106.097656 137.003906 102.957031 136.898438 100 C 136.800781 97.125 135.484375 94.386719 132.355469 92.019531 C 130.414063 90.550781 128.277344 89.445313 125.886719 89.625 C 123.457031 89.808594 120.691406 91.308594 117.46875 95.074219 L 117.46875 95.078125 L 117.453125 95.09375 C 115.988281 96.804688 114.472656 98.417969 112.902344 99.925781 C 111.339844 101.429688 109.714844 102.832031 108.042969 104.132813 C 99.441406 110.804688 89.546875 114.625 78.542969 115.1875 C 77.835938 115.222656 77.128906 115.238281 76.410156 115.238281 C 75.691406 115.234375 74.988281 115.210938 74.285156 115.167969 L 74.261719 115.167969 C 72.152344 115.046875 70.074219 114.796875 68.03125 114.433594 C 65.988281 114.074219 63.992188 113.589844 62.050781 112.996094 C 52.035156 109.933594 43.195313 103.828125 35.714844 95.074219 "/>
<path style=" stroke:none;fill-rule:evenodd;fill:rgb(92.89856%,10.998535%,14.099121%);fill-opacity:1;" d="M 34.492188 96.160156 L 33.886719 95.472656 L 33.324219 94.875 L 32.773438 94.324219 L 32.238281 93.832031 L 31.722656 93.390625 L 31.222656 92.996094 L 30.742188 92.652344 L 30.28125 92.351563 L 29.835938 92.09375 L 29.40625 91.878906 L 28.996094 91.695313 L 28.605469 91.550781 L 28.226563 91.433594 L 27.863281 91.347656 L 27.511719 91.285156 L 27.171875 91.25 L 26.835938 91.234375 L 26.511719 91.242188 L 26.183594 91.269531 L 25.863281 91.316406 L 25.539063 91.382813 L 25.214844 91.46875 L 24.886719 91.570313 L 24.554688 91.695313 L 24.21875 91.839844 L 23.882813 92 L 23.542969 92.179688 L 23.199219 92.378906 L 22.855469 92.589844 L 22.511719 92.816406 L 22.164063 93.0625 L 21.828125 93.308594 L 21.296875 93.734375 L 20.824219 94.144531 L 20.398438 94.558594 L 20.007813 94.96875 L 19.660156 95.386719 L 19.351563 95.796875 L 19.078125 96.210938 L 18.835938 96.625 L 18.625 97.039063 L 18.445313 97.453125 L 18.292969 97.875 L 18.167969 98.300781 L 18.070313 98.730469 L 17.992188 99.164063 L 17.941406 99.609375 L 17.910156 100.0625 L 17.90625 100.523438 L 17.925781 100.992188 L 17.96875 101.472656 L 18.039063 101.960938 L 18.125 102.457031 L 18.234375 102.960938 L 18.375 103.476563 L 18.53125 103.996094 L 18.710938 104.523438 L 18.910156 105.058594 L 19.132813 105.597656 L 19.375 106.140625 L 19.636719 106.6875 L 19.914063 107.238281 L 20.214844 107.792969 L 20.527344 108.335938 L 21.5 109.949219 L 22.523438 111.511719 L 23.589844 113.035156 L 24.707031 114.515625 L 25.871094 115.949219 L 27.085938 117.347656 L 28.34375 118.699219 L 29.652344 120.007813 L 31.007813 121.273438 L 32.402344 122.492188 L 33.851563 123.664063 L 35.339844 124.800781 L 36.878906 125.878906 L 38.457031 126.917969 L 40.085938 127.90625 L 41.753906 128.851563 L 43.46875 129.738281 L 45.226563 130.585938 L 47.027344 131.375 L 48.875 132.121094 L 50.765625 132.816406 L 52.699219 133.457031 L 54.671875 134.042969 L 56.6875 134.582031 L 58.742188 135.0625 L 60.84375 135.484375 L 62.984375 135.859375 L 65.164063 136.171875 L 67.386719 136.433594 L 69.648438 136.632813 L 71.945313 136.777344 L 74.296875 136.859375 L 74.566406 136.867188 L 75.691406 136.882813 L 76.253906 136.882813 L 76.539063 136.886719 L 76.816406 136.886719 L 77.097656 136.882813 L 77.660156 136.882813 L 77.941406 136.875 L 78.226563 136.871094 L 78.507813 136.867188 L 78.773438 136.863281 L 81.128906 136.777344 L 83.4375 136.640625 L 85.699219 136.441406 L 87.929688 136.1875 L 90.113281 135.871094 L 92.257813 135.503906 L 94.363281 135.078125 L 96.421875 134.597656 L 98.445313 134.0625 L 100.425781 133.476563 L 102.359375 132.835938 L 104.253906 132.144531 L 106.101563 131.398438 L 107.90625 130.605469 L 109.671875 129.761719 L 111.386719 128.871094 L 113.0625 127.929688 L 114.695313 126.9375 L 116.277344 125.902344 L 117.816406 124.820313 L 119.308594 123.683594 L 120.761719 122.507813 L 122.160156 121.292969 L 123.515625 120.023438 L 124.824219 118.714844 L 126.089844 117.359375 L 127.304688 115.960938 L 128.46875 114.523438 L 129.589844 113.042969 L 130.660156 111.515625 L 131.683594 109.949219 L 132.660156 108.335938 L 132.96875 107.792969 L 133.265625 107.238281 L 133.542969 106.6875 L 133.808594 106.140625 L 134.046875 105.597656 L 134.273438 105.058594 L 134.472656 104.523438 L 134.652344 103.996094 L 134.808594 103.476563 L 134.945313 102.960938 L 135.054688 102.457031 L 135.144531 101.960938 L 135.214844 101.472656 L 135.253906 100.992188 L 135.273438 100.519531 L 135.269531 100.0625 L 135.242188 99.609375 L 135.191406 99.164063 L 135.113281 98.730469 L 135.015625 98.300781 L 134.886719 97.875 L 134.734375 97.453125 L 134.554688 97.039063 L 134.347656 96.625 L 134.105469 96.210938 L 133.832031 95.796875 L 133.523438 95.386719 L 133.175781 94.96875 L 132.785156 94.558594 L 132.359375 94.144531 L 131.882813 93.734375 L 131.351563 93.3125 L 131.015625 93.066406 L 130.671875 92.820313 L 130.328125 92.589844 L 129.984375 92.378906 L 129.640625 92.179688 L 129.300781 92 L 128.964844 91.839844 L 128.628906 91.695313 L 128.296875 91.570313 L 127.972656 91.46875 L 127.644531 91.382813 L 127.316406 91.316406 L 126.996094 91.269531 L 126.671875 91.242188 L 126.34375 91.234375 L 126.011719 91.25 L 125.667969 91.285156 L 125.316406 91.347656 L 124.957031 91.433594 L 124.578125 91.550781 L 124.183594 91.695313 L 123.777344 91.878906 L 123.347656 92.09375 L 122.90625 92.351563 L 122.441406 92.652344 L 121.957031 92.996094 L 121.457031 93.390625 L 120.941406 93.832031 L 120.410156 94.324219 L 119.859375 94.875 L 119.292969 95.472656 L 118.691406 96.160156 L 117.703125 97.289063 L 116.675781 98.421875 L 115.628906 99.515625 L 114.570313 100.582031 L 113.492188 101.617188 L 112.398438 102.621094 L 111.289063 103.59375 L 110.164063 104.53125 L 109.019531 105.441406 L 107.859375 106.316406 L 106.6875 107.160156 L 105.496094 107.972656 L 104.292969 108.746094 L 103.070313 109.488281 L 101.832031 110.199219 L 100.582031 110.875 L 99.3125 111.515625 L 98.03125 112.121094 L 96.734375 112.691406 L 95.421875 113.226563 L 94.097656 113.726563 L 92.757813 114.191406 L 91.402344 114.617188 L 90.035156 115.011719 L 88.652344 115.367188 L 87.257813 115.683594 L 85.851563 115.964844 L 84.433594 116.210938 L 82.996094 116.417969 L 81.554688 116.585938 L 80.09375 116.722656 L 78.632813 116.8125 L 78.34375 116.828125 L 78.066406 116.839844 L 77.785156 116.847656 L 77.507813 116.855469 L 77.234375 116.863281 L 76.953125 116.867188 L 76.402344 116.867188 L 76.125 116.863281 L 75.851563 116.859375 L 75.578125 116.851563 L 75.023438 116.835938 L 74.746094 116.824219 L 74.472656 116.808594 L 74.179688 116.792969 L 72.734375 116.691406 L 71.292969 116.550781 L 69.859375 116.375 L 68.441406 116.160156 L 67.03125 115.910156 L 65.640625 115.621094 L 64.261719 115.296875 L 62.890625 114.9375 L 61.535156 114.542969 L 60.195313 114.113281 L 58.867188 113.648438 L 57.554688 113.144531 L 56.253906 112.605469 L 54.96875 112.039063 L 53.703125 111.429688 L 52.445313 110.792969 L 51.203125 110.117188 L 49.980469 109.410156 L 48.769531 108.667969 L 47.574219 107.894531 L 46.394531 107.085938 L 45.230469 106.25 L 44.082031 105.378906 L 42.953125 104.476563 L 41.832031 103.539063 L 40.734375 102.574219 L 39.648438 101.578125 L 38.582031 100.550781 L 37.527344 99.488281 L 36.492188 98.402344 L 35.472656 97.28125 L 34.492188 96.160156 "/>
<path style=" stroke:none;fill-rule:evenodd;fill:rgb(100%,94.898987%,0%);fill-opacity:1;" d="M 106.773438 127.148438 L 100.808594 116.390625 L 105.40625 113.84375 C 106.992188 112.960938 108.476563 112.746094 109.839844 113.207031 C 111.199219 113.660156 112.367188 114.757813 113.328125 116.496094 C 114.324219 118.292969 114.628906 119.882813 114.242188 121.257813 C 113.859375 122.636719 112.78125 123.816406 111.007813 124.800781 Z M 108.289063 123.355469 L 109.789063 122.523438 C 110.636719 122.054688 111.125 121.457031 111.242188 120.734375 C 111.359375 120.015625 111.125 119.121094 110.527344 118.046875 C 109.933594 116.96875 109.296875 116.292969 108.625 116.015625 C 107.953125 115.738281 107.1875 115.832031 106.335938 116.304688 L 104.839844 117.132813 Z M 92.699219 132.167969 L 89.101563 120.40625 L 98.039063 117.671875 L 98.773438 120.085938 L 92.847656 121.898438 L 93.484375 123.976563 L 98.898438 122.320313 L 99.617188 124.671875 L 94.203125 126.332031 L 94.972656 128.84375 L 101.089844 126.972656 L 101.824219 129.375 Z M 81.421875 133.632813 L 80.734375 123.855469 L 77.222656 124.101563 L 77.046875 121.613281 L 87.214844 120.898438 L 87.390625 123.390625 L 83.875 123.636719 L 84.5625 133.414063 Z M 69.886719 133.464844 L 70.746094 121.195313 L 73.882813 121.417969 L 73.023438 133.6875 Z M 53.585938 130.242188 L 56.558594 118.3125 L 59.867188 119.136719 L 61.140625 123.621094 C 61.351563 124.34375 61.542969 125.066406 61.714844 125.773438 C 61.886719 126.484375 62.042969 127.179688 62.183594 127.863281 C 62.363281 126.949219 62.546875 126.097656 62.71875 125.304688 C 62.894531 124.507813 63.058594 123.8125 63.207031 123.210938 L 63.96875 120.15625 L 66.914063 120.894531 L 63.941406 132.828125 L 60.644531 132.003906 L 59.308594 127.386719 C 59.148438 126.84375 58.984375 126.230469 58.804688 125.5625 C 58.628906 124.890625 58.441406 124.167969 58.257813 123.390625 C 58.121094 124.179688 57.984375 124.917969 57.84375 125.59375 C 57.703125 126.269531 57.570313 126.867188 57.4375 127.382813 L 56.542969 130.984375 Z M 44.871094 112.273438 L 47.609375 113.730469 L 44 120.507813 C 43.605469 121.257813 43.464844 121.863281 43.578125 122.328125 C 43.691406 122.800781 44.078125 123.207031 44.726563 123.554688 C 45.371094 123.894531 45.917969 123.984375 46.367188 123.816406 C 46.816406 123.648438 47.238281 123.1875 47.636719 122.441406 L 51.238281 115.660156 L 54.007813 117.128906 L 50.578125 123.582031 C 50.09375 124.492188 49.621094 125.167969 49.15625 125.613281 C 48.691406 126.058594 48.15625 126.363281 47.550781 126.523438 C 46.914063 126.679688 46.261719 126.703125 45.59375 126.597656 C 44.921875 126.492188 44.230469 126.246094 43.515625 125.867188 C 42.800781 125.492188 42.21875 125.050781 41.75 124.554688 C 41.285156 124.0625 40.945313 123.503906 40.722656 122.890625 C 40.507813 122.292969 40.457031 121.671875 40.5625 121.03125 C 40.671875 120.390625 40.964844 119.625 41.445313 118.726563 L 44.871094 112.273438 "/>
<path style=" stroke:none;fill-rule:nonzero;fill:rgb(13.699341%,12.199402%,12.5%);fill-opacity:1;" d="M 119.386719 132.300781 L 119.382813 132.300781 C 118.152344 132.300781 117.042969 132.800781 116.234375 133.601563 C 115.425781 134.40625 114.925781 135.515625 114.925781 136.738281 L 114.925781 136.746094 C 114.925781 137.964844 115.425781 139.070313 116.234375 139.867188 C 117.039063 140.664063 118.152344 141.160156 119.382813 141.160156 L 119.386719 141.160156 C 120.605469 141.160156 121.714844 140.664063 122.519531 139.867188 C 123.320313 139.070313 123.820313 137.960938 123.820313 136.742188 L 123.820313 136.738281 C 123.820313 135.511719 123.320313 134.40625 122.519531 133.601563 C 121.714844 132.800781 120.605469 132.300781 119.386719 132.300781 Z M 119.382813 131 L 119.386719 131 C 120.957031 131 122.394531 131.644531 123.4375 132.683594 C 124.472656 133.722656 125.125 135.15625 125.125 136.738281 L 125.125 136.742188 C 125.125 138.320313 124.472656 139.753906 123.433594 140.789063 C 122.394531 141.820313 120.957031 142.460938 119.386719 142.460938 L 119.382813 142.460938 C 117.800781 142.460938 116.363281 141.820313 115.316406 140.789063 C 114.273438 139.753906 113.625 138.324219 113.625 136.746094 L 113.625 136.738281 C 113.625 135.15625 114.273438 133.722656 115.316406 132.683594 C 116.363281 131.644531 117.796875 131 119.382813 131 "/>
<path style=" stroke:none;fill-rule:evenodd;fill:rgb(13.699341%,12.199402%,12.5%);fill-opacity:1;" d="M 117.074219 139.507813 L 117.074219 133.804688 L 119.800781 133.804688 C 120.523438 133.804688 121.058594 133.933594 121.402344 134.195313 C 121.742188 134.449219 121.914063 134.851563 121.914063 135.394531 C 121.914063 135.714844 121.839844 135.988281 121.695313 136.214844 C 121.546875 136.441406 121.320313 136.632813 121.015625 136.789063 C 121.265625 136.886719 121.441406 137.015625 121.542969 137.179688 C 121.644531 137.34375 121.707031 137.628906 121.722656 138.046875 C 121.730469 138.160156 121.738281 138.316406 121.746094 138.511719 C 121.765625 138.972656 121.84375 139.238281 121.980469 139.308594 L 121.980469 139.507813 L 120.453125 139.507813 C 120.378906 139.304688 120.335938 139.03125 120.324219 138.679688 C 120.316406 138.328125 120.304688 138.109375 120.292969 138.015625 C 120.269531 137.792969 120.195313 137.632813 120.070313 137.53125 C 119.941406 137.429688 119.753906 137.375 119.5 137.375 L 118.527344 137.375 L 118.527344 139.507813 Z M 118.527344 136.25 L 119.613281 136.25 C 119.90625 136.25 120.121094 136.195313 120.261719 136.085938 C 120.402344 135.976563 120.46875 135.800781 120.46875 135.570313 C 120.46875 135.359375 120.402344 135.203125 120.269531 135.097656 C 120.132813 135 119.929688 134.945313 119.652344 134.945313 L 118.527344 134.945313 L 118.527344 136.25 "/>
<path style=" stroke:none;fill-rule:evenodd;fill:rgb(92.89856%,10.998535%,14.099121%);fill-opacity:1;" d="M 104.632813 39.28125 L 48.546875 39.28125 L 48.546875 100.710938 L 76.589844 118.960938 L 104.632813 100.710938 L 104.632813 39.28125 "/>
<path style=" stroke:none;fill-rule:nonzero;fill:rgb(13.699341%,12.199402%,12.5%);fill-opacity:1;" d="M 48.546875 38.421875 L 105.5 38.421875 L 105.5 101.179688 L 105.105469 101.4375 L 77.066406 119.6875 L 76.589844 119.992188 L 76.121094 119.6875 L 48.078125 101.4375 L 47.679688 101.179688 L 47.679688 38.421875 Z M 103.769531 40.152344 L 49.417969 40.152344 L 49.417969 100.246094 L 76.589844 117.933594 L 103.769531 100.246094 L 103.769531 40.152344 "/>
<path style=" stroke:none;fill-rule:evenodd;fill:rgb(100%,94.898987%,0%);fill-opacity:1;" d="M 67.097656 44.542969 L 64.65625 51.363281 C 63.339844 51.292969 62.3125 51.027344 61.570313 50.574219 Z M 54.320313 56.773438 L 101.113281 56.773438 L 101.113281 55.628906 L 92.433594 55.628906 L 92.433594 52.453125 C 91.375 52.496094 90.34375 52.53125 89.332031 52.566406 L 89.308594 50.878906 L 92.269531 50.878906 L 92.269531 44.523438 L 89.222656 43.976563 L 89.210938 43.035156 L 88.238281 43.035156 L 88.226563 43.976563 L 85.179688 44.523438 L 85.179688 50.878906 L 88.144531 50.878906 L 88.121094 52.582031 L 87.488281 52.582031 L 87.488281 52.628906 C 85.324219 52.6875 83.261719 52.742188 81.300781 52.773438 L 81.300781 52.582031 L 80.667969 52.582031 L 80.644531 50.878906 L 83.609375 50.878906 L 83.609375 44.523438 L 80.5625 43.976563 L 80.546875 43.035156 L 79.578125 43.035156 L 79.566406 43.976563 L 76.519531 44.523438 L 76.519531 50.878906 L 79.480469 50.878906 L 79.457031 52.582031 L 78.824219 52.582031 L 78.824219 52.804688 C 76.570313 52.828125 74.472656 52.824219 72.535156 52.792969 L 72.535156 52.582031 L 71.902344 52.582031 L 71.882813 50.878906 L 74.847656 50.878906 L 74.847656 44.523438 L 71.796875 43.976563 L 71.785156 43.035156 L 70.816406 43.035156 L 70.804688 43.976563 L 67.753906 44.523438 L 67.753906 50.878906 L 70.714844 50.878906 L 70.699219 52.582031 L 70.0625 52.582031 L 70.0625 52.734375 C 65.175781 52.589844 61.523438 52.246094 59.261719 51.671875 C 59.300781 53.355469 59.988281 54.601563 61.003906 55.628906 L 53.257813 55.628906 L 54.320313 56.773438 "/>
<path style=" stroke:none;fill-rule:evenodd;fill:rgb(100%,94.898987%,0%);fill-opacity:1;" d="M 100.277344 59.773438 L 52.902344 59.773438 L 52.902344 97.171875 L 76.589844 112.101563 L 100.277344 97.171875 L 100.277344 59.773438 "/>
<path style=" stroke:none;fill-rule:evenodd;fill:rgb(92.89856%,10.998535%,14.099121%);fill-opacity:1;" d="M 73.957031 67.5625 L 74.902344 67.234375 L 75.707031 68.875 L 74.9375 69.679688 L 73.917969 68.730469 Z M 78.074219 67.929688 L 79.238281 67.195313 L 80.1875 67.746094 L 78.761719 69.347656 L 78.074219 69.023438 Z M 88.847656 83.042969 L 88.859375 81.960938 C 88.484375 80.414063 86.199219 80.757813 84.304688 81.394531 C 86.324219 83.9375 88.464844 84.6875 88.847656 83.042969 Z M 78.695313 73.371094 C 78.054688 74.152344 77.410156 74.933594 76.769531 75.71875 C 76.300781 74.917969 75.828125 74.121094 75.355469 73.328125 C 76.46875 73.34375 77.582031 73.359375 78.695313 73.371094 Z M 57.882813 76.257813 C 61.011719 72.175781 63.378906 72.6875 65.632813 73.859375 C 64.6875 74.878906 63.703125 75.789063 62.464844 75.929688 C 64.320313 77.207031 65.019531 78.46875 64.976563 79.757813 C 64.835938 84.265625 64.976563 88.78125 64.976563 93.296875 C 64.679688 94.640625 64.855469 96.132813 70.332031 96.351563 C 70.332031 97.082031 70.332031 98.136719 70.332031 98.863281 C 69.964844 99.777344 69.53125 100.945313 69.457031 101.921875 C 69.34375 103.347656 69.3125 104.5 69.78125 105.851563 C 70.136719 106.863281 71.023438 107.601563 71.640625 108.472656 C 72.074219 110.949219 70.71875 111.996094 71.3125 113.605469 C 71.664063 114.570313 73.03125 115.1875 74.039063 115.023438 C 75.605469 114.769531 76.777344 113.414063 78.078125 112.515625 C 79.144531 111.773438 79.246094 110.765625 78.519531 109.675781 C 77.789063 108.617188 76.859375 107.679688 76.335938 106.507813 C 76.066406 105.910156 75.886719 105.109375 76.226563 104.539063 C 76.679688 103.777344 77.683594 103.523438 78.410156 103.011719 C 78.703125 102.394531 78.882813 101.703125 78.300781 100.5 C 77.5 99.152344 76.523438 97.898438 75.894531 96.460938 C 75.417969 95.363281 76.011719 94.867188 76.769531 95.589844 C 79.441406 98.117188 81.988281 100.792969 84.414063 103.558594 C 85.816406 105.167969 86.539063 105.089844 86.488281 103.011719 C 86.46875 102.226563 85.984375 101.503906 85.945313 100.722656 C 85.875 99.480469 85.988281 98.238281 86.160156 97.007813 C 86.246094 96.40625 86.507813 95.839844 86.707031 95.257813 C 87.019531 94.347656 86.679688 93.449219 85.503906 93.40625 C 84.699219 93.375 84.171875 93.5 84.085938 92.859375 C 83.988281 92.136719 83.957031 91.390625 84.085938 90.675781 C 84.359375 89.15625 84.179688 89.238281 82.667969 90.128906 C 81.828125 90.621094 81.246094 90.125 81.136719 89.472656 C 80.984375 88.523438 81.789063 87.328125 82.777344 86.089844 C 84.742188 87.035156 86.707031 87.980469 88.671875 88.929688 C 88.710938 88.910156 88.75 88.894531 88.792969 88.878906 L 88.625 105.523438 L 91.015625 105.523438 L 90.839844 88.058594 C 91.023438 87.988281 91.214844 87.910156 91.402344 87.835938 C 92.351563 86.308594 92.421875 84.925781 91.621094 83.6875 C 92.640625 82.960938 92.894531 81.972656 93.039063 80.957031 C 92.273438 79.652344 91.507813 78.839844 90.742188 78.3125 L 90.707031 75.0625 L 94.910156 75.0625 L 94.84375 68.042969 L 95.839844 66.980469 L 94.023438 63.804688 L 92.203125 66.980469 L 93.203125 68.042969 L 93.164063 72.003906 L 90.679688 72.003906 L 90.640625 68.042969 L 91.636719 66.980469 L 89.820313 63.804688 L 88 66.980469 L 89 68.042969 L 88.960938 72.003906 L 86.476563 72.003906 L 86.4375 68.042969 L 87.433594 66.980469 L 85.617188 63.804688 L 83.796875 66.980469 L 84.796875 68.042969 L 84.726563 75.0625 L 88.929688 75.0625 L 88.90625 77.484375 C 88.71875 77.433594 88.53125 77.394531 88.34375 77.355469 C 85.804688 76.949219 84.351563 78.386719 82.558594 79.210938 C 82.058594 79.441406 81.5 78.707031 81.792969 78.117188 C 81.96875 77.769531 82.578125 77.921875 82.886719 77.679688 C 83.394531 77.285156 83.761719 76.734375 84.195313 76.257813 C 82.890625 75.304688 81.589844 74.351563 80.28125 73.394531 C 80.636719 73.394531 80.996094 73.402344 81.351563 73.40625 C 81.472656 71.566406 81.59375 69.730469 81.714844 67.890625 C 82.464844 66.683594 83.222656 65.476563 83.972656 64.273438 C 83.085938 64.308594 82.203125 64.347656 81.3125 64.386719 C 80.746094 63.347656 80.171875 62.3125 79.601563 61.277344 C 78.679688 62.074219 77.839844 63.035156 77.308594 64.605469 C 76.578125 64.492188 75.851563 64.386719 75.121094 64.273438 C 74.550781 63.300781 73.980469 62.324219 73.410156 61.355469 C 72.480469 62.261719 71.863281 63.285156 71.808594 64.492188 C 70.53125 64.355469 69.484375 64.609375 68.785156 65.445313 C 70.605469 67.398438 72.148438 69.878906 73.195313 73.296875 C 73.386719 73.300781 73.570313 73.304688 73.761719 73.304688 C 72.742188 74.574219 71.566406 75.726563 70.765625 77.132813 C 70.378906 77.8125 70.460938 78.714844 70.765625 79.429688 C 71.347656 80.800781 72.265625 81.960938 72.402344 84.453125 C 72.003906 85.144531 71.601563 85.835938 71.203125 86.523438 C 69.964844 87.945313 69.082031 87.777344 68.800781 85.980469 C 68.496094 84.0625 68.121094 82.136719 68.144531 80.191406 C 68.15625 79.179688 68.488281 78.167969 68.910156 77.246094 C 69.265625 76.464844 70.203125 75.996094 70.4375 75.167969 C 70.636719 74.460938 70.484375 73.617188 70.109375 72.984375 C 69.601563 72.121094 68.242188 71.859375 67.925781 70.910156 L 66.070313 65.339844 C 65.925781 65.925781 65.78125 66.507813 65.632813 67.089844 C 64.617188 66.578125 63.597656 66.070313 62.578125 65.5625 C 61.519531 67.015625 60.464844 68.472656 59.410156 69.929688 C 58.574219 69.890625 57.734375 69.851563 56.898438 69.820313 C 56.679688 70.148438 56.460938 70.476563 56.242188 70.800781 C 56.789063 72.625 57.335938 74.441406 57.882813 76.257813 "/>
<path style=" stroke:none;fill-rule:evenodd;fill:rgb(100%,94.898987%,0%);fill-opacity:1;" d="M 128.484375 34.5625 C 128.246094 29.007813 130.738281 24.578125 134.21875 27.710938 C 136.777344 30.449219 139.332031 33.1875 141.890625 35.921875 C 138.847656 32.820313 138.097656 42.113281 138.398438 45.132813 C 134.960938 42.589844 131.640625 39.199219 128.484375 34.5625 "/>
<path style=" stroke:none;fill-rule:nonzero;fill:rgb(13.699341%,12.199402%,12.5%);fill-opacity:1;" d="M 130.140625 29.3125 C 129.582031 30.578125 129.289063 32.34375 129.339844 34.285156 C 130.847656 36.472656 132.390625 38.375 133.960938 40.035156 C 135.117188 41.253906 136.289063 42.339844 137.472656 43.3125 C 137.5 41.511719 137.714844 39.199219 138.1875 37.46875 C 138.421875 36.609375 138.734375 35.863281 139.128906 35.339844 C 139.289063 35.121094 139.464844 34.9375 139.652344 34.792969 L 133.621094 28.335938 C 133.140625 27.90625 132.707031 27.660156 132.324219 27.574219 C 131.910156 27.476563 131.53125 27.574219 131.203125 27.8125 C 130.796875 28.121094 130.433594 28.640625 130.140625 29.3125 Z M 127.617188 34.601563 C 127.515625 32.3125 127.867188 30.183594 128.550781 28.617188 C 128.96875 27.667969 129.515625 26.914063 130.175781 26.429688 C 130.914063 25.882813 131.769531 25.667969 132.707031 25.886719 C 133.382813 26.042969 134.085938 26.425781 134.800781 27.066406 L 134.855469 27.121094 L 142.523438 35.335938 L 141.273438 36.53125 C 141.269531 36.527344 141.261719 36.519531 141.257813 36.511719 L 141.25 36.503906 C 141.050781 36.304688 140.894531 36.199219 140.769531 36.167969 C 140.710938 36.152344 140.617188 36.230469 140.511719 36.375 C 140.261719 36.707031 140.046875 37.257813 139.863281 37.925781 C 139.246094 40.179688 139.101563 43.488281 139.253906 45.046875 L 139.445313 46.984375 L 137.882813 45.824219 C 136.121094 44.523438 134.394531 43.007813 132.707031 41.230469 C 131.019531 39.449219 129.371094 37.402344 127.769531 35.054688 L 127.628906 34.84375 L 127.617188 34.601563 "/>
<path style=" stroke:none;fill-rule:evenodd;fill:rgb(100%,94.898987%,0%);fill-opacity:1;" d="M 131.71875 32.730469 C 134.046875 36.089844 136.796875 39.222656 140.378906 41.886719 C 142.585938 41.902344 144.183594 39.304688 142.984375 37.074219 L 133.648438 27.242188 C 135.472656 28.582031 134.066406 32.382813 131.71875 32.730469 "/>
<path style=" stroke:none;fill-rule:nonzero;fill:rgb(13.699341%,12.199402%,12.5%);fill-opacity:1;" d="M 134.945313 38.160156 C 133.492188 36.59375 132.195313 34.9375 131.007813 33.222656 L 130.214844 32.078125 L 131.59375 31.875 C 132.128906 31.792969 132.609375 31.429688 132.96875 30.9375 C 133.207031 30.613281 133.394531 30.234375 133.503906 29.847656 C 133.609375 29.480469 133.644531 29.105469 133.59375 28.769531 C 133.566406 28.582031 133.511719 28.410156 133.421875 28.257813 L 133.023438 27.835938 L 134.160156 26.539063 C 134.417969 26.730469 134.628906 26.953125 134.800781 27.195313 L 143.613281 36.480469 L 143.695313 36.5625 L 143.75 36.664063 C 144.109375 37.335938 144.269531 38.035156 144.265625 38.707031 L 144.265625 38.710938 C 144.257813 39.46875 144.042969 40.199219 143.671875 40.820313 C 143.296875 41.449219 142.765625 41.96875 142.128906 42.3125 C 141.601563 42.597656 141.003906 42.757813 140.371094 42.757813 L 140.09375 42.753906 L 139.863281 42.582031 C 138.023438 41.214844 136.398438 39.730469 134.945313 38.160156 Z M 133.074219 33.152344 C 134.035156 34.472656 135.070313 35.753906 136.214844 36.980469 C 137.539063 38.410156 139 39.757813 140.640625 41.003906 C 140.882813 40.96875 141.105469 40.902344 141.308594 40.789063 C 141.664063 40.597656 141.964844 40.296875 142.179688 39.9375 C 142.398438 39.570313 142.523438 39.144531 142.527344 38.699219 C 142.527344 38.695313 142.527344 38.695313 142.527344 38.695313 C 142.53125 38.328125 142.449219 37.945313 142.273438 37.578125 L 135.214844 30.148438 C 135.203125 30.203125 135.1875 30.257813 135.171875 30.316406 C 135.007813 30.898438 134.726563 31.472656 134.367188 31.964844 C 134.015625 32.441406 133.574219 32.855469 133.074219 33.152344 "/>
<path style=" stroke:none;fill-rule:evenodd;fill:rgb(100%,94.898987%,0%);fill-opacity:1;" d="M 24.699219 34.5625 C 24.941406 29.007813 22.445313 24.578125 18.960938 27.710938 C 16.402344 30.449219 13.851563 33.1875 11.292969 35.921875 C 14.335938 32.820313 15.082031 42.113281 14.789063 45.132813 C 18.222656 42.589844 21.542969 39.199219 24.699219 34.5625 "/>
<path style=" stroke:none;fill-rule:nonzero;fill:rgb(13.699341%,12.199402%,12.5%);fill-opacity:1;" d="M 24.632813 28.617188 C 25.316406 30.183594 25.664063 32.3125 25.566406 34.601563 L 25.554688 34.84375 L 25.414063 35.054688 C 23.808594 37.402344 22.160156 39.449219 20.472656 41.230469 C 18.785156 43.007813 17.058594 44.523438 15.304688 45.824219 L 13.738281 46.984375 L 13.925781 45.046875 C 14.078125 43.488281 13.941406 40.179688 13.320313 37.925781 C 13.140625 37.257813 12.921875 36.707031 12.675781 36.375 C 12.566406 36.230469 12.476563 36.152344 12.410156 36.167969 C 12.292969 36.199219 12.140625 36.300781 11.945313 36.496094 L 11.925781 36.511719 C 11.921875 36.519531 11.914063 36.523438 11.910156 36.53125 L 10.660156 35.335938 L 18.328125 27.121094 L 18.382813 27.066406 C 19.09375 26.425781 19.800781 26.042969 20.472656 25.886719 C 21.417969 25.667969 22.269531 25.882813 23.007813 26.429688 C 23.667969 26.914063 24.214844 27.667969 24.632813 28.617188 Z M 23.839844 34.285156 C 23.894531 32.34375 23.605469 30.578125 23.046875 29.3125 C 22.75 28.640625 22.390625 28.121094 21.976563 27.8125 C 21.648438 27.574219 21.277344 27.476563 20.863281 27.574219 C 20.476563 27.660156 20.046875 27.90625 19.566406 28.328125 L 13.53125 34.796875 C 13.714844 34.9375 13.890625 35.121094 14.054688 35.339844 C 14.449219 35.863281 14.757813 36.609375 14.996094 37.46875 C 15.472656 39.199219 15.683594 41.511719 15.710938 43.3125 C 16.894531 42.339844 18.066406 41.253906 19.222656 40.035156 C 20.789063 38.378906 22.332031 36.472656 23.839844 34.285156 "/>
<path style=" stroke:none;fill-rule:evenodd;fill:rgb(100%,94.898987%,0%);fill-opacity:1;" d="M 21.464844 32.730469 C 19.136719 36.089844 16.390625 39.222656 12.808594 41.886719 C 10.597656 41.902344 9 39.304688 10.195313 37.074219 L 19.535156 27.242188 C 17.710938 28.582031 19.117188 32.382813 21.464844 32.730469 "/>
<path style=" stroke:none;fill-rule:nonzero;fill:rgb(13.699341%,12.199402%,12.5%);fill-opacity:1;" d="M 16.972656 36.980469 C 18.109375 35.753906 19.148438 34.472656 20.105469 33.152344 C 19.605469 32.855469 19.171875 32.441406 18.816406 31.964844 C 18.453125 31.472656 18.179688 30.898438 18.011719 30.316406 C 17.996094 30.257813 17.980469 30.203125 17.96875 30.148438 L 10.910156 37.578125 C 10.730469 37.945313 10.65625 38.328125 10.65625 38.695313 C 10.65625 38.695313 10.65625 38.695313 10.65625 38.699219 C 10.660156 39.144531 10.785156 39.570313 11.003906 39.9375 C 11.214844 40.296875 11.519531 40.597656 11.871094 40.789063 C 12.078125 40.902344 12.304688 40.96875 12.539063 41.003906 C 14.183594 39.761719 15.644531 38.410156 16.972656 36.980469 Z M 22.175781 33.222656 C 20.988281 34.9375 19.695313 36.59375 18.238281 38.160156 C 16.78125 39.730469 15.160156 41.214844 13.320313 42.582031 L 13.089844 42.753906 L 12.8125 42.757813 C 12.175781 42.757813 11.582031 42.601563 11.054688 42.3125 C 10.417969 41.96875 9.882813 41.449219 9.507813 40.820313 C 9.144531 40.199219 8.925781 39.46875 8.921875 38.710938 L 8.921875 38.707031 C 8.914063 38.035156 9.074219 37.335938 9.4375 36.664063 L 9.488281 36.5625 L 9.570313 36.480469 L 18.382813 27.195313 C 18.554688 26.953125 18.765625 26.730469 19.023438 26.539063 L 20.164063 27.835938 L 19.761719 28.261719 C 19.671875 28.410156 19.617188 28.585938 19.589844 28.769531 C 19.539063 29.105469 19.578125 29.480469 19.679688 29.847656 C 19.789063 30.234375 19.972656 30.613281 20.214844 30.9375 C 20.574219 31.429688 21.058594 31.792969 21.59375 31.875 L 22.96875 32.078125 L 22.175781 33.222656 "/>
<path style=" stroke:none;fill-rule:evenodd;fill:rgb(100%,94.898987%,0%);fill-opacity:1;" d="M 82.5 7.886719 C 84.996094 4.300781 88.785156 1.460938 93.707031 2.808594 C 97.257813 3.785156 99.769531 7.308594 99.390625 12.132813 C 93.285156 9.414063 87.796875 8.378906 82.5 7.886719 "/>
<path style=" stroke:none;fill-rule:nonzero;fill:rgb(13.699341%,12.199402%,12.5%);fill-opacity:1;" d="M 84.28125 6.992188 C 84.226563 7.058594 84.171875 7.125 84.121094 7.183594 C 86.316406 7.4375 88.546875 7.789063 90.839844 8.328125 C 93.316406 8.914063 95.875 9.710938 98.554688 10.828125 C 98.464844 8.238281 97.4375 6.167969 95.867188 4.878906 C 95.515625 4.59375 95.140625 4.34375 94.75 4.144531 C 94.355469 3.941406 93.933594 3.773438 93.5 3.648438 L 93.5 3.652344 L 93.488281 3.648438 L 93.484375 3.648438 C 90.273438 2.765625 87.589844 3.863281 85.480469 5.765625 C 85.046875 6.160156 84.644531 6.574219 84.28125 6.992188 Z M 81.789063 7.394531 L 81.789063 7.390625 C 82.148438 6.871094 82.546875 6.359375 82.972656 5.863281 C 83.40625 5.359375 83.855469 4.894531 84.316406 4.472656 C 86.828125 2.207031 90.050781 0.910156 93.9375 1.976563 L 93.945313 1.976563 L 93.953125 1.984375 C 94.511719 2.136719 95.042969 2.34375 95.542969 2.601563 C 96.054688 2.867188 96.527344 3.183594 96.964844 3.539063 C 99.203125 5.371094 100.554688 8.429688 100.261719 12.195313 L 100.160156 13.417969 L 99.039063 12.917969 C 96.046875 11.585938 93.199219 10.664063 90.445313 10.015625 C 87.675781 9.367188 85.023438 8.988281 82.421875 8.75 L 80.949219 8.613281 L 81.789063 7.394531 "/>
<path style=" stroke:none;fill-rule:nonzero;fill:rgb(13.699341%,12.199402%,12.5%);fill-opacity:1;" d="M 93.386719 3.640625 C 92.929688 3.503906 92.667969 3.023438 92.804688 2.566406 C 92.941406 2.105469 93.421875 1.847656 93.878906 1.984375 C 94.59375 2.199219 95.15625 2.527344 95.582031 2.925781 C 96.097656 3.40625 96.40625 3.984375 96.550781 4.589844 C 96.6875 5.183594 96.652344 5.796875 96.484375 6.351563 C 96.332031 6.867188 96.0625 7.34375 95.710938 7.722656 L 95.707031 7.722656 C 94.957031 8.519531 93.863281 8.546875 92.992188 8.191406 C 92.703125 8.074219 92.441406 7.914063 92.21875 7.726563 C 91.972656 7.511719 91.773438 7.261719 91.652344 6.976563 C 91.378906 6.367188 91.449219 5.703125 92.058594 5.132813 C 92.410156 4.804688 92.957031 4.824219 93.28125 5.175781 C 93.59375 5.511719 93.589844 6.023438 93.285156 6.351563 C 93.304688 6.371094 93.324219 6.390625 93.347656 6.410156 C 93.429688 6.480469 93.535156 6.542969 93.648438 6.59375 C 93.929688 6.707031 94.261719 6.726563 94.441406 6.539063 L 94.441406 6.535156 C 94.613281 6.347656 94.746094 6.117188 94.828125 5.855469 C 94.910156 5.574219 94.929688 5.269531 94.863281 4.976563 C 94.796875 4.695313 94.648438 4.425781 94.394531 4.191406 L 94.394531 4.183594 C 94.164063 3.960938 93.832031 3.773438 93.386719 3.640625 "/>
<path style=" stroke:none;fill-rule:evenodd;fill:rgb(100%,94.898987%,0%);fill-opacity:1;" d="M 70.679688 7.886719 C 68.183594 4.300781 64.402344 1.460938 59.472656 2.808594 C 55.921875 3.785156 53.414063 7.308594 53.792969 12.132813 C 59.898438 9.414063 65.390625 8.378906 70.679688 7.886719 "/>
<path style=" stroke:none;fill-rule:nonzero;fill:rgb(13.699341%,12.199402%,12.5%);fill-opacity:1;" d="M 69.0625 7.183594 C 69.011719 7.125 68.957031 7.058594 68.902344 6.992188 C 68.535156 6.574219 68.136719 6.160156 67.699219 5.765625 C 65.597656 3.863281 62.910156 2.765625 59.699219 3.648438 L 59.695313 3.648438 L 59.683594 3.652344 L 59.683594 3.648438 C 59.253906 3.773438 58.832031 3.941406 58.433594 4.144531 C 58.042969 4.34375 57.667969 4.59375 57.316406 4.878906 C 55.742188 6.167969 54.71875 8.238281 54.632813 10.828125 C 57.308594 9.710938 59.867188 8.914063 62.34375 8.328125 C 64.636719 7.789063 66.867188 7.4375 69.0625 7.183594 Z M 71.390625 7.390625 L 71.394531 7.394531 L 72.230469 8.613281 L 70.761719 8.75 C 68.160156 8.988281 65.503906 9.367188 62.738281 10.015625 C 59.984375 10.664063 57.136719 11.585938 54.144531 12.917969 L 53.023438 13.417969 L 52.925781 12.195313 C 52.628906 8.429688 53.980469 5.371094 56.21875 3.539063 C 56.65625 3.183594 57.132813 2.867188 57.640625 2.601563 C 58.144531 2.34375 58.675781 2.136719 59.230469 1.984375 L 59.238281 1.976563 L 59.246094 1.976563 C 63.132813 0.910156 66.355469 2.207031 68.863281 4.472656 C 69.332031 4.894531 69.777344 5.359375 70.210938 5.863281 C 70.640625 6.359375 71.03125 6.871094 71.390625 7.390625 "/>
<path style=" stroke:none;fill-rule:nonzero;fill:rgb(13.699341%,12.199402%,12.5%);fill-opacity:1;" d="M 59.300781 1.984375 C 59.761719 1.847656 60.246094 2.105469 60.378906 2.566406 C 60.515625 3.023438 60.257813 3.503906 59.796875 3.640625 C 59.355469 3.773438 59.023438 3.960938 58.785156 4.183594 L 58.785156 4.191406 C 58.539063 4.425781 58.386719 4.695313 58.324219 4.976563 C 58.257813 5.269531 58.273438 5.574219 58.359375 5.855469 C 58.433594 6.117188 58.570313 6.347656 58.742188 6.535156 L 58.742188 6.539063 C 58.921875 6.726563 59.253906 6.707031 59.535156 6.59375 C 59.648438 6.542969 59.753906 6.480469 59.835938 6.410156 C 59.859375 6.390625 59.878906 6.371094 59.898438 6.351563 C 59.59375 6.023438 59.59375 5.507813 59.902344 5.175781 C 60.226563 4.824219 60.777344 4.804688 61.121094 5.132813 C 61.738281 5.703125 61.800781 6.367188 61.53125 6.976563 C 61.410156 7.261719 61.210938 7.511719 60.960938 7.726563 C 60.746094 7.914063 60.476563 8.074219 60.195313 8.191406 C 59.324219 8.546875 58.226563 8.519531 57.480469 7.722656 L 57.476563 7.722656 C 57.121094 7.34375 56.851563 6.867188 56.699219 6.351563 C 56.53125 5.796875 56.5 5.183594 56.632813 4.589844 C 56.773438 3.984375 57.082031 3.40625 57.597656 2.925781 L 57.601563 2.925781 C 58.027344 2.527344 58.589844 2.199219 59.300781 1.984375 "/>
<path style=" stroke:none;fill-rule:evenodd;fill:rgb(100%,94.898987%,0%);fill-opacity:1;" d="M 71.289063 7.734375 C 71.867188 5.867188 72.679688 3.953125 75.074219 1.675781 C 76.34375 0.472656 76.941406 0.742188 77.953125 1.675781 C 79.648438 3.246094 81.035156 5.152344 81.894531 7.582031 C 78.359375 7.636719 74.824219 7.6875 71.289063 7.734375 "/>
<path style=" stroke:none;fill-rule:nonzero;fill:rgb(13.699341%,12.199402%,12.5%);fill-opacity:1;" d="M 73.253906 5.296875 C 72.945313 5.824219 72.710938 6.34375 72.511719 6.847656 L 80.617188 6.734375 C 80.296875 6.039063 79.929688 5.398438 79.523438 4.796875 C 78.898438 3.875 78.167969 3.054688 77.367188 2.308594 C 77 1.96875 76.730469 1.757813 76.550781 1.742188 C 76.371094 1.726563 76.105469 1.894531 75.675781 2.304688 C 74.546875 3.375 73.792969 4.359375 73.253906 5.296875 Z M 70.464844 7.480469 C 70.769531 6.488281 71.140625 5.480469 71.746094 4.429688 C 72.359375 3.367188 73.210938 2.261719 74.480469 1.050781 C 75.316406 0.257813 75.984375 -0.046875 76.679688 0.0078125 C 77.363281 0.0625 77.902344 0.441406 78.546875 1.042969 C 79.433594 1.871094 80.25 2.785156 80.953125 3.816406 C 81.660156 4.855469 82.257813 6.007813 82.710938 7.296875 L 83.113281 8.4375 L 81.90625 8.453125 L 71.300781 8.605469 L 70.109375 8.621094 L 70.464844 7.480469 "/>
<path style=" stroke:none;fill-rule:nonzero;fill:rgb(13.699341%,12.199402%,12.5%);fill-opacity:1;" d="M 75.054688 2.914063 C 75.058594 2.910156 75.058594 2.910156 75.058594 2.910156 Z M 75.03125 2.9375 Z M 73.878906 1.640625 C 74.226563 1.3125 74.777344 1.335938 75.105469 1.683594 C 75.429688 2.03125 75.414063 2.582031 75.066406 2.910156 C 75.042969 2.933594 75.03125 2.941406 75.023438 2.945313 L 75.019531 2.949219 C 74.980469 2.992188 74.945313 3.042969 74.914063 3.09375 C 74.875 3.160156 74.839844 3.234375 74.816406 3.304688 C 74.679688 3.71875 74.746094 4.183594 74.972656 4.445313 C 75.007813 4.480469 74.941406 4.382813 74.953125 4.378906 C 74.988281 4.363281 75.023438 4.34375 75.050781 4.320313 C 74.917969 4.039063 74.945313 3.695313 75.144531 3.429688 C 75.429688 3.046875 75.972656 2.96875 76.355469 3.261719 C 76.910156 3.675781 77 4.246094 76.796875 4.804688 C 76.703125 5.058594 76.535156 5.300781 76.324219 5.503906 C 76.136719 5.691406 75.898438 5.855469 75.648438 5.964844 C 74.992188 6.25 74.226563 6.226563 73.667969 5.574219 C 73.066406 4.882813 72.847656 3.734375 73.175781 2.757813 C 73.238281 2.558594 73.332031 2.367188 73.4375 2.191406 C 73.546875 2.007813 73.6875 1.835938 73.84375 1.679688 L 73.851563 1.671875 C 73.921875 1.601563 73.761719 1.75 73.878906 1.640625 "/>
<path style=" stroke:none;fill-rule:evenodd;fill:rgb(100%,94.898987%,0%);fill-opacity:1;" d="M 10.191406 48.175781 C 27.605469 36.863281 33.359375 17.441406 56.015625 9.925781 C 67.789063 6.015625 86.417969 6.085938 98.078125 10.199219 C 119.972656 17.925781 125.8125 37.015625 142.988281 48.175781 C 142.988281 56.941406 139.734375 65.371094 132.78125 67.980469 C 126.683594 70.265625 119.933594 63.957031 115.765625 58.390625 C 108.375 48.519531 101.476563 41.167969 93.726563 36.847656 C 83.421875 31.105469 70.8125 30.894531 60.355469 36.363281 C 52.234375 40.605469 45.09375 48.140625 37.417969 58.390625 C 33.246094 63.957031 26.496094 70.265625 20.40625 67.980469 C 13.449219 65.371094 10.191406 56.941406 10.191406 48.175781 "/>
<path style=" stroke:none;fill-rule:nonzero;fill:rgb(13.699341%,12.199402%,12.5%);fill-opacity:1;" d="M 28.242188 32.25 C 23.148438 38.121094 18.046875 44.007813 11.0625 48.644531 C 11.144531 54.582031 12.761719 60.300781 16.0625 63.953125 C 16.710938 64.667969 17.417969 65.300781 18.195313 65.84375 C 18.96875 66.386719 19.804688 66.828125 20.703125 67.164063 L 20.707031 67.167969 C 24.699219 68.667969 29.121094 65.992188 32.769531 62.425781 C 33.503906 61.707031 34.207031 60.949219 34.867188 60.179688 C 35.535156 59.410156 36.152344 58.636719 36.71875 57.882813 L 36.71875 57.875 L 36.726563 57.871094 C 40.59375 52.707031 44.320313 48.230469 48.113281 44.503906 C 51.933594 40.746094 55.820313 37.757813 59.953125 35.59375 C 67.648438 31.570313 76.476563 30.546875 84.75 32.46875 C 86.371094 32.84375 87.964844 33.328125 89.511719 33.921875 C 91.066406 34.519531 92.589844 35.226563 94.078125 36.054688 L 94.148438 36.089844 C 98.09375 38.292969 101.820313 41.261719 105.488281 44.925781 C 109.140625 48.566406 112.734375 52.902344 116.457031 57.871094 C 119.371094 61.761719 123.558594 66.019531 127.816406 67.25 C 128.597656 67.476563 129.390625 67.601563 130.179688 67.59375 C 130.957031 67.585938 131.722656 67.453125 132.476563 67.167969 L 132.480469 67.167969 C 135.738281 65.945313 138.140625 63.328125 139.734375 59.972656 C 140.050781 59.300781 140.332031 58.613281 140.582031 57.902344 C 141.574219 55.085938 142.078125 51.894531 142.117188 48.644531 C 135.132813 44.003906 130.027344 38.113281 124.933594 32.226563 C 117.679688 23.847656 110.433594 15.480469 97.789063 11.015625 C 89.582031 8.121094 77.851563 7.261719 67.570313 8.40625 C 65.550781 8.636719 63.597656 8.933594 61.75 9.3125 C 59.902344 9.683594 58.144531 10.140625 56.511719 10.675781 L 56.507813 10.675781 C 56.355469 10.71875 56.519531 10.664063 56.285156 10.746094 C 43.078125 15.132813 35.664063 23.683594 28.242188 32.25 Z M 9.722656 47.453125 C 16.707031 42.917969 21.820313 37.011719 26.933594 31.113281 C 34.515625 22.367188 42.089844 13.632813 55.738281 9.101563 C 55.824219 9.070313 55.675781 9.125 55.976563 9.023438 L 55.972656 9.023438 C 57.65625 8.476563 59.480469 8.007813 61.402344 7.617188 C 63.320313 7.226563 65.324219 6.917969 67.378906 6.6875 C 77.894531 5.511719 89.921875 6.402344 98.367188 9.382813 C 111.4375 13.996094 118.835938 22.539063 126.242188 31.097656 C 131.355469 37 136.472656 42.914063 143.460938 47.453125 L 143.855469 47.710938 L 143.855469 48.183594 C 143.855469 51.78125 143.316406 55.328125 142.214844 58.46875 C 141.941406 59.246094 141.632813 59.996094 141.296875 60.710938 C 139.523438 64.453125 136.804688 67.394531 133.082031 68.789063 L 133.078125 68.792969 C 132.121094 69.152344 131.160156 69.320313 130.191406 69.324219 C 129.246094 69.332031 128.289063 69.1875 127.332031 68.914063 C 122.648438 67.558594 118.164063 63.03125 115.074219 58.902344 C 111.402344 54.007813 107.855469 49.730469 104.273438 46.148438 C 100.710938 42.597656 97.105469 39.722656 93.304688 37.601563 L 93.238281 37.5625 C 91.839844 36.789063 90.386719 36.113281 88.898438 35.546875 C 87.410156 34.976563 85.894531 34.511719 84.363281 34.15625 C 76.484375 32.328125 68.078125 33.304688 60.757813 37.128906 C 56.769531 39.214844 53.023438 42.105469 49.328125 45.742188 C 45.601563 49.402344 41.925781 53.8125 38.117188 58.898438 L 38.117188 58.902344 L 38.113281 58.902344 L 38.105469 58.910156 C 37.507813 59.714844 36.859375 60.523438 36.175781 61.316406 C 35.484375 62.113281 34.75 62.90625 33.984375 63.652344 C 29.914063 67.640625 24.882813 70.582031 20.101563 68.789063 L 20.097656 68.789063 C 19.050781 68.394531 18.082031 67.882813 17.203125 67.265625 L 17.199219 67.265625 C 16.3125 66.648438 15.507813 65.929688 14.777344 65.121094 C 11.085938 61.039063 9.324219 54.691406 9.324219 48.175781 L 9.324219 47.710938 L 9.722656 47.453125 "/>
<path style=" stroke:none;fill-rule:evenodd;fill:rgb(92.89856%,10.998535%,14.099121%);fill-opacity:1;" d="M 20.6875 42.886719 L 22.023438 41.554688 L 23.324219 40.207031 L 24.59375 38.84375 L 25.832031 37.472656 L 27.050781 36.097656 L 28.253906 34.726563 L 29.445313 33.355469 L 30.628906 31.992188 L 31.8125 30.632813 L 33 29.296875 L 34.199219 27.972656 L 35.40625 26.667969 L 36.636719 25.390625 L 37.894531 24.136719 L 39.179688 22.921875 L 40.5 21.730469 L 41.855469 20.582031 L 43.265625 19.46875 L 44.71875 18.398438 L 46.226563 17.371094 L 47.800781 16.390625 L 49.441406 15.460938 L 51.15625 14.582031 L 52.949219 13.761719 L 54.828125 12.996094 L 56.808594 12.292969 L 57.855469 11.960938 L 58.953125 11.648438 L 60.089844 11.351563 L 61.261719 11.085938 L 62.460938 10.835938 L 63.695313 10.605469 L 64.960938 10.398438 L 66.246094 10.214844 L 67.550781 10.050781 L 68.875 9.910156 L 70.21875 9.796875 L 71.574219 9.699219 L 72.941406 9.628906 L 74.3125 9.582031 L 75.691406 9.550781 L 77.070313 9.550781 L 78.453125 9.570313 L 79.832031 9.613281 L 81.203125 9.679688 L 82.566406 9.765625 L 83.917969 9.871094 L 85.257813 10.011719 L 86.578125 10.160156 L 87.878906 10.34375 L 89.160156 10.542969 L 90.410156 10.765625 L 91.636719 11.011719 L 92.832031 11.277344 L 93.992188 11.566406 L 95.117188 11.875 L 96.203125 12.210938 L 97.238281 12.550781 L 99.148438 13.277344 L 100.96875 14.054688 L 102.707031 14.890625 L 104.367188 15.773438 L 105.960938 16.710938 L 107.488281 17.691406 L 108.960938 18.722656 L 110.375 19.792969 L 111.746094 20.90625 L 113.074219 22.050781 L 114.367188 23.234375 L 115.625 24.449219 L 116.859375 25.691406 L 118.066406 26.960938 L 119.257813 28.25 L 120.4375 29.5625 L 121.609375 30.890625 L 122.777344 32.230469 L 123.945313 33.578125 L 125.121094 34.933594 L 126.308594 36.292969 L 127.511719 37.648438 L 128.738281 39 L 129.996094 40.34375 L 131.28125 41.671875 L 132.605469 42.984375 L 133.972656 44.277344 L 135.386719 45.542969 L 136.855469 46.78125 L 138.382813 47.984375 L 139.972656 49.152344 L 140.460938 49.484375 L 140.453125 49.695313 L 140.414063 50.453125 L 140.347656 51.199219 L 140.265625 51.941406 L 140.171875 52.675781 L 140.054688 53.398438 L 139.925781 54.109375 L 139.769531 54.8125 L 139.601563 55.503906 L 139.417969 56.179688 L 139.214844 56.835938 L 138.996094 57.484375 L 138.757813 58.109375 L 138.507813 58.722656 L 138.238281 59.308594 L 137.949219 59.882813 L 137.652344 60.429688 L 137.335938 60.960938 L 137.003906 61.46875 L 136.65625 61.949219 L 136.296875 62.410156 L 135.921875 62.84375 L 135.535156 63.257813 L 135.132813 63.640625 L 134.714844 64.003906 L 134.285156 64.339844 L 133.84375 64.652344 L 133.378906 64.9375 L 132.902344 65.195313 L 132.410156 65.433594 L 131.914063 65.628906 L 131.519531 65.765625 L 131.132813 65.859375 L 130.746094 65.921875 L 130.351563 65.953125 L 129.957031 65.960938 L 129.546875 65.929688 L 129.125 65.875 L 128.691406 65.792969 L 128.253906 65.675781 L 127.800781 65.53125 L 127.335938 65.355469 L 126.867188 65.148438 L 126.390625 64.917969 L 125.910156 64.652344 L 125.425781 64.363281 L 124.941406 64.050781 L 124.453125 63.714844 L 123.960938 63.351563 L 123.476563 62.972656 L 122.992188 62.570313 L 122.511719 62.148438 L 122.039063 61.714844 L 121.570313 61.265625 L 121.109375 60.804688 L 120.652344 60.335938 L 120.207031 59.855469 L 119.769531 59.367188 L 119.347656 58.875 L 118.929688 58.378906 L 118.53125 57.882813 L 118.140625 57.386719 L 117.757813 56.882813 L 117.066406 55.960938 L 116.367188 55.042969 L 115.667969 54.144531 L 114.972656 53.257813 L 114.28125 52.382813 L 113.585938 51.527344 L 112.894531 50.683594 L 112.203125 49.855469 L 111.511719 49.039063 L 110.820313 48.246094 L 110.128906 47.460938 L 109.433594 46.6875 L 108.738281 45.9375 L 108.042969 45.199219 L 107.34375 44.476563 L 106.648438 43.769531 L 105.945313 43.078125 L 105.238281 42.402344 L 104.53125 41.742188 L 103.820313 41.097656 L 103.109375 40.464844 L 102.390625 39.855469 L 101.667969 39.261719 L 100.941406 38.679688 L 100.210938 38.117188 L 99.472656 37.570313 L 98.734375 37.046875 L 97.988281 36.535156 L 97.238281 36.035156 L 96.476563 35.5625 L 95.714844 35.105469 L 94.9375 34.664063 L 93.898438 34.105469 L 92.847656 33.578125 L 91.777344 33.089844 L 90.695313 32.632813 L 89.605469 32.210938 L 88.503906 31.832031 L 87.394531 31.480469 L 86.277344 31.167969 L 85.148438 30.882813 L 84.015625 30.640625 L 82.878906 30.425781 L 81.738281 30.25 L 80.589844 30.113281 L 79.4375 30.007813 L 78.285156 29.9375 L 77.132813 29.902344 L 75.980469 29.902344 L 74.828125 29.9375 L 73.675781 30.007813 L 72.527344 30.113281 L 71.375 30.257813 L 70.234375 30.433594 L 69.09375 30.644531 L 67.960938 30.890625 L 66.832031 31.175781 L 65.714844 31.492188 L 64.605469 31.847656 L 63.5 32.234375 L 62.40625 32.660156 L 61.324219 33.121094 L 60.257813 33.617188 L 59.203125 34.144531 L 58.390625 34.578125 L 57.585938 35.035156 L 56.792969 35.511719 L 56.007813 36.003906 L 55.222656 36.511719 L 54.449219 37.046875 L 53.679688 37.59375 L 52.914063 38.160156 L 52.160156 38.746094 L 51.402344 39.351563 L 50.65625 39.96875 L 49.910156 40.609375 L 49.167969 41.265625 L 48.433594 41.9375 L 47.699219 42.636719 L 46.96875 43.339844 L 46.242188 44.066406 L 45.515625 44.808594 L 44.789063 45.566406 L 44.070313 46.339844 L 43.347656 47.132813 L 42.628906 47.941406 L 41.910156 48.765625 L 41.191406 49.605469 L 40.472656 50.460938 L 39.757813 51.332031 L 39.035156 52.21875 L 38.316406 53.125 L 37.589844 54.039063 L 36.871094 54.976563 L 36.144531 55.925781 L 35.425781 56.882813 L 35.039063 57.386719 L 34.652344 57.882813 L 34.25 58.378906 L 33.835938 58.875 L 33.410156 59.367188 L 32.976563 59.855469 L 32.53125 60.335938 L 32.074219 60.804688 L 31.613281 61.265625 L 31.144531 61.714844 L 30.667969 62.148438 L 30.1875 62.570313 L 29.703125 62.972656 L 29.21875 63.351563 L 28.730469 63.714844 L 28.246094 64.050781 L 27.757813 64.363281 L 27.273438 64.652344 L 26.792969 64.917969 L 26.316406 65.148438 L 25.84375 65.355469 L 25.382813 65.53125 L 24.929688 65.675781 L 24.488281 65.792969 L 24.058594 65.875 L 23.636719 65.929688 L 23.226563 65.960938 L 22.828125 65.953125 L 22.433594 65.921875 L 22.050781 65.859375 L 21.664063 65.765625 L 21.269531 65.628906 L 20.769531 65.433594 L 20.277344 65.195313 L 19.800781 64.9375 L 19.34375 64.652344 L 18.898438 64.339844 L 18.464844 64.003906 L 18.050781 63.640625 L 17.648438 63.257813 L 17.257813 62.84375 L 16.886719 62.410156 L 16.527344 61.949219 L 16.179688 61.46875 L 15.847656 60.960938 L 15.535156 60.429688 L 15.230469 59.882813 L 14.945313 59.3125 L 14.675781 58.722656 L 14.421875 58.109375 L 14.1875 57.484375 L 13.96875 56.835938 L 13.765625 56.179688 L 13.578125 55.503906 L 13.410156 54.8125 L 13.261719 54.109375 L 13.128906 53.398438 L 13.015625 52.675781 L 12.914063 51.941406 L 12.835938 51.199219 L 12.769531 50.453125 L 12.726563 49.699219 L 12.71875 49.484375 L 13.234375 49.140625 L 14.84375 47.957031 L 16.390625 46.734375 L 17.875 45.476563 L 19.304688 44.195313 L 20.6875 42.886719 "/>
<path style=" stroke:none;fill-rule:evenodd;fill:rgb(100%,94.898987%,0%);fill-opacity:1;" d="M 117.535156 49.820313 L 126.839844 42.546875 L 130.324219 47 C 131.242188 48.179688 131.710938 49.214844 131.726563 50.101563 C 131.742188 50.992188 131.308594 51.78125 130.421875 52.46875 C 129.902344 52.878906 129.359375 53.109375 128.804688 53.164063 C 128.242188 53.214844 127.644531 53.089844 126.996094 52.785156 C 127.15625 53.316406 127.171875 53.769531 127.035156 54.148438 C 126.902344 54.523438 126.503906 54.988281 125.851563 55.539063 C 125.671875 55.703125 125.429688 55.914063 125.121094 56.179688 C 124.390625 56.789063 124.058594 57.261719 124.117188 57.582031 L 123.792969 57.832031 L 121.84375 55.335938 C 122.078125 54.957031 122.472656 54.53125 123.03125 54.070313 C 123.59375 53.605469 123.941406 53.308594 124.074219 53.175781 C 124.40625 52.851563 124.578125 52.519531 124.585938 52.183594 C 124.59375 51.847656 124.433594 51.476563 124.113281 51.0625 L 122.867188 49.46875 L 119.386719 52.1875 Z M 124.707031 48.03125 L 126.097656 49.808594 C 126.46875 50.285156 126.832031 50.570313 127.1875 50.660156 C 127.539063 50.742188 127.910156 50.636719 128.296875 50.332031 C 128.640625 50.066406 128.808594 49.757813 128.800781 49.414063 C 128.796875 49.0625 128.617188 48.660156 128.269531 48.210938 L 126.828125 46.375 Z M 110.113281 41.871094 L 118.609375 33.664063 L 124.84375 40.121094 L 123.105469 41.800781 L 118.96875 37.519531 L 117.46875 38.96875 L 121.246094 42.882813 L 119.546875 44.523438 L 115.765625 40.609375 L 113.949219 42.367188 L 118.222656 46.789063 L 116.484375 48.464844 Z M 104.246094 36.847656 L 110.171875 29.53125 L 107.539063 27.402344 L 109.046875 25.539063 L 116.65625 31.699219 L 115.148438 33.5625 L 112.519531 31.433594 L 106.59375 38.746094 Z M 94.140625 25.859375 L 96.707031 27.21875 C 96.40625 27.824219 96.347656 28.363281 96.519531 28.84375 C 96.691406 29.320313 97.089844 29.722656 97.734375 30.0625 C 98.273438 30.351563 98.742188 30.488281 99.132813 30.464844 C 99.527344 30.445313 99.808594 30.269531 99.984375 29.945313 C 100.074219 29.777344 100.113281 29.613281 100.109375 29.445313 C 100.105469 29.277344 100.0625 29.128906 99.96875 28.988281 C 99.828125 28.785156 99.441406 28.371094 98.804688 27.746094 C 98.167969 27.125 97.644531 26.570313 97.238281 26.085938 C 96.644531 25.390625 96.285156 24.691406 96.15625 23.996094 C 96.027344 23.300781 96.132813 22.628906 96.476563 21.976563 C 97.007813 20.980469 97.800781 20.386719 98.863281 20.199219 C 99.925781 20.011719 101.09375 20.253906 102.375 20.933594 C 103.625 21.601563 104.460938 22.4375 104.867188 23.449219 C 105.277344 24.464844 105.199219 25.492188 104.636719 26.546875 L 102.125 25.207031 C 102.328125 24.691406 102.347656 24.242188 102.183594 23.859375 C 102.023438 23.472656 101.671875 23.140625 101.132813 22.851563 C 100.707031 22.625 100.304688 22.53125 99.945313 22.5625 C 99.585938 22.597656 99.328125 22.75 99.183594 23.027344 C 98.933594 23.484375 99.34375 24.265625 100.40625 25.355469 C 100.597656 25.554688 100.746094 25.703125 100.847656 25.808594 C 100.863281 25.828125 100.894531 25.859375 100.933594 25.898438 C 102.027344 27.027344 102.667969 27.8125 102.859375 28.257813 C 103.046875 28.710938 103.128906 29.164063 103.113281 29.632813 C 103.085938 30.097656 102.953125 30.554688 102.714844 31.007813 C 102.160156 32.042969 101.332031 32.640625 100.230469 32.796875 C 99.128906 32.953125 97.859375 32.648438 96.421875 31.882813 C 95.066406 31.167969 94.203125 30.308594 93.824219 29.3125 C 93.445313 28.3125 93.550781 27.160156 94.140625 25.859375 Z M 82.265625 26.53125 L 85.121094 15.070313 L 93.832031 17.238281 L 93.242188 19.59375 L 87.46875 18.152344 L 86.964844 20.175781 L 92.238281 21.492188 L 91.667969 23.785156 L 86.386719 22.46875 L 85.777344 24.921875 L 91.742188 26.410156 L 91.15625 28.75 Z M 69.746094 26.515625 L 69.128906 14.722656 L 72.160156 14.558594 L 72.378906 18.753906 L 76.515625 18.535156 L 76.292969 14.347656 L 79.328125 14.1875 L 79.945313 25.980469 L 76.910156 26.140625 L 76.652344 21.167969 L 72.519531 21.386719 L 72.777344 26.355469 Z M 66.246094 22.976563 C 66.589844 24.371094 66.480469 25.59375 65.933594 26.660156 C 65.378906 27.722656 64.433594 28.527344 63.097656 29.066406 C 61.492188 29.714844 59.992188 29.714844 58.589844 29.066406 C 57.183594 28.417969 56.136719 27.242188 55.445313 25.53125 C 54.730469 23.761719 54.660156 22.140625 55.226563 20.683594 C 55.800781 19.226563 56.925781 18.15625 58.601563 17.476563 C 59.925781 16.941406 61.15625 16.851563 62.28125 17.210938 C 63.402344 17.566406 64.269531 18.332031 64.875 19.492188 L 62.246094 20.558594 C 61.902344 20.085938 61.496094 19.785156 61.03125 19.667969 C 60.566406 19.546875 60.039063 19.605469 59.453125 19.84375 C 58.671875 20.15625 58.175781 20.71875 57.96875 21.523438 C 57.761719 22.324219 57.878906 23.265625 58.3125 24.339844 C 58.742188 25.410156 59.296875 26.15625 59.96875 26.574219 C 60.636719 26.988281 61.367188 27.042969 62.148438 26.726563 C 62.78125 26.472656 63.222656 26.113281 63.472656 25.652344 C 63.730469 25.191406 63.785156 24.648438 63.644531 24.027344 Z M 47.683594 37.761719 L 41.082031 27.96875 L 43.789063 26.140625 L 47.8125 28.113281 C 48.464844 28.429688 49.101563 28.753906 49.714844 29.089844 C 50.335938 29.417969 50.929688 29.753906 51.511719 30.09375 C 50.976563 29.378906 50.480469 28.699219 50.023438 28.066406 C 49.570313 27.433594 49.175781 26.867188 48.84375 26.375 L 47.15625 23.871094 L 49.574219 22.242188 L 56.179688 32.03125 L 53.476563 33.855469 L 49.320313 31.84375 C 48.832031 31.605469 48.289063 31.335938 47.695313 31.027344 C 47.101563 30.722656 46.46875 30.386719 45.792969 30.023438 C 46.273438 30.632813 46.707031 31.199219 47.097656 31.734375 C 47.488281 32.269531 47.835938 32.746094 48.117188 33.175781 L 50.109375 36.128906 Z M 33.3125 35.332031 L 35.6875 33.035156 L 46.890625 38.636719 L 44.558594 40.894531 L 42.53125 39.835938 L 39.695313 42.574219 L 40.714844 44.605469 L 38.457031 46.78125 Z M 38.511719 40.3125 L 40.371094 38.519531 L 36.59375 36.503906 Z M 29.339844 57.398438 L 20.421875 49.652344 L 23.152344 46.503906 L 28.511719 49.105469 C 28.988281 49.332031 29.441406 49.5625 29.875 49.792969 C 30.3125 50.023438 30.726563 50.253906 31.128906 50.488281 C 30.832031 50.09375 30.523438 49.675781 30.210938 49.234375 C 29.898438 48.792969 29.570313 48.3125 29.222656 47.789063 L 26.09375 43.121094 L 28.820313 39.988281 L 37.730469 47.742188 L 35.921875 49.824219 L 31.972656 46.382813 C 31.695313 46.144531 31.308594 45.796875 30.820313 45.34375 C 30.332031 44.894531 29.765625 44.371094 29.136719 43.773438 L 34.507813 51.449219 L 32.539063 53.710938 L 24.222656 49.421875 C 25.039063 50.082031 25.765625 50.679688 26.414063 51.210938 C 27.058594 51.742188 27.558594 52.164063 27.914063 52.476563 L 31.164063 55.296875 L 29.339844 57.398438 "/>
</g>
</svg>
