<?xml version="1.0" encoding="UTF-8" standalone="no"?>
<!-- Created with Inkscape (http://www.inkscape.org/) -->

<svg
   xmlns:dc="http://purl.org/dc/elements/1.1/"
   xmlns:cc="http://creativecommons.org/ns#"
   xmlns:rdf="http://www.w3.org/1999/02/22-rdf-syntax-ns#"
   xmlns:svg="http://www.w3.org/2000/svg"
   xmlns="http://www.w3.org/2000/svg"
   xmlns:sodipodi="http://sodipodi.sourceforge.net/DTD/sodipodi-0.dtd"
   xmlns:inkscape="http://www.inkscape.org/namespaces/inkscape"
   width="4096mm"
   height="4096mm"
   viewBox="0 0 4096 4096"
   version="1.1"
   id="svg874"
   inkscape:export-filename="G:\Users\suitedoalex\sites\rb-leipzig-logo-0.png"
   inkscape:export-xdpi="25.4"
   inkscape:export-ydpi="25.4"
   inkscape:version="0.92.2 (5c3e80d, 2017-08-06)"
   sodipodi:docname="rb-leipzig-logo.svg">
  <defs
     id="defs868" />
  <sodipodi:namedview
     id="base"
     pagecolor="#ffffff"
     bordercolor="#666666"
     borderopacity="1.0"
     inkscape:pageopacity="0.0"
     inkscape:pageshadow="2"
     inkscape:zoom="0.021875"
     inkscape:cx="7536.3521"
     inkscape:cy="8370.1299"
     inkscape:document-units="mm"
     inkscape:current-layer="layer1"
     showgrid="false"
     inkscape:pagecheckerboard="true"
     inkscape:window-width="1600"
     inkscape:window-height="837"
     inkscape:window-x="-8"
     inkscape:window-y="-8"
     inkscape:window-maximized="1" />
  <metadata
     id="metadata871">
    <rdf:RDF>
      <cc:Work
         rdf:about="">
        <dc:format>image/svg+xml</dc:format>
        <dc:type
           rdf:resource="http://purl.org/dc/dcmitype/StillImage" />
        <dc:title></dc:title>
      </cc:Work>
    </rdf:RDF>
  </metadata>
  <g
     inkscape:label="Layer 1"
     inkscape:groupmode="layer"
     id="layer1"
     transform="translate(0,3799)">
    <path
       class="cls-1"
       d="m 2912.0764,-2671.5511 v 547.239 c 22.9528,9.7551 54.6282,25.4395 77.0456,36.304 l -1.2242,-7.651 c -0.5356,-85.194 24.9425,-73.6793 82.0572,-98.2773 14.2309,-6.1591 18.7067,-32.7845 41.7746,-34.8504 27.3905,-2.3718 89.5551,8.4927 114.1148,20.8873 15.302,7.651 18.8597,19.1275 24.4067,33.2437 5.8149,15.302 34.4296,26.4343 41.0094,44.4907 12.8157,34.4295 -1.1858,83.3195 -37.5279,97.4739 -12.7772,5.0114 -71.9579,1.7215 -71.9579,1.7215 -0.2299,11.8207 0.2299,29.7624 -0.6127,41.5832 -0.4587,5.9678 0,16.2967 0,16.2967 0,0 11.7061,3.8255 17.5211,5.394 97.5885,26.0134 629.9847,185.4224 642.6852,215.1083 a 5.3939665,5.3939665 0 0 1 -3.8254,8.1483 c -13.0834,1.3006 -348.1215,-75.8216 -411.7014,-87.4894 -72.0342,-13.2362 -128.4989,-24.904 -219.0485,-38.2551 l 0.4967,5.088 c 0,29.3034 -6.2737,29.1121 -30.6041,37.5282 l 0.8035,5.4322 c 30.6042,6.1591 126.701,20.696 147.7796,34.8121 22.953,15.3021 77.3518,-3.8254 115.3008,47.9719 9.9465,13.5806 10.176,69.7773 0.3828,83.2048 -15.9903,21.882 -32.5934,12.3565 -54.5133,15.302 -13.3129,1.8745 -19.9309,14.8813 -30.9484,20.8873 -11.0173,6.0061 -25.9751,3.6343 -37.9108,3.8256 -28.6531,0.6506 -37.8726,-25.1719 -58.0329,-39.0585 -9.7167,-6.6946 -21.3847,-2.1805 -32.1342,-5.0114 -16.1821,-4.2845 -26.7788,-22.9531 -41.0095,-30.1833 -8.3398,-4.2845 -28.0411,-2.9074 -35.9596,1.951 -50.9942,31.3692 -184.0454,-0.8415 -235.9958,-32.861 l 1.7215,331.4802 a 247.54863,247.54863 0 0 1 -33.435,112.8143 c -163.1197,280.14185 -506.8033,446.36015 -831.9715,446.55144 h -5.547 c -325.1679,-0.19085 -668.8133,-161.39819 -831.8947,-441.38704 a 260.13456,260.13456 0 0 1 -33.435,-117.8639 l 1.6833,-331.4803 c -51.9887,32.0195 -184.96343,64.2303 -235.9957,32.8611 -7.91878,-4.8584 -27.65842,-6.2355 -35.95974,-1.951 -14.2309,7.3833 -24.7893,25.8987 -41.00947,30.1833 -10.78794,2.8309 -22.3792,-1.6832 -32.09601,5.0114 -20.19867,13.8865 -29.41816,39.7087 -58.03295,39.0584 -11.97385,-0.2678 -27.08461,2.0275 -37.91079,-3.8255 -10.82619,-5.853 -17.63559,-19.1276 -30.94837,-20.8872 -21.95841,-3.0604 -38.56112,6.4651 -54.55173,-15.3021 -9.79331,-13.4275 -9.60203,-69.6242 0.38258,-83.2049 37.94903,-51.606 92.1565,-32.5167 115.30083,-47.9717 21.1168,-14.1162 117.25182,-28.6531 147.77938,-34.8122 l 0.76505,-5.4322 c -24.33024,-8.4162 -30.60407,-8.1866 -30.60407,-37.5282 l 0.53558,-5.088 c -90.5498,13.4658 -147.01428,25.1337 -219.04861,38.2551 -63.50343,11.6678 -398.6562,88.7901 -411.73943,87.4893 a 5.3939665,5.3939665 0 0 1 -3.82551,-8.11 c 12.62418,-29.6859 544.98189,-189.0949 642.68538,-215.1083 5.81476,-1.5302 17.52081,-5.394 17.52081,-5.394 0,0 0.57387,-10.3289 0,-16.2967 -0.84161,-11.8208 -0.38258,-29.7624 -0.61204,-41.5832 0,0 -59.14235,3.2899 -71.95781,-1.7215 -36.38057,-14.1544 -50.34368,-62.9678 -37.52823,-97.4739 6.69463,-18.0564 35.15641,-29.3799 41.00943,-44.4907 5.547,-14.3074 9.18124,-25.5544 24.36852,-33.2437 24.55976,-12.4329 86.7625,-23.2591 114.11491,-20.8873 22.95309,2.0276 27.54369,28.6913 41.77459,34.8504 57.1148,24.598 82.5544,13.045 82.0189,98.2774 l -1.1859,7.6509 c 22.4174,-10.8644 54.0926,-26.5489 77.0457,-36.304 v -547.392 z"
       id="path8"
       inkscape:connector-curvature="0"
       style="fill:#ffffff;stroke-width:3.82550812"
       inkscape:export-xdpi="2.8314111"
       inkscape:export-ydpi="2.8314111" />
    <path
       class="cls-2"
       d="m 2076.8531,-1366.173 24.6744,283.7762 32.5552,-2.8308 -24.6746,-283.7763 z m -223.8689,-39.3645 -92.9598,269.2394 85.921,29.6476 29.6859,-85.9974 -30.8718,-10.6349 -19.1276,55.0874 -24.139,-8.3397 82.2485,-238.3291 z m 93.8399,62.1645 -26.1282,221.4205 a 30.948362,30.948362 0 0 0 27.008,34.4295 l 59.5631,7.0773 3.8256,-32.4786 -57.8417,-6.8477 11.0174,-92.7303 43.2666,4.9349 3.8254,-32.4786 -43.3429,-5.1643 11.0174,-92.4243 57.8034,6.8858 3.8256,-32.4402 -59.5633,-7.0772 a 30.871851,30.871851 0 0 0 -34.3147,26.8932 z m 459.7113,-170.0438 -23.1826,22.9531 199.3472,200.9922 1.2624,1.2624 23.1826,-22.953 -199.3472,-200.9922 z m -158.8734,142.0411 a 30.604067,30.604067 0 0 0 -29.4946,-21.9201 31.407422,31.407422 0 0 0 -9.0666,1.3772 l -57.3826,17.5208 82.6693,270.693 0.5357,1.6832 31.2162,-9.5255 -36.8015,-120.5418 26.1665,-7.9953 a 30.833596,30.833596 0 0 0 20.5047,-38.5993 z m -27.888,107.9942 -27.2375,-89.2874 24.445,-7.651 27.2758,89.2874 z m 467.9745,-227.8855 -97.5888,-61.629 -24.1388,38.255 27.6584,17.4444 6.6946,-10.635 78.9585,49.7317 -13.6188,21.6141 -185.6137,-117.0223 13.6571,-21.614 37.2987,23.5268 17.4061,-27.6201 -28.4619,-17.9799 a 45.457292,45.457292 0 1 0 -48.5074,76.8927 l 167.9398,105.8899 a 45.447038,45.447038 0 1 0 48.3162,-76.8543 z m -269.7366,210.6324 30.9484,49.3873 -20.543,12.8919 -68.8974,-217.2123 -16.6026,-26.7785 -77.0076,48.2778 48.3544,77.0841 27.6967,-17.3678 -31.0631,-49.196 20.5429,-12.8921 69.0888,217.2507 16.6026,26.7785 77.0076,-48.2779 -48.3546,-77.084 z"
       id="path10"
       inkscape:connector-curvature="0"
       style="fill:#001d46;stroke-width:3.82550812"
       inkscape:export-xdpi="2.8314111"
       inkscape:export-ydpi="2.8314111" />
    <path
       class="cls-3"
       d="m 1306.3192,-1293.3735 0.8799,1.2624 c 166.6774,248.658 443.4529,372.26015 740.3123,372.26015 296.8595,0 573.635,-123.21955 740.3507,-372.26015 l 0.8415,-1.2624 0.7645,-1.339 c 24.9806,-43.3812 35.9215,-71.9578 35.9215,-163.0049 v -241.007 h -45.1028 v 241.007 c 0,85.6149 -9.9463,105.7754 -29.8772,140.5492 -152.5612,227.7708 -410.477,352.25276 -702.937,352.25276 -292.4602,0 -550.3377,-124.48196 -702.8607,-352.25276 -19.9692,-34.7738 -29.9155,-54.9343 -29.9155,-140.5492 v -241.5043 h -45.0639 v 241.5043 c 0,91.0089 10.941,119.5855 35.9215,163.0049 z"
       id="path12"
       inkscape:connector-curvature="0"
       style="fill:#0c2043;stroke-width:3.82550812"
       inkscape:export-xdpi="2.8314111"
       inkscape:export-ydpi="2.8314111" />
    <path
       class="cls-3"
       d="m 1258.9212,-2158.3974 v -436.7965 h 1577.1423 v 437.1408 l 24.9805,11.5913 v -473.7126 H 1233.9406 v 473.5213 z"
       id="path14"
       inkscape:connector-curvature="0"
       style="fill:#0c2043;stroke-width:3.82550812"
       inkscape:export-xdpi="2.8314111"
       inkscape:export-ydpi="2.8314111" />
    <path
       class="cls-3"
       d="m 1269.6325,-2584.4825 v 421.0737 l 45.0646,-21.1169 v -354.8541 h 1465.5904 v 355.4663 l 45.1028,20.9255 v -421.4945 z"
       id="path16"
       inkscape:connector-curvature="0"
       style="fill:#0c2043;stroke-width:3.82550812"
       inkscape:export-xdpi="2.8314111"
       inkscape:export-ydpi="2.8314111" />
    <path
       class="cls-3"
       d="m 2836.0635,-1698.7244 v 241.007 c 0,93.6485 -11.4766,123.2196 -37.2987,168.3224 l -0.9565,1.6833 -1.0713,1.5683 c -168.705,251.8333 -448.7322,376.96565 -749.226,376.96565 -300.4936,0 -580.559,-125.13235 -749.2257,-376.96565 l -1.1477,-1.7596 -0.9564,-1.6833 c -25.9751,-45.141 -37.3369,-74.7121 -37.3369,-168.3223 v -241.3131 h -25.0188 v 241.5043 c 0,99.1955 13.0068,132.7069 40.6652,180.8318 l 1.3771,2.4101 1.5302,2.2953 c 173.2955,258.7573 461.1268,388.09775 769.9983,388.09775 308.8716,0 596.7792,-129.34045 770.0366,-388.09775 l 1.5303,-2.2953 1.377,-2.3718 c 27.6202,-48.0867 40.6269,-81.5981 40.6269,-180.8318 v -241.007 h -25.0187 z"
       id="path18"
       inkscape:connector-curvature="0"
       style="fill:#0c2043;stroke-width:3.82550812"
       inkscape:export-xdpi="2.8314111"
       inkscape:export-ydpi="2.8314111" />
    <path
       class="cls-4"
       d="m 2046.4021,-2380.8507 a 414.18776,414.18776 0 0 1 154.933,29.4946 193.99152,193.99152 0 0 1 -24.3302,57.3445 c -86.4565,-11.1323 -182.6681,-2.0276 -182.6681,-2.0276 l -79.8765,-63.0061 a 414.37905,414.37905 0 0 1 131.9418,-21.7289 z"
       id="path20"
       inkscape:connector-curvature="0"
       style="fill:#0c2043;fill-rule:evenodd;stroke-width:3.82550812"
       inkscape:export-xdpi="2.8314111"
       inkscape:export-ydpi="2.8314111" />
    <path
       class="cls-5"
       d="m 2413.8421,-1772.8628 c -32.249,-8.0717 -62.0498,-23.5268 -94.1075,-32.4784 -9.3342,4.9731 -16.6409,9.4489 -22.953,13.4275 a 441.50192,441.50192 0 0 1 -128.231,100.0753 c -118.5909,63.7329 -264.4576,64.7276 -385.3053,10.4436 a 420.00253,420.00253 0 0 1 -73.9471,-42.6162 414.57033,414.57033 0 0 0 311.0521,172.1478 l 14.0014,-0.2299 a 6.006048,6.006048 0 0 0 3.5577,1.0324 433.50659,433.50659 0 0 0 224.6722,-63.3887 396.20788,396.20788 0 0 0 149.8068,-156.0042 l 3.8255,-1.8363 c -0.6886,-0.076 -1.492,-0.3448 -2.3718,-0.5736 z"
       id="path22"
       inkscape:connector-curvature="0"
       style="fill:#d9dada;stroke-width:3.82550812"
       inkscape:export-xdpi="2.8314111"
       inkscape:export-ydpi="2.8314111" />
    <path
       class="cls-3"
       d="m 2199.7284,-2028.6744 c 21.4611,44.8732 47.3981,92.1947 65.0337,123.4873 23.7947,-34.8885 27.3141,-61.6289 48.7752,-122.1866 8.3395,-23.4505 37.6429,-57.0001 65.0336,-84.4291 a 984.03544,984.03544 0 0 0 -98.9659,-54.2456 c -43.5725,61.4376 -79.8766,137.374 -79.8766,137.374 z M 1764.156,-2270.064 a 416.44481,416.44481 0 0 0 -90.0907,121.4216 c 5.5853,4.4376 10.7879,8.7604 15.7611,13.045 3.4047,-4.4376 6.8859,-8.8751 10.4436,-13.351 a 1123.8578,1123.8578 0 0 1 63.886,-121.1156 z m 256.8828,244.6029 c 0,0 -51.7207,-82.3631 -105.8135,-143.8008 0,0 -113.9618,50.8793 -155.9659,72.6847 0,0 -1.4538,14.7282 -2.5248,38.7906 25.4012,43.1518 37.7577,89.4404 70.0832,156.0425 a 90.664542,90.664542 0 0 1 19.7015,19.1275 c 22.5322,6.3887 48.6604,13.3511 77.5812,20.3518 0,0.033 71.8813,-114.6505 96.9383,-163.1963 z"
       id="path24"
       inkscape:connector-curvature="0"
       style="fill:#0c2043;stroke-width:3.82550812"
       inkscape:export-xdpi="2.8314111"
       inkscape:export-ydpi="2.8314111" />
    <path
       class="cls-4"
       d="m 2011.3221,-1717.6224 179.4546,-4.8584 34.7356,97.933 c -67.635,40.2443 -149.4626,61.2081 -149.4626,61.2081 -85.7296,-18.6301 -135.0022,-55.7759 -135.0022,-55.7759 l 70.2746,-98.5833 z"
       id="path26"
       inkscape:connector-curvature="0"
       style="fill:#0c2043;fill-rule:evenodd;stroke-width:3.82550812"
       inkscape:export-xdpi="2.8314111"
       inkscape:export-ydpi="2.8314111" />
    <path
       class="cls-3"
       d="m 1716.911,-1787.8587 c -14.9959,5.9296 -29.38,11.7061 -38.0639,14.4986 l -2.9074,0.8795 a 358.37359,358.37359 0 0 0 50.6881,70.8484 344.83131,344.83131 0 0 0 58.8363,50.8028 82.975274,82.975274 0 0 0 11.7443,-10.2523 c 0,0 -50.7644,-73.029 -80.2974,-126.7774 z"
       id="path28"
       inkscape:connector-curvature="0"
       style="fill:#0c2043;stroke-width:3.82550812"
       inkscape:export-xdpi="2.8314111"
       inkscape:export-ydpi="2.8314111" />
    <path
       class="cls-6"
       d="m 704.4902,-1724.8526 c -19.73962,5.4323 -13.92484,28.2323 -18.20942,44.1081 a 5.1644362,5.1644362 0 0 0 3.82551,3.0987 c 7.34499,-3.0987 19.3188,-0.7645 24.75103,-7.651 2.33357,-8.1101 5.39398,-13.9249 6.19731,-23.2208 -1.87447,-7.039 -9.21945,-15.4934 -16.56443,-16.335 z m 2023.0819,-85.5384 c -10.8263,2.3718 -21.6525,7.345 -34.0471,4.2846 -11.1705,0 -29.3799,-10.0611 -34.4295,5.0114 -1.9511,9.6786 -7.345,17.7887 -9.6785,27.0846 0,5.0115 4.6288,9.6785 9.2576,11.9739 6.9624,1.5302 15.3021,5.4322 21.7289,4.2463 11.4766,-8.1101 10.8262,-22.953 22.4175,-31.3309 6.1974,1.5302 6.9623,10.0611 13.9248,9.2959 a 22.953049,22.953049 0 0 0 17.4061,-11.4765 16.908747,16.908747 0 0 0 0.3828,-14.3457 12.624178,12.624178 0 0 0 -6.9624,-4.7436 z m 371.0742,-216.2177 c 1.5685,4.0551 9.602,12.6242 4.2463,16.2584 -11.2852,7.6511 -68.0941,-2.6013 -71.1926,6.1974 3.1751,11.8973 36.9926,20.9255 47.9718,25.1336 12.9685,4.9349 24.9806,8.6456 38.6759,1.9509 15.3021,-7.651 25.2102,-27.7348 22.4558,-44.4906 a 115.91291,115.91291 0 0 0 -14.3073,-32.8611 c -4.4378,-5.9295 -41.813,-35.5007 -31.3311,-39.4793 12.5859,4.0168 29.7625,0.4208 38.6757,12.3947 23.5272,6.6564 48.6607,10.7497 72.6849,15.1107 15.3018,2.7927 33.014,-1.4919 42.0806,-15.1107 4.973,-7.4215 5.0114,-21.0403 1.1476,-28.9973 -4.4759,-9.1431 -18.0947,-11.8974 -26.7787,-15.0726 -10.8262,2.3337 1.186,11.8208 -8.0718,15.8759 l -20.9254,-2.7161 c -13.1598,-13.5805 14.3074,-11.7061 15.8376,-19.1275 2.2571,-10.5201 -7.6509,-20.2369 -1.1478,-30.6041 a 10.749678,10.749678 0 0 0 -5.432,-6.1973 c -10.7882,-3.8255 -75.0948,-19.1276 -84.1613,-18.5538 l -2.6778,3.0987 c 2.5631,3.5577 13.4276,13.3892 13.9248,14.3074 4.2846,7.6511 -24.598,13.3128 -29.3799,14.3074 -22.953,4.8584 -84.888,12.2798 -75.8215,48.737 4.5905,17.2912 65.9517,61.0933 73.4498,79.8383 z m -2211.94713,-39.8236 c 24.06242,-4.3227 49.19601,-8.416 72.68464,-15.1107 8.87516,-11.9737 26.08995,-8.3396 38.67586,-12.3947 10.48193,3.8256 -26.77854,33.5498 -31.33088,39.4793 a 116.56323,116.56323 0 0 0 -14.30741,32.8611 c -2.75436,16.7558 7.15369,37.0309 22.45573,44.4907 13.69535,6.6946 25.74569,3.0222 38.67589,-1.951 10.9792,-4.2081 44.7967,-13.2363 47.9719,-25.1336 -3.0987,-8.7987 -59.9075,1.4537 -71.19274,-6.1973 -5.35571,-3.8256 2.63963,-12.2034 4.24632,-16.2585 7.65102,-18.898 68.85922,-62.547 73.10552,-79.6853 9.0664,-36.4953 -52.7155,-43.8786 -75.82163,-48.737 -4.78189,-0.9943 -33.66447,-6.5415 -29.41814,-14.3073 0.49731,-0.9185 11.47651,-10.7497 13.92484,-14.3075 l -2.71611,-3.0985 c -8.83692,-0.6887 -73.14372,14.7281 -83.93166,18.5536 a 10.673167,10.673167 0 0 0 -5.43222,6.1974 c 6.54161,10.3288 -3.40469,20.0456 -1.14765,30.604 1.56846,7.2685 28.99735,5.394 15.83761,19.1275 l -20.88729,2.7161 c -9.33424,-4.055 2.67787,-13.5422 -8.11006,-15.8758 -8.64566,3.2135 -22.26447,5.9296 -26.77858,15.0725 -3.8255,7.957 -3.8255,21.5758 1.14767,28.9973 9.29598,13.4275 26.8933,17.7505 42.34839,14.9577 z m -130.0673,327.6549 c -1.30067,-4.055 -26.77854,0.4587 -28.23226,5.3939 -1.98924,7.2685 21.69065,10.8262 28.30879,-5.3939 z m 2579.80813,0 c 6.5798,16.2584 30.298,12.6624 28.2703,5.3939 -1.3387,-4.9349 -26.8931,-9.4489 -28.194,-5.3939 z m 52.2181,13.9248 c -7.3449,0.7656 -14.6898,9.296 -16.6028,16.2584 0.7657,9.2578 3.8255,15.0725 6.1974,23.2208 5.3941,6.9625 17.3679,4.6289 24.751,7.651 a 5.1644362,5.1644362 0 0 0 3.8255,-3.0985 c -4.1316,-15.7994 1.645,-38.5994 -18.0946,-44.0317 z m 286.0716,-78.4994 c -118.8203,-36.7632 -239.2474,-66.6787 -359.5978,-97.9331 -36.0363,-9.3341 -72.3022,-18.1328 -108.6828,-25.8986 -58.3772,-12.4712 -117.0605,-27.3142 -175.7056,-37.949 -5.2792,-0.9565 -12.0886,0 -14.6517,-6.1591 1.9894,-10.9409 -10.3288,-12.7007 -17.7886,-15.3021 -17.8651,-5.7765 -35.6154,-11.4765 -53.7483,-16.5644 -13.2364,-3.8256 -26.549,-10.8262 -39.8618,-13.5806 -16.7941,-3.4812 -30.0685,-3.8255 -41.8129,-18.5537 l 2.7162,-1.5685 c 15.9141,6.3121 41.4302,19.9692 58.0328,8.9135 7.9189,-5.2409 16.182,-19.3953 12.3948,-28.9974 -2.7926,-7.2302 -11.4766,-8.1865 -17.7504,-10.8645 -26.0899,-11.4764 -51.6444,-25.363 -77.1222,-38.0637 q -80.7566,-40.0148 -161.1687,-81.0243 c -24.445,-12.3563 -52.1034,-26.7785 -78.9203,-32.4786 -21.8436,-4.7817 -46.7094,1.3008 -65.7605,12.7772 -19.051,11.4766 -18.4006,38.0639 -32.5167,35.233 a 11.093974,11.093974 0 0 1 -3.4813,-8.1483 c -5.6999,-9.0283 -23.5268,16.3732 -37.9489,23.6034 -32.1343,16.1436 -88.5988,77.8491 -111.8197,107.1142 -14.6134,18.4772 -20.5047,42.0806 -25.937,64.6128 l 3.0987,4.2463 c 7.0771,1.7215 13.5423,-1.1859 19.7014,-4.2463 5.8912,1.4919 5.3558,8.8752 8.5308,13.1215 23.4504,31.5987 85.8445,13.2363 119.9681,24.751 a 2.9838963,2.9838963 0 0 1 -2.3337,4.2463 c -15.302,1.9511 -35.5389,-1.2241 -51.1852,-1.6449 -36.1129,-0.9565 -72.2256,-1.3772 -108.2619,-3.3665 l -4.2464,2.3336 c -3.3663,7.3833 -23.1826,49.7316 -26.3195,53.5571 -4.8202,5.3174 -11.9738,9.4108 -17.1,15.3021 -13.9631,15.608 -24.1007,34.4295 -41.698,46.7477 -5.2792,3.6342 -15.7994,5.6235 -18.1712,11.4765 l 2.6779,3.0987 c 53.2893,4.3227 58.6833,-51.5679 94.3753,-64.2303 a 3.3664471,3.3664471 0 0 1 2.3335,4.2846 136.99145,136.99145 0 0 0 -24.0242,32.861 c -20.8107,42.0807 -35.6538,29.3417 -55.6611,48.7753 l 3.0604,4.6289 c 59.0276,-1.7215 69.7773,-34.8887 89.0196,-37.5666 16.4113,-2.257 77.9257,26.5108 98.2773,32.1343 10.1758,2.7926 20.2751,6.2739 30.9866,6.1209 3.6343,0 8.4543,-1.9511 11.4766,-1.8363 7.8805,0.2679 9.4489,14.3456 26.7785,6.1973 10.3671,-4.9349 11.094,-19.7014 12.3947,-29.8007 1.5684,-12.1269 -13.4659,-22.4557 -12.3947,-29.0355 1.5302,-9.2961 13.2362,3.1368 15.8758,-5.0498 1.6068,-4.9349 -4.4375,-14.8429 -7.3449,-18.5537 -7.6511,-9.908 -29.6477,-26.7786 -26.7787,-41.392 a 9.4872608,9.4872608 0 0 1 5.8149,-4.2463 l 71.8048,8.8369 c 2.4865,0.3058 13.3893,25.6692 13.5423,28.2323 0,3.8254 -10.2524,30.0302 -12.3947,35.1947 -5.9678,14.2308 -16.4496,24.598 -16.2583,41.0476 0.1908,20.1987 13.8482,38.982 23.9476,55.6994 11.247,18.5538 29.3417,9.7551 45.6766,15.1108 6.6946,2.2188 13.9248,6.8477 20.543,9.7933 a 414.3408,414.3408 0 0 0 66.0665,23.9477 c 12.0886,2.9074 30.604,-1.1476 37.9108,-12.3565 5.2026,-8.2247 -12.3564,-10.7114 -4.6289,-19.7395 4.1316,-4.8202 9.2959,-4.5141 15.1108,-3.8255 12.3946,1.3771 76.1276,9.1046 82.784,1.9127 2.2188,-2.3718 -1.1477,-5.6235 -3.0987,-6.5798 -12.8537,-6.1974 -32.6699,-9.1812 -46.8242,-13.1215 -17.0618,-4.8202 -34.774,-6.0061 -51.8357,-11.247 -14.5369,-4.4758 -13.6188,10.4436 -23.9859,17.0235 -15.6463,9.9845 -57.3826,-9.9464 -62.6618,-27.8497 -4.8966,-17.2531 10.8644,-39.0584 22.0732,-50.688 8.7986,-9.143 19.5866,-10.4436 28.2705,-17.406 5.4704,-4.3995 1.5302,-13.1598 1.5302,-19.1276 8.5691,-10.7497 40.9328,6.3504 54.1692,2.7161 14.3456,-3.8255 3.6342,-22.9531 15.9141,-26.7785 10.7114,3.0604 19.1275,10.8261 29.7625,14.6517 7.651,2.8691 21.5758,4.3228 26.7784,11.2087 4.0933,5.4704 0,13.1214 -1.1859,19.1275 3.8256,7.1537 15.7994,9.3725 23.221,10.4437 11.9355,1.7597 24.8657,1.0334 36.9926,2.2953 12.1268,1.2624 24.2537,4.7436 36.1511,5.8148 l 40.206,3.8254 c 9.6785,4.6289 -2.3335,12.9685 6.5799,31.7135 -9.5638,-1.3771 -48.89,-13.0832 -53.5571,0 34.7738,32.4021 113.5028,55.2404 160.174,61.935 a 396.81996,396.81996 0 0 0 87.4511,0.7645 c 17.8268,-1.4537 21.6141,-17.9033 32.517,-20.1221 13.8864,-2.7927 26.0132,19.4335 35.6154,25.1335 8.9133,5.3174 18.0564,10.3672 27.0845,15.302 15.8759,8.9517 30.9484,-6.5799 43.3429,0.3828 15.3021,8.5309 24.5981,51.6826 48.7372,44.8732 a 15.95237,15.95237 0 0 0 9.2957,-10.4436 c 4.7821,-12.0886 -1.7214,-22.953 -4.6288,-34.4296 4.5141,-10.6732 19.9309,5.8531 19.319,-5.4322 a 14.383911,14.383911 0 0 0 -6.9623,-4.6671 c -28.0411,-7.1537 -22.5705,-37.6431 -62.6621,-45.2558 -18.018,-3.4047 -36.0363,-7.651 -54.1691,-11.2087 -5.0879,-0.9565 -16.794,1.798 -16.6026,-6.1973 l 3.4812,-2.7161 32.0959,-0.7645 -0.7655,-4.2463 c -51.3766,-6.427 -101.7968,-21.0404 -153.0203,-27.123 -3.8256,-2.257 -8.7605,-14.1544 -8.1484,-17.7885 1.492,-9.4108 16.3349,8.0336 24.0242,-10.482 4.4375,-10.7496 -6.2355,-19.8926 2.2953,-25.1335 22.5705,2.9073 45.141,5.7383 67.7115,8.9134 -127.5807,-30.6041 -256.309,-55.9672 -383.775,-86.227 -27.6967,-6.5799 -55.9289,-10.9409 -83.1665,-19.3571 l 0.3828,-3.0603 c 112.5464,15.7994 223.9452,42.9222 336.9889,54.9343 v -2.7162 c -62.5087,-11.8973 -124.3289,-27.8114 -186.9143,-39.0967 -93.2276,-16.7939 -187.2203,-30.6041 -280.8688,-45.1026 -61.2081,-9.3726 -123.2195,-20.8109 -184.8486,-26.0518 l -1.9509,4.2463 a 46.6712,46.6712 0 0 0 15.302,10.4436 2.8308761,2.8308761 0 0 1 -0.3828,3.8256 c -7.651,-0.8415 -42.9221,1.4154 -42.9604,-6.9625 13.0449,-12.3563 16.2584,-18.8214 35.1947,-17.0235 29.4946,2.7544 59.2188,7.0773 88.5987,10.8263 169.2788,21.7288 339.7816,44.4141 507.9509,73.5262 177.4272,30.6041 354.9307,62.1645 529.9861,104.7424 27.8113,6.7711 215.4142,57.88 222.9122,56.1585 -5.3556,-4.7055 -67.214,-22.7618 -78.882,-26.3578 z m -1275.6923,-34.4296 c -4.7818,3.596 -13.1215,1.6067 -19.1276,0.8035 -7.1536,-3.8255 -8.7604,-12.3181 -9.5637,-20.3134 a 6.6181291,6.6181291 0 0 1 2.4101,-5.5852 27.543659,27.543659 0 0 1 22.3027,8.7986 c 2.4866,5.1645 6.8475,10.7497 4.055,16.2967 z m 600.6047,68.2853 c 19.1276,3.8255 37.8726,5.4323 57.3826,10.8262 a 12.930218,12.930218 0 0 1 6.886,8.6457 6.6563841,6.6563841 0 0 1 -5.4705,2.4865 l -75.4773,-19.1275 -8.4543,-5.5852 a 167.90155,167.90155 0 0 1 25.2101,2.7543 z m -420.8059,-83.0518 a 8.1483325,8.1483325 0 0 1 7.6511,-6.5798 c 4.6289,1.5302 10.4054,2.2953 11.9739,7.651 l -17.8269,38.2551 c -12.3564,16.2584 -3.443,38.6758 0.8036,54.9343 a 5.3557115,5.3557115 0 0 1 -4.6289,3.8255 c -12.3947,-12.3947 -23.6034,-29.8008 -19.1276,-49.1578 z m -142.7679,-213.5398 c -3.0605,-0.3828 -12.7007,-1.3389 -11.1322,-6.7712 a 9.7550455,9.7550455 0 0 1 6.5798,-1.5302 l 221.2675,35.998 10.4054,4.782 c 0,0 -153.0587,-21.6142 -226.9675,-32.4403 z m 254.5493,-39.0585 c -39.0584,-7.651 -79.2645,-16.7939 -117.6344,-27.4671 -2.9456,-0.8415 -9.7167,-1.3772 -8.8751,-5.8147 14.0013,-2.7162 78.2316,14.2691 94.3752,19.7012 7.192,2.4101 11.4766,0.7657 18.592,0 a 56.158461,56.158461 0 0 1 15.0725,12.0121 z m -1314.2916,325.1682 c 6.9624,0.7656 7.6511,-7.651 13.9249,-9.2959 11.4764,8.5309 10.8261,23.2208 22.4557,31.3309 6.1973,1.1476 14.6899,-2.7161 21.6523,-4.2463 4.6289,-2.3336 9.2578,-6.9625 9.2578,-11.9739 -2.3335,-9.2959 -7.651,-17.406 -9.6785,-27.0846 -5.0115,-15.1108 -23.2208,-5.0114 -34.4296,-5.0114 -12.3565,3.0987 -23.1826,-1.9128 -34.047,-4.2846 a 12.624178,12.624178 0 0 0 -6.9625,4.6289 16.832237,16.832237 0 0 0 0.3829,14.3457 22.953049,22.953049 0 0 0 17.6356,11.7825 z m 492.8785,-49.5403 c -17.5592,-12.1652 -27.6967,-31.1396 -41.6981,-46.7477 -5.1262,-5.7382 -12.2798,-9.7933 -17.1,-15.302 -3.1369,-3.4812 -22.953,-45.9062 -26.2812,-53.5572 l -4.2846,-2.3335 c -36.0362,1.9893 -72.1873,2.4101 -108.2236,3.3664 -15.6463,0.4207 -35.8833,3.6343 -51.1471,1.6451 a 2.9838963,2.9838963 0 0 1 -2.3335,-4.2464 c 34.1235,-11.4766 96.4793,6.8476 119.9297,-24.7893 3.1751,-4.2845 2.6778,-11.4766 8.4926,-13.1215 6.1973,3.0604 12.6624,5.9296 19.7397,4.2463 l 3.2898,-3.7872 c -5.3939,-22.4558 -11.2852,-46.1356 -25.8987,-64.6129 -23.2208,-29.3033 -79.647,-91.0088 -111.8195,-107.1141 -14.4222,-7.2303 -32.2109,-32.6317 -37.9109,-23.6034 a 11.476525,11.476525 0 0 1 -3.4812,8.1483 c -14.1162,2.8308 -13.657,-23.833 -32.5168,-35.233 -18.8597,-11.4 -43.9169,-17.5208 -65.7605,-12.7772 -26.7785,5.853 -54.5134,20.1222 -78.9201,32.4786 q -80.3357,40.7799 -161.2071,81.1008 c -25.4778,12.7006 -51.0323,26.7785 -77.0839,38.0638 -6.1209,2.6778 -14.9961,3.6343 -17.7886,10.8644 -3.8255,9.602 4.4759,23.7564 12.3564,28.9973 16.6409,11.0557 42.0805,-2.6012 58.033,-8.9133 l 2.716,1.5684 c -11.7061,14.7664 -25.0188,15.1107 -41.7745,18.5537 -13.3128,2.7544 -26.7786,9.8315 -39.9001,13.5805 -18.0946,5.1262 -35.845,10.788 -53.5571,16.5646 -7.651,2.41 -19.7779,4.1697 -17.7886,15.302 -2.5631,6.0825 -9.3342,5.2026 -14.6517,6.159 -58.6068,10.6349 -117.2901,25.4778 -175.66737,37.949 -36.38059,7.6511 -72.68464,16.5263 -108.72094,25.8987 -120.31222,31.2162 -240.73923,61.2081 -359.59777,97.933 -11.47651,3.6343 -73.56451,21.6525 -78.80546,26.7787 7.65102,1.7213 195.10091,-49.4256 222.95062,-56.1586 175.017,-42.5778 352.55883,-74.0618 529.94772,-104.7423 168.3223,-29.1121 338.7106,-51.7975 507.9509,-73.5264 29.4182,-3.8254 59.1424,-8.0717 88.6371,-10.8262 19.1275,-1.7597 22.1497,4.6672 35.1946,17.0236 0,8.3779 -35.1181,6.1208 -42.9604,6.9624 a 2.792621,2.792621 0 0 1 -0.3828,-3.8255 46.594688,46.594688 0 0 0 15.302,-10.4436 l -1.951,-4.2463 c -61.6673,5.2792 -123.7553,16.6792 -184.8869,26.0517 -93.6866,14.3839 -187.45,28.3087 -280.8688,45.1027 -62.5853,11.2853 -124.4055,27.1611 -186.9143,39.0967 v 2.7161 c 113.0055,-12.012 224.4042,-39.135 336.989,-54.9344 l 0.3828,3.0605 c -27.2377,8.4162 -55.5082,12.7772 -83.1666,19.357 -127.5425,30.2599 -256.309,55.776 -383.81326,86.2271 22.57049,-3.1753 45.141,-6.0061 67.71149,-8.9135 8.56913,5.2409 -2.10403,14.384 2.33357,25.1336 7.65101,18.5155 22.4558,1.1094 23.986,10.4819 0.612,3.8255 -4.2846,15.5315 -8.14843,17.7886 -51.41481,6.0825 -101.83502,20.6577 -153.02031,27.1228 l -0.76506,4.2463 32.09601,0.7656 3.48123,2.7161 c 0,7.9572 -11.47654,5.2028 -16.64098,6.1974 -18.09465,3.4047 -36.11279,7.651 -54.16919,11.2087 -40.09133,7.6511 -34.42958,38.2552 -62.66184,45.2558 a 14.383911,14.383911 0 0 0 -6.9624,4.6671 c -0.61204,11.2853 14.84296,-5.2409 19.35706,5.4322 -2.94565,11.4766 -9.449,22.3411 -4.66713,34.4297 a 15.990624,15.990624 0 0 0 9.296,10.4436 c 24.13895,6.7711 33.62621,-36.3424 48.73696,-44.8733 12.3564,-6.9624 27.4289,8.5692 43.34301,-0.3828 9.06647,-5.0879 18.17116,-10.1375 27.08459,-15.302 9.56379,-5.7382 21.69063,-27.9261 35.57724,-25.1336 10.9027,2.2188 14.68996,18.6685 32.51683,20.1222 a 396.78172,396.78172 0 0 0 87.41291,-0.7656 c 46.7094,-6.6946 125.4384,-29.5329 160.174,-61.935 -4.4758,-13.0832 -43.8403,-1.3772 -53.5571,0 8.9134,-18.7449 -3.1369,-27.0845 6.5799,-31.7134 l 40.2443,-3.8256 c 11.8973,-1.1093 24.0242,-4.5523 36.1128,-5.8147 12.0886,-1.2624 25.0953,-0.5736 36.9927,-2.2953 7.3832,-1.1094 19.4335,-3.3282 23.2208,-10.4436 -1.0712,-5.8148 -5.2409,-13.4658 -1.1477,-19.1276 5.1262,-6.8859 18.8981,-8.3396 26.7786,-11.2088 10.4819,-3.8254 19.1276,-11.4764 29.8007,-14.6517 12.2416,3.8256 1.5302,22.6853 15.8758,26.7787 13.2364,3.8254 45.5619,-13.4659 54.1693,-2.7162 0,5.7766 -3.8256,14.5369 1.5685,19.1275 8.6838,6.9625 19.4335,8.2632 28.2321,17.4061 11.2088,11.4765 26.7787,33.435 22.035,50.6881 -5.0879,17.9416 -47.0156,37.8725 -62.6619,27.8497 -10.3671,-6.58 -9.449,-21.4995 -23.9859,-17.0236 -17.0617,5.2027 -34.7355,6.4269 -51.8356,11.2469 -14.1161,3.8256 -33.9705,6.9243 -46.8242,13.1215 -1.9511,0.9565 -5.3174,4.2081 -3.0987,6.58 6.6564,7.1919 70.3893,-0.5357 82.784,-1.9128 5.8148,-0.6506 10.9793,-0.9564 15.1107,3.8256 7.6511,9.0281 -9.8315,11.4765 -4.6287,19.7395 7.1154,11.247 25.8221,15.3021 37.9106,12.3565 a 413.15488,413.15488 0 0 0 66.0667,-23.8712 c 6.618,-2.9457 13.8482,-7.6511 20.5813,-9.7933 16.3348,-5.3558 34.4294,3.4812 45.6382,-15.1107 10.1758,-16.7176 23.7563,-35.4626 23.986,-55.6995 0,-16.4497 -10.2908,-26.7786 -16.2585,-41.0477 -2.1423,-5.1645 -12.5859,-31.331 -12.3947,-35.1947 0,-2.5631 11.0558,-27.9261 13.5424,-28.2323 l 71.4605,-9.6402 a 9.4107499,9.4107499 0 0 1 5.7765,4.2463 c 3.0221,14.4604 -18.8981,31.4457 -26.7785,41.392 -2.9457,3.8255 -8.9518,13.6571 -7.3451,18.5537 2.6778,8.1866 14.3457,-4.2463 15.8377,5.0497 1.1093,6.5799 -13.9248,16.9087 -12.3564,29.0356 1.3007,10.061 2.0275,24.8658 12.3564,29.8007 17.253,8.1483 18.8215,-5.9295 26.7785,-6.1973 3.0987,0 7.9188,1.798 11.4765,1.8362 10.7496,0 20.849,-3.3281 31.0249,-6.1208 20.3134,-5.6235 81.8658,-34.4295 98.239,-32.1343 19.1276,2.6779 29.992,35.8451 89.0197,37.5665 l 3.0985,-4.667 c -20.0455,-19.3955 -34.8886,-6.5417 -55.7375,-48.7371 a 135.53776,135.53776 0 0 0 -23.986,-32.861 3.4047024,3.4047024 0 0 1 2.3335,-4.2846 c 35.6921,12.6242 41.1242,68.5149 94.4136,64.2303 l 2.716,-3.0987 c -2.2569,-5.853 -12.7006,-7.8423 -18.0945,-11.4765 z m -468.3188,-277.0432 a 56.885306,56.885306 0 0 1 15.0726,-11.9739 c 7.1919,0.7644 11.4765,2.41 18.5919,0 16.1436,-5.4706 80.3357,-22.4175 94.4136,-19.7014 0.8415,4.3993 -5.9678,4.9732 -8.9134,5.8148 -38.2552,10.6349 -78.5378,19.8543 -117.5962,27.4671 z m 256.3091,40.6268 c -73.9087,10.8262 -227.0822,32.4785 -227.0822,32.4785 l 10.4054,-4.7819 221.2292,-35.998 a 9.6785354,9.6785354 0 0 1 6.5798,1.5302 c 1.3389,5.3176 -8.2248,6.2738 -11.3234,6.6565 z m -546.8182,299.1165 -75.439,19.1275 a 6.6181291,6.6181291 0 0 1 -5.4705,-2.4865 12.815452,12.815452 0 0 1 6.8477,-8.6457 c 19.3571,-5.3939 38.2551,-6.9624 57.3826,-10.8262 a 167.519,167.519 0 0 1 25.3249,-2.9456 z m 405.81,12.5859 a 5.4322216,5.4322216 0 0 1 -4.6672,-3.8255 c 4.2846,-16.2201 13.198,-38.6759 0.8036,-54.9343 l -17.7887,-38.2551 c 1.5302,-5.4322 7.345,-6.159 11.9739,-7.651 a 8.1865875,8.1865875 0 0 1 7.651,6.5799 l 20.8873,49.1195 c 4.7053,19.1658 -6.5034,36.5719 -18.8981,48.9665 z m 197.0136,-82.7457 c -5.9678,0.8035 -14.3073,2.7926 -19.1274,-0.8036 -2.7928,-5.5469 1.5684,-11.1322 3.8254,-16.2966 a 27.505403,27.505403 0 0 1 22.2645,-8.7605 6.6181291,6.6181291 0 0 1 2.4101,5.5852 c -0.6128,7.9571 -2.2188,16.2968 -9.3726,20.2753 z"
       id="path30"
       inkscape:connector-curvature="0"
       style="fill:#dd013f;fill-rule:evenodd;stroke-width:3.82550812"
       inkscape:export-xdpi="2.8314111"
       inkscape:export-ydpi="2.8314111" />
    <path
       class="cls-5"
       d="m 2403.7045,-2135.7504 c 4.5906,-4.2081 8.9134,-8.1101 12.6624,-11.4765 -1.8362,-1.8363 1.8745,-0.8415 0.7266,-0.6116 l 1.6831,-1.3389 a 418.96966,418.96966 0 0 0 -26.7784,-46.9391 441.54016,441.54016 0 0 1 11.706,60.3666 z"
       id="path32"
       inkscape:connector-curvature="0"
       style="fill:#d9dada;stroke-width:3.82550812"
       inkscape:export-xdpi="2.8314111"
       inkscape:export-ydpi="2.8314111" />
    <path
       class="cls-3"
       d="m 1661.5559,-1551.8632 -34.4295,-49.1577 -233.3561,163.3492 18.7067,26.7786 103.2887,-72.3022 14.6518,20.9256 -84.6967,59.2953 a 49.731607,49.731607 0 0 0 -14.0397,17.7886 l -0.4978,0.9565 19.4718,27.8497 1.3391,-2.7161 a 40.473877,40.473877 0 0 1 12.471,-17.1 l 76.8163,-53.7485 c 11.1322,-7.651 15.9141,-15.302 15.302,-24.0242 a 24.024191,24.024191 0 0 0 9.0282,1.9128 26.969833,26.969833 0 0 0 15.5315,-5.6618 l 72.9142,-51.0705 a 30.871851,30.871851 0 0 0 7.498,-43.0753 z m -27.1228,18.286 -77.4666,54.2075 -16.0289,-22.9531 0.9944,-0.6886 77.4665,-54.2074 16.029,22.953 z m 116.4483,84.1994 a 30.604067,30.604067 0 0 0 -10.673,-21.1167 l -45.4471,-39.288 -185.958,215.7969 45.4471,39.1732 a 30.833596,30.833596 0 0 0 43.5725,-3.2517 l 55.8142,-64.7659 c 8.8752,-10.2906 11.4765,-18.7832 8.7604,-27.0081 a 29.685942,29.685942 0 0 0 3.8255,0.2679 24.406742,24.406742 0 0 0 19.1276,-9.9464 l 58.1094,-67.4437 a 30.604067,30.604067 0 0 0 7.4214,-22.4174 z m -114.7651,98.7747 -61.7437,71.6135 -21.1551,-18.2477 62.5089,-72.6846 21.1932,18.2476 z m 20.4282,-25.5545 -19.3572,-16.7174 60.9405,-70.7336 19.357,16.6792 z"
       id="path34"
       inkscape:connector-curvature="0"
       style="fill:#0c2043;stroke-width:3.82550812"
       inkscape:export-xdpi="2.8314111"
       inkscape:export-ydpi="2.8314111" />
  </g>
</svg>
