<?xml version="1.0" encoding="UTF-8" standalone="no"?>
<svg
   xmlns:dc="http://purl.org/dc/elements/1.1/"
   xmlns:cc="http://creativecommons.org/ns#"
   xmlns:rdf="http://www.w3.org/1999/02/22-rdf-syntax-ns#"
   xmlns:svg="http://www.w3.org/2000/svg"
   xmlns="http://www.w3.org/2000/svg"
   xmlns:sodipodi="http://sodipodi.sourceforge.net/DTD/sodipodi-0.dtd"
   xmlns:inkscape="http://www.inkscape.org/namespaces/inkscape"
   id="FC_Schalke_04"
   data-name="FC Schalke 04"
   viewBox="0 0 4096 4096"
   version="1.1"
   sodipodi:docname="fc-Schalke-04-logo.svg"
   width="4096"
   height="4096"
   inkscape:export-filename="G:\Users\suitedoalex\sites\svg\fc-Schalke-04-logo-0.png"
   inkscape:export-xdpi="96"
   inkscape:export-ydpi="96"
   inkscape:version="0.92.2 (5c3e80d, 2017-08-06)">
  <metadata
     id="metadata17">
    <rdf:RDF>
      <cc:Work
         rdf:about="">
        <dc:format>image/svg+xml</dc:format>
        <dc:type
           rdf:resource="http://purl.org/dc/dcmitype/StillImage" />
        <dc:title>Logos</dc:title>
      </cc:Work>
    </rdf:RDF>
  </metadata>
  <sodipodi:namedview
     pagecolor="#ffffff"
     bordercolor="#666666"
     borderopacity="1"
     objecttolerance="10"
     gridtolerance="10"
     guidetolerance="10"
     inkscape:pageopacity="0"
     inkscape:pageshadow="2"
     inkscape:window-width="1600"
     inkscape:window-height="837"
     id="namedview15"
     showgrid="false"
     inkscape:zoom="0.069532167"
     inkscape:cx="2856.8738"
     inkscape:cy="1571.0735"
     inkscape:window-x="-8"
     inkscape:window-y="-8"
     inkscape:window-maximized="1"
     inkscape:current-layer="FC_Schalke_04" />
  <defs
     id="defs4">
    <style
       id="style2">.cls-1{fill:#fff;}.cls-2{fill:#004d9d;}</style>
  </defs>
  <title
     id="title6">Logos</title>
  <path
     class="cls-1"
     d="M 2048,3717.4222 A 1669.4222,1669.4222 0 1 0 378.5778,2048 1669.4222,1669.4222 0 0 0 2048,3717.4222 Z"
     id="path8"
     inkscape:connector-curvature="0"
     style="fill:#ffffff;stroke-width:14.70986176"
     inkscape:export-xdpi="11.500986"
     inkscape:export-ydpi="11.500986" />
  <path
     class="cls-2"
     d="m 2048,3655.935 v 0 A 1607.935,1607.935 0 1 1 3655.935,2048 1607.935,1607.935 0 0 1 2048,3655.935"
     id="path10"
     inkscape:connector-curvature="0"
     style="fill:#004d9d;stroke-width:14.70986176"
     inkscape:export-xdpi="11.500986"
     inkscape:export-ydpi="11.500986" />
  <path
     class="cls-1"
     d="m 2433.8397,2892.0519 h -78.992 V 2750.6901 H 2231.432 v 141.5089 h -83.2578 c 0,0 128.5641,-537.2042 129.7409,-539.5578 h -137.243 c 0,0 -161.8084,675.4769 -161.8084,671.5052 h 245.6546 v 220.6479 h 129.741 v -220.6479 h 78.992 v -132.3887 z m -867.8819,-367.7466 v 549.5605 a 185.78555,185.78555 0 1 0 371.424,0 v -549.1192 a 185.78555,185.78555 0 0 0 -371.424,0 z m 126.3577,0 a 61.04595,61.04595 0 1 1 122.0919,0 v 550.1488 a 61.04595,61.04595 0 0 1 -122.0919,0 v -549.8546 z m 311.5549,-1344.1871 c -7.502,-18.6816 -29.4197,-119.7383 90.4657,-161.8085 a 154.60065,154.60065 0 0 1 104.44,5.5897 c 92.3779,33.5385 109.8826,157.9839 116.6492,236.8288 h 101.6451 V 828.9938 h -62.3698 l -39.8637,58.8394 a 594.27841,594.27841 0 0 0 -173.5764,-70.9015 506.90183,506.90183 0 0 0 -385.2513,83.6991 c -135.6249,96.3496 -212.8517,316.5562 -117.6788,462.9193 95.1728,146.3632 365.54,539.9991 365.54,539.9991 a 106.7936,106.7936 0 0 1 18.3873,56.78 123.26864,123.26864 0 0 1 -58.8394,106.7936 c -38.3927,27.2133 -77.8152,33.0972 -130.7707,21.6235 -125.328,-26.7719 -117.6789,-185.4913 -117.6789,-265.9543 h -149.3051 v 454.0934 h 95.7612 l 30.5965,-58.8394 c 37.5102,16.9163 106.7936,51.7787 165.3389,61.6343 157.8368,31.4791 326.8531,3.9717 441.2958,-98.5561 124.0042,-102.969 186.9624,-302.2876 61.4873,-472.6278 -132.3888,-200.3483 -331.8545,-468.5091 -356.42,-529.555 z m 1268.4314,378.0434 h 111.6478 a 1424.0617,1424.0617 0 1 0 86.6411,491.1623 h -954.67 v 530.4376 h 157.5426 v 312.7317 c 0,107.2348 0,474.6872 -625.4633,474.6872 A 1312.8552,1312.8552 0 0 1 1417.094,3206.6958 V 889.7455 A 1312.8552,1312.8552 0 0 1 2048,729.2609 c 625.4633,0 625.4633,367.7465 625.4633,474.6872 v 353.0367 z"
     id="path12"
     inkscape:connector-curvature="0"
     style="fill:#ffffff;stroke-width:14.70986176"
     inkscape:export-xdpi="11.500986"
     inkscape:export-ydpi="11.500986" />
</svg>
