<?xml version="1.0" encoding="UTF-8" standalone="no"?>
<!-- Generator: Adobe Illustrator 19.0.0, SVG Export Plug-In . SVG Version: 6.00 Build 0)  -->

<svg
   xmlns:dc="http://purl.org/dc/elements/1.1/"
   xmlns:cc="http://creativecommons.org/ns#"
   xmlns:rdf="http://www.w3.org/1999/02/22-rdf-syntax-ns#"
   xmlns:svg="http://www.w3.org/2000/svg"
   xmlns="http://www.w3.org/2000/svg"
   xmlns:sodipodi="http://sodipodi.sourceforge.net/DTD/sodipodi-0.dtd"
   xmlns:inkscape="http://www.inkscape.org/namespaces/inkscape"
   version="1.1"
   id="Layer_1"
   x="0px"
   y="0px"
   viewBox="0 0 700 700"
   xml:space="preserve"
   sodipodi:docname="ac-spezia-logo.svg"
   width="700"
   height="700"
   inkscape:version="0.92.4 (5da689c313, 2019-01-14)"
   inkscape:export-filename="G:\Users\suitedoalex\sites\svg\ac-spezia-logo-0.png"
   inkscape:export-xdpi="561.73712"
   inkscape:export-ydpi="561.73712"><metadata
   id="metadata1563"><rdf:RDF><cc:Work
       rdf:about=""><dc:format>image/svg+xml</dc:format><dc:type
         rdf:resource="http://purl.org/dc/dcmitype/StillImage" /><dc:title></dc:title></cc:Work></rdf:RDF></metadata><defs
   id="defs1561" /><sodipodi:namedview
   pagecolor="#ffffff"
   bordercolor="#666666"
   borderopacity="1"
   objecttolerance="10"
   gridtolerance="10"
   guidetolerance="10"
   inkscape:pageopacity="0"
   inkscape:pageshadow="2"
   inkscape:window-width="1600"
   inkscape:window-height="837"
   id="namedview1559"
   showgrid="false"
   inkscape:zoom="0.2979798"
   inkscape:cx="-90.480443"
   inkscape:cy="685.93004"
   inkscape:window-x="-8"
   inkscape:window-y="-8"
   inkscape:window-maximized="1"
   inkscape:current-layer="Layer_1" />
<style
   type="text/css"
   id="style1522">
	.st0{fill:#A39161;}
	.st1{fill:#FFFFFF;}
</style>
<path
   class="st0"
   d="M 96.729395,350 C 96.729395,210.11944 210.11945,96.729395 350,96.729395 489.88054,96.729395 603.2706,210.11945 603.2706,350 603.2706,489.88054 489.88054,603.2706 350,603.2706 210.11945,603.2706 96.729395,489.88054 96.729395,350"
   id="path1524"
   style="fill:#b49c5d;fill-opacity:1;stroke-width:0.89494914"
   inkscape:connector-curvature="0"
   inkscape:export-xdpi="75.808243"
   inkscape:export-ydpi="75.808243" />
<path
   d="m 116.32925,350.37283 c 0,-129.8378 105.23105,-235.06887 235.06885,-235.06887 129.8378,0 235.06888,105.23107 235.06888,235.06887 0,129.8378 -105.23107,235.06886 -235.06887,235.06886 -129.8378,0 -235.06886,-105.23107 -235.06886,-235.06887"
   id="path1526"
   style="fill:#251f1f;fill-opacity:1;stroke-width:0.93207324"
   inkscape:connector-curvature="0"
   inkscape:export-xdpi="75.808243"
   inkscape:export-ydpi="75.808243" />
<path
   class="st1"
   d="m 133.47939,350.37283 c 0,60.11872 24.42031,114.64501 63.84702,154.07169 v 0 c 39.42669,39.4267 93.85977,63.84703 154.07169,63.84703 v 0 c 60.21193,0 114.64501,-24.42032 154.0717,-63.84702 v 0 c 39.4267,-39.42669 63.84702,-93.85977 63.84702,-154.0717 v 0 c 0,-60.21193 -24.42031,-114.645 -63.84702,-154.0717 v 0 c -39.42669,-39.4267 -93.85976,-63.84701 -154.0717,-63.84701 v 0 c -60.21193,0 -114.645,24.42031 -154.0717,63.84701 v 0 c -39.4267,39.4267 -63.84701,93.85977 -63.84701,154.0717 z"
   id="path1528"
   inkscape:connector-curvature="0"
   style="fill:#ffffff;stroke-width:0.93207324"
   inkscape:export-xdpi="75.808243"
   inkscape:export-ydpi="75.808243" />
<path
   d="m 190.80189,350.37283 c 0,-88.73337 71.86284,-160.59621 160.59621,-160.59621 88.73337,0 160.59622,71.86283 160.59622,160.59621 0,88.73337 -71.95605,160.59622 -160.59622,160.59622 -88.73337,0 -160.59621,-71.86285 -160.59621,-160.59622"
   id="path1530"
   style="fill:#251f1f;fill-opacity:1;stroke-width:0.93207324"
   inkscape:connector-curvature="0"
   inkscape:export-xdpi="75.808243"
   inkscape:export-ydpi="75.808243" />
<path
   class="st1"
   d="m 205.34224,350.37283 c 0,-80.62433 65.33832,-146.05587 146.05586,-146.05587 80.62434,0 146.05588,65.33833 146.05588,146.05587 0,80.62433 -65.33833,146.05587 -146.05588,146.05587 -80.62433,0 -146.05587,-65.43154 -146.05587,-146.05587"
   id="path1532"
   inkscape:connector-curvature="0"
   style="fill:#ffffff;stroke-width:0.93207324"
   inkscape:export-xdpi="75.808243"
   inkscape:export-ydpi="75.808243" />
<path
   d="m 221.28068,350.37283 c 0,-71.86284 58.25458,-130.11742 130.11742,-130.11742 71.86285,0 130.11743,58.25458 130.11743,130.11742 0,71.86285 -58.25457,130.11742 -130.11743,130.11742 -71.86284,0 -130.11742,-58.25457 -130.11742,-130.11742"
   id="path1534"
   style="fill:#251f1f;fill-opacity:1;stroke-width:0.93207324"
   inkscape:connector-curvature="0"
   inkscape:export-xdpi="75.808243"
   inkscape:export-ydpi="75.808243" />
<path
   class="st0"
   d="m 275.34093,419.90548 v -31.9701 H 261.54625 V 367.8958 h 13.79468 v -21.25126 c 0,0 0.0932,-29.91956 33.74106,-29.91956 33.64783,0 34.11388,30.01277 34.11388,30.01277 v 21.34447 h 13.32864 c -1.02528,-4.56716 -1.67774,-9.22753 -1.67774,-14.0743 0,-6.80415 1.11849,-13.42186 3.16905,-19.48033 L 313.1831,304.32842 c 0,0 -9.87997,-9.50715 -3.44866,-24.1407 6.43131,-14.63355 19.29392,-14.91317 19.29392,-14.91317 h 58.72061 v 19.01429 h -56.20402 c 0,0 -2.33018,-0.65245 -4.28753,2.5166 -2.5166,4.10112 1.77094,6.89734 1.77094,6.89734 l 37.65575,24.42032 c 9.32074,-12.30337 23.39504,-20.226 39.14708,-20.226 8.29545,0 16.21807,2.23699 23.20862,6.15168 l -9.60035,16.31129 c -4.10113,-2.05057 -8.76149,-3.16904 -13.60827,-3.16904 -9.22753,0 -17.61619,4.10111 -23.67466,10.81205 4.28754,2.23696 20.22599,11.83731 20.22599,29.73313 0,16.77732 -7.45659,24.2339 -14.07431,27.58937 5.1264,3.44866 11.09167,5.40602 17.52298,5.40602 10.1596,0 19.29391,-5.03319 25.4456,-12.95583 l 14.91317,10.43922 c -9.32073,13.23544 -23.95428,21.81052 -40.35877,21.81052 -16.4977,0 -31.22445,-8.66828 -40.54519,-21.99693 h -22.09013 v 31.8769 h -19.48033 v -31.97011 h -28.89427 v 31.97011 h -19.48033 m 99.54542,-52.00968 c 1.58452,-0.65245 7.17696,-3.26226 7.17696,-10.25281 0,-8.01583 -5.87206,-10.99846 -5.87206,-10.99846 l -2.70301,-1.86415 c -0.65245,2.88943 -1.02528,5.96527 -1.02528,9.04111 -0.0932,5.0332 0.83886,9.78677 2.42339,14.07431 z m -51.17082,0.0932 v -17.8026 c 0,0 -0.27962,-13.14223 -14.63355,-13.14223 -14.35393,0 -14.26072,13.14223 -14.26072,13.14223 v 17.8026 z"
   id="path1536"
   style="fill:#b49c5d;fill-opacity:1;stroke-width:0.93207324"
   inkscape:connector-curvature="0"
   inkscape:export-xdpi="75.808243"
   inkscape:export-ydpi="75.808243" />
<path
   d="m 265.55416,193.22529 c 2.4234,3.72828 2.70302,7.45659 0.93208,11.18487 -1.86414,3.72829 -5.40603,7.27018 -10.71884,10.71884 -3.07584,1.95735 -5.68564,3.44867 -8.01583,4.56716 -2.33018,1.02529 -4.28753,1.77094 -5.87206,2.23698 l -3.91472,-6.05847 c 1.39811,-0.18642 3.44867,-0.74566 5.96528,-1.77094 2.60981,-1.02528 4.93998,-2.23698 7.17697,-3.72829 3.07584,-2.05056 5.03318,-3.7283 5.68564,-5.12641 0.74566,-1.49131 0.55925,-2.98263 -0.46603,-4.56715 -0.65246,-1.02529 -1.67774,-1.67774 -3.07585,-1.95736 -1.3049,-0.27962 -4.38074,0.27962 -9.22752,1.49132 -3.8215,0.93207 -7.08376,1.21169 -9.87998,0.65245 -2.79622,-0.55924 -5.1264,-2.23698 -6.89734,-5.0332 -1.77094,-2.70301 -1.86414,-5.87206 -0.27962,-9.60035 1.58452,-3.63509 4.75357,-7.08376 9.69356,-10.2528 2.33018,-1.58453 4.56716,-2.79622 6.71093,-3.63509 2.14377,-0.93207 3.63508,-1.49132 4.56716,-1.77094 l 3.44867,5.40603 c -1.77094,0.74565 -3.63509,1.49131 -5.31282,2.23697 -1.77094,0.74566 -3.54188,1.77094 -5.31282,2.88943 -2.51659,1.67773 -4.19433,3.16905 -4.84678,4.56716 -0.65245,1.39811 -0.74566,2.51659 -0.0932,3.54187 0.83887,1.2117 1.86415,1.95736 3.07585,2.05057 1.21169,0.0932 4.28753,-0.55925 9.22752,-1.95736 4.56716,-1.3049 8.20225,-1.58452 10.99847,-0.93207 2.70301,0.83886 4.84678,2.42339 6.4313,4.84678"
   id="path1538"
   inkscape:connector-curvature="0"
   style="stroke-width:0.93207324"
   inkscape:export-xdpi="75.808243"
   inkscape:export-ydpi="75.808243" />
<path
   d="m 292.02505,167.22044 -1.3049,-3.82149 c -0.55925,-1.49132 -1.39811,-2.42339 -2.70302,-2.79622 -1.3049,-0.37283 -3.07584,-0.18642 -5.31281,0.65244 l -3.35547,1.1185 4.28754,12.39657 3.91471,-1.30491 c 1.67773,-0.55924 2.98262,-1.39811 3.8215,-2.5166 0.83886,-1.2117 1.11849,-2.42339 0.65245,-3.72829 m 10.71884,-4.38075 c 1.11849,3.35547 0.83887,6.3381 -1.02528,8.85471 -1.86415,2.5166 -5.1264,4.66035 -9.78677,6.24488 l -6.4313,2.23698 5.49923,16.12487 -10.71884,3.72828 -13.70148,-39.70631 17.8958,-6.15169 c 5.1264,-1.77094 9.04111,-1.95735 11.74413,-0.55924 2.70301,1.39811 4.56716,3.44867 5.49923,6.15168 z"
   id="path1540"
   inkscape:connector-curvature="0"
   style="stroke-width:0.93207324"
   inkscape:export-xdpi="75.808243"
   inkscape:export-ydpi="75.808243" />
<polyline
   points="307.8,218.8 273.6,221.8 269.6,177 302.4,174.1 303,180.8 282.3,182.6 283.4,194.7 299.4,193.3 300,200 284,201.4   285.1,214.1 307.2,212.2 307.8,218.8 "
   id="polyline1542"
   transform="matrix(0.93207321,0,0,0.93207321,64.785596,-19.100992)"
   inkscape:export-xdpi="75.808243"
   inkscape:export-ydpi="75.808243" />
<polyline
   points="349.9,224.2 313,219 313.8,213 341.8,184.4 319.3,181.2 320.3,174.6 356.1,179.6 355.3,185.5 327.2,214.3   350.8,217.6 349.9,224.2 "
   id="polyline1544"
   transform="matrix(0.93207321,0,0,0.93207321,64.785596,-19.100992)"
   inkscape:export-xdpi="75.808243"
   inkscape:export-ydpi="75.808243" />
<polyline
   points="370.7,231.8 359.2,227.8 373.8,185.2 385.3,189.2 370.7,231.8 "
   id="polyline1546"
   transform="matrix(0.93207321,0,0,0.93207321,64.785596,-19.100992)"
   inkscape:export-xdpi="75.808243"
   inkscape:export-ydpi="75.808243" />
<path
   d="m 450.38429,199.843 2.88941,-16.40449 -13.14222,9.97318 10.25281,6.43131 m 6.52451,23.11541 -9.87998,-6.15168 2.23698,-10.53243 -14.07431,-8.85469 -8.57507,6.52451 -7.82941,-4.93999 36.63047,-26.56408 8.94791,5.59244 z"
   id="path1548"
   inkscape:connector-curvature="0"
   style="stroke-width:0.93207324"
   inkscape:export-xdpi="75.808243"
   inkscape:export-ydpi="75.808243" />
<path
   d="m 281.58582,550.20933 -9.60035,-3.72829 11.4645,-29.82636 -6.61772,-2.51659 1.77094,-4.75357 c 3.07584,0.93207 5.59243,1.11849 7.54979,0.65244 2.05056,-0.55923 3.35546,-1.02528 4.10112,-1.49131 l 6.3381,2.42339 -15.00638,39.24029"
   id="path1550"
   inkscape:connector-curvature="0"
   style="stroke-width:0.93207324"
   inkscape:export-xdpi="75.808243"
   inkscape:export-ydpi="75.808243" />
<path
   d="m 334.62078,533.52521 c 0.37284,-3.07584 0,-5.31281 -1.21168,-6.80414 -1.11849,-1.4913 -2.88943,-2.42339 -5.31282,-2.70301 -2.33018,-0.27962 -4.19433,0.18642 -5.68564,1.3049 -1.49132,1.11849 -2.42339,3.26227 -2.79622,6.3381 -0.37283,2.98264 0,5.21961 1.21169,6.80414 1.11849,1.49131 2.88943,2.42339 5.21961,2.70301 2.05056,0.27962 3.91471,-0.18642 5.59244,-1.39811 1.58453,-1.2117 2.60981,-3.26226 2.98262,-6.24489 m 10.25282,6.52451 c -1.3049,6.80413 -3.91472,12.02374 -8.01583,15.75204 -4.10112,3.72829 -9.50716,5.1264 -16.40449,4.28753 -1.77094,-0.18641 -3.35546,-0.46603 -4.66037,-0.83886 -1.30491,-0.37283 -2.5166,-0.65245 -3.63509,-1.02528 l 0.83887,-7.17697 c 1.49131,0.46604 2.88942,0.93208 4.19433,1.30491 1.39811,0.37283 2.70301,0.65245 4.00791,0.74565 3.16905,0.37283 5.77885,-0.18641 7.73621,-1.67773 1.95735,-1.49131 3.16905,-3.72829 3.63508,-6.61772 -0.74565,0.83887 -2.14376,1.58453 -4.19433,2.05056 -2.05056,0.55925 -3.9147,0.65246 -5.68564,0.46604 -5.1264,-0.65245 -8.9479,-2.33018 -11.55771,-5.21961 -2.5166,-2.88943 -3.54188,-6.52451 -2.98262,-11.18488 0.55923,-4.75357 2.6098,-8.29545 6.24489,-10.71884 3.54187,-2.42339 8.20224,-3.26226 13.98109,-2.6098 6.15168,0.74565 10.53242,2.70301 13.23543,5.77885 2.70302,3.07584 3.91471,7.45659 3.63509,13.04902 0,0.55925 -0.0932,1.2117 -0.18642,2.05057 0,0.74565 -0.0932,1.3049 -0.1864,1.58452 z"
   id="path1552"
   inkscape:connector-curvature="0"
   style="stroke-width:0.93207324"
   inkscape:export-xdpi="75.808243"
   inkscape:export-ydpi="75.808243" />
<path
   d="m 379.08069,538.5584 -0.18642,-1.11848 c -0.65245,-5.59244 -1.58452,-9.41394 -2.79622,-11.37129 -1.1185,-1.95736 -3.07585,-2.79622 -5.68564,-2.5166 -2.60981,0.27963 -4.28754,1.58453 -4.84679,3.8215 -0.65246,2.23698 -0.55925,6.15169 0.0932,11.74413 l 0.0932,1.11848 c 0.65245,5.59244 1.58452,9.41394 2.79622,11.27809 1.11849,1.86415 2.98263,2.70301 5.59244,2.33018 2.6098,-0.27962 4.28754,-1.58452 4.93999,-3.63508 0.74566,-2.14377 0.74566,-5.96527 0,-11.65092 m 11.37129,-0.18641 c 0.83887,6.61772 -0.18641,11.74412 -2.98263,15.37921 -2.79622,3.63508 -6.89735,5.77885 -12.39658,6.43129 -5.49923,0.65246 -10.06639,-0.37283 -13.60827,-3.26225 -3.54187,-2.88942 -5.77885,-7.64301 -6.52451,-14.26072 l -0.37283,-3.35546 c -0.74566,-6.33811 0.0932,-11.3713 2.70301,-15.28601 2.60981,-3.8215 6.80414,-6.15167 12.6762,-6.80413 5.77885,-0.74565 10.43922,0.46604 13.88789,3.63508 3.44867,3.07585 5.59244,7.82943 6.3381,14.16752 z"
   id="path1554"
   inkscape:connector-curvature="0"
   style="stroke-width:0.93207324"
   inkscape:export-xdpi="75.808243"
   inkscape:export-ydpi="75.808243" />
<path
   d="m 426.80284,531.00861 c -1.02529,-2.79621 -2.5166,-4.56716 -4.28754,-5.31282 -1.77094,-0.83885 -3.72829,-0.83885 -5.87206,0 -1.95736,0.74566 -3.35547,2.05056 -4.19433,3.8215 -0.93208,1.86415 -0.83887,4.10113 0.27962,6.89734 1.11849,2.88943 2.5166,4.66037 4.19433,5.49924 1.77094,0.74565 3.72829,0.65245 5.96527,-0.18642 2.14377,-0.83886 3.63508,-2.05056 4.47395,-3.8215 0.74566,-1.67773 0.55924,-4.00791 -0.55924,-6.89734 m 10.34601,-4.66037 c 1.67773,4.47396 1.58452,8.57508 -0.46604,12.39658 -2.05057,3.8215 -5.68565,6.80413 -11.09168,8.85469 -5.77884,2.23699 -10.53242,2.60982 -14.44713,1.2117 -3.8215,-1.49132 -6.89735,-4.75358 -9.32074,-9.87998 -0.27962,-0.46603 -0.46603,-1.11849 -0.74566,-1.86414 -0.27962,-0.83887 -0.46602,-1.30491 -0.55923,-1.49132 -2.05057,-6.43131 -2.05057,-12.30337 -0.18642,-17.52298 1.95736,-5.31282 6.05847,-9.13432 12.30336,-11.55771 1.67773,-0.65245 3.16906,-1.11848 4.47395,-1.39811 1.30491,-0.27962 2.60981,-0.55924 3.7283,-0.83886 l 2.6098,6.71093 c -1.49131,0.27962 -2.98262,0.55924 -4.38074,0.93207 -1.3981,0.27962 -2.60981,0.65245 -3.91471,1.21169 -2.88943,1.11849 -4.84678,2.79622 -5.87206,5.0332 -0.93207,2.23698 -1.02528,4.75357 -0.27962,7.643 0.27962,-1.11849 1.21169,-2.42339 2.79622,-3.8215 1.58452,-1.39811 3.16905,-2.42339 4.75357,-3.07584 4.84679,-1.86415 9.04111,-2.14377 12.6762,-0.83887 3.63509,1.11849 6.3381,3.91471 7.92263,8.29545 z"
   id="path1556"
   inkscape:connector-curvature="0"
   style="stroke-width:0.93207324"
   inkscape:export-xdpi="75.808243"
   inkscape:export-ydpi="75.808243" />
</svg>