<?xml version="1.0" encoding="UTF-8" standalone="no"?>
<!-- Created with Inkscape (http://www.inkscape.org/) -->

<svg
   xmlns:dc="http://purl.org/dc/elements/1.1/"
   xmlns:cc="http://creativecommons.org/ns#"
   xmlns:rdf="http://www.w3.org/1999/02/22-rdf-syntax-ns#"
   xmlns:svg="http://www.w3.org/2000/svg"
   xmlns="http://www.w3.org/2000/svg"
   xmlns:sodipodi="http://sodipodi.sourceforge.net/DTD/sodipodi-0.dtd"
   xmlns:inkscape="http://www.inkscape.org/namespaces/inkscape"
   width="700mm"
   height="700mm"
   viewBox="0 0 700 700"
   version="1.1"
   id="svg2581"
   inkscape:export-filename="C:\Users\suitedoalex\sites\torino-fc-logo-0.png"
   inkscape:export-xdpi="148.6263"
   inkscape:export-ydpi="148.6263"
   inkscape:version="0.92.4 (5da689c313, 2019-01-14)"
   sodipodi:docname="torino-fc-logo.svg">
  <defs
     id="defs2575">
    <clipPath
       clipPathUnits="userSpaceOnUse"
       id="clipPath1588">
      <path
         d="M 0,842 H 595.22 V 0 H 0 Z"
         id="path1586"
         inkscape:connector-curvature="0" />
    </clipPath>
  </defs>
  <sodipodi:namedview
     id="base"
     pagecolor="#ffffff"
     bordercolor="#666666"
     borderopacity="1.0"
     inkscape:pageopacity="0.0"
     inkscape:pageshadow="2"
     inkscape:zoom="0.0875"
     inkscape:cx="-1409.7907"
     inkscape:cy="1975.2182"
     inkscape:document-units="mm"
     inkscape:current-layer="g1582"
     showgrid="false"
     inkscape:window-width="1600"
     inkscape:window-height="837"
     inkscape:window-x="-8"
     inkscape:window-y="-8"
     inkscape:window-maximized="1" />
  <metadata
     id="metadata2578">
    <rdf:RDF>
      <cc:Work
         rdf:about="">
        <dc:format>image/svg+xml</dc:format>
        <dc:type
           rdf:resource="http://purl.org/dc/dcmitype/StillImage" />
        <dc:title></dc:title>
      </cc:Work>
    </rdf:RDF>
  </metadata>
  <g
     inkscape:label="Layer 1"
     inkscape:groupmode="layer"
     id="layer1"
     transform="translate(0,403)">
    <g
       transform="matrix(6.1339178,0,0,-6.1339178,-272.48041,4440.8677)"
       id="g1582">
      <g
         id="g1584"
         clip-path="url(#clipPath1588)"
         transform="matrix(1.0414375,0,0,1.0414375,-4.2051473,-30.358184)"
         inkscape:export-xdpi="26.738047"
         inkscape:export-ydpi="26.738047">
        <g
           id="g1590"
           transform="translate(117.4922,767.1685)">
          <path
             d="m 0,0 c 3.654,0 7.174,0.393 10.448,1.125 l 1.303,0.292 0.291,-1.304 c 1.116,-5 1.689,-10.266 1.689,-15.703 0,-24.397 -12.074,-45.491 -29.221,-54.581 l -0.625,-0.331 -0.625,0.331 c -17.154,9.094 -29.012,30.193 -29.012,54.581 0,5.437 0.574,10.703 1.69,15.703 l 0.291,1.304 1.303,-0.292 C -39.195,0.393 -35.674,0 -32.02,0 c 2.041,0 4.027,0.124 5.975,0.36 3.131,0.471 6.673,0.862 10.163,0.862 3.505,0 6.803,-0.393 9.944,-0.867 C -4.001,0.121 -2.028,0 0,0"
             style="fill:#f0b600;fill-opacity:1;fill-rule:nonzero;stroke:none"
             id="path1592"
             inkscape:connector-curvature="0" />
        </g>
        <g
           id="g1594"
           transform="translate(101.6099,767.0552)">
          <path
             d="m 0,0 c 3.436,0 6.667,-0.387 9.746,-0.852 2,-0.243 4.04,-0.37 6.136,-0.37 3.756,0 7.375,0.405 10.739,1.158 1.096,-4.908 1.658,-10.077 1.658,-15.413 0,-23.992 -11.876,-44.582 -28.511,-53.401 -16.636,8.819 -28.303,29.409 -28.303,53.401 0,5.336 0.562,10.505 1.658,15.413 3.364,-0.753 6.983,-1.158 10.739,-1.158 2.097,0 4.137,0.127 6.137,0.37 C -6.922,-0.387 -3.436,0 0,0"
             style="fill:#8b2412;fill-opacity:1;fill-rule:nonzero;stroke:none"
             id="path1596"
             inkscape:connector-curvature="0" />
        </g>
        <g
           id="g1598"
           transform="translate(75.1279,748.8857)">
          <path
             d="M 0,0 C -0.012,0.311 -0.021,0.623 -0.029,0.935 L 52.737,0.936 C 52.729,0.623 52.719,0.31 52.708,-0.001 Z"
             style="fill:#6494c9;fill-opacity:1;fill-rule:nonzero;stroke:none"
             id="path1600"
             inkscape:connector-curvature="0" />
        </g>
        <g
           id="g1602"
           transform="translate(127.8867,751.5781)">
          <path
             d="m 0,0 c 0,-0.584 -0.008,-1.166 -0.021,-1.745 l -52.767,0.002 c -0.014,0.578 -0.021,1.16 -0.021,1.743 0,4.029 0.329,7.959 0.975,11.75 l 0.22,1.292 1.298,-0.198 c 2.537,-0.387 5.185,-0.591 7.901,-0.591 2.18,0 4.346,0.139 6.426,0.391 2.978,0.448 6.393,0.831 9.712,0.831 3.33,0 6.51,-0.386 9.495,-0.836 2.068,-0.25 4.22,-0.386 6.387,-0.386 2.717,0 5.364,0.204 7.902,0.591 l 1.297,0.198 0.221,-1.292 C -0.33,7.959 0,4.029 0,0"
             style="fill:#ffffff;fill-opacity:1;fill-rule:nonzero;stroke:none"
             id="path1604"
             inkscape:connector-curvature="0" />
        </g>
        <g
           id="g1606"
           transform="translate(80.6167,759.1948)">
          <path
             d="M 0,0 H -2.546 V 2.63 H 5.202 V 0 H 2.655 L 2.656,-7.119 H 0 Z"
             style="fill:#f0b600;fill-opacity:1;fill-rule:evenodd;stroke:none"
             id="path1608"
             inkscape:connector-curvature="0" />
        </g>
        <g
           id="g1610"
           transform="translate(91.7642,756.938)">
          <path
             d="m 0,0 c 0,1.667 -0.762,2.384 -1.662,2.384 -0.895,0 -1.623,-0.686 -1.623,-2.359 0,-1.667 0.763,-2.383 1.661,-2.383 C -0.729,-2.358 0,-1.672 0,0 m 2.707,0.025 c 0,-3.048 -1.753,-5.026 -4.356,-5.026 -2.615,0 -4.342,1.952 -4.342,5.001 0,3.05 1.753,5.027 4.367,5.027 2.604,0 4.331,-1.953 4.331,-5.002"
             style="fill:#f0b600;fill-opacity:1;fill-rule:evenodd;stroke:none"
             id="path1612"
             inkscape:connector-curvature="0" />
        </g>
        <g
           id="g1614"
           transform="translate(99.5288,757.8228)">
          <path
             d="M 0,0 C 0.624,0 0.826,0.225 0.826,0.711 0.826,1.197 0.616,1.397 0,1.397 H -1.877 V 0 Z m -1.877,-5.747 h -2.656 v 9.749 h 4.571 c 1.84,0 3.494,-1.053 3.494,-3.253 0,-1.317 -0.517,-2.26 -1.544,-2.818 L 3.8,-5.747 H 0.778 l -1.584,3.193 h -1.071 z"
             style="fill:#f0b600;fill-opacity:1;fill-rule:evenodd;stroke:none"
             id="path1616"
             inkscape:connector-curvature="0" />
        </g>
        <path
           d="m 106.444,752.076 h -2.656 v 9.749 h 2.656 z"
           style="fill:#f0b600;fill-opacity:1;fill-rule:evenodd;stroke:none"
           id="path1618"
           inkscape:connector-curvature="0" />
        <g
           id="g1620"
           transform="translate(113.0229,757.6348)">
          <path
             d="M 0,0 V 4.19 H 2.63 V -5.559 H 0.371 l -3.18,4.726 0.005,-0.383 v -4.343 h -2.63 V 4.19 h 2.374 l 3.064,-4.572 z"
             style="fill:#f0b600;fill-opacity:1;fill-rule:evenodd;stroke:none"
             id="path1622"
             inkscape:connector-curvature="0" />
        </g>
        <g
           id="g1624"
           transform="translate(122.1685,756.938)">
          <path
             d="m 0,0 c 0,1.667 -0.763,2.384 -1.662,2.384 -0.895,0 -1.623,-0.686 -1.623,-2.359 0,-1.667 0.762,-2.383 1.661,-2.383 C -0.729,-2.358 0,-1.672 0,0 m 2.706,0.025 c 0,-3.048 -1.752,-5.026 -4.355,-5.026 -2.616,0 -4.343,1.952 -4.343,5.001 0,3.05 1.753,5.027 4.368,5.027 2.603,0 4.33,-1.953 4.33,-5.002"
             style="fill:#f0b600;fill-opacity:1;fill-rule:evenodd;stroke:none"
             id="path1626"
             inkscape:connector-curvature="0" />
        </g>
        <g
           id="g1628"
           transform="translate(85.3774,759.6362)">
          <path
             d="M 0,0 V 1.748 H -6.866 V 0 h 2.546 v -7.119 h 1.774 V 0 Z"
             style="fill:#8b2412;fill-opacity:1;fill-rule:evenodd;stroke:none"
             id="path1630"
             inkscape:connector-curvature="0" />
        </g>
        <g
           id="g1632"
           transform="translate(92.2056,756.938)">
          <path
             d="m 0,0 c 0,-1.799 -0.824,-2.799 -2.065,-2.799 -1.241,0 -2.102,1.026 -2.102,2.824 0,1.799 0.823,2.8 2.064,2.8 C -0.861,2.825 0,1.799 0,0 m 1.824,0.025 c 0,2.863 -1.583,4.56 -3.889,4.56 -2.318,0 -3.927,-1.722 -3.927,-4.585 0,-2.863 1.583,-4.56 3.902,-4.56 2.305,0 3.914,1.723 3.914,4.585"
             style="fill:#8b2412;fill-opacity:1;fill-rule:evenodd;stroke:none"
             id="path1634"
             inkscape:connector-curvature="0" />
        </g>
        <g
           id="g1636"
           transform="translate(100.7954,758.5342)">
          <path
             d="m 0,0 c 0,-0.773 -0.443,-1.153 -1.267,-1.153 h -2.317 v 2.28 h 2.317 C -0.481,1.127 0,0.798 0,0 m 1.824,-6.017 -1.697,3.446 c 1.127,0.443 1.697,1.279 1.697,2.609 0,1.887 -1.38,2.812 -3.053,2.812 h -4.129 v -8.867 h 1.774 v 3.192 h 1.786 l 1.583,-3.192 z"
             style="fill:#8b2412;fill-opacity:1;fill-rule:evenodd;stroke:none"
             id="path1638"
             inkscape:connector-curvature="0" />
        </g>
        <path
           d="m 106.003,761.384 h -1.773 v -8.866 h 1.773 z"
           style="fill:#8b2412;fill-opacity:1;fill-rule:evenodd;stroke:none"
           id="path1640"
           inkscape:connector-curvature="0" />
        <g
           id="g1642"
           transform="translate(115.2124,752.5176)">
          <path
             d="M 0,0 V 8.866 H -1.749 V 5.117 c 0,-0.494 0.026,-1.609 0.026,-1.938 -0.114,0.228 -0.405,0.672 -0.621,1.001 L -5.485,8.866 H -7.183 V 0 h 1.749 v 3.901 c 0,0.494 -0.025,1.608 -0.025,1.938 0.113,-0.228 0.404,-0.671 0.62,-1.001 L -1.583,0 Z"
             style="fill:#8b2412;fill-opacity:1;fill-rule:evenodd;stroke:none"
             id="path1644"
             inkscape:connector-curvature="0" />
        </g>
        <g
           id="g1646"
           transform="translate(122.6099,756.938)">
          <path
             d="m 0,0 c 0,-1.799 -0.824,-2.799 -2.065,-2.799 -1.241,0 -2.103,1.026 -2.103,2.824 0,1.799 0.823,2.8 2.064,2.8 C -0.862,2.825 0,1.799 0,0 m 1.823,0.025 c 0,2.863 -1.583,4.56 -3.888,4.56 -2.318,0 -3.927,-1.722 -3.927,-4.585 0,-2.863 1.583,-4.56 3.901,-4.56 2.306,0 3.914,1.723 3.914,4.585"
             style="fill:#8b2412;fill-opacity:1;fill-rule:evenodd;stroke:none"
             id="path1648"
             inkscape:connector-curvature="0" />
        </g>
        <g
           id="g1650"
           transform="translate(93.2202,729.8389)">
          <path
             d="M 0,0 C -0.493,0.144 -1.078,0.624 -0.221,1.017 -0.511,1.669 -0.207,2.136 0.103,2.37 -0.44,2.652 -0.991,2.859 -1.498,2.961 -2.136,2.599 -2.57,1.503 -2.454,0.636 c 0.048,-0.359 0.129,-0.699 0.315,-0.979 l 0.785,-2.8 0.043,-0.126 c 0.082,-0.013 0.117,-0.002 0.202,-0.002 1.015,0 1.601,2.593 1.601,2.593 C 0.291,-0.495 0.123,-0.264 0,0 M 19.163,4.31 C 19.118,4.339 19.071,4.368 19.022,4.396 19.354,4.29 19.72,4.152 20.121,3.978 21.131,3.43 21.367,2.773 21.356,2.167 21.344,1.499 21.031,0.824 20.765,0.278 20.62,0.031 20.561,-0.285 20.539,-0.592 c -0.106,0.106 -0.214,0.2 -0.325,0.281 -0.249,0.135 -0.196,0.599 -0.104,0.754 0.266,0.547 0.578,1.221 0.591,1.889 0.011,0.606 -0.225,1.264 -1.235,1.812 0,0 -0.238,0.124 -0.303,0.166 M 15.717,3.736 15.702,3.658 15.717,3.736 c 0.3,1.374 1.57,1.988 4.605,0.664 2.339,-1.254 1.373,-3.275 0.85,-4.348 -0.296,-0.476 -0.144,-1.605 -0.144,-2.372 -0.278,0.806 -0.667,1.324 -1.068,1.617 -0.689,0.409 -1.147,1.126 -1.147,1.943 0,0.397 0.509,0.63 0.708,0.956 0.967,1.302 -1.932,2.459 -2.875,2.286 C 16.141,4.389 15.857,4.113 15.717,3.736 M 4.694,4.641 C 2.629,5.014 0.607,5.222 0.187,5.038 0.7,4.88 1.428,4.711 2.01,4.548 3.16,4.225 3.705,3.912 4.022,3.68 2.564,4.01 0.01,5.049 -1.354,5.057 -2.284,5.063 -3.461,5.081 -4.279,4.688 -4.541,4.54 -4.759,4.353 -4.941,4.138 -5.176,3.862 -5.375,3.575 -5.458,3.25 L -7.013,0.792 -7.079,0.676 c 0.046,-0.07 0.077,-0.088 0.134,-0.152 0.679,-0.753 3,0.546 3,0.546 0,0.272 0.059,0.552 0.173,0.82 -0.223,0.462 -0.258,1.218 0.608,0.844 0.24,0.539 0.644,0.696 1.011,0.691 C -1.073,3.384 3.536,1.352 3.744,1.309 4.834,0.774 8.715,-0.726 9.826,1.033 9.554,-0.54 6.397,-0.246 4.432,0.277 4.434,-0.296 4.56,-0.4 4.694,-0.792 c 1.037,-1.842 1.925,-2.276 2.485,-3.9 0.09,-0.015 0.179,-0.031 0.268,-0.049 -0.109,0 -0.196,0.017 -0.268,0.049 -1.832,0.291 -2.144,0.39 -2.65,0.039 -0.465,-0.49 -0.54,-1.736 -0.54,-2.435 -0.1,-0.713 -0.01,-2.329 0.151,-2.845 l -3.767,-0.088 c -0.453,0 -1.456,-0.947 -2.045,-1.739 l -0.059,-0.117 c -0.781,-0.375 -2.507,-2.834 -2.507,-2.834 -0.015,-0.023 -0.007,-0.046 -0.003,-0.069 0.067,-0.378 0.794,-0.658 1.943,-0.44 0.831,0.158 1.35,0.642 1.528,0.972 0.005,0.007 -0.002,0.262 -0.002,0.262 0.046,0.407 0.381,0.723 0.783,0.731 0.757,0.015 0.962,-0.22 0.933,0.324 0,0.54 0.391,0.922 1.175,0.942 l 3.046,0.017 -0.043,0.003 0.503,-0.002 -0.46,-10e-4 c 0.265,-0.021 2.477,-0.088 2.352,0.981 l -0.002,0.871 c 0.001,0.257 0.094,0.546 0.277,0.785 -0.037,-0.303 -0.189,-0.615 -0.099,-1.022 0.216,-0.976 1.003,-1.184 1.474,-1.184 0.234,0 0.436,-0.043 0.602,0.25 -0.513,1.25 -1.125,3.955 2.288,5.87 -1.601,-1.062 -2.269,-2.548 -2.356,-4.095 -0.142,-2.637 4.295,-6.231 4.267,-7.399 -0.014,-0.598 -0.468,-1.781 -1.094,-2.493 -0.155,-0.12 -0.313,-0.243 -0.437,-0.388 -0.267,-0.315 -0.494,-0.643 -0.589,-1.014 l -1.773,-2.802 -0.074,-0.132 c 0.052,-0.08 0.087,-0.1 0.153,-0.173 0.773,-0.859 3.418,0.623 3.418,0.623 0.001,0.31 0.072,0.628 0.193,0.952 -0.148,0.069 -0.108,0.216 -0.109,0.501 -0.001,0.251 0.398,0.456 0.623,0.506 0.469,0.198 0.584,0.658 0.584,1.18 0.253,0.807 0.613,1.886 1.341,2.245 0.566,0.278 0.963,0.821 0.963,1.445 0,0.782 -0.138,0.666 -0.84,1.257 -0.731,0.886 -0.452,1.09 0.052,1.568 0.443,0.355 0.757,0.592 1.298,1.14 0.946,0.957 1.147,2.788 1.066,3.758 0.19,-0.112 0.394,-0.172 0.606,-0.172 1.057,0 2.387,0.751 2.061,2.55 -0.174,0.96 -1.919,3.684 -3.709,5.917 -0.169,0.227 -0.608,0.597 -0.861,1.102 l 0.107,-0.329 c 0.386,-0.812 1.046,-2 1.444,-2.536 0.703,-0.945 2.41,-3.296 0.834,-3.516 -0.617,-0.086 -3.109,1.219 -4.636,4.753 -0.556,1.18 -1.284,9.982 -1.284,9.982 -1.068,5.256 -5.623,4.922 -9.052,5.39 C 3.069,14.858 2.264,15.712 2.19,17.442 1.841,16.568 1.7,15.793 1.74,15.121 0.862,15.622 0.308,16.449 0.247,17.883 -0.556,15.88 -0.345,14.336 0.794,13.579 0.505,12.624 -0.155,11.532 0.432,11.001 0.418,10.35 -0.1,8.754 -0.08,8.137 -0.185,6.728 -0.323,5.992 0.586,5.996 0.542,6.137 0.523,6.247 0.518,6.345 0.485,6.895 0.654,7.034 0.982,7.137 1.44,7.28 1.575,6.321 1.124,6.484 0.732,6.626 0.692,6.187 0.736,6.002 L 0.875,5.996 C 1.117,5.477 2.183,5.606 2.358,5.867 2.139,6.48 2.984,6.704 3.952,6.775 4.845,6.846 5.557,7.784 5.722,8.771 5.885,8.065 5.521,7.081 4.877,6.762 4.843,6.745 4.757,6.698 4.657,6.644 3.907,5.36 4.315,4.969 4.694,4.641 m -5.467,-18.657 c -0.003,-0.029 -0.005,-0.06 -0.005,-0.09 z m 14.397,12.695 c -0.671,1.483 -0.309,5.318 -0.309,5.318 0.241,-2.159 0.552,-4.518 0.859,-5.169 0.893,-2.061 2.275,-4.511 3.259,-4.851 -1.085,0.167 -2.863,2.282 -3.809,4.702 M 3.203,13.519 C 3.297,13.395 3.333,13.289 3.296,13.212 3.179,12.971 2.371,13.122 1.491,13.551 0.954,13.813 0.52,14.32 0.28,14.573 0.558,14.362 1,13.932 1.527,13.75 2.261,13.498 2.915,13.416 3.203,13.519 M 0.762,10.221 c 0.244,0.81 0.803,0.036 1.428,1.434 0.291,-1.279 -0.329,-1.117 -1.095,-1.247 z m 3.017,1.638 c 0.244,0.81 2.404,0.248 2.564,1.434 C 7.34,12.002 4.877,12.176 4.112,12.046 Z m 12.04,-25.262 c 0.094,0.089 0.186,0.175 0.277,0.264 0.181,0.18 0.6,0.608 0.841,0.888 0.745,0.866 0.813,1.852 0.669,2.777 l 0.687,0.694 c 0.079,-0.932 -0.116,-2.608 -0.937,-3.403 -0.564,-0.548 -1.315,-1.092 -1.537,-1.22 m -0.524,-1.841 c -0.779,0.82 -0.741,1 0.184,1.516 -0.328,-0.574 0.065,-1.326 1.003,-2.175 0.11,-0.1 0.206,-0.189 0.212,-0.216 0.012,-0.054 -1.399,0.875 -1.399,0.875"
             style="fill:#ffffff;fill-opacity:1;fill-rule:evenodd;stroke:none"
             id="path1652"
             inkscape:connector-curvature="0" />
        </g>
        <g
           id="g1654"
           transform="translate(113.9028,740.6943)">
          <path
             d="M 0,0 H -2.421 V -3.385 H -4.91 V 5.529 H 1.721 V 3.075 H -2.421 V 2.442 H 0 Z"
             style="fill:#f0b600;fill-opacity:1;fill-rule:evenodd;stroke:none"
             id="path1656"
             inkscape:connector-curvature="0" />
        </g>
        <g
           id="g1658"
           transform="translate(115.1831,744.21)">
          <path
             d="m 0,0 v 1.572 h -5.749 v -8.031 h 1.606 v 3.384 h 2.422 v 1.561 H -4.143 V 0 Z"
             style="fill:#ffffff;fill-opacity:1;fill-rule:evenodd;stroke:none"
             id="path1660"
             inkscape:connector-curvature="0" />
        </g>
        <g
           id="g1662"
           transform="translate(119.2993,741.7666)">
          <path
             d="m 0,0 c 0,-1.347 0.625,-2.106 1.463,-2.106 0.523,0 0.822,0.184 1.193,0.806 l 0.226,0.378 2.08,-1.234 -0.176,-0.365 c -0.623,-1.286 -1.74,-2.062 -3.369,-2.062 -2.405,0 -3.952,1.871 -3.952,4.583 0,2.623 1.607,4.583 4.01,4.583 1.695,0 2.761,-0.842 3.334,-2.027 L 5.005,2.151 2.723,1.098 2.529,1.471 C 2.315,1.881 2.004,2.106 1.451,2.106 0.613,2.106 0,1.391 0,0"
             style="fill:#f0b600;fill-opacity:1;fill-rule:evenodd;stroke:none"
             id="path1664"
             inkscape:connector-curvature="0" />
        </g>
        <g
           id="g1666"
           transform="translate(123.7109,744.1299)">
          <path
             d="m 0,0 c -0.504,1.044 -1.422,1.779 -2.937,1.779 -2.099,0 -3.568,-1.699 -3.568,-4.142 0,-2.536 1.411,-4.142 3.511,-4.142 1.456,0 2.42,0.677 2.972,1.813 l -1.354,0.802 c -0.425,-0.711 -0.85,-1.021 -1.572,-1.021 -1.205,0 -1.905,1.102 -1.905,2.548 0,1.491 0.688,2.547 1.893,2.547 0.722,0 1.182,-0.322 1.469,-0.872 z"
             style="fill:#ffffff;fill-opacity:1;fill-rule:evenodd;stroke:none"
             id="path1668"
             inkscape:connector-curvature="0" />
        </g>
        <g
           id="g1670"
           transform="translate(78.0396,745.9185)">
          <path
             d="M 0,0 0.583,0.005 V -3.669 H 0 Z"
             style="fill:#ffffff;fill-opacity:1;fill-rule:nonzero;stroke:none"
             id="path1672"
             inkscape:connector-curvature="0" />
        </g>
        <g
           id="g1674"
           transform="translate(78.0396,745.9185)">
          <path
             d="M 0,0 0.583,0.005 V -3.669 H 0 Z"
             style="fill:none;stroke:#ffffff;stroke-width:0.184;stroke-linecap:butt;stroke-linejoin:miter;stroke-miterlimit:4;stroke-dasharray:none;stroke-opacity:1"
             id="path1676"
             inkscape:connector-curvature="0" />
        </g>
        <g
           id="g1678"
           transform="translate(80.8125,745.6069)">
          <path
             d="m 0,0 c -0.507,0 -0.87,-0.373 -0.87,-0.893 0,-0.458 0.336,-0.78 0.857,-0.78 0.404,0 0.72,0.164 0.884,0.384 0.027,0.045 0.047,0.102 0.047,0.181 C 0.925,-0.475 0.638,0 0.007,0 Z m -1.089,-3.013 c 0.13,-0.006 0.28,0 0.486,0.022 0.35,0.034 0.679,0.153 0.932,0.357 0.295,0.22 0.507,0.543 0.589,0.978 h -0.02 c -0.247,-0.249 -0.603,-0.396 -1.055,-0.396 -0.802,0 -1.316,0.497 -1.316,1.131 0,0.69 0.617,1.3 1.528,1.3 0.912,0 1.473,-0.605 1.473,-1.549 C 1.528,-1.979 1.2,-2.544 0.761,-2.9 0.418,-3.171 -0.054,-3.347 -0.534,-3.392 -0.753,-3.415 -0.952,-3.426 -1.089,-3.42 Z"
             style="fill:#ffffff;fill-opacity:1;fill-rule:nonzero;stroke:none"
             id="path1680"
             inkscape:connector-curvature="0" />
        </g>
        <g
           id="g1682"
           transform="translate(80.8125,745.6069)">
          <path
             d="m 0,0 c -0.507,0 -0.87,-0.373 -0.87,-0.893 0,-0.458 0.336,-0.78 0.857,-0.78 0.404,0 0.72,0.164 0.884,0.384 0.027,0.045 0.047,0.102 0.047,0.181 C 0.925,-0.475 0.638,0 0.007,0 Z m -1.089,-3.013 c 0.13,-0.006 0.28,0 0.486,0.022 0.35,0.034 0.679,0.153 0.932,0.357 0.295,0.22 0.507,0.543 0.589,0.978 h -0.02 c -0.247,-0.249 -0.603,-0.396 -1.055,-0.396 -0.802,0 -1.316,0.497 -1.316,1.131 0,0.69 0.617,1.3 1.528,1.3 0.912,0 1.473,-0.605 1.473,-1.549 C 1.528,-1.979 1.2,-2.544 0.761,-2.9 0.418,-3.171 -0.054,-3.347 -0.534,-3.392 -0.753,-3.415 -0.952,-3.426 -1.089,-3.42 Z"
             style="fill:none;stroke:#ffffff;stroke-width:0.184;stroke-linecap:butt;stroke-linejoin:miter;stroke-miterlimit:4;stroke-dasharray:none;stroke-opacity:1"
             id="path1684"
             inkscape:connector-curvature="0" />
        </g>
        <g
           id="g1686"
           transform="translate(84.335,742.5718)">
          <path
             d="M 0,0 C 0.61,0 0.905,0.593 0.905,1.532 0.905,2.437 0.631,3.03 0,3.03 -0.548,3.03 -0.905,2.453 -0.905,1.532 -0.918,0.576 -0.562,0 -0.006,0 Z m -0.027,-0.385 c -0.87,0 -1.467,0.672 -1.48,1.888 0,1.239 0.651,1.912 1.555,1.912 0.932,0 1.474,-0.69 1.474,-1.861 0,-1.249 -0.569,-1.939 -1.543,-1.939 z"
             style="fill:#ffffff;fill-opacity:1;fill-rule:nonzero;stroke:none"
             id="path1688"
             inkscape:connector-curvature="0" />
        </g>
        <g
           id="g1690"
           transform="translate(84.335,742.5718)">
          <path
             d="M 0,0 C 0.61,0 0.905,0.593 0.905,1.532 0.905,2.437 0.631,3.03 0,3.03 -0.548,3.03 -0.905,2.453 -0.905,1.532 -0.918,0.576 -0.562,0 -0.006,0 Z m -0.027,-0.385 c -0.87,0 -1.467,0.672 -1.48,1.888 0,1.239 0.651,1.912 1.555,1.912 0.932,0 1.474,-0.69 1.474,-1.861 0,-1.249 -0.569,-1.939 -1.543,-1.939 z"
             style="fill:none;stroke:#ffffff;stroke-width:0.184;stroke-linecap:butt;stroke-linejoin:miter;stroke-miterlimit:4;stroke-dasharray:none;stroke-opacity:1"
             id="path1692"
             inkscape:connector-curvature="0" />
        </g>
        <g
           id="g1694"
           transform="translate(87.9121,742.5718)">
          <path
             d="m 0,0 c 0.514,0 0.864,0.356 0.864,0.881 0,0.526 -0.364,0.843 -0.919,0.843 -0.362,0 -0.706,-0.181 -0.87,-0.453 C -0.959,1.215 -0.986,1.147 -0.986,1.057 -0.98,0.451 -0.637,0 -0.006,0 Z M 1.035,3.007 C 0.912,3.013 0.754,3.001 0.583,2.979 -0.37,2.854 -0.863,2.284 -0.966,1.673 h 0.013 c 0.213,0.237 0.59,0.43 1.083,0.43 0.788,0 1.343,-0.475 1.343,-1.187 0,-0.679 -0.555,-1.301 -1.487,-1.301 -0.945,0 -1.569,0.611 -1.569,1.566 0,0.724 0.309,1.295 0.754,1.662 0.37,0.3 0.863,0.487 1.425,0.543 0.179,0.023 0.329,0.029 0.439,0.029 z"
             style="fill:#ffffff;fill-opacity:1;fill-rule:nonzero;stroke:none"
             id="path1696"
             inkscape:connector-curvature="0" />
        </g>
        <g
           id="g1698"
           transform="translate(87.9121,742.5718)">
          <path
             d="m 0,0 c 0.514,0 0.864,0.356 0.864,0.881 0,0.526 -0.364,0.843 -0.919,0.843 -0.362,0 -0.706,-0.181 -0.87,-0.453 C -0.959,1.215 -0.986,1.147 -0.986,1.057 -0.98,0.451 -0.637,0 -0.006,0 Z M 1.035,3.007 C 0.912,3.013 0.754,3.001 0.583,2.979 -0.37,2.854 -0.863,2.284 -0.966,1.673 h 0.013 c 0.213,0.237 0.59,0.43 1.083,0.43 0.788,0 1.343,-0.475 1.343,-1.187 0,-0.679 -0.555,-1.301 -1.487,-1.301 -0.945,0 -1.569,0.611 -1.569,1.566 0,0.724 0.309,1.295 0.754,1.662 0.37,0.3 0.863,0.487 1.425,0.543 0.179,0.023 0.329,0.029 0.439,0.029 z"
             style="fill:none;stroke:#ffffff;stroke-width:0.184;stroke-linecap:butt;stroke-linejoin:miter;stroke-miterlimit:4;stroke-dasharray:none;stroke-opacity:1"
             id="path1700"
             inkscape:connector-curvature="0" />
        </g>
      </g>
    </g>
  </g>
</svg>
