<?xml version="1.0" encoding="UTF-8" standalone="no"?>
<!-- Created with Inkscape (http://www.inkscape.org/) -->

<svg
   xmlns:dc="http://purl.org/dc/elements/1.1/"
   xmlns:cc="http://creativecommons.org/ns#"
   xmlns:rdf="http://www.w3.org/1999/02/22-rdf-syntax-ns#"
   xmlns:svg="http://www.w3.org/2000/svg"
   xmlns="http://www.w3.org/2000/svg"
   xmlns:sodipodi="http://sodipodi.sourceforge.net/DTD/sodipodi-0.dtd"
   xmlns:inkscape="http://www.inkscape.org/namespaces/inkscape"
   width="700mm"
   height="700mm"
   viewBox="0 0 700 700"
   version="1.1"
   id="svg8"
   inkscape:version="0.92.4 (5da689c313, 2019-01-14)"
   sodipodi:docname="udinese-logo.svg">
  <defs
     id="defs2">
    <clipPath
       clipPathUnits="userSpaceOnUse"
       id="clipPath410">
      <path
         d="m 213.307,31.147 h 61.021 V 90.06 h -61.021 z"
         id="path408"
         inkscape:connector-curvature="0" />
    </clipPath>
  </defs>
  <sodipodi:namedview
     id="base"
     pagecolor="#ffffff"
     bordercolor="#666666"
     borderopacity="1.0"
     inkscape:pageopacity="0.0"
     inkscape:pageshadow="2"
     inkscape:zoom="0.1767767"
     inkscape:cx="1310.7638"
     inkscape:cy="1269.6242"
     inkscape:document-units="mm"
     inkscape:current-layer="layer1"
     showgrid="false"
     inkscape:window-width="1600"
     inkscape:window-height="837"
     inkscape:window-x="-8"
     inkscape:window-y="-8"
     inkscape:window-maximized="1" />
  <metadata
     id="metadata5">
    <rdf:RDF>
      <cc:Work
         rdf:about="">
        <dc:format>image/svg+xml</dc:format>
        <dc:type
           rdf:resource="http://purl.org/dc/dcmitype/StillImage" />
        <dc:title></dc:title>
      </cc:Work>
    </rdf:RDF>
  </metadata>
  <g
     inkscape:label="Layer 1"
     inkscape:groupmode="layer"
     id="layer1"
     transform="translate(0,403)">
    <g
       transform="matrix(8.1592569,0,0,-8.1592569,-1639.3696,441.47993)"
       id="g404"
       style="fill:#ff00ff">
      <path
         style="fill:#b2b3b5;fill-opacity:1;stroke:none;stroke-width:0.38342541px;stroke-linecap:butt;stroke-linejoin:miter;stroke-opacity:1"
         d="m 234.3093,42.692647 1.45911,-0.80117 c 0,0 1.6946,-0.52207 1.73739,-0.53062 0.0428,-0.008 1.47208,-0.49642 1.47208,-0.49642 l 2.32794,-0.43649 2.75587,-0.16261 2.01983,0.12837 2.29371,0.47073 1.68604,0.40225 2.36218,0.97571 2.36217,1.36936 1.81443,1.30947 1.63469,1.48919 1.76307,2.00271 2.01127,3.39776 0.71892,1.81444 0.79595,3.01262 0.34235,1.84866 0.0941,2.45632 -0.21397,2.45632 -0.40225,1.96848 -0.42793,1.46352 -1.01848,2.39641 -0.76171,1.54055 -1.55766,2.191 -1.3865,1.71172 -2.28515,1.95992 -2.2937,1.56622 -2.7302,1.17253 -2.73019,0.79595 -2.46488,0.46217 -3.02119,0.0599 -2.66172,-0.26532 -2.42209,-0.60766 -2.44776,-0.96712 -2.40497,-1.31803 -2.40496,-1.88289 -1.28379,-1.13829 -1.26667,-1.50632 -1.12118,-1.58334 -1.02703,-1.81443 -0.80452,-1.64325 -0.62477,-2.05406 -0.52208,-2.17389 -0.23108,-2.13109 0.11982,-2.76443 0.17117,-1.51487 0.50496,-2.35362 0.76172,-2.13964 0.97568,-1.94281 1.60902,-2.67029 2.55902,-2.67884 2.01127,-1.6518 z"
         id="path1150"
         inkscape:connector-curvature="0" />
      <path
         style="opacity:0.95999995;fill:#312c28;fill-opacity:1;stroke:none;stroke-width:0.38342541px;stroke-linecap:butt;stroke-linejoin:miter;stroke-opacity:1"
         d="m 235.29653,59.168564 7.81898,10.28814 0.58371,0.226206 0.0922,0.03929 0.21935,-0.121668 6.34749,-6.769855 2.36406,-5.228876 0.0383,-0.249913 0.28837,-3.392751 -1.62673,-1.457293 -0.31498,-0.08604 -0.61126,0.122313 -14.00074,-0.116331 -1.93347,2.12196 0.31157,3.058455 z"
         id="path1167"
         inkscape:connector-curvature="0" />
      <g
         id="g406"
         clip-path="url(#clipPath410)"
         style="fill:#ff00ff">
        <g
           id="g412"
           transform="translate(225.319,61.1785)"
           style="fill:#ffffff">
          <path
             d="M 0,0 C 0.073,0.461 0.203,0.563 0.762,0.474 L 3.447,0.046 C 4.837,-0.175 5.305,0.749 5.422,1.486 5.581,2.49 5.13,3.24 4.036,3.414 L 1.299,3.85 C 0.748,3.938 0.65,4.083 0.718,4.515 L 0.592,4.534 0.365,3.106 0.492,3.086 C 0.568,3.569 0.703,3.655 1.254,3.567 L 3.961,3.136 C 4.853,2.995 5.3,2.398 5.182,1.654 5.089,1.073 4.681,0.567 3.721,0.719 L 0.873,1.173 C 0.33,1.26 0.221,1.391 0.294,1.852 L 0.169,1.873 -0.127,0.02 Z"
             style="fill:#ffffff;fill-opacity:1;fill-rule:nonzero;stroke:none"
             id="path414"
             inkscape:connector-curvature="0" />
        </g>
        <g
           id="g416"
           transform="translate(227.9871,68.0293)"
           style="fill:#ffffff">
          <path
             d="M 0,0 C 0.405,0.817 1.319,0.973 2.441,0.417 3.545,-0.13 3.961,-0.909 3.565,-1.708 3.472,-1.898 3.351,-2.053 3.223,-2.155 l -3.371,1.67 C -0.116,-0.279 -0.08,-0.16 0,0 m -0.075,-1.194 2.686,-1.33 C 3.059,-2.747 3.09,-2.87 2.886,-3.283 l 0.098,-0.05 0.757,1.531 C 4.26,-0.756 3.956,0.468 2.742,1.07 1.725,1.574 0.477,1.469 -0.196,0.111 l -0.743,-1.501 0.098,-0.048 c 0.196,0.411 0.317,0.467 0.766,0.244"
             style="fill:#ffffff;fill-opacity:1;fill-rule:nonzero;stroke:none"
             id="path418"
             inkscape:connector-curvature="0" />
        </g>
        <g
           id="g420"
           transform="translate(230.1407,70.7126)"
           style="fill:#ffffff">
          <path
             d="M 0,0 2.369,-1.833 C 2.746,-2.123 2.778,-2.27 2.501,-2.617 L 2.588,-2.683 3.617,-1.354 3.53,-1.287 C 3.283,-1.607 3.16,-1.682 2.739,-1.356 L 0.369,0.477 C -0.022,0.78 -0.026,0.921 0.242,1.256 l -0.086,0.068 -1.029,-1.33 0.087,-0.067 C -0.523,0.267 -0.391,0.303 0,0"
             style="fill:#ffffff;fill-opacity:1;fill-rule:nonzero;stroke:none"
             id="path422"
             inkscape:connector-curvature="0" />
        </g>
        <g
           id="g424"
           transform="translate(231.3575,72.824)"
           style="fill:#ffffff">
          <path
             d="M 0,0 0.294,-0.07 2.38,-2.542 c 0.231,-0.275 0.237,-0.43 -0.063,-0.691 l 0.07,-0.084 1.034,0.873 -0.069,0.084 C 2.988,-2.685 2.84,-2.709 2.505,-2.312 l -1.797,2.129 0.01,0.008 4.192,-1.106 0.068,0.058 -2.504,2.967 C 2.259,1.998 2.269,2.166 2.524,2.382 L 2.453,2.465 1.487,1.65 1.558,1.567 C 1.907,1.87 2.052,1.866 2.367,1.493 L 3.96,-0.395 3.95,-0.403 0.218,0.578 -0.508,-0.035 -0.438,-0.117 C -0.291,0.006 -0.192,0.048 0,0"
             style="fill:#ffffff;fill-opacity:1;fill-rule:nonzero;stroke:none"
             id="path426"
             inkscape:connector-curvature="0" />
        </g>
        <g
           id="g428"
           transform="translate(235.4654,75.4314)"
           style="fill:#ffffff">
          <path
             d="M 0,0 1.296,-2.702 C 1.515,-3.159 1.459,-3.278 1.046,-3.47 L 1.093,-3.568 3.696,-2.319 3.525,-1.192 3.413,-1.209 C 3.5,-1.88 3.36,-2.21 2.879,-2.441 L 2.312,-2.712 C 2.075,-2.826 2.009,-2.794 1.876,-2.516 l -0.677,1.411 0.729,0.35 c 0.336,0.162 0.521,0.086 0.723,-0.351 L 2.75,-1.057 2.089,0.32 1.99,0.271 C 2.21,-0.171 2.158,-0.374 1.719,-0.585 L 1.093,-0.885 0.352,0.66 1.151,1.043 C 1.602,1.26 1.812,1.282 2.15,0.74 L 2.254,0.79 1.786,1.618 -0.801,0.377 -0.753,0.279 C -0.319,0.502 -0.2,0.417 0,0"
             style="fill:#ffffff;fill-opacity:1;fill-rule:nonzero;stroke:none"
             id="path430"
             inkscape:connector-curvature="0" />
        </g>
        <g
           id="g432"
           transform="translate(239.2905,75.7207)"
           style="fill:#ffffff">
          <path
             d="M 0,0 C 0.364,-0.223 1.082,-0.44 1.369,-0.615 1.647,-0.786 1.775,-0.96 1.837,-1.216 1.932,-1.615 1.728,-1.974 1.348,-2.066 0.868,-2.181 0.251,-1.926 0.011,-1.119 l -0.118,-0.029 0.343,-1.429 0.118,0.028 c -0.01,0.156 0.048,0.243 0.173,0.273 0.187,0.045 0.491,-0.12 0.921,-0.017 C 2.11,-2.134 2.5,-1.506 2.343,-0.85 2.265,-0.525 2.042,-0.23 1.748,-0.049 1.307,0.221 0.598,0.395 0.242,0.613 0.002,0.76 -0.134,0.945 -0.189,1.169 -0.265,1.488 -0.061,1.794 0.294,1.879 0.682,1.972 1.34,1.787 1.577,0.966 L 1.683,0.991 1.349,2.383 1.243,2.358 C 1.238,2.211 1.175,2.117 1.069,2.092 0.938,2.06 0.643,2.214 0.175,2.102 -0.436,1.954 -0.756,1.416 -0.605,0.786 -0.519,0.43 -0.309,0.19 0,0"
             style="fill:#ffffff;fill-opacity:1;fill-rule:nonzero;stroke:none"
             id="path434"
             inkscape:connector-curvature="0" />
        </g>
        <g
           id="g436"
           transform="translate(242.2803,77.539)"
           style="fill:#ffffff">
          <path
             d="M 0,0 0.078,-2.996 C 0.09,-3.503 -0.009,-3.589 -0.465,-3.594 l 0.002,-0.109 2.887,0.074 0.306,1.099 -0.11,0.029 C 2.425,-3.147 2.161,-3.391 1.628,-3.406 L 1,-3.422 c -0.263,-0.007 -0.309,0.05 -0.318,0.358 l -0.04,1.565 0.808,0.021 c 0.372,0.01 0.512,-0.134 0.517,-0.616 l 0.109,0.003 -0.039,1.527 -0.11,-0.003 C 1.947,-1.061 1.816,-1.224 1.329,-1.237 L 0.636,-1.254 0.592,0.458 1.477,0.481 c 0.5,0.014 0.701,-0.052 0.788,-0.685 L 2.381,-0.201 2.292,0.746 -0.576,0.672 -0.573,0.563 C -0.086,0.588 -0.012,0.462 0,0"
             style="fill:#ffffff;fill-opacity:1;fill-rule:nonzero;stroke:none"
             id="path438"
             inkscape:connector-curvature="0" />
        </g>
        <g
           id="g440"
           transform="translate(248.0711,73.0713)"
           style="fill:#ffffff">
          <path
             d="M 0,0 C 0.718,-0.228 1.373,-0.01 1.952,0.643 L 1.856,0.738 C 1.315,0.182 0.848,0.006 0.281,0.188 -0.58,0.462 -0.922,1.274 -0.44,2.789 0.075,4.404 0.778,5.12 1.667,4.837 2.35,4.62 2.659,3.929 2.455,3.068 L 2.584,3.027 3.013,4.67 2.891,4.709 C 2.792,4.495 2.723,4.43 2.63,4.459 2.45,4.517 2.259,4.91 1.678,5.095 0.494,5.472 -0.746,4.61 -1.239,3.059 -1.747,1.465 -1.005,0.32 0,0"
             style="fill:#ffffff;fill-opacity:1;fill-rule:nonzero;stroke:none"
             id="path442"
             inkscape:connector-curvature="0" />
        </g>
        <g
           id="g444"
           transform="translate(252.5668,74.5832)"
           style="fill:#ffffff">
          <path
             d="m 0,0 0.01,-0.007 -0.426,-1.579 -0.805,0.517 z m -2.99,-1.755 -0.059,-0.093 0.999,-0.641 0.059,0.091 c -0.274,0.169 -0.311,0.3 -0.221,0.44 0.025,0.038 0.07,0.085 0.132,0.145 l 0.668,0.577 0.928,-0.597 -0.2,-0.763 c -0.048,-0.169 -0.064,-0.218 -0.103,-0.278 -0.098,-0.15 -0.221,-0.155 -0.448,-0.009 l -0.059,-0.092 1.257,-0.808 0.06,0.092 c -0.259,0.167 -0.32,0.227 -0.16,0.82 L 0.881,0.944 0.795,1 -2.183,-1.556 C -2.561,-1.885 -2.725,-1.925 -2.99,-1.755"
             style="fill:#ffffff;fill-opacity:1;fill-rule:nonzero;stroke:none"
             id="path446"
             inkscape:connector-curvature="0" />
        </g>
        <g
           id="g448"
           transform="translate(252.6962,70.7666)"
           style="fill:#ffffff">
          <path
             d="m 0,0 -0.081,-0.073 1.93,-2.122 1.065,0.545 -0.045,0.097 c -0.752,-0.346 -0.991,-0.312 -1.458,0.2 l -0.306,0.338 c -0.181,0.199 -0.172,0.275 0.041,0.47 L 3.434,1.536 C 3.813,1.881 3.943,1.852 4.25,1.506 L 4.331,1.579 3.156,2.87 3.076,2.797 C 3.387,2.465 3.403,2.323 3.028,1.982 L 0.811,-0.034 C 0.465,-0.349 0.332,-0.374 0,0"
             style="fill:#ffffff;fill-opacity:1;fill-rule:nonzero;stroke:none"
             id="path450"
             inkscape:connector-curvature="0" />
        </g>
        <g
           id="g452"
           transform="translate(255.4837,66.8206)"
           style="fill:#ffffff">
          <path
             d="M 0,0 C 0.314,-0.56 0.849,-0.805 1.591,-0.735 L 1.584,-0.619 C 0.925,-0.652 0.532,-0.488 0.284,-0.046 -0.093,0.626 0.167,1.33 1.347,1.993 2.607,2.699 3.462,2.738 3.851,2.044 4.15,1.512 3.94,0.901 3.314,0.483 L 3.371,0.382 4.592,1.157 4.539,1.252 C 4.353,1.177 4.272,1.176 4.231,1.249 4.153,1.389 4.262,1.745 4.008,2.198 3.49,3.122 2.216,3.305 1.007,2.626 -0.236,1.929 -0.44,0.784 0,0"
             style="fill:#ffffff;fill-opacity:1;fill-rule:nonzero;stroke:none"
             id="path454"
             inkscape:connector-curvature="0" />
        </g>
        <g
           id="g456"
           transform="translate(259.8132,66.4102)"
           style="fill:#ffffff">
          <path
             d="m 0,0 -2.83,-0.984 c -0.45,-0.156 -0.591,-0.103 -0.73,0.317 l -0.103,-0.035 0.553,-1.589 0.102,0.036 c -0.133,0.382 -0.128,0.526 0.375,0.701 l 2.831,0.984 c 0.467,0.162 0.588,0.089 0.723,-0.32 L 1.024,-0.854 0.472,0.735 0.369,0.699 C 0.51,0.292 0.467,0.162 0,0"
             style="fill:#ffffff;fill-opacity:1;fill-rule:nonzero;stroke:none"
             id="path458"
             inkscape:connector-curvature="0" />
        </g>
        <g
           id="g460"
           transform="translate(261.2232,63.095)"
           style="fill:#ffffff">
          <path
             d="M 0,0 C 0.103,-0.704 -0.462,-1.092 -1.892,-1.301 -3.135,-1.483 -3.959,-1.39 -4.076,-0.596 -4.178,0.109 -3.612,0.496 -2.184,0.705 -0.851,0.9 -0.108,0.743 0,0 m -2.288,1.416 c -1.193,-0.175 -2.17,-0.94 -2.009,-2.045 0.169,-1.155 1.38,-1.549 2.51,-1.383 1.111,0.162 2.179,0.882 2.009,2.045 -0.17,1.161 -1.399,1.545 -2.51,1.383"
             style="fill:#ffffff;fill-opacity:1;fill-rule:nonzero;stroke:none"
             id="path462"
             inkscape:connector-curvature="0" />
        </g>
        <g
           id="g464"
           transform="translate(265.0151,44.2392)"
           style="fill:#a0834a;fill-opacity:1">
          <path
             d="m 0,0 c 0.713,0.472 0.848,0.619 0.848,0.619 0,0 -0.807,0.525 -2.813,-0.054 0,0 -1.211,-0.309 -2.517,-1.426 -1.305,-1.118 -3.364,-2.612 -5.087,-3.177 0,0 1.561,-0.35 4.186,0.741 C -2.759,-2.207 -0.714,-0.47 0,0"
             style="fill:#a0834a;fill-opacity:1;fill-rule:nonzero;stroke:none"
             id="path466"
             inkscape:connector-curvature="0" />
        </g>
        <g
           id="g468"
           transform="translate(252.3457,39.9693)"
           style="fill:#a0834a;fill-opacity:1">
          <path
             d="M 0,0 C -3.069,0.504 -6.874,-2.234 -6.874,-2.234 -1.889,-2.522 0,0 0,0"
             style="fill:#a0834a;fill-opacity:1;fill-rule:nonzero;stroke:none"
             id="path470"
             inkscape:connector-curvature="0" />
        </g>
        <g
           id="g472"
           transform="translate(259.3199,44.6864)"
           style="fill:#a0834a;fill-opacity:1">
          <path
             d="m 0,0 c 0,0 -2.606,-0.041 -5.138,-4.571 0,0 3.419,0.723 5.138,4.571"
             style="fill:#a0834a;fill-opacity:1;fill-rule:nonzero;stroke:none"
             id="path474"
             inkscape:connector-curvature="0" />
        </g>
        <g
           id="g476"
           transform="translate(252.5418,36.705)"
           style="fill:#a0834a;fill-opacity:1">
          <path
             d="m 0,0 c 3.408,0.535 6.183,1.364 6.183,1.364 0,0 -0.822,1.089 -3.311,0.893 C 0.383,2.06 -0.973,1.275 -1.829,1.026 -2.685,0.775 -4.452,0.473 -5.005,0.463 -5.005,0.463 -3.408,-0.536 0,0"
             style="fill:#a0834a;fill-opacity:1;fill-rule:nonzero;stroke:none"
             id="path478"
             inkscape:connector-curvature="0" />
        </g>
        <g
           id="g480"
           transform="translate(255.9485,79.5605)"
           style="fill:#a0834a;fill-opacity:1">
          <path
             d="M 0,0 C 1.999,-3.022 5.905,-3.673 5.905,-3.673 3.72,-0.093 0,0 0,0"
             style="fill:#a0834a;fill-opacity:1;fill-rule:nonzero;stroke:none"
             id="path482"
             inkscape:connector-curvature="0" />
        </g>
        <g
           id="g484"
           transform="translate(268.1304,78.6629)"
           style="fill:#a0834a;fill-opacity:1">
          <path
             d="m 0,0 c 0,0 -1.903,-2.693 -0.969,-6.297 0,0 2.154,2.299 0.969,6.297"
             style="fill:#a0834a;fill-opacity:1;fill-rule:nonzero;stroke:none"
             id="path486"
             inkscape:connector-curvature="0" />
        </g>
        <g
           id="g488"
           transform="translate(264.0628,82.397)"
           style="fill:#a0834a;fill-opacity:1">
          <path
             d="m 0,0 c 0,0 -0.465,-3.348 2.301,-6.603 0,0 0.071,4.279 -2.301,6.603"
             style="fill:#a0834a;fill-opacity:1;fill-rule:nonzero;stroke:none"
             id="path490"
             inkscape:connector-curvature="0" />
        </g>
        <g
           id="g492"
           transform="translate(267.8311,67.4219)"
           style="fill:#a0834a;fill-opacity:1">
          <path
             d="m 0,0 c 0.324,-1.711 0.706,-4.633 0.647,-5.195 0,0 1.58,1.831 0.982,6.356 -0.39,2.943 -0.468,4.022 -0.42,4.298 0,0 -0.946,-0.228 -1.365,-2.682 0,0 -0.168,-1.065 0.156,-2.777"
             style="fill:#a0834a;fill-opacity:1;fill-rule:nonzero;stroke:none"
             id="path494"
             inkscape:connector-curvature="0" />
        </g>
        <g
           id="g496"
           transform="translate(261.0577,45.1217)"
           style="fill:#a0834a;fill-opacity:1">
          <path
             d="M 0,0 C 0,0 2.876,1.988 3.139,6.487 3.139,6.487 0.645,5.143 0,0"
             style="fill:#a0834a;fill-opacity:1;fill-rule:nonzero;stroke:none"
             id="path498"
             inkscape:connector-curvature="0" />
        </g>
        <g
           id="g500"
           transform="translate(271.0317,62.9951)"
           style="fill:#a0834a;fill-opacity:1">
          <path
             d="m 0,0 c 0,0 -1.29,-0.453 -2.04,-1.744 -0.75,-1.29 -1.082,-3.399 -1.343,-4.69 -0.262,-1.291 -0.872,-3.069 -0.872,-3.069 0,0 2.023,1.813 2.738,3.958 C -0.802,-3.401 -0.174,-0.436 0,0"
             style="fill:#a0834a;fill-opacity:1;fill-rule:nonzero;stroke:none"
             id="path502"
             inkscape:connector-curvature="0" />
        </g>
        <g
           id="g504"
           transform="translate(273.6996,63.0997)"
           style="fill:#a0834a;fill-opacity:1">
          <path
             d="m 0,0 c 0,0 -2.633,-0.906 -3.627,-6.015 0,0 3.296,2.806 3.627,6.015"
             style="fill:#a0834a;fill-opacity:1;fill-rule:nonzero;stroke:none"
             id="path506"
             inkscape:connector-curvature="0" />
        </g>
        <g
           id="g508"
           transform="translate(266.4903,68.5955)"
           style="fill:#a0834a;fill-opacity:1">
          <path
             d="M 0,0 C -1.065,4.333 -4.309,5.674 -4.309,5.674 -4.178,2.777 0,0 0,0"
             style="fill:#a0834a;fill-opacity:1;fill-rule:nonzero;stroke:none"
             id="path510"
             inkscape:connector-curvature="0" />
        </g>
        <g
           id="g512"
           transform="translate(270.4767,67.9369)"
           style="fill:#a0834a;fill-opacity:1">
          <path
             d="m 0,0 c 0,0 1.413,3.172 0.06,7.302 0,0 -1.042,-1.101 -0.91,-3.794 C -0.718,0.814 0,0 0,0"
             style="fill:#a0834a;fill-opacity:1;fill-rule:nonzero;stroke:none"
             id="path514"
             inkscape:connector-curvature="0" />
        </g>
        <g
           id="g516"
           transform="translate(270.1656,63.9985)"
           style="fill:#a0834a;fill-opacity:1">
          <path
             d="M 0,0 C 3.591,4.178 2.227,5.878 2.227,5.878 -0.203,3.435 0,0 0,0"
             style="fill:#a0834a;fill-opacity:1;fill-rule:nonzero;stroke:none"
             id="path518"
             inkscape:connector-curvature="0" />
        </g>
        <g
           id="g520"
           transform="translate(266.4107,70.1445)"
           style="fill:#a0834a;fill-opacity:1">
          <path
             d="m 0,0 c 0,0 0.511,0.86 -0.233,3.511 -0.744,2.65 -2.045,4.441 -2.627,5.161 -0.581,0.721 -0.674,1.512 -0.674,1.512 0,0 -1.092,-2.535 0.698,-5.116 C -1.046,2.488 -0.279,1.302 0,0"
             style="fill:#a0834a;fill-opacity:1;fill-rule:nonzero;stroke:none"
             id="path522"
             inkscape:connector-curvature="0" />
        </g>
        <g
           id="g524"
           transform="translate(266.7592,48.8185)"
           style="fill:#a0834a;fill-opacity:1">
          <path
             d="m 0,0 c 0,0 0.89,0.872 1.727,2.285 0.836,1.412 1.551,2.371 1.778,2.528 0,0 -1.15,0.418 -3.243,-1.483 -2.093,-1.9 -1.587,-3.574 -4.412,-6.225 0,0 1.709,0.192 4.15,2.895"
             style="fill:#a0834a;fill-opacity:1;fill-rule:nonzero;stroke:none"
             id="path526"
             inkscape:connector-curvature="0" />
        </g>
        <g
           id="g528"
           transform="translate(249.7128,84.9677)"
           style="fill:#a0834a;fill-opacity:1">
          <path
             d="M 0,0 C 0.097,0.348 0.166,0.554 0.286,0.831 0.639,1.022 0.954,1.073 1.252,0.99 1.888,0.812 2.051,-0.102 1.679,-1.434 1.42,-2.358 0.975,-2.802 0.438,-2.652 -0.258,-2.457 -0.417,-1.491 0,0 m 0.227,-2.947 c 1.204,-0.336 2.189,0.814 2.52,1.998 C 3.044,0.114 2.61,1.093 1.735,1.337 1.297,1.46 0.862,1.399 0.453,1.16 L 0.439,1.185 c 0.8,1.598 2.112,2.496 3.327,2.243 L 3.817,3.607 C 2.147,4.191 -0.16,2.993 -0.88,0.417 -1.352,-1.273 -0.906,-2.63 0.227,-2.947"
             style="fill:#a0834a;fill-opacity:1;fill-rule:nonzero;stroke:none"
             id="path530"
             inkscape:connector-curvature="0" />
        </g>
        <g
           id="g532"
           transform="translate(265.6262,52.6549)"
           style="fill:#a0834a;fill-opacity:1">
          <path
             d="M 0,0 C 0,0 2.127,3.173 0.82,6.574 0.82,6.574 -1.221,4.429 0,0"
             style="fill:#a0834a;fill-opacity:1;fill-rule:nonzero;stroke:none"
             id="path534"
             inkscape:connector-curvature="0" />
        </g>
        <g
           id="g536"
           transform="translate(260.1568,85.7915)"
           style="fill:#a0834a;fill-opacity:1">
          <path
             d="m 0,0 c 0,0 -1.093,-2.465 1.558,-6.464 0,0 0.628,3.86 -1.558,6.464"
             style="fill:#a0834a;fill-opacity:1;fill-rule:nonzero;stroke:none"
             id="path538"
             inkscape:connector-curvature="0" />
        </g>
        <g
           id="g540"
           transform="translate(245.9173,85.9959)"
           style="fill:#a0834a;fill-opacity:1">
          <path
             d="M 0,0 C -0.658,0.055 -0.99,0.921 -0.876,2.299 -0.796,3.256 -0.442,3.776 0.113,3.73 0.833,3.669 1.161,2.752 1.032,1.208 1.002,0.838 0.985,0.633 0.919,0.337 0.608,0.084 0.308,-0.026 0,0 M 0.379,-2.29 C 1.393,-1.432 1.894,-0.261 1.996,0.963 2.141,2.711 1.438,3.961 0.265,4.059 -0.959,4.16 -1.728,2.888 -1.833,1.623 c -0.091,-1.1 0.519,-1.979 1.424,-2.055 0.453,-0.037 0.868,0.104 1.225,0.415 l 0.02,-0.022 C 0.35,-1.769 -0.768,-2.888 -2.01,-2.868 l -0.015,-0.185 c 0.972,-0.143 1.746,0.207 2.404,0.763"
             style="fill:#a0834a;fill-opacity:1;fill-rule:nonzero;stroke:none"
             id="path542"
             inkscape:connector-curvature="0" />
        </g>
        <g
           id="g544"
           transform="translate(265.8441,67.5177)"
           style="fill:#a0834a;fill-opacity:1">
          <path
             d="M 0,0 C -1.066,-2.538 1.653,-6.5 1.653,-6.5 2.43,-2.777 0,0 0,0"
             style="fill:#a0834a;fill-opacity:1;fill-rule:nonzero;stroke:none"
             id="path546"
             inkscape:connector-curvature="0" />
        </g>
        <g
           id="g548"
           transform="translate(261.319,77.4913)"
           style="fill:#a0834a;fill-opacity:1">
          <path
             d="m 0,0 c 0,0 -0.21,2.348 -2.255,4.046 -2.046,1.697 -4.278,3.557 -4.72,4.022 0,0 -0.535,-1.326 1.419,-3.302 C -3.604,2.79 -1.303,1.651 0,0"
             style="fill:#a0834a;fill-opacity:1;fill-rule:nonzero;stroke:none"
             id="path550"
             inkscape:connector-curvature="0" />
        </g>
        <g
           id="g552"
           transform="translate(259.4127,82.2575)"
           style="fill:#a0834a;fill-opacity:1">
          <path
             d="m 0,0 c 0,0 -0.86,3.673 -4.65,5.557 0,0 0.512,-3 4.65,-5.557"
             style="fill:#a0834a;fill-opacity:1;fill-rule:nonzero;stroke:none"
             id="path554"
             inkscape:connector-curvature="0" />
        </g>
        <g
           id="g556"
           transform="translate(257.9615,39.5909)"
           style="fill:#a0834a;fill-opacity:1">
          <path
             d="M 0,0 C 0,0 2.678,-1.565 6.949,-0.09 6.949,-0.09 4.346,1.651 0,0"
             style="fill:#a0834a;fill-opacity:1;fill-rule:nonzero;stroke:none"
             id="path558"
             inkscape:connector-curvature="0" />
        </g>
        <g
           id="g560"
           transform="translate(219.8033,67.4219)"
           style="fill:#a0834a;fill-opacity:1">
          <path
             d="M 0,0 C 0.324,1.712 0.156,2.777 0.156,2.777 -0.263,5.231 -1.209,5.459 -1.209,5.459 -1.161,5.183 -1.239,4.104 -1.628,1.161 -2.227,-3.364 -0.647,-5.195 -0.647,-5.195 -0.706,-4.633 -0.324,-1.711 0,0"
             style="fill:#a0834a;fill-opacity:1;fill-rule:nonzero;stroke:none"
             id="path562"
             inkscape:connector-curvature="0" />
        </g>
        <g
           id="g564"
           transform="translate(219.2282,44.0645)"
           style="fill:#a0834a;fill-opacity:1">
          <path
             d="M 0,0 C 2.423,-2.813 6.904,-3.163 6.904,-3.163 3.593,0.364 0,0 0,0"
             style="fill:#a0834a;fill-opacity:1;fill-rule:nonzero;stroke:none"
             id="path566"
             inkscape:connector-curvature="0" />
        </g>
        <g
           id="g568"
           transform="translate(226.2194,37.0865)"
           style="fill:#a0834a;fill-opacity:1">
          <path
             d="M 0,0 C 1.953,-1.904 7.703,-1.051 7.703,-1.051 2.36,1.209 0,0 0,0"
             style="fill:#a0834a;fill-opacity:1;fill-rule:nonzero;stroke:none"
             id="path570"
             inkscape:connector-curvature="0" />
        </g>
        <g
           id="g572"
           transform="translate(229.6731,39.5909)"
           style="fill:#a0834a;fill-opacity:1">
          <path
             d="M 0,0 C -4.346,1.651 -6.95,-0.09 -6.95,-0.09 -2.677,-1.565 0,0 0,0"
             style="fill:#a0834a;fill-opacity:1;fill-rule:nonzero;stroke:none"
             id="path574"
             inkscape:connector-curvature="0" />
        </g>
        <g
           id="g576"
           transform="translate(220.0902,48.4174)"
           style="fill:#a0834a;fill-opacity:1">
          <path
             d="M 0,0 C -1.936,4.569 -4.953,4.935 -4.953,4.935 -4.255,2.284 0,0 0,0"
             style="fill:#a0834a;fill-opacity:1;fill-rule:nonzero;stroke:none"
             id="path578"
             inkscape:connector-curvature="0" />
        </g>
        <g
           id="g580"
           transform="translate(215.2424,69.8762)"
           style="fill:#a0834a;fill-opacity:1">
          <path
             d="M 0,0 C 0,0 -1.364,-1.7 2.227,-5.878 2.227,-5.878 2.43,-2.443 0,0"
             style="fill:#a0834a;fill-opacity:1;fill-rule:nonzero;stroke:none"
             id="path582"
             inkscape:connector-curvature="0" />
        </g>
        <g
           id="g584"
           transform="translate(231.3906,34.1271)"
           style="fill:#a0834a;fill-opacity:1">
          <path
             d="M 0,0 C 0,0 3.479,-0.946 6.61,1.696 6.61,1.696 2.944,2.319 0,0"
             style="fill:#a0834a;fill-opacity:1;fill-rule:nonzero;stroke:none"
             id="path586"
             inkscape:connector-curvature="0" />
        </g>
        <g
           id="g588"
           transform="translate(218.0076,71.4442)"
           style="fill:#a0834a;fill-opacity:1">
          <path
             d="m 0,0 c 0.132,2.693 -0.91,3.795 -0.91,3.795 -1.353,-4.13 0.06,-7.303 0.06,-7.303 0,0 0.718,0.815 0.85,3.508"
             style="fill:#a0834a;fill-opacity:1;fill-rule:nonzero;stroke:none"
             id="path590"
             inkscape:connector-curvature="0" />
        </g>
        <g
           id="g592"
           transform="translate(213.3071,58.6705)"
           style="fill:#a0834a;fill-opacity:1">
          <path
             d="M 0,0 C 1.762,-3.278 5.44,-3.958 5.44,-3.958 3.034,-0.157 0,0 0,0"
             style="fill:#a0834a;fill-opacity:1;fill-rule:nonzero;stroke:none"
             id="path594"
             inkscape:connector-curvature="0" />
        </g>
        <g
           id="g596"
           transform="translate(217.5619,57.0837)"
           style="fill:#a0834a;fill-opacity:1">
          <path
             d="M 0,0 C -0.995,5.109 -3.627,6.016 -3.627,6.016 -3.296,2.808 0,0 0,0"
             style="fill:#a0834a;fill-opacity:1;fill-rule:nonzero;stroke:none"
             id="path598"
             inkscape:connector-curvature="0" />
        </g>
        <g
           id="g600"
           transform="translate(222.793,45.8543)"
           style="fill:#a0834a;fill-opacity:1">
          <path
             d="M 0,0 C -2.65,2.755 -6.364,2.284 -6.364,2.284 -4.115,-0.279 0,0 0,0"
             style="fill:#a0834a;fill-opacity:1;fill-rule:nonzero;stroke:none"
             id="path602"
             inkscape:connector-curvature="0" />
        </g>
        <g
           id="g604"
           transform="translate(267.5441,48.4174)"
           style="fill:#a0834a;fill-opacity:1">
          <path
             d="M 0,0 C 0,0 4.255,2.284 4.953,4.935 4.953,4.935 1.935,4.569 0,0"
             style="fill:#a0834a;fill-opacity:1;fill-rule:nonzero;stroke:none"
             id="path606"
             inkscape:connector-curvature="0" />
        </g>
        <g
           id="g608"
           transform="translate(264.8414,45.8543)"
           style="fill:#a0834a;fill-opacity:1">
          <path
             d="M 0,0 C 0,0 4.115,-0.279 6.365,2.284 6.365,2.284 2.65,2.755 0,0"
             style="fill:#a0834a;fill-opacity:1;fill-rule:nonzero;stroke:none"
             id="path610"
             inkscape:connector-curvature="0" />
        </g>
        <g
           id="g612"
           transform="translate(268.8869,54.7121)"
           style="fill:#a0834a;fill-opacity:1">
          <path
             d="M 0,0 C 0,0 3.679,0.68 5.441,3.958 5.441,3.958 2.406,3.802 0,0"
             style="fill:#a0834a;fill-opacity:1;fill-rule:nonzero;stroke:none"
             id="path614"
             inkscape:connector-curvature="0" />
        </g>
        <g
           id="g616"
           transform="translate(261.5023,40.9016)"
           style="fill:#a0834a;fill-opacity:1">
          <path
             d="M 0,0 C 0,0 4.481,0.35 6.904,3.163 6.904,3.163 3.312,3.526 0,0"
             style="fill:#a0834a;fill-opacity:1;fill-rule:nonzero;stroke:none"
             id="path618"
             inkscape:connector-curvature="0" />
        </g>
        <g
           id="g620"
           transform="translate(243.8206,36.8221)"
           style="fill:#a0834a;fill-opacity:1">
          <path
             d="M 0,0 C 0,0.001 0.001,0.004 0.001,0.004 0,0.004 -0.002,0.003 -0.003,0.002 c -0.002,0.001 -0.003,0.002 -0.004,0.002 0,0 0,-0.003 0.001,-0.004 -3.517,-1.966 -3.836,-5.675 -3.836,-5.675 2.774,0.956 3.771,5.344 3.839,5.66 0.068,-0.316 1.065,-4.704 3.838,-5.66 0,0 -0.319,3.709 -3.835,5.675"
             style="fill:#a0834a;fill-opacity:1;fill-rule:nonzero;stroke:none"
             id="path622"
             inkscape:connector-curvature="0" />
        </g>
        <g
           id="g624"
           transform="translate(252.1994,32.9679)"
           style="fill:#a0834a;fill-opacity:1">
          <path
             d="m 0,0 c -1.064,0.941 -4.15,4.045 -8.3,4.133 0,0 1.377,-0.611 3.034,-2.11 1.656,-1.5 4.063,-3.872 7.115,-2.825 0,0 -0.785,-0.139 -1.849,0.802"
             style="fill:#a0834a;fill-opacity:1;fill-rule:nonzero;stroke:none"
             id="path626"
             inkscape:connector-curvature="0" />
        </g>
        <g
           id="g628"
           transform="translate(243.7352,37.1006)"
           style="fill:#a0834a;fill-opacity:1">
          <path
             d="m 0,0 c -4.15,-0.087 -7.236,-3.191 -8.3,-4.133 -1.063,-0.941 -1.848,-0.802 -1.848,-0.802 3.051,-1.047 5.457,1.325 7.114,2.825 C -1.377,-0.61 0,0 0,0"
             style="fill:#a0834a;fill-opacity:1;fill-rule:nonzero;stroke:none"
             id="path630"
             inkscape:connector-curvature="0" />
        </g>
        <g
           id="g632"
           transform="translate(253.7115,36.0354)"
           style="fill:#a0834a;fill-opacity:1">
          <path
             d="M 0,0 C 0,0 5.75,-0.853 7.703,1.051 7.703,1.051 5.345,2.26 0,0"
             style="fill:#a0834a;fill-opacity:1;fill-rule:nonzero;stroke:none"
             id="path634"
             inkscape:connector-curvature="0" />
        </g>
        <g
           id="g636"
           transform="translate(249.6334,35.8221)"
           style="fill:#a0834a;fill-opacity:1">
          <path
             d="M 0,0 C 3.131,-2.642 6.61,-1.696 6.61,-1.696 3.667,0.625 0,0 0,0"
             style="fill:#a0834a;fill-opacity:1;fill-rule:nonzero;stroke:none"
             id="path638"
             inkscape:connector-curvature="0" />
        </g>
        <g
           id="g640"
           transform="translate(242.1627,37.7356)"
           style="fill:#a0834a;fill-opacity:1">
          <path
             d="m 0,0 c 0,0 -3.805,2.738 -6.874,2.234 0,0 1.889,-2.522 6.874,-2.234"
             style="fill:#a0834a;fill-opacity:1;fill-rule:nonzero;stroke:none"
             id="path642"
             inkscape:connector-curvature="0" />
        </g>
        <g
           id="g644"
           transform="translate(219.5042,78.6629)"
           style="fill:#a0834a;fill-opacity:1">
          <path
             d="M 0,0 C -1.185,-3.998 0.969,-6.297 0.969,-6.297 1.903,-2.693 0,0 0,0"
             style="fill:#a0834a;fill-opacity:1;fill-rule:nonzero;stroke:none"
             id="path646"
             inkscape:connector-curvature="0" />
        </g>
        <g
           id="g648"
           transform="translate(222.6194,44.2392)"
           style="fill:#a0834a;fill-opacity:1">
          <path
             d="M 0,0 C 0.714,-0.47 2.759,-2.207 5.383,-3.297 8.007,-4.388 9.569,-4.038 9.569,-4.038 7.846,-3.473 5.787,-1.979 4.482,-0.861 3.176,0.256 1.965,0.565 1.965,0.565 -0.041,1.144 -0.848,0.619 -0.848,0.619 -0.848,0.619 -0.714,0.472 0,0"
             style="fill:#a0834a;fill-opacity:1;fill-rule:nonzero;stroke:none"
             id="path650"
             inkscape:connector-curvature="0" />
        </g>
        <g
           id="g652"
           transform="translate(228.9102,38.0696)"
           style="fill:#a0834a;fill-opacity:1">
          <path
             d="M 0,0 C 0,0 2.775,-0.829 6.183,-1.364 9.59,-1.9 11.187,-0.901 11.187,-0.901 10.633,-0.892 8.868,-0.589 8.012,-0.339 7.154,-0.089 5.798,0.696 3.309,0.893 0.821,1.089 0,0 0,0"
             style="fill:#a0834a;fill-opacity:1;fill-rule:nonzero;stroke:none"
             id="path654"
             inkscape:connector-curvature="0" />
        </g>
        <g
           id="g656"
           transform="translate(226.577,45.1217)"
           style="fill:#a0834a;fill-opacity:1">
          <path
             d="M 0,0 C -0.646,5.143 -3.139,6.487 -3.139,6.487 -2.878,1.988 0,0 0,0"
             style="fill:#a0834a;fill-opacity:1;fill-rule:nonzero;stroke:none"
             id="path658"
             inkscape:connector-curvature="0" />
        </g>
        <g
           id="g660"
           transform="translate(220.1385,61.0175)"
           style="fill:#a0834a;fill-opacity:1">
          <path
             d="M 0,0 C 0,0 2.717,3.962 1.652,6.5 1.652,6.5 -0.779,3.723 0,0"
             style="fill:#a0834a;fill-opacity:1;fill-rule:nonzero;stroke:none"
             id="path662"
             inkscape:connector-curvature="0" />
        </g>
        <g
           id="g664"
           transform="translate(217.37,53.6312)"
           style="fill:#a0834a;fill-opacity:1">
          <path
             d="M 0,0 C 0.226,-0.157 0.941,-1.116 1.778,-2.529 2.616,-3.941 3.505,-4.813 3.505,-4.813 5.946,-7.516 7.655,-7.708 7.655,-7.708 4.83,-5.057 5.336,-3.383 3.243,-1.482 1.151,0.418 0,0 0,0"
             style="fill:#a0834a;fill-opacity:1;fill-rule:nonzero;stroke:none"
             id="path666"
             inkscape:connector-curvature="0" />
        </g>
        <g
           id="g668"
           transform="translate(222.0083,52.6549)"
           style="fill:#a0834a;fill-opacity:1">
          <path
             d="M 0,0 C 1.221,4.429 -0.82,6.574 -0.82,6.574 -2.127,3.173 0,0 0,0"
             style="fill:#a0834a;fill-opacity:1;fill-rule:nonzero;stroke:none"
             id="path670"
             inkscape:connector-curvature="0" />
        </g>
        <g
           id="g672"
           transform="translate(240.6682,89.7055)"
           style="fill:#a0834a;fill-opacity:1">
          <path
             d="M 0,0 C 0.575,0.061 1.027,-0.391 1.101,-1.099 1.168,-1.735 0.965,-2.276 0.463,-2.734 -0.475,-2.105 -0.788,-1.598 -0.836,-1.136 -0.9,-0.53 -0.554,-0.058 0,0 m 1.731,-5.424 c 0.067,-0.637 -0.304,-1.153 -0.879,-1.214 -0.708,-0.074 -1.215,0.496 -1.316,1.461 -0.076,0.719 0.089,1.235 0.523,1.643 1.226,-0.795 1.603,-1.223 1.672,-1.89 m -1.922,2.093 c -0.746,-0.702 -1.071,-1.369 -0.996,-2.078 0.103,-0.986 0.952,-1.654 1.969,-1.547 1.006,0.104 1.704,0.977 1.597,1.994 -0.083,0.791 -0.537,1.356 -1.636,2.039 0.838,0.712 1.136,1.241 1.071,1.857 -0.07,0.668 -0.694,1.464 -1.781,1.35 -1.017,-0.107 -1.646,-0.848 -1.544,-1.813 0.07,-0.668 0.458,-1.198 1.32,-1.802"
             style="fill:#a0834a;fill-opacity:1;fill-rule:nonzero;stroke:none"
             id="path674"
             inkscape:connector-curvature="0" />
        </g>
        <g
           id="g676"
           transform="translate(218.6429,61.2514)"
           style="fill:#a0834a;fill-opacity:1">
          <path
             d="m 0,0 c -0.749,1.29 -2.04,1.744 -2.04,1.744 0.175,-0.436 0.802,-3.401 1.517,-5.546 0.715,-2.144 2.737,-3.958 2.737,-3.958 0,0 -0.61,1.779 -0.872,3.069 C 1.081,-3.4 0.749,-1.29 0,0"
             style="fill:#a0834a;fill-opacity:1;fill-rule:nonzero;stroke:none"
             id="path678"
             inkscape:connector-curvature="0" />
        </g>
        <g
           id="g680"
           transform="translate(228.3148,44.6864)"
           style="fill:#a0834a;fill-opacity:1">
          <path
             d="M 0,0 C 1.719,-3.848 5.138,-4.571 5.138,-4.571 2.606,-0.041 0,0 0,0"
             style="fill:#a0834a;fill-opacity:1;fill-rule:nonzero;stroke:none"
             id="path682"
             inkscape:connector-curvature="0" />
        </g>
        <g
           id="g684"
           transform="translate(231.6862,79.5605)"
           style="fill:#a0834a;fill-opacity:1">
          <path
             d="m 0,0 c 0,0 -3.72,-0.093 -5.905,-3.673 0,0 3.906,0.651 5.905,3.673"
             style="fill:#a0834a;fill-opacity:1;fill-rule:nonzero;stroke:none"
             id="path686"
             inkscape:connector-curvature="0" />
        </g>
        <g
           id="g688"
           transform="translate(227.4778,85.7915)"
           style="fill:#a0834a;fill-opacity:1">
          <path
             d="M 0,0 C -2.186,-2.604 -1.557,-6.464 -1.557,-6.464 1.093,-2.465 0,0 0,0"
             style="fill:#a0834a;fill-opacity:1;fill-rule:nonzero;stroke:none"
             id="path690"
             inkscape:connector-curvature="0" />
        </g>
        <g
           id="g692"
           transform="translate(221.1441,68.5955)"
           style="fill:#a0834a;fill-opacity:1">
          <path
             d="M 0,0 C 0,0 4.178,2.777 4.309,5.674 4.309,5.674 1.066,4.333 0,0"
             style="fill:#a0834a;fill-opacity:1;fill-rule:nonzero;stroke:none"
             id="path694"
             inkscape:connector-curvature="0" />
        </g>
        <g
           id="g696"
           transform="translate(224.0599,75.213)"
           style="fill:#a0834a;fill-opacity:1">
          <path
             d="m 0,0 c 1.79,2.581 0.698,5.115 0.698,5.115 0,0 -0.093,-0.79 -0.675,-1.511 C -0.558,2.883 -1.86,1.093 -2.604,-1.558 -3.348,-4.209 -2.836,-5.069 -2.836,-5.069 -2.557,-3.766 -1.79,-2.581 0,0"
             style="fill:#a0834a;fill-opacity:1;fill-rule:nonzero;stroke:none"
             id="path698"
             inkscape:connector-curvature="0" />
        </g>
        <g
           id="g700"
           transform="translate(223.5718,82.397)"
           style="fill:#a0834a;fill-opacity:1">
          <path
             d="M 0,0 C -2.372,-2.324 -2.301,-6.603 -2.301,-6.603 0.464,-3.348 0,0 0,0"
             style="fill:#a0834a;fill-opacity:1;fill-rule:nonzero;stroke:none"
             id="path702"
             inkscape:connector-curvature="0" />
        </g>
        <g
           id="g704"
           transform="translate(232.8718,87.8144)"
           style="fill:#a0834a;fill-opacity:1">
          <path
             d="M 0,0 C -3.789,-1.883 -4.65,-5.557 -4.65,-5.557 -0.511,-2.999 0,0 0,0"
             style="fill:#a0834a;fill-opacity:1;fill-rule:nonzero;stroke:none"
             id="path706"
             inkscape:connector-curvature="0" />
        </g>
        <g
           id="g708"
           transform="translate(234.7508,87.8551)"
           style="fill:#a0834a;fill-opacity:1">
          <path
             d="M 0,0 C 0.227,0.069 0.373,-0.091 0.517,-0.566 L 1.873,-5.029 C 2.019,-5.513 1.926,-5.812 1.436,-5.971 l 0.051,-0.168 2.172,0.659 -0.051,0.169 c -0.494,-0.151 -0.75,0.02 -0.913,0.553 L 0.9,1.158 0.731,1.107 -0.415,-0.126 -0.301,-0.253 C -0.233,-0.157 -0.109,-0.033 0,0"
             style="fill:#a0834a;fill-opacity:1;fill-rule:nonzero;stroke:none"
             id="path710"
             inkscape:connector-curvature="0" />
        </g>
        <g
           id="g712"
           transform="translate(231.872,82.2575)"
           style="fill:#a0834a;fill-opacity:1">
          <path
             d="M 0,0 C 1.953,1.976 1.418,3.301 1.418,3.301 0.977,2.837 -1.255,0.977 -3.301,-0.721 -5.348,-2.418 -5.556,-4.766 -5.556,-4.766 -4.255,-3.116 -1.953,-1.975 0,0"
             style="fill:#a0834a;fill-opacity:1;fill-rule:nonzero;stroke:none"
             id="path714"
             inkscape:connector-curvature="0" />
        </g>
        <g
           id="g716"
           transform="translate(243.7833,80.4938)"
           style="fill:#ff00ff">
          <path
             d="m 0,0 c 11,0 19.958,-8.958 19.958,-19.97 0,-4.595 -1.561,-8.834 -4.18,-12.213 L 8.942,-22.9 c 0.069,0.677 0.05,1.078 0.05,1.078 v 11.05 H 2.462 0.01 l 8.929,-12.12 C 8.938,-22.907 8.936,-22.924 8.934,-22.94 8.928,-22.998 8.922,-23.057 8.915,-23.118 8.914,-23.124 8.913,-23.13 8.912,-23.137 8.903,-23.208 8.894,-23.282 8.883,-23.359 8.882,-23.365 8.881,-23.371 8.88,-23.379 8.846,-23.622 8.801,-23.889 8.741,-24.176 8.74,-24.183 8.738,-24.188 8.737,-24.193 8.718,-24.286 8.697,-24.382 8.675,-24.478 8.673,-24.484 8.672,-24.492 8.67,-24.498 8.648,-24.594 8.624,-24.693 8.598,-24.793 8.596,-24.801 8.594,-24.809 8.591,-24.818 8.566,-24.917 8.54,-25.017 8.51,-25.119 8.505,-25.139 8.499,-25.16 8.494,-25.18 8.466,-25.271 8.44,-25.363 8.412,-25.458 8.404,-25.483 8.395,-25.509 8.387,-25.533 8.358,-25.624 8.33,-25.715 8.3,-25.807 8.29,-25.833 8.281,-25.86 8.271,-25.887 8.24,-25.979 8.209,-26.071 8.174,-26.165 c -0.015,-0.041 -0.032,-0.084 -0.047,-0.126 -0.031,-0.08 -0.06,-0.16 -0.092,-0.241 -0.021,-0.053 -0.044,-0.109 -0.068,-0.162 -0.028,-0.072 -0.056,-0.142 -0.086,-0.214 -0.025,-0.058 -0.052,-0.117 -0.078,-0.175 -0.03,-0.069 -0.059,-0.138 -0.091,-0.207 -0.042,-0.091 -0.087,-0.183 -0.131,-0.275 -0.019,-0.038 -0.036,-0.076 -0.055,-0.114 -0.064,-0.13 -0.132,-0.261 -0.202,-0.393 l -7.312,9.924 -0.003,0.003 -7.297,-9.927 c -0.002,10e-4 -0.002,10e-4 -0.003,0.002 -0.067,0.124 -0.13,0.248 -0.191,0.371 -0.019,0.038 -0.038,0.077 -0.057,0.116 -0.041,0.084 -0.082,0.168 -0.12,0.251 -0.022,0.046 -0.042,0.09 -0.062,0.136 -0.035,0.076 -0.069,0.152 -0.102,0.227 -0.02,0.047 -0.04,0.093 -0.059,0.139 -0.031,0.074 -0.061,0.147 -0.091,0.219 -0.018,0.047 -0.036,0.092 -0.054,0.138 -0.029,0.073 -0.057,0.147 -0.084,0.22 -0.016,0.042 -0.032,0.085 -0.046,0.126 -0.03,0.081 -0.058,0.161 -0.085,0.24 -0.011,0.033 -0.022,0.066 -0.033,0.097 -0.036,0.11 -0.072,0.219 -0.104,0.326 -0.008,0.024 -0.014,0.048 -0.021,0.071 -0.026,0.083 -0.05,0.166 -0.073,0.246 -0.011,0.042 -0.023,0.082 -0.033,0.123 -0.017,0.062 -0.034,0.125 -0.049,0.185 -0.012,0.044 -0.024,0.088 -0.034,0.133 -0.014,0.055 -0.027,0.11 -0.04,0.164 -0.01,0.045 -0.021,0.09 -0.031,0.134 -0.011,0.05 -0.022,0.102 -0.033,0.152 -0.009,0.044 -0.019,0.088 -0.027,0.131 -0.011,0.048 -0.019,0.094 -0.028,0.142 -0.009,0.043 -0.017,0.086 -0.024,0.127 -0.009,0.045 -0.016,0.089 -0.023,0.131 -0.02,0.121 -0.04,0.238 -0.056,0.349 l 0.001,-10e-4 c -0.025,0.172 -0.045,0.334 -0.061,0.481 l -6.852,-9.31 c -2.631,3.383 -4.198,7.629 -4.198,12.236 C -19.961,-8.958 -11.003,0 0,0 m 0,-39.941 c -4.807,0 -9.224,1.711 -12.674,4.555 l 5.38,7.311 c 0.379,-0.706 0.842,-1.434 1.411,-2.161 2.708,-3.454 5.895,-4.733 5.895,-4.733 0,0 3.199,1.279 5.902,4.733 0.568,0.726 1.031,1.453 1.41,2.158 l 5.368,-7.291 C 9.239,-38.224 4.815,-39.941 0,-39.941 m -20.392,19.972 c 0,-11.261 9.151,-20.421 20.404,-20.421 11.26,0 20.416,9.16 20.416,20.421 0,11.262 -9.156,20.418 -20.416,20.418 -11.253,0 -20.404,-9.156 -20.404,-20.418"
             style="fill:#ffffff;fill-opacity:1;fill-rule:nonzero;stroke:none"
             id="path718"
             inkscape:connector-curvature="0" />
        </g>
        <g
           id="g720"
           transform="translate(234.8244,69.7222)"
           style="fill:#ffffff">
          <path
             d="m 0,0 v -11.051 c 0,0 -0.019,-0.397 0.049,-1.069 L 8.967,0 H 6.529 Z"
             style="fill:#ffffff;fill-opacity:1;fill-rule:nonzero;stroke:none"
             id="path722"
             inkscape:connector-curvature="0" />
        </g>
      </g>
    </g>
  </g>
</svg>
