<?xml version="1.0" encoding="UTF-8" standalone="no"?>
<svg
   xmlns:dc="http://purl.org/dc/elements/1.1/"
   xmlns:cc="http://creativecommons.org/ns#"
   xmlns:rdf="http://www.w3.org/1999/02/22-rdf-syntax-ns#"
   xmlns:svg="http://www.w3.org/2000/svg"
   xmlns="http://www.w3.org/2000/svg"
   xmlns:sodipodi="http://sodipodi.sourceforge.net/DTD/sodipodi-0.dtd"
   xmlns:inkscape="http://www.inkscape.org/namespaces/inkscape"
   viewBox="0 0 4096 4096"
   stroke-miterlimit="1.414"
   version="1.1"
   id="svg10"
   sodipodi:docname="fc-union-berlin-logo.svg"
   width="4096"
   height="4096"
   style="clip-rule:evenodd;fill-rule:evenodd;stroke-linejoin:round;stroke-miterlimit:1.41400003"
   inkscape:version="0.92.4 (5da689c313, 2019-01-14)"
   inkscape:export-filename="G:\Users\suitedoalex\sites\fc-union-berlin-logo-0.png"
   inkscape:export-xdpi="96"
   inkscape:export-ydpi="96">
  <metadata
     id="metadata16">
    <rdf:RDF>
      <cc:Work
         rdf:about="">
        <dc:format>image/svg+xml</dc:format>
        <dc:type
           rdf:resource="http://purl.org/dc/dcmitype/StillImage" />
        <dc:title></dc:title>
      </cc:Work>
    </rdf:RDF>
  </metadata>
  <defs
     id="defs14" />
  <sodipodi:namedview
     pagecolor="#ffffff"
     bordercolor="#666666"
     borderopacity="1"
     objecttolerance="10"
     gridtolerance="10"
     guidetolerance="10"
     inkscape:pageopacity="0"
     inkscape:pageshadow="2"
     inkscape:window-width="1600"
     inkscape:window-height="837"
     id="namedview12"
     showgrid="false"
     inkscape:zoom="0.10431699"
     inkscape:cx="2603.5705"
     inkscape:cy="1975.0728"
     inkscape:window-x="-8"
     inkscape:window-y="-8"
     inkscape:window-maximized="1"
     inkscape:current-layer="svg10" />
  <path
     d="M 3428.8115,1868.0788 H 2094.6484 v 596.5243 h 1503.0182 l -168.8608,-596.5243 z"
     id="path2"
     inkscape:connector-curvature="0"
     style="fill:#ffffff;stroke-width:5.58161831"
     inkscape:export-filename="G:\Users\suitedoalex\sites\fc-union-berlin-logo-4.png"
     inkscape:export-xdpi="12.150333"
     inkscape:export-ydpi="12.150333" />
  <path
     d="M 2810.05,1679.3531 H 1111.77 l 42.5932,157.6918 h 286.7725 c 231.107,-218.431 553.3059,-133.9532 678.1332,6.8431 h 1328.4308 l 180.504,642.4276 H 2092.706 a 480.66108,480.66108 0 0 1 -29.9288,23.8279 h -0.034 c -175.7764,128.6731 -412.0184,114.1441 -573.2267,0 h 61.7662 c 153.3941,89.5571 336.7167,65.9245 448.9073,0 h 0.039 c 15.2044,-8.9696 29.1026,-18.6817 41.438,-29.0077 -9.6953,-34.9967 -18.972,-70.4009 -28.6728,-106.2126 -61.995,57.5297 -185.1367,122.7064 -359.3055,45.4734 -152.6629,-78.0421 -256.414,-306.5313 -54.8282,-491.5787 75.91,-63.5634 185.5609,-86.8946 270.7475,-61.1466 a 3590.6998,3590.6998 0 0 1 -12.7707,-51.2113 l -3.5556,-14.635 a 3591.4087,3591.4087 0 0 0 -12.7707,-51.217 c -201.1614,-25.748 -390.9421,68.7879 -472.7574,267.1084 -51.8701,128.3214 -32.0497,337.1074 152.2443,472.2607 a 417.9181,417.9181 0 0 0 31.2849,20.1776 h -61.7712 c -142.4875,-100.8822 -226.357,-279.6168 -158.0213,-506.13 h -131.9995 l 131.5753,484.7412 H 883.19714 L 656.73414,1672.923 H 517.55648 L 467.79635,1494.7187 H 2761.1327 Z m -1739.1877,773.9695 h 57.7754 c -3.7955,-13.2675 -7.5854,-27.3499 -11.3865,-41.4268 -16.8676,9.6451 -34.1595,16.8956 -53.137,18.4976 z M 773.12763,1530.1118 h -257.2568 l 29.94539,107.4127 h 139.16649 l 226.89279,815.7981 h 120.6133 c -2.5287,-8.4449 -5.057,-17.7049 -7.591,-26.5406 -85.61097,-26.5517 -101.21717,-119.4801 -48.49885,-172.578 z m 1958.90817,0 H 908.07442 l 197.79028,704.3891 c 53.9854,29.7556 76.7584,86.4704 41.3318,147.6226 6.3241,24.1406 13.0722,47.8791 19.8204,71.1991 h 115.9749 l -131.1569,-485.1375 h 194.8375 c 17.705,-36.5986 37.955,-68.386 61.5709,-95.334 h -282.977 L 1063.69,1643.5582 h 1698.7098 z m 686.9856,349.1749 H 2150.9 c 135.3766,170.1612 131.9996,412.3309 -21.0874,571.6246 h 1449.8867 z m -2363.7597,378.1379 c -40.0649,0 -72.53875,30.9724 -72.53875,68.7879 0,38.2061 32.47385,69.1841 72.53875,69.1841 39.6406,0 72.1145,-30.978 72.1145,-69.1841 0,-37.8155 -32.4739,-68.7879 -72.1145,-68.7879 z m 604.0875,91.8958 -3.5499,18.3188 c 1.2502,-6.1732 2.3945,-12.246 3.5499,-18.3188 z m 462.8724,-462.7943 c -118.9276,53.4998 -184.2938,117.8669 -219.2962,252.2277 8.8524,2.4057 17.716,5.2243 26.1499,7.6523 2.9526,-9.2599 6.3239,-18.9161 9.2767,-28.1703 82.2339,62.3466 118.5033,150.0506 135.7895,230.8947 9.7064,-1.6018 17.2974,-3.6113 26.9927,-4.8224 -24.8773,-115.4446 -75.4915,-200.33 -154.3486,-253.0204 17.7106,-47.4717 43.4362,-83.6741 76.7474,-112.6427 107.5522,81.6536 160.2538,193.8944 167.0131,331.8719 9.2656,0 18.5533,0.4075 27.8244,0.4075 -9.6953,-156.4919 -70.4177,-270.7309 -173.7446,-349.9731 28.6783,-20.9254 56.9268,-37.4192 87.2965,-49.4866 -2.5285,-1.2056 -4.6384,-1.2056 -7.178,-2.0094 5.4923,-7.6412 10.9735,-14.875 16.036,-22.5274 -2.9526,-0.8038 -5.9054,-1.6075 -8.445,-1.6075 -2.9415,0 -6.3128,0.4019 -10.1138,1.2057 z M 869.69521,1530.1118 h -58.61258 l 197.36597,702.3629 c 15.6062,-6.4355 33.3167,-10.4488 54.4041,-10.0525 z m 647.35049,606.2251 c 23.1972,39.0156 65.3719,66.3823 130.3196,80.0516 2.5229,-8.8524 5.0514,-17.2974 7.5799,-26.1499 -56.0842,-11.2636 -95.3062,-33.3836 -113.8595,-67.5767 -8.0096,4.4208 -16.0248,9.2432 -24.04,13.675 z M 1792.013,1980.66 c -10.1251,-0.4018 -18.9775,-0.8037 -26.15,-0.4018 -7.591,0 -15.182,0 -23.1915,-1.6132 -3.3713,-2.0093 -5.4868,-6.8374 -5.4868,-14.0768 0,-1.2056 -1.6857,-2.8131 -3.3713,-1.6075 -6.7481,5.2244 -6.7481,12.8657 -4.2197,17.2975 2.9583,4.8281 8.0152,8.043 13.9206,9.6505 1.6856,0.3963 3.3712,0.8038 5.0625,0.8038 2.9527,0 6.324,0 12.648,0.4019 5.4811,0 10.9678,0 16.0247,-0.4019 6.2013,-0.3963 11.5931,-0.4075 16.1644,-0.7814 l -0.8595,-6.0338 a 48.325653,48.325653 0 0 1 -0.5414,-3.2373 z m 99.5259,-57.926 c 31.2123,-62.7542 76.3342,-97.7564 128.2042,-118.6764 a 454.02002,454.02002 0 0 0 -10.9624,-24.9387 c -58.618,22.9293 -108.3838,62.7541 -142.5433,132.7477 z"
     id="path4"
     inkscape:connector-curvature="0"
     style="fill:#fcdc04;stroke-width:5.58161831"
     inkscape:export-filename="G:\Users\suitedoalex\sites\fc-union-berlin-logo-4.png"
     inkscape:export-xdpi="12.150333"
     inkscape:export-ydpi="12.150333" />
  <path
     d="m 1815.6401,1919.0724 a 121.12112,121.12112 0 0 1 9.6896,0.4409 c 5.9054,0.402 16.8677,2.8132 23.1917,0.8038 19.8259,-1.2111 25.3071,7.245 22.3543,20.5181 -0.8427,2.8131 -0.4185,6.0337 0,9.2487 5.9054,15.69 9.6953,31.3799 5.057,47.8735 -5.8997,13.675 -11.8051,27.7575 -6.7482,37.0062 6.3296,14.0824 10.1251,28.1536 5.9109,41.0304 -4.2197,18.905 -14.7633,41.0361 -9.7008,57.9373 4.6384,11.2581 13.0721,45.8585 18.9775,62.7485 3.3713,11.6656 9.7008,20.1162 16.4434,28.5612 5.4868,8.0431 9.2823,15.6843 11.8107,23.3367 -3.3768,0 -6.3239,0.4019 -9.7008,0.4019 6.324,35.7949 10.5437,86.8779 20.2389,95.3285 -0.8372,2.4112 -1.2614,5.2411 -2.1097,7.6524 0,2.4112 -4.6329,3.6113 -6.3241,6.4244 -12.2237,27.3611 -29.9398,43.0399 -64.5179,52.2998 v -1.2001 c -3.762,-9.5669 -10.0079,-22.7005 -15.8685,-33.9027 11.7437,-7.2115 22.6502,-14.8081 29.7835,-22.4214 -50.6086,-44.2455 -52.2943,-58.3335 -61.1522,-105.3921 0,-2.0095 -0.843,-2.8188 -2.1099,-2.8188 -0.7368,0 -1.4735,0.078 -2.2103,0.1675 l -0.6307,0.073 a 18.58679,18.58679 0 0 1 -2.2159,0.1674 c 4.2197,15.2881 8.0152,30.5649 12.2293,45.4512 -31.631,22.9292 -50.19,41.4267 -56.9325,91.3152 -2.5285,9.2599 -8.858,11.2637 -16.0248,9.6563 -11.3865,-4.0245 -21.9303,-6.0338 -30.7882,-5.6263 -16.4435,-2.0206 -32.4684,-8.8525 -48.4931,-18.5143 2.5228,-12.4749 4.6382,-24.5312 7.1668,-37.0061 4.6382,1.6019 9.6952,3.6225 13.0721,3.2206 4.6383,0.8093 6.3239,1.6019 8.4338,3.6225 1.6856,1.2 2.9527,2.8186 8.0152,2.4112 2.5285,0 12.6536,5.6318 16.0249,2.8132 -9.2767,-68.3861 10.1194,-94.1229 59.4609,-127.5233 1.6913,-0.8038 2.5285,-0.4018 4.6384,0.8093 2.1098,2.0038 3.7955,4.0244 5.9053,6.0393 4.2141,1.6131 4.6439,-1.2168 2.1099,-3.628 -17.2919,-9.645 -24.4587,-27.3499 -27.8356,-47.868 -0.4242,-0.8038 0.4242,-2.4113 -3.3713,-0.8038 -72.9573,24.5425 -86.4536,14.8863 -134.5282,-25.346 l 12.3187,-20.0492 c 3.1089,-4.9118 6.2626,-9.8125 9.4943,-14.7689 16.2426,9.1873 24.6094,18.7876 30.0571,28.3824 1.6856,2.4113 2.9582,2.015 4.6382,0.8094 22.3545,-12.8712 45.1218,-24.5368 67.9005,-35.8005 -0.4299,-1.6131 -0.8484,-3.2151 -0.8484,-4.4319 -5.057,2.8188 -10.1196,5.6375 -15.182,8.0432 -57.2842,-33.3446 -89.758,-29.3704 -108.3225,-105.5429 0.4465,0.1173 1.0381,0.056 1.6242,-0.2511 10.1027,-5.3918 19.4799,-10.0804 29.884,-15.4053 l 1.3228,-0.6865 c 7.1669,8.8468 11.8107,22.1312 15.1877,37.0117 -0.8485,1.2056 0.8427,3.215 1.6856,3.6169 26.1443,6.8431 51.8699,13.6805 77.5957,19.7087 -7.1668,11.6767 -12.2294,21.7292 -14.3393,28.1648 -1.68,8.4506 -3.3713,15.6843 -3.3713,18.4976 h 4.6384 c 7.591,-41.4268 17.7104,-56.3131 59.4609,-74.8161 0,-2.8132 -0.4185,-6.0338 -0.4185,-8.8524 a 43.642675,43.642675 0 0 1 -17.7161,0 c -2.9471,-0.8038 -5.8998,-1.6075 -10.5381,-1.6075 -10.125,-3.2151 -6.7482,-12.4694 -1.6913,-11.6657 8.4339,-1.2112 14.3393,0 18.9775,1.6076 2.1099,1.2112 8.8581,1.613 17.2919,1.613 l -1.1275,-8.0263 c 0.01,-1.8866 -0.4576,-3.935 -0.8651,-6.0338 l -0.5358,-3.6391 c -1.6857,-2.015 -4.2142,-4.03 -5.4812,-6.0338 -12.6535,-2.4168 -24.04,-5.2299 -36.2693,-8.0431 a 8.5119683,8.5119683 0 0 1 -4.6439,-2.4169 c -5.057,-4.8281 -8.4339,-10.058 -10.9623,-15.2824 -2.1043,-5.6375 0.8427,-8.8581 7.591,-10.0636 8.858,-1.2057 18.1346,-2.4113 27.4169,-3.2206 2.5284,-0.3964 4.2141,-1.2057 5.4811,-2.4113 10.7223,-10.2256 24.8494,-13.6862 40.0593,-13.7141 z m 306.5815,-32.5463 c 3.8011,-0.8038 7.1724,-1.2057 10.1139,-1.2057 2.5396,0 5.4923,0.8037 8.445,1.6075 -5.0625,7.6524 -10.5437,14.8862 -16.036,22.5274 2.5396,0.8038 4.6495,0.8038 7.178,2.0094 -30.3698,12.0674 -58.6182,28.5612 -87.2965,49.4866 103.3269,79.2422 164.0493,193.4812 173.7446,349.9731 -9.2711,0 -18.5588,-0.4075 -27.8244,-0.4075 -6.7593,-137.9775 -59.4609,-250.2183 -167.0131,-331.8719 -33.3112,28.9686 -59.0368,65.171 -76.7474,112.6427 78.8571,52.6904 129.4713,137.5758 154.3486,253.0204 -9.6953,1.2111 -17.2864,3.2206 -26.9927,4.8224 -17.2863,-80.8441 -53.5557,-168.5481 -135.7896,-230.8947 -2.9528,9.2542 -6.3241,18.9104 -9.2767,28.1703 -8.4339,-2.428 -17.2975,-5.2466 -26.1499,-7.6523 35.0024,-134.3608 100.3686,-198.7279 219.2962,-252.2277 z m -605.1758,249.8108 c 8.0152,-4.4318 16.0304,-9.2542 24.04,-13.675 18.5533,34.1931 57.7753,56.3131 113.8595,67.5767 -2.5285,8.8525 -5.057,17.2975 -7.5799,26.1499 -64.9477,-13.6693 -107.1224,-41.036 -130.3196,-80.0516 z m 287.1966,-185.8511 c -2.9527,-5.6318 -5.9054,-10.8619 -9.7009,-15.288 -1.6856,-2.0095 -6.3239,-2.0095 -7.591,0 -2.1099,2.4168 -2.9526,7.2393 -3.7899,12.073 a 2.4280041,2.4280041 0 0 0 0,2.4168 c 0.8373,0.3963 1.2615,1.2056 2.1043,1.6075 0.8428,0.8038 1.6856,0.3963 2.534,0 1.6857,-1.6075 2.1099,-4.0243 1.6857,-6.8375 l 2.5285,-1.2056 c 0.8428,0.8038 1.267,2.8131 1.6856,4.8226 v 2.0093 c -0.4186,1.2112 0.8428,2.015 2.5285,2.015 2.534,-0.4075 5.0625,-1.2057 8.0152,-1.6131 z m 39.6463,-13.2731 c 3.3712,-1.2056 6.7425,-2.8187 10.1138,-4.4262 0.4242,-0.4019 2.5341,-0.7982 9.2822,-0.7982 v -2.015 c 0,-2.0149 -0.8372,-2.4112 -2.1098,-2.8187 -1.267,0 -2.9527,-0.4019 -4.6383,-0.4019 -3.7955,0 -7.1668,0.4019 -8.4339,2.015 -2.1098,2.4113 -4.214,4.4206 -5.9053,6.4301 0.4242,0.8093 1.267,1.613 1.6913,2.0149 z m 47.6502,-14.4787 -25.3014,-10.8674 c 34.1595,-69.9936 83.9252,-109.8184 142.5433,-132.7477 a 454.02002,454.02002 0 0 1 10.9623,24.9387 c -51.87,20.92 -96.9918,55.9222 -128.2042,118.6764 z"
     id="path6"
     inkscape:connector-curvature="0"
     style="stroke-width:5.58161831"
     inkscape:export-filename="G:\Users\suitedoalex\sites\fc-union-berlin-logo-4.png"
     inkscape:export-xdpi="12.150333"
     inkscape:export-ydpi="12.150333" />
  <path
     d="m 1777.3557,1746.405 c 20.8474,0.062 41.9403,1.4401 63.156,4.1528 a 3591.4087,3591.4087 0 0 1 12.7708,51.2169 l 3.5554,14.635 a 3590.6998,3590.6998 0 0 0 12.7707,51.2113 c -85.1865,-25.748 -194.8376,-2.4168 -270.7475,61.1467 -201.5858,185.0474 -97.8346,413.5366 54.8282,491.5787 174.1688,77.2329 297.3106,12.0563 359.3056,-45.4734 9.7008,35.8117 18.9775,71.2159 28.6727,106.2126 -109.6397,91.7227 -342.4322,135.9683 -521.6692,8.8413 -184.2938,-135.1533 -204.1143,-343.9393 -152.2442,-472.2607 72.868,-176.6304 231.3748,-270.9374 407.2851,-271.2612 z m -744.8669,706.9176 H 911.8755 L 684.98271,1637.5245 H 545.81622 l -29.94539,-107.4127 h 257.2568 l 203.27132,724.0922 c -52.71832,53.0979 -37.11212,146.0263 48.49885,172.578 2.534,8.8357 5.0624,18.0901 7.591,26.5406 z m 1729.911,-809.7644 H 1063.69 l 61.5763,229.2929 h 282.977 c -23.6159,26.9536 -43.8659,58.7297 -61.5709,95.334 h -194.8375 l 131.1569,485.1375 h -115.9749 c -6.7482,-23.32 -13.4963,-47.053 -19.8204,-71.1991 35.4266,-61.1522 12.6535,-117.867 -41.3318,-147.6226 L 908.07442,1530.1118 H 2732.0358 Z m -928.212,731.7223 c 5.4365,11.9949 10.471,23.5823 15.9132,35.1642 -4.1081,2.2493 -7.9036,3.8624 -11.2749,5.4699 2.1098,-3.6169 4.2141,-7.2337 5.8998,-10.8618 -4.2142,2.8187 -8.4339,6.0337 -12.648,9.2543 2.9471,-4.4318 5.4812,-8.8468 8.0096,-13.2786 -5.0625,0.8037 -10.5436,2.0205 -15.6006,3.2149 4.2141,-4.0131 8.4283,-7.6356 12.648,-11.6655 -4.6384,1.613 -8.8525,3.6225 -13.0722,5.2411 2.5341,-4.0243 5.4812,-7.6524 8.0152,-11.2637 -4.2197,0 -8.858,0.3907 -12.6535,0.7927 a 466.41679,466.41679 0 0 1 14.7634,-12.0675 z M 3023.96,1913.5857 c 15.8685,0 31.1119,0.1228 45.8697,0.2958 a 138.9823,138.9823 0 0 1 18.5589,1.2057 c 22.3488,2.4112 39.222,12.0674 46.3888,35.806 l 105.0182,382.553 c 1.2615,6.8486 2.5341,13.2731 2.9527,19.3068 v 14.0824 c -2.5341,28.9631 -21.5171,41.0361 -52.3054,40.2268 -33.7241,0.4019 -67.4762,0.4019 -102.0543,0.4019 -2.9527,-0.4019 -6.324,-0.4019 -9.2766,-0.4019 -26.9872,2.4224 -53.9799,-17.6882 -67.9005,-62.3467 -37.1009,-121.4839 -78.4384,-254.2372 -102.897,-376.5304 v -11.6656 c 1.2614,-27.35 18.5588,-41.8343 51.0383,-42.638 20.2333,-0.2009 39.4229,-0.3013 57.7641,-0.3013 z m -587.5547,493.4765 c -53.5612,0.4019 -73.3703,-30.5706 -83.4954,-70.3898 l -114.7134,-422.7909 h 101.2114 c 39.6463,145.2226 79.7112,290.0321 119.3462,434.8584 1.6913,6.8319 5.8998,10.0525 12.6591,10.4543 h 33.3111 c 7.591,-0.4018 10.968,-4.8225 7.591,-14.8861 l -118.5089,-430.4266 h 60.728 c 39.6408,147.2319 79.7167,294.4639 119.3574,441.2828 11.3809,41.0361 -6.324,51.8979 -35.008,51.8979 z m 254.3042,0 h -61.9951 l -135.7951,-493.1807 h 102.8915 l 154.3596,270.7309 -75.0728,-270.7309 h 56.514 l 134.9524,493.1807 h -101.6358 l -153.5057,-288.4246 z m 664.2126,0 h -61.5764 l -136.2138,-493.1807 h 103.3269 l 154.3484,270.7309 -75.0616,-270.7309 h 56.5028 l 134.5337,493.1807 H 3429.565 l -153.9242,-288.4246 z m -370.6976,0 h -78.0143 l -136.6494,-493.1807 h 78.02 z M 1055.2617,2257.4246 c 39.6406,0 72.1145,30.9724 72.1145,68.7879 0,38.2061 -32.4739,69.1841 -72.1145,69.1841 -40.0649,0 -72.53875,-30.978 -72.53875,-69.1841 0,-37.8155 32.47385,-68.7879 72.53875,-68.7879 z m 600.5376,110.2146 -10.968,0.8094 9.7009,-7.6413 -15.6062,-4.0244 16.0193,-6.0392 -12.6424,-7.245 14.3336,-2.0038 -12.2237,-10.0525 16.449,1.2 -10.1251,-5.2243 12.2294,3.215 z m 1432.5893,-311.3539 a 10224.063,10224.063 0 0 0 -25.7257,-92.9227 c -0.4242,-3.6225 -3.7955,-4.0243 -7.1723,-4.0243 -12.2239,0 -25.2848,0.4018 -37.9496,0.4018 -8.0151,0 -9.7008,3.6225 -8.858,10.8619 20.2502,97.7453 51.4514,201.9374 79.7055,303.7125 4.2198,14.49 8.0208,29.3593 11.8051,43.8436 5.911,19.7255 15.1877,39.0323 30.7994,39.8361 h 26.5573 c 8.4339,-0.8038 11.8164,-4.4318 10.5438,-11.6656 -26.9872,-97.349 -53.1371,-193.0961 -79.7055,-290.0433 z m -1473.4971,88.0948 c -1.6912,-1.2057 -2.9582,-2.4113 -4.6439,-3.6225 -0.8428,-0.7982 -6.3239,-3.6114 -9.2766,-5.6319 -0.8428,-1.1944 -0.4242,-2.4113 1.2671,-2.8131 2.9526,-0.4075 5.9053,-0.4075 8.8579,-0.7926 -3.3768,-1.6187 -6.7481,-3.628 -10.125,-5.2467 0,-0.7926 0,-2.0094 0.4242,-2.8131 3.7955,0 7.591,-0.3908 11.3865,-0.3908 -2.9583,-2.4224 -7.1668,-4.4318 -9.2767,-6.8431 -1.6912,-2.8186 1.2615,-4.0299 2.5286,-3.2206 4.214,0.402 8.4337,1.2113 12.2292,0.8094 l -8.0152,-7.6523 c 0.4187,-0.7983 1.2671,-1.602 1.6857,-2.0039 3.8011,1.2056 8.0152,2.8076 11.8107,4.415 -1.6857,-2.4111 -3.3769,-5.2244 -5.057,-7.6412 0.4187,-0.7925 0.8373,-0.7925 1.6801,-1.6018 8.0153,4.4206 13.4964,7.6356 16.449,10.0468 l -0.3404,0.5359 c -3.2206,4.9452 -6.257,9.6673 -9.2599,14.4062 l 9.2599,-14.4062 0.2288,-0.3517 -9.4887,14.7579 -0.3908,0.6139 a 861.1042,861.1042 0 0 0 -11.5539,18.8045 z m 32.4739,-162.5145 c 0.413,1.2057 0.413,2.0094 0.413,2.8132 -10.9623,5.6262 -21.9246,10.8618 -32.8869,16.0918 -3.7955,-2.0094 -8.0207,-4.4262 -10.9678,-6.4356 -2.1099,-2.015 0,-4.4263 2.5341,-3.2206 a 257.2568,257.2568 0 0 0 9.2766,2.4112 h 1.6857 c -2.1044,-3.6169 -7.1725,-7.6412 -11.3865,-11.2525 l 1.2614,-2.4168 c 3.3713,1.6075 7.1723,3.215 10.9678,4.8225 l -6.3295,-9.6506 c 0.4242,-0.4075 1.267,-0.8038 2.1098,-1.6131 4.6439,4.8281 9.2766,9.6562 14.3393,12.8712 -1.2615,-6.43 -3.377,-12.4637 -5.8999,-18.5031 l 2.5229,-1.2057 c 3.377,6.0338 7.1725,11.6657 11.8107,16.8956 a 78.633842,78.633842 0 0 0 -8.8524,-14.4786 c -1.6857,-3.6225 2.9527,-4.0244 4.2142,-3.2206 5.9053,4.0243 10.125,9.6562 15.1875,16.0917 z m 144.6477,-1.2056 c 0.1395,1.0828 0.3293,2.1657 0.5414,3.2373 l 0.8595,6.0338 c -4.5713,0.3739 -9.9631,0.3851 -16.1644,0.7814 -5.0569,0.4019 -10.5436,0.4019 -16.0247,0.4019 -6.324,-0.4019 -9.6953,-0.4019 -12.648,-0.4019 -1.6913,0 -3.3769,-0.4075 -5.0625,-0.8038 -5.9054,-1.6075 -10.9623,-4.8224 -13.9206,-9.6505 -2.5284,-4.4318 -2.5284,-12.0731 4.2197,-17.3031 1.6856,-1.2 3.3713,0.4075 3.3713,1.6131 0,7.2394 2.1155,12.0675 5.4868,14.0768 8.0095,1.6132 15.6005,1.6132 23.1915,1.6132 7.1725,-0.4019 16.0249,0 26.15,0.4018 z"
     id="path8"
     inkscape:connector-curvature="0"
     style="fill:#ec1c24;stroke-width:5.58161831"
     inkscape:export-filename="G:\Users\suitedoalex\sites\fc-union-berlin-logo-4.png"
     inkscape:export-xdpi="12.150333"
     inkscape:export-ydpi="12.150333" />
</svg>
