<?xml version="1.0" encoding="UTF-8" standalone="no"?>
<!-- Generator: Adobe Illustrator 22.1.0, SVG Export Plug-In . SVG Version: 6.00 Build 0)  -->

<svg
   xmlns:dc="http://purl.org/dc/elements/1.1/"
   xmlns:cc="http://creativecommons.org/ns#"
   xmlns:rdf="http://www.w3.org/1999/02/22-rdf-syntax-ns#"
   xmlns:svg="http://www.w3.org/2000/svg"
   xmlns="http://www.w3.org/2000/svg"
   xmlns:sodipodi="http://sodipodi.sourceforge.net/DTD/sodipodi-0.dtd"
   xmlns:inkscape="http://www.inkscape.org/namespaces/inkscape"
   version="1.1"
   id="Livello_1"
   x="0px"
   y="0px"
   width="700"
   height="700"
   viewBox="0 0 700.00001 700.00003"
   xml:space="preserve"
   sodipodi:docname="bologna-fc-logo.svg"
   inkscape:version="0.92.4 (5da689c313, 2019-01-14)"
   inkscape:export-filename="G:\Users\suitedoalex\sites\svg\bologna-fc-logo-0.png"
   inkscape:export-xdpi="561.73712"
   inkscape:export-ydpi="561.73712"><metadata
   id="metadata45"><rdf:RDF><cc:Work
       rdf:about=""><dc:format>image/svg+xml</dc:format><dc:type
         rdf:resource="http://purl.org/dc/dcmitype/StillImage" /><dc:title></dc:title></cc:Work></rdf:RDF></metadata><defs
   id="defs43" /><sodipodi:namedview
   pagecolor="#ffffff"
   bordercolor="#666666"
   borderopacity="1"
   objecttolerance="10"
   gridtolerance="10"
   guidetolerance="10"
   inkscape:pageopacity="0"
   inkscape:pageshadow="2"
   inkscape:window-width="1600"
   inkscape:window-height="837"
   id="namedview41"
   showgrid="false"
   inkscape:zoom="0.38012404"
   inkscape:cx="619.51165"
   inkscape:cy="691.58244"
   inkscape:window-x="-8"
   inkscape:window-y="-8"
   inkscape:window-maximized="1"
   inkscape:current-layer="Livello_1" />
<style
   type="text/css"
   id="style2">
	.st0{fill:#1A2F48;stroke:#ECECEC;stroke-width:2;stroke-miterlimit:10;}
	.st1{fill:#FEFEFD;}
	.st2{fill:#A21C26;}
	.st3{fill:#ECECEC;}
</style>











<path
   class="st0"
   d="m 349.93021,98.908888 c -4.45595,0 -8.91183,0.283546 -13.32717,0.850666 -15.71741,1.903906 -30.86745,7.332016 -44.51878,15.231146 -22.40106,13.00319 -40.6299,32.20416 -55.09131,53.47105 -18.0668,26.69501 -30.58391,56.87375 -38.68553,88.02468 -6.11678,23.77842 -9.72198,48.24547 -10.93723,72.79355 -0.32408,4.53693 -0.28354,9.07386 -0.56721,13.61079 v 13.28676 c 0.36456,10.49167 0.72912,21.02383 1.78246,31.475 1.78233,18.47181 4.90133,36.86261 9.47885,54.84833 7.04855,27.42416 17.45918,54.07867 32.12324,78.38369 9.55986,15.83876 20.9022,30.66484 34.35094,43.38446 10.49171,9.92455 22.32024,18.55283 35.32333,24.91265 14.38052,7.12946 30.30037,11.22081 46.34165,11.90945 h 7.3321 c 16.24373,-0.64813 32.28514,-4.77999 46.82757,-12.03099 12.07152,-5.9142 23.13024,-13.81334 33.05488,-22.88721 21.59084,-19.8491 37.9158,-44.88328 50.18977,-71.41626 16.04141,-35.08025 24.99373,-73.19861 28.23436,-111.60055 2.26846,-28.19382 1.74192,-56.67121 -1.98498,-84.703 -4.41534,-32.81178 -13.12466,-65.21846 -27.18102,-95.23516 -6.84591,-14.58302 -14.94753,-28.59891 -24.50761,-41.6021 -8.46611,-11.50438 -18.02619,-22.23909 -28.92294,-31.475 -10.61321,-9.07388 -22.48214,-16.72996 -35.32333,-22.15809 -13.85378,-5.91421 -28.92294,-9.073862 -43.99204,-9.073862 z"
   id="path4"
   inkscape:connector-curvature="0"
   style="fill:#1a2f48;fill-opacity:1;stroke:#ececec;stroke-width:0.81016737;stroke-miterlimit:10"
   inkscape:export-xdpi="117.35789"
   inkscape:export-ydpi="117.35789" /><g
   id="g12"
   transform="matrix(0.40508367,0,0,0.40508367,186.39787,98.503803)"
   inkscape:export-xdpi="117.35789"
   inkscape:export-ydpi="117.35789">
	<path
   class="st1"
   d="m 430.1,92.4 c 2.2,-0.8 4.6,-0.3 6.7,0.3 11.4,3.7 23,6.6 34,11.3 7.2,3.1 14.4,7 19.9,12.7 0.1,-13.4 0.1,-26.8 0,-40.2 C 472.5,69.3 454,62.4 434.8,58.3 427.6,56.6 420.2,56.8 412.9,57 c -10.6,0.2 -21.2,1.5 -31.8,2.5 3.6,6.5 7.5,13.4 7.6,21.1 0,62.3 0,124.7 0,187 0.7,8.8 -4.6,16.4 -8.8,23.6 18.5,0.1 37,0 55.5,0 -4.4,-7.1 -7.5,-15.2 -7.7,-23.7 0,-24.6 0.1,-49.2 0,-73.8 7.8,-0.7 15.6,-0.3 23.3,-0.3 6,0 11.3,3.3 14.8,8 0,-15.8 0,-31.6 0,-47.4 -5.9,2.9 -12,5.9 -18.7,5.7 -6.5,0 -13,-0.1 -19.6,0 -0.3,-19.7 0,-39.5 -0.2,-59.2 0,-2.7 -0.2,-6.5 2.8,-8.1 z"
   id="path6"
   inkscape:connector-curvature="0"
   style="fill:#fefefd" />
	<path
   class="st1"
   d="m 336,174.9 c 12.6,-17.1 20.1,-39 16,-60.2 -2,-10.2 -8.4,-19.3 -17,-24.9 -10.8,-7.1 -24.4,-9.4 -37,-7.1 -9.2,1.7 -17.1,7 -24.7,12.2 -18.6,13.3 -35.5,28.8 -52.3,44.2 6.1,0.7 9.5,6.8 9.7,12.5 0.5,17.3 -0.2,34.7 0.3,52 -0.2,13 -0.3,26 0,38.9 -0.6,9 0.4,17.9 -0.3,26.8 -0.3,8.5 -4,16.5 -9.9,22.6 30.7,0.2 61.4,0.3 92.1,0.4 7.4,0 14.4,-2.8 21.1,-5.7 17,-7.8 32,-21.8 37.3,-40.1 4,-14.3 3.3,-30.1 -2.4,-43.8 C 363.2,189 350.5,178.6 336,174.9 Z m -69.5,-31.8 c 7.2,-7.5 15.1,-14.7 24.6,-19.1 v 0 c 4.2,-2 9.2,-2.9 13.8,-1.5 5.4,2.2 8.5,7.9 9.6,13.3 1.4,5.8 -0.3,12 -3.4,17 -4.9,8 -12.3,13.9 -20,19.1 -7.8,5 -16,9.4 -24.6,12.6 0,-13.8 0,-27.6 0,-41.4 z m 59.7,106 c -10.8,6.6 -23.8,7.8 -36.2,8.9 -7.5,0.2 -15,0.4 -22.5,-0.3 0,-11 0,-22 0,-33 9.7,-8.8 21.8,-15.3 34.6,-18 8.5,-1.6 18.3,-1.2 25,4.9 5.7,5.1 8.3,12.7 8.9,20.1 0.6,7.1 -3.8,13.8 -9.8,17.4 z"
   id="path8"
   inkscape:connector-curvature="0"
   style="fill:#fefefd" />
	<path
   class="st1"
   d="m 575.8,243 c -9,6.6 -20.5,12 -31.9,9.4 -8.4,-1.5 -15.8,-7.2 -19.7,-14.8 -5.7,-10.8 -6.2,-23.4 -5.7,-35.3 0.7,-11.3 3,-23 9.8,-32.3 6.5,-9.2 19,-14.4 29.9,-10.6 5.2,1.6 9.5,5.2 13.2,9 L 572,168 c 4.7,-8.2 8.9,-16.6 13.6,-24.8 0.5,-1.1 1.6,-2.6 0.5,-3.7 -6.9,-9.2 -17.7,-15.3 -29.1,-17.2 -10.5,-2 -21.5,-0.1 -31.2,4.3 v 0 c -16.6,7.3 -29.6,21.5 -36.8,38 -8.4,19.1 -10,40.6 -7.5,61.2 2,16.1 7.7,32.3 19,44.3 11.8,12.6 29.3,19.4 46.5,19.1 14.5,0 29.8,-4.6 39.9,-15.5 -3.5,-10.3 -7.6,-20.4 -11.1,-30.7 z"
   id="path10"
   inkscape:connector-curvature="0"
   style="fill:#fefefd" />
</g><path
   class="st1"
   d="m 472.91367,209.78029 c 2.02525,5.06354 4.3748,10.00557 6.27869,15.15013 12.84119,33.01431 19.7277,68.21608 21.71248,103.53938 0.68864,10.85624 0.60776,21.7935 0.44565,32.64975 -14.98808,0 -30.01669,0 -45.04531,0 V 247.45306 c 0.0817,-4.94201 -0.12088,-9.88404 0.0817,-14.82605 0.8913,-1.33679 2.14688,-2.39001 3.15975,-3.60525 4.7799,-5.42813 9.15476,-11.26132 13.04364,-17.3781 0.44565,-0.56712 0.6481,-1.21524 0.32401,-1.86337 z"
   id="path14"
   inkscape:connector-curvature="0"
   style="fill:#fefefd;fill-opacity:1;stroke-width:0.40508369"
   inkscape:export-xdpi="117.35789"
   inkscape:export-ydpi="117.35789" /><path
   class="st2"
   d="m 222.12624,221.64923 c 1.21531,-2.91659 2.34954,-5.8332 3.72676,-8.66878 1.49879,2.34948 3.15976,4.57744 4.73956,6.84591 0.85055,1.33677 0.32409,3.03813 0.44565,4.57745 -0.0407,91.18433 0.0407,182.36867 -0.0407,273.59351 -2.75458,-5.06354 -4.98255,-10.37014 -7.29155,-15.67674 -14.42107,-34.35109 -22.15806,-71.33523 -24.50761,-108.4814 -0.16176,-5.38762 -0.6481,-10.77524 -0.60755,-16.16284 0,-8.79031 -0.16177,-17.58063 0.32401,-26.37095 1.90397,-37.47024 9.23586,-74.81896 23.21127,-109.65616 z"
   id="path16"
   inkscape:connector-curvature="0"
   style="fill:#a21c26;fill-opacity:1;stroke-width:0.40508369"
   inkscape:export-xdpi="117.35789"
   inkscape:export-ydpi="117.35789" /><g
   id="g26"
   transform="matrix(0.40508367,0,0,0.40508367,186.39787,98.503803)"
   inkscape:export-xdpi="117.35789"
   inkscape:export-ydpi="117.35789">
	<path
   class="st1"
   d="m 443.5,318.1 c -5.5,-5.4 -13.5,-8.2 -21.1,-6.8 v 0 c -6.7,1.3 -12.6,5.7 -16.6,11.1 -6.3,8.4 -9.2,18.8 -9.5,29.2 -0.3,10.9 2.2,22.2 8.5,31.4 4.3,6.1 10.6,11.5 18.2,12.7 8.4,1.6 16.9,-2.4 22.5,-8.6 8.6,-9.6 12,-22.8 11.7,-35.4 -0.6,-12.2 -4.5,-25 -13.7,-33.6 z m -9.3,54.8 c -2.2,3 -6,5.3 -9.8,4.3 -4.5,-1.3 -7.2,-5.5 -9,-9.5 -4,-9.6 -3.8,-20.7 0.4,-30.2 1.8,-3.9 4.9,-7.8 9.3,-8.8 3.4,-0.7 6.7,1.5 8.8,4 4.6,5.6 5.9,13 6.3,20 -0.2,7 -1.6,14.4 -6,20.2 z"
   id="path18"
   inkscape:connector-curvature="0"
   style="fill:#fefefd" />
	<path
   class="st1"
   d="m 523.1,335.7 c -1.8,-10.2 -9.2,-19.1 -19,-22.5 -6.9,-2.9 -14.7,-1.6 -21.5,0.9 v 0 c -7.1,2.7 -12.4,9 -13.9,16.4 -1.2,7.5 -0.9,16.1 4.2,22.1 6.1,7.5 16.4,9.6 25.6,9.7 -1.4,3.3 -3.6,6.5 -6.9,8.1 -5.9,3.1 -12.8,2.2 -19.1,1.4 0,3.7 0,7.5 0,11.2 8.9,3.4 19.2,3.1 27.9,-0.8 9.8,-4.2 17.5,-12.7 20.9,-22.7 3,-7.5 3,-15.9 1.8,-23.8 z m -17.5,4.1 c -0.6,6.8 -9.2,11.6 -14.8,7.1 -7,-4.8 -5.5,-17 2.6,-19.7 7.3,-2.3 13.9,5.7 12.2,12.6 z"
   id="path20"
   inkscape:connector-curvature="0"
   style="fill:#fefefd" />
	<path
   class="st1"
   d="m 371.3,319.3 c -8.8,-8.6 -23.3,-9.4 -33.5,-3 -8.7,5.1 -14.2,15.3 -13.5,25.4 -0.1,9.8 4.6,20.8 14.4,24.2 7.5,2.3 15.4,-0.2 22.8,-1.8 0.2,5.3 -2.1,11.3 -7.6,13 -8.8,2.8 -17.6,-1.9 -25.6,-5.3 0.1,4.4 -0.4,8.9 0.2,13.2 6.7,5 15,7.8 23.4,7.5 10,0.1 19.4,-6 24.7,-14.3 4.8,-7.6 6.4,-16.7 6.1,-25.5 0.1,-11.9 -2.6,-24.8 -11.4,-33.4 z m -12.2,29.6 c -3.2,3.4 -9,4.5 -12.7,1.4 -7.1,-5.8 -6.2,-19.8 3,-23 4.3,-1.3 9.4,0.3 11.5,4.4 2.8,5.3 3.2,13 -1.8,17.2 z"
   id="path22"
   inkscape:connector-curvature="0"
   style="fill:#fefefd" />
	<path
   class="st1"
   d="m 278.6,323.1 c 0,3.5 0,6.9 0,10.4 4.4,0.1 8.9,0.1 13,-1.6 0,15 0,30 0,45 6.6,2.6 13.2,5.4 19.9,7.8 0,-23.5 0,-46.9 0,-70.4 -5.6,-0.2 -11.2,-0.7 -16.8,-1.1 -2.7,6.5 -9.5,9.5 -16.1,9.9 z"
   id="path24"
   inkscape:connector-curvature="0"
   style="fill:#fefefd" />
</g><path
   class="st2"
   d="m 409.92305,265.19573 c 13.1652,-5.7927 25.43931,-13.57031 36.29559,-23.00876 0.0817,43.01991 0,86.03979 0.0407,129.05968 18.22871,0 36.45756,0 54.68627,0 -0.68865,12.80064 -2.18743,25.56076 -4.05085,38.2804 -16.89196,0 -33.74338,0 -50.63542,0 v 85.39164 c 0.0407,13.28673 -0.0817,26.57349 0.0407,39.90074 -10.6943,13.65132 -23.08983,26.20891 -37.59178,35.84991 0.0407,-53.71411 0,-107.4282 0.0407,-161.14229 -17.78327,0 -35.56633,0 -53.30898,0 0,-12.76015 0,-25.52027 0,-38.2804 17.78306,0 35.52571,0 53.30898,0 0,-34.95873 0,-69.87693 0,-104.83567 -0.16177,-0.68864 0.68858,-0.9317 1.17477,-1.21525 z"
   id="path28"
   inkscape:connector-curvature="0"
   style="fill:#a21c26;fill-opacity:1;stroke-width:0.40508369"
   inkscape:export-xdpi="117.35789"
   inkscape:export-ydpi="117.35789" /><path
   class="st2"
   d="m 271.9922,257.09406 c 13.20554,7.81812 27.58606,13.61082 42.49311,17.05403 0.0407,102.85074 0,205.70148 0.0407,308.55224 -15.96019,-5.99525 -30.21915,-15.87929 -42.57414,-27.5457 0.0407,-99.36702 0,-198.69355 0.0407,-298.06057 z"
   id="path30"
   inkscape:connector-curvature="0"
   style="fill:#a21c26;fill-opacity:1;stroke-width:0.40508369"
   inkscape:export-xdpi="117.35789"
   inkscape:export-ydpi="117.35789" /><path
   class="st1"
   d="m 383.71414,274.06706 c 5.06365,-1.17474 10.04607,-2.75455 15.02862,-4.29389 0,29.97621 0,59.91189 0,89.88807 -0.12094,0.4456 0.28347,1.53932 -0.48619,1.45831 -14.29929,0.0405 -28.55838,0 -42.85768,0.0405 0,-27.74822 0,-55.45595 0,-83.20418 9.5194,-0.44559 19.03893,-1.70135 28.31525,-3.8888 z"
   id="path32"
   inkscape:connector-curvature="0"
   style="fill:#fefefd;fill-opacity:1;stroke-width:0.40508369"
   inkscape:export-xdpi="117.35789"
   inkscape:export-ydpi="117.35789" /><path
   class="st1"
   d="m 355.39889,419.69464 c 14.42086,0 28.88247,-0.0405 43.30333,0.0406 0.0407,52.33681 0,104.67362 0.0407,156.96991 -13.36772,7.12947 -28.19382,11.74745 -43.34387,12.51709 0,-56.50917 0,-113.01834 0,-169.52751 z"
   id="path34"
   inkscape:connector-curvature="0"
   style="fill:#fefefd;fill-opacity:1;stroke-width:0.40508369"
   inkscape:export-xdpi="117.35789"
   inkscape:export-ydpi="117.35789" /><path
   class="st1"
   d="m 456.34572,419.69464 c 12.88167,0 25.80374,-0.0405 38.68547,0 -6.68386,34.14856 -18.26919,67.64899 -36.57913,97.34161 -0.85055,1.37729 -1.78232,2.75457 -2.51144,4.21287 0.6481,-1.25575 0.32401,-2.71406 0.4051,-4.09134 0,-32.4472 0,-64.97543 0,-97.46314 z"
   id="path36"
   inkscape:connector-curvature="0"
   style="fill:#fefefd;fill-opacity:1;stroke-width:0.40508369"
   inkscape:export-xdpi="117.35789"
   inkscape:export-ydpi="117.35789" /><path
   class="st3"
   d="m 349.93021,111.06139 c 13.24623,0 26.77606,2.79508 39.17159,8.10168 v 0 0 c 11.18029,4.73948 21.99595,11.54489 32.16358,20.21368 v 0 0 c 9.47899,8.06116 18.55294,17.9452 27.01905,29.40907 8.66885,11.78792 16.48693,25.11519 23.29236,39.57668 12.88166,27.54567 21.67207,58.41306 26.1685,91.71094 3.52411,26.41145 4.17235,53.99765 1.94423,82.11047 -3.36213,39.2526 -12.47642,75.42657 -27.18095,107.5497 v 0 c -12.76017,27.66722 -28.68002,50.39242 -47.31377,67.48695 -9.64109,8.79031 -19.76818,15.83876 -30.1788,20.94281 h -0.0407 -0.0407 c -12.88173,6.44084 -27.26211,10.12711 -41.64263,10.73473 h -6.80543 c -14.2184,-0.64813 -28.43681,-4.3344 -41.23745,-10.65371 h -0.0407 -0.0407 c -11.26131,-5.50913 -22.15806,-13.20572 -32.32569,-22.84671 -11.78784,-11.1398 -22.64405,-24.87215 -32.28514,-40.83244 -13.28664,-22.03654 -23.61638,-47.31378 -30.74582,-75.10251 -4.33432,-17.05402 -7.45352,-34.87771 -9.19531,-53.02546 v -0.0405 -0.0405 c -1.05341,-10.08654 -1.37742,-20.41617 -1.74198,-30.42174 V 343.1744 c 0.12087,-2.02541 0.16176,-4.05083 0.20265,-5.95474 0.0817,-2.471 0.12088,-4.82048 0.28347,-7.04844 v -0.16211 -0.16194 c 1.21532,-24.14301 4.82052,-47.8404 10.61328,-70.36307 8.30422,-31.92058 20.74009,-60.27645 36.98403,-84.25739 14.94753,-22.03656 32.12324,-38.76652 51.12154,-49.78479 12.5982,-7.33201 26.4115,-12.07149 39.90079,-13.69183 h 0.0407 0.0407 c 3.96976,-0.44559 7.93972,-0.68865 11.86894,-0.68865 v 0 m 0,-12.152496 c -4.45596,0 -8.91184,0.283546 -13.32718,0.850666 -15.7174,1.90391 -30.86738,7.33201 -44.51878,15.23115 -22.40105,13.00319 -40.6299,32.20416 -55.0913,53.47105 -18.06674,26.69501 -30.58391,56.87375 -38.68554,88.02468 -6.11678,23.77841 -9.72198,48.24547 -10.93722,72.79354 -0.32409,4.53694 -0.28354,9.07387 -0.56722,13.6108 v 13.28676 c 0.36456,10.49167 0.72912,21.02383 1.78246,31.47499 1.78233,18.47182 4.9014,36.86262 9.47885,54.84833 7.04856,27.42417 17.45918,54.07868 32.12324,78.3837 9.55987,15.83876 20.9022,30.66483 34.35101,43.38445 10.49165,9.92456 22.32017,18.55283 35.32327,24.91265 14.38051,7.12947 30.30037,11.22081 46.34164,11.90946 h 7.3321 c 16.24373,-0.64813 32.28515,-4.77999 46.82757,-12.03099 12.07152,-5.91421 23.13025,-13.81334 33.05488,-22.88721 21.59084,-19.8491 37.9158,-44.88328 50.18977,-71.41627 16.04142,-35.08024 24.99373,-73.19861 28.23437,-111.60054 2.26845,-28.19383 1.74199,-56.67121 -1.98498,-84.703 -4.41532,-32.81188 -13.12464,-65.21856 -27.18094,-95.23526 -6.84597,-14.58301 -14.9476,-28.59891 -24.5076,-41.6021 -8.46619,-11.50438 -18.02626,-22.23909 -28.92301,-31.47499 -10.61321,-9.07389 -22.48208,-16.72996 -35.32327,-22.15809 -13.85384,-5.91422 -28.92301,-9.073866 -43.9921,-9.073866 z"
   id="path38"
   inkscape:connector-curvature="0"
   style="fill:#fefefd;fill-opacity:1;stroke-width:0.40508369"
   inkscape:export-xdpi="117.35789"
   inkscape:export-ydpi="117.35789" /></svg>