<?xml version="1.0" encoding="UTF-8" standalone="no"?>
<!-- Generator: Adobe Illustrator 24.3.0, SVG Export Plug-In . SVG Version: 6.00 Build 0)  -->

<svg
   xmlns:dc="http://purl.org/dc/elements/1.1/"
   xmlns:cc="http://creativecommons.org/ns#"
   xmlns:rdf="http://www.w3.org/1999/02/22-rdf-syntax-ns#"
   xmlns:svg="http://www.w3.org/2000/svg"
   xmlns="http://www.w3.org/2000/svg"
   xmlns:sodipodi="http://sodipodi.sourceforge.net/DTD/sodipodi-0.dtd"
   xmlns:inkscape="http://www.inkscape.org/namespaces/inkscape"
   version="1.1"
   id="Livello_1"
   x="0px"
   y="0px"
   viewBox="0 0 700 700"
   xml:space="preserve"
   sodipodi:docname="fc-crotone-logo.svg"
   width="700"
   height="700"
   inkscape:version="0.92.4 (5da689c313, 2019-01-14)"
   inkscape:export-filename="G:\Users\suitedoalex\sites\fc-crotone-logo-0.png"
   inkscape:export-xdpi="561.73712"
   inkscape:export-ydpi="561.73712"><metadata
   id="metadata167"><rdf:RDF><cc:Work
       rdf:about=""><dc:format>image/svg+xml</dc:format><dc:type
         rdf:resource="http://purl.org/dc/dcmitype/StillImage" /><dc:title></dc:title></cc:Work></rdf:RDF></metadata><defs
   id="defs165" /><sodipodi:namedview
   pagecolor="#ffffff"
   bordercolor="#666666"
   borderopacity="1"
   objecttolerance="10"
   gridtolerance="10"
   guidetolerance="10"
   inkscape:pageopacity="0"
   inkscape:pageshadow="2"
   inkscape:window-width="1600"
   inkscape:window-height="837"
   id="namedview163"
   showgrid="false"
   inkscape:zoom="0.46217938"
   inkscape:cx="180.72081"
   inkscape:cy="356.5336"
   inkscape:window-x="-8"
   inkscape:window-y="-8"
   inkscape:window-maximized="1"
   inkscape:current-layer="g160" />
<style
   type="text/css"
   id="style2">
	.st0{fill:#FFFFFF;}
	.st1{fill:#BB0000;}
	.st2{fill:#003355;}
	.st3{fill:#FFFF99;}
</style>
<g
   id="g160"
   transform="translate(0,485)">
	<g
   id="g96"
   transform="matrix(2.3306874,0,0,2.3306874,185.77338,-385.54801)"
   inkscape:export-filename="G:\Users\suitedoalex\sites\fc-crotone-logo-4.png"
   inkscape:export-xdpi="116.91161"
   inkscape:export-ydpi="116.91161">
		<path
   class="st0"
   d="M 140.4,93.8 C 138.3,68.2 130.1,44.6 117.5,27.4 104.7,9.7 87.9,0 70.5,0 53,-0.1 36.4,9.7 23.4,27.4 10.8,44.6 2.7,68.2 0.6,93.8 0.2,98.4 0,103 0,107.5 c 0,0.3 0,0.7 0,1 0,0.2 0,0.5 0,0.7 0,2.9 0.1,5.9 0.3,8.9 v 0.5 c 0.1,0.5 0.1,1 0.1,1.6 0,0.1 0,0.1 0,0.2 2.1,27.3 10.9,52 24.7,69.6 8.4,10.7 18.6,18.5 29.4,22.2 5.3,1.8 10.6,2.8 15.9,2.8 4.7,0 9.3,-0.7 13.9,-2.1 10.7,-3.2 20.9,-10.3 29.5,-20.6 7.4,-8.7 13.4,-19.3 18,-31.6 4.7,-12.4 7.6,-26 8.7,-40.3 0,-0.1 0,-0.1 0,-0.3 0,-0.4 0.1,-0.7 0.1,-1.1 v -0.5 -0.1 c 0.2,-3.1 0.3,-6.3 0.3,-9.3 0,-0.2 0,-0.5 0,-0.7 0,-0.3 0,-0.7 0,-1 0.1,-4.3 -0.1,-8.9 -0.5,-13.6"
   id="path4"
   inkscape:connector-curvature="0"
   style="fill:#ffffff" />
		<path
   class="st1"
   d="m 27.3,66.9 -0.1,121.6 c 8.1,10.3 17.7,17.8 28.3,21.5 L 55.7,52.8 C 45.1,55.2 35.6,60.1 27.3,66.9"
   id="path6"
   inkscape:connector-curvature="0"
   style="fill:#bb0000" />
		<path
   class="st1"
   d="m 83.9,52.5 -0.2,158.2 c 10.5,-3.2 20.2,-10.1 28.3,-19.8 L 112.1,65.7 C 103.9,59.2 94.3,54.6 83.9,52.5"
   id="path8"
   inkscape:connector-curvature="0"
   style="fill:#bb0000" />
		<path
   class="st2"
   d="m 138.7,107.5 c 0,-4.6 -0.2,-9.1 -0.6,-13.5 C 133.8,42.3 105.2,2.3 70.5,2.3 35.8,2.3 7.2,42.3 2.9,94 2.8,95.2 2.7,96.4 2.6,97.7 v 0 c -0.1,0.8 -0.1,1.7 -0.1,2.5 0,0.6 -0.1,1.3 -0.1,1.9 0,0.1 0,0.3 0,0.3 v 0 c -0.1,1.7 -0.1,3.4 -0.1,5.1 0,0.5 0,1.1 0,1.7 v 0 c 0.3,32 9.9,60.4 24.7,79.4 L 27.1,67 C 35.4,60.2 45,55.3 55.4,52.9 V 210 c 4.9,1.7 9.9,2.6 15.1,2.6 4.5,0 8.9,-0.7 13.2,-2 L 83.9,52.4 c 10.3,2.2 20,6.7 28.3,13.2 L 112,190.9 c 15.9,-18.9 26.3,-48.4 26.6,-81.7 -0.1,-0.6 -0.1,-0.6 0,0 0.1,-0.6 0.1,-1.2 0.1,-1.7 m -6.2,-18.3 v 0 0 0"
   id="path10"
   inkscape:connector-curvature="0"
   style="fill:#003355" />
		<path
   class="st1"
   d="M 2.6,97.6 C 13.7,67.9 40,47 70.5,47 c 30.6,0 56.8,20.9 67.8,50.6 -0.1,-1.2 -0.2,-3 -0.3,-3.7 C 126.7,64.8 100.6,42.7 70.4,42.7 40.3,42.7 14.3,65 2.9,94.2 2.8,94.9 2.7,96.4 2.6,97.6"
   id="path12"
   inkscape:connector-curvature="0"
   style="fill:#bb0000" />
		<path
   class="st0"
   d="m 112.2,80.6 -0.1,83.6 c 0,6.1 -4.9,11 -11.1,11 L 38.1,175.1 C 32,175.1 27,170.2 27,164 l 0.1,-83.4 z"
   id="path14"
   inkscape:connector-curvature="0"
   style="fill:#ffffff" />
		<path
   class="st2"
   d="m 70,160.6 c -0.4,0.5 -0.9,0.9 -1.7,1 -0.1,0 -0.1,0 -0.2,0 -1.1,0 -2.2,-0.9 -2.3,-2.1 v -0.1 c -2.5,-0.7 -5,-1.6 -7.4,-2.3 -0.6,1.5 -1.1,3 -1.6,4.4 7,0.9 16,2.8 25.8,3.7 -0.3,-0.9 -0.7,-1.8 -1.1,-2.8 -3.4,0.1 -7.3,-0.7 -11.5,-1.8"
   id="path16"
   inkscape:connector-curvature="0"
   style="fill:#003355" />
		<path
   class="st2"
   d="m 45.6,154.4 c -8.6,0.1 -16.9,4 -16.9,4 v 8.3 c 0,0 14.4,-5.7 22.7,-5.6 0.3,0 0.5,0 0.7,0 0.6,-1.8 1.2,-3.5 1.9,-5.3 -3.3,-0.8 -6.2,-1.4 -8.4,-1.4"
   id="path18"
   inkscape:connector-curvature="0"
   style="fill:#003355" />
		<path
   class="st2"
   d="m 86.1,161.9 c 0.5,1.3 1.1,2.6 1.5,3.8 0.1,0 0.1,0 0.1,0 14.6,0.5 23,-8 23,-8 v -8.2 c 0,-0.1 -14.3,9.7 -24.6,12.4"
   id="path20"
   inkscape:connector-curvature="0"
   style="fill:#003355" />
		<path
   class="st2"
   d="m 87.7,173.5 c -0.2,0.1 -0.4,0.1 -0.6,0.1 -1,0 -2,-0.7 -2.2,-1.7 -0.1,-0.5 -0.3,-1.1 -0.5,-1.7 -5.3,-1.1 -7.9,-3.4 -21.3,-3.9 -2.9,-0.1 -5.5,0.1 -7.8,0.3 -0.4,1.6 -0.8,3 -1.1,4.5 -0.2,1.1 -1.1,1.9 -2.2,1.9 -0.1,0 -0.3,0 -0.4,-0.1 -1.2,-0.3 -2,-1.4 -1.8,-2.7 0.1,-0.9 0.3,-1.7 0.5,-2.6 -8.3,2.3 -12,6.6 -12,6.6 0,0 53.2,-0.1 61.2,0 7.9,0 10.3,-8.3 10.3,-8.3 0,0 -4.9,5.3 -19.4,4.9 -0.3,0 -0.7,0 -1,-0.1 0.1,1.2 -0.6,2.4 -1.7,2.8"
   id="path22"
   inkscape:connector-curvature="0"
   style="fill:#003355" />
		<path
   class="st2"
   d="M 86.5,171.4 C 79.4,145.7 45.3,105.1 45,104.7 l 0.9,-0.7 c 0.3,0.4 34.6,41.2 41.7,67.1 z"
   id="path24"
   inkscape:connector-curvature="0"
   style="fill:#003355" />
		<path
   class="st2"
   d="m 52.5,170.7 -1.1,-0.2 c 5.1,-26.4 35.8,-69.9 36.2,-70.3 l 0.9,0.7 c -0.3,0.4 -31,43.7 -36,69.8"
   id="path26"
   inkscape:connector-curvature="0"
   style="fill:#003355" />
		<path
   class="st2"
   d="m 67.6,159.4 c -2.2,-25.8 0.2,-54 0.2,-54.2 l 1.1,0.1 c 0,0.3 -2.4,28.4 -0.2,54 z"
   id="path28"
   inkscape:connector-curvature="0"
   style="fill:#003355" />
		<path
   class="st0"
   d="m 69.6,89.7 v 0 0 c 0,0.1 0,0.1 0,0"
   id="path30"
   inkscape:connector-curvature="0"
   style="fill:#ffffff" />
		<path
   class="st2"
   d="m 43.1,124.4 c 0,0 -0.6,3.4 -0.2,4.6 0,0 5.3,-1.4 9.6,-0.8 4.3,0.5 5,1.6 5,2.1 0.1,0.5 -0.1,2.1 -3.1,3.7 0,0 -0.9,0.6 -1.1,1.3 -0.2,0.6 -5.7,2.7 -7,3.2 -1.3,0.5 -4.4,2.2 -4.6,3.3 -0.2,1.1 0.7,2.2 0.7,2.2 0,0 -5.4,-0.6 -5.8,-6.2 0,0 -3.4,1.8 -4.9,2.8 0,0 -0.4,0.4 -1.1,0.2 0,0 2,-2.4 6,-4.2 0,0 0.9,-2.6 2.6,-4.5 1.8,-1.9 2,-3 2,-3 0,0 0.8,-3.8 1.9,-4.7"
   id="path32"
   inkscape:connector-curvature="0"
   style="fill:#003355" />
		<path
   class="st2"
   d="m 43.9,140.2 c 0,0 2,-1.5 5.4,-2.3 0,0 0.9,2.6 1.3,3.4 0.4,0.8 2.3,3.6 2.4,5.1 0,0 -2.7,-2.2 -3.2,-2.8 -0.5,-0.5 -2.6,-2.4 -2.6,-2.4 0,0 -0.9,0 -1.6,-0.2 -0.7,-0.2 -1.7,-0.8 -1.7,-0.8"
   id="path34"
   inkscape:connector-curvature="0"
   style="fill:#003355" />
		<path
   class="st2"
   d="m 42.9,140.8 c 0,0 1.3,1 2.2,1.1 0.9,0.1 1.9,-0.4 1.9,-0.4 l 1.4,1.5 c 0,0 -1.3,0.3 -1.6,0.6 -0.1,0.3 -0.3,4.1 0.3,5.7 0,0 -2.7,-1.6 -3.2,-4.8 0,0 -0.7,-0.7 -1.1,-0.8 0,0 -0.9,-1.2 -0.8,-1.9 0.2,-0.5 0.9,-1 0.9,-1"
   id="path36"
   inkscape:connector-curvature="0"
   style="fill:#003355" />
		<polygon
   class="st2"
   points="53.2,140.1 51.3,141.6 50.5,140.7 "
   id="polygon38"
   style="fill:#003355" />
		<path
   class="st0"
   d="M 49.5,128.8 49,128.6 c -0.1,0.1 -0.1,0.3 -0.1,0.4 0,0.1 0.3,0.1 0.4,0.1 0.2,-0.1 0.2,-0.2 0.2,-0.3"
   id="path40"
   inkscape:connector-curvature="0"
   style="fill:#ffffff" />
		<path
   class="st0"
   d="m 41.8,132.3 c 0,0 -0.7,0.6 -0.8,2 0,0 0.5,-1.6 1.1,-2"
   id="path42"
   inkscape:connector-curvature="0"
   style="fill:#ffffff" />
		<path
   class="st0"
   d="m 41.1,132.3 c 0,0 -0.7,0.8 -0.5,2 0,0 0.1,-1.4 0.9,-2"
   id="path44"
   inkscape:connector-curvature="0"
   style="fill:#ffffff" />
		<path
   class="st0"
   d="m 40.6,132.4 c 0,0 -0.7,0.5 -0.3,2 0,0 -0.1,-1.8 0.7,-2.2"
   id="path46"
   inkscape:connector-curvature="0"
   style="fill:#ffffff" />
		<path
   class="st0"
   d="m 51,130.1 c -6.3,1.4 -9.6,4.5 -9.6,4.5 0,0 -0.9,0.7 -2,2.2 -2.2,2.8 1.5,4.3 1.5,4.3 -1.3,-1.1 -0.6,-2.2 0.7,-2.8 0.5,-0.3 3.5,-0.2 5.8,-0.9 3,-0.9 5.5,-2.6 5.5,-2.6 0.1,-0.3 0.3,-0.6 0.5,-0.7 0,-0.1 -0.1,-0.3 -0.2,-0.4 l -0.1,-0.5 -0.1,0.3 c -0.1,-0.1 -0.3,-0.1 -0.4,-0.2 l -0.1,-0.4 -0.1,0.3 c -0.1,-0.1 -0.3,-0.1 -0.4,-0.1 l -0.1,-0.3 -0.1,0.3 c -0.2,0 -0.4,-0.1 -0.5,-0.1 v -0.3 L 51,133 c -0.5,0 -0.9,0 -0.9,0 0.4,-0.3 0.9,-0.5 1.3,-0.6 l 0.3,0.3 v -0.3 c 0.1,0 0.2,-0.1 0.3,-0.1 l 0.2,0.3 0.1,-0.3 c 0.1,0 0.3,0 0.3,-0.1 l 0.2,0.3 0.1,-0.3 c 0.1,0 0.2,0 0.3,0 l 0.1,0.3 0.2,-0.3 c 0.1,0 0.2,0 0.3,0 l 0.1,0.3 0.2,-0.3 c 0.1,0 0.2,0 0.3,0 v 0.4 l 0.3,-0.4 c 0.1,0 0.3,0 0.4,0.1 l -0.1,0.5 0.5,-0.4 c 0.2,0 0.3,0.1 0.5,0.1 0.1,0 0.3,-0.1 0.5,-0.1 l 0.1,-0.1 v 0 0 c 0.1,-0.1 0.1,-0.1 0.2,-0.1 0.7,-0.7 0.7,-1 0.7,-1 0,0 -0.1,-2.5 -6.5,-1.1"
   id="path48"
   inkscape:connector-curvature="0"
   style="fill:#ffffff" />
		<path
   class="st2"
   d="m 96.6,124.4 c 0,0 0.6,3.4 0.2,4.6 0,0 -5.3,-1.4 -9.6,-0.8 -4.3,0.5 -5,1.6 -5,2.1 -0.1,0.5 0.1,2.1 3.1,3.7 0,0 0.9,0.6 1.1,1.3 0.2,0.6 5.7,2.7 7,3.2 1.3,0.5 4.4,2.2 4.6,3.3 0.2,1.1 -0.7,2.2 -0.7,2.2 0,0 5.4,-0.6 5.8,-6.2 0,0 3.4,1.8 4.9,2.8 0,0 0.4,0.4 1.1,0.2 0,0 -2,-2.4 -6,-4.2 0,0 -0.9,-2.6 -2.6,-4.5 -1.8,-1.9 -2,-3 -2,-3 0,0 -0.8,-3.8 -1.9,-4.7"
   id="path50"
   inkscape:connector-curvature="0"
   style="fill:#003355" />
		<path
   class="st2"
   d="m 96,140.2 c 0,0 -2,-1.5 -5.4,-2.3 0,0 -0.9,2.6 -1.3,3.4 -0.4,0.8 -2.3,3.6 -2.4,5.1 0,0 2.7,-2.2 3.2,-2.8 0.5,-0.5 2.6,-2.4 2.6,-2.4 0,0 0.9,0 1.6,-0.2 0.6,-0.2 1.7,-0.8 1.7,-0.8"
   id="path52"
   inkscape:connector-curvature="0"
   style="fill:#003355" />
		<path
   class="st2"
   d="m 96.8,140.8 c 0,0 -1.3,1 -2.2,1.1 -0.9,0.1 -1.9,-0.4 -1.9,-0.4 l -1.4,1.5 c 0,0 1.3,0.3 1.6,0.6 0.1,0.3 0.3,4.1 -0.3,5.7 0,0 2.7,-1.6 3.2,-4.8 0,0 0.7,-0.7 1.1,-0.8 0,0 0.9,-1.2 0.8,-1.9 -0.2,-0.5 -0.9,-1 -0.9,-1"
   id="path54"
   inkscape:connector-curvature="0"
   style="fill:#003355" />
		<polygon
   class="st2"
   points="86.6,140.1 88.5,141.6 89.3,140.7 "
   id="polygon56"
   style="fill:#003355" />
		<path
   class="st0"
   d="m 90.3,128.8 0.5,-0.2 c 0.1,0.1 0.1,0.3 0.1,0.4 0,0.1 -0.3,0.1 -0.4,0.1 -0.2,-0.1 -0.2,-0.2 -0.2,-0.3"
   id="path58"
   inkscape:connector-curvature="0"
   style="fill:#ffffff" />
		<path
   class="st0"
   d="m 98.1,132.3 c 0,0 0.7,0.6 0.8,2 0,0 -0.5,-1.6 -1.1,-2"
   id="path60"
   inkscape:connector-curvature="0"
   style="fill:#ffffff" />
		<path
   class="st0"
   d="m 98.7,132.3 c 0,0 0.7,0.8 0.5,2 0,0 -0.1,-1.4 -0.9,-2"
   id="path62"
   inkscape:connector-curvature="0"
   style="fill:#ffffff" />
		<path
   class="st0"
   d="m 99.2,132.4 c 0,0 0.7,0.5 0.3,2 0,0 0.1,-1.8 -0.7,-2.2"
   id="path64"
   inkscape:connector-curvature="0"
   style="fill:#ffffff" />
		<path
   class="st0"
   d="m 100.3,136.7 c -1.1,-1.4 -2,-2.2 -2,-2.2 0,0 -3.2,-3 -9.6,-4.5 -6.4,-1.4 -6.1,0.7 -6.1,0.7 0,0 -0.1,0.4 0.7,1 0.1,0.1 0.1,0.1 0.2,0.1 v 0 0 l 0.1,0.1 c 0.1,0.1 0.3,0.1 0.5,0.1 0.1,0 0.3,-0.1 0.5,-0.1 l 0.5,0.4 -0.1,-0.5 c 0.1,0 0.3,0 0.4,-0.1 l 0.3,0.4 V 132 c 0.1,0 0.2,0 0.3,0 l 0.2,0.3 0.1,-0.3 c 0.1,0 0.2,0 0.3,0 l 0.2,0.3 0.1,-0.3 c 0.1,0 0.2,0 0.3,0 l 0.1,0.3 0.2,-0.3 c 0.1,0 0.3,0 0.3,0.1 l 0.1,0.3 0.2,-0.3 c 0.1,0 0.2,0.1 0.3,0.1 v 0.3 l 0.3,-0.3 c 0.5,0.1 1,0.3 1.3,0.6 0,0 -0.4,0 -0.9,0 l -0.3,-0.3 v 0.3 c -0.2,0 -0.3,0 -0.5,0.1 l -0.1,-0.3 -0.1,0.3 c -0.1,0 -0.3,0.1 -0.4,0.1 l -0.1,-0.3 -0.1,0.4 c -0.1,0.1 -0.3,0.1 -0.4,0.2 L 87,133 l -0.1,0.5 c -0.1,0.1 -0.2,0.3 -0.2,0.4 0.2,0.2 0.3,0.4 0.5,0.7 0,0 2.5,1.7 5.5,2.6 2.3,0.7 5.3,0.6 5.8,0.9 1.3,0.6 2,1.8 0.7,2.8 -0.3,0.1 3.4,-1.4 1.1,-4.2"
   id="path66"
   inkscape:connector-curvature="0"
   style="fill:#ffffff" />
		<path
   class="st1"
   d="m 90.6,91.8 c -0.1,-0.4 -0.6,-0.6 -1,-0.4 -2.4,0.9 -4.7,2.8 -7.5,2.3 C 81,93 81.2,91.3 81.9,90.5 L 82,90.4 c 0.1,-0.1 0.1,-0.1 0.2,-0.2 l 0.1,-0.1 c 0.2,-0.2 0.2,-0.5 0.1,-0.8 -0.2,-0.4 -0.6,-0.5 -1,-0.4 L 81.1,89 c 0,0 0,0 0,0.1 -2.1,0.6 -4,2 -6.3,1.8 l -0.1,-0.1 -0.1,-0.1 c 0.1,-1.7 1.6,-2.7 2.5,-4 0.1,-0.1 0.1,-0.1 0.2,-0.1 l 0.3,-0.2 c 0.1,-0.1 0.2,-0.2 0.3,-0.3 L 78,86 c 0.1,-0.2 0.1,-0.5 0,-0.7 -0.2,-0.4 -0.7,-0.5 -1.1,-0.3 l -0.2,0.1 c -0.2,0.2 -0.4,0.3 -0.6,0.5 -1.7,1.4 -3.4,2.7 -5.3,3.7 -0.3,0.1 -0.7,0.1 -1.1,0 L 69.4,89 v 0 c 0,0 0,0 0,0.1 0,-0.5 0.3,-1 0.5,-1.5 L 70,87.5 c 0.2,-0.3 0.2,-0.7 0,-0.9 -0.3,-0.3 -0.7,-0.4 -1.1,-0.1 l -0.1,0.1 v 0 l -0.1,0.1 -0.3,0.3 c -2.2,1.8 -4.4,3.4 -7.1,4.3 -0.2,0.1 -0.4,0 -0.5,-0.1 0.1,-0.7 0.4,-1.4 0.5,-2 l 0.2,-0.5 C 61.6,88.4 61.6,88 61.3,87.8 61,87.5 60.5,87.5 60.2,87.9 L 59.9,88 c -0.9,1.1 -2.2,1.8 -3.4,2.4 -0.3,0.1 -0.5,0.5 -0.9,0.7 -1.8,1.1 -3.6,2 -5.3,2.9 -0.3,0.2 -0.5,0.7 -0.3,1.1 0.2,0.4 0.7,0.5 1.1,0.3 1.8,-0.9 3.4,-1.8 5.2,-2.8 0.7,-0.4 1.2,-0.8 1.8,-1.1 0.5,-0.3 0.9,-0.5 1.3,-0.8 -0.1,0.2 -0.1,0.4 -0.1,0.6 v 0.3 c 0,0.3 0.1,0.5 0.4,0.7 h 0.1 c 0.7,0.5 1.6,0.6 2.2,0.3 1.1,-0.4 2.2,-0.8 3.2,-1.5 0.9,-0.6 1.8,-1.1 2.6,-1.7 v 0.1 c 0,0.1 0.1,0.3 0.1,0.4 l 0.1,0.2 c 0.9,1.3 2.7,1.3 4,0.5 0.4,-0.3 0.8,-0.5 1.2,-0.8 -0.2,0.7 -0.2,1.6 0.4,2.2 l 0.1,0.1 c 0.1,0.1 0.2,0.2 0.4,0.3 h 0.1 c 0.6,0.3 1.3,0.3 1.9,0.1 1.4,-0.3 2.7,-0.7 4,-1.3 -0.3,1.1 -0.1,2.3 0.7,3.2 1.3,1.4 3.4,1.1 5.1,0.5 0.2,-0.1 0.4,-0.3 0.6,-0.3 1.4,-0.4 2.5,-1.4 3.9,-1.8 0.2,-0.1 0.4,-0.6 0.2,-1 m -21,-4.4 v 0 0 c 0,0.1 0,0 0,0"
   id="path68"
   inkscape:connector-curvature="0"
   style="fill:#bb0000" />
		<path
   class="st2"
   d="m 100.5,92 c 0,0 -13.4,7.9 -32.9,7.4 C 48,98.9 44.9,96.9 44.9,96.9 c 0,0 -1.8,-0.3 -2.8,0.5 -1,0.8 -1.5,4.8 3.8,5.9 5.8,1.1 13.4,1.1 21.9,0.5 8.5,-0.6 28,-5.6 32.7,-11.8"
   id="path70"
   inkscape:connector-curvature="0"
   style="fill:#003355" />
		<path
   class="st3"
   d="m 81.9,98.2 c -0.1,-0.3 -0.3,-0.5 -0.3,-0.8 -1.3,-0.3 -2.2,-0.9 -2.6,-1.6 -0.5,-0.5 -0.8,-1 -1,-1.6 -0.5,0.1 -1,0.3 -1.6,0.4 -1,0.2 -2.1,0.1 -3,-0.3 v 0 c -0.5,-0.1 -1.1,-0.5 -1.5,-1 L 71.8,93.2 C 71.7,93.1 71.6,93 71.5,92.9 71,93 70.6,93.1 70,93.1 c -1.1,0 -2.1,-0.3 -2.9,-0.9 -0.1,0 -0.1,0.1 -0.1,0.1 -0.3,0.1 -0.5,0.3 -0.7,0.5 -1.1,0.7 -2.3,1.1 -3.4,1.6 l -0.2,0.1 C 61.4,95 59.9,94.8 58.6,94.1 L 58.3,94 C 58.2,93.9 58,93.8 57.9,93.7 57.6,93.8 57.4,94 57.1,94.2 56.4,94.6 55.7,95 55,95.3 l -3.4,2.8 c 3.4,0.4 8.5,0.8 15.9,1.1 5.4,0.3 10.2,-0.2 14.4,-1"
   id="path72"
   inkscape:connector-curvature="0"
   style="fill:#ffff99" />
		<path
   class="st0"
   d="m 32.1,39.9 c -1.2,-0.3 -2.6,-0.1 -3.8,0.7 -2.1,1.4 -2.6,3.7 -1.6,5.3 1.1,1.8 3.4,2.1 5.5,0.7 1.1,-0.7 2,-1.9 2.2,-3.1 l 2.2,3.4 c -0.9,1 -1.6,1.8 -2.7,2.4 -1.8,1.1 -4,1.7 -6,1.6 -2.2,-0.2 -3.8,-1.2 -4.8,-2.8 -0.9,-1.5 -1.2,-3.4 -0.7,-5.3 0.6,-2 2,-3.9 3.9,-5 1.1,-0.7 2.2,-1.1 3.5,-1.5 z"
   id="path74"
   inkscape:connector-curvature="0"
   style="fill:#ffffff" />
		<path
   class="st0"
   d="m 49.3,41.8 -4.7,2 -5.5,-3.1 H 39 l 2,4.7 -3.7,1.6 -5.2,-12.1 5.6,-2.4 c 2.8,-1.2 5.5,-1 6.6,1.6 0.7,1.7 0.2,3.6 -1.7,4.8 z m -11.1,-3.1 0.3,-0.1 c 1.2,-0.5 2.5,-1.3 2,-2.6 -0.5,-1.4 -2,-0.9 -3.2,-0.4 L 37,35.7 Z"
   id="path76"
   inkscape:connector-curvature="0"
   style="fill:#ffffff" />
		<path
   class="st0"
   d="m 63.4,31.9 c 0.9,4.2 -2.1,7.8 -7,8.9 -4.9,1 -9.1,-1.2 -10,-5.4 -0.8,-3.9 2.7,-7.5 7.2,-8.4 4.4,-0.9 9,1 9.8,4.9 m -12.8,2.7 c 0.5,2.2 2.8,3.4 5.1,3 2.4,-0.5 4,-2.5 3.6,-4.7 -0.3,-1.8 -2.6,-3 -5.1,-2.5 -2.4,0.4 -4,2.4 -3.6,4.2"
   id="path78"
   inkscape:connector-curvature="0"
   style="fill:#ffffff" />
		<polygon
   class="st0"
   points="70.9,28.6 71.1,38.9 67,39 66.8,28.7 63.4,28.7 63.4,25.8 74.2,25.6 74.3,28.5 "
   id="polygon80"
   style="fill:#ffffff" />
		<path
   class="st0"
   d="m 91.6,34.5 c -0.7,4.2 -4.8,6.6 -9.8,5.7 -5,-0.8 -8.1,-4.4 -7.4,-8.6 0.7,-3.9 5.2,-6 9.7,-5.3 4.4,0.8 8.1,4.3 7.5,8.2 m -13,-2.1 c -0.3,2.2 1.3,4.2 3.8,4.6 2.4,0.4 4.7,-0.9 5,-3.2 C 87.7,32 86,30 83.6,29.6 c -2.5,-0.3 -4.7,1 -5,2.8"
   id="path82"
   inkscape:connector-curvature="0"
   style="fill:#ffffff" />
		<polygon
   class="st0"
   points="101.2,45.9 97.4,35.5 97.4,35.5 94.3,43 90.5,41.4 95.6,29.2 99.3,30.8 103.2,41.1 103.2,41.2 106.3,33.7 110.1,35.3 105,47.5 "
   id="polygon84"
   style="fill:#ffffff" />
		<polygon
   class="st0"
   points="113,52.9 105.5,48.1 112.6,37 120.2,41.9 118.6,44.3 114.5,41.6 113.3,43.5 117.2,46 115.6,48.5 111.8,46 110.5,47.9 114.6,50.5 "
   id="polygon86"
   style="fill:#ffffff" />
		<polygon
   class="st0"
   points="53.1,11.2 62,9.9 62.4,12.8 57.6,13.5 57.8,15.7 62.3,15 62.7,17.9 58.2,18.5 58.9,23.7 54.9,24.2 "
   id="polygon88"
   style="fill:#ffffff" />
		<path
   class="st0"
   d="m 66.3,21.2 c 0.1,1.1 -0.9,2.1 -2.3,2.2 -1.3,0.1 -2.5,-0.7 -2.6,-1.8 -0.1,-1.1 0.9,-2.1 2.3,-2.2 1.3,-0.1 2.4,0.7 2.6,1.8"
   id="path90"
   inkscape:connector-curvature="0"
   style="fill:#ffffff" />
		<path
   class="st0"
   d="m 79.6,14.3 c -0.8,-0.9 -2.2,-1.6 -3.5,-1.6 -2.5,-0.1 -4.3,1.5 -4.3,3.5 -0.1,2.1 1.6,3.7 4.1,3.7 1.3,0.1 2.7,-0.5 3.6,-1.3 l -0.1,4.1 C 78.1,23 77,23.2 75.8,23.2 73.6,23.1 71.5,22.3 70,21 c -1.7,-1.4 -2.4,-3.1 -2.4,-5.1 0.1,-1.8 0.9,-3.5 2.5,-4.7 1.6,-1.3 3.8,-2 6.1,-1.9 1.3,0.1 2.5,0.3 3.7,0.8 z"
   id="path92"
   inkscape:connector-curvature="0"
   style="fill:#ffffff" />
		<path
   class="st0"
   d="m 86,22.5 c -0.2,1.1 -1.4,1.9 -2.7,1.6 -1.3,-0.2 -2.3,-1.3 -2.1,-2.4 0.2,-1.1 1.4,-1.8 2.7,-1.6 1.3,0.3 2.2,1.3 2.1,2.4"
   id="path94"
   inkscape:connector-curvature="0"
   style="fill:#ffffff" />
	</g>
	
</g>
</svg>