<?xml version="1.0" standalone="no"?>
<!DOCTYPE svg PUBLIC "-//W3C//DTD SVG 20010904//EN"
 "http://www.w3.org/TR/2001/REC-SVG-20010904/DTD/svg10.dtd">
<svg version="1.0" xmlns="http://www.w3.org/2000/svg"
 width="481.000000pt" height="600.000000pt" viewBox="0 0 481.000000 600.000000"
 preserveAspectRatio="xMidYMid meet">

<g transform="translate(0.000000,600.000000) scale(0.100000,-0.100000)"
fill="#000000" stroke="none">
<path d="M1031 5838 c-57 -117 -111 -274 -138 -398 -14 -65 -18 -129 -18 -270
0 -102 3 -206 7 -232 7 -44 6 -47 -10 -37 -93 60 -204 312 -272 622 -8 35 -17
54 -23 48 -15 -15 -10 -346 8 -446 44 -252 163 -528 294 -681 28 -32 49 -60
47 -61 -1 -1 -80 13 -176 32 -95 19 -180 35 -189 35 -10 0 2 -16 29 -38 25
-20 93 -80 151 -133 103 -93 108 -96 165 -103 161 -18 406 -103 549 -189 108
-65 112 -71 19 -35 -155 60 -435 127 -489 116 -12 -2 31 -47 139 -147 86 -79
155 -146 153 -148 -2 -2 -47 2 -100 8 -53 6 -100 9 -105 8 -5 -2 63 -63 152
-135 l163 -131 119 -6 c115 -6 247 -32 298 -59 22 -11 6 -13 -117 -13 -82 0
-150 -4 -160 -11 -15 -9 -3 -22 95 -100 l112 -89 96 -5 95 -5 -71 -37 c-104
-54 -181 -71 -289 -65 -128 7 -286 67 -407 153 -27 19 -48 31 -48 28 0 -13 64
-98 118 -155 l57 -62 -70 7 c-133 13 -381 82 -478 133 -27 13 -28 13 -18 -5
53 -99 230 -296 326 -362 l50 -35 120 2 c95 1 145 8 240 32 66 16 121 28 123
26 6 -6 -121 -73 -194 -103 -95 -39 -188 -62 -260 -63 l-59 -1 71 -23 c88 -29
200 -53 291 -61 69 -7 69 -6 199 54 71 33 151 73 177 87 26 15 50 25 52 23 3
-2 -50 -49 -116 -104 l-120 -99 63 -8 c86 -11 252 -2 313 17 27 8 51 14 53 12
1 -2 -14 -14 -34 -27 -21 -13 -42 -27 -47 -30 -5 -3 3 -30 18 -59 29 -57 28
-68 -4 -50 -12 6 -21 7 -21 3 0 -14 50 -84 80 -112 16 -14 32 -37 35 -50 l7
-24 -46 27 c-25 15 -46 24 -46 21 0 -20 36 -68 74 -101 37 -32 51 -54 75 -122
42 -114 41 -145 -7 -191 -21 -20 -54 -48 -74 -63 -43 -32 -55 -72 -36 -119
l14 -33 27 46 c28 48 52 62 126 73 23 4 65 21 92 37 62 39 162 49 234 25 l47
-17 -14 23 c-9 12 -39 32 -69 44 -62 26 -38 30 38 8 37 -11 62 -28 97 -65 40
-43 46 -46 46 -27 0 32 -55 116 -84 126 -13 5 -70 15 -127 21 -153 16 -174 24
-194 66 -9 20 -15 38 -12 40 2 2 18 -1 36 -7 18 -6 34 -10 36 -7 4 3 -9 71
-21 109 -3 13 1 15 22 11 25 -5 26 -3 20 24 -18 79 -19 165 -1 204 10 22 20
40 22 40 3 0 18 -9 34 -21 20 -14 33 -35 41 -67 8 -31 23 -58 47 -81 39 -36
39 -36 -36 -15 -13 4 -23 2 -23 -3 0 -21 82 -102 114 -113 42 -14 74 -47 82
-88 l6 -31 -49 6 c-37 4 -60 1 -88 -13 l-39 -18 65 -12 c91 -17 113 -28 145
-69 15 -20 40 -43 56 -51 36 -19 60 -57 68 -108 l7 -41 12 30 c7 17 11 49 9
72 -2 32 0 39 9 31 21 -17 35 -81 32 -141 -2 -31 -2 -57 1 -57 11 1 39 49 50
87 21 69 8 105 -63 165 -34 29 -68 60 -75 68 -16 18 -50 92 -59 127 -5 23 -3
25 16 20 25 -6 25 -3 6 83 -20 92 -20 103 5 90 25 -13 25 -13 -1 56 -15 41
-19 67 -15 97 10 60 16 63 38 15 l20 -43 24 53 c29 65 53 97 106 140 49 39 58
40 58 6 l0 -26 34 30 c50 44 65 45 142 14 57 -23 72 -35 86 -64 11 -23 39 -49
82 -78 65 -42 80 -65 51 -76 -8 -4 -15 -11 -15 -16 0 -6 25 -9 65 -6 55 3 70
8 92 31 30 29 33 55 19 170 -7 54 -5 80 9 126 16 55 16 61 0 117 -9 32 -27 79
-40 104 -31 61 -132 195 -184 245 l-43 40 7 -37 c5 -24 3 -38 -3 -38 -16 0
-269 172 -357 243 -104 84 -188 174 -301 322 -116 153 -171 238 -227 353 -25
50 -55 105 -67 122 -12 17 -80 69 -153 116 -268 177 -433 382 -521 646 -74
224 -84 569 -25 857 11 52 17 96 15 98 -6 6 -133 -184 -179 -267 -85 -155
-143 -356 -154 -534 -7 -125 -7 -125 -72 39 -83 210 -122 410 -122 626 0 78
-4 139 -9 139 -5 0 -32 -46 -59 -102z m42 -513 c54 -236 153 -466 295 -685 63
-98 215 -254 312 -320 l65 -44 -62 67 c-208 224 -305 515 -274 821 13 120 38
238 70 326 l20 55 -7 -45 c-4 -25 -7 -117 -6 -205 1 -177 14 -244 77 -400 97
-235 295 -473 549 -658 91 -66 100 -76 149 -161 54 -96 157 -242 274 -391 206
-260 291 -376 336 -459 l27 -50 -4 65 -5 64 26 -30 c14 -16 41 -59 60 -95 l34
-65 1 66 c0 36 3 69 6 72 14 13 127 -68 228 -163 l58 -55 -4 43 c-2 23 -1 42
3 42 11 0 124 -170 158 -237 35 -71 40 -127 15 -176 l-17 -32 -13 50 c-7 28
-14 55 -14 60 -1 6 -7 -10 -13 -34 -11 -42 -37 -69 -37 -39 0 20 -92 208 -102
208 -10 0 0 -45 18 -82 8 -15 14 -40 14 -55 0 -16 8 -39 17 -52 16 -23 16 -24
-5 -19 -25 7 -29 -4 -7 -22 28 -23 15 -32 -17 -11 -97 60 -147 105 -172 152
-23 41 -38 55 -89 81 -68 34 -69 35 8 -51 16 -19 23 -31 15 -28 -8 3 -51 21
-95 41 -44 19 -93 38 -110 42 -29 6 -28 4 25 -50 l55 -56 -50 6 c-80 9 -157
25 -195 40 l-35 14 38 -34 c21 -19 65 -44 99 -57 52 -19 59 -24 44 -33 -85
-51 -110 -72 -136 -113 -43 -67 -70 -162 -77 -266 l-6 -88 -28 43 c-44 66 -71
158 -67 228 2 51 1 59 -12 54 -50 -22 -118 -33 -171 -27 l-59 6 -24 -54 c-14
-30 -30 -76 -37 -104 -18 -77 -19 -79 -28 -69 -21 22 -44 116 -48 194 l-4 85
115 80 c63 44 113 81 112 83 -2 1 -77 9 -166 17 -89 8 -164 16 -166 18 -2 2
31 24 74 50 100 60 238 106 344 114 l83 7 -45 14 c-28 9 -89 15 -160 16 -98 0
-129 -4 -215 -29 -80 -23 -118 -28 -190 -27 -49 1 -103 5 -120 10 -28 8 -24
10 47 26 45 10 125 40 189 72 160 78 218 96 322 98 l88 1 -42 19 c-64 28 -194
48 -269 41 -62 -6 -64 -5 -45 11 18 15 77 44 145 71 23 9 21 12 -55 66 -89 63
-302 186 -473 273 -62 31 -111 59 -108 61 2 2 53 -10 112 -27 360 -105 675
-270 874 -457 l82 -77 -37 74 c-95 189 -281 406 -472 549 -55 42 -152 103
-215 135 -417 218 -712 520 -852 872 -99 250 -126 570 -70 839 l19 90 6 -165
c4 -91 14 -196 22 -235z m2235 -2671 c61 -33 68 -35 108 -25 24 6 47 11 51 11
11 0 33 -80 33 -118 0 -42 -63 -92 -117 -92 -14 0 -14 2 0 18 10 10 17 29 17
42 0 26 -33 84 -59 103 -35 24 -114 97 -106 97 5 0 38 -16 73 -36z m45 -114
c10 -16 15 -30 10 -30 -20 1 -72 58 -79 85 l-7 30 29 -27 c16 -15 37 -41 47
-58z"/>
<path d="M3564 5671 c-89 -51 -293 -209 -387 -299 -131 -127 -235 -270 -321
-442 -102 -205 -109 -232 -96 -355 9 -84 27 -178 56 -290 12 -48 -37 59 -69
150 -51 146 -69 250 -76 430 l-6 160 -26 -70 c-48 -127 -78 -273 -94 -450
l-15 -170 64 -130 c36 -71 76 -149 91 -172 63 -103 -50 8 -126 122 l-36 54
-12 -79 -13 -80 46 -73 c62 -100 194 -281 250 -342 l45 -50 1 113 c0 61 4 112
9 112 5 0 25 -19 44 -41 l34 -42 13 54 c7 30 30 110 52 179 100 313 244 599
389 774 74 90 79 80 18 -37 -189 -367 -367 -984 -357 -1243 l3 -76 47 -35 48
-35 -15 36 c-14 32 -13 41 10 121 71 243 190 468 346 654 32 39 59 79 59 90 0
41 50 213 83 283 74 160 211 328 373 454 91 71 259 174 346 212 99 42 75 52
-133 52 -213 0 -346 -27 -492 -100 -33 -17 -62 -29 -64 -27 -1 2 11 26 28 53
72 112 249 251 421 329 48 22 88 43 88 48 0 12 -124 8 -228 -8 -347 -52 -567
-216 -774 -575 -46 -80 -95 -182 -139 -289 -32 -78 -5 101 31 211 56 166 170
354 317 523 43 50 104 127 135 172 31 45 68 98 83 117 34 45 19 46 -51 7z"/>
<path d="M2313 1685 c-51 -15 -121 -56 -146 -83 -18 -19 -18 -21 2 -59 11 -21
31 -51 44 -68 l25 -29 70 71 c67 67 188 143 229 143 23 0 9 24 -18 31 -41 12
-162 8 -206 -6z"/>
<path d="M2519 1621 c-70 -22 -129 -63 -198 -136 l-55 -58 30 -23 c16 -13 54
-37 85 -53 l55 -30 35 34 c47 47 144 103 209 121 30 8 61 17 68 20 20 6 -13
58 -67 105 -50 45 -75 48 -162 20z"/>
<path d="M2112 1538 c-16 -21 -49 -91 -56 -119 -4 -21 3 -40 35 -88 64 -97
176 -174 298 -206 63 -16 67 -12 58 74 -9 82 -12 86 -80 125 -93 53 -175 122
-209 177 -17 27 -32 49 -33 49 -2 0 -7 -6 -13 -12z"/>
<path d="M2694 1450 c-21 -8 -21 -10 -8 -67 20 -83 17 -216 -5 -281 -18 -53
-13 -74 14 -52 26 21 77 109 91 157 18 57 19 171 4 219 -10 29 -16 34 -43 33
-18 0 -42 -4 -53 -9z"/>
<path d="M2574 1394 c-32 -19 -72 -48 -88 -63 -28 -28 -28 -30 -16 -81 17 -72
9 -193 -18 -253 -26 -58 -18 -64 59 -45 44 11 59 21 85 55 50 66 74 141 74
233 0 80 -15 176 -29 185 -5 2 -35 -11 -67 -31z"/>
<path d="M2047 1312 c-9 -13 12 -104 37 -156 47 -100 145 -180 253 -204 47
-11 57 -4 87 55 29 57 23 70 -41 88 -105 31 -193 83 -265 156 -37 38 -69 66
-71 61z"/>
<path d="M650 1123 c-146 -16 -331 -63 -487 -125 l-102 -40 44 -58 c84 -110
134 -231 155 -380 16 -114 18 -118 52 -136 24 -12 49 -15 105 -12 l73 5 0 -54
0 -54 32 17 c31 16 72 16 209 -2 41 -5 49 -3 63 17 30 43 20 69 -55 148 -69
72 -71 75 -48 84 33 12 226 -8 325 -34 128 -33 242 -83 529 -230 399 -204 551
-249 844 -249 223 0 426 37 640 116 53 20 213 92 356 160 392 186 523 231 699
241 l98 6 -17 -33 c-9 -18 -43 -59 -76 -91 -64 -64 -76 -101 -40 -133 16 -14
33 -16 123 -10 86 6 109 4 135 -10 18 -9 34 -16 38 -16 3 0 5 22 5 50 l0 49
84 -6 c84 -6 85 -6 115 25 23 22 31 40 31 65 0 104 95 358 172 458 l36 46 -50
33 c-104 67 -240 116 -393 140 -114 19 -343 14 -480 -10 -213 -36 -337 -81
-516 -186 -246 -143 -426 -224 -604 -270 -100 -26 -125 -29 -280 -29 -142 1
-185 4 -257 23 -134 33 -262 84 -513 204 -408 195 -542 248 -699 273 -83 14
-257 18 -346 8z m237 -161 c49 -27 59 -103 19 -149 l-24 -28 24 -47 c13 -26
24 -49 24 -52 0 -2 -21 -6 -46 -8 l-46 -3 -27 50 -26 50 -3 -43 c-4 -48 -16
-57 -65 -48 l-32 6 8 137 c4 76 9 143 11 148 5 14 154 3 183 -13z m3097 -4
c12 -48 8 -55 -40 -63 -39 -5 -45 -9 -42 -28 3 -19 8 -22 39 -19 30 3 37 -1
47 -23 18 -38 16 -42 -29 -49 -32 -5 -39 -10 -35 -24 3 -9 8 -33 11 -53 7 -36
7 -36 -35 -43 -24 -4 -44 -5 -45 -4 -1 2 -16 67 -33 146 l-30 142 22 5 c24 6
148 33 157 34 4 1 9 -9 13 -21z m351 12 c24 -9 26 -14 20 -43 -10 -46 -12 -47
-46 -30 -38 19 -75 6 -89 -33 -26 -69 5 -118 71 -112 35 3 40 1 45 -19 4 -13
4 -29 1 -37 -13 -33 -129 -25 -171 12 -76 68 -53 224 39 262 28 12 99 12 130
0z m-3745 -17 c0 -10 3 -28 6 -41 6 -22 5 -23 -29 -17 -30 6 -40 3 -61 -19
-30 -29 -32 -55 -11 -96 20 -38 59 -49 98 -26 16 9 31 15 32 14 1 -2 7 -18 13
-36 11 -33 11 -33 -31 -52 -113 -52 -211 14 -212 141 0 67 21 104 76 131 46
24 119 24 119 1z m467 -8 c6 -2 17 -30 23 -62 l12 -58 38 43 c41 45 50 48 99
31 l33 -12 -75 -76 c-57 -58 -78 -87 -88 -121 -17 -60 -21 -64 -63 -50 -39 13
-42 22 -25 79 10 34 -2 104 -37 224 -5 16 -1 17 33 12 21 -4 43 -8 50 -10z
m2583 -84 c18 -35 11 -48 -35 -65 -41 -16 -55 -33 -39 -49 4 -3 22 0 41 8 20
8 37 15 39 15 4 0 34 -56 34 -63 0 -2 -18 -10 -40 -17 -39 -13 -47 -24 -32
-47 5 -8 20 -6 56 10 47 20 49 20 62 2 27 -37 17 -49 -76 -87 l-90 -37 -16 37
c-55 129 -94 235 -89 241 7 7 156 70 167 71 4 0 12 -9 18 -19z m-2244 -32 c63
-30 70 -42 44 -79 l-22 -31 -34 31 c-19 16 -39 30 -44 30 -24 0 -16 -24 25
-70 51 -58 54 -74 23 -120 -40 -59 -110 -57 -191 4 -35 27 -35 27 -19 57 9 16
21 29 26 29 4 0 24 -13 43 -30 33 -29 73 -40 73 -20 0 6 -17 29 -38 53 -49 54
-55 71 -38 112 25 58 78 71 152 34z m322 -163 c6 -6 -21 -66 -29 -66 -6 0 -23
7 -39 15 l-28 15 -52 -95 c-28 -52 -53 -95 -56 -95 -5 0 -66 30 -72 35 -2 2
18 45 45 96 26 52 49 97 51 100 1 3 -13 13 -33 22 l-35 17 17 35 17 35 105
-56 c58 -31 107 -57 109 -58z m1692 78 c15 -37 13 -44 -13 -44 -37 0 -67 -27
-67 -61 0 -42 26 -88 54 -95 25 -6 86 19 86 36 0 19 16 10 34 -20 21 -37 13
-51 -45 -81 -59 -30 -111 -25 -155 13 -91 80 -84 207 16 259 49 27 78 24 90
-7z m678 14 c34 -34 -6 -90 -48 -68 -35 19 -20 80 20 80 9 0 21 -5 28 -12z
m349 -54 c12 -19 11 -24 -6 -45 -16 -21 -22 -22 -45 -11 -17 8 -26 19 -26 35
0 48 50 62 77 21z m-1137 -286 c0 -3 -16 -16 -35 -28 -34 -21 -37 -21 -55 -5
-18 16 -23 16 -57 3 -32 -12 -38 -19 -38 -43 -1 -22 -7 -32 -30 -41 -17 -7
-35 -13 -41 -14 -8 0 -35 224 -34 293 0 11 16 25 43 38 l42 19 102 -107 c57
-60 103 -111 103 -115z m-1420 153 c0 -28 -38 -282 -42 -287 -3 -2 -22 2 -44
10 -35 12 -39 17 -36 43 2 26 -2 32 -38 48 -38 17 -41 17 -60 0 -18 -17 -21
-17 -56 0 l-37 17 113 113 113 113 43 -21 c24 -11 44 -28 44 -36z m2560 -103
c49 -25 85 -49 85 -58 0 -29 -50 -35 -142 -16 -49 9 -118 20 -155 24 l-67 7
36 56 35 57 61 -14 c34 -8 100 -33 147 -56z m-3792 19 l30 -43 -116 -13 c-64
-7 -136 -15 -158 -18 -23 -3 -52 1 -65 7 -22 12 -22 13 -4 26 30 22 210 77
271 83 6 1 25 -18 42 -42z m1381 32 c17 -6 31 -14 31 -18 0 -4 -13 -47 -30
-96 -16 -49 -30 -94 -30 -100 0 -7 15 -16 33 -21 25 -8 33 -16 35 -38 6 -46
-9 -50 -92 -26 -42 13 -79 27 -83 32 -8 15 79 278 92 278 7 0 26 -5 44 -11z
m830 -99 c30 -98 31 -99 83 -85 23 6 29 3 42 -24 9 -16 16 -32 16 -35 0 -5
-154 -56 -169 -56 -8 0 -96 279 -90 284 12 9 75 22 81 17 4 -4 21 -49 37 -101z
m-164 -70 c36 -71 65 -133 65 -138 0 -4 -18 -13 -41 -19 -38 -10 -41 -9 -51
13 -12 25 -25 28 -77 18 -24 -5 -31 -12 -31 -29 0 -15 -8 -25 -22 -29 -25 -6
-68 -8 -68 -3 0 2 14 71 30 152 17 81 30 149 30 151 0 4 41 11 72 13 26 1 32
-8 93 -129z m-296 99 c36 -13 61 -53 61 -98 0 -46 -45 -91 -97 -98 -41 -5 -42
-6 -45 -47 -3 -41 -3 -41 -45 -44 l-43 -3 0 150 0 151 69 0 c37 0 82 -5 100
-11z m-1651 -75 c25 -17 29 -42 8 -50 -8 -3 -34 0 -57 6 -24 7 -72 12 -106 12
-60 0 -63 1 -63 24 0 24 1 24 98 24 72 0 103 -4 120 -16z m3554 -10 c4 -3 8
-13 8 -23 0 -16 -10 -18 -82 -20 -46 -1 -99 -2 -118 -4 -29 -2 -35 1 -35 18 0
31 56 46 144 39 41 -3 78 -7 83 -10z"/>
<path d="M790 892 c0 -11 -3 -28 -6 -37 -6 -13 -1 -16 22 -13 25 3 29 7 29 33
0 23 -5 31 -22 33 -17 3 -23 -2 -23 -16z"/>
<path d="M3091 500 c0 -14 4 -33 7 -43 6 -15 10 -16 26 -4 17 13 17 15 -8 43
l-25 29 0 -25z"/>
<path d="M1757 488 c-25 -32 -22 -47 9 -48 10 0 28 69 20 78 -2 1 -15 -12 -29
-30z"/>
<path d="M2587 363 c-4 -3 -7 -21 -7 -39 0 -27 3 -31 20 -27 24 6 23 3 7 42
-7 17 -16 28 -20 24z"/>
<path d="M2320 355 c0 -32 3 -36 23 -33 17 2 22 10 22 33 0 23 -5 31 -22 33
-20 3 -23 -1 -23 -33z"/>
</g>
</svg>
