<?xml version="1.0" encoding="UTF-8" standalone="no"?>
<svg
   xmlns:dc="http://purl.org/dc/elements/1.1/"
   xmlns:cc="http://creativecommons.org/ns#"
   xmlns:rdf="http://www.w3.org/1999/02/22-rdf-syntax-ns#"
   xmlns:svg="http://www.w3.org/2000/svg"
   xmlns="http://www.w3.org/2000/svg"
   xmlns:sodipodi="http://sodipodi.sourceforge.net/DTD/sodipodi-0.dtd"
   xmlns:inkscape="http://www.inkscape.org/namespaces/inkscape"
   id="Layer_1"
   data-name="Layer 1"
   viewBox="0 0 366.09 374.63"
   version="1.1"
   sodipodi:docname="everton-logo-escudo.svg"
   inkscape:version="0.92.2 (5c3e80d, 2017-08-06)">
  <metadata
     id="metadata343">
    <rdf:RDF>
      <cc:Work
         rdf:about="">
        <dc:format>image/svg+xml</dc:format>
        <dc:type
           rdf:resource="http://purl.org/dc/dcmitype/StillImage" />
      </cc:Work>
    </rdf:RDF>
  </metadata>
  <sodipodi:namedview
     pagecolor="#ffffff"
     bordercolor="#666666"
     borderopacity="1"
     objecttolerance="10"
     gridtolerance="10"
     guidetolerance="10"
     inkscape:pageopacity="0"
     inkscape:pageshadow="2"
     inkscape:window-width="1600"
     inkscape:window-height="837"
     id="namedview341"
     showgrid="false"
     inkscape:zoom="0.62995488"
     inkscape:cx="183.045"
     inkscape:cy="187.315"
     inkscape:window-x="-8"
     inkscape:window-y="-8"
     inkscape:window-maximized="1"
     inkscape:current-layer="Layer_1" />
  <defs
     id="defs4">
    <style
       id="style2">.cls-1{fill:#039;}.cls-2{fill:#fff;}.cls-3{fill:#014593;}</style>
  </defs>
  <title
     id="title6">efc crest</title>
  <path
     class="cls-1"
     d="M366,236.06a.74.74,0,0,0-.41-.39l-22.8-8.77a20,20,0,0,1,2.81-6.06L357.38,226a3,3,0,0,0,3.78-1.24,22,22,0,0,0,2-3.89,12.5,12.5,0,0,0,.76-8.08,8.44,8.44,0,0,0-5-5.37L327.55,193l-.2-.09,0,0a8.58,8.58,0,0,0-6.22-.25q0-1.44,0-2.91c0-2.48-.09-5-.23-7.58s-.38-5.34-.68-8a145,145,0,0,0-7-31.82l-.51-1.42c-6.14-17.19-11-30.77-10.88-47,.09-12.23,15.4-29.43,21.29-35l5.51-5.23L270.52.74l-4.58,3c-10.64,7-24.4,10.84-38.75,10.84-15.05,0-29.3-4.17-40.11-11.75L183,0,179,2.84c-10.81,7.58-25.05,11.75-40.1,11.75-14.35,0-28.12-3.85-38.75-10.84l-4.58-3L43.07,48.55l-5.61,5.11L43,58.89c5.89,5.6,21.2,22.8,21.29,35,.12,16.24-4.73,29.82-10.88,47l-.51,1.42a145.06,145.06,0,0,0-7,31.82c-.3,2.7-.53,5.4-.68,8s-.22,5.09-.23,7.57c0,1,0,1.94,0,2.9a8.57,8.57,0,0,0-6.19.26l0,0-.2.09L7.15,207.44a8.44,8.44,0,0,0-5,5.37,12.5,12.5,0,0,0,.76,8.08,22,22,0,0,0,2,3.89A3,3,0,0,0,8.7,226l11.76-5.19a20.07,20.07,0,0,1,2.81,6.06L.47,235.67a.74.74,0,0,0-.41.39.73.73,0,0,0,0,.57l1.37,3.44A195.56,195.56,0,0,0,170.79,362.78l11.74,11.63a.75.75,0,0,0,1,0l11.74-11.63h0A195.57,195.57,0,0,0,364.66,240.06l1.38-3.44A.73.73,0,0,0,366,236.06ZM97,292.12a151.67,151.67,0,0,1-47.38-53.45l5.62-2c.18.34.35.68.53,1a73.16,73.16,0,0,0,4.11,6.64l.6.9.11.16c25.24,37.86,62.41,61.48,104.69,66.53l6.76,6.76A149.85,149.85,0,0,1,97,292.12Zm172.06,0A149.84,149.84,0,0,1,194,318.66l6.77-6.76c42.28-5.05,79.45-28.67,104.69-66.53l.1-.16.61-.9a73.4,73.4,0,0,0,4.11-6.63c.19-.34.36-.68.54-1l5.63,2A151.67,151.67,0,0,1,269.07,292.12Z"
     id="path8"
     inkscape:export-xdpi="13.11204"
     inkscape:export-ydpi="13.11204" />
  <path
     class="cls-2"
     d="M321,194.27a7.4,7.4,0,0,1,2.83-.59,7.14,7.14,0,0,1,2.83.6l.21.1,31.42,14.41a7,7,0,0,1,4.16,4.44,11.53,11.53,0,0,1-.72,7.14A20.9,20.9,0,0,1,359.9,224a1.52,1.52,0,0,1-1.92.66L345.12,219l-.35.48a21.45,21.45,0,0,0-3.35,6.88l-2.09-.81a23.49,23.49,0,0,1,3.2-6.75l.5-.73-14.92-6.57a1.47,1.47,0,0,1-.8-1.85l.25-.59a14.46,14.46,0,0,0,1.24-8.22,6,6,0,0,0-2.82-4.49l-.19-.09a4.67,4.67,0,0,0-1.87-.39,5.78,5.78,0,0,0-3,.91C321,196,321,195.12,321,194.27Z"
     id="path10"
     inkscape:export-xdpi="13.11204"
     inkscape:export-ydpi="13.11204" />
  <path
     class="cls-2"
     d="M47.41,182.32c.15-2.59.37-5.25.67-7.91A142.76,142.76,0,0,1,55,143.09l.51-1.42c6.22-17.4,11.13-31.14,11-47.78-.1-13-15.9-30.85-22-36.63l-3.76-3.58,3.84-3.5L95.76,3.56,98.9,5.62c11,7.22,25.19,11.2,40,11.2,15.51,0,30.2-4.32,41.38-12.15L183,2.72l2.77,1.94C197,12.5,211.68,16.82,227.19,16.82c14.78,0,29-4,40-11.2l3.13-2.06,55,50.14-3.77,3.58c-6.08,5.78-21.89,23.62-22,36.63-.12,16.64,4.79,30.38,11,47.78l.51,1.42A142.75,142.75,0,0,1,318,174.41c.29,2.65.52,5.31.67,7.91s.22,5,.23,7.46c.07,18.15-3.48,33.91-10.56,46.82a71.09,71.09,0,0,1-4,6.43l-.63.94-.11.16c-24.95,37.42-61.69,60.72-103.47,65.6l-.38,0L183,326.48l-16.71-16.71-.38,0c-41.78-4.88-78.53-28.17-103.48-65.6l-.11-.16-.63-.93a70.82,70.82,0,0,1-4-6.43c-7.07-12.91-10.62-28.67-10.55-46.82C47.19,187.34,47.27,184.83,47.41,182.32Z"
     id="path12"
     inkscape:export-xdpi="13.11204"
     inkscape:export-ydpi="13.11204" />
  <path
     class="cls-2"
     d="M21.32,219.48,21,219,8.1,224.68A1.52,1.52,0,0,1,6.19,224a20.86,20.86,0,0,1-1.87-3.66,11.54,11.54,0,0,1-.72-7.14,7,7,0,0,1,4.16-4.44l31.42-14.41.21-.1a7.14,7.14,0,0,1,2.83-.6,7.41,7.41,0,0,1,2.8.58q0,1.27.1,2.53a5.76,5.76,0,0,0-3-.89,4.67,4.67,0,0,0-1.87.39l-.19.09a6,6,0,0,0-2.82,4.49,14.45,14.45,0,0,0,1.24,8.22l.25.59a1.47,1.47,0,0,1-.8,1.85l-14.92,6.57.5.73a23.49,23.49,0,0,1,3.2,6.75l-2.1.81A21.43,21.43,0,0,0,21.32,219.48Z"
     id="path14"
     inkscape:export-xdpi="13.11204"
     inkscape:export-ydpi="13.11204" />
  <path
     class="cls-2"
     d="M363.28,239.52A194.08,194.08,0,0,1,194.93,361.33a.75.75,0,0,0-.48.21L183,372.85l-11.41-11.31a.75.75,0,0,0-.48-.21A194.08,194.08,0,0,1,2.8,239.52l-1.1-2.75,43.24-16.62a2.45,2.45,0,0,1,3,.93l0,.07a10.79,10.79,0,0,0,1.66,2q.54,1.71,1.15,3.37a10.47,10.47,0,0,1-4.5-3.95l-.15-.23h0a.4.4,0,0,0-.49-.15h0l-3.06,1.18L41.2,224l.25.64.29.71q1.92,4.71,4.13,9.25l.65,1.33,1.4-.5,5.66-2q.47,1,1,2l-5.62,2-1.4.5c.23.44.46.88.69,1.31a153.15,153.15,0,0,0,47.93,54.15,151.37,151.37,0,0,0,77.46,26.9L176,322.6a153.7,153.7,0,0,1-81.14-27.44,155.36,155.36,0,0,1-55.5-69.74l-.26-.64L4.65,238l.26.65A191.81,191.81,0,0,0,172.43,359.15l10.12,10,.5.48,10.62-10.53A191.81,191.81,0,0,0,361.18,238.69l.26-.65L327,224.79l-.25.64a155.37,155.37,0,0,1-55.5,69.74,153.71,153.71,0,0,1-81.18,27.44l2.38-2.38a151.37,151.37,0,0,0,77.49-26.9,153.13,153.13,0,0,0,47.93-54.15l.69-1.31-1.41-.5-5.64-2q.5-1,1-2l5.68,2,1.4.5.65-1.33q2.21-4.54,4.13-9.25l.29-.71.25-.64-1.38-.53-3.06-1.18h0a.4.4,0,0,0-.49.15h0l-.15.23a10.45,10.45,0,0,1-4.53,4c.4-1.1.78-2.21,1.14-3.35a10.85,10.85,0,0,0,1.7-2.07l0-.07a2.45,2.45,0,0,1,3-.93l43.25,16.63Z"
     id="path16"
     inkscape:export-xdpi="13.11204"
     inkscape:export-ydpi="13.11204" />
  <path
     class="cls-2"
     d="M183.92,347.58a.61.61,0,0,1,.62.68l0,1.37a.57.57,0,0,1-.58.59l-6.71-.1a.62.62,0,0,1-.64-.58l0-1.4a.6.6,0,0,1,.66-.66l1.2,0,.19-12.69-1.38,0a.61.61,0,0,1-.62-.68l0-1.37a.57.57,0,0,1,.59-.59l7,.1a.62.62,0,0,1,.64.58l0,1.4a.6.6,0,0,1-.66.66l-1.41,0-.19,12.69Z"
     id="path18"
     inkscape:export-xdpi="13.11204"
     inkscape:export-ydpi="13.11204" />
  <path
     class="cls-2"
     d="M170.9,332.76l-2,16.25c-.08.67-.38.76-.85.7l-2.2-.27a1.35,1.35,0,0,1-1.07-.71l-6.45-11.15h-.05l-1.25,10c-.07.57-.36.74-.87.68l-2.41-.3c-.6-.07-.84-.23-.76-.85l2-16.3c.08-.67.41-.76,1-.69l2.18.27a1.14,1.14,0,0,1,1,.67l6.44,11.23h.05l1.26-10.08c.07-.56.38-.71.9-.65l2.51.31C170.94,332,170.95,332.32,170.9,332.76Z"
     id="path20"
     inkscape:export-xdpi="13.11204"
     inkscape:export-ydpi="13.11204" />
  <path
     class="cls-2"
     d="M134.1,331.45l2.48,2.15c1.7,1.48,2.57,3.2,1.89,5.46-1.08,3.57-4.59,4.8-8,3.77a17.44,17.44,0,0,1-5-2.46c-.36-.24-.43-.45-.37-.68a1.56,1.56,0,0,1,.23-.39l1.29-1.81a.57.57,0,0,1,.67-.31,1.09,1.09,0,0,1,.39.23,11.69,11.69,0,0,0,3.67,1.93c1.05.31,2.54.16,2.91-1.05.29-.94-.32-1.64-1-2.22l-2.89-2.54a5,5,0,0,1-1.72-5.38c1-3.17,4.71-4,7.63-3.13a12.62,12.62,0,0,1,4.63,2.46c.35.29.44.51.38.73a1.42,1.42,0,0,1-.21.34l-1.36,1.7c-.22.29-.41.36-.63.3a1.28,1.28,0,0,1-.41-.26,9.81,9.81,0,0,0-3.16-1.81c-1-.3-2.24-.26-2.59.9C132.71,330.19,133.56,331,134.1,331.45Z"
     id="path22"
     inkscape:export-xdpi="13.11204"
     inkscape:export-ydpi="13.11204" />
  <path
     class="cls-2"
     d="M119.39,335.94a.61.61,0,0,1,.33.86l-.52,1.27a.57.57,0,0,1-.76.34l-6.23-2.49a.61.61,0,0,1-.39-.77l.53-1.3a.6.6,0,0,1,.86-.38l1.11.45,4.79-11.77-1.28-.51a.61.61,0,0,1-.33-.86l.52-1.27a.57.57,0,0,1,.76-.34l6.49,2.6a.61.61,0,0,1,.39.77l-.53,1.3a.6.6,0,0,1-.86.38l-1.31-.52-4.79,11.77Z"
     id="path24"
     inkscape:export-xdpi="13.11204"
     inkscape:export-ydpi="13.11204" />
  <path
     class="cls-2"
     d="M100,313.69c-.46-.24-.53-.57-.28-1l.9-1.7a.6.6,0,0,1,.93-.25l11.27,5.84,1.18.61c.42.22.48.48.32.78l0,.09-1.14,1.72c-.29.43-.65.39-1.13.14l-4.07-2.11-6.52,12.37c-.27.51-.38.56-.85.32l-2.62-1.36c-.49-.25-.5-.34-.24-.83l6.55-12.42Z"
     id="path26"
     inkscape:export-xdpi="13.11204"
     inkscape:export-ydpi="13.11204" />
  <path
     class="cls-2"
     d="M95.25,306.76,93,305.3a.88.88,0,0,0-1.1.06L77.56,315.91a.66.66,0,0,0-.21.23.38.38,0,0,0,.12.57l2.5,1.61a.78.78,0,0,0,1-.1l2.59-2,.77.49,3.85,2.49.79.51-.78,3.08a.93.93,0,0,0,.45,1.16l2.45,1.58a.49.49,0,0,0,.74-.14A1.28,1.28,0,0,0,92,325l3.76-17.26A.9.9,0,0,0,95.25,306.76Zm-4.11,4.55-1.43,5.17-3.59-2.32,4.17-3.36c.45-.36.87-.71,1.23-1l0,0C91.45,310.23,91.31,310.73,91.15,311.3Z"
     id="path28"
     inkscape:export-xdpi="13.11204"
     inkscape:export-ydpi="13.11204" />
  <path
     class="cls-2"
     d="M73.88,305.11l-1.7-3.43a5,5,0,0,1,.46-5.63c2.1-2.58,5.88-1.94,8.26,0a12.49,12.49,0,0,1,3.34,4c.21.4.22.64.07.82a1.45,1.45,0,0,1-.33.24l-1.91,1.07c-.32.18-.52.18-.7,0a1.27,1.27,0,0,1-.28-.39,9.68,9.68,0,0,0-2.24-2.86c-.81-.65-2-1.08-2.74-.14-.53.64,0,1.7.29,2.33L77.88,304c1,2,1.16,3.93-.33,5.76-2.37,2.9-6.08,2.72-8.86.49A17.33,17.33,0,0,1,65,306.16c-.24-.36-.23-.58-.08-.77a1.55,1.55,0,0,1,.36-.28l1.88-1.19a.57.57,0,0,1,.74,0,1.08,1.08,0,0,1,.28.36,11.58,11.58,0,0,0,2.66,3.17c.85.68,2.29,1.11,3.09.12A2.11,2.11,0,0,0,73.88,305.11Z"
     id="path30"
     inkscape:export-xdpi="13.11204"
     inkscape:export-ydpi="13.11204" />
  <path
     class="cls-2"
     d="M56,293.82a.66.66,0,0,1-.06,1l-1.46,1.33a.69.69,0,0,1-1.09-.06l-6.72-7.24c-.37-.4-.47-.7,0-1.17L58.89,276.6a.65.65,0,0,1,1,0l1.79,1.92c.39.42.4.69,0,1.1L51.49,289Z"
     id="path32"
     inkscape:export-xdpi="13.11204"
     inkscape:export-ydpi="13.11204" />
  <path
     class="cls-2"
     d="M43.05,280.48a.61.61,0,0,1-.16.9l-1.1.84a.57.57,0,0,1-.83-.09l-4.09-5.28a.61.61,0,0,1,.06-.86l1.12-.85a.6.6,0,0,1,.94.1l.73.95,10.15-7.73L49,267.37a.61.61,0,0,1,.16-.9l1.1-.84a.57.57,0,0,1,.83.09l4.26,5.51a.61.61,0,0,1-.06.86l-1.12.85a.6.6,0,0,1-.94-.1l-.86-1.11-10.15,7.73Z"
     id="path34"
     inkscape:export-xdpi="13.11204"
     inkscape:export-ydpi="13.11204" />
  <path
     class="cls-2"
     d="M35.42,255l-8.65,5.28a.68.68,0,0,1-1.08-.26L24.42,258c-.32-.51-.34-.8.19-1.12l14.1-8.61c.58-.35.85-.16,1.14.31L41,250.39a1.13,1.13,0,0,1,.09,1.19l-4.82,12,0,0L45,258.3c.49-.3.8-.15,1.07.29l1.33,2.14c.36.57.07.81-.31,1l-14.06,8.58c-.58.35-.84.18-1.09-.22l-1.16-1.87a1.33,1.33,0,0,1-.11-1.27l4.75-12Z"
     id="path36"
     inkscape:export-xdpi="13.11204"
     inkscape:export-ydpi="13.11204" />
  <path
     class="cls-2"
     d="M194.56,336.59c.07.83,1.15,1.26,1.82,1.49l3.1,1.11c2.13.77,3.57,2.06,3.76,4.41.3,3.72-2.52,6.12-6.09,6.4a17.52,17.52,0,0,1-5.51-.5c-.43-.1-.57-.27-.59-.5a1.53,1.53,0,0,1,.07-.45l.54-2.15c.06-.26.17-.51.51-.53a1.09,1.09,0,0,1,.45.07,11.77,11.77,0,0,0,4.13.48c1.09-.09,2.43-.76,2.33-2-.08-1-.9-1.41-1.73-1.71l-3.62-1.33a5,5,0,0,1-3.57-4.39c-.27-3.3,2.92-5.43,6-5.67a12.68,12.68,0,0,1,5.21.63c.43.15.6.32.62.55a1.45,1.45,0,0,1-.07.4l-.65,2.08c-.1.35-.25.49-.48.51a1.32,1.32,0,0,1-.48-.09,9.84,9.84,0,0,0-3.61-.55C195.6,334.9,194.46,335.38,194.56,336.59Z"
     id="path38"
     inkscape:export-xdpi="13.11204"
     inkscape:export-ydpi="13.11204" />
  <path
     class="cls-2"
     d="M215.64,344.57l1.29-.22a.61.61,0,0,1,.73.56l.24,1.35a.57.57,0,0,1-.46.68l-6.61,1.14a.62.62,0,0,1-.74-.45l-.24-1.38a.6.6,0,0,1,.53-.77l1.18-.2-2.19-12.5L208,333a.62.62,0,0,1-.73-.56L207,331.1a.56.56,0,0,1,.46-.68l6.9-1.19a.62.62,0,0,1,.74.45l.24,1.38a.6.6,0,0,1-.53.77l-1.39.24Z"
     id="path40"
     inkscape:export-xdpi="13.11204"
     inkscape:export-ydpi="13.11204" />
  <path
     class="cls-2"
     d="M245.84,329.54c-1.69-5-5.58-7.92-10.75-6.19-4.92,1.65-6.67,6.33-4.88,11.58s5.78,7.85,10.75,6.19C245.61,339.56,247.71,335.06,245.84,329.54ZM240,337.76c-2.35.79-4.26-.46-5.58-4.34-1.23-3.63-.42-6,1.74-6.73,2.35-.78,4.2.37,5.55,4.32S242.13,337,240,337.76Z"
     id="path42"
     inkscape:export-xdpi="13.11204"
     inkscape:export-ydpi="13.11204" />
  <path
     class="cls-2"
     d="M277.32,323.16c.29.49.28.62-.17.88l-2.53,1.5c-.47.28-.56.24-.84-.23l-7.24-12-4.1,2.43c-.45.27-.76.15-1-.3l-1-1.64a.59.59,0,0,1,.27-.91l10.92-6.47,1.14-.68c.4-.24.67-.15.84.13l.05.09.88,1.86c.22.47,0,.75-.47,1l-3.95,2.34Z"
     id="path44"
     inkscape:export-xdpi="13.11204"
     inkscape:export-ydpi="13.11204" />
  <path
     class="cls-2"
     d="M290.63,311.76l1-.77a.62.62,0,0,1,.91.17l.82,1.1a.56.56,0,0,1-.11.82l-5.4,4A.62.62,0,0,1,287,317l-.84-1.12a.59.59,0,0,1,.12-.93l1-.71L279.68,304l-1.11.82a.62.62,0,0,1-.91-.17l-.82-1.1a.56.56,0,0,1,.11-.82l5.63-4.12a.62.62,0,0,1,.87.07l.84,1.13a.59.59,0,0,1-.12.93l-1.13.83Z"
     id="path46"
     inkscape:export-xdpi="13.11204"
     inkscape:export-ydpi="13.11204" />
  <path
     class="cls-2"
     d="M298.35,285.94a1,1,0,0,1,.31-1.23l1.34-1.23c.38-.35.64-.34,1,0L312.92,295l.05.06a.62.62,0,0,1,0,1L311,297.84c-.5.46-.84.31-1.36-.2l-6.29-6.33,0,0,3.52,9.54a.81.81,0,0,1-.26,1l-.71.65a1,1,0,0,1-1.17.27L295,299l0,0,6.14,6.82c.5.53.3.82-.1,1.19l-1.57,1.44c-.44.4-.79.45-1.17,0l-.05-.06L287.56,296c-.41-.47-.34-.82,0-1.15l1.38-1.27a1,1,0,0,1,1.27-.21l12.25,4.72,0,0Z"
     id="path48"
     inkscape:export-xdpi="13.11204"
     inkscape:export-ydpi="13.11204" />
  <path
     class="cls-2"
     d="M318.72,276.73,311.77,271c-.4-.33-.32-.67,0-1l1.65-2c.32-.38.58-.5,1-.15l7.15,5.89c4.52,3.72,4.61,7.67,1.4,11.49-3.44,4.1-7.24,4.1-11.5.59l-7.17-5.91c-.4-.33-.31-.69,0-1l1.65-2c.32-.38.58-.5,1-.15l6.93,5.71c3.15,2.6,5,2.27,6.51.42S321.83,279.3,318.72,276.73Z"
     id="path50"
     inkscape:export-xdpi="13.11204"
     inkscape:export-ydpi="13.11204" />
  <path
     class="cls-2"
     d="M325.37,251.34a1,1,0,0,1,0-1.27l1-1.54c.28-.44.53-.5.94-.27l14.58,8,.07,0a.62.62,0,0,1,.25,1l-1.39,2.2c-.36.57-.73.52-1.36.16l-7.75-4.47,0,0,5.92,8.29a.81.81,0,0,1,0,1l-.51.81A1,1,0,0,1,336,266l-10.39-1.16,0,0,7.73,5c.62.38.51.71.22,1.17l-1.14,1.8c-.32.5-.65.64-1.11.35l-.07,0-13.57-9.25c-.52-.35-.54-.7-.28-1.12l1-1.58a1,1,0,0,1,1.17-.53L332.58,262l0,0Z"
     id="path52"
     inkscape:export-xdpi="13.11204"
     inkscape:export-ydpi="13.11204" />
  <path
     class="cls-2"
     d="M260.35,319.59a5.8,5.8,0,0,0-2.91-2.89c-1.82-.76-3.94-.36-6.69.91l-3.7,1.7c-.54.25-.64.47-.37,1.06l6.95,14.85c.26.56.6.61,1,.41l2.37-1.09c.54-.25.6-.56.41-1l-2.27-4.84c.27-.1,1-.39,1.34-.53C260.17,326.52,262.12,323.37,260.35,319.59Zm-5.2,5.74c-.19.09-1,.45-1.29.57l-2.39-5.1,1.16-.53c1.78-.82,3.17-.55,4,1.24S256.93,324.5,255.15,325.32Z"
     id="path54"
     inkscape:export-xdpi="13.11204"
     inkscape:export-ydpi="13.11204" />
  <path
     class="cls-1"
     d="M36.15,209.15a16.62,16.62,0,0,1-1-8.67c0-.19.07-.38.11-.57l.32-1.45L8.67,210.79a4.8,4.8,0,0,0-2.94,3c-.84,2.84.93,6.53,1.72,8l.33.6L36.4,209.8Z"
     id="path56"
     inkscape:export-xdpi="13.11204"
     inkscape:export-ydpi="13.11204" />
  <path
     class="cls-3"
     d="M329.94,209.15a16.62,16.62,0,0,0,1-8.67c0-.19-.07-.38-.11-.57l-.32-1.45,26.87,12.32a4.8,4.8,0,0,1,2.94,3c.84,2.84-.93,6.53-1.72,8l-.33.6L329.69,209.8Z"
     id="path58"
     inkscape:export-xdpi="13.11204"
     inkscape:export-ydpi="13.11204" />
  <path
     class="cls-1"
     d="M318.24,53.77,269.82,9.65c-11.36,7.47-26.29,12-42.63,12-17.09,0-32.62-4.94-44.16-13-11.54,8.09-27.06,13-44.16,13-16.34,0-31.26-4.53-42.63-12L47.82,53.77s23.36,22.14,23.49,40.1-5.24,32.5-11.8,50.86a139.57,139.57,0,0,0-6.64,30.22c-.28,2.49-.5,5.05-.65,7.66q-.21,3.55-.22,7.2c-.06,14.91,2.46,30.79,10,44.48a65.26,65.26,0,0,0,3.71,6c3.92,5.63,35.57,58,102.85,64.88l.24.24L183,319.65l14.27-14.27h0l.24-.24c67.27-6.83,98.93-59.26,102.85-64.88a65.66,65.66,0,0,0,3.71-6c7.5-13.7,10-29.57,10-44.48,0-2.43-.09-4.83-.22-7.2-.15-2.61-.37-5.16-.65-7.66a139.56,139.56,0,0,0-6.64-30.22c-6.55-18.35-11.93-32.9-11.79-50.86S318.24,53.77,318.24,53.77Z"
     id="path60"
     inkscape:export-xdpi="13.11204"
     inkscape:export-ydpi="13.11204" />
  <path
     class="cls-2"
     d="M150.68,96.84l29-61.69c-1.08-2.31.72-5.26,3-5.26s4.38,2.93,3.32,5.21l29.26,61.41c4.94,2.42,7.11,5.46,6.88,7.47a5.28,5.28,0,0,1-3.63,4.28c.11,11.13-.38,50.61-.19,73.14,2.46.55,2.44,3.15,2.28,11.72-.16,8.16.51,10.88-4.85,10.88-.73,0-2.14-.06-2.14-.06v-2.8c-.06-1.37-.1-1.8-.86-2.1-2.27-.9-4.66-1.72-7.3-2.73-1.83-.7-57.28-20.46-57.28-20.46a3.59,3.59,0,0,1-2.52-3.22c0-.23,0-2.37,0-3.1,0-3,0-4.81,0-7.9,0-2,1.33-2.8,2.51-2.62.08,0,.05-.22,0-.32,0-7.34-.08-45.54-.11-49.54a4.89,4.89,0,0,1-3.27-2.62C143.63,103.87,144.89,99.94,150.68,96.84Z"
     id="path62"
     inkscape:export-xdpi="13.11204"
     inkscape:export-ydpi="13.11204" />
  <path
     class="cls-1"
     d="M172.2,167c-12.4-4.3-18-6.56-18.13-10.16-.08-2.23-.38-11.48-.15-13.83l-.23-34.49c0-1,1.66-1.62,3.19-2s10.6-2.38,25.87-2.38,26,1.83,28.7,2.94a6.77,6.77,0,0,1,1.77.9l0,3c-2.6-.36-12.46-1.71-16.67-2-1.95-.13-4.48-.22-6.95-.29a1.11,1.11,0,0,0-1.07-1.08,118.8,118.8,0,0,0-12.77,0,1.11,1.11,0,0,0-.78.37,1.13,1.13,0,0,0-.29.81l.72,13.16-.58,0c-2.69.22-13.45,1.73-14.17,1.92-1,.25-1.23.53-1.13.89.14.58.91.38,1.7.29,5.35-.61,10.16-.93,14.3-1.09l.11,2.1a1.12,1.12,0,0,0,1.12,1.06h0a99.68,99.68,0,0,1,10.7,0,1.13,1.13,0,0,0,1.17-1.06l.11-2.08c1.72.08,2.64.17,2.64.17,7.68.67,17.71,2.13,22,4.74l0,3.1c-2.52-.54-9-1.88-11.37-2.07a23,23,0,0,0-4.88,0c-.5.07-.92.36-.85.74s.49.59,1.13.66,10.16.42,16,4.41l0,3.14c-3.37-.68-14.54-2.82-22.28-3.19a177,177,0,0,0-23.75.89c-1,.14-1.48.43-1.42,1s.24.77,1.63.67c1-.07,19.42-.74,29.06.66,7.86,1.14,13.28,2.45,16.8,4.13l0,4c-3.13-.64-10-2-13.45-2.26-7.23-.61-11.83-.5-12.62-.5s-1,.33-1,.77.55.54,1,.56a103.8,103.8,0,0,1,12.2,1.09c3.86.59,9.86,1.53,13.85,3.59l0,4c-2.08-.24-6.16-.69-7.88-.74a28.83,28.83,0,0,0-5,.15c-.48.11-.74.44-.68.73a.75.75,0,0,0,.82.53,61.17,61.17,0,0,1,6.6.66,24.66,24.66,0,0,1,6.21,1.91s0,3.92,0,5.22c0,.15-4.46-1.39-8.87-1.67a76.78,76.78,0,0,0-10.8,0c-.28,0-1.12.17-1.1.9s.93.65,1.37.67c2.28.08,4.15,0,8.15.39a46.16,46.16,0,0,1,11.3,2.56c0,1.6,0,3,0,5,0,.07-2.5-.71-6.4-1.23a37.35,37.35,0,0,0-5.46-.42c-.71.06-1.38.19-1.41.84,0,.93,1.6.95,2.18,1s2.33.19,5.34.68a38.92,38.92,0,0,1,5.75,1.42c0,4.12,0,7.44,0,7.44C201.52,176.89,185.17,171.83,172.2,167Z"
     id="path64"
     inkscape:export-xdpi="13.11204"
     inkscape:export-ydpi="13.11204" />
  <path
     class="cls-1"
     d="M183.12,41.91l3.22,6.87a31.75,31.75,0,0,0-4.29.51c-.75.17-.88.44-.88.7s.3.61,1.08.63c1.61,0,3.88.14,5.05.21.35.73.69,1.48,1,2.23-.84.25-2,.61-2.38.75-.53.21-1.08.41-1,.8s.61.39,1.07.46a27.23,27.23,0,0,0,3.38.2l1.6,3.43c.37.79-.74,1-1.69,1-1.12.08-4,.07-5.33.25-.54.07-.74.35-.74.66s.4.54.91.57a51.33,51.33,0,0,1,5.63.55,21,21,0,0,1,3,.75c.38.79.73,1.57,1.09,2.35.21.45-.4.67-.84.71-.73.06-4-.14-5.73,0-.77.08-.93.26-.93.65s.14.45.89.58c1.38.22,4.18.34,5.06.48a13.82,13.82,0,0,1,3.12.89L197,71.51c.24.52-.09.69-.42.72-.51,0-6.41.11-6.91.14s-1.28.21-1.37.7.44.92,1.8,1,6.52.38,9.18,2.29l2.09,4.47c-2-.19-9-.78-12.21-.69-2.75.08-3.89,0-4,.56s.47.81,2.21,1,10.76.7,15.59,2.58l2.51,5.35a88.91,88.91,0,0,0-12-1.47c-1.37,0-1.91.26-1.91.83s1.24.65,2.08.74a66.56,66.56,0,0,1,13.23,2.9L207.5,94a149,149,0,0,0-24.77-2.5,122.42,122.42,0,0,0-24.06,2.65C161,89.21,175.34,58.52,183.12,41.91Z"
     id="path66"
     inkscape:export-xdpi="13.11204"
     inkscape:export-ydpi="13.11204" />
  <path
     class="cls-3"
     d="M203,180l-6.26-1.89a.32.32,0,0,0-.45.32c0,4.38,0,6.62,0,10.8a.69.69,0,0,0,.45.6L203,192a.31.31,0,0,0,.45-.29c0-4.2,0-6.51,0-11.09A.68.68,0,0,0,203,180Z"
     id="path68"
     inkscape:export-xdpi="13.11204"
     inkscape:export-ydpi="13.11204" />
  <path
     class="cls-3"
     d="M192.53,176.84c-2.51-.78-3.76-1.17-6.28-2a.31.31,0,0,0-.45.29c0,4.16,0,6.31,0,10.45a.68.68,0,0,0,.45.59l6.27,2.19c.25.09.45,0,.45-.28,0-4.16,0-6.38,0-10.68A.66.66,0,0,0,192.53,176.84Z"
     id="path70"
     inkscape:export-xdpi="13.11204"
     inkscape:export-ydpi="13.11204" />
  <path
     class="cls-3"
     d="M171.52,169.91c-2.52-.88-3.78-1.33-6.3-2.24-.25-.09-.45,0-.45.26,0,4,0,6.11,0,10.24a.69.69,0,0,0,.45.59L171.5,181c.25.09.45,0,.45-.28,0-4.12,0-6.2,0-10.23A.68.68,0,0,0,171.52,169.91Z"
     id="path72"
     inkscape:export-xdpi="13.11204"
     inkscape:export-ydpi="13.11204" />
  <path
     class="cls-3"
     d="M161,166.13c-2.52-.93-3.78-1.39-6.29-2.34-.25-.09-.45,0-.45.27v10.45a.68.68,0,0,0,.45.59c2.51.86,3.77,1.3,6.29,2.17.25.09.45,0,.45-.28,0-4.14,0-6.21,0-10.28A.7.7,0,0,0,161,166.13Z"
     id="path74"
     inkscape:export-xdpi="13.11204"
     inkscape:export-ydpi="13.11204" />
  <path
     class="cls-3"
     d="M182,173.48c-2.51-.83-3.77-1.25-6.29-2.11-.25-.08-.45,0-.45.27,0,4,0,6.13,0,10.25a.69.69,0,0,0,.45.6l6.29,2.22c.25.09.45,0,.45-.28,0-4.13,0-6.26,0-10.37A.67.67,0,0,0,182,173.48Z"
     id="path76"
     inkscape:export-xdpi="13.11204"
     inkscape:export-ydpi="13.11204" />
  <path
     class="cls-3"
     d="M199.14,115.59a34.62,34.62,0,0,1,6.46.36c2.48.33,6.05,1.1,7.72,1.49l0-2.87c-3.39-1.4-11.16-2.79-15.33-3.34-2.59-.34-5.57-.62-8.41-.82l-.61,11.16,2.48.05c1.89.08,3.83.2,5.77.39a122.79,122.79,0,0,1,16.23,2.75l-.05-4C209.15,117.24,199.55,117,199,117s-1.12-.15-1.13-.66S198.57,115.66,199.14,115.59Z"
     id="path78"
     inkscape:export-xdpi="13.11204"
     inkscape:export-ydpi="13.11204" />
  <path
     class="cls-1"
     d="M153.86,104c1.3-.31,11-3.79,28.88-3.79s28.48,3.84,29.76,4.42,2.69,1,3.28,0a2.39,2.39,0,0,0-1.1-3c-3.87-2.49-17.58-5.59-31.94-5.45S154,99.48,152,100.32s-2.84,2-2.18,3.2C150.79,105.38,152.58,104.36,153.86,104Z"
     id="path80"
     inkscape:export-xdpi="13.11204"
     inkscape:export-ydpi="13.11204" />
  <path
     class="cls-3"
     d="M213.45,183.13l-6.25-1.86a.34.34,0,0,0-.45.36c0,4.68,0,7,0,11.24a.69.69,0,0,0,.45.6l6.28,2.18a.31.31,0,0,0,.45-.29V183.79A.71.71,0,0,0,213.45,183.13Z"
     id="path82"
     inkscape:export-xdpi="13.11204"
     inkscape:export-ydpi="13.11204" />
  <path
     class="cls-3"
     d="M179.11,124.88c3.27-.07,7.37,0,7.37,0l.77-14.39c-3.41-.21-9,.07-9,.07Z"
     id="path84"
     inkscape:export-xdpi="13.11204"
     inkscape:export-ydpi="13.11204" />
  <path
     class="cls-2"
     d="M136.57,76.2a7.09,7.09,0,0,0-5.13,1.27,8.34,8.34,0,0,0-3.55,4.3A7.1,7.1,0,0,0,133,80.5,8.34,8.34,0,0,0,136.57,76.2Z"
     id="path86"
     inkscape:export-xdpi="13.11204"
     inkscape:export-ydpi="13.11204" />
  <path
     class="cls-2"
     d="M129.07,50.05a9.25,9.25,0,0,0-1.56-5.57,7.87,7.87,0,0,0-4.14-3.58,9.25,9.25,0,0,0,1.55,5.57A7.87,7.87,0,0,0,129.07,50.05Z"
     id="path88"
     inkscape:export-xdpi="13.11204"
     inkscape:export-ydpi="13.11204" />
  <path
     class="cls-2"
     d="M129.16,56.88A8.41,8.41,0,0,0,130.32,62a7.2,7.2,0,0,0,3.56,3.43,8.39,8.39,0,0,0-1.15-5.08A7.2,7.2,0,0,0,129.16,56.88Z"
     id="path90"
     inkscape:export-xdpi="13.11204"
     inkscape:export-ydpi="13.11204" />
  <path
     class="cls-2"
     d="M131.91,52.42a9.29,9.29,0,0,0,1.28-5.66,9.11,9.11,0,0,0-1.87-5.46A9.31,9.31,0,0,0,130,47,9.13,9.13,0,0,0,131.91,52.42Z"
     id="path92"
     inkscape:export-xdpi="13.11204"
     inkscape:export-ydpi="13.11204" />
  <path
     class="cls-2"
     d="M134.59,63.38a8.13,8.13,0,0,0,3.75-4.08,9.39,9.39,0,0,0,1-5.74,8.15,8.15,0,0,0-3.76,4.08A9.39,9.39,0,0,0,134.59,63.38Z"
     id="path94"
     inkscape:export-xdpi="13.11204"
     inkscape:export-ydpi="13.11204" />
  <path
     class="cls-2"
     d="M127.68,54.42a6.57,6.57,0,0,0,4.39,1.92A7.85,7.85,0,0,0,129.46,52a6.57,6.57,0,0,0-4.39-1.92A7.83,7.83,0,0,0,127.68,54.42Z"
     id="path96"
     inkscape:export-xdpi="13.11204"
     inkscape:export-ydpi="13.11204" />
  <path
     class="cls-2"
     d="M133.61,59A8.91,8.91,0,0,0,136,53.86a9.41,9.41,0,0,0-.7-5.79,8.91,8.91,0,0,0-2.41,5.19A9.4,9.4,0,0,0,133.61,59Z"
     id="path98"
     inkscape:export-xdpi="13.11204"
     inkscape:export-ydpi="13.11204" />
  <path
     class="cls-2"
     d="M140.16,69.49A7.1,7.1,0,0,0,135,70.77a8.31,8.31,0,0,0-3.55,4.3,7.09,7.09,0,0,0,5.12-1.27A8.33,8.33,0,0,0,140.16,69.49Z"
     id="path100"
     inkscape:export-xdpi="13.11204"
     inkscape:export-ydpi="13.11204" />
  <path
     class="cls-2"
     d="M137.41,67.62a9.13,9.13,0,0,0,2-5.4A7.65,7.65,0,0,0,135,65.38a9.12,9.12,0,0,0-2,5.4A7.67,7.67,0,0,0,137.41,67.62Z"
     id="path102"
     inkscape:export-xdpi="13.11204"
     inkscape:export-ydpi="13.11204" />
  <path
     class="cls-2"
     d="M129.2,76.28a8.89,8.89,0,0,0,2.38-5.21,9.41,9.41,0,0,0-.73-5.78,8.94,8.94,0,0,0-2.38,5.2A9.43,9.43,0,0,0,129.2,76.28Z"
     id="path104"
     inkscape:export-xdpi="13.11204"
     inkscape:export-ydpi="13.11204" />
  <path
     class="cls-2"
     d="M128.94,82.88a7.55,7.55,0,0,0-4.66,2.71,7.05,7.05,0,0,0,5.21.74,7.55,7.55,0,0,0,4.65-2.71A7,7,0,0,0,128.94,82.88Z"
     id="path106"
     inkscape:export-xdpi="13.11204"
     inkscape:export-ydpi="13.11204" />
  <path
     class="cls-2"
     d="M91.1,75.07a8.33,8.33,0,0,0-3.55-4.3,7.1,7.1,0,0,0-5.13-1.27A8.34,8.34,0,0,0,86,73.8,7.09,7.09,0,0,0,91.1,75.07Z"
     id="path108"
     inkscape:export-xdpi="13.11204"
     inkscape:export-ydpi="13.11204" />
  <path
     class="cls-2"
     d="M94.7,81.77a8.35,8.35,0,0,0-3.55-4.3A7.08,7.08,0,0,0,86,76.2a8.32,8.32,0,0,0,3.55,4.3A7.1,7.1,0,0,0,94.7,81.77Z"
     id="path110"
     inkscape:export-xdpi="13.11204"
     inkscape:export-ydpi="13.11204" />
  <path
     class="cls-2"
     d="M98.31,85.59a7.54,7.54,0,0,0-4.66-2.71,7,7,0,0,0-5.21.74,7.53,7.53,0,0,0,4.65,2.71A7,7,0,0,0,98.31,85.59Z"
     id="path112"
     inkscape:export-xdpi="13.11204"
     inkscape:export-ydpi="13.11204" />
  <path
     class="cls-2"
     d="M127.08,80.45A9.41,9.41,0,0,0,128,74.7a8.18,8.18,0,0,0-3.69,4.16,9.42,9.42,0,0,0-.88,5.75A8.17,8.17,0,0,0,127.08,80.45Z"
     id="path114"
     inkscape:export-xdpi="13.11204"
     inkscape:export-ydpi="13.11204" />
  <path
     class="cls-2"
     d="M93.74,89.47a7.1,7.1,0,0,0,5.16,1.11,7.41,7.41,0,0,0,4.8-2.38,7.1,7.1,0,0,0-5.16-1.1A7.41,7.41,0,0,0,93.74,89.47Z"
     id="path116"
     inkscape:export-xdpi="13.11204"
     inkscape:export-ydpi="13.11204" />
  <path
     class="cls-2"
     d="M103.79,87.29a7.15,7.15,0,0,0,5,1.62,8.49,8.49,0,0,0-3.3-4.54,7.18,7.18,0,0,0-5-1.62A8.47,8.47,0,0,0,103.79,87.29Z"
     id="path118"
     inkscape:export-xdpi="13.11204"
     inkscape:export-ydpi="13.11204" />
  <path
     class="cls-2"
     d="M94.62,74.7a9.42,9.42,0,0,0,.89,5.75,8.17,8.17,0,0,0,3.69,4.15,9.38,9.38,0,0,0-.89-5.75A8.17,8.17,0,0,0,94.62,74.7Z"
     id="path120"
     inkscape:export-xdpi="13.11204"
     inkscape:export-ydpi="13.11204" />
  <path
     class="cls-2"
     d="M97.66,46.47a9.25,9.25,0,0,0,1.56-5.57,7.87,7.87,0,0,0-4.15,3.58,9.27,9.27,0,0,0-1.55,5.57A7.87,7.87,0,0,0,97.66,46.47Z"
     id="path122"
     inkscape:export-xdpi="13.11204"
     inkscape:export-ydpi="13.11204" />
  <path
     class="cls-2"
     d="M94.9,54.42a7.82,7.82,0,0,0,2.61-4.37A6.55,6.55,0,0,0,93.13,52a7.8,7.8,0,0,0-2.61,4.36A6.56,6.56,0,0,0,94.9,54.42Z"
     id="path124"
     inkscape:export-xdpi="13.11204"
     inkscape:export-ydpi="13.11204" />
  <path
     class="cls-2"
     d="M123.68,90.57a7.11,7.11,0,0,0,5.16-1.11,7.42,7.42,0,0,0-4.8-2.37,7.1,7.1,0,0,0-5.16,1.1A7.41,7.41,0,0,0,123.68,90.57Z"
     id="path126"
     inkscape:export-xdpi="13.11204"
     inkscape:export-ydpi="13.11204" />
  <path
     class="cls-2"
     d="M104.93,89.79a7.62,7.62,0,0,0-4.54,2.93,7,7,0,0,0,5.24.48,7.74,7.74,0,0,0,4.45-2.8c.26.23.5.47.75.71a20.28,20.28,0,0,0-6,5.34l1.7,2.68a25.91,25.91,0,0,1,4.84-7.46,26.73,26.73,0,0,1,4.55,7.42l1.69-2.68a19.93,19.93,0,0,0-5.71-5.29q.37-.36.75-.7a7.77,7.77,0,0,0,4.44,2.77,7,7,0,0,0,5.23-.48,8.35,8.35,0,0,0-9.1-2.78,14.78,14.78,0,0,0-1.86.88c-.52-.29-1.07-.55-1.64-.79l-.1,0,0,0h0A7.54,7.54,0,0,0,104.93,89.79Z"
     id="path128"
     inkscape:export-xdpi="13.11204"
     inkscape:export-ydpi="13.11204" />
  <path
     class="cls-2"
     d="M88,63.38a9.36,9.36,0,0,0-1-5.73,8.15,8.15,0,0,0-3.75-4.08,9.4,9.4,0,0,0,1,5.74A8.13,8.13,0,0,0,88,63.38Z"
     id="path130"
     inkscape:export-xdpi="13.11204"
     inkscape:export-ydpi="13.11204" />
  <path
     class="cls-2"
     d="M118.8,87.29a8.46,8.46,0,0,0,3.3-4.53,7.18,7.18,0,0,0-5,1.62,8.49,8.49,0,0,0-3.3,4.54A7.15,7.15,0,0,0,118.8,87.29Z"
     id="path132"
     inkscape:export-xdpi="13.11204"
     inkscape:export-ydpi="13.11204" />
  <path
     class="cls-2"
     d="M93.38,76.28a9.44,9.44,0,0,0,.73-5.78,8.94,8.94,0,0,0-2.37-5.2A9.44,9.44,0,0,0,91,71.07,8.94,8.94,0,0,0,93.38,76.28Z"
     id="path134"
     inkscape:export-xdpi="13.11204"
     inkscape:export-ydpi="13.11204" />
  <path
     class="cls-2"
     d="M83.18,62.22a9.13,9.13,0,0,0,2,5.4,7.69,7.69,0,0,0,4.42,3.17,9.11,9.11,0,0,0-2-5.4A7.66,7.66,0,0,0,83.18,62.22Z"
     id="path136"
     inkscape:export-xdpi="13.11204"
     inkscape:export-ydpi="13.11204" />
  <path
     class="cls-2"
     d="M92.27,62a8.41,8.41,0,0,0,1.15-5.08,7.2,7.2,0,0,0-3.56,3.43,8.39,8.39,0,0,0-1.15,5.08A7.2,7.2,0,0,0,92.27,62Z"
     id="path138"
     inkscape:export-xdpi="13.11204"
     inkscape:export-ydpi="13.11204" />
  <path
     class="cls-2"
     d="M92.54,47a9.31,9.31,0,0,0-1.28-5.66,9.11,9.11,0,0,0-1.87,5.46,9.3,9.3,0,0,0,1.28,5.66A9.1,9.1,0,0,0,92.54,47Z"
     id="path140"
     inkscape:export-xdpi="13.11204"
     inkscape:export-ydpi="13.11204" />
  <path
     class="cls-2"
     d="M89,59a9.4,9.4,0,0,0,.7-5.78,8.9,8.9,0,0,0-2.41-5.19,9.43,9.43,0,0,0-.7,5.79A8.89,8.89,0,0,0,89,59Z"
     id="path142"
     inkscape:export-xdpi="13.11204"
     inkscape:export-ydpi="13.11204" />
  <path
     class="cls-2"
     d="M133,80.5a7.1,7.1,0,0,1-5.13,1.27,8.34,8.34,0,0,1,3.55-4.3,7.09,7.09,0,0,1,5.13-1.27A8.34,8.34,0,0,1,133,80.5Z"
     id="path144"
     inkscape:export-xdpi="13.11204"
     inkscape:export-ydpi="13.11204" />
  <path
     class="cls-2"
     d="M134.15,83.62a7.55,7.55,0,0,1-4.65,2.71,7.05,7.05,0,0,1-5.21-.74,7.55,7.55,0,0,1,4.66-2.71A7,7,0,0,1,134.15,83.62Z"
     id="path146"
     inkscape:export-xdpi="13.11204"
     inkscape:export-ydpi="13.11204" />
  <path
     class="cls-2"
     d="M133.88,65.39A7.2,7.2,0,0,1,130.32,62a8.41,8.41,0,0,1-1.16-5.08,7.2,7.2,0,0,1,3.57,3.43A8.39,8.39,0,0,1,133.88,65.39Z"
     id="path148"
     inkscape:export-xdpi="13.11204"
     inkscape:export-ydpi="13.11204" />
  <path
     class="cls-2"
     d="M135,65.38a7.65,7.65,0,0,1,4.41-3.16,9.13,9.13,0,0,1-2,5.4A7.67,7.67,0,0,1,133,70.78,9.12,9.12,0,0,1,135,65.38Z"
     id="path150"
     inkscape:export-xdpi="13.11204"
     inkscape:export-ydpi="13.11204" />
  <path
     class="cls-2"
     d="M130.85,65.29a9.41,9.41,0,0,1,.73,5.78,8.89,8.89,0,0,1-2.37,5.21,9.43,9.43,0,0,1-.73-5.78A8.94,8.94,0,0,1,130.85,65.29Z"
     id="path152"
     inkscape:export-xdpi="13.11204"
     inkscape:export-ydpi="13.11204" />
  <path
     class="cls-2"
     d="M131.49,75.07a8.31,8.31,0,0,1,3.55-4.3,7.1,7.1,0,0,1,5.13-1.27,8.33,8.33,0,0,1-3.55,4.3A7.09,7.09,0,0,1,131.49,75.07Z"
     id="path154"
     inkscape:export-xdpi="13.11204"
     inkscape:export-ydpi="13.11204" />
  <path
     class="cls-2"
     d="M139.32,53.56a9.39,9.39,0,0,1-1,5.74,8.13,8.13,0,0,1-3.75,4.08,9.39,9.39,0,0,1,1-5.73A8.15,8.15,0,0,1,139.32,53.56Z"
     id="path156"
     inkscape:export-xdpi="13.11204"
     inkscape:export-ydpi="13.11204" />
  <path
     class="cls-2"
     d="M135.32,48.08a9.41,9.41,0,0,1,.7,5.79A8.91,8.91,0,0,1,133.61,59a9.4,9.4,0,0,1-.7-5.78A8.91,8.91,0,0,1,135.32,48.08Z"
     id="path158"
     inkscape:export-xdpi="13.11204"
     inkscape:export-ydpi="13.11204" />
  <path
     class="cls-2"
     d="M131.32,41.3a9.11,9.11,0,0,1,1.87,5.46,9.29,9.29,0,0,1-1.28,5.66A9.13,9.13,0,0,1,130,47,9.31,9.31,0,0,1,131.32,41.3Z"
     id="path160"
     inkscape:export-xdpi="13.11204"
     inkscape:export-ydpi="13.11204" />
  <path
     class="cls-2"
     d="M132.07,56.34a6.57,6.57,0,0,1-4.39-1.92,7.83,7.83,0,0,1-2.61-4.37A6.57,6.57,0,0,1,129.46,52,7.85,7.85,0,0,1,132.07,56.34Z"
     id="path162"
     inkscape:export-xdpi="13.11204"
     inkscape:export-ydpi="13.11204" />
  <path
     class="cls-2"
     d="M123.37,40.9a7.87,7.87,0,0,1,4.14,3.58,9.25,9.25,0,0,1,1.56,5.57,7.87,7.87,0,0,1-4.15-3.58A9.25,9.25,0,0,1,123.37,40.9Z"
     id="path164"
     inkscape:export-xdpi="13.11204"
     inkscape:export-ydpi="13.11204" />
  <path
     class="cls-2"
     d="M124.27,78.85A8.18,8.18,0,0,1,128,74.7a9.41,9.41,0,0,1-.89,5.75,8.17,8.17,0,0,1-3.69,4.15A9.42,9.42,0,0,1,124.27,78.85Z"
     id="path166"
     inkscape:export-xdpi="13.11204"
     inkscape:export-ydpi="13.11204" />
  <path
     class="cls-2"
     d="M124,87.09a7.42,7.42,0,0,1,4.8,2.38,7.11,7.11,0,0,1-5.16,1.11,7.41,7.41,0,0,1-4.8-2.38A7.1,7.1,0,0,1,124,87.09Z"
     id="path168"
     inkscape:export-xdpi="13.11204"
     inkscape:export-ydpi="13.11204" />
  <path
     class="cls-2"
     d="M117.05,84.37a7.18,7.18,0,0,1,5-1.62,8.46,8.46,0,0,1-3.3,4.53,7.15,7.15,0,0,1-5,1.62A8.49,8.49,0,0,1,117.05,84.37Z"
     id="path170"
     inkscape:export-xdpi="13.11204"
     inkscape:export-ydpi="13.11204" />
  <path
     class="cls-2"
     d="M109.61,90l.1,0c.57.24,1.12.51,1.64.79a14.78,14.78,0,0,1,1.86-.88,8.35,8.35,0,0,1,9.1,2.78,7,7,0,0,1-5.23.48,7.77,7.77,0,0,1-4.44-2.77q-.38.34-.75.7a19.93,19.93,0,0,1,5.71,5.29l-1.69,2.68a26.73,26.73,0,0,0-4.55-7.42,25.91,25.91,0,0,0-4.84,7.46l-1.7-2.68a20.28,20.28,0,0,1,6-5.34c-.24-.24-.49-.48-.75-.71a7.74,7.74,0,0,1-4.45,2.8,7,7,0,0,1-5.24-.48,7.62,7.62,0,0,1,4.54-2.93,7.54,7.54,0,0,1,4.64.18h0Z"
     id="path172"
     inkscape:export-xdpi="13.11204"
     inkscape:export-ydpi="13.11204" />
  <path
     class="cls-2"
     d="M105.53,84.37a8.49,8.49,0,0,1,3.3,4.54,7.15,7.15,0,0,1-5-1.62,8.47,8.47,0,0,1-3.3-4.53A7.18,7.18,0,0,1,105.53,84.37Z"
     id="path174"
     inkscape:export-xdpi="13.11204"
     inkscape:export-ydpi="13.11204" />
  <path
     class="cls-2"
     d="M103.7,88.2a7.41,7.41,0,0,1-4.8,2.38,7.1,7.1,0,0,1-5.16-1.11,7.41,7.41,0,0,1,4.8-2.37A7.1,7.1,0,0,1,103.7,88.2Z"
     id="path176"
     inkscape:export-xdpi="13.11204"
     inkscape:export-ydpi="13.11204" />
  <path
     class="cls-2"
     d="M99.19,84.61a8.17,8.17,0,0,1-3.69-4.15,9.42,9.42,0,0,1-.89-5.75,8.17,8.17,0,0,1,3.69,4.16A9.38,9.38,0,0,1,99.19,84.61Z"
     id="path178"
     inkscape:export-xdpi="13.11204"
     inkscape:export-ydpi="13.11204" />
  <path
     class="cls-2"
     d="M95.07,44.48a7.87,7.87,0,0,1,4.15-3.58,9.25,9.25,0,0,1-1.56,5.57,7.87,7.87,0,0,1-4.15,3.58A9.27,9.27,0,0,1,95.07,44.48Z"
     id="path180"
     inkscape:export-xdpi="13.11204"
     inkscape:export-ydpi="13.11204" />
  <path
     class="cls-2"
     d="M93.13,52a6.55,6.55,0,0,1,4.38-1.92,7.82,7.82,0,0,1-2.61,4.37,6.56,6.56,0,0,1-4.39,1.92A7.8,7.8,0,0,1,93.13,52Z"
     id="path182"
     inkscape:export-xdpi="13.11204"
     inkscape:export-ydpi="13.11204" />
  <path
     class="cls-2"
     d="M88.7,65.39a8.39,8.39,0,0,1,1.15-5.08,7.2,7.2,0,0,1,3.56-3.43A8.41,8.41,0,0,1,92.27,62,7.2,7.2,0,0,1,88.7,65.39Z"
     id="path184"
     inkscape:export-xdpi="13.11204"
     inkscape:export-ydpi="13.11204" />
  <path
     class="cls-2"
     d="M89.59,70.78a7.69,7.69,0,0,1-4.42-3.17,9.13,9.13,0,0,1-2-5.4,7.66,7.66,0,0,1,4.41,3.16A9.11,9.11,0,0,1,89.59,70.78Z"
     id="path186"
     inkscape:export-xdpi="13.11204"
     inkscape:export-ydpi="13.11204" />
  <path
     class="cls-2"
     d="M91.74,65.29a8.94,8.94,0,0,1,2.37,5.2,9.44,9.44,0,0,1-.73,5.78A8.94,8.94,0,0,1,91,71.07,9.44,9.44,0,0,1,91.74,65.29Z"
     id="path188"
     inkscape:export-xdpi="13.11204"
     inkscape:export-ydpi="13.11204" />
  <path
     class="cls-2"
     d="M89.4,46.76a9.11,9.11,0,0,1,1.87-5.46A9.31,9.31,0,0,1,92.54,47a9.1,9.1,0,0,1-1.87,5.46A9.3,9.3,0,0,1,89.4,46.76Z"
     id="path190"
     inkscape:export-xdpi="13.11204"
     inkscape:export-ydpi="13.11204" />
  <path
     class="cls-2"
     d="M87.26,48.08a8.9,8.9,0,0,1,2.41,5.19A9.4,9.4,0,0,1,89,59a8.89,8.89,0,0,1-2.41-5.19A9.43,9.43,0,0,1,87.26,48.08Z"
     id="path192"
     inkscape:export-xdpi="13.11204"
     inkscape:export-ydpi="13.11204" />
  <path
     class="cls-2"
     d="M83.26,53.56A8.15,8.15,0,0,1,87,57.65a9.36,9.36,0,0,1,1,5.73,8.13,8.13,0,0,1-3.75-4.08A9.4,9.4,0,0,1,83.26,53.56Z"
     id="path194"
     inkscape:export-xdpi="13.11204"
     inkscape:export-ydpi="13.11204" />
  <path
     class="cls-2"
     d="M82.42,69.49a7.1,7.1,0,0,1,5.13,1.27,8.33,8.33,0,0,1,3.55,4.3A7.09,7.09,0,0,1,86,73.8,8.34,8.34,0,0,1,82.42,69.49Z"
     id="path196"
     inkscape:export-xdpi="13.11204"
     inkscape:export-ydpi="13.11204" />
  <path
     class="cls-2"
     d="M86,76.2a7.08,7.08,0,0,1,5.12,1.27,8.35,8.35,0,0,1,3.55,4.3,7.1,7.1,0,0,1-5.13-1.27A8.32,8.32,0,0,1,86,76.2Z"
     id="path198"
     inkscape:export-xdpi="13.11204"
     inkscape:export-ydpi="13.11204" />
  <path
     class="cls-2"
     d="M88.44,83.62a7,7,0,0,1,5.21-.74,7.54,7.54,0,0,1,4.66,2.71,7,7,0,0,1-5.21.74A7.53,7.53,0,0,1,88.44,83.62Z"
     id="path200"
     inkscape:export-xdpi="13.11204"
     inkscape:export-ydpi="13.11204" />
  <path
     class="cls-2"
     d="M229.47,73.8a7.09,7.09,0,0,0,5.13,1.27,8.32,8.32,0,0,0-3.55-4.3,7.1,7.1,0,0,0-5.13-1.27A8.33,8.33,0,0,0,229.47,73.8Z"
     id="path202"
     inkscape:export-xdpi="13.11204"
     inkscape:export-ydpi="13.11204" />
  <path
     class="cls-2"
     d="M238.12,74.7a9.39,9.39,0,0,0,.89,5.75,8.18,8.18,0,0,0,3.69,4.15,9.42,9.42,0,0,0-.88-5.75A8.19,8.19,0,0,0,238.12,74.7Z"
     id="path204"
     inkscape:export-xdpi="13.11204"
     inkscape:export-ydpi="13.11204" />
  <path
     class="cls-2"
     d="M231.49,63.38a9.36,9.36,0,0,0-1-5.73,8.15,8.15,0,0,0-3.75-4.08,9.39,9.39,0,0,0,1,5.74A8.13,8.13,0,0,0,231.49,63.38Z"
     id="path206"
     inkscape:export-xdpi="13.11204"
     inkscape:export-ydpi="13.11204" />
  <path
     class="cls-2"
     d="M241.16,46.47a9.27,9.27,0,0,0,1.56-5.57,7.88,7.88,0,0,0-4.15,3.58A9.23,9.23,0,0,0,237,50.05,7.87,7.87,0,0,0,241.16,46.47Z"
     id="path208"
     inkscape:export-xdpi="13.11204"
     inkscape:export-ydpi="13.11204" />
  <path
     class="cls-2"
     d="M238.41,54.42A7.83,7.83,0,0,0,241,50.06,6.57,6.57,0,0,0,236.63,52,7.85,7.85,0,0,0,234,56.34,6.56,6.56,0,0,0,238.41,54.42Z"
     id="path210"
     inkscape:export-xdpi="13.11204"
     inkscape:export-ydpi="13.11204" />
  <path
     class="cls-2"
     d="M232.48,59a9.42,9.42,0,0,0,.7-5.78,8.92,8.92,0,0,0-2.41-5.19,9.41,9.41,0,0,0-.7,5.79A8.91,8.91,0,0,0,232.48,59Z"
     id="path212"
     inkscape:export-xdpi="13.11204"
     inkscape:export-ydpi="13.11204" />
  <path
     class="cls-2"
     d="M236,47a9.32,9.32,0,0,0-1.28-5.66,9.11,9.11,0,0,0-1.87,5.46,9.3,9.3,0,0,0,1.28,5.66A9.11,9.11,0,0,0,236,47Z"
     id="path214"
     inkscape:export-xdpi="13.11204"
     inkscape:export-ydpi="13.11204" />
  <path
     class="cls-2"
     d="M271.19,54.42a6.55,6.55,0,0,0,4.39,1.92A7.8,7.8,0,0,0,273,52a6.56,6.56,0,0,0-4.39-1.92A7.82,7.82,0,0,0,271.19,54.42Z"
     id="path216"
     inkscape:export-xdpi="13.11204"
     inkscape:export-ydpi="13.11204" />
  <path
     class="cls-2"
     d="M267.19,90.57a7.1,7.1,0,0,0,5.16-1.11,7.41,7.41,0,0,0-4.8-2.37,7.1,7.1,0,0,0-5.16,1.1A7.41,7.41,0,0,0,267.19,90.57Z"
     id="path218"
     inkscape:export-xdpi="13.11204"
     inkscape:export-ydpi="13.11204" />
  <path
     class="cls-2"
     d="M272.57,50.05A9.27,9.27,0,0,0,271,44.48a7.87,7.87,0,0,0-4.15-3.58,9.25,9.25,0,0,0,1.56,5.57A7.87,7.87,0,0,0,272.57,50.05Z"
     id="path220"
     inkscape:export-xdpi="13.11204"
     inkscape:export-ydpi="13.11204" />
  <path
     class="cls-2"
     d="M270.58,80.45a9.42,9.42,0,0,0,.89-5.75,8.18,8.18,0,0,0-3.69,4.16,9.39,9.39,0,0,0-.89,5.75A8.17,8.17,0,0,0,270.58,80.45Z"
     id="path222"
     inkscape:export-xdpi="13.11204"
     inkscape:export-ydpi="13.11204" />
  <path
     class="cls-2"
     d="M275.41,52.42a9.31,9.31,0,0,0,1.28-5.66,9.13,9.13,0,0,0-1.87-5.46A9.29,9.29,0,0,0,273.55,47,9.1,9.1,0,0,0,275.41,52.42Z"
     id="path224"
     inkscape:export-xdpi="13.11204"
     inkscape:export-ydpi="13.11204" />
  <path
     class="cls-2"
     d="M277.11,59a8.89,8.89,0,0,0,2.41-5.19,9.41,9.41,0,0,0-.7-5.79,8.89,8.89,0,0,0-2.41,5.19A9.4,9.4,0,0,0,277.11,59Z"
     id="path226"
     inkscape:export-xdpi="13.11204"
     inkscape:export-ydpi="13.11204" />
  <path
     class="cls-2"
     d="M277.39,65.39a8.37,8.37,0,0,0-1.15-5.08,7.2,7.2,0,0,0-3.56-3.43A8.39,8.39,0,0,0,273.82,62,7.19,7.19,0,0,0,277.39,65.39Z"
     id="path228"
     inkscape:export-xdpi="13.11204"
     inkscape:export-ydpi="13.11204" />
  <path
     class="cls-2"
     d="M278.1,63.38a8.13,8.13,0,0,0,3.75-4.08,9.42,9.42,0,0,0,1-5.74,8.16,8.16,0,0,0-3.76,4.08A9.38,9.38,0,0,0,278.1,63.38Z"
     id="path230"
     inkscape:export-xdpi="13.11204"
     inkscape:export-ydpi="13.11204" />
  <path
     class="cls-2"
     d="M272,70.49a9.44,9.44,0,0,0,.73,5.78,8.94,8.94,0,0,0,2.38-5.21,9.45,9.45,0,0,0-.73-5.78A8.94,8.94,0,0,0,272,70.49Z"
     id="path232"
     inkscape:export-xdpi="13.11204"
     inkscape:export-ydpi="13.11204" />
  <path
     class="cls-2"
     d="M226.69,62.22a9.12,9.12,0,0,0,2,5.4,7.67,7.67,0,0,0,4.41,3.17,9.14,9.14,0,0,0-2-5.4A7.66,7.66,0,0,0,226.69,62.22Z"
     id="path234"
     inkscape:export-xdpi="13.11204"
     inkscape:export-ydpi="13.11204" />
  <path
     class="cls-2"
     d="M236.6,86.33a7,7,0,0,0,5.21-.74,7.54,7.54,0,0,0-4.66-2.71,7,7,0,0,0-5.21.74A7.56,7.56,0,0,0,236.6,86.33Z"
     id="path236"
     inkscape:export-xdpi="13.11204"
     inkscape:export-ydpi="13.11204" />
  <path
     class="cls-2"
     d="M262.3,87.29a8.46,8.46,0,0,0,3.3-4.53,7.18,7.18,0,0,0-5,1.62,8.49,8.49,0,0,0-3.3,4.54A7.15,7.15,0,0,0,262.3,87.29Z"
     id="path238"
     inkscape:export-xdpi="13.11204"
     inkscape:export-ydpi="13.11204" />
  <path
     class="cls-2"
     d="M229.52,76.2a8.34,8.34,0,0,0,3.55,4.3,7.1,7.1,0,0,0,5.13,1.27,8.34,8.34,0,0,0-3.55-4.3A7.08,7.08,0,0,0,229.52,76.2Z"
     id="path240"
     inkscape:export-xdpi="13.11204"
     inkscape:export-ydpi="13.11204" />
  <path
     class="cls-2"
     d="M235.77,62a8.42,8.42,0,0,0,1.15-5.08,7.21,7.21,0,0,0-3.56,3.43,8.39,8.39,0,0,0-1.16,5.08A7.19,7.19,0,0,0,235.77,62Z"
     id="path242"
     inkscape:export-xdpi="13.11204"
     inkscape:export-ydpi="13.11204" />
  <path
     class="cls-2"
     d="M236.89,76.28a9.43,9.43,0,0,0,.73-5.78,8.92,8.92,0,0,0-2.37-5.2,9.41,9.41,0,0,0-.73,5.78A8.92,8.92,0,0,0,236.89,76.28Z"
     id="path244"
     inkscape:export-xdpi="13.11204"
     inkscape:export-ydpi="13.11204" />
  <path
     class="cls-2"
     d="M237.24,89.47a7.1,7.1,0,0,0,5.16,1.11,7.4,7.4,0,0,0,4.8-2.38,7.09,7.09,0,0,0-5.16-1.1A7.41,7.41,0,0,0,237.24,89.47Z"
     id="path246"
     inkscape:export-xdpi="13.11204"
     inkscape:export-ydpi="13.11204" />
  <path
     class="cls-2"
     d="M248.32,89.79a7.62,7.62,0,0,0-4.54,2.93,7,7,0,0,0,5.24.48,7.77,7.77,0,0,0,4.43-2.77q.38.34.75.7a20,20,0,0,0-5.71,5.29l1.7,2.68a26.72,26.72,0,0,1,4.55-7.42,25.87,25.87,0,0,1,4.84,7.46l1.7-2.68a20.25,20.25,0,0,0-6-5.34c.24-.24.49-.48.75-.71a7.72,7.72,0,0,0,4.45,2.8,7,7,0,0,0,5.23-.48A8.34,8.34,0,0,0,256.51,90h0l0,0-.1,0c-.57.24-1.12.51-1.64.79a14.84,14.84,0,0,0-1.86-.88A7.6,7.6,0,0,0,248.32,89.79Z"
     id="path248"
     inkscape:export-xdpi="13.11204"
     inkscape:export-ydpi="13.11204" />
  <path
     class="cls-2"
     d="M247.29,87.29a7.15,7.15,0,0,0,5,1.62,8.49,8.49,0,0,0-3.3-4.54,7.18,7.18,0,0,0-5-1.62A8.46,8.46,0,0,0,247.29,87.29Z"
     id="path250"
     inkscape:export-xdpi="13.11204"
     inkscape:export-ydpi="13.11204" />
  <path
     class="cls-2"
     d="M280.91,67.62a9.14,9.14,0,0,0,2-5.4,7.66,7.66,0,0,0-4.42,3.16,9.11,9.11,0,0,0-2,5.4A7.69,7.69,0,0,0,280.91,67.62Z"
     id="path252"
     inkscape:export-xdpi="13.11204"
     inkscape:export-ydpi="13.11204" />
  <path
     class="cls-2"
     d="M274.94,77.47a8.34,8.34,0,0,0-3.55,4.3,7.1,7.1,0,0,0,5.13-1.27,8.32,8.32,0,0,0,3.55-4.3A7.08,7.08,0,0,0,274.94,77.47Z"
     id="path254"
     inkscape:export-xdpi="13.11204"
     inkscape:export-ydpi="13.11204" />
  <path
     class="cls-2"
     d="M278.54,70.77a8.33,8.33,0,0,0-3.55,4.3,7.09,7.09,0,0,0,5.13-1.27,8.34,8.34,0,0,0,3.55-4.3A7.09,7.09,0,0,0,278.54,70.77Z"
     id="path256"
     inkscape:export-xdpi="13.11204"
     inkscape:export-ydpi="13.11204" />
  <path
     class="cls-2"
     d="M272.44,82.88a7.56,7.56,0,0,0-4.66,2.71,7,7,0,0,0,5.21.74,7.54,7.54,0,0,0,4.65-2.71A7,7,0,0,0,272.44,82.88Z"
     id="path258"
     inkscape:export-xdpi="13.11204"
     inkscape:export-ydpi="13.11204" />
  <path
     class="cls-2"
     d="M282.83,53.56a9.42,9.42,0,0,1-1,5.74,8.13,8.13,0,0,1-3.75,4.08,9.38,9.38,0,0,1,1-5.73A8.16,8.16,0,0,1,282.83,53.56Z"
     id="path260"
     inkscape:export-xdpi="13.11204"
     inkscape:export-ydpi="13.11204" />
  <path
     class="cls-2"
     d="M273.82,62a8.39,8.39,0,0,1-1.15-5.08,7.2,7.2,0,0,1,3.56,3.43,8.37,8.37,0,0,1,1.15,5.08A7.19,7.19,0,0,1,273.82,62Z"
     id="path262"
     inkscape:export-xdpi="13.11204"
     inkscape:export-ydpi="13.11204" />
  <path
     class="cls-2"
     d="M275.08,71.07a8.94,8.94,0,0,1-2.38,5.21,9.44,9.44,0,0,1-.73-5.78,8.94,8.94,0,0,1,2.38-5.2A9.45,9.45,0,0,1,275.08,71.07Z"
     id="path264"
     inkscape:export-xdpi="13.11204"
     inkscape:export-ydpi="13.11204" />
  <path
     class="cls-2"
     d="M278.49,65.38a7.66,7.66,0,0,1,4.42-3.16,9.14,9.14,0,0,1-2,5.4,7.69,7.69,0,0,1-4.42,3.17A9.11,9.11,0,0,1,278.49,65.38Z"
     id="path266"
     inkscape:export-xdpi="13.11204"
     inkscape:export-ydpi="13.11204" />
  <path
     class="cls-2"
     d="M278.82,48.08a9.41,9.41,0,0,1,.7,5.79A8.89,8.89,0,0,1,277.11,59a9.4,9.4,0,0,1-.7-5.78A8.89,8.89,0,0,1,278.82,48.08Z"
     id="path268"
     inkscape:export-xdpi="13.11204"
     inkscape:export-ydpi="13.11204" />
  <path
     class="cls-2"
     d="M274.83,41.3a9.13,9.13,0,0,1,1.87,5.46,9.31,9.31,0,0,1-1.28,5.66A9.1,9.1,0,0,1,273.55,47,9.29,9.29,0,0,1,274.83,41.3Z"
     id="path270"
     inkscape:export-xdpi="13.11204"
     inkscape:export-ydpi="13.11204" />
  <path
     class="cls-2"
     d="M275.57,56.34a6.55,6.55,0,0,1-4.39-1.92,7.82,7.82,0,0,1-2.61-4.37A6.56,6.56,0,0,1,273,52,7.8,7.8,0,0,1,275.57,56.34Z"
     id="path272"
     inkscape:export-xdpi="13.11204"
     inkscape:export-ydpi="13.11204" />
  <path
     class="cls-2"
     d="M266.87,40.9A7.87,7.87,0,0,1,271,44.48a9.27,9.27,0,0,1,1.55,5.57,7.87,7.87,0,0,1-4.15-3.58A9.25,9.25,0,0,1,266.87,40.9Z"
     id="path274"
     inkscape:export-xdpi="13.11204"
     inkscape:export-ydpi="13.11204" />
  <path
     class="cls-2"
     d="M267.78,78.85a8.18,8.18,0,0,1,3.69-4.16,9.42,9.42,0,0,1-.89,5.75,8.17,8.17,0,0,1-3.69,4.15A9.39,9.39,0,0,1,267.78,78.85Z"
     id="path276"
     inkscape:export-xdpi="13.11204"
     inkscape:export-ydpi="13.11204" />
  <path
     class="cls-2"
     d="M267.55,87.09a7.41,7.41,0,0,1,4.8,2.38,7.1,7.1,0,0,1-5.16,1.11,7.41,7.41,0,0,1-4.8-2.38A7.1,7.1,0,0,1,267.55,87.09Z"
     id="path278"
     inkscape:export-xdpi="13.11204"
     inkscape:export-ydpi="13.11204" />
  <path
     class="cls-2"
     d="M260.56,84.37a7.18,7.18,0,0,1,5-1.62,8.46,8.46,0,0,1-3.3,4.53,7.15,7.15,0,0,1-5,1.62A8.49,8.49,0,0,1,260.56,84.37Z"
     id="path280"
     inkscape:export-xdpi="13.11204"
     inkscape:export-ydpi="13.11204" />
  <path
     class="cls-2"
     d="M254.74,90.82c.52-.29,1.07-.55,1.64-.79l.1,0,0,0h0a8.34,8.34,0,0,1,9.19,2.75,7,7,0,0,1-5.23.48A7.72,7.72,0,0,1,256,90.4c-.26.23-.51.47-.75.71a20.25,20.25,0,0,1,6,5.34l-1.7,2.68a25.87,25.87,0,0,0-4.84-7.46,26.72,26.72,0,0,0-4.55,7.42l-1.7-2.68a20,20,0,0,1,5.71-5.29q-.37-.36-.75-.7A7.77,7.77,0,0,1,249,93.2a7,7,0,0,1-5.24-.48,8.35,8.35,0,0,1,9.11-2.78A14.84,14.84,0,0,1,254.74,90.82Z"
     id="path282"
     inkscape:export-xdpi="13.11204"
     inkscape:export-ydpi="13.11204" />
  <path
     class="cls-2"
     d="M249,84.37a8.49,8.49,0,0,1,3.3,4.54,7.15,7.15,0,0,1-5-1.62,8.46,8.46,0,0,1-3.3-4.53A7.18,7.18,0,0,1,249,84.37Z"
     id="path284"
     inkscape:export-xdpi="13.11204"
     inkscape:export-ydpi="13.11204" />
  <path
     class="cls-2"
     d="M247.2,88.2a7.4,7.4,0,0,1-4.8,2.38,7.1,7.1,0,0,1-5.16-1.11,7.41,7.41,0,0,1,4.8-2.37A7.09,7.09,0,0,1,247.2,88.2Z"
     id="path286"
     inkscape:export-xdpi="13.11204"
     inkscape:export-ydpi="13.11204" />
  <path
     class="cls-2"
     d="M232.2,65.39a8.39,8.39,0,0,1,1.16-5.08,7.21,7.21,0,0,1,3.56-3.43A8.42,8.42,0,0,1,235.77,62,7.19,7.19,0,0,1,232.2,65.39Z"
     id="path288"
     inkscape:export-xdpi="13.11204"
     inkscape:export-ydpi="13.11204" />
  <path
     class="cls-2"
     d="M233.09,70.78a7.67,7.67,0,0,1-4.41-3.17,9.12,9.12,0,0,1-2-5.4,7.66,7.66,0,0,1,4.41,3.16A9.14,9.14,0,0,1,233.09,70.78Z"
     id="path290"
     inkscape:export-xdpi="13.11204"
     inkscape:export-ydpi="13.11204" />
  <path
     class="cls-2"
     d="M235.24,65.29a8.92,8.92,0,0,1,2.37,5.2,9.43,9.43,0,0,1-.73,5.78,8.92,8.92,0,0,1-2.37-5.21A9.41,9.41,0,0,1,235.24,65.29Z"
     id="path292"
     inkscape:export-xdpi="13.11204"
     inkscape:export-ydpi="13.11204" />
  <path
     class="cls-2"
     d="M238.2,81.77a7.1,7.1,0,0,1-5.13-1.27,8.34,8.34,0,0,1-3.55-4.3,7.08,7.08,0,0,1,5.12,1.27A8.34,8.34,0,0,1,238.2,81.77Z"
     id="path294"
     inkscape:export-xdpi="13.11204"
     inkscape:export-ydpi="13.11204" />
  <path
     class="cls-2"
     d="M237.15,82.88a7.54,7.54,0,0,1,4.66,2.71,7,7,0,0,1-5.21.74,7.56,7.56,0,0,1-4.65-2.71A7,7,0,0,1,237.15,82.88Z"
     id="path296"
     inkscape:export-xdpi="13.11204"
     inkscape:export-ydpi="13.11204" />
  <path
     class="cls-2"
     d="M242.7,84.61A8.18,8.18,0,0,1,239,80.45a9.39,9.39,0,0,1-.89-5.75,8.19,8.19,0,0,1,3.69,4.16A9.42,9.42,0,0,1,242.7,84.61Z"
     id="path298"
     inkscape:export-xdpi="13.11204"
     inkscape:export-ydpi="13.11204" />
  <path
     class="cls-2"
     d="M238.57,44.48a7.88,7.88,0,0,1,4.15-3.58,9.27,9.27,0,0,1-1.56,5.57A7.87,7.87,0,0,1,237,50.05,9.23,9.23,0,0,1,238.57,44.48Z"
     id="path300"
     inkscape:export-xdpi="13.11204"
     inkscape:export-ydpi="13.11204" />
  <path
     class="cls-2"
     d="M236.63,52A6.57,6.57,0,0,1,241,50.06a7.83,7.83,0,0,1-2.61,4.37A6.56,6.56,0,0,1,234,56.34,7.85,7.85,0,0,1,236.63,52Z"
     id="path302"
     inkscape:export-xdpi="13.11204"
     inkscape:export-ydpi="13.11204" />
  <path
     class="cls-2"
     d="M232.9,46.76a9.11,9.11,0,0,1,1.87-5.46A9.32,9.32,0,0,1,236,47a9.11,9.11,0,0,1-1.87,5.46A9.3,9.3,0,0,1,232.9,46.76Z"
     id="path304"
     inkscape:export-xdpi="13.11204"
     inkscape:export-ydpi="13.11204" />
  <path
     class="cls-2"
     d="M230.77,48.08a8.92,8.92,0,0,1,2.41,5.19,9.42,9.42,0,0,1-.7,5.78,8.91,8.91,0,0,1-2.41-5.19A9.41,9.41,0,0,1,230.77,48.08Z"
     id="path306"
     inkscape:export-xdpi="13.11204"
     inkscape:export-ydpi="13.11204" />
  <path
     class="cls-2"
     d="M226.76,53.56a8.15,8.15,0,0,1,3.75,4.08,9.36,9.36,0,0,1,1,5.73,8.13,8.13,0,0,1-3.75-4.08A9.39,9.39,0,0,1,226.76,53.56Z"
     id="path308"
     inkscape:export-xdpi="13.11204"
     inkscape:export-ydpi="13.11204" />
  <path
     class="cls-2"
     d="M231,70.77a8.32,8.32,0,0,1,3.55,4.3,7.09,7.09,0,0,1-5.13-1.27,8.33,8.33,0,0,1-3.55-4.3A7.1,7.1,0,0,1,231,70.77Z"
     id="path310"
     inkscape:export-xdpi="13.11204"
     inkscape:export-ydpi="13.11204" />
  <path
     class="cls-2"
     d="M273,86.33a7,7,0,0,1-5.21-.74,7.56,7.56,0,0,1,4.66-2.71,7,7,0,0,1,5.21.74A7.54,7.54,0,0,1,273,86.33Z"
     id="path312"
     inkscape:export-xdpi="13.11204"
     inkscape:export-ydpi="13.11204" />
  <path
     class="cls-2"
     d="M276.52,80.5a7.1,7.1,0,0,1-5.13,1.27,8.34,8.34,0,0,1,3.55-4.3,7.08,7.08,0,0,1,5.13-1.27A8.32,8.32,0,0,1,276.52,80.5Z"
     id="path314"
     inkscape:export-xdpi="13.11204"
     inkscape:export-ydpi="13.11204" />
  <path
     class="cls-2"
     d="M280.12,73.8A7.09,7.09,0,0,1,275,75.07a8.33,8.33,0,0,1,3.55-4.3,7.09,7.09,0,0,1,5.12-1.27A8.34,8.34,0,0,1,280.12,73.8Z"
     id="path316"
     inkscape:export-xdpi="13.11204"
     inkscape:export-ydpi="13.11204" />
  <path
     class="cls-2"
     d="M162.66,286c-.34,0-1-.06-1.75-.06-.53,0-1.14,0-1.85.06h-.22l0-.22a35.51,35.51,0,0,0,.39-5.44V270.21c0-2.8-.24-3.1-1.16-3.1a5.39,5.39,0,0,0-1.12.17l-1.59.36a7.31,7.31,0,0,0-1.11.35l-.1,0-.44-.34.07-.14a8.42,8.42,0,0,0,.67-1.78l0-.12h.13a18.6,18.6,0,0,0,2.31-.35l3.35-.72c.61-.12,1.29-.31,1.87-.47l.1,0,.38.38v.09a41.24,41.24,0,0,0-.38,5.24v10.91a16.9,16.9,0,0,0,.58,5.08l.09.26Z"
     id="path318"
     inkscape:export-xdpi="13.11204"
     inkscape:export-ydpi="13.11204" />
  <path
     class="cls-2"
     d="M186.32,286.2l0,.17h-.16s-2.53,0-4,.15H182l-.28-.56,10.95-18.61h-6.85a6,6,0,0,0-3.6,1l-.08.06-.56-.22.06-.17a22.41,22.41,0,0,0,.77-3.34l0-.16h.17c.8.06,1.64.06,2.53.06H193a21.58,21.58,0,0,0,2.41-.09l.18,0,0,.18a16.85,16.85,0,0,0,.35,2l0,.1-.07.08a54.67,54.67,0,0,0-5.45,8.58C187.66,280.5,186.57,283.33,186.32,286.2Z"
     id="path320"
     inkscape:export-xdpi="13.11204"
     inkscape:export-ydpi="13.11204" />
  <path
     class="cls-2"
     d="M175.11,274c2-1.15,3.94-2.54,3.94-5.32,0-3-2.49-5.17-5.93-5.17s-6.31,2.54-6.31,5.77c0,2.67,1.8,4.2,3.65,5.32-2.93,1.72-4.73,3.39-4.73,6.25,0,3.38,2.72,5.74,6.61,5.74,4.3,0,7.42-2.72,7.42-6.46C179.77,277.07,177.57,275.36,175.11,274Zm-5.52-5.34a3.46,3.46,0,0,1,3.58-3.52,3.51,3.51,0,0,1,3.62,3.61c0,2.32-1.68,3.5-3.4,4.46C171.46,272.09,169.6,270.88,169.6,268.65Zm3,16.35a4.14,4.14,0,0,1-4.31-4.24c0-2.62,2-4.22,4.13-5.24,2.86,1.57,4.67,2.86,4.67,5.27A4.29,4.29,0,0,1,172.64,285Z"
     id="path322"
     inkscape:export-xdpi="13.11204"
     inkscape:export-ydpi="13.11204" />
  <path
     class="cls-2"
     d="M205.22,274.43c2-1.14,3.93-2.54,3.93-5.32,0-3-2.49-5.18-5.92-5.18s-6.31,2.54-6.31,5.78c0,2.68,1.8,4.2,3.64,5.31-2.92,1.71-4.72,3.39-4.72,6.25,0,3.38,2.72,5.74,6.61,5.74,4.3,0,7.42-2.72,7.42-6.46C209.87,277.52,207.67,275.8,205.22,274.43Zm-5.29-5.33a3.47,3.47,0,0,1,3.58-3.52,3.51,3.51,0,0,1,3.61,3.61c0,2.32-1.69,3.49-3.4,4.46C201.79,272.53,199.93,271.33,199.93,269.1Zm3,16.35a4.15,4.15,0,0,1-4.3-4.25c0-2.62,2-4.22,4.12-5.24,2.86,1.56,4.67,2.86,4.67,5.27A4.3,4.3,0,0,1,203,285.45Z"
     id="path324"
     inkscape:export-xdpi="13.11204"
     inkscape:export-ydpi="13.11204" />
  <path
     class="cls-2"
     d="M117.3,241l-1.73,6.26C109,247,104.72,247,100.89,247c-4.82,0-8,0-10.57.06a72,72,0,0,0,.81-11V217.81c0-3-.11-8.59-1.16-11.19,2,.12,3.31.12,4.76.12h10.92c3.89,0,5.46-.12,9.7-.18l-1.9,6.84c-.31,1.12-.9.28-1,.12-1.8-2.61-5.29-2.9-8.6-2.9-1,0-2.27.06-3.72.12-.06,1-.23,3.77-.23,6.26v5.92h4.82a71.88,71.88,0,0,0,8.48-.47c.58-.09.46.41.46.41l-1.39,5a80.24,80.24,0,0,0-8.31-.45H99.84v8.23c0,5.34.58,7.08,6.91,7.08,3.61,0,5.53,0,9.41-2.94C116.86,239.27,117.69,239.58,117.3,241Z"
     id="path326"
     inkscape:export-xdpi="13.11204"
     inkscape:export-ydpi="13.11204" />
  <path
     class="cls-2"
     d="M134.76,241A31.75,31.75,0,0,0,133,247c-.58-.05-1.92-.05-3.26-.05-1.16,0-2.62.05-3.73.12a35.64,35.64,0,0,0-1.75-6.74l-3.84-11.75c-1.16-3.49-2.56-7.33-5.13-10.29a90.16,90.16,0,0,0,10.54-.35,40.58,40.58,0,0,0,1.69,8.31l2.16,7.39c.53,1.74,1.63,5.64,1.63,5.64.4-1.28.87-2.5,1.28-3.6l3.38-8.72a24.8,24.8,0,0,0,1.57-6.22c0-.81.06-1.57,0-2.56.82.06,2.33.06,3.55.06a38.49,38.49,0,0,0,3.95-.26c.8-.1.68.39.42.73a43.15,43.15,0,0,0-5.12,9.54Z"
     id="path328"
     inkscape:export-xdpi="13.11204"
     inkscape:export-ydpi="13.11204" />
  <path
     class="cls-2"
     d="M181.48,247c-.94-.06-2.83-.12-4.65-.12s-3.65.06-4.77.12a62.74,62.74,0,0,0,.71-10.46v-7.05c0-2.82-.24-7.87-1.24-11,2.24,0,5.71-.12,8.06-.23l-.11,6.7,2.12-2.76c2.65-3.47,4.47-4.59,7.24-4.59a5.05,5.05,0,0,1,2.53.56c-.83,3-1.7,6.12-2.2,7.94-.11.39-.47.93-1,.33-1.12-1.25-1.32-1.72-2.68-1.72a4.62,4.62,0,0,0-4,2.53c-.82,1.35-1.18,2.47-1.18,5.29v4.76C180.31,242.38,180.66,244.5,181.48,247Z"
     id="path330"
     inkscape:export-xdpi="13.11204"
     inkscape:export-ydpi="13.11204" />
  <path
     class="cls-2"
     d="M214,218.74,212.84,223a39.75,39.75,0,0,0-5.22-.28H205c-.12,2-.18,4.32-.18,6v6.68c0,4.5.47,7.81,4.38,7.81a7.74,7.74,0,0,0,3.79-1.07c.25-.13.85-.1.64.69-.36,1.3-.69,2.49-1.1,4a24.63,24.63,0,0,1-6.88,1.19c-5,0-8.3-2.19-8.3-9.41v-9c0-2.9,0-5-.12-6.92a26,26,0,0,0-4,.33c-.18,0-.57,0-.39-.68l1-3.78c.75.07,2.15.11,3.58.11,0-2.3-.12-3.55-.24-5.32A38.42,38.42,0,0,0,204.7,210c.6-.38.9.16.85.8a59.24,59.24,0,0,0-.54,7.84h4.09a19.55,19.55,0,0,0,4.5-.41C213.81,218.16,214.14,218.27,214,218.74Z"
     id="path332"
     inkscape:export-xdpi="13.11204"
     inkscape:export-ydpi="13.11204" />
  <path
     class="cls-2"
     d="M271.36,246.92c-1.9,0-3.81.06-4.82.12a69.87,69.87,0,0,0,.71-11.23v-5.16c0-3.45-.24-7.43-5.12-7.43a7,7,0,0,0-4.76,2c-1.49,1.49-1.9,2.74-1.9,6.42v4.22c0,5.41.36,8.68,1.19,11.23-.89-.06-2.85-.12-4.7-.12s-3.81.06-4.82.12a69.87,69.87,0,0,0,.71-11.23v-7.24a37.45,37.45,0,0,0-1.25-10.34c2.62,0,6.25,0,8.75-.24l-.18,5.11,2.38-2c2.92-2.44,5.3-3.45,8.27-3.45,6.79,0,9.1,3.8,9.1,10.51v7.66c0,5.41.36,8.68,1.19,11.23C275.17,247,273.2,246.92,271.36,246.92Z"
     id="path334"
     inkscape:export-xdpi="13.11204"
     inkscape:export-ydpi="13.11204" />
  <path
     class="cls-2"
     d="M168.17,232c1,0,1-2.49,1-3.07,0-7-4.47-11.25-11.62-11.25-8.3,0-14.05,6.26-14.05,15.31s5.69,15,14.64,15a30.82,30.82,0,0,0,9.09-1.73c.47-1.72.62-2.23,1.18-4.26.26-.94-.27-1.24-.74-.91a9.22,9.22,0,0,1-6,1.91c-6.21,0-9.93-3.95-10.05-10.84,1.92-.12,6.16-.18,9.18-.18Zm-16.66-3.42c.29-4.76,1.86-7.54,5.58-7.54a4.52,4.52,0,0,1,4.59,4.7c0,1.85-1,2.61-3.49,2.67Z"
     id="path336"
     inkscape:export-xdpi="13.11204"
     inkscape:export-ydpi="13.11204" />
  <path
     class="cls-2"
     d="M230.53,217.63c-10.38,0-15.92,6.64-15.92,15.78S220,248,229.13,248c9.62,0,15.8-6.23,15.8-16C244.93,222.88,239.74,217.63,230.53,217.63Zm-.76,27.07c-4.43,0-6.88-4.31-6.88-12.46,0-6.93,1.87-11.29,6.7-11.29,4.55,0,7.06,4.37,7.06,12.46C236.66,240.86,234.26,244.7,229.77,244.7Z"
     id="path338"
     inkscape:export-xdpi="13.11204"
     inkscape:export-ydpi="13.11204" />
</svg>
