<?xml version="1.0" encoding="UTF-8" standalone="no"?>
<svg
   xmlns:dc="http://purl.org/dc/elements/1.1/"
   xmlns:cc="http://creativecommons.org/ns#"
   xmlns:rdf="http://www.w3.org/1999/02/22-rdf-syntax-ns#"
   xmlns:svg="http://www.w3.org/2000/svg"
   xmlns="http://www.w3.org/2000/svg"
   xmlns:sodipodi="http://sodipodi.sourceforge.net/DTD/sodipodi-0.dtd"
   xmlns:inkscape="http://www.inkscape.org/namespaces/inkscape"
   viewBox="0 0 700 700"
   width="700"
   height="700"
   version="1.1"
   id="svg40"
   sodipodi:docname="genoa-fc-logo.svg"
   inkscape:export-filename="G:\Users\suitedoalex\sites\genoa-fc-logo-0.png"
   inkscape:export-xdpi="561.73712"
   inkscape:export-ydpi="561.73712"
   inkscape:version="0.92.4 (5da689c313, 2019-01-14)">
  <metadata
     id="metadata46">
    <rdf:RDF>
      <cc:Work
         rdf:about="">
        <dc:format>image/svg+xml</dc:format>
        <dc:type
           rdf:resource="http://purl.org/dc/dcmitype/StillImage" />
        <dc:title></dc:title>
      </cc:Work>
    </rdf:RDF>
  </metadata>
  <defs
     id="defs44" />
  <sodipodi:namedview
     pagecolor="#ffffff"
     bordercolor="#666666"
     borderopacity="1"
     objecttolerance="10"
     gridtolerance="10"
     guidetolerance="10"
     inkscape:pageopacity="0"
     inkscape:pageshadow="2"
     inkscape:window-width="1600"
     inkscape:window-height="837"
     id="namedview42"
     showgrid="false"
     inkscape:zoom="0.472"
     inkscape:cx="-164.09859"
     inkscape:cy="263.56504"
     inkscape:window-x="-8"
     inkscape:window-y="-8"
     inkscape:window-maximized="1"
     inkscape:current-layer="svg40" />
  <style
     id="style2">
		tspan { white-space:pre }
		.shp0 { fill: #ffffff } 
		.shp1 { fill: #fecc13 } 
		.shp2 { fill: #06222e } 
		.shp3 { fill: #000000 } 
		.shp4 { fill: #af191c } 
	</style>
  <g
     id="g38"
     transform="matrix(1.9830508,0,0,1.9830508,175.49153,102.11865)"
     inkscape:export-filename="G:\Users\suitedoalex\sites\genoa-fc-logo-4.png"
     inkscape:export-xdpi="110.02331"
     inkscape:export-ydpi="110.02331">
    <path
       class="shp0"
       d="m 0.03,97.18 0.02,97.17 c 0.36,2.17 0.59,3.36 0.76,4.05 0.16,0.69 0.43,1.68 0.6,2.2 0.17,0.52 0.51,1.47 0.76,2.1 0.25,0.63 0.72,1.68 1.04,2.33 0.33,0.64 0.88,1.65 1.23,2.25 0.35,0.59 0.99,1.56 1.42,2.17 0.42,0.61 1.16,1.57 1.63,2.15 0.47,0.58 1.47,1.67 2.21,2.44 0.75,0.76 1.8,1.77 2.34,2.25 0.54,0.47 1.47,1.23 2.05,1.69 0.59,0.45 1.47,1.11 1.97,1.45 0.49,0.35 1.37,0.92 1.95,1.28 0.58,0.37 1.5,0.92 2.05,1.24 0.55,0.32 1.7,0.93 2.55,1.35 0.86,0.43 2,0.98 2.55,1.23 0.55,0.24 1.66,0.7 2.46,1.02 0.79,0.31 2.1,0.79 2.9,1.06 0.8,0.28 2.3,0.74 3.35,1.04 1.04,0.29 2.31,0.63 2.8,0.75 0.5,0.11 1.55,0.35 2.35,0.51 0.8,0.17 2.08,0.41 2.85,0.54 0.77,0.13 2.31,0.35 3.41,0.49 1.1,0.14 2.9,0.33 4,0.41 1.1,0.08 3.96,0.2 6.35,0.25 2.4,0.05 5.03,0.14 5.85,0.2 0.83,0.06 2.35,0.22 3.38,0.35 1.03,0.14 2.52,0.39 3.3,0.56 0.79,0.16 1.81,0.41 2.28,0.54 0.47,0.13 1.23,0.37 1.7,0.53 0.47,0.17 1.1,0.4 1.4,0.52 0.3,0.12 1,0.44 1.55,0.72 0.55,0.27 1.52,0.84 2.15,1.26 0.78,0.51 1.5,1.11 2.21,1.82 0.58,0.58 1.26,1.34 1.52,1.7 0.25,0.36 1.38,2.16 2.52,4 1.15,1.84 2.61,4.22 3.27,5.28 0.65,1.05 1.23,1.92 1.29,1.92 0.06,0 0.2,-0.17 0.32,-0.37 0.12,-0.21 1.03,-1.69 2.01,-3.28 0.99,-1.59 2.39,-3.84 3.1,-5 0.72,-1.16 1.49,-2.35 1.71,-2.65 0.22,-0.3 0.76,-0.93 1.21,-1.39 0.44,-0.46 1.23,-1.16 1.76,-1.55 0.52,-0.39 1.35,-0.95 1.85,-1.23 0.49,-0.29 1.3,-0.7 1.8,-0.91 0.49,-0.22 1.42,-0.58 2.05,-0.8 0.63,-0.23 1.67,-0.55 2.3,-0.71 0.63,-0.16 1.62,-0.39 2.2,-0.5 0.58,-0.12 1.67,-0.3 2.43,-0.41 0.75,-0.11 2.22,-0.27 3.25,-0.35 1.03,-0.09 3.88,-0.2 6.33,-0.25 2.45,-0.05 5.35,-0.16 6.45,-0.25 1.1,-0.08 2.75,-0.24 3.65,-0.36 0.91,-0.11 2.47,-0.34 3.46,-0.5 0.99,-0.17 2.45,-0.44 3.25,-0.6 0.8,-0.17 2.06,-0.46 2.8,-0.64 0.74,-0.19 1.76,-0.46 2.25,-0.6 0.5,-0.14 1.35,-0.4 1.9,-0.57 0.55,-0.17 1.68,-0.55 2.5,-0.85 0.83,-0.29 2.18,-0.81 3.01,-1.15 0.82,-0.34 2.46,-1.1 3.65,-1.69 1.18,-0.59 2.8,-1.47 3.6,-1.95 0.8,-0.48 1.79,-1.09 2.2,-1.37 0.41,-0.28 1.25,-0.87 1.85,-1.31 0.61,-0.45 1.64,-1.26 2.3,-1.8 0.66,-0.54 1.95,-1.74 2.85,-2.65 0.91,-0.91 2.09,-2.2 2.62,-2.86 0.53,-0.66 1.25,-1.61 1.59,-2.1 0.34,-0.49 0.97,-1.46 1.38,-2.15 0.41,-0.69 1.01,-1.79 1.32,-2.45 0.31,-0.66 0.74,-1.63 0.95,-2.15 0.2,-0.52 0.52,-1.42 0.7,-2 0.19,-0.58 0.43,-1.43 0.55,-1.9 0.12,-0.47 0.34,-1.46 0.48,-2.2 l 0.26,-1.35 L 176,0 H 0 Z"
       id="path4"
       inkscape:connector-curvature="0"
       style="fill:#ffffff" />
    <path
       class="shp1"
       d="m 2.93,98.38 c 0.03,90.61 0.04,95.53 0.2,96.62 0.1,0.63 0.3,1.67 0.44,2.3 0.14,0.63 0.41,1.65 0.59,2.25 0.19,0.61 0.48,1.46 0.66,1.9 0.17,0.44 0.59,1.39 0.94,2.1 0.34,0.72 0.92,1.79 1.29,2.4 0.37,0.61 0.95,1.48 1.28,1.95 0.34,0.47 1,1.32 1.47,1.9 0.47,0.57 1.33,1.54 1.92,2.15 0.58,0.6 1.52,1.51 2.08,2 0.57,0.49 1.51,1.27 2.09,1.73 0.59,0.46 1.61,1.2 2.27,1.65 0.66,0.45 1.83,1.19 2.6,1.65 0.77,0.46 2.39,1.32 3.6,1.92 1.21,0.6 2.99,1.4 3.96,1.78 0.96,0.38 2.42,0.92 3.25,1.2 0.82,0.28 2.13,0.69 2.9,0.91 0.77,0.22 1.96,0.54 2.65,0.7 0.69,0.17 1.79,0.41 2.45,0.55 0.66,0.14 1.99,0.39 2.95,0.55 0.97,0.16 2.54,0.39 3.51,0.5 0.96,0.11 2.29,0.25 2.95,0.31 0.66,0.05 2.21,0.15 3.45,0.2 1.24,0.05 3.11,0.1 4.15,0.1 1.05,0 2.74,0.05 3.75,0.1 1.02,0.06 2.51,0.17 3.31,0.26 0.79,0.08 2.01,0.24 2.7,0.34 0.69,0.11 1.68,0.28 2.2,0.39 0.52,0.11 1.4,0.31 1.95,0.45 0.55,0.14 1.56,0.44 2.25,0.67 0.69,0.22 1.81,0.65 2.5,0.95 0.69,0.3 1.73,0.82 2.3,1.16 0.58,0.33 1.44,0.88 1.91,1.21 0.46,0.34 1.41,1.17 2.1,1.86 0.69,0.69 1.47,1.55 1.72,1.91 0.25,0.36 1.41,2.18 2.57,4.05 1.17,1.87 2.15,3.41 2.19,3.42 0.04,0.02 1.04,-1.54 2.22,-3.45 1.18,-1.91 2.39,-3.78 2.68,-4.17 0.29,-0.38 0.96,-1.14 1.5,-1.69 0.54,-0.54 1.4,-1.31 1.92,-1.7 0.53,-0.4 1.41,-0.99 1.96,-1.31 0.55,-0.32 1.45,-0.8 2,-1.06 0.55,-0.25 1.58,-0.68 2.3,-0.94 0.71,-0.26 1.97,-0.64 2.8,-0.85 0.83,-0.21 1.97,-0.48 2.55,-0.59 0.58,-0.12 1.66,-0.3 2.4,-0.4 0.75,-0.11 1.89,-0.25 2.55,-0.31 0.66,-0.06 1.77,-0.14 2.46,-0.19 0.68,-0.04 2.28,-0.08 3.55,-0.1 1.26,-0.01 3.33,-0.06 4.6,-0.11 1.27,-0.06 2.86,-0.15 3.55,-0.2 0.69,-0.06 2.02,-0.2 2.95,-0.31 0.94,-0.11 2.49,-0.33 3.46,-0.49 0.96,-0.16 2.29,-0.41 2.95,-0.54 0.66,-0.14 1.69,-0.37 2.3,-0.51 0.6,-0.14 1.86,-0.48 2.8,-0.75 0.94,-0.27 2.42,-0.73 3.3,-1.03 0.88,-0.3 2.17,-0.77 2.85,-1.05 0.69,-0.27 1.95,-0.82 2.81,-1.21 0.85,-0.39 2.22,-1.08 3.05,-1.52 0.82,-0.45 2.04,-1.15 2.7,-1.56 0.66,-0.42 1.65,-1.07 2.2,-1.46 0.55,-0.39 1.52,-1.12 2.15,-1.62 0.63,-0.51 1.64,-1.36 2.25,-1.91 0.6,-0.54 1.54,-1.48 2.09,-2.09 0.55,-0.6 1.32,-1.51 1.72,-2 0.4,-0.49 1.16,-1.55 1.69,-2.35 0.53,-0.8 1.28,-2.06 1.65,-2.8 0.38,-0.74 0.86,-1.75 1.06,-2.25 0.21,-0.49 0.52,-1.33 0.7,-1.85 0.17,-0.52 0.46,-1.53 0.63,-2.25 0.17,-0.72 0.41,-1.93 0.54,-2.7 l 0.23,-1.4 L 173.2,2.9 H 2.9 Z"
       id="path6"
       inkscape:connector-curvature="0"
       style="fill:#fecc13" />
    <path
       class="shp2"
       d="m 6.33,100.18 0.03,93.87 c 0.4,2.09 0.64,3.15 0.79,3.7 0.15,0.55 0.48,1.54 0.73,2.2 0.25,0.66 0.76,1.81 1.13,2.55 0.38,0.74 1.09,1.96 1.58,2.7 0.5,0.74 1.15,1.67 1.46,2.05 0.32,0.38 0.99,1.17 1.51,1.75 0.52,0.58 1.47,1.52 2.11,2.1 0.64,0.58 1.64,1.42 2.23,1.88 0.58,0.46 1.76,1.3 2.61,1.87 0.85,0.57 2.14,1.36 2.85,1.76 0.72,0.4 2.02,1.07 2.9,1.49 0.89,0.43 2.28,1.05 3.11,1.38 0.82,0.33 2.24,0.86 3.15,1.17 0.91,0.31 2.53,0.8 3.6,1.09 1.07,0.3 2.72,0.7 3.65,0.89 0.94,0.2 2.38,0.47 3.2,0.61 0.83,0.13 2.23,0.34 3.11,0.45 0.88,0.12 2.48,0.28 3.55,0.36 1.07,0.08 2.98,0.17 4.25,0.2 1.27,0.03 3.31,0.07 4.55,0.1 1.24,0.03 3.04,0.12 4.01,0.2 0.96,0.08 2.29,0.21 2.95,0.3 0.66,0.08 1.85,0.27 2.65,0.41 0.8,0.15 2.17,0.44 3.05,0.66 0.88,0.21 2.21,0.6 2.95,0.85 0.74,0.25 1.85,0.67 2.45,0.94 0.61,0.26 1.58,0.73 2.15,1.04 0.58,0.31 1.51,0.86 2.06,1.23 0.55,0.37 1.38,0.99 1.85,1.38 0.46,0.39 1.28,1.15 1.8,1.7 0.52,0.54 1.24,1.39 1.6,1.88 0.36,0.5 0.94,1.37 1.3,1.94 0.36,0.58 0.69,1.07 0.75,1.09 0.06,0.02 0.47,-0.54 0.91,-1.24 0.45,-0.7 1.13,-1.69 1.52,-2.18 0.38,-0.49 1.1,-1.3 1.59,-1.8 0.49,-0.49 1.25,-1.19 1.69,-1.54 0.44,-0.36 1.33,-1 1.99,-1.43 0.66,-0.43 1.84,-1.1 2.61,-1.47 0.77,-0.38 1.94,-0.89 2.6,-1.14 0.66,-0.25 1.9,-0.66 2.75,-0.9 0.85,-0.25 2.23,-0.59 3.05,-0.76 0.83,-0.17 2.11,-0.39 2.85,-0.5 0.75,-0.11 2.03,-0.27 2.85,-0.35 0.83,-0.09 2.43,-0.2 3.56,-0.25 1.12,-0.06 3.17,-0.11 4.55,-0.13 1.37,-0.01 3.11,-0.05 3.85,-0.09 0.74,-0.05 1.96,-0.13 2.7,-0.19 0.75,-0.06 2.23,-0.22 3.3,-0.36 1.08,-0.14 2.81,-0.41 3.86,-0.6 1.04,-0.19 2.57,-0.51 3.4,-0.7 0.82,-0.2 1.9,-0.47 2.4,-0.61 0.49,-0.14 1.55,-0.45 2.35,-0.7 0.8,-0.25 2.17,-0.72 3.05,-1.05 0.88,-0.34 2.23,-0.89 3,-1.23 0.77,-0.34 1.81,-0.83 2.31,-1.07 0.49,-0.25 1.5,-0.8 2.25,-1.23 0.74,-0.43 1.98,-1.19 2.75,-1.71 0.77,-0.51 2.01,-1.41 2.75,-2.01 0.74,-0.59 1.91,-1.62 2.59,-2.28 0.68,-0.66 1.63,-1.65 2.1,-2.2 0.48,-0.55 1.21,-1.47 1.63,-2.05 0.41,-0.58 1.03,-1.5 1.36,-2.05 0.33,-0.55 0.77,-1.34 0.97,-1.75 0.21,-0.41 0.57,-1.22 0.81,-1.8 0.24,-0.58 0.59,-1.57 0.78,-2.2 0.19,-0.63 0.46,-1.73 0.6,-2.45 0.14,-0.71 0.3,-1.87 0.36,-2.57 0.07,-0.9 0.11,-28.92 0.11,-94.18 V 6.3 H 6.3 Z"
       id="path8"
       inkscape:connector-curvature="0"
       style="fill:#06222e" />
    <path
       class="shp3"
       d="M 28.02,8.77 C 38.5,8.79 55.61,8.79 66.04,8.77 76.47,8.76 67.89,8.75 46.98,8.75 26.06,8.75 17.53,8.76 28.02,8.77 Z m 82.14,0 c 10.49,0.02 27.6,0.02 38.02,0 10.43,-0.01 1.86,-0.02 -19.06,-0.02 -20.91,0 -29.44,0.01 -18.96,0.02 z"
       id="path10"
       inkscape:connector-curvature="0"
       style="fill:#000000" />
    <path
       class="shp0"
       d="M 8.91,19.65 V 30.5 L 85.1,30.45 C 85.14,11.27 85.12,8.93 85.02,8.88 84.95,8.84 67.8,8.8 46.9,8.8 H 8.91 Z"
       id="path12"
       inkscape:connector-curvature="0"
       style="fill:#ffffff" />
    <path
       class="shp4"
       d="m 85.26,8.88 c -0.12,0.07 -0.14,1.71 -0.15,10.83 L 85.1,30.45 8.91,30.5 c 0,5.39 0.02,5.81 0.15,5.85 0.08,0.03 17.22,0.05 38.09,0.05 H 85.1 L 85.15,58 8.96,58.05 v 135.8 c 0.35,1.86 0.59,2.9 0.76,3.5 0.17,0.61 0.51,1.6 0.75,2.2 0.25,0.61 0.7,1.57 1,2.15 0.3,0.58 0.88,1.55 1.28,2.15 0.4,0.61 1.08,1.53 1.5,2.05 0.42,0.52 1.27,1.46 1.89,2.09 0.62,0.63 1.55,1.51 2.07,1.96 0.52,0.45 1.31,1.09 1.75,1.42 0.44,0.33 1.39,0.99 2.1,1.45 0.72,0.47 1.75,1.12 2.3,1.43 0.55,0.32 1.57,0.86 2.26,1.2 0.68,0.34 1.72,0.83 2.3,1.08 0.57,0.25 1.41,0.6 1.85,0.77 0.44,0.18 1.45,0.54 2.25,0.81 0.8,0.28 1.97,0.65 2.6,0.84 0.63,0.18 1.78,0.49 2.55,0.69 0.77,0.19 2.08,0.48 2.9,0.65 0.83,0.16 2.25,0.41 3.16,0.55 0.9,0.14 2.25,0.32 3,0.4 0.74,0.09 1.91,0.21 2.6,0.26 0.69,0.06 3.23,0.15 5.65,0.2 2.42,0.05 5.08,0.14 5.9,0.19 0.83,0.06 1.78,0.13 2.11,0.16 0.33,0.04 1.29,0.15 2.15,0.26 0.85,0.11 2.18,0.31 2.95,0.45 0.77,0.14 2.03,0.41 2.8,0.6 0.77,0.19 1.92,0.51 2.55,0.71 0.63,0.19 1.67,0.55 2.3,0.8 0.64,0.24 1.85,0.79 2.7,1.21 0.86,0.42 2.14,1.16 2.86,1.63 0.71,0.48 1.66,1.16 2.1,1.52 0.44,0.35 1.23,1.07 1.75,1.58 0.52,0.52 1.24,1.3 1.59,1.74 0.35,0.44 0.68,0.84 0.73,0.9 0.04,0.06 0.08,-6.2 0.08,-13.9 0.01,-12.97 -0.01,-14.03 -0.16,-14.4 -0.13,-0.28 -0.17,-0.67 -0.17,-1.3 0,-0.55 0.07,-1.1 0.17,-1.4 0.13,-0.43 0.16,-1.08 0.16,-4.42 v -3.93 c -0.58,-0.76 -0.83,-1.2 -0.94,-1.47 -0.1,-0.26 -0.31,-0.93 -0.46,-1.48 -0.16,-0.55 -0.28,-1.01 -0.27,-1.02 0.01,-0.01 0.24,-0.05 0.52,-0.08 0.27,-0.03 0.65,-0.08 0.82,-0.11 l 0.33,-0.04 0.01,-6.75 c -1.29,-0.8 -1.94,-1.24 -2.29,-1.49 -0.34,-0.25 -0.93,-0.75 -1.3,-1.11 l -0.67,-0.64 c -2.56,1.43 -3.56,2 -3.87,2.19 -0.55,0.34 -0.57,0.37 -0.62,0.85 -0.05,0.41 -0.02,0.54 0.13,0.7 0.11,0.11 0.39,0.3 0.63,0.42 0.23,0.12 0.94,0.46 1.58,0.76 0.63,0.3 1.48,0.77 1.9,1.05 0.41,0.27 0.9,0.67 1.09,0.88 0.19,0.22 0.45,0.62 0.57,0.89 0.15,0.31 0.24,0.69 0.24,1 0,0.28 -0.05,0.66 -0.11,0.85 -0.1,0.3 -0.08,0.46 0.14,1.1 0.13,0.41 0.27,0.99 0.31,1.28 0.03,0.28 0.02,0.8 -0.04,1.15 -0.05,0.34 -0.16,0.79 -0.25,1 l -0.15,0.37 c -0.89,-0.28 -1.42,-0.5 -1.74,-0.66 -0.33,-0.16 -0.8,-0.47 -1.05,-0.7 -0.37,-0.32 -0.55,-0.41 -0.89,-0.42 -0.23,-0.01 -0.59,-0.1 -0.8,-0.19 -0.21,-0.1 -0.55,-0.36 -0.76,-0.58 -0.21,-0.22 -0.54,-0.69 -0.74,-1.05 -0.19,-0.36 -0.54,-0.96 -0.78,-1.35 -0.23,-0.38 -0.69,-0.97 -1.01,-1.3 -0.33,-0.33 -0.82,-0.71 -1.09,-0.84 -0.27,-0.14 -0.7,-0.27 -0.95,-0.29 -0.24,-0.02 -0.65,0.01 -0.9,0.08 -0.31,0.09 -0.6,0.28 -0.96,0.64 -0.27,0.28 -1.37,1.82 -2.43,3.41 -1.06,1.6 -2.14,3.12 -2.39,3.38 -0.26,0.27 -0.63,0.58 -0.82,0.69 -0.19,0.12 -0.62,0.46 -0.95,0.76 -0.33,0.3 -0.87,0.69 -1.2,0.88 -0.33,0.18 -0.91,0.45 -1.28,0.61 -0.37,0.15 -0.7,0.26 -0.72,0.23 -0.02,-0.03 -0.11,-0.32 -0.2,-0.65 -0.08,-0.33 -0.15,-0.94 -0.15,-1.35 0,-0.41 0.07,-1.02 0.15,-1.35 0.09,-0.33 0.25,-0.8 0.37,-1.05 0.12,-0.25 0.24,-0.78 0.27,-1.2 0.04,-0.41 0.16,-0.93 0.26,-1.15 0.11,-0.22 0.46,-0.68 0.77,-1.02 0.32,-0.35 0.54,-0.65 0.5,-0.67 -0.04,-0.02 -0.48,0.07 -0.97,0.2 -0.5,0.13 -1.24,0.27 -1.65,0.32 -0.42,0.04 -0.98,0.03 -1.25,-0.01 -0.28,-0.05 -0.71,-0.08 -0.96,-0.07 -0.24,0.01 -0.69,0.03 -1,0.04 -0.44,0 -0.69,-0.06 -1.3,-0.36 -0.41,-0.21 -1.12,-0.67 -1.57,-1.03 -0.46,-0.36 -0.83,-0.68 -0.83,-0.72 0,-0.05 0.19,-0.35 0.43,-0.68 0.24,-0.33 0.66,-0.75 0.93,-0.93 0.27,-0.18 0.73,-0.42 1.02,-0.52 0.29,-0.11 0.72,-0.23 0.95,-0.26 0.23,-0.04 0.54,-0.15 0.67,-0.24 0.14,-0.09 0.41,-0.23 0.6,-0.3 0.22,-0.08 1,-0.14 2.03,-0.16 1.41,-0.03 1.68,-0.06 1.68,-0.19 0,-0.08 -0.15,-0.19 -0.33,-0.24 -0.18,-0.05 -0.66,-0.22 -1.07,-0.39 -0.42,-0.16 -0.93,-0.4 -1.15,-0.53 -0.22,-0.13 -0.56,-0.36 -0.76,-0.51 -0.23,-0.19 -0.46,-0.28 -0.7,-0.28 -0.19,0 -0.62,-0.07 -0.95,-0.16 -0.33,-0.08 -0.87,-0.3 -1.2,-0.47 -0.33,-0.18 -0.95,-0.67 -1.4,-1.1 l -0.8,-0.79 c 0.7,-0.59 1.13,-0.9 1.4,-1.07 0.28,-0.17 0.8,-0.43 1.15,-0.57 0.49,-0.2 0.96,-0.29 1.85,-0.36 0.66,-0.05 1.48,-0.12 1.81,-0.14 0.33,-0.03 0.89,-0.01 1.25,0.06 0.35,0.06 1.93,0.42 3.5,0.8 1.57,0.38 3.21,0.76 3.65,0.85 0.44,0.09 0.98,0.16 1.2,0.17 0.22,0 0.63,-0.06 0.9,-0.14 0.28,-0.08 0.66,-0.22 0.85,-0.31 0.19,-0.09 0.41,-0.28 0.48,-0.42 0.07,-0.14 0.12,-0.51 0.12,-0.82 0,-0.32 -0.1,-0.89 -0.22,-1.28 -0.13,-0.38 -0.6,-1.37 -1.06,-2.2 -0.46,-0.82 -1.19,-2.22 -1.62,-3.1 -0.44,-0.88 -0.92,-2 -1.08,-2.5 -0.17,-0.49 -0.38,-1.28 -0.48,-1.75 -0.15,-0.66 -0.19,-1.25 -0.19,-2.6 0.01,-1.27 0.06,-2 0.19,-2.65 0.1,-0.49 0.31,-1.26 0.48,-1.7 0.16,-0.44 0.48,-1.12 0.71,-1.5 0.23,-0.38 0.75,-1.05 1.17,-1.49 0.41,-0.43 1.11,-1.02 1.55,-1.31 0.44,-0.3 1.1,-0.67 1.45,-0.83 0.36,-0.16 0.99,-0.41 1.4,-0.56 0.42,-0.15 1.61,-0.5 2.66,-0.77 1.04,-0.28 2.14,-0.59 2.45,-0.71 0.3,-0.11 0.77,-0.31 1.05,-0.45 0.27,-0.14 0.7,-0.39 0.95,-0.56 0.25,-0.16 0.6,-0.44 0.78,-0.61 0.19,-0.17 0.4,-0.44 0.49,-0.61 0.09,-0.18 0.13,-0.42 0.09,-0.6 -0.03,-0.17 -0.21,-0.5 -0.39,-0.75 -0.19,-0.25 -1.26,-1.3 -2.38,-2.35 -1.13,-1.04 -3.08,-2.92 -4.35,-4.17 -1.26,-1.25 -2.38,-2.28 -2.47,-2.28 -0.1,0 -0.64,0.11 -1.2,0.25 -0.57,0.14 -1.66,0.36 -2.43,0.5 -0.77,0.13 -2.05,0.31 -2.85,0.4 -0.8,0.08 -2.4,0.19 -3.55,0.25 -1.16,0.05 -2.31,0.1 -2.55,0.1 l -0.45,0.01 c 0.85,0.73 1.49,1.32 1.98,1.79 0.48,0.47 1.11,1.19 1.39,1.6 0.29,0.41 0.63,1.02 0.77,1.35 0.21,0.51 0.25,0.77 0.26,1.7 0.01,0.77 0.06,1.22 0.18,1.5 0.09,0.22 0.23,0.69 0.31,1.05 0.09,0.36 0.16,1.13 0.16,1.73 v 1.07 c -1.05,-0.09 -1.67,-0.2 -2.05,-0.32 -0.39,-0.11 -0.84,-0.27 -1,-0.35 -0.17,-0.09 -0.54,-0.33 -0.83,-0.54 -0.29,-0.22 -0.73,-0.44 -1,-0.5 -0.26,-0.06 -0.61,-0.19 -0.77,-0.29 -0.17,-0.1 -0.61,-0.51 -0.99,-0.91 -0.38,-0.41 -1.03,-1.26 -1.46,-1.89 -0.42,-0.63 -1.01,-1.57 -1.31,-2.08 -0.3,-0.51 -0.57,-0.93 -0.6,-0.93 -0.02,0 -0.55,0.45 -1.17,1.01 -0.62,0.55 -1.32,1.12 -1.55,1.27 -0.24,0.14 -0.69,0.35 -1,0.45 -0.32,0.1 -0.76,0.18 -0.98,0.18 -0.32,0 -0.51,0.09 -0.93,0.41 -0.28,0.23 -0.7,0.5 -0.92,0.62 -0.22,0.11 -0.65,0.28 -0.95,0.39 -0.3,0.1 -0.94,0.22 -1.42,0.26 l -0.87,0.07 c -0.13,-0.62 -0.16,-1.18 -0.16,-1.65 0,-0.7 0.04,-0.95 0.25,-1.4 0.14,-0.3 0.42,-0.73 0.62,-0.95 0.34,-0.37 0.37,-0.45 0.37,-1 0.01,-0.41 0.08,-0.76 0.24,-1.1 0.13,-0.27 0.46,-0.77 0.74,-1.1 0.29,-0.35 0.8,-0.79 1.21,-1.05 0.39,-0.25 0.71,-0.51 0.71,-0.57 0.01,-0.1 -0.24,-0.13 -0.92,-0.13 -0.51,0 -1.24,-0.05 -1.62,-0.1 -0.39,-0.06 -1.09,-0.2 -1.55,-0.31 -0.47,-0.11 -1.21,-0.38 -1.65,-0.59 -0.44,-0.21 -1.01,-0.57 -1.25,-0.8 -0.25,-0.23 -0.71,-0.55 -1.03,-0.71 -0.32,-0.16 -0.94,-0.63 -1.39,-1.07 -0.44,-0.42 -0.97,-0.99 -1.17,-1.26 l -0.37,-0.49 c 0.62,-0.54 1.05,-0.81 1.35,-0.95 0.46,-0.22 0.74,-0.27 1.6,-0.31 1.02,-0.04 1.06,-0.05 1.36,-0.35 0.16,-0.17 0.5,-0.37 0.75,-0.44 0.24,-0.08 0.81,-0.13 1.25,-0.13 0.45,0.01 1.27,0.12 1.9,0.26 0.6,0.13 1.12,0.22 1.15,0.19 0.03,-0.03 0,-0.08 -0.06,-0.12 -0.06,-0.04 -0.48,-0.36 -0.95,-0.72 -0.46,-0.36 -1.12,-0.92 -1.46,-1.25 -0.34,-0.33 -0.71,-0.8 -0.82,-1.05 -0.11,-0.25 -0.22,-0.61 -0.23,-0.81 -0.02,-0.22 -0.15,-0.48 -0.34,-0.7 -0.16,-0.19 -0.49,-0.65 -0.72,-1.04 -0.23,-0.38 -0.55,-1.04 -0.71,-1.45 -0.17,-0.41 -0.33,-0.86 -0.36,-1 -0.07,-0.24 -0.05,-0.25 0.69,-0.37 0.42,-0.07 0.97,-0.13 1.23,-0.13 0.26,0 0.79,0.07 1.18,0.15 0.38,0.08 0.95,0.27 1.25,0.42 0.4,0.2 0.71,0.28 1.15,0.29 0.42,0 0.76,0.08 1.15,0.26 0.3,0.14 0.8,0.46 1.1,0.7 0.3,0.24 0.93,0.89 1.38,1.44 0.46,0.54 1.35,1.76 1.97,2.69 0.62,0.93 1.23,1.89 1.37,2.12 0.18,0.34 0.3,0.44 0.58,0.49 0.2,0.04 1.14,0.04 2.1,0.02 1.38,-0.05 1.93,-0.1 2.56,-0.28 0.44,-0.12 1.22,-0.4 1.75,-0.62 0.52,-0.22 1.4,-0.64 1.95,-0.93 0.55,-0.29 1.55,-0.81 2.22,-1.14 0.68,-0.34 1.23,-0.64 1.23,-0.68 0,-0.05 -0.38,-1.2 -0.85,-2.58 -0.46,-1.37 -1.06,-3.29 -1.34,-4.25 -0.28,-0.96 -0.66,-2.38 -0.85,-3.15 -0.19,-0.77 -0.49,-2.07 -0.65,-2.9 -0.17,-0.82 -0.37,-1.99 -0.46,-2.6 -0.08,-0.6 -0.17,-1.28 -0.2,-1.5 l -0.06,-0.4 c -2.13,-0.11 -3.17,-0.21 -3.7,-0.29 -0.52,-0.08 -1.4,-0.26 -1.95,-0.4 -0.55,-0.14 -1.42,-0.41 -1.95,-0.61 -0.52,-0.2 -1.39,-0.6 -1.94,-0.88 -0.54,-0.29 -1.39,-0.83 -1.9,-1.2 -0.5,-0.37 -0.91,-0.66 -0.92,-0.65 0,0.02 -0.09,0.23 -0.2,0.48 -0.1,0.24 -0.44,0.72 -0.75,1.05 -0.31,0.33 -0.9,0.83 -1.3,1.12 -0.41,0.28 -1.06,0.66 -1.44,0.84 -0.53,0.25 -0.85,0.34 -1.3,0.35 -0.46,0.01 -0.7,0.07 -1,0.26 -0.22,0.14 -0.56,0.33 -0.75,0.43 -0.2,0.1 -0.67,0.25 -1.05,0.35 -0.39,0.1 -1.05,0.21 -1.48,0.24 l -0.78,0.06 c 0,-0.97 0.07,-1.52 0.16,-1.85 0.09,-0.33 0.29,-0.85 0.45,-1.15 0.16,-0.3 0.54,-0.83 0.85,-1.17 0.3,-0.35 0.55,-0.72 0.55,-0.83 0,-0.11 0.08,-0.41 0.17,-0.67 0.1,-0.27 0.32,-0.66 0.49,-0.88 0.17,-0.22 0.64,-0.64 1.05,-0.94 0.4,-0.3 0.96,-0.75 1.22,-1 0.27,-0.25 0.71,-0.8 0.99,-1.21 0.27,-0.41 0.58,-1.04 0.69,-1.4 0.1,-0.36 0.19,-0.85 0.19,-1.1 0,-0.25 -0.09,-0.63 -0.19,-0.85 -0.1,-0.22 -0.35,-0.54 -0.57,-0.72 -0.22,-0.17 -0.62,-0.41 -0.89,-0.54 -0.46,-0.2 -0.67,-0.22 -2.3,-0.23 -1.53,-0.01 -1.87,-0.04 -2.21,-0.2 -0.31,-0.15 -0.66,-0.19 -1.65,-0.2 -1.24,-0.01 -1.27,-0.02 -2,-0.38 -0.41,-0.2 -0.91,-0.5 -1.1,-0.66 l -0.35,-0.29 c 0.71,-0.99 1.14,-1.48 1.41,-1.72 0.27,-0.24 0.75,-0.56 1.07,-0.72 0.31,-0.16 0.79,-0.34 1.05,-0.41 0.26,-0.06 0.63,-0.22 0.82,-0.34 0.2,-0.13 0.62,-0.33 0.95,-0.45 0.4,-0.13 0.95,-0.22 1.61,-0.25 0.55,-0.03 1.5,0.01 2.12,0.08 0.62,0.07 1.13,0.12 1.13,0.11 0,-0.02 -0.2,-0.31 -0.45,-0.65 -0.24,-0.35 -0.56,-0.92 -0.71,-1.28 -0.21,-0.5 -0.28,-0.88 -0.32,-1.6 -0.04,-0.72 -0.09,-1 -0.22,-1.15 -0.1,-0.11 -0.32,-0.47 -0.48,-0.8 -0.17,-0.33 -0.38,-0.95 -0.46,-1.37 -0.09,-0.43 -0.16,-1.04 -0.16,-1.35 l -0.01,-0.58 c 1.89,0.1 2.17,0.16 2.71,0.41 0.36,0.17 0.87,0.5 1.14,0.74 0.27,0.25 0.61,0.64 0.75,0.87 0.17,0.28 0.42,0.5 0.76,0.67 0.27,0.14 0.72,0.47 0.99,0.73 0.27,0.26 0.68,0.77 0.91,1.13 0.23,0.36 0.84,1.46 1.35,2.45 0.51,0.99 1.11,2.08 1.32,2.43 0.21,0.34 0.48,0.9 0.59,1.25 0.17,0.48 0.24,1 0.3,2.37 0.04,0.96 0.13,1.98 0.19,2.25 0.06,0.28 0.28,0.82 0.48,1.2 0.28,0.55 0.64,0.98 1.62,1.95 0.69,0.69 1.59,1.48 2,1.76 0.42,0.28 1.03,0.6 1.36,0.73 0.33,0.12 0.82,0.27 1.1,0.32 0.27,0.05 0.86,0.09 1.3,0.09 h 0.8 c 0.28,-1.28 0.5,-2.05 0.66,-2.55 0.17,-0.49 0.57,-1.46 0.9,-2.15 0.33,-0.69 0.89,-1.68 1.24,-2.2 0.35,-0.52 0.85,-1.2 1.12,-1.5 0.27,-0.3 1.03,-0.96 1.69,-1.47 0.65,-0.5 1.38,-1.11 1.61,-1.35 0.23,-0.23 0.55,-0.7 0.7,-1.03 0.26,-0.55 0.28,-0.69 0.28,-1.8 -0.01,-0.9 -0.07,-1.43 -0.23,-2.1 -0.13,-0.5 -0.4,-1.26 -0.6,-1.7 -0.21,-0.44 -0.63,-1.18 -0.93,-1.65 -0.3,-0.47 -0.93,-1.32 -1.4,-1.9 -0.46,-0.57 -1.54,-1.76 -2.39,-2.63 -0.85,-0.88 -2.21,-2.19 -3,-2.92 -0.8,-0.73 -1.61,-1.45 -1.8,-1.61 -0.2,-0.16 -0.53,-0.32 -0.75,-0.36 -0.22,-0.04 -1.04,-0.14 -1.81,-0.23 -0.77,-0.09 -1.42,-0.19 -1.45,-0.22 -0.02,-0.02 0.05,-0.48 0.18,-1.01 0.13,-0.57 0.4,-1.34 0.66,-1.87 0.37,-0.74 0.58,-1.03 1.23,-1.64 0.57,-0.55 1,-0.85 1.59,-1.13 0.44,-0.21 1.11,-0.45 1.5,-0.54 0.47,-0.1 1.42,-0.17 2.95,-0.21 1.77,-0.04 2.5,-0.02 3.45,0.11 l 1.2,0.17 c 0.85,-0.84 1.26,-1.16 1.45,-1.26 0.25,-0.12 0.5,-0.16 0.85,-0.13 0.39,0.03 1.08,0.32 3,1.25 1.38,0.66 2.8,1.32 3.16,1.46 0.35,0.14 0.96,0.34 1.35,0.45 0.38,0.12 0.97,0.26 1.3,0.31 0.33,0.06 0.87,0.11 1.2,0.11 0.33,0 0.87,-0.07 1.2,-0.16 0.33,-0.08 0.8,-0.26 1.05,-0.4 0.25,-0.13 0.73,-0.47 1.07,-0.74 l 0.63,-0.5 V 58 h 2.9 L 91,36.4 h 76.19 V 30.5 H 90.95 L 90.9,8.85 C 86.64,8.81 85.34,8.84 85.26,8.88 Z"
       id="path14"
       inkscape:connector-curvature="0"
       style="fill:#af191c" />
    <path
       class="shp0"
       d="m 91.06,8.87 c -0.13,0.04 -0.15,1.49 -0.13,10.84 l 0.02,10.79 h 76.24 V 8.8 C 108.3,8.81 91.14,8.84 91.06,8.87 Z M 8.91,47.2 V 58.05 L 85.15,58 85.06,36.4 8.91,36.35 Z M 90.98,36.39 c -0.04,0.02 -0.05,4.9 -0.04,10.83 L 90.95,58 h 76.24 L 167.1,36.4 C 108.15,36.36 91.01,36.37 90.98,36.39 Z"
       id="path16"
       inkscape:connector-curvature="0"
       style="fill:#ffffff" />
    <path
       class="shp3"
       d="m 91.15,65.65 c 0,0.76 -0.05,1.33 -0.19,1.85 -0.1,0.41 -0.31,1.02 -0.45,1.35 -0.15,0.33 -0.53,0.98 -0.84,1.45 -0.31,0.47 -0.95,1.24 -1.42,1.71 -0.47,0.48 -1.1,1.03 -1.4,1.23 -0.3,0.19 -0.8,0.45 -1.1,0.57 -0.3,0.12 -0.89,0.23 -1.3,0.26 -0.41,0.03 -1.07,0 -1.45,-0.06 -0.39,-0.07 -1.02,-0.21 -1.4,-0.32 -0.39,-0.12 -1,-0.32 -1.35,-0.46 -0.36,-0.14 -1.78,-0.8 -3.16,-1.46 -1.92,-0.93 -2.61,-1.22 -3,-1.25 -0.35,-0.03 -0.6,0.01 -0.85,0.13 -0.19,0.1 -0.6,0.42 -0.9,0.72 l -0.55,0.54 c -2.15,-0.3 -2.88,-0.32 -4.65,-0.28 -1.53,0.04 -2.48,0.11 -2.95,0.21 -0.39,0.09 -1.06,0.33 -1.5,0.54 -0.59,0.28 -1.02,0.58 -1.59,1.13 -0.65,0.61 -0.86,0.9 -1.23,1.64 -0.26,0.53 -0.53,1.3 -0.66,1.87 -0.13,0.53 -0.2,0.99 -0.18,1.01 0.03,0.03 0.68,0.13 1.45,0.22 0.77,0.09 1.59,0.19 1.81,0.23 0.22,0.04 0.55,0.2 0.75,0.36 0.19,0.16 1,0.88 1.8,1.61 0.79,0.73 2.15,2.04 3,2.92 0.85,0.87 1.93,2.06 2.39,2.63 0.47,0.58 1.1,1.43 1.4,1.9 0.3,0.47 0.72,1.21 0.93,1.65 0.2,0.44 0.47,1.2 0.6,1.7 0.16,0.67 0.22,1.2 0.23,2.1 0,1.11 -0.02,1.25 -0.28,1.8 -0.15,0.33 -0.47,0.8 -0.7,1.03 -0.23,0.24 -0.96,0.85 -1.61,1.35 -0.66,0.51 -1.42,1.17 -1.69,1.47 -0.27,0.3 -0.77,0.98 -1.12,1.5 -0.35,0.52 -0.91,1.51 -1.24,2.2 -0.33,0.69 -0.73,1.66 -0.9,2.15 -0.16,0.5 -0.38,1.27 -0.48,1.73 l -0.18,0.82 c -1.24,0 -1.83,-0.04 -2.1,-0.09 -0.28,-0.05 -0.77,-0.2 -1.1,-0.32 -0.33,-0.13 -0.94,-0.45 -1.36,-0.73 -0.41,-0.28 -1.31,-1.07 -2,-1.76 -0.98,-0.97 -1.34,-1.4 -1.62,-1.95 -0.2,-0.38 -0.42,-0.92 -0.48,-1.2 -0.06,-0.27 -0.15,-1.29 -0.19,-2.25 -0.06,-1.37 -0.13,-1.89 -0.3,-2.37 C 55.93,96.38 55.66,95.82 55.45,95.48 55.24,95.13 54.64,94.04 54.13,93.05 53.62,92.06 53.01,90.96 52.78,90.6 52.55,90.24 52.14,89.73 51.87,89.47 51.6,89.21 51.15,88.88 50.88,88.74 50.54,88.57 50.29,88.35 50.12,88.07 49.98,87.84 49.64,87.45 49.37,87.2 49.1,86.96 48.59,86.63 48.23,86.46 47.69,86.21 47.41,86.15 46.55,86.11 l -1.03,-0.06 c 0.01,0.89 0.08,1.5 0.17,1.93 0.08,0.42 0.29,1.04 0.46,1.37 0.16,0.33 0.38,0.69 0.48,0.8 0.13,0.15 0.18,0.43 0.22,1.15 0.04,0.72 0.11,1.1 0.32,1.6 0.15,0.36 0.47,0.93 0.71,1.28 0.25,0.34 0.45,0.63 0.45,0.65 0,0.01 -0.51,-0.04 -1.13,-0.11 -0.62,-0.07 -1.57,-0.11 -2.12,-0.08 -0.66,0.03 -1.21,0.12 -1.61,0.25 -0.33,0.12 -0.75,0.32 -0.95,0.45 -0.19,0.12 -0.56,0.28 -0.82,0.34 -0.26,0.07 -0.74,0.25 -1.05,0.41 -0.32,0.16 -0.8,0.48 -1.07,0.72 -0.27,0.24 -0.7,0.73 -0.95,1.08 l -0.46,0.64 c 0.54,0.45 1.04,0.75 1.45,0.95 0.73,0.36 0.76,0.37 2,0.38 0.99,0.01 1.34,0.05 1.65,0.2 0.34,0.16 0.68,0.19 2.21,0.2 1.63,0.01 1.84,0.03 2.3,0.23 0.27,0.13 0.67,0.37 0.89,0.54 0.22,0.18 0.47,0.5 0.57,0.72 0.1,0.22 0.19,0.6 0.19,0.85 0,0.25 -0.09,0.74 -0.19,1.1 -0.11,0.36 -0.42,0.99 -0.69,1.4 -0.28,0.41 -0.72,0.96 -0.99,1.21 -0.26,0.25 -0.82,0.69 -1.23,0.98 -0.4,0.29 -0.88,0.71 -1.04,0.94 -0.17,0.23 -0.39,0.63 -0.49,0.9 -0.09,0.26 -0.17,0.56 -0.17,0.67 0,0.11 -0.25,0.48 -0.55,0.83 -0.31,0.34 -0.69,0.87 -0.85,1.17 -0.16,0.3 -0.36,0.82 -0.45,1.15 -0.09,0.33 -0.16,0.88 -0.16,1.23 v 0.62 c 1.21,-0.09 1.87,-0.2 2.26,-0.3 0.38,-0.1 0.85,-0.25 1.05,-0.35 0.19,-0.1 0.53,-0.29 0.75,-0.43 0.3,-0.19 0.54,-0.25 1,-0.26 0.45,-0.01 0.77,-0.1 1.3,-0.35 0.38,-0.18 1.03,-0.56 1.44,-0.84 0.4,-0.29 0.99,-0.79 1.3,-1.12 0.31,-0.33 0.65,-0.81 0.75,-1.05 0.11,-0.25 0.2,-0.46 0.2,-0.48 0.01,-0.01 0.42,0.28 0.92,0.65 0.51,0.37 1.36,0.91 1.9,1.2 0.55,0.28 1.42,0.68 1.94,0.88 0.53,0.2 1.4,0.47 1.95,0.61 0.55,0.14 1.43,0.32 1.95,0.4 0.53,0.08 1.57,0.18 2.33,0.22 l 1.37,0.07 c 0.09,0.62 0.18,1.3 0.26,1.9 0.09,0.61 0.29,1.78 0.46,2.6 0.16,0.83 0.46,2.13 0.65,2.9 0.19,0.77 0.57,2.19 0.85,3.15 0.28,0.96 0.88,2.88 1.34,4.25 0.47,1.38 0.85,2.53 0.85,2.58 0,0.04 -0.55,0.34 -1.23,0.68 -0.67,0.33 -1.67,0.85 -2.22,1.14 -0.55,0.29 -1.43,0.71 -1.95,0.93 -0.53,0.22 -1.31,0.5 -1.75,0.62 -0.63,0.18 -1.18,0.23 -2.56,0.28 -0.96,0.02 -1.9,0.02 -2.1,-0.02 -0.28,-0.05 -0.4,-0.15 -0.58,-0.49 -0.14,-0.23 -0.75,-1.19 -1.37,-2.12 -0.62,-0.93 -1.51,-2.15 -1.97,-2.69 -0.45,-0.55 -1.08,-1.2 -1.38,-1.44 -0.3,-0.24 -0.8,-0.56 -1.1,-0.7 -0.39,-0.18 -0.73,-0.26 -1.15,-0.26 -0.44,-0.01 -0.75,-0.09 -1.15,-0.29 -0.3,-0.15 -0.87,-0.34 -1.25,-0.42 -0.39,-0.08 -0.92,-0.15 -1.18,-0.15 -0.26,0 -0.81,0.06 -1.23,0.13 -0.74,0.12 -0.76,0.13 -0.69,0.37 0.03,0.14 0.19,0.59 0.36,1 0.16,0.41 0.48,1.07 0.71,1.45 0.23,0.39 0.56,0.85 0.72,1.04 0.19,0.22 0.32,0.48 0.34,0.7 0.01,0.2 0.12,0.56 0.23,0.81 0.11,0.25 0.48,0.72 0.82,1.05 0.34,0.33 1,0.89 1.46,1.25 0.47,0.36 0.89,0.68 0.95,0.72 0.06,0.04 0.09,0.09 0.06,0.12 -0.03,0.03 -0.55,-0.06 -1.15,-0.19 -0.63,-0.14 -1.45,-0.25 -1.9,-0.26 -0.44,0 -1.01,0.05 -1.25,0.13 -0.25,0.07 -0.59,0.27 -0.75,0.44 -0.3,0.3 -0.34,0.31 -1.36,0.35 -0.86,0.04 -1.14,0.09 -1.6,0.31 -0.3,0.14 -0.73,0.41 -0.95,0.6 l -0.4,0.35 c 0.57,0.76 1.1,1.33 1.54,1.75 0.45,0.44 1.07,0.91 1.39,1.07 0.32,0.16 0.78,0.48 1.03,0.71 0.24,0.23 0.81,0.59 1.25,0.8 0.44,0.21 1.18,0.48 1.65,0.59 0.46,0.11 1.16,0.25 1.55,0.31 0.38,0.05 1.11,0.1 1.62,0.1 0.68,0 0.93,0.03 0.92,0.13 0,0.06 -0.32,0.32 -0.71,0.57 -0.41,0.26 -0.92,0.7 -1.21,1.05 -0.28,0.33 -0.61,0.83 -0.74,1.1 -0.16,0.34 -0.23,0.69 -0.24,1.1 0,0.55 -0.03,0.63 -0.37,1 -0.2,0.22 -0.48,0.65 -0.62,0.95 -0.21,0.45 -0.25,0.7 -0.25,1.4 0,0.47 0.03,1.03 0.08,1.25 l 0.08,0.4 c 1.35,-0.11 1.99,-0.23 2.29,-0.33 0.3,-0.11 0.73,-0.28 0.95,-0.39 0.22,-0.12 0.64,-0.39 0.92,-0.62 0.42,-0.32 0.61,-0.41 0.93,-0.41 0.22,0 0.66,-0.08 0.98,-0.18 0.31,-0.1 0.76,-0.31 1,-0.45 0.23,-0.15 0.93,-0.72 1.55,-1.27 0.62,-0.56 1.15,-1.01 1.17,-1.01 0.03,0 0.3,0.42 0.6,0.93 0.3,0.51 0.89,1.45 1.31,2.08 0.43,0.63 1.08,1.48 1.46,1.89 0.38,0.4 0.82,0.81 0.99,0.91 0.16,0.1 0.51,0.23 0.77,0.29 0.27,0.06 0.71,0.28 1,0.5 0.29,0.21 0.66,0.45 0.83,0.54 0.16,0.08 0.61,0.24 1,0.35 0.38,0.12 1,0.23 1.37,0.26 l 0.68,0.06 c 0,-1.67 -0.07,-2.44 -0.16,-2.8 -0.08,-0.36 -0.22,-0.83 -0.31,-1.05 -0.12,-0.28 -0.17,-0.73 -0.18,-1.5 -0.01,-0.93 -0.05,-1.19 -0.26,-1.7 -0.14,-0.33 -0.48,-0.94 -0.77,-1.35 -0.28,-0.41 -0.91,-1.13 -1.39,-1.6 -0.49,-0.47 -1.13,-1.06 -1.43,-1.32 l -0.55,-0.47 c 0.69,-0.01 1.84,-0.06 3,-0.11 1.15,-0.06 2.75,-0.17 3.55,-0.25 0.8,-0.09 2.08,-0.27 2.85,-0.4 0.77,-0.14 1.86,-0.36 2.43,-0.5 0.56,-0.14 1.1,-0.25 1.2,-0.25 0.09,0 1.21,1.03 2.47,2.28 1.27,1.25 3.22,3.13 4.35,4.17 1.12,1.05 2.19,2.1 2.38,2.35 0.18,0.25 0.36,0.58 0.39,0.75 0.04,0.18 0,0.42 -0.09,0.6 -0.09,0.17 -0.3,0.44 -0.49,0.61 -0.18,0.17 -0.53,0.45 -0.78,0.61 -0.25,0.17 -0.68,0.42 -0.95,0.56 -0.28,0.14 -0.75,0.34 -1.05,0.45 -0.31,0.12 -1.41,0.43 -2.45,0.71 -1.05,0.27 -2.24,0.62 -2.66,0.77 -0.41,0.15 -1.04,0.4 -1.4,0.56 -0.35,0.16 -1.01,0.53 -1.45,0.83 -0.44,0.29 -1.14,0.88 -1.55,1.31 -0.42,0.44 -0.94,1.11 -1.17,1.49 -0.23,0.38 -0.55,1.06 -0.71,1.5 -0.17,0.44 -0.38,1.21 -0.48,1.7 -0.13,0.65 -0.18,1.38 -0.19,2.65 0,1.35 0.04,1.94 0.19,2.6 0.1,0.47 0.31,1.26 0.48,1.75 0.16,0.5 0.64,1.62 1.08,2.5 0.43,0.88 1.16,2.28 1.62,3.1 0.46,0.83 0.93,1.82 1.06,2.2 0.12,0.39 0.22,0.96 0.22,1.28 0,0.31 -0.05,0.68 -0.12,0.82 -0.07,0.14 -0.29,0.33 -0.48,0.42 -0.19,0.09 -0.57,0.23 -0.85,0.31 -0.27,0.08 -0.68,0.14 -0.9,0.14 -0.22,-0.01 -0.76,-0.08 -1.2,-0.17 -0.44,-0.09 -2.08,-0.47 -3.65,-0.85 -1.57,-0.38 -3.15,-0.74 -3.5,-0.8 -0.36,-0.07 -0.92,-0.09 -1.25,-0.06 -0.33,0.02 -1.15,0.09 -1.81,0.14 -0.89,0.07 -1.36,0.16 -1.85,0.36 -0.35,0.14 -0.87,0.4 -1.15,0.57 -0.27,0.17 -0.7,0.48 -0.95,0.69 l -0.45,0.38 c 1.25,1.22 1.87,1.71 2.2,1.89 0.33,0.17 0.87,0.39 1.2,0.47 0.33,0.09 0.76,0.16 0.95,0.16 0.24,0 0.47,0.09 0.7,0.28 0.2,0.15 0.54,0.38 0.76,0.51 0.22,0.13 0.73,0.37 1.15,0.53 0.41,0.17 0.89,0.34 1.07,0.39 0.18,0.05 0.33,0.16 0.33,0.24 0,0.13 -0.27,0.16 -1.68,0.19 -1.03,0.02 -1.81,0.08 -2.03,0.16 -0.19,0.07 -0.46,0.21 -0.6,0.3 -0.13,0.09 -0.44,0.2 -0.67,0.24 -0.23,0.03 -0.66,0.15 -0.95,0.26 -0.29,0.1 -0.75,0.34 -1.02,0.52 -0.27,0.18 -0.69,0.6 -0.93,0.93 -0.24,0.33 -0.43,0.63 -0.43,0.68 0,0.04 0.37,0.36 0.83,0.72 0.45,0.36 1.16,0.82 1.57,1.03 0.61,0.3 0.86,0.36 1.3,0.36 0.31,-0.01 0.76,-0.03 1,-0.04 0.25,-0.01 0.68,0.02 0.96,0.07 0.27,0.04 0.83,0.05 1.25,0.01 0.41,-0.05 1.15,-0.19 1.65,-0.32 0.49,-0.13 0.93,-0.22 0.97,-0.2 0.04,0.02 -0.18,0.32 -0.5,0.67 -0.31,0.34 -0.66,0.8 -0.77,1.02 -0.1,0.22 -0.22,0.74 -0.26,1.15 -0.03,0.42 -0.15,0.95 -0.27,1.2 -0.12,0.25 -0.28,0.72 -0.37,1.05 -0.08,0.33 -0.15,0.94 -0.15,1.35 0,0.41 0.07,1.02 0.15,1.35 0.09,0.33 0.18,0.62 0.2,0.65 0.02,0.03 0.35,-0.08 0.72,-0.23 0.37,-0.16 0.95,-0.43 1.28,-0.61 0.33,-0.19 0.87,-0.58 1.2,-0.88 0.33,-0.3 0.76,-0.64 0.95,-0.76 0.19,-0.11 0.56,-0.42 0.82,-0.69 0.25,-0.26 1.33,-1.78 2.39,-3.38 1.06,-1.59 2.16,-3.13 2.43,-3.41 0.36,-0.36 0.65,-0.55 0.96,-0.64 0.25,-0.07 0.66,-0.1 0.9,-0.08 0.25,0.02 0.68,0.15 0.95,0.29 0.27,0.13 0.76,0.51 1.09,0.84 0.32,0.33 0.78,0.92 1.01,1.3 0.24,0.39 0.59,0.99 0.78,1.35 0.2,0.36 0.53,0.83 0.74,1.05 0.21,0.22 0.55,0.48 0.76,0.58 0.21,0.09 0.57,0.18 0.8,0.19 0.34,0.01 0.52,0.1 0.89,0.42 0.25,0.23 0.72,0.54 1.05,0.7 0.32,0.16 0.85,0.38 1.16,0.48 l 0.58,0.18 c 0.24,-0.58 0.35,-1.03 0.4,-1.37 0.06,-0.35 0.07,-0.87 0.04,-1.15 -0.04,-0.29 -0.18,-0.87 -0.31,-1.28 -0.22,-0.64 -0.24,-0.8 -0.14,-1.1 0.06,-0.19 0.11,-0.57 0.11,-0.85 0,-0.31 -0.09,-0.69 -0.24,-1 -0.12,-0.27 -0.38,-0.67 -0.57,-0.89 -0.19,-0.21 -0.68,-0.61 -1.09,-0.88 -0.42,-0.28 -1.27,-0.75 -1.9,-1.05 -0.64,-0.3 -1.35,-0.64 -1.58,-0.76 -0.24,-0.12 -0.52,-0.31 -0.63,-0.42 -0.15,-0.16 -0.18,-0.29 -0.13,-0.7 0.05,-0.48 0.07,-0.51 0.62,-0.85 0.31,-0.19 1.31,-0.76 2.22,-1.27 l 1.65,-0.92 c 1.24,1.17 2.09,1.84 2.7,2.24 0.6,0.41 1.66,1.03 2.35,1.39 0.69,0.36 1.68,0.83 2.2,1.04 0.52,0.21 1.27,0.48 1.65,0.6 0.39,0.12 1.04,0.28 1.45,0.37 0.42,0.09 1.23,0.19 1.8,0.22 0.59,0.03 1.52,0 2.11,-0.06 0.57,-0.07 1.5,-0.23 2.05,-0.36 0.55,-0.13 1.36,-0.36 1.8,-0.5 0.44,-0.15 1.36,-0.54 2.05,-0.87 0.69,-0.32 1.46,-0.72 1.73,-0.89 0.44,-0.27 0.49,-0.28 0.72,-0.14 0.2,0.12 0.25,0.23 0.25,0.58 0,0.23 -0.11,0.87 -0.24,1.42 -0.14,0.55 -0.43,1.52 -0.65,2.15 -0.22,0.63 -0.56,1.53 -0.75,2 -0.19,0.47 -0.54,1.13 -0.76,1.48 -0.28,0.44 -0.57,0.73 -0.98,0.99 -0.31,0.2 -0.82,0.47 -1.12,0.61 -0.3,0.13 -0.98,0.35 -1.5,0.48 -0.7,0.18 -1.23,0.25 -2,0.25 -0.72,0 -1.29,-0.06 -1.8,-0.19 -0.42,-0.11 -1,-0.32 -1.31,-0.47 -0.3,-0.15 -0.95,-0.55 -1.45,-0.88 -0.49,-0.33 -1.14,-0.72 -1.45,-0.86 -0.39,-0.18 -0.75,-0.26 -1.25,-0.27 -0.38,-0.02 -1.15,-0.1 -1.7,-0.2 -0.86,-0.15 -1.16,-0.16 -2.15,-0.06 -0.63,0.06 -1.16,0.13 -1.17,0.14 -0.01,0.02 0.11,0.48 0.27,1.03 0.15,0.55 0.36,1.22 0.46,1.48 0.11,0.27 0.35,0.69 0.54,0.95 0.2,0.26 0.67,0.68 1.05,0.94 0.39,0.27 0.88,0.54 1.1,0.62 0.22,0.08 0.65,0.22 0.95,0.3 0.32,0.09 0.79,0.33 1.12,0.58 0.32,0.24 0.58,0.46 0.58,0.51 0,0.04 -0.23,0.14 -0.52,0.21 -0.29,0.08 -0.8,0.32 -1.13,0.54 -0.33,0.21 -0.85,0.64 -1.15,0.94 -0.3,0.3 -0.66,0.77 -0.79,1.04 -0.14,0.29 -0.25,0.69 -0.26,0.99 -0.01,0.3 -0.11,0.71 -0.27,1.05 -0.15,0.3 -0.35,0.82 -0.44,1.15 -0.12,0.38 -0.18,0.92 -0.18,1.45 0,0.66 0.05,0.96 0.22,1.33 0.12,0.26 0.27,0.47 0.32,0.47 0.06,0 0.43,-0.12 0.83,-0.26 0.39,-0.15 1.04,-0.45 1.42,-0.67 0.39,-0.23 0.9,-0.6 1.15,-0.83 0.31,-0.29 0.61,-0.46 0.95,-0.55 0.28,-0.06 0.73,-0.23 1,-0.37 0.28,-0.14 0.82,-0.55 1.2,-0.93 0.39,-0.37 0.93,-0.78 1.2,-0.92 0.28,-0.13 0.71,-0.29 0.96,-0.35 0.24,-0.06 0.94,-0.16 1.55,-0.23 0.6,-0.06 1.15,-0.1 1.22,-0.08 0.07,0.02 -0.23,0.34 -0.67,0.72 -0.44,0.37 -1.05,0.97 -1.36,1.35 -0.31,0.37 -0.72,1.01 -0.93,1.42 -0.3,0.62 -0.37,0.86 -0.4,1.5 -0.02,0.65 0.01,0.82 0.23,1.25 0.2,0.39 0.24,0.58 0.19,0.9 -0.03,0.22 -0.01,0.7 0.05,1.08 0.06,0.37 0.23,0.92 0.37,1.22 0.24,0.53 0.26,0.55 0.57,0.49 0.18,-0.04 0.55,-0.15 0.83,-0.25 0.27,-0.1 0.71,-0.32 0.97,-0.49 0.26,-0.16 0.75,-0.55 1.08,-0.85 0.35,-0.32 0.69,-0.55 0.82,-0.55 0.13,0 0.45,-0.13 0.73,-0.29 0.27,-0.15 0.65,-0.46 0.84,-0.67 0.19,-0.22 0.45,-0.61 0.58,-0.89 0.13,-0.29 0.27,-0.86 0.33,-1.35 0.05,-0.47 0.16,-1.03 0.23,-1.25 0.08,-0.22 0.45,-0.87 0.83,-1.45 0.37,-0.58 0.7,-1.07 0.71,-1.1 0.01,-0.03 0.31,0.22 0.65,0.54 0.35,0.32 0.9,0.78 1.23,1.02 0.33,0.23 0.98,0.64 1.45,0.91 0.47,0.27 1.33,0.7 1.9,0.95 0.58,0.26 1.37,0.56 1.75,0.67 0.39,0.11 1.02,0.25 1.4,0.31 0.39,0.06 0.93,0.2 1.21,0.31 0.27,0.1 0.81,0.26 1.2,0.34 0.38,0.08 1.16,0.15 1.72,0.15 h 1.03 c 0,-0.97 -0.07,-1.54 -0.14,-1.9 -0.08,-0.36 -0.26,-0.89 -0.4,-1.17 -0.14,-0.29 -0.52,-0.83 -0.84,-1.2 -0.31,-0.36 -0.78,-0.87 -1.02,-1.12 -0.25,-0.26 -0.77,-0.64 -1.15,-0.87 -0.39,-0.22 -1.43,-0.73 -2.31,-1.13 -0.88,-0.41 -2.02,-0.95 -2.55,-1.21 -0.59,-0.3 -1.07,-0.63 -1.29,-0.87 -0.33,-0.37 -0.33,-0.4 -0.29,-1.13 0.03,-0.57 0.11,-0.9 0.34,-1.4 0.17,-0.36 0.58,-0.99 0.92,-1.4 0.33,-0.41 1.04,-1.27 1.58,-1.9 0.53,-0.63 1.29,-1.6 1.68,-2.15 0.39,-0.55 1,-1.49 1.34,-2.1 0.35,-0.6 0.77,-1.46 0.94,-1.9 0.17,-0.44 0.39,-1.2 0.5,-1.7 0.1,-0.49 0.18,-1.16 0.19,-1.47 0,-0.32 -0.05,-0.82 -0.12,-1.1 -0.06,-0.29 -0.21,-0.73 -0.33,-0.98 -0.13,-0.25 -0.45,-0.66 -0.72,-0.91 -0.27,-0.25 -0.8,-0.64 -1.18,-0.86 -0.39,-0.23 -1.18,-0.64 -1.76,-0.92 -0.57,-0.28 -1.41,-0.6 -1.85,-0.71 -0.44,-0.11 -1.11,-0.2 -1.5,-0.2 -0.38,0 -1.4,0.07 -2.25,0.15 -0.85,0.07 -2.37,0.18 -3.36,0.22 l -1.81,0.08 c -0.26,-0.5 -0.32,-0.72 -0.31,-0.82 0.02,-0.11 0.29,-0.23 0.93,-0.4 0.49,-0.13 1.28,-0.41 1.75,-0.61 0.47,-0.21 1.19,-0.6 1.6,-0.87 0.41,-0.27 1.25,-0.99 1.85,-1.59 0.61,-0.61 1.4,-1.54 1.77,-2.06 0.37,-0.52 0.96,-1.42 1.3,-1.99 l 0.63,-1.03 c 0.93,0.1 1.74,0.24 2.4,0.37 0.67,0.14 1.93,0.45 2.81,0.7 0.88,0.26 1.98,0.53 2.45,0.61 0.47,0.08 1.34,0.14 1.95,0.14 0.6,0 1.5,-0.07 2,-0.15 0.5,-0.08 1.31,-0.28 1.8,-0.45 0.5,-0.16 1.24,-0.49 1.65,-0.72 0.44,-0.25 1.06,-0.74 1.5,-1.18 0.53,-0.53 0.88,-0.99 1.17,-1.55 0.23,-0.44 0.52,-1.16 0.64,-1.6 0.19,-0.66 0.23,-1.07 0.23,-2.35 0,-0.97 -0.07,-1.98 -0.17,-2.7 -0.1,-0.63 -0.33,-1.8 -0.53,-2.6 -0.19,-0.8 -0.63,-2.3 -0.98,-3.35 -0.35,-1.04 -1.05,-2.89 -1.56,-4.1 -0.5,-1.21 -1.4,-3.26 -2,-4.55 -0.59,-1.29 -1.29,-2.82 -1.55,-3.4 -0.25,-0.58 -0.71,-1.66 -1.02,-2.4 -0.3,-0.74 -0.77,-2 -1.03,-2.8 -0.27,-0.8 -0.6,-1.97 -0.74,-2.6 -0.14,-0.63 -0.3,-1.64 -0.37,-2.25 -0.08,-0.83 -0.08,-1.3 0.01,-1.9 0.07,-0.44 0.23,-1.01 0.36,-1.27 0.13,-0.27 0.4,-0.6 0.61,-0.75 0.3,-0.23 0.46,-0.28 0.97,-0.28 0.48,0 0.74,0.07 1.26,0.32 0.36,0.18 0.92,0.5 1.25,0.72 0.33,0.22 0.92,0.66 1.3,0.98 0.39,0.33 0.94,0.9 1.23,1.29 0.28,0.38 0.6,0.92 0.69,1.19 0.12,0.39 0.15,0.7 0.1,1.38 -0.04,0.48 -0.1,1.26 -0.13,1.75 -0.04,0.55 -0.02,1.13 0.06,1.57 0.07,0.38 0.28,1.17 0.47,1.75 0.18,0.58 0.6,1.59 0.93,2.25 0.32,0.66 0.87,1.63 1.21,2.15 0.38,0.58 1.01,1.34 1.64,1.95 0.55,0.56 1.39,1.26 1.86,1.57 0.46,0.31 1.23,0.77 1.7,1.02 0.46,0.26 0.87,0.47 0.9,0.46 0.03,0 0.08,-0.35 0.12,-0.77 0.05,-0.43 0.15,-1.07 0.22,-1.43 0.08,-0.36 0.26,-1.14 0.4,-1.75 0.14,-0.6 0.33,-1.53 0.42,-2.05 0.12,-0.67 0.18,-1.53 0.18,-2.9 0.01,-1.8 -0.01,-2 -0.22,-2.6 -0.13,-0.36 -0.42,-0.97 -0.65,-1.35 -0.23,-0.38 -0.71,-1.01 -1.07,-1.39 -0.36,-0.37 -0.97,-0.89 -1.35,-1.15 -0.5,-0.34 -0.88,-0.51 -1.3,-0.6 -0.33,-0.06 -0.78,-0.16 -1,-0.22 -0.27,-0.07 -0.56,-0.27 -0.86,-0.58 -0.26,-0.28 -0.67,-0.93 -1,-1.56 -0.3,-0.6 -0.79,-1.47 -1.08,-1.94 -0.29,-0.47 -0.85,-1.19 -1.25,-1.59 -0.39,-0.4 -0.99,-0.94 -1.32,-1.19 -0.33,-0.25 -1,-0.65 -1.5,-0.89 -0.53,-0.25 -1.25,-0.5 -1.75,-0.6 -0.63,-0.12 -1.1,-0.15 -1.8,-0.11 -0.52,0.04 -1.2,0.13 -1.5,0.22 -0.3,0.08 -0.89,0.31 -1.3,0.52 -0.48,0.23 -1,0.61 -1.44,1.03 -0.38,0.36 -0.83,0.9 -1.01,1.2 -0.18,0.3 -0.45,0.87 -0.58,1.25 -0.14,0.39 -0.31,1.11 -0.38,1.6 -0.08,0.58 -0.1,1.39 -0.06,2.25 0.04,0.74 0.13,1.78 0.21,2.3 0.08,0.52 0.26,1.42 0.39,2 0.14,0.58 0.42,1.55 0.62,2.15 0.2,0.61 0.56,1.57 0.8,2.15 0.23,0.58 0.78,1.82 1.2,2.75 0.42,0.94 1.11,2.47 1.52,3.4 0.41,0.94 1.11,2.6 1.55,3.7 0.44,1.1 1.08,2.79 1.43,3.75 0.35,0.96 0.81,2.34 1.04,3.05 0.22,0.72 0.52,1.8 0.67,2.4 0.14,0.61 0.28,1.55 0.31,2.1 0.04,0.7 0.02,1.12 -0.07,1.4 -0.08,0.22 -0.3,0.57 -0.49,0.79 -0.2,0.21 -0.54,0.49 -0.76,0.61 -0.22,0.13 -0.67,0.31 -1,0.39 -0.35,0.09 -1.03,0.16 -1.63,0.16 -0.56,0 -1.35,-0.06 -1.75,-0.14 -0.4,-0.08 -1.15,-0.28 -1.67,-0.45 -0.53,-0.18 -1.67,-0.67 -2.55,-1.1 -0.89,-0.43 -1.7,-0.86 -1.82,-0.97 -0.11,-0.1 -0.49,-0.91 -0.84,-1.79 -0.34,-0.88 -0.78,-1.92 -0.97,-2.3 -0.2,-0.38 -0.56,-1.01 -0.8,-1.4 -0.25,-0.38 -0.71,-1.04 -1.03,-1.45 -0.31,-0.41 -1.58,-1.9 -2.8,-3.3 -1.23,-1.4 -2.73,-3.13 -3.34,-3.85 -0.6,-0.72 -1.62,-1.95 -2.26,-2.75 -0.64,-0.8 -1.63,-2.06 -2.19,-2.8 -0.56,-0.74 -1.17,-1.64 -1.36,-2 -0.27,-0.53 -0.38,-0.91 -0.54,-2 -0.12,-0.74 -0.28,-2.07 -0.36,-2.95 -0.09,-0.88 -0.16,-1.77 -0.16,-1.97 0,-0.35 0.06,-0.42 0.68,-0.88 0.37,-0.27 1.46,-0.94 2.43,-1.49 0.96,-0.54 2.03,-1.2 2.37,-1.45 0.35,-0.25 0.93,-0.76 1.29,-1.13 0.37,-0.38 1.1,-1.26 1.64,-1.98 0.53,-0.72 1.17,-1.58 1.41,-1.92 l 0.44,-0.63 c 1.71,-0.4 4.16,-0.99 6.55,-1.56 2.4,-0.58 5.1,-1.23 6.01,-1.44 1.29,-0.31 1.75,-0.47 2.13,-0.72 0.35,-0.24 0.56,-0.47 0.73,-0.83 0.13,-0.29 0.28,-0.88 0.35,-1.4 0.06,-0.5 0.09,-1.32 0.06,-1.85 -0.04,-0.52 -0.14,-1.2 -0.23,-1.5 -0.09,-0.3 -0.27,-0.71 -0.39,-0.9 -0.12,-0.19 -0.31,-0.43 -0.41,-0.52 -0.11,-0.09 -0.39,-0.26 -0.64,-0.37 -0.25,-0.11 -0.63,-0.21 -0.85,-0.21 -0.22,0 -0.93,0.15 -1.58,0.32 -0.64,0.18 -1.17,0.31 -1.17,0.28 0,-0.03 1.34,-0.61 2.97,-1.29 1.64,-0.69 3.97,-1.66 5.18,-2.17 1.62,-0.69 2.33,-1.04 2.68,-1.34 0.3,-0.26 0.51,-0.53 0.59,-0.77 0.06,-0.21 0.11,-0.7 0.1,-1.08 0,-0.38 -0.03,-0.92 -0.07,-1.2 -0.03,-0.27 -0.13,-0.81 -0.22,-1.2 -0.08,-0.38 -0.24,-0.87 -0.34,-1.07 -0.1,-0.21 -0.36,-0.57 -0.56,-0.79 -0.21,-0.23 -0.55,-0.5 -0.75,-0.6 -0.21,-0.11 -0.57,-0.22 -0.8,-0.25 -0.24,-0.04 -0.66,-0.01 -0.95,0.05 -0.29,0.06 -1.69,0.65 -3.11,1.31 -1.41,0.66 -2.62,1.2 -2.67,1.2 -0.06,0 0.33,-0.25 0.85,-0.56 0.52,-0.31 2.72,-1.6 4.89,-2.87 2.44,-1.44 4.08,-2.47 4.33,-2.72 0.22,-0.22 0.44,-0.56 0.5,-0.75 0.07,-0.21 0.09,-0.73 0.06,-1.3 -0.03,-0.58 -0.18,-1.44 -0.38,-2.2 -0.17,-0.69 -0.47,-1.59 -0.66,-2 -0.2,-0.41 -0.5,-0.93 -0.67,-1.14 -0.17,-0.21 -0.52,-0.51 -0.77,-0.65 -0.37,-0.21 -0.57,-0.26 -1.15,-0.26 -0.57,0.01 -0.8,0.06 -1.25,0.29 -0.3,0.16 -1.35,0.82 -2.33,1.47 -0.97,0.66 -1.79,1.18 -1.82,1.17 -0.03,-0.02 0.95,-0.77 2.17,-1.68 1.23,-0.91 2.38,-1.78 2.56,-1.95 0.19,-0.16 0.4,-0.48 0.49,-0.7 0.1,-0.26 0.13,-0.57 0.1,-0.9 -0.03,-0.3 -0.22,-0.82 -0.46,-1.3 -0.22,-0.44 -0.75,-1.27 -1.19,-1.85 -0.43,-0.58 -1.03,-1.27 -1.33,-1.53 -0.3,-0.26 -0.81,-0.61 -1.14,-0.78 -0.47,-0.23 -0.73,-0.29 -1.2,-0.29 -0.37,0 -0.76,0.08 -1,0.19 -0.22,0.1 -1.8,1.27 -3.5,2.59 -1.71,1.33 -3.14,2.42 -3.18,2.42 -0.04,0 -0.02,-0.17 0.04,-0.37 0.1,-0.29 0.1,-0.53 0.01,-1.03 -0.07,-0.36 -0.26,-0.94 -0.44,-1.3 -0.21,-0.41 -0.61,-0.94 -1.08,-1.43 -0.49,-0.51 -0.95,-0.88 -1.31,-1.05 -0.41,-0.2 -0.7,-0.27 -1.15,-0.27 -0.43,0.01 -0.73,0.08 -1.05,0.24 -0.25,0.13 -1.59,1.19 -2.99,2.35 -1.4,1.16 -3.94,3.27 -5.65,4.69 -1.71,1.41 -3.14,2.57 -3.17,2.57 -0.02,0 -0.67,-1.12 -1.44,-2.48 -0.77,-1.36 -1.5,-2.72 -1.63,-3.02 -0.12,-0.3 -0.25,-0.7 -0.27,-0.87 -0.05,-0.27 0.01,-0.41 0.28,-0.75 0.19,-0.24 0.56,-0.79 0.82,-1.23 0.26,-0.44 0.63,-1.14 0.81,-1.55 0.19,-0.41 0.48,-1.15 0.65,-1.65 0.16,-0.5 0.39,-1.42 0.5,-2.05 0.11,-0.63 0.23,-1.84 0.27,-2.68 0.04,-0.99 0.03,-1.52 -0.04,-1.52 -0.05,0 -0.32,0.35 -0.6,0.76 -0.27,0.42 -0.64,0.89 -0.82,1.05 -0.18,0.16 -0.38,0.29 -0.45,0.29 -0.09,0 -0.13,-0.28 -0.14,-1.02 -0.01,-0.57 -0.09,-1.43 -0.18,-1.93 -0.1,-0.49 -0.32,-1.3 -0.5,-1.8 -0.17,-0.5 -0.49,-1.21 -0.71,-1.6 C 93.09,67.06 92.65,66.41 92.33,66 92.01,65.59 91.62,65.09 91.45,64.9 l -0.3,-0.35 z"
       id="path18"
       inkscape:connector-curvature="0"
       style="fill:#000000" />
    <path
       class="shp1"
       d="m 91.9,67.45 c -0.03,0.16 -0.17,0.64 -0.31,1.05 -0.14,0.41 -0.41,1.04 -0.61,1.4 -0.19,0.36 -0.56,0.94 -0.81,1.3 -0.25,0.36 -0.89,1.08 -1.42,1.6 -0.53,0.52 -1.2,1.1 -1.51,1.27 -0.3,0.18 -0.83,0.45 -1.19,0.6 -0.61,0.26 -0.75,0.28 -2,0.28 -1.09,-0.01 -1.52,-0.05 -2.2,-0.24 -0.47,-0.12 -1.28,-0.39 -1.8,-0.58 -0.53,-0.2 -2.01,-0.87 -3.31,-1.51 -1.29,-0.63 -2.51,-1.17 -2.7,-1.2 -0.32,-0.05 -0.41,0.01 -1.17,0.71 l -0.83,0.77 c -1.38,-0.25 -2.58,-0.34 -3.7,-0.37 -1.29,-0.04 -2.29,-0.01 -2.95,0.07 -0.55,0.07 -1.27,0.21 -1.6,0.32 -0.33,0.11 -0.81,0.31 -1.05,0.46 -0.25,0.14 -0.72,0.51 -1.04,0.81 -0.32,0.31 -0.68,0.74 -0.81,0.96 -0.13,0.22 -0.35,0.75 -0.5,1.18 -0.14,0.42 -0.26,0.8 -0.26,0.85 0,0.04 0.6,0.15 1.33,0.26 0.73,0.1 1.93,0.33 2.68,0.52 0.74,0.18 1.66,0.44 2.05,0.58 0.38,0.13 1.04,0.38 1.45,0.55 0.41,0.18 1.2,0.56 1.75,0.85 0.55,0.29 1.41,0.8 1.9,1.13 0.5,0.33 1.25,0.88 1.68,1.22 l 0.77,0.61 c -0.42,0.55 -0.57,0.71 -0.6,0.71 -0.03,0 -0.12,-0.08 -0.2,-0.17 -0.08,-0.09 -0.49,-0.43 -0.9,-0.74 -0.41,-0.31 -1.11,-0.81 -1.55,-1.1 -0.44,-0.28 -1.43,-0.83 -2.2,-1.2 -0.77,-0.38 -1.8,-0.82 -2.28,-0.99 -0.48,-0.17 -0.96,-0.31 -1.07,-0.31 -0.14,0 0.15,0.33 0.97,1.09 0.65,0.59 1.85,1.78 2.68,2.62 0.82,0.85 1.88,2.02 2.34,2.59 0.47,0.58 1.08,1.41 1.37,1.85 0.28,0.44 0.67,1.12 0.87,1.5 0.19,0.39 0.46,1.03 0.61,1.43 0.14,0.39 0.33,1.14 0.41,1.65 0.08,0.5 0.15,1.23 0.15,1.62 0,0.39 -0.07,0.99 -0.15,1.35 -0.09,0.36 -0.28,0.85 -0.42,1.1 -0.15,0.25 -0.47,0.67 -0.72,0.94 -0.25,0.27 -0.91,0.83 -1.46,1.24 -0.55,0.42 -1.27,1.03 -1.6,1.37 -0.33,0.33 -0.83,0.94 -1.11,1.35 -0.29,0.41 -0.75,1.18 -1.02,1.7 -0.28,0.52 -0.67,1.38 -0.87,1.9 -0.2,0.52 -0.48,1.4 -0.61,1.95 -0.14,0.55 -0.32,1.43 -0.39,1.95 -0.07,0.52 -0.14,1.65 -0.14,2.5 -0.01,0.85 0.05,2.16 0.13,2.9 0.08,0.74 0.26,2.03 0.4,2.85 0.14,0.83 0.39,2.08 0.55,2.8 0.16,0.72 0.5,2.07 0.75,3 0.26,0.93 0.67,2.35 0.92,3.15 0.24,0.8 0.72,2.26 1.06,3.25 0.33,0.99 0.64,1.84 0.67,1.88 0.03,0.05 0.42,-0.03 0.86,-0.17 0.44,-0.14 1.21,-0.34 1.7,-0.44 0.5,-0.1 0.89,-0.22 0.88,-0.27 -0.01,-0.06 -0.22,-0.68 -0.46,-1.4 -0.25,-0.72 -0.59,-1.93 -0.76,-2.7 -0.16,-0.77 -0.35,-1.74 -0.4,-2.15 -0.05,-0.41 -0.13,-1.29 -0.16,-1.95 -0.04,-0.66 -0.02,-1.81 0.04,-2.55 0.06,-0.74 0.14,-1.5 0.18,-1.68 0.07,-0.28 0.12,-0.32 0.38,-0.32 0.17,0 0.35,0.04 0.42,0.08 0.09,0.05 0.09,0.26 0.01,0.87 -0.06,0.44 -0.11,1.68 -0.12,2.75 0,1.37 0.05,2.29 0.18,3.1 0.09,0.63 0.3,1.67 0.46,2.3 0.16,0.63 0.47,1.65 0.68,2.25 0.22,0.61 0.51,1.35 0.65,1.65 l 0.24,0.55 c -2.11,0.36 -3.21,0.63 -3.82,0.82 -0.73,0.24 -2.03,0.83 -3.85,1.76 -1.52,0.77 -3.16,1.55 -3.65,1.74 -0.5,0.2 -1.31,0.44 -1.8,0.55 -0.75,0.17 -1.25,0.2 -2.86,0.2 -1.07,-0.01 -2.05,-0.04 -2.17,-0.09 -0.13,-0.05 -0.54,-0.6 -1.05,-1.43 -0.46,-0.74 -1.14,-1.8 -1.53,-2.35 -0.38,-0.55 -1.02,-1.39 -1.42,-1.87 -0.4,-0.49 -0.97,-1.06 -1.26,-1.29 -0.28,-0.23 -0.68,-0.48 -0.87,-0.55 -0.19,-0.08 -0.49,-0.14 -0.65,-0.14 -0.29,0 -0.31,0.02 -0.39,0.52 -0.04,0.29 -0.18,0.73 -0.3,0.97 -0.11,0.25 -0.39,0.6 -0.61,0.78 -0.22,0.18 -0.56,0.38 -0.75,0.44 -0.2,0.06 -0.4,0.15 -0.45,0.2 -0.07,0.05 -0.01,0.23 0.16,0.51 0.14,0.24 0.55,0.68 0.9,0.99 0.35,0.3 1.16,0.96 1.79,1.45 0.63,0.49 1.61,1.34 2.18,1.89 0.58,0.55 1,1.01 0.96,1.03 -0.05,0.02 -1.08,-0.24 -2.29,-0.57 -1.21,-0.33 -2.53,-0.67 -2.93,-0.76 -0.4,-0.08 -1.04,-0.15 -1.42,-0.15 -0.39,0 -0.82,0.06 -0.96,0.13 -0.17,0.08 -0.23,0.17 -0.18,0.27 0.04,0.08 0.15,0.37 0.25,0.65 0.1,0.28 0.18,0.76 0.18,1.08 0,0.31 -0.06,0.74 -0.15,0.95 -0.09,0.2 -0.27,0.52 -0.4,0.69 -0.2,0.27 -0.22,0.36 -0.12,0.49 0.07,0.09 0.31,0.26 0.53,0.39 0.22,0.12 0.78,0.35 1.25,0.49 0.46,0.15 1.3,0.34 1.85,0.41 0.55,0.08 1.43,0.15 1.95,0.15 0.52,0 1.54,-0.06 2.27,-0.12 0.72,-0.07 1.36,-0.1 1.4,-0.05 0.04,0.04 -0.14,0.3 -0.42,0.58 -0.29,0.29 -1.05,0.83 -1.79,1.27 -0.71,0.42 -1.53,1 -1.81,1.27 -0.29,0.28 -0.64,0.74 -0.79,1.03 -0.14,0.28 -0.26,0.63 -0.26,0.77 0,0.23 0.03,0.25 0.52,0.25 0.31,0 0.71,0.09 0.98,0.21 0.25,0.11 0.56,0.3 0.69,0.42 0.13,0.12 0.34,0.44 0.47,0.72 0.13,0.28 0.24,0.58 0.24,0.68 0,0.14 0.06,0.16 0.43,0.11 0.23,-0.03 0.65,-0.17 0.92,-0.3 0.28,-0.12 0.97,-0.65 1.54,-1.16 0.57,-0.51 1.31,-1.15 1.65,-1.41 0.34,-0.26 0.65,-0.48 0.69,-0.47 0.04,0 0.3,0.44 0.59,0.98 0.28,0.53 0.76,1.38 1.06,1.87 0.3,0.5 0.78,1.22 1.06,1.6 0.28,0.38 0.76,0.96 1.06,1.28 0.31,0.32 0.59,0.58 0.63,0.57 0.04,0 0.08,-0.06 0.08,-0.12 0,-0.07 0.11,-0.38 0.25,-0.68 0.14,-0.3 0.4,-0.7 0.58,-0.88 0.17,-0.19 0.5,-0.43 0.72,-0.55 0.32,-0.18 0.56,-0.22 1.28,-0.22 h 0.88 c -0.1,-0.77 -0.23,-1.22 -0.35,-1.5 -0.12,-0.27 -0.38,-0.72 -0.56,-1 -0.19,-0.27 -0.64,-0.81 -1,-1.19 -0.36,-0.37 -1.22,-1.15 -1.9,-1.71 -0.69,-0.57 -1.55,-1.32 -1.91,-1.69 -0.35,-0.36 -0.62,-0.67 -0.6,-0.7 0.03,-0.02 0.5,0.05 1.05,0.16 0.9,0.18 1.29,0.19 3.81,0.15 1.54,-0.03 3.43,-0.12 4.2,-0.21 0.77,-0.09 1.96,-0.25 2.65,-0.37 0.69,-0.11 1.99,-0.38 2.9,-0.6 0.91,-0.21 2.62,-0.64 3.8,-0.94 1.39,-0.36 2.46,-0.58 3.01,-0.61 0.56,-0.04 1.18,-0.01 1.85,0.1 0.55,0.09 1.5,0.31 2.12,0.49 l 1.13,0.32 c 0.57,-0.7 1.18,-1.35 1.74,-1.9 0.56,-0.55 1.46,-1.38 2.01,-1.84 0.55,-0.46 1.7,-1.36 2.55,-2 0.86,-0.64 2.12,-1.63 2.8,-2.2 0.69,-0.57 1.5,-1.21 1.81,-1.41 0.3,-0.2 1.31,-0.81 2.25,-1.35 0.93,-0.53 1.92,-1.14 2.2,-1.35 0.27,-0.2 0.78,-0.66 1.13,-1.01 0.35,-0.35 1.1,-1.25 1.66,-1.99 0.55,-0.75 1.21,-1.66 1.46,-2.02 l 0.45,-0.67 c 2.25,-0.54 5.47,-1.31 8.61,-2.07 3.13,-0.75 5.86,-1.44 6.05,-1.54 0.19,-0.09 0.42,-0.32 0.52,-0.51 0.09,-0.19 0.21,-0.63 0.26,-0.99 0.06,-0.36 0.09,-1.08 0.07,-1.6 -0.01,-0.52 -0.11,-1.22 -0.2,-1.55 -0.11,-0.38 -0.29,-0.71 -0.49,-0.91 -0.2,-0.2 -0.46,-0.34 -0.71,-0.38 -0.32,-0.05 -0.85,0.06 -2.7,0.59 -1.27,0.36 -3.63,1.04 -5.26,1.51 -1.62,0.47 -3.03,0.87 -3.12,0.89 -0.13,0.04 -0.21,-0.04 -0.28,-0.27 -0.06,-0.18 -0.1,-0.37 -0.1,-0.43 0,-0.05 0.57,-0.34 1.28,-0.64 0.7,-0.3 1.88,-0.8 2.62,-1.11 0.75,-0.32 4.17,-1.76 7.61,-3.2 3.44,-1.44 6.43,-2.71 6.65,-2.82 0.22,-0.11 0.53,-0.32 0.68,-0.47 0.25,-0.24 0.28,-0.32 0.28,-1.01 0,-0.41 -0.08,-1.15 -0.16,-1.65 -0.09,-0.49 -0.25,-1.1 -0.36,-1.35 -0.11,-0.25 -0.34,-0.6 -0.52,-0.78 -0.17,-0.18 -0.49,-0.37 -0.69,-0.42 -0.21,-0.06 -0.55,-0.07 -0.75,-0.04 -0.21,0.03 -1.26,0.47 -2.33,0.96 -1.07,0.5 -2.31,1.08 -2.75,1.28 -0.44,0.21 -2.18,1.02 -3.85,1.8 -1.68,0.79 -3.87,1.81 -4.86,2.27 -0.99,0.46 -1.83,0.83 -1.87,0.83 -0.04,0 -0.17,-0.16 -0.28,-0.35 l -0.2,-0.35 c 0.35,-0.22 4.62,-2.73 9.71,-5.72 5.09,-3 9.38,-5.53 9.54,-5.64 0.16,-0.1 0.35,-0.31 0.43,-0.46 0.07,-0.16 0.13,-0.5 0.13,-0.78 0,-0.27 -0.09,-0.96 -0.2,-1.52 -0.12,-0.57 -0.35,-1.46 -0.53,-1.98 -0.17,-0.52 -0.47,-1.17 -0.67,-1.44 -0.24,-0.35 -0.48,-0.56 -0.8,-0.7 -0.39,-0.16 -0.51,-0.17 -0.9,-0.07 -0.27,0.07 -1.21,0.61 -2.32,1.34 -1.04,0.67 -2.63,1.71 -3.56,2.32 -0.92,0.6 -4.31,2.82 -7.53,4.93 -3.22,2.1 -5.85,3.81 -5.86,3.8 0,-0.02 -0.11,-0.18 -0.25,-0.36 -0.15,-0.21 -0.2,-0.36 -0.14,-0.42 0.06,-0.04 3.88,-2.88 8.51,-6.32 4.62,-3.43 8.82,-6.55 9.34,-6.93 0.52,-0.39 1,-0.82 1.08,-0.97 0.08,-0.17 0.11,-0.41 0.07,-0.6 -0.04,-0.18 -0.18,-0.55 -0.31,-0.83 -0.14,-0.27 -0.53,-0.9 -0.87,-1.4 -0.33,-0.5 -0.9,-1.19 -1.26,-1.55 -0.36,-0.36 -0.85,-0.76 -1.1,-0.88 -0.25,-0.12 -0.62,-0.22 -0.83,-0.22 -0.2,0 -0.52,0.07 -0.7,0.17 -0.18,0.09 -4.22,3.18 -8.98,6.86 -4.76,3.68 -8.71,6.75 -8.78,6.81 -0.1,0.08 -0.19,0.04 -0.38,-0.19 -0.13,-0.16 -0.23,-0.34 -0.23,-0.4 0,-0.05 2.34,-2.14 5.2,-4.62 3.19,-2.78 5.24,-4.64 5.3,-4.8 0.08,-0.21 0.08,-0.43 -0.01,-0.83 -0.06,-0.3 -0.25,-0.8 -0.41,-1.1 -0.15,-0.3 -0.54,-0.81 -0.86,-1.13 -0.32,-0.33 -0.73,-0.67 -0.93,-0.77 -0.19,-0.09 -0.45,-0.2 -0.57,-0.24 -0.13,-0.03 -0.41,-0.01 -0.63,0.04 -0.28,0.07 -0.84,0.46 -1.93,1.38 -0.85,0.7 -3.62,2.99 -6.16,5.1 -2.54,2.1 -4.65,3.82 -4.69,3.82 -0.04,0 -0.18,-0.21 -0.31,-0.47 C 96.04,90.16 95.28,88.8 94.47,87.4 93.67,86 92.92,84.6 92.79,84.3 92.67,84 92.52,83.49 92.46,83.18 L 92.35,82.6 c 1.03,-1.35 1.55,-2.21 1.89,-2.92 0.33,-0.68 0.71,-1.59 0.86,-2.03 0.15,-0.44 0.35,-1.32 0.46,-1.95 0.1,-0.63 0.18,-1.16 0.17,-1.18 -0.01,-0.01 -0.27,0.04 -0.58,0.13 -0.37,0.1 -0.69,0.12 -0.98,0.07 L 93.74,74.65 C 93.7,71.54 93.66,71.11 93.47,70.4 93.34,69.93 93.02,69.1 92.76,68.55 92.49,68 92.21,67.46 92.12,67.35 91.97,67.16 91.97,67.16 91.9,67.45 Z"
       id="path20"
       inkscape:connector-curvature="0"
       style="fill:#fecc13" />
    <path
       class="shp3"
       d="m 74.66,76.51 c -0.19,0.05 -0.45,0.23 -0.58,0.39 -0.13,0.17 -0.26,0.47 -0.3,0.68 -0.04,0.28 0,0.48 0.18,0.81 0.14,0.26 0.37,0.51 0.58,0.62 0.19,0.11 0.52,0.19 0.73,0.19 0.2,0 0.51,-0.07 0.67,-0.15 0.17,-0.08 0.39,-0.3 0.5,-0.47 0.11,-0.18 0.2,-0.48 0.2,-0.65 0,-0.18 -0.06,-0.45 -0.14,-0.6 -0.07,-0.16 -0.24,-0.38 -0.37,-0.5 -0.13,-0.11 -0.42,-0.26 -0.64,-0.32 -0.22,-0.06 -0.42,-0.11 -0.45,-0.1 -0.02,0 -0.2,0.05 -0.38,0.1 z"
       id="path22"
       inkscape:connector-curvature="0"
       style="fill:#000000" />
    <path
       class="shp1"
       d="m 46.55,87.14 c -0.03,0.06 -0.02,0.31 0.02,0.56 0.04,0.25 0.16,0.68 0.27,0.95 0.11,0.28 0.3,0.65 0.44,0.83 0.15,0.19 0.33,0.32 0.47,0.32 0.13,0 0.4,-0.06 0.62,-0.13 0.21,-0.06 0.56,-0.27 0.77,-0.44 L 49.53,88.9 C 49.26,88.42 49.01,88.13 48.8,87.94 48.6,87.75 48.24,87.5 48,87.39 47.77,87.27 47.36,87.14 47.09,87.1 46.76,87.05 46.58,87.07 46.55,87.14 Z m 3.32,2.67 c -0.16,0.16 -0.52,0.41 -0.79,0.54 -0.28,0.14 -0.7,0.28 -0.94,0.32 l -0.44,0.08 c 0.1,1.13 0.23,1.62 0.38,1.95 0.14,0.3 0.43,0.78 0.64,1.05 0.21,0.28 0.72,0.88 1.14,1.35 0.41,0.47 0.74,0.87 0.72,0.9 -0.02,0.03 -0.86,-0.05 -1.87,-0.17 -1.01,-0.12 -2.22,-0.24 -2.68,-0.28 -0.49,-0.04 -1.15,-0.02 -1.53,0.04 -0.37,0.06 -0.88,0.21 -1.13,0.34 l -0.46,0.22 c 0.31,0.39 0.49,0.7 0.6,0.95 0.12,0.25 0.21,0.64 0.21,0.88 0,0.23 -0.06,0.58 -0.15,0.77 -0.14,0.35 -0.14,0.35 0.13,0.47 0.17,0.07 0.95,0.12 2.03,0.13 1.54,0.01 1.81,0.04 2.3,0.23 0.3,0.12 0.81,0.42 1.12,0.67 0.32,0.25 0.7,0.66 0.85,0.93 0.21,0.36 0.28,0.64 0.31,1.22 0.04,0.57 0,0.91 -0.17,1.45 -0.11,0.38 -0.38,1.02 -0.6,1.4 -0.21,0.38 -0.65,0.99 -0.97,1.34 -0.33,0.35 -1.01,0.95 -1.52,1.32 -0.51,0.38 -0.99,0.79 -1.07,0.92 -0.08,0.12 -0.21,0.39 -0.3,0.6 l -0.15,0.37 c 0.81,0.24 1.22,0.43 1.44,0.58 0.21,0.15 0.5,0.47 0.63,0.72 0.15,0.3 0.23,0.61 0.23,0.95 l -0.01,0.5 c 0.51,-0.12 1.01,-0.37 1.45,-0.63 0.43,-0.26 1.08,-0.74 1.45,-1.08 0.36,-0.33 0.76,-0.8 0.88,-1.05 0.13,-0.24 0.31,-0.79 0.4,-1.21 l 0.18,-0.76 c 1.01,0.94 1.64,1.47 2.05,1.78 0.41,0.3 1.25,0.81 1.85,1.11 0.61,0.31 1.42,0.68 1.8,0.82 0.39,0.15 1.13,0.38 1.65,0.51 0.53,0.14 1.45,0.32 2.05,0.41 0.61,0.08 1.61,0.16 2.23,0.18 l 1.12,0.02 c 0.05,-3.49 0.02,-4.25 -0.04,-4.25 -0.06,0 -0.59,-0.05 -1.18,-0.1 -0.76,-0.07 -1.32,-0.19 -1.9,-0.4 -0.45,-0.17 -1.21,-0.57 -1.67,-0.88 -0.47,-0.31 -1.37,-1.07 -1.99,-1.67 -0.66,-0.64 -1.35,-1.41 -1.64,-1.85 -0.29,-0.44 -0.59,-1.08 -0.74,-1.55 -0.22,-0.67 -0.27,-1.1 -0.34,-2.65 C 55.37,98 55.3,97.32 55.19,97 55.09,96.75 54.88,96.33 54.71,96.05 54.54,95.78 53.93,94.65 53.35,93.55 52.78,92.45 52.17,91.35 52,91.1 51.84,90.85 51.52,90.46 51.29,90.22 51.06,89.98 50.76,89.72 50.6,89.64 50.45,89.56 50.29,89.5 50.25,89.5 c -0.05,0 -0.22,0.14 -0.38,0.31 z m -8.75,7.11 c -0.35,0.18 -0.86,0.54 -1.12,0.8 -0.26,0.27 -0.48,0.53 -0.48,0.58 0,0.06 0.24,0.21 0.53,0.35 0.29,0.14 0.75,0.28 1.02,0.31 0.28,0.04 0.72,0.04 0.98,0 0.43,-0.05 0.49,-0.1 0.64,-0.43 0.11,-0.25 0.14,-0.51 0.1,-0.78 -0.03,-0.22 -0.19,-0.56 -0.35,-0.75 -0.16,-0.19 -0.37,-0.36 -0.48,-0.38 -0.1,-0.01 -0.48,0.12 -0.84,0.3 z"
       id="path24"
       inkscape:connector-curvature="0"
       style="fill:#fecc13" />
    <path
       class="shp3"
       d="m 90.18,105.57 c -0.17,0.1 -2.19,1.8 -4.49,3.78 -2.3,1.98 -4.22,3.63 -4.28,3.67 -0.07,0.05 0,0.19 0.21,0.4 0.29,0.3 0.33,0.32 0.49,0.18 0.1,-0.08 2.05,-1.76 4.33,-3.73 3.97,-3.41 4.18,-3.57 4.56,-3.57 0.27,0 0.55,0.09 0.85,0.28 0.25,0.15 0.72,0.59 1.05,0.96 0.33,0.37 0.67,0.78 0.75,0.91 0.12,0.19 0.13,0.29 0.04,0.47 -0.06,0.13 -2.4,2.09 -5.2,4.37 -2.8,2.27 -5.18,4.22 -5.29,4.31 -0.2,0.18 -0.2,0.18 0.02,0.49 0.13,0.17 0.27,0.31 0.33,0.31 0.05,0 2.47,-1.79 5.38,-3.97 2.9,-2.18 5.34,-3.98 5.42,-4.01 0.09,-0.02 0.26,0.01 0.38,0.07 0.12,0.06 0.4,0.35 0.61,0.64 0.21,0.28 0.62,0.93 0.9,1.42 0.28,0.5 0.52,1.01 0.52,1.15 0,0.14 -0.1,0.35 -0.23,0.47 -0.12,0.12 -2.95,1.67 -6.28,3.44 -3.33,1.77 -6.1,3.25 -6.15,3.3 -0.07,0.05 -0.05,0.19 0.05,0.4 0.08,0.17 0.18,0.33 0.22,0.35 0.04,0.02 2.64,-1.13 5.78,-2.56 3.63,-1.65 5.82,-2.6 6.03,-2.6 0.18,-0.01 0.44,0.08 0.57,0.18 0.14,0.1 0.36,0.43 0.49,0.73 0.13,0.3 0.3,0.88 0.38,1.29 0.08,0.41 0.12,0.91 0.08,1.1 -0.03,0.19 -0.14,0.43 -0.23,0.54 -0.09,0.1 -0.32,0.26 -0.51,0.36 -0.2,0.1 -1.66,0.59 -3.26,1.1 -1.59,0.51 -4.23,1.34 -5.85,1.86 -1.62,0.52 -2.96,0.95 -2.97,0.96 -0.01,0.02 0.03,0.2 0.1,0.41 0.06,0.2 0.17,0.37 0.24,0.37 0.07,0 1.4,-0.38 2.96,-0.84 1.55,-0.47 3.63,-1.08 4.62,-1.36 1.24,-0.36 1.88,-0.5 2.05,-0.45 0.14,0.04 0.39,0.21 0.57,0.39 0.17,0.17 0.36,0.49 0.42,0.71 0.06,0.22 0.11,0.57 0.11,0.78 0,0.2 -0.06,0.52 -0.13,0.7 -0.07,0.17 -0.29,0.46 -0.47,0.63 -0.19,0.16 -0.59,0.39 -0.9,0.51 -0.3,0.11 -2.39,0.53 -4.65,0.92 -2.26,0.39 -4.17,0.73 -4.25,0.74 -0.08,0.01 -0.15,0.08 -0.15,0.15 0,0.06 0.01,0.25 0.02,0.42 0.02,0.23 0.08,0.3 0.23,0.3 0.11,0 1.97,-0.31 4.13,-0.69 2.16,-0.39 4.14,-0.75 4.4,-0.8 0.26,-0.06 0.69,-0.22 0.95,-0.35 0.26,-0.13 0.63,-0.36 0.81,-0.52 0.19,-0.16 0.46,-0.49 0.6,-0.74 0.23,-0.39 0.26,-0.56 0.26,-1.3 0,-0.65 -0.05,-0.96 -0.2,-1.3 -0.12,-0.25 -0.35,-0.62 -0.53,-0.82 -0.17,-0.21 -0.28,-0.4 -0.24,-0.42 0.04,-0.02 0.37,-0.13 0.72,-0.24 0.36,-0.12 0.87,-0.35 1.13,-0.52 0.3,-0.19 0.55,-0.45 0.68,-0.7 0.14,-0.28 0.2,-0.61 0.2,-1.12 0.01,-0.4 -0.07,-1.04 -0.16,-1.43 -0.09,-0.38 -0.27,-0.9 -0.4,-1.15 -0.13,-0.25 -0.3,-0.52 -0.37,-0.6 -0.07,-0.08 -0.23,-0.24 -0.37,-0.35 -0.13,-0.11 -0.44,-0.25 -0.69,-0.31 l -0.47,-0.1 c 0.55,-0.33 0.87,-0.6 1.08,-0.81 0.2,-0.21 0.41,-0.51 0.46,-0.68 0.07,-0.22 0.05,-0.44 -0.07,-0.8 -0.09,-0.28 -0.43,-0.96 -0.76,-1.5 -0.33,-0.55 -0.85,-1.26 -1.15,-1.57 -0.35,-0.36 -0.68,-0.6 -0.88,-0.65 -0.25,-0.06 -0.32,-0.12 -0.26,-0.23 0.03,-0.08 0.08,-0.28 0.11,-0.45 0.03,-0.18 -0.03,-0.46 -0.16,-0.7 -0.11,-0.22 -0.41,-0.65 -0.66,-0.95 -0.26,-0.3 -0.65,-0.72 -0.89,-0.93 -0.23,-0.21 -0.63,-0.49 -0.89,-0.63 -0.33,-0.16 -0.64,-0.24 -1,-0.24 -0.32,0 -0.66,0.07 -0.85,0.17 z"
       id="path26"
       inkscape:connector-curvature="0"
       style="fill:#000000" />
    <path
       class="shp1"
       d="m 45.36,110.7 c 0.06,0 0.34,0.08 0.61,0.17 0.28,0.1 0.6,0.31 0.73,0.48 0.19,0.23 0.24,0.39 0.21,0.69 -0.03,0.36 -0.09,0.44 -0.66,0.83 -0.34,0.24 -0.91,0.51 -1.25,0.62 -0.34,0.1 -0.8,0.22 -1.43,0.33 l 0.08,-0.43 c 0.03,-0.24 0.2,-0.71 0.37,-1.04 0.16,-0.33 0.5,-0.84 0.76,-1.12 0.25,-0.29 0.51,-0.53 0.58,-0.53 z m 76.61,12.02 c 0.25,-0.01 0.74,0.03 1.1,0.09 0.36,0.06 0.97,0.23 1.35,0.38 0.39,0.15 0.97,0.45 1.3,0.66 0.33,0.22 0.98,0.76 1.44,1.2 0.45,0.44 1,1.07 1.21,1.4 0.21,0.33 0.72,1.25 1.15,2.05 0.45,0.85 0.95,1.63 1.19,1.88 0.23,0.23 0.59,0.51 0.81,0.61 0.22,0.1 0.7,0.24 1.06,0.31 0.35,0.07 0.87,0.24 1.15,0.39 0.27,0.14 0.88,0.64 1.35,1.11 0.59,0.58 0.97,1.07 1.22,1.55 0.2,0.38 0.44,1.02 0.53,1.4 0.14,0.56 0.16,0.99 0.11,2.1 -0.03,0.77 -0.1,1.76 -0.17,2.2 -0.06,0.44 -0.28,1.57 -0.49,2.5 -0.21,0.93 -0.41,1.87 -0.44,2.08 -0.04,0.2 -0.12,0.37 -0.19,0.37 -0.07,0 -0.57,-0.31 -1.12,-0.67 -0.55,-0.37 -1.34,-1 -1.75,-1.39 -0.42,-0.39 -1.04,-1.11 -1.39,-1.6 -0.35,-0.49 -0.95,-1.52 -1.33,-2.29 -0.38,-0.77 -0.83,-1.83 -0.99,-2.35 -0.16,-0.52 -0.34,-1.24 -0.4,-1.6 -0.09,-0.5 -0.09,-0.96 0.01,-2 0.07,-0.74 0.1,-1.64 0.07,-2 -0.03,-0.48 -0.13,-0.82 -0.38,-1.3 -0.24,-0.45 -0.67,-0.98 -1.4,-1.71 -0.63,-0.65 -1.39,-1.29 -1.9,-1.62 -0.47,-0.31 -1.16,-0.7 -1.55,-0.88 -0.47,-0.21 -0.91,-0.33 -1.35,-0.37 -0.54,-0.04 -0.75,0 -1.19,0.19 -0.3,0.14 -0.7,0.42 -0.9,0.64 -0.19,0.22 -0.45,0.63 -0.58,0.9 -0.12,0.28 -0.28,0.84 -0.34,1.25 -0.07,0.46 -0.09,1.15 -0.05,1.8 0.04,0.58 0.17,1.59 0.31,2.25 0.13,0.66 0.4,1.74 0.6,2.4 0.2,0.66 0.56,1.72 0.8,2.35 0.23,0.63 0.76,1.94 1.18,2.9 0.41,0.96 1.14,2.58 1.62,3.6 0.48,1.02 1.21,2.64 1.62,3.6 0.42,0.96 1.04,2.47 1.38,3.35 0.35,0.88 0.83,2.25 1.09,3.05 0.25,0.8 0.54,1.81 0.65,2.25 0.11,0.44 0.29,1.27 0.4,1.85 0.11,0.58 0.25,1.66 0.31,2.4 0.09,1.03 0.09,1.55 0,2.2 -0.06,0.47 -0.2,1.12 -0.3,1.45 -0.11,0.33 -0.32,0.83 -0.48,1.1 -0.16,0.28 -0.51,0.74 -0.78,1.04 -0.27,0.29 -0.78,0.73 -1.14,0.97 -0.36,0.23 -0.93,0.54 -1.27,0.68 -0.35,0.14 -1,0.35 -1.45,0.46 -0.5,0.13 -1.35,0.23 -2.13,0.27 -0.98,0.04 -1.54,0.01 -2.25,-0.11 -0.53,-0.09 -1.58,-0.35 -2.35,-0.57 -0.77,-0.23 -1.88,-0.51 -2.45,-0.64 -0.58,-0.13 -1.56,-0.31 -2.18,-0.39 -0.62,-0.09 -1.18,-0.16 -1.25,-0.16 -0.07,-0.01 -0.43,0.5 -0.8,1.12 -0.36,0.62 -0.98,1.58 -1.36,2.13 -0.38,0.55 -0.95,1.29 -1.27,1.65 -0.31,0.36 -0.84,0.89 -1.18,1.18 -0.34,0.3 -0.94,0.73 -1.32,0.97 -0.39,0.25 -1.08,0.6 -1.55,0.79 -0.47,0.19 -1.35,0.45 -3.05,0.84 l 0.02,0.43 c 0.01,0.24 0.09,0.65 0.17,0.92 0.09,0.26 0.26,0.64 0.63,1.22 l 2.04,-0.06 c 1.12,-0.04 2.87,-0.15 3.89,-0.24 1.02,-0.1 2.12,-0.15 2.45,-0.12 0.33,0.03 0.96,0.17 1.4,0.32 0.44,0.14 1.37,0.56 2.05,0.93 0.87,0.46 1.43,0.84 1.81,1.22 0.42,0.41 0.59,0.68 0.7,1.05 0.08,0.28 0.14,0.88 0.14,1.35 -0.01,0.54 -0.09,1.14 -0.23,1.65 -0.13,0.44 -0.44,1.25 -0.7,1.8 -0.27,0.55 -0.68,1.32 -0.91,1.7 -0.24,0.38 -0.8,1.2 -1.25,1.8 -0.45,0.61 -1.24,1.6 -1.76,2.2 -0.52,0.6 -1.17,1.39 -1.43,1.75 -0.27,0.36 -0.61,0.88 -0.74,1.15 -0.14,0.28 -0.32,0.82 -0.4,1.2 -0.09,0.43 -0.12,0.89 -0.08,1.2 0.04,0.28 0.13,0.61 0.2,0.75 0.07,0.14 0.34,0.44 0.61,0.68 0.27,0.24 0.99,0.68 1.59,0.97 0.61,0.3 1.82,0.87 2.7,1.27 0.88,0.41 1.86,0.91 2.18,1.11 0.32,0.2 0.58,0.44 0.58,0.52 0,0.08 -0.11,0.17 -0.23,0.2 -0.12,0.02 -0.42,0.21 -0.66,0.42 -0.25,0.21 -0.53,0.56 -0.64,0.78 -0.11,0.22 -0.23,0.66 -0.26,0.98 -0.04,0.31 -0.12,0.59 -0.19,0.62 -0.07,0.03 -0.47,-0.04 -0.9,-0.16 -0.43,-0.11 -1.25,-0.4 -1.83,-0.65 -0.57,-0.24 -1.45,-0.67 -1.95,-0.95 -0.49,-0.28 -1.21,-0.75 -1.6,-1.04 -0.38,-0.28 -0.93,-0.76 -1.22,-1.06 -0.29,-0.3 -0.63,-0.69 -0.75,-0.86 -0.13,-0.18 -0.26,-0.33 -0.3,-0.33 -0.05,0 -0.18,0.19 -0.29,0.43 -0.12,0.23 -0.57,0.96 -1,1.62 -0.43,0.66 -0.87,1.43 -0.98,1.7 -0.11,0.28 -0.25,0.91 -0.31,1.4 -0.06,0.52 -0.2,1.09 -0.33,1.34 -0.12,0.25 -0.4,0.59 -0.62,0.78 -0.22,0.18 -0.42,0.31 -0.45,0.29 -0.03,-0.02 -0.11,-0.23 -0.17,-0.47 -0.07,-0.24 -0.26,-0.63 -0.43,-0.86 -0.17,-0.24 -0.48,-0.52 -0.7,-0.63 -0.27,-0.14 -0.6,-0.2 -1.03,-0.2 -0.34,0 -0.86,0.07 -1.15,0.15 -0.42,0.12 -0.56,0.22 -0.7,0.48 -0.17,0.32 -0.17,0.32 -0.21,0.07 -0.02,-0.14 0.01,-0.47 0.07,-0.75 0.06,-0.27 0.3,-0.79 0.53,-1.15 0.23,-0.36 0.62,-0.87 0.88,-1.14 0.25,-0.26 0.79,-0.76 1.21,-1.09 0.41,-0.33 1.26,-0.94 1.88,-1.36 0.62,-0.42 1.12,-0.79 1.12,-0.83 0,-0.05 -0.35,-0.06 -0.78,-0.03 -0.42,0.03 -1.58,0.1 -2.57,0.16 -0.99,0.05 -2.14,0.17 -2.55,0.25 -0.42,0.08 -1.04,0.28 -1.38,0.45 -0.38,0.17 -0.92,0.57 -1.38,0.99 -0.41,0.39 -0.98,0.81 -1.27,0.95 -0.29,0.14 -0.58,0.25 -0.65,0.25 -0.07,0 -0.18,-0.17 -0.24,-0.37 -0.06,-0.21 -0.22,-0.57 -0.35,-0.8 -0.14,-0.26 -0.43,-0.55 -0.71,-0.73 -0.26,-0.17 -0.72,-0.36 -1.01,-0.43 -0.29,-0.06 -0.52,-0.17 -0.52,-0.22 0,-0.05 0.09,-0.25 0.2,-0.42 0.11,-0.18 0.44,-0.56 0.73,-0.83 0.29,-0.28 0.84,-0.67 1.22,-0.86 0.66,-0.34 0.77,-0.36 1.9,-0.4 0.73,-0.03 1.52,-0.13 2,-0.26 0.44,-0.11 0.87,-0.24 0.95,-0.28 0.14,-0.08 0.14,-0.09 0,-0.14 -0.08,-0.02 -0.71,-0.16 -1.4,-0.3 -0.68,-0.15 -1.47,-0.37 -1.75,-0.51 -0.27,-0.13 -0.76,-0.46 -1.09,-0.72 -0.45,-0.37 -0.76,-0.53 -2.08,-0.88 l 0.42,-0.3 c 0.28,-0.2 0.51,-0.49 0.68,-0.85 0.22,-0.47 0.25,-0.65 0.21,-1.28 -0.02,-0.4 -0.02,-0.75 0.01,-0.77 0.03,-0.02 0.23,0.02 0.45,0.08 0.22,0.07 0.94,0.48 1.6,0.92 0.66,0.44 1.5,0.92 1.85,1.07 0.36,0.15 0.97,0.35 1.36,0.44 0.46,0.11 1.1,0.17 1.9,0.17 0.96,0 1.39,-0.06 2.2,-0.27 0.57,-0.14 1.45,-0.48 2.05,-0.78 0.72,-0.35 1.2,-0.67 1.52,-1 0.33,-0.33 0.65,-0.83 1.02,-1.6 0.3,-0.62 0.71,-1.58 0.91,-2.13 0.21,-0.55 0.53,-1.54 0.72,-2.2 0.2,-0.7 0.37,-1.54 0.4,-2 0.05,-0.62 0.02,-0.87 -0.11,-1.12 -0.09,-0.18 -0.28,-0.41 -0.43,-0.51 -0.16,-0.1 -0.41,-0.24 -0.58,-0.31 -0.28,-0.12 -0.35,-0.1 -0.98,0.28 -0.37,0.23 -0.97,0.56 -1.35,0.75 -0.37,0.19 -1.08,0.5 -1.57,0.7 -0.5,0.2 -1.28,0.47 -1.75,0.61 -0.47,0.13 -1.26,0.31 -1.75,0.4 -0.5,0.08 -1.38,0.18 -1.95,0.22 -0.78,0.04 -1.33,0.01 -2.11,-0.11 -0.57,-0.1 -1.54,-0.34 -2.15,-0.53 -0.6,-0.2 -1.55,-0.55 -2.1,-0.8 -0.55,-0.24 -1.4,-0.67 -1.9,-0.95 -0.49,-0.27 -1.33,-0.78 -1.85,-1.13 -0.52,-0.34 -1.33,-0.98 -1.79,-1.41 -0.47,-0.44 -1.07,-1.14 -1.36,-1.59 -0.3,-0.44 -0.65,-1.07 -0.78,-1.4 -0.14,-0.33 -0.35,-0.96 -0.46,-1.4 -0.11,-0.44 -0.25,-1.23 -0.31,-1.75 -0.05,-0.52 -0.1,-1.39 -0.1,-1.92 0,-0.54 0.04,-1.42 0.1,-1.95 0.06,-0.54 0.22,-1.43 0.35,-1.98 0.13,-0.55 0.4,-1.4 0.6,-1.9 0.2,-0.49 0.52,-1.17 0.72,-1.5 0.19,-0.33 0.6,-0.94 0.91,-1.35 0.3,-0.41 0.92,-1.11 1.36,-1.55 0.45,-0.44 1.17,-1.08 1.61,-1.41 0.44,-0.34 1.25,-0.91 1.8,-1.27 0.55,-0.36 1.61,-0.98 2.35,-1.39 0.75,-0.41 1.8,-0.99 2.34,-1.29 0.55,-0.3 1.2,-0.72 1.45,-0.94 0.25,-0.22 0.53,-0.58 0.63,-0.8 0.1,-0.22 0.18,-0.5 0.18,-0.62 0,-0.21 -0.04,-0.23 -0.45,-0.23 -0.33,0 -0.45,0.04 -0.45,0.15 0,0.08 -0.06,0.27 -0.14,0.43 -0.07,0.15 -0.33,0.41 -0.57,0.58 -0.24,0.17 -1.29,0.78 -2.34,1.34 -1.04,0.57 -2.42,1.35 -3.05,1.74 -0.63,0.39 -1.62,1.07 -2.19,1.51 -0.58,0.44 -1.41,1.16 -1.86,1.6 -0.44,0.44 -1.1,1.19 -1.45,1.66 -0.36,0.48 -0.86,1.27 -1.12,1.75 -0.26,0.49 -0.62,1.34 -0.81,1.89 -0.19,0.55 -0.42,1.38 -0.51,1.85 -0.09,0.47 -0.2,1.21 -0.25,1.65 -0.05,0.44 -0.09,1.34 -0.09,2 0,0.66 0.04,1.58 0.09,2.05 0.05,0.47 0.2,1.28 0.32,1.8 0.13,0.52 0.44,1.38 0.69,1.9 0.26,0.52 0.55,1.09 0.87,1.55 l -0.87,0.49 c -0.48,0.26 -1.53,0.86 -3.78,2.16 l -0.37,2.05 0.44,0.38 c 0.24,0.21 1.19,0.76 2.14,1.22 0.93,0.46 2.01,1.05 2.39,1.32 0.39,0.26 0.84,0.68 1,0.91 0.25,0.35 0.31,0.54 0.31,0.95 0,0.41 -0.03,0.51 -0.15,0.49 -0.08,-0.02 -0.38,-0.09 -0.65,-0.15 -0.28,-0.05 -0.67,-0.07 -0.88,-0.04 -0.2,0.04 -0.52,0.2 -0.7,0.35 -0.18,0.16 -0.4,0.47 -0.5,0.7 -0.09,0.23 -0.21,0.69 -0.25,1.02 -0.04,0.33 -0.1,0.6 -0.12,0.61 -0.03,0 -0.24,-0.19 -0.46,-0.43 -0.22,-0.24 -0.58,-0.74 -0.79,-1.13 -0.21,-0.38 -0.57,-0.99 -0.79,-1.34 -0.23,-0.36 -0.69,-0.92 -1.02,-1.25 -0.33,-0.34 -0.89,-0.77 -1.25,-0.96 -0.61,-0.33 -0.7,-0.35 -1.6,-0.35 -0.8,0 -1.02,0.04 -1.4,0.23 -0.25,0.13 -0.58,0.36 -0.74,0.5 -0.16,0.15 -0.59,0.68 -0.96,1.17 -0.37,0.5 -1.2,1.71 -1.85,2.7 -0.65,0.99 -1.33,2.03 -1.51,2.3 -0.18,0.28 -0.42,0.58 -0.53,0.68 -0.21,0.17 -0.22,0.16 -0.44,-0.3 -0.12,-0.25 -0.36,-0.58 -0.54,-0.72 -0.17,-0.14 -0.48,-0.32 -0.7,-0.38 -0.21,-0.07 -0.6,-0.13 -0.86,-0.13 -0.28,0 -0.5,-0.05 -0.53,-0.12 -0.03,-0.07 0,-0.31 0.07,-0.53 0.07,-0.22 0.34,-0.62 0.59,-0.9 0.26,-0.27 1.25,-1.15 2.2,-1.95 0.95,-0.8 1.68,-1.46 1.64,-1.48 -0.05,-0.02 -1.24,0.29 -2.64,0.67 -1.41,0.39 -2.88,0.77 -3.28,0.86 -0.4,0.08 -0.98,0.15 -1.3,0.15 -0.32,0 -0.62,-0.04 -0.68,-0.08 -0.07,-0.04 -0.11,-0.44 -0.11,-0.97 0.01,-0.75 -0.04,-1.01 -0.26,-1.55 -0.18,-0.44 -0.24,-0.68 -0.17,-0.75 0.06,-0.06 1.26,-0.13 2.88,-0.17 1.67,-0.04 3.15,-0.13 3.72,-0.22 0.52,-0.09 1.02,-0.16 1.1,-0.16 0.13,0 0.13,-0.01 0,-0.14 -0.08,-0.07 -1.3,-0.53 -2.7,-1.01 -1.41,-0.48 -2.91,-1.04 -3.35,-1.26 -0.44,-0.21 -0.88,-0.44 -0.98,-0.51 -0.17,-0.12 -0.16,-0.16 0.08,-0.63 0.17,-0.32 0.28,-0.73 0.31,-1.15 0.03,-0.43 0,-0.8 -0.1,-1.1 -0.08,-0.25 -0.12,-0.48 -0.09,-0.52 0.03,-0.05 0.23,-0.08 0.44,-0.08 0.21,0 0.85,0.09 1.41,0.21 0.57,0.11 1.81,0.4 2.78,0.64 0.96,0.24 2.38,0.58 3.15,0.75 0.77,0.17 1.69,0.32 2.05,0.33 0.49,0.01 0.87,-0.06 1.5,-0.28 0.53,-0.18 0.99,-0.41 1.2,-0.61 0.2,-0.17 0.41,-0.49 0.48,-0.7 0.06,-0.22 0.12,-0.68 0.12,-1.04 0.01,-0.39 -0.08,-0.93 -0.21,-1.35 -0.11,-0.38 -0.37,-1.02 -0.56,-1.4 -0.19,-0.38 -0.74,-1.4 -1.21,-2.25 -0.47,-0.85 -1.04,-1.95 -1.27,-2.45 -0.23,-0.49 -0.56,-1.3 -0.73,-1.8 -0.17,-0.49 -0.39,-1.28 -0.49,-1.75 -0.13,-0.63 -0.18,-1.27 -0.18,-2.45 0.01,-1.15 0.06,-1.84 0.19,-2.45 0.1,-0.47 0.25,-1.05 0.33,-1.3 0.08,-0.25 0.32,-0.78 0.52,-1.19 0.2,-0.41 0.61,-1.04 0.91,-1.4 0.3,-0.35 0.87,-0.88 1.25,-1.18 0.39,-0.29 1.06,-0.7 1.5,-0.92 0.44,-0.21 1.19,-0.52 1.65,-0.69 0.47,-0.16 1.57,-0.48 2.46,-0.71 0.88,-0.23 1.96,-0.54 2.4,-0.68 0.44,-0.14 1.02,-0.37 1.3,-0.51 0.27,-0.14 0.79,-0.44 1.15,-0.67 0.36,-0.24 0.84,-0.64 1.07,-0.89 0.24,-0.25 0.5,-0.62 0.58,-0.81 0.08,-0.19 0.15,-0.52 0.15,-0.72 0,-0.21 -0.1,-0.58 -0.21,-0.83 -0.12,-0.25 -0.37,-0.65 -0.58,-0.89 -0.2,-0.24 -1.53,-1.53 -2.96,-2.87 -1.43,-1.33 -3.28,-3.1 -4.11,-3.93 -0.82,-0.83 -1.47,-1.52 -1.45,-1.55 0.03,-0.02 0.86,-0.25 1.85,-0.51 1.1,-0.29 2.12,-0.49 2.61,-0.52 0.44,-0.03 1.13,0 1.55,0.06 0.41,0.06 1.44,0.3 3.82,0.96 l 0.31,-0.4 c 0.17,-0.22 0.81,-0.91 1.42,-1.53 0.6,-0.63 1.6,-1.56 2.2,-2.06 0.61,-0.51 1.82,-1.47 2.7,-2.13 0.88,-0.66 1.81,-1.37 2.05,-1.57 0.25,-0.2 0.46,-0.35 0.47,-0.34 0.01,0.02 0.06,0.59 0.13,1.28 0.06,0.69 0.22,2.02 0.35,2.95 0.15,1.01 0.33,1.9 0.46,2.2 0.11,0.28 0.5,0.93 0.85,1.45 0.35,0.52 1.2,1.67 1.89,2.55 0.7,0.88 1.84,2.3 2.55,3.15 0.7,0.85 2.44,2.88 3.86,4.5 1.42,1.62 2.84,3.29 3.15,3.7 0.32,0.41 0.73,1 0.93,1.3 0.19,0.3 0.53,0.91 0.75,1.35 0.22,0.44 0.71,1.57 1.08,2.5 0.37,0.94 0.71,1.75 0.75,1.8 0.04,0.05 0.9,0.51 1.91,1.02 1.01,0.5 2.31,1.08 2.89,1.27 0.57,0.19 1.38,0.43 1.8,0.52 0.45,0.1 1.23,0.16 1.95,0.17 0.82,0 1.4,-0.05 1.82,-0.16 0.35,-0.09 0.87,-0.29 1.16,-0.44 0.28,-0.14 0.72,-0.45 0.97,-0.68 0.27,-0.25 0.57,-0.68 0.75,-1.06 0.26,-0.57 0.29,-0.74 0.28,-1.54 -0.01,-0.49 -0.11,-1.37 -0.22,-1.95 -0.12,-0.58 -0.35,-1.52 -0.51,-2.1 -0.16,-0.58 -0.54,-1.77 -0.84,-2.65 -0.29,-0.88 -0.78,-2.25 -1.09,-3.05 -0.3,-0.8 -0.85,-2.17 -1.2,-3.05 -0.36,-0.88 -1.13,-2.68 -1.73,-4 -0.59,-1.32 -1.34,-3.01 -1.66,-3.75 -0.33,-0.74 -0.8,-1.89 -1.05,-2.55 -0.25,-0.66 -0.6,-1.78 -0.79,-2.5 -0.18,-0.72 -0.41,-1.82 -0.51,-2.45 -0.1,-0.71 -0.17,-1.76 -0.18,-2.75 0,-1.25 0.04,-1.74 0.18,-2.25 0.1,-0.36 0.32,-0.94 0.49,-1.3 0.2,-0.42 0.55,-0.89 0.97,-1.31 0.39,-0.39 0.9,-0.79 1.26,-0.97 0.33,-0.16 0.85,-0.37 1.15,-0.45 0.3,-0.09 0.68,-0.18 0.85,-0.2 0.16,-0.02 0.5,-0.05 0.75,-0.05 z m -76.21,4.36 0.96,0.04 c 0.71,0.03 1.11,0.11 1.56,0.29 0.52,0.21 0.6,0.28 0.63,0.54 0.02,0.17 -0.03,0.5 -0.1,0.75 -0.07,0.24 -0.26,0.57 -0.41,0.72 -0.15,0.15 -0.42,0.32 -0.6,0.37 -0.3,0.09 -0.35,0.06 -0.75,-0.37 -0.23,-0.26 -0.58,-0.76 -0.77,-1.12 -0.19,-0.36 -0.38,-0.78 -0.43,-0.94 z m -1.56,9.03 c 0.92,-0.01 0.93,-0.01 1.04,0.27 0.06,0.15 0.14,0.52 0.16,0.82 0.04,0.38 0,0.64 -0.1,0.85 -0.09,0.17 -0.25,0.38 -0.36,0.48 -0.21,0.16 -0.23,0.16 -0.69,-0.06 -0.26,-0.12 -0.82,-0.56 -1.25,-0.97 -0.43,-0.41 -0.78,-0.8 -0.77,-0.86 0,-0.06 0.18,-0.18 0.38,-0.27 0.2,-0.09 0.43,-0.18 0.51,-0.21 0.09,-0.02 0.57,-0.05 1.08,-0.05 z m 6.06,10.69 c 0.3,0 0.66,0.07 0.85,0.17 0.19,0.1 0.43,0.34 0.53,0.53 0.1,0.19 0.19,0.47 0.19,0.63 0,0.21 -0.11,0.35 -0.48,0.61 -0.26,0.19 -0.72,0.46 -1.02,0.6 -0.3,0.15 -0.81,0.29 -1.69,0.41 l -0.07,-0.3 c -0.04,-0.17 -0.04,-0.47 -0.01,-0.67 0.04,-0.21 0.16,-0.56 0.27,-0.78 0.11,-0.22 0.36,-0.58 0.56,-0.8 0.33,-0.37 0.4,-0.4 0.87,-0.4 z m 15.03,2.64 c 0.42,0.03 0.64,0.1 0.73,0.23 0.07,0.1 0.24,0.54 0.38,0.98 0.13,0.44 0.28,1.13 0.39,2.27 l -0.3,-0.07 c -0.17,-0.04 -0.55,-0.14 -0.85,-0.23 -0.31,-0.09 -0.82,-0.34 -1.14,-0.57 -0.33,-0.22 -0.73,-0.56 -1.18,-1.1 l 0.28,-0.54 c 0.19,-0.35 0.42,-0.62 0.69,-0.78 0.34,-0.21 0.48,-0.23 1,-0.19 z m -4.61,29.36 c 0.46,0 0.52,0.02 0.64,0.27 0.08,0.15 0.16,0.53 0.19,0.83 0.05,0.45 0.01,0.64 -0.18,1.04 -0.14,0.27 -0.31,0.51 -0.4,0.54 -0.08,0.03 -0.39,0 -0.7,-0.07 -0.3,-0.06 -0.82,-0.25 -1.15,-0.41 -0.33,-0.17 -0.78,-0.45 -1,-0.64 -0.36,-0.31 -0.38,-0.36 -0.25,-0.51 0.09,-0.1 0.41,-0.3 0.73,-0.46 0.31,-0.16 0.81,-0.35 1.1,-0.43 0.29,-0.08 0.75,-0.15 1.02,-0.16 z"
       id="path28"
       inkscape:connector-curvature="0"
       style="fill:#fecc13;fill-rule:evenodd" />
    <path
       class="shp2"
       d="m 105.81,183.02 c -0.16,0.11 -0.93,0.5 -1.7,0.88 -0.77,0.37 -1.76,0.8 -2.2,0.95 -0.44,0.14 -1.25,0.37 -1.8,0.5 -0.55,0.13 -1.48,0.29 -2.05,0.36 -0.59,0.06 -1.52,0.09 -2.11,0.06 -0.57,-0.03 -1.38,-0.13 -1.8,-0.22 -0.41,-0.09 -1.06,-0.25 -1.45,-0.37 -0.38,-0.12 -1.1,-0.38 -1.6,-0.58 -0.49,-0.2 -1.38,-0.61 -1.97,-0.91 l -1.07,-0.54 -0.01,6.75 c 0.66,0 1.26,0.07 1.75,0.16 0.5,0.08 1.22,0.17 1.6,0.18 0.51,0.01 0.86,0.09 1.25,0.27 0.31,0.14 0.96,0.53 1.45,0.86 0.5,0.33 1.15,0.73 1.45,0.88 0.31,0.15 0.89,0.36 1.31,0.47 0.51,0.13 1.08,0.19 1.8,0.19 0.77,0 1.3,-0.07 2,-0.25 0.52,-0.13 1.2,-0.35 1.5,-0.48 0.3,-0.14 0.81,-0.41 1.12,-0.61 0.41,-0.26 0.7,-0.55 0.98,-0.99 0.22,-0.35 0.57,-1.01 0.76,-1.48 0.19,-0.47 0.53,-1.37 0.75,-2 0.22,-0.63 0.51,-1.6 0.65,-2.15 0.13,-0.55 0.24,-1.19 0.24,-1.42 0,-0.33 -0.05,-0.46 -0.22,-0.58 -0.13,-0.08 -0.25,-0.15 -0.28,-0.14 -0.03,0 -0.18,0.1 -0.35,0.21 z"
       id="path30"
       inkscape:connector-curvature="0"
       style="fill:#06222e" />
    <path
       class="shp1"
       d="m 59.18,186.31 c -0.33,0.11 -0.82,0.36 -1.09,0.57 -0.27,0.2 -0.51,0.42 -0.53,0.47 -0.02,0.06 0.22,0.3 0.54,0.54 0.32,0.25 0.81,0.56 1.08,0.69 0.28,0.14 0.69,0.25 0.93,0.26 0.28,0.01 0.48,-0.05 0.6,-0.17 0.14,-0.14 0.17,-0.34 0.17,-0.9 0,-0.53 -0.06,-0.85 -0.22,-1.19 -0.2,-0.43 -0.26,-0.48 -0.55,-0.48 -0.18,0.01 -0.6,0.1 -0.93,0.21 z M 82.65,190 c -0.11,0.11 -0.25,0.37 -0.3,0.58 -0.06,0.2 -0.1,0.48 -0.1,0.62 0,0.18 0.19,0.43 0.62,0.85 0.35,0.33 0.89,0.73 1.21,0.9 0.39,0.2 0.61,0.27 0.68,0.2 0.06,-0.06 0.09,-0.46 0.06,-1 -0.03,-0.65 -0.11,-1.07 -0.28,-1.49 -0.2,-0.49 -0.3,-0.61 -0.59,-0.72 -0.19,-0.07 -0.52,-0.13 -0.73,-0.13 -0.25,-0.01 -0.44,0.06 -0.57,0.19 z m 4.96,1.18 c 0.04,0.15 0.15,0.5 0.24,0.77 0.09,0.28 0.28,0.68 0.42,0.9 0.13,0.22 0.4,0.51 0.59,0.64 0.32,0.22 0.37,0.23 0.74,0.11 0.22,-0.07 0.55,-0.28 0.73,-0.46 0.29,-0.31 0.32,-0.4 0.31,-0.91 0,-0.32 -0.04,-0.69 -0.07,-0.82 -0.05,-0.19 -0.18,-0.27 -0.57,-0.38 -0.27,-0.07 -0.94,-0.13 -1.48,-0.13 h -0.98 z m -22.65,2.33 c -0.11,0.24 -0.27,0.69 -0.36,0.99 -0.09,0.3 -0.16,0.8 -0.16,1.1 0,0.3 0.03,0.61 0.07,0.68 0.05,0.08 0.16,0.11 0.28,0.08 0.11,-0.03 0.53,-0.27 0.95,-0.54 0.41,-0.27 0.94,-0.7 1.17,-0.95 l 0.43,-0.47 c -0.24,-0.58 -0.42,-0.86 -0.56,-1 -0.21,-0.21 -0.36,-0.26 -0.94,-0.29 l -0.69,-0.03 z"
       id="path32"
       inkscape:connector-curvature="0"
       style="fill:#fecc13" />
    <path
       class="shp2"
       d="m 88.05,197.9 c 0,2.09 0.02,3.8 0.05,3.8 0.03,0 0.15,-0.21 0.27,-0.47 0.11,-0.27 0.22,-0.7 0.23,-0.98 0.01,-0.29 0.12,-0.7 0.26,-0.99 0.13,-0.27 0.49,-0.74 0.79,-1.04 0.3,-0.3 0.82,-0.73 1.15,-0.94 0.33,-0.22 0.84,-0.46 1.13,-0.54 0.29,-0.07 0.52,-0.17 0.52,-0.21 0,-0.05 -0.22,-0.24 -0.47,-0.43 -0.26,-0.19 -0.56,-0.4 -0.67,-0.47 -0.12,-0.06 -0.5,-0.19 -0.86,-0.28 -0.36,-0.09 -0.81,-0.26 -1,-0.36 -0.19,-0.1 -0.59,-0.35 -0.88,-0.54 l -0.52,-0.35 z"
       id="path34"
       inkscape:connector-curvature="0"
       style="fill:#06222e" />
    <path
       class="shp1"
       d="m 89.12,201.83 c -0.2,0.45 -0.4,1.09 -0.45,1.42 -0.05,0.33 -0.08,0.77 -0.06,0.98 0.02,0.2 0.06,0.37 0.09,0.37 0.03,0 0.42,-0.18 0.88,-0.4 0.45,-0.22 1.06,-0.61 1.35,-0.87 l 0.52,-0.48 c -0.27,-0.79 -0.44,-1.12 -0.55,-1.25 -0.11,-0.13 -0.38,-0.31 -0.6,-0.41 -0.22,-0.1 -0.5,-0.19 -0.61,-0.19 -0.18,0 -0.29,0.15 -0.57,0.83 z m 27.2,0.92 c -0.17,0.08 -0.38,0.2 -0.47,0.27 -0.08,0.07 -0.25,0.29 -0.37,0.48 -0.15,0.25 -0.21,0.51 -0.21,0.93 V 205 c 0.81,0.29 1.32,0.43 1.65,0.49 0.33,0.06 0.78,0.11 1,0.11 h 0.4 c -0.13,-0.89 -0.26,-1.37 -0.39,-1.65 -0.12,-0.27 -0.4,-0.69 -0.62,-0.93 -0.22,-0.24 -0.46,-0.43 -0.54,-0.42 -0.09,0 -0.29,0.07 -0.45,0.15 z M 98.5,206.1 c -0.11,0.05 -0.3,0.26 -0.41,0.47 -0.12,0.21 -0.26,0.63 -0.32,0.93 -0.07,0.4 -0.07,0.72 0.02,1.16 0.06,0.34 0.15,0.66 0.19,0.7 0.04,0.05 0.36,-0.05 0.7,-0.23 0.34,-0.17 0.95,-0.61 1.35,-0.97 l 0.73,-0.66 c -0.23,-0.74 -0.43,-1.07 -0.6,-1.22 -0.26,-0.24 -0.39,-0.28 -0.88,-0.27 -0.32,0 -0.67,0.04 -0.78,0.09 z"
       id="path36"
       inkscape:connector-curvature="0"
       style="fill:#fecc13" />
  </g>
</svg>
