<?xml version="1.0" encoding="UTF-8"?>
<svg xmlns="http://www.w3.org/2000/svg" xmlns:xlink="http://www.w3.org/1999/xlink" width="196.51pt" height="395.24pt" viewBox="0 0 196.51 395.24" version="1.1">
<defs>
<clipPath id="clip1">
  <path d="M 0 28 L 196.511719 28 L 196.511719 395.238281 L 0 395.238281 Z M 0 28 "/>
</clipPath>
</defs>
<g id="surface1">
<g clip-path="url(#clip1)" clip-rule="nonzero">
<path style="fill:none;stroke-width:23.2;stroke-linecap:butt;stroke-linejoin:miter;stroke:rgb(80.076599%,0%,0.392151%);stroke-opacity:1;stroke-miterlimit:10;" d="M 1953.515625 3338.415625 L 11.601563 3338.415625 L 11.601563 1301.540625 C 11.601563 795.525 365.039063 12.7125 982.578125 12.7125 C 1600.078125 12.7125 1953.515625 795.525 1953.515625 1301.540625 Z M 1953.515625 3338.415625 " transform="matrix(0.1,0,0,-0.1,0,395.24)"/>
</g>
<path style=" stroke:none;fill-rule:evenodd;fill:rgb(100%,100%,100%);fill-opacity:1;" d="M 195.21875 61.402344 L 1.515625 274.449219 C 5.46875 324.78125 40.214844 393.949219 98.265625 393.949219 C 160.019531 393.949219 195.367188 315.703125 195.367188 265.101563 L 195.367188 61.402344 L 195.21875 61.402344 "/>
<path style=" stroke:none;fill-rule:evenodd;fill:rgb(80.076599%,0%,0.392151%);fill-opacity:1;" d="M 183.867188 89.902344 L 31.816406 257.152344 L 39.015625 263.652344 L 92.417969 204.902344 L 92.417969 228.699219 C 68.332031 232.085938 49.867188 251.6875 49.867188 275.300781 C 49.867188 298.902344 68.347656 318.410156 92.417969 321.800781 L 92.417969 331.101563 L 102.066406 331.101563 L 102.066406 322.300781 C 111.132813 321.9375 119.578125 319.324219 126.765625 315 L 126.765625 303.5 C 119.828125 309.234375 111.121094 312.875 102.066406 313.351563 L 102.066406 273.601563 L 152.367188 273.601563 L 152.367188 264 L 102.066406 264 L 102.066406 237.101563 C 109.457031 237.617188 116.730469 240.390625 122.867188 244.199219 C 124.210938 245.089844 125.523438 246.023438 126.765625 247.050781 L 126.765625 235.601563 C 119.578125 231.269531 111.136719 228.621094 102.066406 228.25 L 102.066406 194.300781 L 174.265625 114.851563 L 174.265625 184.101563 L 183.867188 184.101563 Z M 92.417969 237.800781 L 92.417969 312.699219 C 81.285156 310.605469 71.15625 303.957031 64.816406 294.5 C 58.554688 285.515625 57.191406 273.535156 60.96875 263.300781 C 66.179688 250.289063 78.667969 240.691406 92.417969 237.800781 "/>
<path style=" stroke:none;fill-rule:evenodd;fill:rgb(80.076599%,0%,0.392151%);fill-opacity:1;" d="M 1.167969 61.402344 L 1.167969 265.101563 C 1.167969 268.132813 1.265625 271.246094 1.515625 274.449219 L 195.21875 61.402344 L 1.167969 61.402344 "/>
<path style=" stroke:none;fill-rule:nonzero;fill:rgb(100%,100%,100%);fill-opacity:1;" d="M 10.96875 99.300781 L 10.96875 248.101563 L 97.167969 153.25 L 44.96875 153.25 L 44.96875 162.5 L 75.71875 162.5 L 20.265625 223.449219 L 20.265625 108.601563 L 135.015625 108.601563 L 135.015625 99.300781 L 10.96875 99.300781 "/>
<path style=" stroke:none;fill-rule:evenodd;fill:rgb(80.859375%,0%,0%);fill-opacity:1;" d="M 92.441406 335.738281 C 93.132813 337.28125 93.558594 338.957031 93.492188 340.390625 C 85.703125 342.480469 82.234375 349.859375 82.234375 357.355469 C 82.234375 366.828125 87.832031 374.46875 97.394531 374.46875 C 104.652344 374.46875 115.109375 365.714844 115.109375 359.304688 C 115.109375 353.800781 112.457031 349.5 108.65625 346.394531 C 108.535156 344.835938 108.570313 343.699219 109.40625 342.191406 C 107.253906 342.257813 106.636719 342.804688 105.652344 344.144531 C 105.503906 342.140625 105.671875 340.085938 105.203125 338.140625 C 102.410156 339.21875 102.273438 340.457031 101.449219 342.492188 C 100.449219 340.792969 100.085938 338.984375 98.445313 337.386719 C 97.203125 338.753906 97.445313 339.589844 96.945313 340.691406 C 95.390625 338.402344 95.109375 337.175781 92.441406 335.738281 "/>
<path style=" stroke:none;fill-rule:evenodd;fill:rgb(0%,19.213867%,0%);fill-opacity:1;" d="M 85.667969 372.75 C 80.476563 373.117188 77.503906 377.175781 71.617188 379.300781 C 74.90625 380.894531 75.363281 384.050781 81.46875 384.050781 C 85.929688 384.050781 90.175781 381.988281 94.367188 379.351563 L 95.816406 379.351563 L 95.816406 380.25 C 93.550781 383.878906 89.230469 386.929688 84.667969 388.949219 L 84.667969 390.402344 L 87.066406 390.550781 L 89.566406 389.550781 C 93.714844 387.179688 96.597656 384.21875 98.617188 381.25 L 99.617188 381.949219 C 100.796875 383.996094 102.511719 386.351563 108.21875 386.351563 C 114.9375 386.351563 113.894531 380.652344 123.21875 380.652344 C 121.914063 375.789063 116.664063 374.300781 111.816406 374.300781 C 111.011719 374.300781 110.445313 374.535156 110.015625 374.851563 C 109.179688 375.492188 108.867188 376.570313 108.417969 377.152344 C 108.410156 377.160156 108.375 377.191406 108.367188 377.199219 C 108.324219 377.246094 108.261719 377.3125 108.21875 377.351563 C 108.210938 377.359375 108.175781 377.390625 108.167969 377.402344 C 108.140625 377.414063 108.085938 377.441406 108.066406 377.449219 C 108.050781 377.460938 107.992188 377.488281 107.96875 377.5 C 105.246094 378.355469 102.078125 376.792969 100.417969 380.25 C 99.851563 380.261719 99.386719 380.109375 98.96875 379.902344 L 98.96875 374.351563 C 98.429688 374.433594 97.925781 374.449219 97.417969 374.449219 C 96.875 374.449219 96.332031 374.449219 95.816406 374.402344 L 95.816406 377.699219 L 94.367188 377.699219 C 93.316406 375.148438 90.621094 372.75 86.46875 372.75 C 86.335938 372.75 86.199219 372.746094 86.066406 372.75 C 85.941406 372.753906 85.792969 372.742188 85.667969 372.75 "/>
<path style=" stroke:none;fill-rule:evenodd;fill:rgb(0%,9.423828%,0%);fill-opacity:1;" d="M 88.632813 377.636719 C 84.757813 378.210938 80.960938 379.03125 77.617188 380.234375 C 82.691406 380.734375 87.589844 379.417969 91.898438 378.136719 C 90.933594 377.875 89.753906 377.484375 88.632813 377.636719 "/>
<path style=" stroke:none;fill-rule:evenodd;fill:rgb(0%,9.423828%,0%);fill-opacity:1;" d="M 101.804688 381.042969 C 102.003906 381.042969 102.550781 381.042969 102.917969 381.042969 C 103.363281 381.042969 103.871094 381.097656 104.296875 380.992188 C 104.332031 380.984375 104.367188 380.992188 104.402344 380.992188 C 104.863281 380.992188 105.21875 380.828125 105.625 380.726563 C 105.863281 380.667969 106.222656 380.390625 106.367188 380.25 C 106.578125 380.039063 107.105469 379.929688 107.375 379.824219 C 107.617188 379.726563 107.917969 379.675781 108.171875 379.609375 C 108.441406 379.542969 108.789063 379.503906 109.074219 379.503906 C 109.5625 379.503906 110.015625 379.453125 110.507813 379.453125 C 110.941406 379.453125 111.273438 379.320313 111.675781 379.238281 C 112.160156 379.140625 112.636719 378.601563 113.054688 378.390625 C 113.378906 378.226563 113.691406 377.914063 114.011719 377.753906 C 114.378906 377.570313 114.789063 377.53125 115.179688 377.433594 C 115.578125 377.335938 115.996094 377.554688 116.292969 377.699219 C 116.777344 377.941406 117.089844 378.445313 117.300781 378.867188 C 117.46875 379.203125 117.480469 379.523438 117.40625 379.824219 C 117.363281 379.996094 116.5625 379.769531 116.398438 379.769531 C 116.019531 379.769531 115.820313 379.820313 115.550781 380.089844 C 115.324219 380.3125 115.089844 380.636719 114.964844 380.886719 C 114.828125 381.164063 114.566406 381.390625 114.328125 381.628906 C 114.089844 381.867188 113.679688 381.953125 113.371094 382.105469 C 113.023438 382.28125 112.632813 382.316406 112.207031 382.425781 C 112.136719 382.441406 112.0625 382.460938 111.992188 382.476563 C 111.636719 382.566406 111.273438 382.582031 110.878906 382.582031 C 110.542969 382.582031 110.144531 382.691406 109.765625 382.691406 C 109.214844 382.691406 108.667969 382.691406 108.117188 382.691406 C 107.523438 382.691406 106.941406 382.582031 106.367188 382.582031 C 105.765625 382.582031 105.21875 382.425781 104.617188 382.425781 C 104.328125 382.425781 104.015625 382.316406 103.660156 382.316406 C 103.28125 382.316406 102.871094 382.214844 102.546875 382.050781 C 102.15625 381.855469 101.972656 381.984375 101.855469 381.523438 C 101.816406 381.367188 101.84375 381.207031 101.804688 381.042969 "/>
<path style=" stroke:none;fill-rule:nonzero;fill:rgb(39.598083%,19.993591%,20.384216%);fill-opacity:1;" d="M 146.335938 47.96875 C 146.335938 74.511719 124.796875 96.050781 98.253906 96.050781 C 71.714844 96.050781 50.171875 74.511719 50.171875 47.96875 C 50.171875 21.429688 71.714844 -0.113281 98.253906 -0.113281 C 124.796875 -0.113281 146.335938 21.429688 146.335938 47.96875 "/>
<path style=" stroke:none;fill-rule:evenodd;fill:rgb(29.80957%,15.281677%,15.696716%);fill-opacity:1;" d="M 97.28125 -0.0976563 C 92.808594 7.851563 92.789063 15.550781 97.378906 23.75 C 92.691406 32.132813 92.957031 39.921875 97.328125 47.75 C 92.945313 55.148438 87.128906 58.886719 77.929688 59 C 73.5625 51.320313 69.917969 43.433594 69.03125 34.550781 C 68.179688 26.066406 69.773438 16.636719 75.679688 5.5 C 74.847656 5.945313 74.03125 6.410156 73.230469 6.902344 C 68.097656 17.355469 66.65625 26.460938 67.480469 34.699219 C 68.402344 43.917969 72.117188 52.039063 76.53125 59.800781 C 76.53125 59.804688 76.53125 59.839844 76.53125 59.851563 C 71.847656 67.652344 64.988281 71.066406 56.078125 71.050781 C 56.355469 71.554688 56.585938 72.058594 56.878906 72.550781 C 56.882813 72.558594 56.925781 72.542969 56.929688 72.550781 C 66.21875 72.535156 73.015625 68.730469 77.878906 60.550781 C 87.558594 60.429688 94.175781 56.296875 98.78125 48.5 C 107.257813 48.648438 113.324219 51.824219 117.980469 59.652344 C 117.980469 59.65625 117.980469 59.695313 117.980469 59.699219 C 113.515625 67.3125 108.46875 74.394531 101.230469 79.601563 C 94.210938 84.648438 85.105469 87.972656 72.230469 88.351563 C 73.03125 88.867188 73.847656 89.382813 74.679688 89.851563 C 86.558594 89.132813 95.304688 85.808594 102.128906 80.902344 C 109.632813 75.507813 114.773438 68.183594 119.28125 60.5 C 119.285156 60.503906 119.324219 60.5 119.328125 60.5 C 128.457031 60.632813 135.074219 64.886719 139.53125 72.601563 C 139.792969 72.160156 140.078125 71.753906 140.328125 71.300781 C 140.320313 71.289063 140.335938 71.265625 140.328125 71.25 C 135.671875 63.214844 128.832031 59.082031 119.328125 58.949219 C 114.421875 50.703125 107.628906 47.039063 98.679688 46.902344 C 94.515625 39.4375 94.246094 32.542969 98.730469 24.550781 C 107.550781 24.613281 116.203125 25.433594 124.328125 29.101563 C 132.160156 32.632813 139.597656 38.820313 146.328125 49.652344 C 146.347656 49.09375 146.328125 48.511719 146.328125 47.949219 C 146.328125 47.554688 146.339844 47.195313 146.328125 46.800781 C 146.320313 46.789063 146.339844 46.761719 146.328125 46.75 C 139.804688 36.945313 132.589844 31.085938 124.980469 27.652344 C 116.535156 23.839844 107.65625 23.011719 98.730469 22.949219 C 94.296875 15.019531 94.664063 7.585938 99.078125 -0.0976563 C 98.804688 -0.105469 98.554688 -0.0976563 98.28125 -0.0976563 C 97.96875 -0.0976563 97.640625 -0.105469 97.328125 -0.0976563 C 97.324219 -0.0898438 97.285156 -0.109375 97.28125 -0.0976563 "/>
</g>
</svg>
