<?xml version="1.0" encoding="UTF-8" standalone="no"?>
<!-- Generator: Adobe Illustrator 16.0.4, SVG Export Plug-In . SVG Version: 6.00 Build 0)  -->

<svg
   xmlns:dc="http://purl.org/dc/elements/1.1/"
   xmlns:cc="http://creativecommons.org/ns#"
   xmlns:rdf="http://www.w3.org/1999/02/22-rdf-syntax-ns#"
   xmlns:svg="http://www.w3.org/2000/svg"
   xmlns="http://www.w3.org/2000/svg"
   xmlns:sodipodi="http://sodipodi.sourceforge.net/DTD/sodipodi-0.dtd"
   xmlns:inkscape="http://www.inkscape.org/namespaces/inkscape"
   version="1.1"
   id="Ebene_1"
   x="0px"
   y="0px"
   width="4096"
   height="4096"
   viewBox="0 0 4096 4096"
   enable-background="new 0 0 100 100"
   xml:space="preserve"
   sodipodi:docname="hertha-bsc-logo.svg"
   inkscape:export-filename="G:\Users\suitedoalex\sites\hertha-bsc-logo-0.png"
   inkscape:export-xdpi="96"
   inkscape:export-ydpi="96"
   inkscape:version="0.92.4 (5da689c313, 2019-01-14)"><metadata
   id="metadata91"><rdf:RDF><cc:Work
       rdf:about=""><dc:format>image/svg+xml</dc:format><dc:type
         rdf:resource="http://purl.org/dc/dcmitype/StillImage" /><dc:title></dc:title></cc:Work></rdf:RDF></metadata><defs
   id="defs89" /><sodipodi:namedview
   pagecolor="#ffffff"
   bordercolor="#666666"
   borderopacity="1"
   objecttolerance="10"
   gridtolerance="10"
   guidetolerance="10"
   inkscape:pageopacity="0"
   inkscape:pageshadow="2"
   inkscape:window-width="1600"
   inkscape:window-height="837"
   id="namedview87"
   showgrid="false"
   inkscape:zoom="0.07375"
   inkscape:cx="1563.8961"
   inkscape:cy="1415.6573"
   inkscape:window-x="-8"
   inkscape:window-y="-8"
   inkscape:window-maximized="1"
   inkscape:current-layer="Ebene_1" />
<path
   d="m 3073.2459,1714.0785 c 4.296,-39.8958 9.0402,-92.1563 9.0402,-130.6325 0,-64.3637 -12.3275,-125.5895 -36.6085,-222.9755 -23.8703,-95.5929 -55.884,-176.7293 -77.9238,-220.7715 -27.0828,-54.2777 -62.9068,-73.2543 -97.274,-88.0471 -32.4619,-13.8963 -117.6327,-17.7813 -304.2986,-23.3099 l -14.3071,-0.3736 c -5.2672,-0.3735 -10.5717,-0.3735 -16.1376,-0.3735 -72.6567,0 -170.1548,14.5686 -259.584,27.942 -65.6711,9.7497 -127.7561,18.9393 -161.7496,18.9393 h -5.4166 c -80.2398,-2.3535 -174.9363,-20.8071 -276.2072,-40.5309 -89.3173,-17.4077 -181.6975,-35.4131 -275.3854,-44.5652 -27.6058,-2.6523 -56.7805,-3.997 -86.665,-3.997 -132.0893,0 -259.6586,25.4017 -317.6718,38.7751 -15.6894,-14.8676 -40.9044,-29.3242 -79.4554,-29.3242 -20.6203,0 -43.3698,4.296 -67.6509,12.7382 -56.03342,19.5745 -91.29709,60.6282 -96.6763,112.5898 -4.89358,46.7693 17.89332,95.2941 55.47304,118.081 16.0629,9.6004 31.37869,14.3073 45.12556,17.0342 49.3094,186.5538 183.7895,694.4776 296.3418,1118.3141 -3.6608,4.8936 -7.5458,9.9366 -11.5802,15.0543 -34.4792,44.3784 -81.6966,105.2307 -68.5101,200.0018 16.81,122.2275 109.2651,173.0684 191.3726,202.8781 58.4989,219.2774 62.0477,230.3346 63.2804,234.2569 23.2352,69.8176 63.3177,84.4984 92.866,84.4984 5.2671,0 10.609,-0.4483 15.5026,-1.3822 l 4.0344,-0.7471 c 11.1319,-1.6063 37.2435,-5.3419 54.3897,-31.3414 13.0744,-19.8731 14.7181,-44.1169 9.7871,-74.1508 3.7356,5.6033 7.8448,10.7958 12.29,15.3158 19.537,20.0973 40.4561,24.3185 54.5018,24.3185 40.4935,0 88.7569,-27.9419 88.7569,-161.0773 0,-176.393 -119.0149,-206.5764 -234.1448,-235.8257 l -17.9307,-4.6322 -50.3553,-197.3495 c 61.3005,-30.5569 146.8821,-39.6343 223.7226,-44.3784 5.4539,-0.3737 10.8704,-0.6351 16.3991,-0.6351 49.0853,0 103.475,13.2239 161.787,27.3069 71.648,17.3704 145.7616,35.301 229.8863,35.301 87.0385,0 134.2559,-17.4824 188.9819,-37.6544 61.7114,-22.8243 131.7531,-48.8237 298.5085,-55.5103 8.4796,-0.3737 16.8847,-0.5231 25.215,-0.5231 231.6794,0 391.4492,123.4602 393.0928,124.8424 9.563,7.4338 21.5168,11.6175 33.6947,11.6175 5.7528,0 11.655,-0.9338 18.2669,-3.1004 17.7066,-6.3131 30.7436,-20.9938 35.0022,-38.9993 0.4483,-1.8304 43.8555,-186.479 51.8869,-410.4631 6.6866,-185.0969 -72.6566,-293.6897 -113.6731,-337.0968 z"
   id="path2"
   inkscape:connector-curvature="0"
   style="fill:#ffffff;stroke-width:37.35558319"
   inkscape:export-filename="G:\Users\suitedoalex\sites\hertha-bsc-logo-4.png"
   inkscape:export-xdpi="12.849625"
   inkscape:export-ydpi="12.849625" />
<path
   d="m 3392.5988,1610.1178 c 5.6407,-52.2978 11.8791,-120.8453 11.8791,-171.3127 0,-84.3862 -16.2123,-164.7007 -48.0393,-292.4194 -31.3039,-125.3654 -73.2917,-231.7915 -102.1675,-289.5432 -35.5251,-71.1998 -82.4811,-96.0786 -127.5693,-115.4661 -42.5853,-18.2295 -154.2785,-23.3472 -399.107,-30.5568 l -18.7525,-0.4857 c -6.9108,-0.3736 -13.8963,-0.4109 -21.1433,-0.4109 -95.3315,0 -223.1623,19.1261 -340.4588,36.6458 -86.1046,12.8129 -167.5398,24.8788 -212.1423,24.8788 h -7.0602 c -105.2308,-3.1005 -229.4008,-27.2695 -362.2372,-53.1569 -117.1098,-22.8243 -238.2539,-46.4331 -361.1164,-58.4242 -36.2349,-3.5115 -74.4871,-5.2298 -113.6731,-5.2298 -173.2178,0 -340.53349,33.3212 -416.62682,50.8409 -20.58292,-19.4996 -53.64262,-38.4762 -104.22208,-38.4762 -27.04544,0 -56.89256,5.6034 -88.71951,16.698 -73.47843,25.7006 -119.72464,79.5301 -126.78485,147.6666 -6.42516,61.3379 23.45931,124.9544 72.73132,154.8762 21.06855,12.5888 41.16586,18.7526 59.17125,22.3387 64.66252,244.6417 241.05558,910.7665 388.64749,1466.6549 -4.7815,6.3879 -9.8992,12.9998 -15.2037,19.7237 -45.2003,58.2375 -107.13583,138.0289 -89.8402,262.311 22.07715,160.3301 143.296,226.9725 250.9922,266.0465 76.7284,287.6006 81.3604,302.0946 82.9667,307.2123 30.4822,91.5585 83.0789,110.834 121.7792,110.834 6.9108,0 13.9337,-0.5977 20.3215,-1.8304 l 5.3045,-0.934 c 14.606,-2.1292 48.8237,-7.0228 71.3118,-41.1284 17.1462,-26.0742 19.3128,-57.8638 12.8503,-97.274 4.8936,7.359 10.2728,14.1578 16.1376,20.0974 25.626,26.3357 53.045,31.9016 71.4613,31.9016 53.1196,0 116.3999,-36.6085 116.3999,-211.2085 0,-231.3057 -156.0716,-270.94 -307.1002,-309.3042 l -23.4967,-6.0516 -66.082,-258.8368 c 80.3892,-40.0825 192.6427,-51.999 293.3908,-58.2001 7.1722,-0.4856 14.2698,-0.7844 21.5167,-0.7844 64.4011,0 135.7129,17.2957 212.1798,35.824 93.9867,22.7495 191.1485,46.2836 301.4969,46.2836 114.1587,0 176.0569,-22.899 247.8543,-49.3467 80.9496,-29.9593 172.8069,-64.0275 391.4865,-72.8061 11.0947,-0.4856 22.1519,-0.6723 33.0597,-0.6723 303.8504,0 513.3405,161.899 515.5444,163.6921 12.5515,9.7872 28.2408,15.2411 44.229,15.2411 7.5459,0 15.3158,-1.2701 23.9823,-4.0718 23.1978,-8.2929 40.3441,-27.4937 45.91,-51.1398 0.5978,-2.3907 57.4903,-244.567 68.0245,-538.3313 8.7786,-242.8487 -95.294,-385.2855 -149.0861,-442.2154 z"
   id="path4"
   inkscape:connector-curvature="0"
   style="fill:#ffffff;stroke-width:37.35558319"
   inkscape:export-filename="G:\Users\suitedoalex\sites\hertha-bsc-logo-4.png"
   inkscape:export-xdpi="12.849625"
   inkscape:export-ydpi="12.849625" />
<g
   id="g44"
   transform="matrix(37.355585,0,0,37.355585,180.24272,179.9967)"
   inkscape:export-filename="G:\Users\suitedoalex\sites\hertha-bsc-logo-4.png"
   inkscape:export-xdpi="12.849625"
   inkscape:export-ydpi="12.849625">
	<path
   d="m 34.614,25.053 c -4.759,0.29 -7.986,1.211 -8.019,1.219 -0.022,0.207 2.645,2.983 4.098,6.558 1.455,3.585 2.817,8.55 2.833,8.599 l 0.028,0.106 0.104,-0.03 c 0.062,-0.016 6.081,-1.644 10.229,-1.164 l 4.729,0.824 c 2.198,0.457 4.098,0.85 5.964,0.732 1.357,-0.082 3.148,-0.449 5.045,-0.832 2.533,-0.516 5.396,-1.1 8.064,-1.209 4.595,-0.192 6.524,0.758 6.541,0.767 0.16,-0.136 0.244,-4.752 -0.781,-8.545 C 72.484,28.482 71.017,26.496 71,26.476 70.908,26.425 67.24,25.53 61.803,26.124 L 57.23,26.71 51.538,27.211 C 49.607,27.255 46.892,26.737 44.021,26.19 40.67,25.554 37.204,24.896 34.614,25.053"
   id="path6"
   inkscape:connector-curvature="0"
   style="fill:#004f9f" />
	<g
   id="g12">
		<path
   d="m 33.436,43.557 c 0,0 0.891,4.317 1.086,6.362 0.195,2.046 0,7.429 0,7.429 0,0 4.01,-1.572 6.845,-1.472 2.842,0.099 8.019,1.959 11.342,1.672 3.327,-0.293 5.873,-2.45 12.143,-2.354 6.256,0.098 11.336,2.255 11.336,2.255 0,0 0.877,-4.8 0.586,-8.027 -0.291,-3.228 -1.154,-5.65 -2.629,-6.446 -1.475,-0.795 -4.133,-1.375 -6.865,-1.183 -2.721,0.195 -9.582,2.154 -13.204,2.059 -3.619,-0.095 -7.023,-1.57 -11.924,-1.57 -4.901,0 -8.716,1.275 -8.716,1.275"
   id="path8"
   inkscape:connector-curvature="0"
   style="fill:#ffffff" />
		<path
   d="m 76.756,58.502 -0.861,-0.363 c -0.051,-0.021 -5.028,-2.101 -11.056,-2.195 -3.743,-0.062 -6.128,0.721 -8.202,1.404 -1.294,0.426 -2.515,0.828 -3.861,0.945 -0.256,0.021 -0.527,0.033 -0.812,0.033 -1.9,0 -4.124,-0.485 -6.274,-0.957 -1.661,-0.363 -3.229,-0.706 -4.349,-0.742 -0.079,-0.003 -0.158,-0.006 -0.238,-0.006 -2.641,0 -6.27,1.412 -6.306,1.426 l -1.065,0.416 0.042,-1.143 c 10e-4,-0.053 0.191,-5.355 0.003,-7.331 -0.19,-1.979 -1.066,-6.238 -1.074,-6.281 l -0.135,-0.65 0.63,-0.212 c 0.161,-0.053 3.986,-1.317 8.953,-1.317 2.796,0 5.146,0.474 7.22,0.891 1.634,0.329 3.179,0.639 4.725,0.681 2.114,0.053 5.403,-0.622 8.303,-1.217 1.985,-0.407 3.701,-0.759 4.83,-0.84 2.625,-0.184 5.531,0.332 7.273,1.272 2.071,1.116 2.786,4.443 3.02,7.037 0.299,3.293 -0.56,8.03 -0.596,8.229 z M 41.103,55.12 c 0.098,0 0.194,0.003 0.29,0.006 1.256,0.044 2.89,0.401 4.618,0.778 2.072,0.455 4.215,0.924 5.954,0.924 0.239,0 0.469,-0.012 0.68,-0.028 1.176,-0.104 2.263,-0.463 3.522,-0.879 2.078,-0.685 4.685,-1.537 8.696,-1.479 4.865,0.076 8.988,1.349 10.732,1.977 0.23,-1.521 0.637,-4.66 0.432,-6.932 -0.28,-3.103 -1.096,-5.234 -2.238,-5.852 -1.484,-0.802 -4.135,-1.26 -6.456,-1.096 -1.028,0.073 -2.78,0.434 -4.635,0.814 -2.979,0.611 -6.372,1.31 -8.644,1.246 -1.675,-0.044 -3.279,-0.367 -4.98,-0.711 -2.103,-0.422 -4.278,-0.86 -6.924,-0.86 -3.583,0 -6.585,0.707 -7.843,1.054 0.26,1.306 0.81,4.175 0.962,5.765 0.145,1.518 0.084,4.727 0.037,6.425 1.361,-0.452 3.781,-1.152 5.797,-1.152 z"
   id="path10"
   inkscape:connector-curvature="0"
   style="fill:#ffffff" />
	</g>
	<path
   d="m 25.393,24.263 c 0,0 6.03,-1.663 11.334,-1.141 5.297,0.52 10.651,2.159 14.862,2.285 2.285,0.072 8.419,-1.348 11.849,-1.245 3.432,0.101 7.275,0.204 8.006,0.518 0.726,0.312 1.351,0.624 1.869,1.665 0.519,1.037 1.352,3.116 1.976,5.61 0.621,2.498 0.937,4.055 0.937,5.615 0,1.556 -0.314,4.053 -0.314,4.053 0,0 3.328,2.596 3.121,8.419 -0.209,5.819 -1.354,10.703 -1.354,10.703 0,0 -4.979,-3.923 -12.159,-3.636 -8.408,0.338 -8.312,2.492 -12.992,2.492 -4.164,0 -7.693,-1.867 -11.021,-1.66 -2.789,0.173 -5.72,0.565 -7.577,1.975 0.803,3.137 1.456,5.689 1.827,7.148 3.704,1.033 6.49,1.139 6.49,5.246 0,4.365 -2.091,3.193 -1.986,-0.028 0.074,-2.354 -1.637,-2.425 -3.933,-2.949 0.763,2.949 0.988,3.431 1.54,5.447 0.625,2.284 0.105,2.077 -0.412,2.185 -0.523,0.102 -0.938,-0.312 -1.248,-1.247 -0.072,-0.221 -0.795,-2.909 -1.872,-6.938 -2.431,-0.787 -4.517,-1.822 -4.885,-4.502 -0.355,-2.555 1.469,-3.92 2.28,-5.286 -3.26,-12.274 -7.281,-27.47 -8.352,-31.515 -0.554,-0.094 -1.073,-0.074 -1.623,-0.403 -0.995,-0.604 -1.382,-2.765 0.833,-3.538 2.515,-0.873 2.804,0.727 2.804,0.727 m 7.044,37.378 c -1.089,1.758 -1.312,3.598 1.261,4.75 z m 0.085,-7.218 c 0.126,-2.817 -0.09,-6.813 -1.415,-11.349 -1.761,-6.046 -3.183,-10.466 -4.875,-13.145 1.284,5.004 4.024,15.665 6.29,24.494 m 0.914,-10.866 c 0,0 0.891,4.317 1.086,6.362 0.195,2.046 0,7.429 0,7.429 0,0 4.01,-1.572 6.845,-1.472 2.842,0.095 8.019,1.959 11.342,1.669 3.327,-0.29 5.873,-2.447 12.143,-2.354 6.258,0.099 11.336,2.256 11.336,2.256 0,0 0.877,-4.799 0.586,-8.027 -0.291,-3.228 -1.154,-5.65 -2.629,-6.443 -1.475,-0.798 -4.133,-1.378 -6.865,-1.186 -2.723,0.193 -9.582,2.154 -13.204,2.059 -3.619,-0.095 -7.023,-1.57 -11.924,-1.57 -4.901,0 -8.716,1.277 -8.716,1.277 M 33.631,41.4 c 0,0 6.051,-1.654 10.267,-1.166 4.222,0.485 7.562,1.75 10.68,1.557 3.117,-0.192 8.402,-1.85 13.109,-2.045 4.688,-0.194 6.457,0.684 6.457,0.684 0,0 0.232,-4.504 -0.797,-8.325 -0.97,-3.617 -2.433,-5.563 -2.433,-5.563 0,0 -3.617,-0.911 -9.103,-0.312 -5.484,0.604 -6.067,0.991 -10.272,1.09 -4.2,0.094 -12.121,-2.451 -16.921,-2.156 -4.801,0.29 -7.935,1.182 -7.935,1.182 0,0 2.633,2.808 4.108,6.442 1.475,3.632 2.84,8.612 2.84,8.612"
   id="path14"
   inkscape:connector-curvature="0"
   style="fill:#1d1d1b" />
	<path
   d="m 64.789,49.261 c -0.416,0.053 -0.73,0 -0.73,1.097 0,1.294 0.158,1.712 0.623,1.712 0.471,0 0.678,-0.625 0.729,-1.459 0.056,-0.829 -0.206,-1.403 -0.622,-1.35 z"
   id="path16"
   inkscape:connector-curvature="0"
   style="fill:none" />
	<path
   d="m 59.18,51.965 c -0.213,0.778 -0.106,1.094 0.205,1.094 0.311,0 0.57,-0.369 0.465,-1.037 0.052,-1.095 -0.465,-0.836 -0.67,-0.057 z"
   id="path18"
   inkscape:connector-curvature="0"
   style="fill:none" />
	<path
   d="m 43.272,48.376 c 0,-0.31 -0.051,-0.672 -0.311,-0.568 -0.261,0.105 -0.209,0.156 -0.209,0.519 0,0.365 0.104,0.729 0.312,0.675 0.208,-0.051 0.208,-0.311 0.208,-0.626 z"
   id="path20"
   inkscape:connector-curvature="0"
   style="fill:none" />
	<path
   d="m 63.902,45.209 c -0.258,-0.104 -0.519,0.052 -0.519,0.052 0,0 -0.122,0.662 -0.101,1.145 0.052,1.145 0.415,1.35 0.415,1.35 0,0 0.415,-0.205 0.415,-1.248 0.003,-1.041 0.056,-1.196 -0.21,-1.299 z"
   id="path22"
   inkscape:connector-curvature="0"
   style="fill:none" />
	<g
   id="g42">
		<path
   d="m 65.359,47.964 c 0,0 0.313,-0.935 0.313,-2.341 0,-1.039 -0.263,-1.868 -0.885,-2.181 -0.587,-0.294 -1.353,0.051 -2.029,0.205 -0.67,0.155 -1.506,0.264 -1.506,0.264 v 1.194 c 0,0 0.729,1.142 1.039,3.221 0.315,2.081 0.729,5.77 0.729,5.77 0,0 0.778,0.207 1.66,0.102 0.887,-0.102 2.875,-0.514 2.551,-3.738 -0.26,-2.547 -1.872,-2.496 -1.872,-2.496 z m -1.66,-0.21 c 0,0 -0.363,-0.205 -0.415,-1.35 -0.022,-0.481 0.101,-1.144 0.101,-1.144 0,0 0.26,-0.155 0.518,-0.052 0.267,0.104 0.214,0.258 0.214,1.297 -0.002,1.044 -0.418,1.249 -0.418,1.249 z m 1.712,2.857 c -0.052,0.834 -0.259,1.459 -0.729,1.459 -0.465,0 -0.623,-0.418 -0.623,-1.713 0,-1.097 0.314,-1.044 0.73,-1.097 0.416,-0.053 0.678,0.522 0.622,1.351 z"
   id="path24"
   inkscape:connector-curvature="0"
   style="fill:#004f9f" />
		<path
   d="M 67.803,45.681 C 67.701,45.156 67.955,45 68.375,45 c 0.412,0 0.312,0.521 0.568,0.831 0.266,0.312 0.162,0.675 0.627,0.573 0.467,-0.104 0.467,-0.573 0.467,-1.195 0,-0.625 -0.521,-1.819 -1.662,-1.819 -1.143,0 -2.223,0.511 -2.078,2.025 0.158,1.663 0.493,2.109 1.193,2.961 0.938,1.147 1.818,1.981 2.285,2.91 0.475,0.938 0.262,1.51 -0.101,1.457 -0.567,-0.081 -0.569,-0.261 -0.676,-0.724 -0.183,-0.822 -0.625,-0.938 -0.938,-0.834 -0.309,0.101 -0.668,0.565 -0.465,1.45 0.258,1.146 0.57,1.716 1.764,1.771 1.56,0.067 2.338,-0.783 2.236,-2.234 -0.104,-1.459 -1.039,-2.444 -2.129,-3.744 -1.091,-1.295 -1.519,-2.039 -1.663,-2.747 z"
   id="path26"
   inkscape:connector-curvature="0"
   style="fill:#004f9f" />
		<path
   d="m 39.789,44.636 c -0.209,-0.881 0,-1.246 -0.83,-1.143 -0.639,0.081 -1.092,0.154 -0.936,0.882 0.154,0.73 0.258,1.196 0.258,1.719 0,0.519 0.103,1.088 -0.467,1.088 -0.571,0 -0.728,0.367 -0.936,-0.777 -0.208,-1.145 -0.208,-1.353 -0.312,-1.82 -0.103,-0.466 -0.204,-0.726 -0.83,-0.572 -0.625,0.156 -0.987,0.156 -0.934,1.041 0.049,0.885 0.259,2.651 0.671,4.573 0.419,1.926 0.782,3.948 1.092,4.782 0.312,0.832 0.47,0.882 0.938,0.778 0.468,-0.105 0.831,0 0.621,-1.041 -0.208,-1.041 -0.465,-2.701 -0.67,-3.535 -0.211,-0.828 -0.418,-1.763 0.31,-1.919 0.727,-0.159 0.985,-0.159 1.195,0.676 0.209,0.831 0.573,3.429 0.779,4.104 0.205,0.676 0.205,1.354 1.086,1.146 0.889,-0.21 0.732,-0.21 0.524,-1.355 -0.209,-1.145 -1.351,-7.742 -1.559,-8.627 z"
   id="path28"
   inkscape:connector-curvature="0"
   style="fill:#004f9f" />
		<path
   d="m 48.053,47.442 c 0.095,-0.46 -0.154,-1.087 -0.521,-1.087 -0.364,0 -0.625,0.518 -1.09,0.566 -0.468,0.053 -0.622,-0.518 -0.985,-0.365 -0.367,0.159 -0.678,0.576 -0.523,1.197 0.156,0.622 0.263,1.041 0.468,1.926 0.208,0.881 0.367,2.028 0.572,2.907 0.211,0.884 0.353,1.729 0.726,2.186 0.522,0.621 1.093,0.726 1.144,-0.052 0.058,-0.842 -0.101,-1.25 -0.361,-2.03 -0.261,-0.778 -0.678,-1.453 -0.833,-2.599 -0.156,-1.141 -0.103,-1.716 0.257,-1.766 0.368,-0.05 0.676,0.156 0.676,0.572 0,0.415 -0.101,1.509 0.315,1.4 0.415,-0.101 1.056,-0.056 0.516,-0.985 -0.361,-0.621 -0.571,-0.83 -0.361,-1.87 z"
   id="path30"
   inkscape:connector-curvature="0"
   style="fill:#004f9f" />
		<path
   d="m 44.833,51.445 c -0.364,-0.209 -0.524,-0.159 -0.626,0.359 -0.099,0.524 0,1.043 -0.418,1.043 -0.412,0 -0.674,-0.262 -0.778,-0.884 -0.104,-0.625 0.055,-0.937 0.366,-1.038 0.314,-0.104 0.99,0.156 1.039,-0.628 0.054,-0.775 0.21,-1.451 -0.105,-2.595 -0.31,-1.147 -0.362,-1.404 -0.828,-1.767 -0.391,-0.305 -1.196,-0.366 -1.559,-0.21 -0.366,0.156 -0.574,0.312 -0.574,1.247 0,0.938 0.106,2.393 0.208,3.483 0.104,1.094 0.366,2.601 0.776,3.271 0.419,0.681 0.732,0.891 1.305,0.834 0.568,-0.047 1.141,0.105 1.349,-0.467 0.21,-0.568 0.365,-0.99 0.312,-1.459 -0.054,-0.46 -0.103,-0.982 -0.467,-1.189 z m -2.081,-3.119 c 0,-0.362 -0.052,-0.413 0.209,-0.519 0.26,-0.104 0.311,0.259 0.311,0.568 0,0.315 0,0.575 -0.208,0.625 -0.208,0.055 -0.312,-0.309 -0.312,-0.674 z"
   id="path32"
   inkscape:connector-curvature="0"
   style="fill:#004f9f" />
		<path
   d="m 60.994,50.299 c -0.258,-0.932 -0.521,-2.022 -0.57,-2.545 -0.052,-0.522 -0.052,-1.142 -1.094,-1.197 -1.039,-0.051 -1.402,0 -1.768,0.521 -0.297,0.427 -0.517,1.092 -0.517,1.664 0,0.571 0,1.264 0.411,1.196 0.626,-0.103 0.574,-0.415 0.68,-0.884 0.106,-0.469 0.153,-0.679 0.518,-0.625 0.367,0.053 0.729,0.365 0.623,0.728 -0.098,0.366 -0.729,0.935 -1.245,1.454 -0.519,0.521 -0.731,1.354 -0.574,2.344 0.159,0.982 0.522,2.179 1.563,1.92 1.037,-0.257 1.192,-0.521 1.715,-0.467 0.518,0.051 0.727,0.26 0.936,0 0.207,-0.262 0.152,-0.262 0.1,-0.834 -0.047,-0.569 -0.518,-2.338 -0.778,-3.275 z m -1.609,2.76 c -0.312,0 -0.418,-0.314 -0.205,-1.094 0.205,-0.779 0.723,-1.038 0.67,0.057 0.105,0.667 -0.155,1.037 -0.465,1.037 z"
   id="path34"
   inkscape:connector-curvature="0"
   style="fill:#004f9f" />
		<path
   d="m 75.496,50.715 c -0.521,-0.154 -0.506,0.51 -0.627,0.938 -0.156,0.572 -0.584,1.149 -1.295,-0.207 -0.575,-1.087 -0.885,-2.287 -0.941,-3.74 -0.053,-1.561 0.314,-2.183 0.68,-2.183 0.364,0 0.364,0.159 0.519,0.519 0.157,0.364 0.226,0.939 0.681,0.833 0.672,-0.157 0.622,-0.729 0.309,-1.82 -0.309,-1.091 -0.938,-1.872 -1.819,-1.819 -0.882,0.052 -1.974,0.778 -1.922,3.532 0.054,2.758 0.599,4.532 1.353,5.978 0.678,1.3 1.146,2.391 2.133,2.444 0.983,0.053 1.611,-1.197 1.611,-2.444 -0.004,-1.248 -0.16,-1.873 -0.682,-2.031 z"
   id="path36"
   inkscape:connector-curvature="0"
   style="fill:#004f9f" />
		<path
   d="m 55.957,48.898 c -0.262,-0.935 -0.262,-1.145 -1.091,-1.091 -0.835,0.05 -1.2,0.05 -1.2,0.05 0,0 -0.258,-1.61 -0.414,-2.336 -0.158,-0.729 -0.367,-1.091 -0.886,-1.044 -0.517,0.055 -0.777,0.522 -0.622,1.46 0.154,0.936 0.675,2.389 0.938,4.208 0.26,1.819 0.57,3.897 0.67,4.575 0.106,0.673 0.16,1.66 0.941,1.349 0.779,-0.311 0.723,-1.035 0.621,-1.873 -0.215,-1.713 -0.362,-2.23 -0.676,-3.166 -0.312,-0.938 -0.207,-1.609 0.104,-1.716 0.312,-0.105 0.671,0.366 0.781,1.194 0.104,0.832 0.104,2.341 0.31,3.17 0.209,0.837 0.522,2.081 1.248,1.819 0.729,-0.257 0.674,-0.257 0.26,-2.079 -0.418,-1.816 -0.728,-3.582 -0.984,-4.52 z"
   id="path38"
   inkscape:connector-curvature="0"
   style="fill:#004f9f" />
		<path
   d="m 51.068,51.807 c -0.205,-1.195 -0.262,-2.34 -0.262,-2.34 0,0 1.145,-0.516 1.043,-1.297 -0.105,-0.779 -1.302,-0.779 -1.456,-1.297 -0.159,-0.518 -0.107,-1.092 -0.418,-1.768 -0.312,-0.675 -0.413,-0.987 -0.677,-0.938 -0.262,0.051 -0.468,0.521 -0.416,0.988 0.051,0.467 0.315,2.286 0.315,2.286 0,0 -0.837,0.415 -0.837,0.834 0,0.778 0.991,0.984 0.991,0.984 0,0 0.153,1.247 0.414,2.964 0.26,1.713 0.209,2.129 0.729,3.065 0.521,0.935 0.676,1.25 1.354,1.25 0.676,0 1.09,-0.05 1.033,-0.365 -0.053,-0.312 -0.723,-1.094 -1.141,-2.185 -0.409,-1.086 -0.465,-0.983 -0.672,-2.181 z"
   id="path40"
   inkscape:connector-curvature="0"
   style="fill:#004f9f" />
	</g>
</g>
<g
   id="g84"
   transform="matrix(37.355585,0,0,37.355585,180.24272,179.9967)"
   inkscape:export-filename="G:\Users\suitedoalex\sites\hertha-bsc-logo-4.png"
   inkscape:export-xdpi="12.849625"
   inkscape:export-ydpi="12.849625">
	<path
   d="m 29.821,17.282 c -6.241,0.38 -10.473,1.589 -10.516,1.599 -0.029,0.271 3.469,3.912 5.374,8.601 1.908,4.702 3.694,11.213 3.715,11.277 l 0.037,0.139 0.137,-0.04 c 0.081,-0.021 7.975,-2.156 13.415,-1.527 l 6.202,1.081 c 2.883,0.599 5.374,1.115 7.821,0.96 1.78,-0.108 4.129,-0.589 6.616,-1.091 3.322,-0.677 7.078,-1.443 10.577,-1.585 6.025,-0.252 8.557,0.994 8.578,1.006 0.21,-0.179 0.32,-6.232 -1.024,-11.207 -1.266,-4.716 -3.189,-7.321 -3.212,-7.347 -0.121,-0.067 -4.932,-1.241 -12.062,-0.461 l -5.996,0.768 -7.466,0.657 C 49.484,20.17 45.924,19.49 42.158,18.773 37.764,17.939 33.219,17.076 29.821,17.282"
   id="path46"
   inkscape:connector-curvature="0"
   style="fill:#004f9f" />
	<g
   id="g52">
		<path
   d="m 28.277,41.55 c 0,0 1.168,5.662 1.424,8.343 0.255,2.684 0,9.743 0,9.743 0,0 5.259,-2.062 8.977,-1.931 3.727,0.13 10.517,2.569 14.875,2.192 4.364,-0.384 7.703,-3.213 15.925,-3.088 8.205,0.129 14.867,2.958 14.867,2.958 0,0 1.15,-6.295 0.769,-10.528 -0.381,-4.233 -1.514,-7.41 -3.447,-8.454 -1.935,-1.042 -5.421,-1.803 -9.004,-1.551 -3.568,0.255 -12.567,2.825 -17.317,2.7 -4.746,-0.125 -9.211,-2.059 -15.639,-2.059 -6.428,0.002 -11.43,1.675 -11.43,1.675"
   id="path48"
   inkscape:connector-curvature="0"
   style="fill:#ffffff" />
		<path
   d="m 85.09,61.15 -1.129,-0.477 c -0.066,-0.027 -6.595,-2.755 -14.5,-2.879 -4.909,-0.081 -8.036,0.945 -10.757,1.842 -1.697,0.558 -3.298,1.086 -5.063,1.239 -0.336,0.028 -0.692,0.044 -1.064,0.044 -2.492,0 -5.409,-0.637 -8.229,-1.256 -2.179,-0.476 -4.235,-0.926 -5.704,-0.973 -0.104,-0.004 -0.207,-0.008 -0.312,-0.008 -3.464,0 -8.223,1.852 -8.271,1.87 l -1.396,0.545 0.055,-1.498 c 0.001,-0.069 0.25,-7.023 0.004,-9.615 -0.249,-2.596 -1.398,-8.182 -1.408,-8.238 l -0.177,-0.853 0.827,-0.278 c 0.211,-0.07 5.228,-1.728 11.741,-1.728 3.667,0 6.749,0.622 9.469,1.168 2.143,0.432 4.169,0.838 6.197,0.894 2.772,0.069 7.086,-0.816 10.889,-1.597 2.604,-0.533 4.854,-0.995 6.335,-1.101 3.442,-0.242 7.254,0.435 9.539,1.668 2.716,1.464 3.653,5.827 3.96,9.229 0.392,4.319 -0.734,10.531 -0.781,10.792 z M 38.332,56.715 c 0.129,0 0.254,0.004 0.38,0.008 1.647,0.058 3.791,0.526 6.057,1.021 2.717,0.597 5.528,1.212 7.808,1.212 0.313,0 0.614,-0.016 0.892,-0.037 1.542,-0.138 2.967,-0.607 4.619,-1.153 2.726,-0.897 6.145,-2.016 11.405,-1.939 6.381,0.1 11.788,1.769 14.075,2.592 0.303,-1.995 0.835,-6.111 0.566,-9.091 -0.367,-4.07 -1.437,-6.864 -2.936,-7.675 -1.946,-1.052 -5.423,-1.652 -8.467,-1.437 -1.349,0.095 -3.646,0.569 -6.078,1.067 -3.908,0.801 -8.357,1.718 -11.336,1.634 -2.197,-0.058 -4.301,-0.481 -6.532,-0.933 -2.758,-0.554 -5.611,-1.128 -9.081,-1.128 -4.699,0 -8.636,0.928 -10.286,1.383 0.34,1.713 1.062,5.475 1.261,7.561 0.19,1.991 0.11,6.2 0.049,8.426 1.786,-0.593 4.96,-1.511 7.604,-1.511 z"
   id="path50"
   inkscape:connector-curvature="0"
   style="fill:#ffffff" />
	</g>
	<path
   d="m 17.729,16.247 c 0,0 7.908,-2.181 14.864,-1.497 6.947,0.682 13.969,2.832 19.491,2.997 2.997,0.094 11.041,-1.768 15.539,-1.633 4.501,0.133 9.542,0.268 10.5,0.68 0.951,0.409 1.771,0.818 2.451,2.183 0.681,1.36 1.772,4.087 2.591,7.358 0.814,3.276 1.229,5.318 1.229,7.364 0,2.041 -0.412,5.316 -0.412,5.316 0,0 4.364,3.404 4.093,11.042 -0.273,7.631 -1.775,14.037 -1.775,14.037 0,0 -6.527,-5.145 -15.945,-4.768 -11.026,0.442 -10.9,3.268 -17.039,3.268 -5.46,0 -10.089,-2.448 -14.453,-2.177 -3.658,0.227 -7.501,0.741 -9.937,2.59 1.053,4.113 1.91,7.462 2.396,9.375 4.858,1.354 8.512,1.493 8.512,6.88 0,5.726 -2.743,4.188 -2.604,-0.037 0.097,-3.088 -2.147,-3.18 -5.158,-3.868 1,3.868 1.295,4.5 2.02,7.145 0.82,2.996 0.138,2.724 -0.541,2.865 -0.686,0.133 -1.23,-0.41 -1.637,-1.636 -0.094,-0.289 -1.042,-3.815 -2.455,-9.1 -3.188,-1.032 -5.924,-2.39 -6.406,-5.904 -0.466,-3.351 1.926,-5.141 2.99,-6.933 -4.275,-16.098 -9.548,-36.027 -10.954,-41.332 -0.726,-0.124 -1.407,-0.097 -2.128,-0.528 -1.305,-0.792 -1.812,-3.626 1.092,-4.64 3.297,-1.146 3.676,0.953 3.676,0.953 m 9.238,49.02 c -1.428,2.306 -1.721,4.718 1.654,6.229 z m 0.111,-9.466 c 0.165,-3.695 -0.118,-8.936 -1.856,-14.884 -2.309,-7.93 -4.174,-13.727 -6.394,-17.24 1.685,6.563 5.278,20.544 8.25,32.124 M 28.277,41.55 c 0,0 1.168,5.662 1.424,8.343 0.255,2.684 0,9.743 0,9.743 0,0 5.259,-2.062 8.977,-1.931 3.727,0.124 10.517,2.569 14.875,2.188 4.364,-0.38 7.703,-3.209 15.925,-3.086 8.207,0.129 14.867,2.958 14.867,2.958 0,0 1.15,-6.293 0.769,-10.527 -0.382,-4.233 -1.514,-7.41 -3.447,-8.45 -1.935,-1.046 -5.421,-1.807 -9.004,-1.556 -3.571,0.253 -12.567,2.825 -17.317,2.701 -4.746,-0.125 -9.211,-2.059 -15.639,-2.059 -6.428,10e-4 -11.43,1.676 -11.43,1.676 m 0.255,-2.829 c 0,0 7.936,-2.169 13.465,-1.529 5.537,0.636 9.917,2.295 14.007,2.042 4.088,-0.251 11.02,-2.426 17.192,-2.682 6.147,-0.255 8.469,0.897 8.469,0.897 0,0 0.305,-5.908 -1.046,-10.918 -1.271,-4.744 -3.19,-7.296 -3.19,-7.296 0,0 -4.743,-1.195 -11.938,-0.409 -7.192,0.792 -7.957,1.3 -13.473,1.429 -5.508,0.124 -15.896,-3.214 -22.191,-2.827 -6.297,0.38 -10.407,1.55 -10.407,1.55 0,0 3.453,3.682 5.387,8.449 1.936,4.763 3.725,11.294 3.725,11.294"
   id="path54"
   inkscape:connector-curvature="0"
   style="fill:#1d1d1b" />
	<path
   d="m 69.396,49.03 c -0.545,0.07 -0.958,0 -0.958,1.439 0,1.698 0.208,2.246 0.817,2.246 0.617,0 0.889,-0.819 0.957,-1.913 0.073,-1.088 -0.271,-1.841 -0.816,-1.772 z"
   id="path56"
   inkscape:connector-curvature="0"
   style="fill:none" />
	<path
   d="m 62.039,52.577 c -0.279,1.021 -0.14,1.435 0.27,1.435 0.407,0 0.748,-0.484 0.609,-1.36 0.069,-1.436 -0.609,-1.097 -0.879,-0.075 z"
   id="path58"
   inkscape:connector-curvature="0"
   style="fill:none" />
	<path
   d="m 41.177,47.87 c 0,-0.407 -0.067,-0.881 -0.408,-0.745 -0.342,0.138 -0.274,0.204 -0.274,0.681 0,0.478 0.136,0.956 0.409,0.885 0.273,-0.066 0.273,-0.408 0.273,-0.821 z"
   id="path60"
   inkscape:connector-curvature="0"
   style="fill:none" />
	<path
   d="m 68.233,43.717 c -0.339,-0.137 -0.681,0.068 -0.681,0.068 0,0 -0.16,0.868 -0.132,1.501 0.068,1.501 0.545,1.77 0.545,1.77 0,0 0.544,-0.269 0.544,-1.637 0.004,-1.364 0.072,-1.567 -0.276,-1.702 z"
   id="path62"
   inkscape:connector-curvature="0"
   style="fill:none" />
	<g
   id="g82">
		<path
   d="m 70.144,47.33 c 0,0 0.411,-1.227 0.411,-3.07 0,-1.363 -0.344,-2.45 -1.16,-2.861 -0.77,-0.385 -1.773,0.067 -2.661,0.269 -0.879,0.203 -1.975,0.347 -1.975,0.347 v 1.565 c 0,0 0.956,1.498 1.362,4.225 0.414,2.729 0.957,7.566 0.957,7.566 0,0 1.021,0.271 2.177,0.134 1.163,-0.134 3.771,-0.674 3.346,-4.903 -0.344,-3.339 -2.457,-3.272 -2.457,-3.272 z m -2.177,-0.276 c 0,0 -0.477,-0.269 -0.545,-1.771 -0.029,-0.631 0.133,-1.5 0.133,-1.5 0,0 0.34,-0.203 0.679,-0.068 0.35,0.136 0.28,0.338 0.28,1.701 -10e-4,1.369 -0.547,1.638 -0.547,1.638 z m 2.245,3.748 c -0.068,1.094 -0.34,1.913 -0.957,1.913 -0.609,0 -0.817,-0.548 -0.817,-2.247 0,-1.439 0.413,-1.369 0.958,-1.439 0.545,-0.069 0.889,0.685 0.816,1.773 z"
   id="path64"
   inkscape:connector-curvature="0"
   style="fill:#004f9f" />
		<path
   d="m 73.349,44.336 c -0.134,-0.688 0.199,-0.894 0.75,-0.894 0.541,0 0.41,0.684 0.746,1.09 0.348,0.409 0.212,0.885 0.822,0.751 0.611,-0.137 0.611,-0.751 0.611,-1.567 0,-0.82 -0.684,-2.386 -2.18,-2.386 -1.498,0 -2.915,0.67 -2.726,2.656 0.208,2.181 0.647,2.766 1.565,3.883 1.229,1.504 2.385,2.598 2.997,3.816 0.622,1.23 0.343,1.98 -0.132,1.911 -0.744,-0.106 -0.747,-0.342 -0.887,-0.949 -0.239,-1.078 -0.819,-1.229 -1.23,-1.094 -0.404,0.132 -0.876,0.741 -0.609,1.902 0.338,1.502 0.748,2.25 2.312,2.323 2.046,0.088 3.066,-1.027 2.934,-2.931 -0.138,-1.913 -1.363,-3.205 -2.793,-4.91 -1.43,-1.697 -1.991,-2.673 -2.18,-3.601 z"
   id="path66"
   inkscape:connector-curvature="0"
   style="fill:#004f9f" />
		<path
   d="m 36.609,42.965 c -0.274,-1.155 0,-1.634 -1.089,-1.499 -0.838,0.106 -1.432,0.202 -1.228,1.156 0.202,0.958 0.338,1.568 0.338,2.254 0,0.681 0.135,1.427 -0.612,1.427 -0.749,0 -0.955,0.481 -1.228,-1.019 -0.273,-1.501 -0.273,-1.774 -0.409,-2.388 -0.135,-0.611 -0.268,-0.952 -1.089,-0.75 -0.82,0.204 -1.294,0.204 -1.225,1.365 0.065,1.16 0.34,3.477 0.88,5.997 0.55,2.525 1.025,5.178 1.432,6.271 0.409,1.092 0.617,1.157 1.23,1.021 0.614,-0.139 1.09,0 0.815,-1.366 -0.273,-1.365 -0.61,-3.542 -0.879,-4.636 -0.276,-1.086 -0.548,-2.312 0.407,-2.518 0.954,-0.208 1.292,-0.208 1.567,0.887 0.274,1.09 0.752,4.497 1.021,5.383 0.269,0.886 0.269,1.774 1.425,1.503 1.166,-0.275 0.96,-0.275 0.687,-1.777 -0.273,-1.498 -1.771,-10.15 -2.043,-11.311 z"
   id="path68"
   inkscape:connector-curvature="0"
   style="fill:#004f9f" />
		<path
   d="m 47.447,46.645 c 0.124,-0.603 -0.203,-1.425 -0.684,-1.425 -0.478,0 -0.819,0.679 -1.43,0.742 -0.614,0.07 -0.816,-0.68 -1.292,-0.479 -0.481,0.208 -0.889,0.755 -0.686,1.569 0.204,0.816 0.344,1.365 0.613,2.526 0.273,1.156 0.481,2.659 0.75,3.812 0.277,1.159 0.463,2.267 0.953,2.866 0.684,0.814 1.433,0.951 1.5,-0.068 0.076,-1.104 -0.132,-1.639 -0.474,-2.662 -0.342,-1.021 -0.889,-1.906 -1.093,-3.408 -0.204,-1.496 -0.135,-2.25 0.338,-2.316 0.482,-0.066 0.886,0.205 0.886,0.75 0,0.544 -0.133,1.98 0.413,1.836 0.544,-0.132 1.385,-0.073 0.677,-1.292 -0.471,-0.813 -0.747,-1.087 -0.471,-2.451 z"
   id="path70"
   inkscape:connector-curvature="0"
   style="fill:#004f9f" />
		<path
   d="m 43.224,51.896 c -0.477,-0.274 -0.687,-0.209 -0.821,0.472 -0.13,0.688 0,1.367 -0.548,1.367 -0.54,0 -0.883,-0.343 -1.02,-1.159 -0.136,-0.819 0.072,-1.228 0.48,-1.361 0.412,-0.136 1.298,0.205 1.362,-0.823 0.071,-1.016 0.275,-1.903 -0.138,-3.403 -0.406,-1.504 -0.474,-1.842 -1.086,-2.318 -0.513,-0.4 -1.568,-0.48 -2.044,-0.275 -0.48,0.205 -0.752,0.409 -0.752,1.636 0,1.23 0.139,3.139 0.272,4.567 0.137,1.435 0.48,3.411 1.018,4.29 0.549,0.893 0.96,1.168 1.712,1.094 0.745,-0.062 1.496,0.138 1.769,-0.612 0.276,-0.746 0.479,-1.299 0.409,-1.914 -0.071,-0.606 -0.136,-1.29 -0.613,-1.561 z m -2.729,-4.091 c 0,-0.475 -0.068,-0.542 0.274,-0.681 0.341,-0.136 0.408,0.339 0.408,0.745 0,0.413 0,0.754 -0.273,0.82 -0.273,0.072 -0.409,-0.406 -0.409,-0.884 z"
   id="path72"
   inkscape:connector-curvature="0"
   style="fill:#004f9f" />
		<path
   d="m 64.419,50.392 c -0.338,-1.222 -0.684,-2.651 -0.748,-3.337 -0.067,-0.685 -0.067,-1.498 -1.435,-1.569 -1.362,-0.067 -1.839,0 -2.318,0.683 -0.389,0.56 -0.677,1.432 -0.677,2.182 0,0.749 0,1.658 0.539,1.568 0.82,-0.135 0.753,-0.544 0.892,-1.159 0.14,-0.615 0.201,-0.891 0.679,-0.819 0.481,0.069 0.956,0.478 0.816,0.955 -0.128,0.48 -0.955,1.226 -1.633,1.907 -0.68,0.683 -0.959,1.775 -0.753,3.073 0.209,1.289 0.686,2.857 2.051,2.519 1.36,-0.337 1.563,-0.684 2.249,-0.612 0.679,0.066 0.953,0.341 1.227,0 0.271,-0.344 0.2,-0.344 0.131,-1.094 -0.062,-0.749 -0.679,-3.068 -1.02,-4.297 z m -2.11,3.62 c -0.409,0 -0.549,-0.413 -0.27,-1.435 0.27,-1.022 0.948,-1.361 0.879,0.074 0.139,0.876 -0.202,1.361 -0.609,1.361 z"
   id="path74"
   inkscape:connector-curvature="0"
   style="fill:#004f9f" />
		<path
   d="m 83.438,50.938 c -0.685,-0.202 -0.664,0.669 -0.822,1.229 -0.205,0.75 -0.767,1.508 -1.698,-0.271 -0.755,-1.426 -1.161,-3 -1.235,-4.905 -0.068,-2.047 0.413,-2.863 0.892,-2.863 0.478,0 0.478,0.209 0.681,0.681 0.206,0.478 0.295,1.231 0.893,1.093 0.881,-0.207 0.815,-0.956 0.404,-2.387 -0.404,-1.431 -1.229,-2.455 -2.386,-2.386 -1.157,0.068 -2.589,1.021 -2.521,4.632 0.07,3.617 0.785,5.943 1.773,7.841 0.889,1.704 1.503,3.135 2.797,3.205 1.29,0.069 2.113,-1.57 2.113,-3.205 -0.002,-1.637 -0.207,-2.457 -0.891,-2.664 z"
   id="path76"
   inkscape:connector-curvature="0"
   style="fill:#004f9f" />
		<path
   d="m 57.812,48.555 c -0.343,-1.227 -0.343,-1.502 -1.431,-1.431 -1.095,0.065 -1.573,0.065 -1.573,0.065 0,0 -0.339,-2.111 -0.543,-3.063 -0.208,-0.956 -0.482,-1.431 -1.162,-1.369 -0.678,0.072 -1.02,0.685 -0.815,1.915 0.202,1.228 0.885,3.133 1.229,5.519 0.34,2.385 0.748,5.111 0.878,6 0.14,0.883 0.21,2.178 1.235,1.77 1.021,-0.408 0.947,-1.358 0.814,-2.457 -0.282,-2.246 -0.476,-2.925 -0.887,-4.152 -0.41,-1.23 -0.271,-2.11 0.137,-2.25 0.409,-0.138 0.88,0.48 1.025,1.566 0.137,1.091 0.137,3.069 0.405,4.157 0.274,1.098 0.686,2.729 1.637,2.386 0.957,-0.337 0.884,-0.337 0.341,-2.727 -0.546,-2.383 -0.954,-4.699 -1.29,-5.929 z"
   id="path78"
   inkscape:connector-curvature="0"
   style="fill:#004f9f" />
		<path
   d="m 51.401,52.369 c -0.269,-1.567 -0.343,-3.068 -0.343,-3.068 0,0 1.501,-0.676 1.367,-1.701 -0.138,-1.021 -1.707,-1.021 -1.909,-1.701 -0.208,-0.679 -0.14,-1.432 -0.548,-2.319 -0.409,-0.885 -0.542,-1.294 -0.888,-1.23 -0.343,0.066 -0.613,0.683 -0.545,1.295 0.067,0.613 0.414,2.998 0.414,2.998 0,0 -1.098,0.544 -1.098,1.094 0,1.021 1.3,1.291 1.3,1.291 0,0 0.201,1.635 0.543,3.887 0.341,2.246 0.274,2.792 0.956,4.021 0.683,1.226 0.887,1.639 1.776,1.639 0.887,0 1.43,-0.065 1.355,-0.479 -0.069,-0.409 -0.948,-1.435 -1.496,-2.865 -0.539,-1.424 -0.612,-1.291 -0.884,-2.862 z"
   id="path80"
   inkscape:connector-curvature="0"
   style="fill:#004f9f" />
	</g>
</g>
</svg>