<?xml version="1.0" encoding="utf-8"?>
<!-- Generator: Adobe Illustrator 16.0.4, SVG Export Plug-In . SVG Version: 6.00 Build 0)  -->
<!DOCTYPE svg PUBLIC "-//W3C//DTD SVG 1.1//EN" "http://www.w3.org/Graphics/SVG/1.1/DTD/svg11.dtd">
<svg version="1.1" id="Ebene_1" xmlns="http://www.w3.org/2000/svg" xmlns:xlink="http://www.w3.org/1999/xlink" x="0px" y="0px"
	 width="100px" height="100px" viewBox="0 0 100 100" enable-background="new 0 0 100 100" xml:space="preserve">
<g>
	<circle fill="#FFFFFF" cx="50" cy="50" r="40"/>
	<g>
		<path fill="#9D9D9C" d="M61.789,65.648c-0.807,0.637-1.176,1.117-1.615,1.434l0.439,1.354c0.809-0.477,1.031-0.955,2.131-1.752
			c6.686-5.256,10.137-13.139,9.184-18.795c-0.297-1.512-0.883-2.707-1.766-3.344c0.369,0.637,0.662,1.354,0.811,2.311
			C71.928,52.59,68.475,60.393,61.789,65.648z"/>
		<path fill="#9D9D9C" d="M31.747,50.994c-0.366-4.299,1.102-7.883,3.307-8.043c0.66-0.078,1.321,0.24,1.908,0.717
			c-0.807-1.193-1.838-1.83-2.864-1.752c-2.203,0.16-3.671,3.824-3.306,8.045c0.294,2.945,1.322,5.494,2.717,6.609
			C32.629,55.217,31.895,53.225,31.747,50.994z"/>
		<path fill="#9D9D9C" d="M43.866,19.299c-2.863,0.637-5.509,1.674-7.933,3.107l1.028,0.955c2.425-1.354,5.067-2.389,7.859-3.027
			c0.881-0.318,1.469-1.113,1.469-2.07c0-0.795-0.44-1.432-1.101-1.83c0.147,0.238,0.147,0.557,0.147,0.795
			C45.337,18.184,44.747,18.98,43.866,19.299z"/>
		<path fill="#9D9D9C" d="M24.108,72.576c3.38,3.982,7.565,7.17,12.34,9.32l3.084-9.32c-0.365-0.158-0.734-0.318-1.101-0.557
			l-2.938,8.84C31.159,78.949,27.266,76.082,24.108,72.576z"/>
		<path fill="#9D9D9C" d="M75.818,26.705c5.143,6.053,8.227,13.857,8.227,22.459c0,13.938-8.227,25.961-20.053,31.537l0.441,1.273
			c12.119-5.416,20.568-17.602,20.568-31.775C84.926,41.121,81.473,32.918,75.818,26.705z"/>
		<path fill="#9D9D9C" d="M67.445,25.512L52.756,39.447v26.918c0,0,0.732,8.203,5.141,16.486c-2.572,0.637-5.584,1.113-8.373,1.113
			l0,0l0,0h-0.074h-0.073l0,0c-2.131,0-4.408-0.316-6.536-0.717c-0.149,0-0.369-0.078-0.515-0.078
			c-0.148,0.24-0.221,0.479-0.369,0.717C44.527,84.521,47.539,85,50.331,85l0,0h0.074h0.07l0,0c2.06,0,4.337-0.238,6.392-0.635
			c0.662-0.16,1.396-0.32,1.984-0.479c-4.48-8.283-5.143-16.488-5.143-16.488V40.484l14.617-13.938
			c0.734,0.637,1.469,1.354,2.129,2.07C69.502,27.502,68.475,26.467,67.445,25.512z"/>
		<path fill="#9D9D9C" d="M22.199,46.299c0,7.246,2.791,13.854,7.346,18.793c-4.042-4.779-6.465-10.99-6.465-17.76
			c0-8.361,3.674-15.768,9.475-20.865l-1.028-0.955C25.798,30.607,22.199,38.016,22.199,46.299z"/>
		<path fill="#9D9D9C" d="M55.105,19.299c-0.146-0.078-0.293-0.158-0.367-0.158c0.221,0.559,0.734,1.035,1.322,1.193
			c2.352,0.479,4.553,1.354,6.609,2.389l0.367-0.316C60.613,20.973,57.971,19.936,55.105,19.299z"/>
		<path fill="#9D9D9C" d="M61.715,41.838l0.074,4.061c0.297-0.238,0.516-0.477,0.881-0.797v-2.229l5.584-4.777l0.072-6.133
			l-0.953,0.875l-0.074,4.223L61.715,41.838z"/>
		<path fill="#9D9D9C" d="M44.014,50.678c-0.514-5.496-2.425-10.193-4.922-12.742c2.057,2.707,3.599,6.928,4.041,11.707
			c0.733,8.602-2.351,15.848-6.905,16.244c-1.615,0.16-3.231-0.637-4.625-2.07c1.615,2.07,3.598,3.266,5.579,3.107
			C41.664,66.523,44.747,59.277,44.014,50.678z"/>
		<path fill="#9D9D9C" d="M61.055,50.359c-1.322,1.033-2.277,1.99-3.305,3.105v2.072c1.469-1.676,2.498-2.789,4.26-4.145
			c1.102-0.875,1.982-0.875,2.645-0.475C63.92,49.643,62.744,49.004,61.055,50.359z"/>
		<path fill="#E4032B" d="M60.688,60.951c-1.176,0.953-1.543,1.193-2.496,1.67l1.541,4.777c0.146-0.076,0.367-0.236,0.441-0.316
			c0.439-0.398,0.809-0.797,1.615-1.434c6.686-5.256,10.139-13.139,9.184-18.793c-0.148-0.957-0.441-1.674-0.811-2.311
			c-1.322-2.15-3.965-2.311-6.832-0.078c-0.293,0.236-0.512,0.396-0.66,0.555c-0.365,0.32-0.584,0.559-0.881,0.799l-0.074-4.064
			l5.584-4.775l0.074-4.223v-1.91l-10.506,9.875V54.5c0.293-0.398,0.59-0.717,0.883-1.035c1.027-1.115,1.982-2.072,3.305-3.105
			c1.689-1.355,2.865-0.639,3.525,0.559c0.221,0.396,0.367,0.953,0.516,1.432C65.535,55.137,63.846,58.48,60.688,60.951z"/>
		<path fill="#E4032B" d="M84.045,49.164c0-8.521-3.084-16.406-8.227-22.459c-4.922-5.812-11.678-9.953-19.391-11.627
			c-0.148,0-0.293-0.078-0.441-0.078c-1.322,0-2.35,0.955-2.35,2.229c0,0.797,0.441,1.436,1.102,1.832
			c0.146,0.08,0.221,0.16,0.367,0.16c2.865,0.637,5.508,1.672,7.932,3.025l-0.367,0.32L49.449,35.068L36.962,23.361l-1.028-0.955
			c2.424-1.434,5.069-2.471,7.933-3.107c0.881-0.318,1.471-1.115,1.471-2.07c0-0.318-0.075-0.557-0.147-0.795
			c-0.368-0.797-1.176-1.355-2.205-1.355c-0.145,0-0.294,0-0.439,0.08C26.825,18.424,15,32.361,15,49.164
			c0,9.08,3.453,17.281,9.108,23.492c3.157,3.506,7.051,6.369,11.459,8.283l2.937-8.84l0.147-0.479
			c-3.451-1.512-6.537-3.744-9.035-6.529c-4.554-4.939-7.344-11.547-7.344-18.793c0-8.283,3.672-15.691,9.401-20.787l1.028,0.955
			l13.661,12.98v26.918c0,0-0.733,8.203-5.141,16.486c0.441,0.078,0.882,0.156,1.248,0.318c0.148,0,0.369,0.078,0.514,0.078
			c2.132,0.4,4.408,0.717,6.539,0.717l0,0h0.072h0.073l0,0l0,0c2.794,0,5.804-0.477,8.374-1.113
			c-4.48-8.283-5.141-16.486-5.141-16.486V39.447L67.52,25.512c1.1,0.955,2.055,1.99,3.012,3.105
			c3.965,4.779,6.389,10.91,6.389,17.682c0,11.307-6.758,21.023-16.451,25.242l3.082,9.318c0.15-0.08,0.295-0.158,0.516-0.238
			C75.818,75.125,84.045,63.102,84.045,49.164z"/>
		<path fill="#E4032B" d="M43.061,49.643c-0.441-4.859-1.985-9-4.043-11.707c-1.614-2.072-3.598-3.266-5.579-3.107
			c-4.483,0.4-7.566,7.646-6.833,16.246c0.514,5.496,2.424,10.195,4.921,12.742c1.396,1.434,3.012,2.23,4.629,2.07
			C40.782,65.49,43.793,58.244,43.061,49.643z M35.493,57.289c-0.661,0.078-1.321-0.24-1.909-0.719
			c-1.396-1.193-2.498-3.664-2.718-6.609c-0.439-4.301,1.028-7.885,3.231-8.123c1.026-0.082,2.058,0.557,2.864,1.754
			c0.954,1.352,1.615,3.344,1.836,5.572C39.167,53.545,37.696,57.129,35.493,57.289z"/>
	</g>
</g>
</svg>
