<?xml version="1.0" encoding="UTF-8"?>
<svg xmlns="http://www.w3.org/2000/svg" xmlns:xlink="http://www.w3.org/1999/xlink" width="595.4pt" height="595pt" viewBox="0 0 595.4 595" version="1.1">
<defs>
<clipPath id="clip1">
  <path d="M 0 0 L 595.398438 0 L 595.398438 595 L 0 595 Z M 0 0 "/>
</clipPath>
</defs>
<g id="surface1">
<g clip-path="url(#clip1)" clip-rule="nonzero">
<path style=" stroke:none;fill-rule:evenodd;fill:rgb(100%,100%,100%);fill-opacity:1;" d="M 0.109375 595 L 595.382813 595 L 595.382813 0 L 0.109375 0 Z M 0.109375 595 "/>
<path style="fill:none;stroke-width:2.16;stroke-linecap:butt;stroke-linejoin:miter;stroke:rgb(100%,100%,100%);stroke-opacity:1;stroke-miterlimit:4;" d="M 1.09375 -2.070313 L 5953.828125 -2.070313 L 5953.828125 5950 L 1.09375 5950 Z M 1.09375 -2.070313 " transform="matrix(0.1,0,0,-0.1,0,595)"/>
</g>
<path style=" stroke:none;fill-rule:evenodd;fill:rgb(0%,0%,0%);fill-opacity:1;" d="M 172.210938 420.136719 C 192.546875 414.160156 200.117188 405.757813 202.070313 393.105469 C 202.863281 398.546875 204.425781 403.964844 207.019531 409.351563 C 215.503906 427 232.503906 436.332031 248.527344 445.992188 C 265.851563 456.4375 281.367188 466.742188 294.816406 481.664063 C 259.457031 481 188.25 468.929688 176.496094 463.285156 L 181.425781 452.945313 C 187.160156 440.921875 167.316406 434.578125 138.898438 435.457031 C 127.507813 427.441406 120.15625 425.367188 110.558594 431.589844 C 105.851563 430.472656 101.800781 428.707031 98.402344 426.28125 L 107.339844 399.996094 C 89.753906 385.472656 64.144531 378.441406 58.316406 394.222656 L 43.566406 434.136719 C 34.125 459.699219 73.59375 476.929688 94.9375 484.925781 L 92.667969 491.542969 C 90.242188 498.621094 92.703125 506.558594 100.554688 511.007813 C 143.359375 535.257813 227.933594 552.753906 297.746094 552.753906 C 367.558594 552.753906 452.132813 535.257813 494.933594 511.007813 C 502.789063 506.558594 505.25 498.621094 502.824219 491.542969 L 500.554688 484.925781 C 521.898438 476.929688 561.367188 459.699219 551.921875 434.136719 L 537.175781 394.222656 C 531.347656 378.441406 505.738281 385.472656 488.152344 399.996094 L 497.089844 426.28125 C 493.691406 428.707031 489.640625 430.472656 484.929688 431.589844 C 475.335938 425.367188 467.984375 427.441406 456.59375 435.457031 C 428.175781 434.578125 408.332031 440.921875 414.066406 452.945313 L 418.996094 463.285156 C 407.242188 468.925781 336.042969 481 300.679688 481.664063 C 314.128906 466.742188 329.644531 456.4375 346.972656 445.992188 C 362.996094 436.332031 379.992188 427 388.480469 409.351563 C 391.070313 403.96875 392.628906 398.554688 393.421875 393.121094 C 395.378906 405.761719 402.957031 414.160156 423.285156 420.136719 L 423.289063 420.136719 C 423.296875 420.136719 423.304688 420.140625 423.3125 420.140625 C 423.859375 420.273438 424.425781 420.375 425.003906 420.453125 C 428.109375 420.875 431.660156 420.539063 435.195313 419.644531 C 446.40625 416.808594 452.417969 410.371094 458.296875 402.039063 L 457.070313 400.828125 C 458.410156 400.160156 459.113281 399.574219 460.085938 398.3125 L 460.074219 398.300781 C 460.777344 397.382813 461.347656 396.328125 461.765625 395.117188 C 462.140625 394.011719 462.398438 392.84375 462.523438 391.605469 C 463.6875 390.457031 464.464844 389.058594 464.847656 387.371094 C 465.15625 386.019531 465.167969 384.53125 464.894531 382.882813 C 465.089844 382.550781 465.273438 382.203125 465.441406 381.828125 L 465.445313 381.832031 C 466.132813 380.277344 466.761719 377.839844 466.613281 375.109375 L 466.609375 375.109375 C 466.589844 374.753906 466.523438 374.21875 466.40625 373.488281 C 466.304688 372.855469 466.183594 372.28125 466.046875 371.78125 L 465.992188 371.621094 L 466 371.621094 C 466.003906 371.628906 466.007813 371.628906 466.003906 371.621094 L 465.890625 371.25 C 466.515625 370.300781 467.039063 369.238281 467.28125 368.167969 L 467.28125 368.148438 C 467.414063 367.574219 467.484375 367.035156 467.476563 366.542969 C 467.472656 366.183594 467.433594 365.816406 467.359375 365.453125 L 473.75 361.144531 C 470.425781 357.351563 468.480469 354.921875 466.089844 350.457031 L 470.996094 341.804688 L 464.777344 337.210938 C 469.058594 334.90625 479.289063 334.09375 483.148438 334.582031 C 495.050781 336.082031 497.226563 347.660156 493.503906 358.527344 C 490.648438 366.855469 490.898438 369.839844 490.929688 378.441406 C 497.070313 374.480469 500.050781 371.078125 505.535156 366.257813 L 507.625 369.476563 C 512.011719 364.148438 511.785156 359.730469 512.972656 352.644531 L 516.007813 354.929688 C 516.664063 347.433594 515.726563 344.710938 513.054688 337.464844 L 515.589844 336.617188 C 512.90625 329.078125 508.652344 324.378906 501.277344 320.21875 C 503.832031 317.066406 506.875 312.957031 508.261719 309.238281 C 505.785156 307.460938 502.015625 307.140625 498.976563 306.347656 C 503.167969 299.371094 504.566406 296.128906 504.21875 282.5 L 502.320313 283.984375 C 502.667969 277.644531 502.296875 275.777344 500.300781 270.339844 L 498.890625 272.734375 C 496.410156 266.605469 494.878906 263.578125 491.183594 259.25 L 490.835938 262.03125 C 488.441406 258.234375 485.519531 255.023438 480.136719 250.472656 C 480.566406 257.621094 483.972656 273.855469 481.421875 288.230469 C 479.242188 300.523438 472.214844 311.464844 460.632813 314.210938 L 460.667969 308.011719 L 454.335938 301.734375 L 457.1875 293.171875 L 450.3125 284.695313 L 453.207031 273.242188 C 448.503906 269.703125 444.785156 266.058594 440.828125 261.832031 C 442.9375 260.3125 444.535156 258.148438 445.648438 255.792969 C 448.234375 250.316406 450.472656 247.214844 456.027344 243.242188 C 459.597656 240.683594 463.21875 238.09375 466.113281 234.238281 C 470.664063 228.183594 469.800781 226.3125 468.800781 223.261719 L 475.902344 224.757813 L 473.582031 220.152344 L 470.785156 212.839844 L 478.566406 211.996094 L 473.59375 205.808594 C 473.3125 205.605469 479.382813 204.695313 478.972656 204.292969 L 471.023438 197.578125 L 479.175781 199.03125 L 472.75 191.335938 L 478.53125 190.472656 L 466.949219 184.011719 L 471.132813 175.976563 L 465.53125 178.507813 L 468.335938 174.34375 L 463.203125 174.890625 L 465.121094 168.890625 L 461.355469 170.503906 L 463.835938 164.863281 L 459.75 166.6875 C 460.640625 164.792969 461.660156 161.972656 461.890625 159.855469 L 455.847656 163.078125 C 455.285156 159.964844 455.894531 158.3125 455.25 152.304688 L 449.871094 158.726563 L 447.605469 151.367188 L 444.289063 155.453125 C 442.484375 149.886719 440.253906 150.390625 437.519531 148.84375 C 436.898438 153.546875 435.644531 157.371094 433.796875 158.777344 C 431.535156 154.53125 429.574219 150.71875 422.832031 150.140625 C 424.140625 152.988281 424.929688 158.570313 426.128906 161.46875 C 423.527344 159.273438 419.910156 157.710938 416.007813 158.097656 C 419.5 162.300781 421.089844 165.425781 422.472656 169.191406 L 419.207031 171.441406 L 417.941406 172.769531 L 416.195313 175.550781 L 401.5625 191.257813 L 400.722656 193.261719 L 395.613281 197.03125 L 394.710938 205.582031 L 398.015625 209.601563 L 402.851563 210.503906 L 406.09375 208.5625 L 401.277344 213.460938 L 399.519531 211.953125 L 397.761719 212.71875 L 396.269531 216.042969 L 397.449219 218.835938 L 400.472656 219.023438 L 402.792969 218.382813 L 404.925781 216.78125 L 406.730469 214.582031 L 408.546875 212.019531 L 410.308594 210.058594 L 410.515625 211.605469 L 410.734375 212.929688 L 413.171875 213.617188 L 417.378906 206.730469 L 424.152344 204.71875 L 428.613281 207.5625 L 425.496094 211.800781 L 406.925781 222.359375 L 395.390625 232.84375 L 394.648438 233.933594 L 389.320313 245.671875 L 381.707031 229.167969 L 380.011719 226.550781 L 370.917969 222.515625 L 362.277344 225.492188 L 361.359375 225.972656 L 345.613281 236.367188 C 345.425781 235.9375 345.164063 235.535156 344.824219 235.171875 L 337.25 227.15625 C 335.316406 225.121094 331.59375 225.125 328.96875 227.164063 L 328.335938 227.652344 C 327.007813 228.6875 326.203125 230.050781 325.988281 231.410156 L 321.96875 227.160156 C 321.4375 226.597656 320.769531 226.195313 320.027344 225.945313 L 318.472656 218.550781 L 317.351563 218.550781 L 315.703125 210.71875 L 313.464844 207.328125 L 311.398438 180.605469 L 311.804688 180.605469 C 312.96875 180.605469 313.929688 179.457031 313.929688 178.070313 L 313.929688 177.152344 C 313.929688 176.527344 313.730469 175.949219 313.40625 175.503906 C 313.789063 174.800781 313.941406 173.789063 314.644531 172.8125 C 315.167969 172.082031 317.816406 172.71875 319.355469 171.4375 C 320.695313 170.320313 320.859375 169.054688 321.097656 168.121094 C 321.683594 165.804688 323.570313 166.992188 323.570313 165.027344 L 323.570313 159.796875 L 312.554688 159.796875 C 313.140625 153.65625 314.980469 148.894531 318.535156 147.101563 C 324.261719 144.210938 327 147.09375 326.402344 150.242188 C 325.941406 152.695313 322.789063 155.039063 321.777344 156.679688 C 330.113281 159.675781 336.117188 153.929688 333.828125 147.421875 C 334.117188 147.929688 338.164063 149.835938 341.542969 147.789063 C 343.808594 146.417969 345.179688 144.867188 345.789063 138.496094 C 346.207031 134.148438 347.496094 132.652344 350.175781 129.332031 C 341.535156 126.699219 340.019531 134.09375 336.097656 137.960938 C 334.945313 139.09375 332.863281 138.953125 330.933594 138.859375 C 336.785156 134.835938 335.375 127.167969 331.289063 124.976563 C 329.5 134.140625 320.234375 136.222656 313.464844 139.78125 L 313.625 132.660156 C 317.53125 130.207031 319.78125 128.339844 323.492188 125.601563 L 318.175781 123.164063 L 323.515625 122.800781 L 316.074219 115.390625 L 323.453125 106.886719 L 319.492188 107.660156 L 320.757813 104.296875 L 314.875 106.433594 L 313.5625 101.445313 L 308.253906 103.738281 L 306.027344 97.148438 L 304.59375 100.875 L 303.191406 97.777344 L 300.9375 105.683594 L 296.167969 103.546875 L 295.148438 104.898438 L 294.769531 108.765625 L 292.789063 107.042969 L 291.257813 114.824219 L 291.273438 116.125 L 291.351563 116.515625 L 290.058594 116.90625 L 288.535156 117.808594 L 284.699219 121.363281 L 284.296875 124.960938 L 282.777344 126.273438 L 281.722656 123.394531 L 269.488281 110.925781 L 269.488281 89.34375 C 289.394531 79.082031 311.941406 88.3125 332.074219 91.097656 C 358.363281 94.738281 380.242188 87.445313 400.636719 70.398438 C 376.488281 74.109375 355.46875 76.023438 332.074219 66.507813 C 311.515625 58.140625 294.976563 51.097656 274.25 54.304688 C 274.433594 53.574219 274.53125 52.808594 274.53125 52.019531 C 274.53125 46.789063 270.261719 42.519531 265.03125 42.519531 C 259.796875 42.519531 255.527344 46.789063 255.527344 52.019531 C 255.527344 55.644531 257.574219 58.808594 260.570313 60.410156 L 260.570313 103.921875 L 256.5 105.011719 L 256.640625 114.890625 L 260.570313 118.886719 L 260.570313 145.691406 L 256.113281 154.300781 L 260.570313 152.332031 L 260.570313 226.890625 C 258.574219 225.128906 255.074219 225.21875 252.574219 227.164063 L 251.9375 227.652344 C 249.316406 229.691406 248.746094 233.027344 250.675781 235.0625 L 253.417969 237.960938 L 251.359375 237.339844 L 234.136719 225.972656 L 233.222656 225.492188 L 224.578125 222.515625 L 215.484375 226.550781 L 213.789063 229.167969 L 206.175781 245.671875 L 200.847656 233.933594 L 200.105469 232.84375 L 188.570313 222.359375 L 170 211.800781 L 166.882813 207.5625 L 171.34375 204.71875 L 178.121094 206.730469 L 182.328125 213.617188 L 184.761719 212.933594 L 184.980469 211.605469 L 185.1875 210.058594 L 186.949219 212.019531 L 188.765625 214.582031 L 190.570313 216.785156 L 192.707031 218.382813 L 195.023438 219.023438 L 198.046875 218.835938 L 199.226563 216.042969 L 197.734375 212.71875 L 195.976563 211.953125 L 194.21875 213.460938 L 189.402344 208.5625 L 192.644531 210.503906 L 197.484375 209.601563 L 200.785156 205.582031 L 199.882813 197.03125 L 194.773438 193.261719 L 193.933594 191.257813 L 179.300781 175.550781 L 177.554688 172.769531 L 176.289063 171.441406 L 173.023438 169.191406 C 174.40625 165.425781 175.996094 162.300781 179.492188 158.097656 C 175.585938 157.710938 171.96875 159.273438 169.367188 161.46875 C 170.570313 158.570313 171.355469 152.988281 172.664063 150.140625 C 165.921875 150.71875 163.964844 154.53125 161.699219 158.777344 C 159.851563 157.371094 158.597656 153.546875 157.976563 148.84375 C 155.242188 150.390625 153.011719 149.886719 151.207031 155.453125 L 147.890625 151.367188 L 145.625 158.726563 L 140.25 152.304688 C 139.601563 158.3125 140.210938 159.964844 139.648438 163.078125 L 133.605469 159.855469 C 133.835938 161.972656 134.859375 164.792969 135.75 166.6875 L 131.660156 164.863281 L 134.144531 170.503906 L 130.378906 168.890625 L 132.296875 174.890625 L 127.160156 174.34375 L 129.964844 178.507813 L 124.363281 175.976563 L 128.546875 184.011719 L 116.964844 190.472656 L 122.75 191.335938 L 116.320313 199.03125 L 124.472656 197.578125 L 116.523438 204.292969 C 116.113281 204.695313 122.183594 205.605469 121.90625 205.808594 L 116.929688 211.996094 L 124.710938 212.839844 L 121.914063 220.152344 L 119.59375 224.757813 L 126.695313 223.261719 C 125.699219 226.3125 124.832031 228.183594 129.382813 234.238281 C 132.28125 238.09375 135.898438 240.683594 139.46875 243.242188 C 145.023438 247.214844 147.261719 250.316406 149.847656 255.792969 C 150.960938 258.148438 152.5625 260.3125 154.667969 261.832031 C 150.710938 266.058594 146.992188 269.703125 142.289063 273.242188 L 145.1875 284.695313 L 138.3125 293.171875 L 141.160156 301.738281 L 134.828125 308.011719 L 134.863281 314.210938 C 123.28125 311.464844 116.253906 300.527344 114.074219 288.230469 C 111.523438 273.855469 114.929688 257.621094 115.363281 250.472656 C 109.976563 255.023438 107.054688 258.234375 104.664063 262.035156 L 104.3125 259.25 C 100.621094 263.578125 99.085938 266.605469 96.609375 272.734375 L 95.199219 270.339844 C 93.199219 275.777344 92.828125 277.644531 93.175781 283.984375 L 91.28125 282.5 C 90.929688 296.128906 92.328125 299.375 96.519531 306.347656 C 93.480469 307.140625 89.710938 307.460938 87.234375 309.242188 C 88.621094 312.957031 91.664063 317.066406 94.21875 320.21875 C 86.84375 324.378906 82.589844 329.078125 79.90625 336.621094 L 82.445313 337.464844 C 79.769531 344.710938 78.832031 347.4375 79.492188 354.929688 L 82.523438 352.644531 C 83.710938 359.734375 83.484375 364.148438 87.871094 369.476563 L 89.960938 366.257813 C 95.449219 371.078125 98.425781 374.480469 104.566406 378.441406 C 104.597656 369.839844 104.847656 366.855469 101.992188 358.527344 C 98.269531 347.660156 100.445313 336.082031 112.347656 334.582031 C 116.207031 334.097656 126.4375 334.90625 130.71875 337.210938 L 124.503906 341.804688 L 129.40625 350.457031 C 127.015625 354.921875 125.070313 357.351563 121.75 361.144531 L 128.136719 365.453125 C 128.066406 365.816406 128.023438 366.183594 128.019531 366.542969 C 128.015625 367.035156 128.082031 367.574219 128.214844 368.152344 L 128.214844 368.167969 C 128.460938 369.242188 128.980469 370.300781 129.609375 371.25 L 129.492188 371.621094 C 129.488281 371.628906 129.492188 371.628906 129.496094 371.621094 L 129.503906 371.621094 L 129.449219 371.78125 C 129.3125 372.28125 129.191406 372.855469 129.089844 373.488281 C 128.972656 374.21875 128.90625 374.753906 128.886719 375.113281 C 128.734375 377.839844 129.363281 380.277344 130.050781 381.832031 L 130.058594 381.832031 C 130.222656 382.203125 130.40625 382.550781 130.601563 382.882813 C 130.328125 384.53125 130.34375 386.019531 130.648438 387.375 C 131.03125 389.058594 131.808594 390.457031 132.972656 391.605469 C 133.097656 392.84375 133.355469 394.011719 133.734375 395.117188 C 134.148438 396.328125 134.71875 397.382813 135.425781 398.304688 L 135.414063 398.3125 C 136.382813 399.574219 137.085938 400.160156 138.425781 400.828125 L 137.199219 402.039063 C 143.078125 410.371094 149.089844 416.808594 160.304688 419.644531 C 163.835938 420.539063 167.386719 420.878906 170.492188 420.457031 C 171.070313 420.375 171.636719 420.273438 172.183594 420.140625 C 172.191406 420.140625 172.199219 420.136719 172.207031 420.136719 Z M 281.5625 159.796875 L 271.925781 159.796875 L 271.925781 165.027344 C 271.925781 166.992188 273.816406 165.804688 274.402344 168.121094 C 274.640625 169.054688 274.804688 170.320313 276.144531 171.4375 C 277.683594 172.71875 280.332031 172.082031 280.855469 172.8125 C 281.558594 173.789063 281.714844 174.796875 282.097656 175.503906 C 281.773438 175.949219 281.570313 176.523438 281.570313 177.152344 L 281.570313 178.070313 C 281.570313 179.464844 282.53125 180.605469 283.695313 180.605469 L 284.101563 180.605469 L 282.035156 207.328125 L 279.796875 210.71875 L 278.148438 218.550781 L 277.027344 218.550781 L 275.351563 226.507813 C 273.765625 225.453125 271.5 225.355469 269.488281 226.207031 L 269.488281 154.679688 L 270.554688 153.886719 L 271.929688 156.253906 L 274.480469 154.105469 L 277.011719 156.550781 L 278.949219 152.972656 L 279.265625 156.523438 L 281.789063 153.359375 L 282.128906 156.34375 Z M 269.488281 143.148438 L 269.488281 132.433594 L 272.457031 134.730469 L 271.554688 137.777344 L 278.804688 141.488281 Z M 269.488281 131.890625 L 269.488281 130.207031 L 271.507813 130.671875 Z M 334.328125 242.730469 L 323.714844 253.398438 L 348.667969 256.777344 L 352.378906 247.695313 L 353.402344 247.230469 L 365.945313 238.257813 L 371.566406 239.15625 L 373.121094 243.230469 L 373.457031 245.207031 C 371.214844 243.449219 368.425781 242.570313 365.132813 243.128906 C 364.601563 243.21875 364.042969 243.351563 363.472656 243.527344 L 363.457031 243.527344 C 355.667969 245.949219 351.765625 253.214844 355.875 260.597656 C 352.800781 261.546875 345.515625 263.136719 337.496094 262.636719 C 329.222656 262.125 321.378906 259.414063 319.921875 253.894531 C 322.566406 251.820313 323.550781 248.476563 322.921875 245.210938 C 322.882813 245 322.832031 244.792969 322.777344 244.582031 C 324.410156 244.699219 326.199219 244.195313 327.648438 243.074219 L 328.28125 242.578125 C 329.609375 241.546875 330.414063 240.183594 330.628906 238.820313 Z M 301.59375 240.433594 C 300.96875 241.136719 300.414063 241.894531 299.933594 242.710938 C 299.449219 243.53125 299.035156 244.410156 298.707031 245.335938 L 298.703125 245.332031 L 298.691406 245.355469 L 298.691406 245.386719 C 298.277344 246.570313 297.964844 247.730469 297.746094 248.863281 C 297.53125 247.730469 297.214844 246.570313 296.796875 245.386719 L 296.796875 245.355469 L 296.789063 245.332031 L 296.785156 245.335938 C 296.589844 244.777344 296.355469 244.238281 296.097656 243.71875 C 296.441406 243.53125 296.773438 243.316406 297.089844 243.074219 L 297.722656 242.578125 C 299.050781 241.546875 299.851563 240.183594 300.070313 238.820313 Z M 273.296875 242.824219 C 272.972656 243.597656 272.726563 244.398438 272.570313 245.210938 C 271.9375 248.476563 272.925781 251.820313 275.570313 253.894531 C 274.109375 259.414063 266.265625 262.125 257.996094 262.636719 C 249.976563 263.136719 242.691406 261.546875 239.617188 260.597656 C 243.726563 253.214844 239.820313 245.949219 232.035156 243.527344 L 232.019531 243.527344 C 231.449219 243.351563 230.890625 243.21875 230.359375 243.128906 C 227.070313 242.570313 224.28125 243.445313 222.039063 245.203125 L 222.371094 243.230469 L 223.925781 239.15625 L 229.550781 238.257813 L 242.09375 247.230469 L 243.113281 247.695313 L 246.828125 256.777344 L 271.777344 253.398438 L 262.976563 244.546875 C 264.210938 244.390625 265.464844 243.898438 266.527344 243.074219 L 267.160156 242.578125 C 268.492188 241.546875 269.292969 240.183594 269.507813 238.820313 Z M 202.027344 374.171875 C 201.964844 373.523438 201.902344 372.867188 201.835938 372.203125 L 200.433594 374.296875 C 200.429688 368.515625 198.445313 361.65625 195.652344 356.5 L 195.246094 359.238281 C 194.074219 354.863281 189.953125 348.734375 187.367188 345.308594 L 185.621094 348.609375 C 185.640625 347.308594 183.492188 343.949219 182.621094 342.277344 C 183.667969 340.824219 185.441406 338.171875 186.3125 336.449219 L 187.453125 334.191406 C 187.878906 333.917969 188.273438 333.636719 188.640625 333.339844 L 188.667969 333.3125 L 188.660156 333.304688 C 190.800781 331.558594 195.445313 326.328125 193.320313 323.640625 C 196.355469 321.890625 198.078125 318.828125 199.820313 315.789063 C 200.230469 315.070313 200.492188 314.601563 200.546875 314.515625 L 205.765625 307.714844 L 213.152344 318.972656 L 214.121094 325.546875 C 212.058594 333.964844 209.390625 342.421875 207.03125 350.886719 L 206.941406 350.941406 L 204.765625 352.71875 L 206 354.671875 C 204.273438 361.175781 202.808594 367.679688 202.027344 374.171875 Z M 218.035156 268.964844 L 218.289063 267.472656 C 218.605469 268.105469 218.960938 268.714844 219.347656 269.300781 Z M 381.371094 325.550781 C 383.433594 333.964844 386.105469 342.421875 388.464844 350.886719 L 388.554688 350.941406 L 390.730469 352.722656 L 389.496094 354.671875 C 391.222656 361.171875 392.683594 367.675781 393.464844 374.164063 C 393.527344 373.515625 393.589844 372.863281 393.660156 372.203125 L 395.0625 374.296875 C 395.066406 368.515625 397.050781 361.65625 399.84375 356.5 L 400.25 359.238281 C 401.417969 354.863281 405.542969 348.734375 408.128906 345.308594 L 409.875 348.609375 C 409.851563 347.308594 412.003906 343.949219 412.875 342.277344 C 411.824219 340.824219 410.054688 338.171875 409.183594 336.449219 L 408.042969 334.191406 C 407.617188 333.917969 407.222656 333.636719 406.855469 333.339844 L 406.835938 333.320313 L 406.824219 333.3125 L 406.832031 333.304688 C 404.695313 331.558594 400.046875 326.328125 402.175781 323.640625 C 399.140625 321.890625 397.417969 318.828125 395.675781 315.789063 C 395.261719 315.070313 395.003906 314.601563 394.949219 314.515625 L 389.730469 307.714844 L 382.34375 318.972656 Z M 377.207031 267.46875 C 376.886719 268.101563 376.535156 268.710938 376.144531 269.300781 L 377.460938 268.96875 Z M 443.894531 392.277344 C 438.597656 404.3125 423.164063 396.335938 416.691406 389.507813 C 411.964844 384.519531 409.433594 374.085938 411.5625 367.441406 C 414.84375 363.546875 419.019531 360.089844 423.164063 357.136719 C 425.035156 360.9375 428.707031 363.964844 432.730469 365.109375 C 435.035156 369.683594 447.300781 382.199219 443.894531 392.277344 Z M 151.597656 392.277344 C 148.195313 382.199219 160.460938 369.683594 162.765625 365.109375 C 166.789063 363.964844 170.460938 360.9375 172.328125 357.136719 C 176.472656 360.089844 180.652344 363.546875 183.929688 367.441406 C 186.0625 374.085938 183.53125 384.519531 178.804688 389.507813 C 172.332031 396.335938 156.894531 404.3125 151.597656 392.277344 Z M 151.597656 392.277344 "/>
<path style=" stroke:none;fill-rule:evenodd;fill:rgb(80.076599%,80.076599%,80.076599%);fill-opacity:1;" d="M 281.273438 211.292969 L 314.226563 211.292969 L 315.75 218.550781 L 279.746094 218.550781 Z M 264.730469 52.636719 L 265.324219 52.636719 C 266.730469 52.636719 267.882813 54.011719 267.882813 55.6875 L 267.882813 109.289063 L 262.1875 103.488281 L 262.175781 103.492188 L 262.175781 55.6875 C 262.175781 54.007813 263.324219 52.636719 264.730469 52.636719 Z M 267.882813 127.550781 L 267.882813 143.4375 L 262.175781 144.457031 L 262.175781 118.796875 L 264.207031 117.9375 L 265.597656 118.992188 L 264.304688 122.5625 L 265.71875 127.550781 Z M 267.882813 155.867188 L 267.882813 227.140625 C 267.871094 227.148438 267.863281 227.15625 267.851563 227.164063 L 267.214844 227.652344 C 265.886719 228.6875 265.085938 230.050781 264.867188 231.410156 L 262.175781 228.5625 L 262.175781 151.621094 L 263.292969 151.125 L 262.199219 155.167969 L 267.269531 153.726563 L 267.664063 156.027344 Z M 265.027344 43.820313 C 269.546875 43.820313 273.230469 47.5 273.230469 52.019531 C 273.230469 52.898438 273.085938 53.742188 272.828125 54.535156 C 271.785156 54.71875 270.726563 54.929688 269.660156 55.164063 C 270.273438 54.265625 270.640625 53.1875 270.640625 52.019531 C 270.640625 48.929688 268.117188 46.410156 265.027344 46.410156 C 261.9375 46.410156 259.417969 48.929688 259.417969 52.019531 C 259.417969 53.292969 259.847656 54.464844 260.566406 55.410156 L 260.566406 58.890625 C 258.320313 57.425781 256.828125 54.894531 256.828125 52.019531 C 256.828125 47.5 260.511719 43.820313 265.027344 43.820313 Z M 463.90625 332.253906 C 464.9375 329.101563 465.148438 328.171875 466.109375 324.828125 C 464.269531 324.570313 460.679688 322.445313 459.984375 320.519531 C 463.753906 319.910156 477.074219 316.027344 478.792969 321.027344 C 480.648438 326.394531 465.785156 331.699219 463.90625 332.253906 Z M 154.257813 171.382813 C 154.914063 171.066406 155.839844 171.464844 156.433594 171.042969 C 158.207031 169.796875 159.566406 168.046875 161.132813 166.546875 L 166.75 167.59375 L 175.824219 174.183594 L 177.792969 177.324219 L 192.046875 192.160156 L 193.394531 195.382813 L 197.855469 198.671875 L 198.535156 205.136719 L 196.5625 208.164063 L 192.382813 208.71875 L 184.796875 203.632813 L 182.875 203.78125 L 182.054688 205.820313 L 183.546875 211.335938 L 182.671875 211.582031 L 180.304688 205.574219 L 179.585938 204.414063 L 175.457031 202.441406 L 173.640625 201.476563 L 172.6875 195.929688 L 169.398438 200.550781 L 166.09375 203.4375 L 159.941406 204.015625 L 156.898438 198.667969 L 155.175781 201.742188 L 148.683594 191.273438 L 152.933594 202.136719 L 160.09375 208.363281 L 151.425781 207.273438 L 161.535156 210.210938 L 154.835938 211.828125 L 164.601563 212.046875 L 162.359375 214.742188 L 166.230469 213.367188 L 174.019531 216.96875 L 187.113281 225.359375 L 196.625 235.945313 L 203.574219 250 L 204.488281 253.546875 L 208.042969 260.144531 L 210.851563 269.378906 L 211.773438 278.859375 L 209.890625 288.332031 L 210.058594 273.589844 L 206.925781 266.136719 L 206.148438 276.460938 L 207.511719 283.535156 L 204.371094 283.234375 L 202.101563 274.304688 L 199.460938 264.203125 L 200.363281 283.492188 L 204.261719 290.375 L 212.800781 296.59375 L 222.753906 311.367188 L 224.183594 324.902344 L 224.917969 334.816406 L 226.324219 344.324219 L 224.421875 354.683594 L 224.929688 362.09375 L 220.078125 372.804688 L 217.917969 369.160156 L 221.550781 360.855469 L 216.285156 366.402344 L 214.523438 363.433594 L 219.273438 355.839844 L 212.925781 360.734375 L 211.386719 358.136719 L 217.6875 352.332031 L 210.082031 355.929688 L 208.835938 353.828125 L 216.730469 349.0625 L 216.695313 345.871094 L 217.738281 332.0625 L 215.636719 317.851563 L 208.328125 303.972656 L 199.988281 301.023438 L 194.179688 298.886719 L 190.484375 296.257813 L 187.324219 289.46875 L 183.792969 287.117188 L 179.511719 288.460938 L 175.246094 285.863281 L 171.203125 284.492188 L 181.253906 292.128906 L 186.757813 298.988281 L 192.429688 302.804688 L 202.484375 306.410156 L 199.835938 310.300781 C 186.128906 312.886719 160.582031 307.859375 155.066406 294.027344 L 156.730469 287.117188 C 163.652344 293.066406 170.992188 296.945313 179.339844 295.753906 C 168.574219 293.566406 160.84375 289.980469 158.234375 283.035156 C 157.132813 280.105469 157.882813 276.671875 158.175781 272.332031 L 160.804688 273.097656 L 165.941406 272.65625 L 170.378906 270.636719 L 174.457031 266.570313 L 175.558594 262.269531 L 174.246094 256.679688 L 165.347656 250.410156 L 169.230469 250.410156 L 173.214844 252.546875 L 176.113281 256.171875 L 177.097656 255.550781 L 177.265625 250 L 175.402344 246.542969 L 176.644531 245.90625 L 176.582031 243.464844 L 172.347656 238.136719 L 173.472656 237.21875 L 171.25 234.007813 L 169.816406 232.511719 L 160.355469 228.246094 L 163.214844 226.988281 C 162.703125 226.324219 162.457031 225.296875 161.675781 224.988281 C 158.898438 223.898438 155.878906 223.644531 152.980469 222.976563 C 148.148438 221.855469 145.878906 215.71875 143.652344 211.265625 C 141.714844 207.398438 141.019531 202.945313 140.800781 198.65625 C 140.546875 193.707031 140.789063 188.601563 142.253906 183.898438 C 143.308594 180.503906 145.695313 177.605469 148.144531 175.050781 C 149.789063 173.339844 152.117188 172.417969 154.257813 171.382813 Z M 140.300781 401.03125 C 142.429688 401.566406 146.371094 401.640625 149.65625 398.863281 C 156.882813 404.457031 152.351563 407.058594 150.179688 409.121094 C 152.183594 409.335938 154.234375 408.109375 154.566406 405.972656 C 155.917969 408.636719 158.984375 411.347656 161.285156 411.261719 C 164.007813 411.15625 165.609375 407.027344 162.058594 406.382813 C 155.679688 405.226563 152.847656 400.597656 151.46875 397.328125 C 153.457031 399.03125 156.953125 401.042969 161.746094 402.714844 C 170.285156 405.695313 177.925781 405.683594 176.300781 412.660156 C 174.335938 421.078125 159.4375 418.230469 150.363281 412.199219 C 145.273438 408.820313 142.457031 403.90625 140.300781 401.03125 Z M 148.414063 323.941406 C 146.542969 322.128906 145.425781 319.035156 146.292969 317.105469 L 149.160156 310.71875 C 156.109375 324.492188 173.972656 328.308594 192.441406 323.019531 C 191.511719 324.597656 189.410156 328.953125 187.839844 330.21875 C 183.4375 333.765625 172.585938 335.5 163.699219 333.257813 C 157.226563 331.625 152.097656 327.503906 148.414063 323.941406 Z M 142.429688 327.335938 L 144.476563 323.074219 C 146.101563 323.566406 147.402344 325.703125 148.6875 327.074219 C 153.535156 330.84375 158.480469 333.847656 164.269531 335.101563 C 170.699219 337.355469 178.425781 335.347656 184.304688 334.84375 C 183.226563 336.980469 181.632813 338.859375 180.304688 340.863281 C 169.671875 347.375 155.535156 342.742188 146.25 335.851563 C 144.691406 333.210938 141.511719 331.089844 142.429688 327.335938 Z M 140.949219 343.628906 C 139.410156 341.976563 137.875 339.546875 138.519531 337.976563 L 140.5625 333.003906 C 148.480469 344.109375 160.933594 349.554688 176.089844 346.558594 C 175.324219 347.800781 173.601563 351.273438 172.3125 352.207031 C 168.703125 354.824219 160.328125 354.195313 153.035156 351.648438 C 147.722656 349.796875 143.96875 346.875 140.949219 343.628906 Z M 138.074219 352.996094 C 136.671875 351.496094 135.238281 349.289063 135.726563 347.863281 L 137.277344 343.359375 C 144.617188 353.449219 155.625 358.425781 168.605469 355.75 C 168 356.871094 166.660156 360.015625 165.589844 360.855469 C 162.578125 363.222656 155.304688 362.632813 148.878906 360.300781 C 144.207031 358.605469 140.828125 355.945313 138.074219 352.996094 Z M 135.199219 361.785156 C 133.996094 360.53125 132.753906 358.691406 133.128906 357.511719 L 134.316406 353.765625 C 140.652344 362.179688 149.925781 366.339844 160.667969 364.140625 C 160.1875 365.074219 159.144531 367.6875 158.273438 368.386719 C 155.820313 370.347656 149.753906 369.839844 144.359375 367.886719 C 140.429688 366.46875 137.558594 364.246094 135.199219 361.785156 Z M 133.105469 371.105469 C 132.101563 370.050781 131.082031 368.480469 131.480469 367.410156 L 132.726563 364.019531 C 137.957031 371.167969 146.027344 374.386719 155.734375 371.871094 C 155.257813 372.726563 154.195313 375.101563 153.382813 375.769531 C 151.089844 377.640625 145.699219 377.507813 140.980469 376.054688 C 137.539063 374.992188 135.09375 373.171875 133.105469 371.105469 Z M 139.734375 384.730469 C 136.582031 384.253906 134.015625 383.496094 133.011719 381.214844 C 132.386719 379.800781 131.839844 377.191406 132.652344 374.308594 C 135.160156 378.507813 142.160156 380.863281 152.25 378.574219 C 151.859375 379.519531 150.671875 381.347656 150 382.167969 C 148.109375 384.464844 143.644531 385.320313 139.734375 384.730469 Z M 140.628906 391.351563 C 138.011719 391.164063 136.125 390.640625 135 389.601563 C 133.878906 388.566406 133.511719 387.019531 133.921875 384.777344 C 137.503906 388.53125 143.582031 388.394531 149.050781 385.898438 C 148.902344 386.414063 148.542969 388.792969 148.15625 389.246094 C 147.070313 390.519531 143.726563 391.578125 140.628906 391.351563 Z M 143.625 398.996094 C 141.09375 398.953125 139.0625 398.371094 137.777344 396.699219 C 137.007813 395.695313 136.503906 394.304688 136.324219 392.398438 C 139.851563 395.222656 144.675781 394.253906 148.988281 392.636719 C 149.003906 393.246094 149.332031 396.050781 149.136719 396.609375 C 148.585938 398.175781 146.214844 399.035156 143.625 398.996094 Z M 177.746094 356.273438 C 181.199219 353.628906 181.289063 350.355469 180.882813 344.996094 C 183.597656 350.589844 185.125 355.636719 184.871094 361.398438 C 187.367188 360.953125 187.789063 354.25 187.714844 350.335938 C 191.964844 355.96875 194.289063 364.058594 193.558594 371.078125 C 196.058594 369.671875 197.050781 366.003906 195.722656 360.769531 C 198.503906 365.90625 200.304688 374.410156 198.71875 380.96875 C 200.089844 380.214844 200.636719 378.0625 200.847656 376.5625 C 202.261719 383.953125 201.269531 392.230469 199 397.632813 C 199.421875 387.550781 195.960938 378.433594 190.292969 370.605469 C 185.886719 364.511719 180.144531 359.199219 173.859375 354.816406 C 175.339844 354.105469 176.210938 351.902344 177.28125 350.089844 C 178.335938 352.085938 178.070313 354.21875 177.746094 356.273438 Z M 153.140625 311.925781 C 151.203125 310.046875 150.046875 306.917969 150.945313 305.019531 L 153.921875 298.734375 C 163.175781 309.914063 180.707031 316.136719 198.753906 312.539063 C 197.785156 314.082031 195.605469 318.363281 193.980469 319.570313 C 189.414063 322.960938 178.171875 324.316406 168.964844 321.765625 C 162.261719 319.910156 156.953125 315.609375 153.140625 311.925781 Z M 163.179688 162.441406 C 163.53125 160.261719 166.304688 153.152344 170.394531 152.523438 C 168.035156 157.648438 167.925781 162.550781 167.40625 165.40625 C 165.335938 162.632813 166.6875 158 166.402344 157.308594 C 164.410156 159.523438 164.195313 160.898438 163.179688 162.441406 Z M 168.929688 165.800781 C 169.621094 164.238281 173.132813 159.441406 176.4375 159.773438 C 173.625 163.15625 172.605469 166.808594 171.65625 168.851563 C 170.574219 166.363281 172.507813 163.15625 172.417969 162.578125 C 170.441406 163.851563 170.015625 164.839844 168.929688 165.800781 Z M 160.066406 177.464844 C 161.523438 176.304688 164.085938 176.671875 164.792969 176.957031 C 165.640625 177.304688 165.664063 178.179688 166.945313 178.449219 C 168.589844 178.792969 170.730469 177.078125 172.398438 176.980469 C 174.964844 177.769531 177.789063 182.171875 178.3125 184.820313 C 177.9375 184.6875 177.691406 184.359375 177.226563 184.15625 C 175.863281 184.9375 173.398438 185.453125 171.910156 184.886719 C 169.09375 183.820313 166.871094 181.398438 165.035156 180.015625 C 164.261719 180.015625 162.898438 179.734375 161.785156 179.277344 C 160.640625 178.808594 160.515625 178.394531 160.066406 177.464844 Z M 186.042969 197.398438 L 191.621094 196.175781 L 193.03125 197.117188 L 192.5625 198.558594 L 193.542969 200.503906 L 193.953125 200.113281 L 193.449219 198.386719 L 194.453125 198.117188 L 196.125 199.421875 L 196.394531 203.191406 L 195.464844 203.886719 L 193.125 203.277344 L 191.265625 199.085938 L 191.671875 201.53125 L 191.164063 203.023438 L 188.9375 198.410156 Z M 207.867188 249.820313 L 216.992188 228.273438 L 224.308594 225.027344 L 233.519531 228.585938 L 251.21875 240.273438 L 258.089844 242.972656 L 267.242188 252.167969 L 263.589844 252.652344 L 256.480469 245.648438 L 260.824219 253.015625 L 257.847656 253.410156 L 251.550781 245.648438 L 255.144531 253.769531 L 252.539063 254.109375 L 248.101563 245.648438 L 250.332031 254.402344 L 248.222656 254.679688 L 244.96875 245.148438 L 242.03125 243.8125 L 229.96875 234.210938 L 221.695313 236.230469 L 219.121094 242.976563 L 214.597656 270.453125 L 210.15625 254.46875 Z M 131.585938 332.253906 C 129.710938 331.699219 114.84375 326.394531 116.699219 321.027344 C 118.421875 316.027344 131.742188 319.910156 135.511719 320.519531 C 134.8125 322.445313 131.226563 324.570313 129.386719 324.828125 C 130.34375 328.171875 130.554688 329.101563 131.585938 332.253906 Z M 387.628906 249.820313 L 385.339844 254.46875 L 380.898438 270.453125 L 376.371094 242.976563 L 373.800781 236.230469 L 365.523438 234.210938 L 353.464844 243.8125 L 350.527344 245.148438 L 347.273438 254.679688 L 345.164063 254.402344 L 347.390625 245.648438 L 342.953125 254.109375 L 340.351563 253.769531 L 343.945313 245.648438 L 337.648438 253.410156 L 334.671875 253.015625 L 339.015625 245.648438 L 331.90625 252.652344 L 328.253906 252.167969 L 337.402344 242.972656 L 344.277344 240.273438 L 361.976563 228.585938 L 371.1875 225.027344 L 378.503906 228.273438 Z M 409.449219 197.398438 L 406.558594 198.410156 L 404.332031 203.023438 L 403.824219 201.53125 L 404.230469 199.085938 L 402.371094 203.277344 L 400.027344 203.886719 L 399.097656 203.191406 L 399.371094 199.421875 L 401.042969 198.117188 L 402.046875 198.386719 L 401.539063 200.113281 L 401.953125 200.503906 L 402.933594 198.558594 L 402.460938 197.117188 L 403.875 196.175781 Z M 435.429688 177.464844 C 434.976563 178.394531 434.855469 178.808594 433.710938 179.277344 C 432.597656 179.734375 431.234375 180.015625 430.460938 180.015625 C 428.625 181.398438 426.402344 183.820313 423.585938 184.886719 C 422.09375 185.453125 419.628906 184.9375 418.269531 184.15625 C 417.800781 184.359375 417.558594 184.6875 417.183594 184.820313 C 417.707031 182.171875 420.53125 177.769531 423.09375 176.980469 C 424.765625 177.078125 426.90625 178.792969 428.550781 178.449219 C 429.828125 178.179688 429.855469 177.304688 430.703125 176.957031 C 431.410156 176.671875 433.96875 176.304688 435.429688 177.464844 Z M 426.566406 165.800781 C 425.476563 164.839844 425.050781 163.851563 423.078125 162.578125 C 422.988281 163.15625 424.921875 166.363281 423.839844 168.851563 C 422.890625 166.808594 421.871094 163.15625 419.058594 159.773438 C 422.363281 159.441406 425.875 164.238281 426.566406 165.800781 Z M 432.316406 162.441406 C 431.300781 160.898438 431.085938 159.523438 429.09375 157.308594 C 428.808594 158 430.160156 162.632813 428.089844 165.40625 C 427.566406 162.550781 427.457031 157.648438 425.101563 152.523438 C 429.191406 153.152344 431.964844 160.261719 432.316406 162.441406 Z M 442.355469 311.925781 C 438.542969 315.609375 433.234375 319.910156 426.53125 321.765625 C 417.324219 324.316406 406.082031 322.960938 401.515625 319.570313 C 399.886719 318.363281 397.707031 314.082031 396.742188 312.539063 C 414.789063 316.136719 432.320313 309.914063 441.570313 298.734375 L 444.550781 305.019531 C 445.449219 306.917969 444.289063 310.046875 442.355469 311.925781 Z M 417.75 356.273438 C 417.425781 354.21875 417.160156 352.085938 418.214844 350.089844 C 419.28125 351.902344 420.15625 354.105469 421.636719 354.816406 C 415.351563 359.199219 409.609375 364.511719 405.203125 370.605469 C 399.535156 378.433594 396.074219 387.550781 396.492188 397.632813 C 394.226563 392.230469 393.234375 383.953125 394.648438 376.5625 C 394.859375 378.0625 395.40625 380.214844 396.777344 380.96875 C 395.191406 374.410156 396.992188 365.90625 399.773438 360.769531 C 398.445313 366.003906 399.4375 369.671875 401.933594 371.078125 C 401.203125 364.058594 403.53125 355.96875 407.78125 350.335938 C 407.707031 354.25 408.128906 360.953125 410.625 361.398438 C 410.371094 355.636719 411.898438 350.589844 414.613281 344.996094 C 414.207031 350.355469 414.296875 353.628906 417.75 356.273438 Z M 451.871094 398.996094 C 449.28125 399.035156 446.910156 398.175781 446.359375 396.609375 C 446.164063 396.050781 446.492188 393.246094 446.503906 392.636719 C 450.816406 394.253906 455.644531 395.222656 459.171875 392.398438 C 458.992188 394.304688 458.488281 395.695313 457.71875 396.699219 C 456.433594 398.371094 454.398438 398.953125 451.871094 398.996094 Z M 454.863281 391.351563 C 451.769531 391.578125 448.421875 390.519531 447.339844 389.246094 C 446.953125 388.792969 446.59375 386.414063 446.441406 385.898438 C 451.914063 388.394531 457.992188 388.53125 461.570313 384.777344 C 461.984375 387.019531 461.617188 388.566406 460.492188 389.601563 C 459.367188 390.640625 457.484375 391.164063 454.863281 391.351563 Z M 455.761719 384.730469 C 451.847656 385.320313 447.382813 384.464844 445.496094 382.167969 C 444.824219 381.347656 443.636719 379.519531 443.242188 378.574219 C 453.335938 380.863281 460.332031 378.507813 462.84375 374.308594 C 463.652344 377.191406 463.109375 379.800781 462.484375 381.214844 C 461.480469 383.496094 458.914063 384.253906 455.761719 384.730469 Z M 462.390625 371.105469 C 460.402344 373.171875 457.953125 374.992188 454.515625 376.054688 C 449.796875 377.507813 444.40625 377.640625 442.113281 375.769531 C 441.300781 375.101563 440.238281 372.726563 439.761719 371.871094 C 449.46875 374.386719 457.539063 371.167969 462.769531 364.019531 L 464.015625 367.410156 C 464.414063 368.480469 463.394531 370.050781 462.390625 371.105469 Z M 460.296875 361.785156 C 457.9375 364.246094 455.066406 366.46875 451.136719 367.886719 C 445.738281 369.839844 439.675781 370.347656 437.222656 368.386719 C 436.347656 367.6875 435.308594 365.074219 434.828125 364.140625 C 445.566406 366.339844 454.84375 362.179688 461.179688 353.765625 L 462.367188 357.511719 C 462.742188 358.691406 461.496094 360.53125 460.296875 361.785156 Z M 457.421875 352.996094 C 454.664063 355.945313 451.289063 358.605469 446.613281 360.300781 C 440.191406 362.632813 432.917969 363.222656 429.90625 360.855469 C 428.835938 360.015625 427.496094 356.871094 426.890625 355.75 C 439.871094 358.425781 450.878906 353.449219 458.21875 343.359375 L 459.765625 347.863281 C 460.257813 349.289063 458.824219 351.496094 457.421875 352.996094 Z M 454.546875 343.628906 C 451.527344 346.875 447.773438 349.796875 442.460938 351.648438 C 435.167969 354.195313 426.792969 354.824219 423.179688 352.207031 C 421.894531 351.273438 420.171875 347.800781 419.40625 346.558594 C 434.5625 349.554688 447.011719 344.109375 454.933594 333.003906 L 456.972656 337.976563 C 457.621094 339.546875 456.082031 341.976563 454.546875 343.628906 Z M 453.066406 327.335938 C 453.984375 331.089844 450.804688 333.210938 449.246094 335.851563 C 439.957031 342.742188 425.824219 347.375 415.191406 340.863281 C 413.863281 338.859375 412.269531 336.980469 411.191406 334.84375 C 417.070313 335.347656 424.796875 337.355469 431.226563 335.101563 C 437.015625 333.847656 441.960938 330.84375 446.808594 327.074219 C 448.089844 325.703125 449.390625 323.566406 451.019531 323.074219 Z M 447.078125 323.941406 C 443.398438 327.503906 438.269531 331.625 431.796875 333.257813 C 422.910156 335.5 412.058594 333.765625 407.65625 330.21875 C 406.085938 328.953125 403.984375 324.597656 403.050781 323.019531 C 421.523438 328.308594 439.382813 324.492188 446.335938 310.71875 L 449.203125 317.105469 C 450.070313 319.035156 448.949219 322.128906 447.078125 323.941406 Z M 455.195313 401.03125 C 453.035156 403.90625 450.222656 408.820313 445.132813 412.199219 C 436.058594 418.230469 421.160156 421.078125 419.195313 412.660156 C 417.570313 405.683594 425.210938 405.695313 433.75 402.714844 C 438.542969 401.042969 442.039063 399.03125 444.027344 397.328125 C 442.648438 400.597656 439.8125 405.226563 433.4375 406.382813 C 429.886719 407.027344 431.488281 411.15625 434.210938 411.261719 C 436.511719 411.347656 439.574219 408.636719 440.929688 405.972656 C 441.261719 408.109375 443.3125 409.335938 445.3125 409.121094 C 443.144531 407.058594 438.613281 404.457031 445.839844 398.863281 C 449.125 401.640625 453.0625 401.566406 455.195313 401.03125 Z M 441.234375 171.382813 C 443.378906 172.417969 445.707031 173.339844 447.347656 175.050781 C 449.800781 177.605469 452.183594 180.503906 453.242188 183.898438 C 454.703125 188.601563 454.945313 193.707031 454.695313 198.65625 C 454.476563 202.945313 453.78125 207.398438 451.84375 211.265625 C 449.613281 215.71875 447.347656 221.855469 442.515625 222.976563 C 439.617188 223.644531 436.59375 223.898438 433.820313 224.988281 C 433.039063 225.296875 432.792969 226.324219 432.277344 226.988281 L 435.140625 228.246094 L 425.679688 232.511719 L 424.246094 234.007813 L 422.023438 237.21875 L 423.144531 238.136719 L 418.914063 243.464844 L 418.851563 245.90625 L 420.09375 246.542969 L 418.230469 250 L 418.398438 255.550781 L 419.382813 256.171875 L 422.28125 252.546875 L 426.261719 250.410156 L 430.148438 250.410156 L 421.25 256.679688 L 419.933594 262.269531 L 421.035156 266.570313 L 425.117188 270.636719 L 429.550781 272.65625 L 434.6875 273.097656 L 437.316406 272.332031 C 437.613281 276.671875 438.363281 280.105469 437.261719 283.035156 C 434.648438 289.980469 426.917969 293.566406 416.152344 295.753906 C 424.503906 296.945313 431.84375 293.066406 438.765625 287.117188 L 440.429688 294.027344 C 434.910156 307.859375 409.367188 312.886719 395.660156 310.300781 L 393.011719 306.410156 L 403.066406 302.804688 L 408.734375 298.988281 L 414.238281 292.128906 L 424.292969 284.492188 L 420.25 285.863281 L 415.984375 288.460938 L 411.703125 287.117188 L 408.171875 289.46875 L 405.011719 296.257813 L 401.316406 298.886719 L 395.507813 301.023438 L 387.167969 303.972656 L 379.855469 317.851563 L 377.753906 332.0625 L 378.800781 345.871094 L 378.765625 349.0625 L 386.660156 353.828125 L 385.414063 355.929688 L 377.808594 352.332031 L 384.109375 358.136719 L 382.570313 360.734375 L 376.21875 355.839844 L 380.96875 363.433594 L 379.210938 366.402344 L 373.945313 360.855469 L 377.578125 369.160156 L 375.414063 372.804688 L 370.566406 362.09375 L 371.074219 354.683594 L 369.171875 344.324219 L 370.578125 334.816406 L 371.308594 324.902344 L 372.742188 311.367188 L 382.695313 296.59375 L 391.234375 290.375 L 395.132813 283.492188 L 396.035156 264.203125 L 393.394531 274.304688 L 391.121094 283.234375 L 387.980469 283.535156 L 389.34375 276.460938 L 388.566406 266.136719 L 385.4375 273.589844 L 385.605469 288.332031 L 383.722656 278.859375 L 384.644531 269.378906 L 387.449219 260.144531 L 391.007813 253.546875 L 391.921875 250 L 398.867188 235.945313 L 408.382813 225.359375 L 421.476563 216.96875 L 429.265625 213.367188 L 433.136719 214.742188 L 430.894531 212.046875 L 440.660156 211.828125 L 433.960938 210.210938 L 444.070313 207.273438 L 435.402344 208.363281 L 442.5625 202.136719 L 446.8125 191.273438 L 440.320313 201.742188 L 438.597656 198.667969 L 435.550781 204.015625 L 429.402344 203.4375 L 426.097656 200.550781 L 422.804688 195.929688 L 421.851563 201.476563 L 420.039063 202.441406 L 415.910156 204.414063 L 415.191406 205.574219 L 412.824219 211.582031 L 411.949219 211.335938 L 413.4375 205.820313 L 412.617188 203.78125 L 410.699219 203.632813 L 403.113281 208.71875 L 398.929688 208.164063 L 396.957031 205.136719 L 397.640625 198.671875 L 402.097656 195.382813 L 403.445313 192.160156 L 417.699219 177.324219 L 419.671875 174.183594 L 428.742188 167.59375 L 434.363281 166.546875 C 435.929688 168.046875 437.289063 169.796875 439.0625 171.042969 C 439.65625 171.464844 440.578125 171.066406 441.234375 171.382813 Z M 278.21875 220.121094 L 317.277344 220.121094 L 318.441406 225.640625 C 316.839844 225.554688 315.105469 226.0625 313.691406 227.164063 L 313.054688 227.652344 C 312.632813 227.980469 312.261719 228.339844 311.949219 228.722656 L 308.164063 228.722656 L 306.6875 227.15625 C 304.757813 225.121094 301.035156 225.125 298.410156 227.164063 L 297.773438 227.652344 C 297.355469 227.980469 296.984375 228.339844 296.671875 228.722656 L 292.886719 228.722656 L 291.410156 227.160156 C 289.476563 225.121094 285.753906 225.125 283.128906 227.164063 L 282.496094 227.652344 C 282.074219 227.980469 281.703125 228.339844 281.390625 228.722656 L 277.605469 228.722656 L 276.628906 227.6875 Z M 285.292969 174.570313 C 283.027344 174.570313 283.542969 172.808594 282.273438 171.144531 C 281.75 170.457031 279.105469 171.054688 277.5625 169.847656 C 276.222656 168.792969 276.058594 167.601563 275.820313 166.722656 C 275.234375 164.539063 273.347656 165.65625 273.347656 163.804688 L 273.347656 161.050781 L 283.113281 161.050781 L 283.113281 166.722656 L 292.871094 166.722656 L 292.871094 161.050781 L 302.628906 161.050781 L 302.628906 166.722656 L 312.382813 166.722656 L 312.382813 161.050781 L 322.152344 161.050781 L 322.152344 163.804688 C 322.152344 165.65625 320.261719 164.539063 319.675781 166.722656 C 319.441406 167.601563 319.273438 168.792969 317.933594 169.847656 C 316.394531 171.054688 313.75 170.457031 313.222656 171.144531 C 311.957031 172.808594 312.46875 174.570313 310.207031 174.570313 Z M 285.667969 180.785156 L 309.832031 180.785156 L 311.816406 206.503906 L 283.679688 206.503906 Z M 285.667969 180.785156 "/>
<path style=" stroke:none;fill-rule:evenodd;fill:rgb(100%,100%,100%);fill-opacity:1;" d="M 411.503906 206.898438 L 409.011719 209.015625 L 405.546875 213.765625 L 402.660156 216.367188 L 400.304688 217.027344 L 398.273438 216.710938 L 398.019531 215.828125 L 398.6875 214.410156 L 399.808594 215.457031 L 401.136719 215.464844 L 403.695313 214.023438 L 409.496094 207.003906 Z M 281.457031 274.410156 L 281.457031 438.3125 C 274.175781 433.285156 265.621094 427.992188 258.046875 423.425781 L 258.289063 281.71875 C 259.039063 281.664063 259.765625 281.597656 260.453125 281.519531 C 266.722656 280.785156 274.773438 278.378906 281.457031 274.410156 Z M 337.457031 281.738281 L 337.457031 423.425781 C 330.050781 427.890625 321.695313 433.054688 314.519531 437.984375 L 314.355469 274.597656 C 320.976563 278.453125 328.875 280.796875 335.046875 281.519531 C 335.808594 281.609375 336.613281 281.679688 337.457031 281.738281 Z M 176.160156 182.84375 C 175.921875 182.332031 175.597656 181.824219 175.1875 181.316406 C 175.1875 181.316406 174.695313 182.835938 173.28125 182.742188 C 171.710938 182.632813 171.1875 180.941406 171.1875 180.941406 C 170.949219 181.246094 170.511719 181.632813 170.179688 181.691406 C 170.882813 182.539063 171.863281 183.132813 173.183594 183.335938 C 174.210938 183.492188 175.328125 183.289063 176.160156 182.84375 Z M 183.988281 206.898438 L 186 207.003906 L 191.800781 214.023438 L 194.359375 215.464844 L 195.6875 215.457031 L 196.804688 214.410156 L 197.476563 215.828125 L 197.222656 216.710938 L 195.191406 217.027344 L 192.835938 216.367188 L 189.945313 213.765625 L 186.484375 209.015625 Z M 419.335938 182.84375 C 420.167969 183.289063 421.28125 183.492188 422.3125 183.335938 C 423.628906 183.132813 424.613281 182.539063 425.316406 181.691406 C 424.984375 181.632813 424.546875 181.246094 424.308594 180.941406 C 424.308594 180.941406 423.785156 182.632813 422.214844 182.742188 C 420.800781 182.835938 420.308594 181.316406 420.308594 181.316406 C 419.894531 181.824219 419.574219 182.332031 419.335938 182.84375 Z M 419.335938 182.84375 "/>
<path style=" stroke:none;fill-rule:evenodd;fill:rgb(0%,71.289063%,94.53125%);fill-opacity:1;" d="M 297.746094 549.425781 C 364.050781 549.425781 438.488281 538.09375 496.257813 505.582031 C 500.273438 502.707031 501.136719 498.449219 500.386719 494.058594 L 484.230469 444.082031 C 444.390625 474.96875 346.265625 493.121094 297.746094 493.121094 C 249.230469 493.121094 151.105469 474.96875 111.265625 444.082031 L 95.109375 494.058594 C 94.355469 498.449219 95.222656 502.707031 99.238281 505.582031 C 157.007813 538.09375 231.441406 549.425781 297.746094 549.425781 Z M 176.703125 456.238281 C 173.148438 458.667969 163.152344 458.253906 161.097656 458.042969 C 163.03125 459.414063 170.957031 461.289063 174.148438 461.753906 Z M 427.441406 448.453125 C 427.101563 451.015625 432.984375 449.917969 436.175781 448.957031 C 440.191406 447.75 445.300781 445.105469 445.824219 444.671875 C 440.929688 444.914063 428.054688 443.84375 427.441406 448.453125 Z M 418.789063 456.238281 L 421.347656 461.753906 C 424.539063 461.289063 432.460938 459.414063 434.398438 458.042969 C 432.339844 458.253906 422.347656 458.667969 418.789063 456.238281 Z M 500.867188 402.402344 L 507.277344 421.152344 C 512.699219 418.53125 530.558594 404.597656 524.445313 397.355469 C 519.351563 391.320313 506.863281 398.511719 500.867188 402.402344 Z M 487.609375 441.308594 L 500.078125 480.667969 C 515.558594 476.386719 535.539063 463.242188 542.351563 456.355469 C 547.492188 450.59375 552.328125 443.4375 549.5 435.679688 L 538.222656 404.746094 C 530.613281 426.328125 507.335938 434.71875 487.609375 441.308594 Z M 461.519531 447.671875 L 468.660156 443.261719 C 471.660156 441.414063 473.4375 439.714844 472.027344 438.578125 C 470.558594 437.390625 468.160156 439.414063 466.089844 441.988281 Z M 168.054688 448.453125 C 167.441406 443.84375 154.5625 444.914063 149.667969 444.671875 C 150.195313 445.105469 155.304688 447.75 159.316406 448.957031 C 162.511719 449.917969 168.394531 451.015625 168.054688 448.453125 Z M 133.976563 447.671875 L 129.40625 441.988281 C 127.335938 439.414063 124.9375 437.390625 123.46875 438.578125 C 122.058594 439.714844 123.835938 441.414063 126.832031 443.261719 Z M 107.886719 441.308594 C 88.160156 434.71875 64.878906 426.328125 57.273438 404.746094 L 45.996094 435.679688 C 43.167969 443.4375 48.003906 450.59375 53.144531 456.355469 C 59.957031 463.242188 79.9375 476.386719 95.417969 480.667969 Z M 94.628906 402.402344 C 88.628906 398.511719 76.140625 391.320313 71.050781 397.355469 C 64.9375 404.597656 82.796875 418.53125 88.21875 421.152344 Z M 236.042969 520.339844 L 233.453125 510.824219 L 228.945313 519.460938 Z M 467.144531 497.8125 C 467.753906 499.183594 468.316406 499.660156 469.921875 498.941406 C 473.667969 497.222656 475.667969 493.683594 472.105469 485.480469 C 470.738281 482.347656 466.808594 475.386719 461.046875 478.015625 C 458.890625 479 459.300781 479.835938 459.664063 480.585938 Z M 116.011719 495.964844 C 118.15625 496.574219 119.195313 496.714844 120.113281 494.421875 L 126.621094 477.902344 C 125.664063 474.710938 125.15625 474.378906 124.71875 474.191406 L 125.058594 473.324219 L 132.230469 476.296875 L 138.160156 496.066406 L 138.230469 496.082031 L 142.402344 485.523438 C 143.214844 483.429688 143.257813 482.117188 140.597656 480.761719 L 140.933594 479.90625 L 148.246094 482.925781 L 147.90625 483.792969 C 145.332031 483.097656 144.808594 483.820313 144.148438 485.496094 L 136.058594 506.015625 L 135.101563 505.609375 L 127.425781 480.457031 L 127.351563 480.425781 L 121.859375 494.378906 C 120.875 496.890625 121.324219 497.84375 123.734375 499.171875 L 123.394531 500.039063 L 115.675781 496.847656 Z M 459.960938 503.890625 C 462.074219 502.925781 462.300781 501.625 461.75 500.371094 L 454.394531 483.429688 C 453.496094 481.335938 451.988281 481.945313 450.621094 482.40625 L 450.238281 481.539063 L 460.46875 476.890625 C 469.851563 472.601563 475.484375 477.179688 477.78125 482.464844 C 480.515625 488.789063 479.234375 495.792969 470.921875 499.921875 L 460.328125 504.757813 Z M 428.472656 489.425781 L 448.464844 482.378906 L 450.875 489.523438 L 450.015625 489.8125 C 447.507813 485.0625 444.761719 485.035156 440.082031 486.679688 C 438.167969 487.359375 437.589844 487.71875 438.097656 489.25 L 440.871094 497.496094 C 444.210938 496.355469 445.675781 494.808594 444.71875 490.21875 L 445.617188 489.902344 L 449.648438 501.914063 L 448.746094 502.230469 C 446.832031 497.945313 444.71875 497.496094 441.28125 498.707031 L 444.167969 507.300781 C 444.691406 508.875 445.492188 509.0625 447.746094 508.269531 C 451.140625 507.070313 454.382813 504.890625 454.761719 498.753906 L 455.722656 498.421875 L 456.820313 506.304688 L 436.53125 513.453125 L 436.25 512.570313 C 438.136719 511.660156 439.179688 511.171875 438.449219 508.960938 L 432.671875 491.761719 C 431.882813 489.425781 430.390625 489.871094 428.769531 490.320313 Z M 429.121094 515.589844 L 416.46875 519.070313 L 416.246094 518.160156 C 418.765625 517.222656 419.597656 516.917969 418.808594 513.871094 L 413.792969 494.738281 C 411.355469 495.5625 407.75 496.757813 408.566406 502.753906 L 407.539063 503.027344 L 405.75 495.707031 L 426.996094 489.871094 L 428.964844 497.148438 L 427.9375 497.4375 C 425.710938 491.820313 422.023438 492.644531 419.542969 493.164063 L 424.542969 512.296875 C 425.347656 515.386719 426.21875 515.214844 428.882813 514.679688 Z M 410.257813 520.628906 L 397.707031 523.371094 L 397.507813 522.449219 C 399.410156 521.84375 400.777344 521.378906 400.3125 519.113281 L 396.621094 501.324219 C 396.113281 498.898438 394.410156 499.183594 392.730469 499.429688 L 392.550781 498.523438 L 405.101563 495.777344 L 405.285156 496.703125 C 403.621094 497.136719 401.902344 497.554688 402.425781 500.050781 L 406.117188 517.84375 C 406.609375 520.195313 408.058594 519.992188 410.0625 519.703125 Z M 371.347656 527.082031 C 373.472656 526.464844 374.445313 526.042969 374.078125 523.589844 L 371.347656 506 C 368.925781 503.761719 368.332031 503.75 367.867188 503.835938 L 367.710938 502.898438 L 375.363281 501.65625 L 390.378906 515.472656 L 390.4375 515.460938 L 388.703125 504.210938 C 388.367188 501.988281 387.730469 500.832031 384.773438 501.078125 L 384.632813 500.152344 L 392.40625 498.898438 L 392.550781 499.820313 C 390 500.570313 389.914063 501.464844 390.195313 503.242188 L 393.5625 525.105469 L 392.550781 525.265625 L 373.332031 507.777344 L 373.261719 507.792969 L 375.558594 522.621094 C 375.964844 525.308594 376.839844 525.886719 379.558594 525.742188 L 379.699219 526.679688 L 371.488281 528.007813 Z M 367.667969 504.050781 C 365.699219 504.558594 364.894531 505.0625 365.148438 507.53125 L 366.375 519.460938 C 366.597656 521.652344 366.429688 525.046875 365.078125 526.882813 C 363.457031 529.105469 360.359375 530.160156 358.160156 530.375 C 356.566406 530.550781 353.117188 530.695313 350.523438 528.832031 C 348.820313 527.574219 347.734375 526.375 347.3125 522.347656 L 346.03125 509.855469 C 345.707031 506.707031 344.761719 506.738281 342.691406 506.738281 L 342.59375 505.8125 L 354.921875 504.484375 L 355.019531 505.410156 C 352.621094 505.785156 351.496094 505.941406 351.835938 509.234375 L 353.117188 521.710938 C 353.328125 523.847656 353.863281 528.988281 359.101563 528.425781 C 365.527344 527.746094 365.019531 522.015625 364.765625 519.632813 L 363.597656 508.226563 C 363.371094 505.941406 362.808594 504.730469 359.652344 504.902344 L 359.554688 503.980469 L 367.570313 503.128906 Z M 312.515625 507.417969 L 333.632813 506.289063 L 334.027344 513.828125 L 333.113281 513.886719 C 331.996094 508.585938 329.335938 507.792969 324.40625 508.050781 C 322.390625 508.167969 321.742188 508.355469 321.8125 509.972656 L 322.261719 518.664063 C 325.785156 518.519531 327.601563 517.453125 327.914063 512.757813 L 328.855469 512.714844 L 329.503906 525.394531 L 328.558594 525.4375 C 327.882813 520.773438 325.953125 519.746094 322.332031 519.949219 L 322.796875 529.019531 C 322.882813 530.679688 323.601563 531.097656 325.96875 530.953125 C 329.5625 530.78125 333.253906 529.597656 335.265625 523.804688 L 336.296875 523.746094 L 335.222656 531.632813 L 313.808594 532.773438 L 313.753906 531.847656 C 315.839844 531.503906 316.964844 531.328125 316.851563 529.003906 L 315.910156 510.855469 C 315.796875 508.367188 314.246094 508.382813 312.554688 508.355469 Z M 311.753906 532.875 L 290.566406 532.875 L 290.566406 531.9375 C 292.621094 531.675781 293.722656 531.558594 293.722656 529.277344 L 293.722656 511.085938 C 293.722656 508.601563 292.214844 508.527344 290.566406 508.425781 L 290.566406 507.472656 L 303.355469 507.472656 L 303.355469 508.425781 C 300.792969 508.527344 299.664063 508.570313 299.664063 511.878906 L 299.664063 529.597656 C 299.664063 531.402344 300.46875 531.703125 302.921875 531.703125 C 308.457031 531.703125 310.515625 528.585938 312.191406 524.355469 L 313.261719 524.355469 Z M 284.210938 532.628906 L 271.136719 532.152344 L 271.167969 531.214844 C 273.855469 531.082031 274.730469 531.039063 274.84375 527.878906 L 275.519531 508.09375 C 272.953125 508.152344 269.164063 508.210938 268.21875 514.1875 L 267.164063 514.144531 L 267.53125 506.609375 L 289.523438 507.402344 L 289.339844 514.953125 L 288.269531 514.910156 C 287.746094 508.875 283.972656 508.542969 281.449219 508.3125 L 280.773438 528.109375 C 280.660156 531.285156 281.550781 531.402344 284.253906 531.675781 Z M 264.105469 513.757813 C 263.628906 511.085938 261.726563 506.621094 257.414063 506.304688 C 255.5 506.175781 253.414063 507.15625 253.246094 509.582031 C 253.105469 511.617188 253.753906 512.484375 256.726563 514.289063 L 261.910156 517.410156 C 263.105469 518.128906 265.742188 520.5 265.460938 524.601563 C 265.234375 527.878906 262.585938 532.253906 255.851563 531.777344 C 252.371094 531.515625 250.824219 530.128906 249.679688 530.042969 C 248.921875 529.988281 248.679688 530.648438 248.496094 531.242188 L 247.441406 531.171875 L 248.074219 521.914063 L 249.132813 521.988281 C 249.609375 525.828125 251.441406 530.203125 256.078125 530.550781 C 260.472656 530.851563 260.910156 527.171875 260.9375 526.679688 C 261.121094 524.167969 259.457031 523.140625 257.164063 521.8125 L 254.796875 520.441406 C 248.738281 516.902344 248.960938 513.683594 249.074219 511.964844 C 249.246094 509.683594 250.722656 504.660156 257.667969 505.164063 C 260.601563 505.367188 262.234375 506.722656 263.289063 506.792969 C 264.136719 506.867188 264.347656 506.320313 264.585938 505.609375 L 265.683594 505.699219 L 265.136719 513.828125 Z M 246.089844 530.550781 L 234.296875 529.046875 L 234.410156 528.125 C 236.691406 528.222656 237.355469 528.269531 237.496094 527.039063 C 237.609375 526.042969 236.777344 523.125 236.410156 521.871094 L 228.222656 520.84375 C 226.886719 523.402344 226.125 524.84375 226.042969 525.453125 C 225.871094 526.867188 227.605469 527.199219 228.84375 527.417969 L 228.71875 528.355469 L 221.335938 527.429688 L 221.449219 526.492188 C 223.464844 526.449219 224.109375 525.25 225.535156 522.59375 L 236.070313 503.15625 L 237.085938 503.285156 L 242.847656 523.9375 C 244.003906 528.125 244.441406 529.464844 246.1875 529.609375 Z M 223.054688 522.59375 C 219.941406 525.234375 216.757813 527.113281 212.121094 526.363281 C 203.683594 524.988281 200.0625 518.160156 201.132813 511.230469 C 202.300781 503.691406 208.402344 498.753906 216.011719 499.980469 C 219.265625 500.515625 221.785156 502.78125 222.714844 502.941406 C 223.6875 503.097656 224.140625 502.378906 224.648438 501.496094 L 225.632813 501.65625 L 224.28125 510.347656 L 223.378906 510.1875 C 222.605469 506.765625 220.238281 501.929688 216.109375 501.25 C 210.824219 500.398438 208.53125 505.84375 207.558594 512.109375 C 207.21875 514.347656 206.894531 517.941406 207.851563 520.527344 C 208.964844 523.460938 211.742188 524.46875 212.867188 524.65625 C 215.683594 525.121094 218.574219 524.441406 222.109375 521.480469 Z M 203.585938 499.488281 C 202.316406 499.300781 201.332031 499.992188 200.585938 501.25 L 188.480469 521.609375 L 187.523438 521.367188 L 185.371094 502.808594 L 185.128906 502.765625 L 174.761719 518.363281 L 173.757813 518.117188 L 171.152344 494.277344 C 170.941406 492.371094 170.660156 491.9375 169.222656 491.359375 L 169.421875 490.433594 L 179.929688 492.917969 L 179.71875 493.84375 C 178.410156 493.640625 177.394531 493.480469 177.085938 494.839844 C 177 495.230469 177.015625 495.660156 177.070313 496.109375 L 178.339844 510.332031 L 178.410156 510.347656 L 185.113281 500.167969 L 184.652344 496.355469 C 184.367188 495.445313 184.058594 494.941406 182.367188 494.464844 L 182.566406 493.554688 L 193.722656 496.183594 L 193.511719 497.105469 C 191.949219 496.847656 190.90625 496.644531 190.625 497.886719 C 190.523438 498.320313 190.625 499.273438 190.667969 500.023438 L 191.75 513.105469 L 191.820313 513.136719 L 198.582031 501.625 C 198.78125 501.28125 199.019531 500.917969 199.1875 500.136719 C 199.527344 498.636719 198.289063 498.304688 197.074219 497.945313 L 197.289063 497.035156 L 203.796875 498.578125 Z M 148.527344 483.15625 L 168.644531 489.855469 L 166.378906 497.046875 L 165.503906 496.757813 C 166.308594 491.402344 164.125 489.699219 159.417969 488.125 C 157.488281 487.488281 156.828125 487.429688 156.332031 488.949219 L 153.699219 497.25 C 157.039063 498.390625 159.121094 498.058594 161.050781 493.800781 L 161.953125 494.101563 L 158.121094 506.1875 L 157.207031 505.886719 C 158.207031 501.28125 156.769531 499.617188 153.316406 498.464844 L 150.585938 507.113281 C 150.078125 508.6875 150.613281 509.335938 152.867188 510.085938 C 156.292969 511.230469 160.136719 511.488281 164.054688 506.824219 L 165.023438 507.140625 L 161.277344 514.117188 L 140.878906 507.328125 L 141.160156 506.433594 C 143.214844 506.882813 144.332031 507.128906 145.035156 504.902344 L 150.515625 487.621094 C 151.261719 485.25 149.824219 484.6875 148.246094 484.050781 Z M 148.527344 483.15625 "/>
<path style=" stroke:none;fill-rule:evenodd;fill:rgb(94.139099%,72.068787%,23.925781%);fill-opacity:1;" d="M 104.230469 400.808594 L 96.105469 425.296875 L 91.195313 423.160156 L 98.042969 401.488281 C 92.710938 396.507813 70.28125 386.871094 66.675781 397.109375 C 65.171875 408.632813 75.828125 416.980469 84.335938 422.652344 C 92 427.761719 101.203125 431.6875 109.839844 434.574219 L 108.105469 438.664063 C 98.664063 434.878906 89.09375 430.96875 80.191406 425.785156 C 71.078125 420.484375 53.378906 404.039063 62.175781 391.765625 C 69.378906 381.726563 97.351563 393.375 104.230469 400.808594 Z M 131.625 348.457031 L 127.203125 342.652344 L 134.179688 336.96875 L 132.667969 327.042969 L 139.746094 321.851563 Z M 282.875 159.796875 L 283.550781 156.546875 L 283.191406 154.195313 L 285.929688 151.382813 L 287.339844 154.722656 L 297.632813 142.738281 L 301.414063 159.796875 L 291.453125 159.796875 L 291.453125 165.339844 L 284.445313 165.339844 L 284.445313 159.796875 Z M 313.691406 117.5625 L 315.621094 117.566406 L 319.195313 120.992188 L 315.449219 121.417969 L 313.304688 123.039063 L 315.085938 123.996094 L 318.925781 125.800781 L 314.75 128.882813 L 311.121094 131.160156 L 311.449219 138.511719 L 310.265625 142.941406 L 309.214844 138.125 L 307.40625 129.328125 L 305.160156 139.585938 L 305.261719 153.128906 L 300.101563 138.25 L 303.128906 129.179688 L 306.175781 127.359375 L 307.316406 125.925781 C 307.523438 125.800781 307.695313 125.601563 307.808594 125.304688 L 308.375 124.601563 L 311.0625 123.265625 L 312.054688 121.421875 L 312.332031 120.90625 L 313.253906 117.914063 Z M 302.335938 121.292969 L 301.703125 122.546875 L 299.117188 122.789063 C 299.117188 122.789063 296.316406 121.453125 297.917969 119.84375 C 299.496094 118.246094 300.53125 117.96875 301.152344 119.082031 C 301.769531 120.164063 302.335938 121.292969 302.335938 121.292969 Z M 311.601563 119.292969 C 311.671875 118.382813 310.859375 118.652344 310.144531 118.96875 C 309.441406 119.265625 308.863281 118.542969 308.351563 118.113281 C 307.84375 117.691406 306.921875 118.84375 306.921875 118.84375 L 306.652344 118.707031 L 307.457031 117.109375 C 307.457031 117.109375 307.765625 117.023438 308.789063 116.765625 C 309.8125 116.507813 310.574219 117.78125 310.574219 117.78125 L 311.863281 118.433594 C 314.121094 115.101563 309.484375 112.601563 309.484375 112.601563 L 306.480469 114.15625 C 306.480469 114.15625 305.996094 111.328125 306 110.894531 C 306.007813 110.441406 302.84375 110.152344 302.84375 110.152344 L 302.109375 111.617188 L 299.570313 111.570313 L 299.328125 112.054688 L 301.199219 112.992188 C 302.164063 112.753906 302.777344 113.742188 302.777344 113.742188 L 303.59375 115.429688 L 301.996094 118.609375 C 304.15625 118.683594 306.175781 120.761719 306.175781 120.761719 L 305.855469 121.351563 C 305.808594 121.351563 305.757813 121.351563 305.703125 121.371094 C 304.445313 121.511719 303.21875 121.738281 303.21875 121.738281 L 302.589844 122.992188 L 303.933594 125.214844 C 303.933594 125.214844 306.660156 126.660156 307.015625 124.421875 C 307.152344 123.523438 307.164063 122.828125 307.058594 122.320313 L 307.542969 121.5 C 307.542969 121.5 309.878906 121.273438 310.632813 121.21875 C 311.394531 121.140625 311.542969 120.226563 311.601563 119.292969 Z M 301.632813 116.691406 C 301.632813 116.691406 300.882813 115.589844 299.890625 115.691406 C 298.886719 115.8125 297.324219 115.367188 297.816406 114.382813 C 298.3125 113.402344 299.136719 112.292969 299.136719 112.292969 L 299.636719 112.546875 L 300.394531 114.160156 C 300.394531 114.160156 300.488281 114.59375 301.117188 114.59375 C 301.734375 114.566406 302.535156 114.898438 302.195313 115.570313 C 301.855469 116.246094 301.632813 116.691406 301.632813 116.691406 Z M 302.1875 107.269531 C 302.1875 107.269531 309.472656 108.535156 315.125 113.878906 C 315.125 113.878906 319.179688 109.375 320.261719 108.804688 L 316.933594 109.9375 L 318.257813 106.859375 L 313.425781 108.472656 L 312.351563 103.304688 L 307.699219 105.59375 L 305.972656 100.679688 L 304.3125 103.535156 L 303.300781 100.269531 C 303.300781 100.269531 302.675781 105.164063 302.1875 107.269531 Z M 280.96875 134.382813 L 281.378906 139.296875 L 279.84375 139.886719 L 272.902344 137.039063 L 273.332031 134.125 L 271.078125 132.132813 L 274.457031 129.488281 L 268.957031 128.996094 L 272.792969 126.652344 L 266.820313 126.617188 L 265.894531 122.019531 L 267.945313 115.972656 L 265.699219 111.878906 L 268.695313 112.839844 L 280.382813 124.285156 Z M 288.738281 129.996094 L 286.910156 134.238281 L 283.84375 138.007813 L 282.960938 135.636719 L 283.480469 132.882813 L 285.589844 130.636719 Z M 302.203125 125.683594 L 299.566406 129.449219 L 298.433594 133.582031 L 299.285156 134.238281 L 300.324219 134.332031 L 296.121094 137.855469 L 291.167969 140.339844 L 294.132813 135.835938 L 297.191406 130.953125 L 296.613281 130.464844 L 295.933594 130.449219 L 292.460938 134.242188 L 289.164063 138.21875 L 291.304688 133.5 L 293.8125 127.5625 L 298.09375 124.980469 Z M 300.761719 108.761719 L 300.625 109.539063 L 298.890625 110.949219 L 297.042969 113.824219 L 297.175781 116.820313 L 295.824219 120.078125 L 295.703125 123.625 L 290.085938 127.136719 L 282.890625 128.277344 L 287.394531 124.117188 L 293.507813 119.957031 L 289.960938 121.121094 L 285.238281 122.535156 L 288.542969 119.355469 L 293.113281 117.964844 L 292.375 114.230469 L 293.214844 108.898438 L 294.453125 110.65625 L 296.152344 111.75 L 296.535156 109.089844 L 297.292969 106.332031 L 299.824219 107.074219 Z M 265.304688 109.023438 L 263.238281 110.050781 L 264.191406 112.484375 L 261.796875 112.90625 L 263.351563 116.175781 L 260.992188 117.316406 L 258.160156 114.277344 L 258.1875 105.855469 L 261.796875 105.125 Z M 286.109375 141.777344 L 285.859375 145.890625 L 290.824219 142.84375 L 296.90625 141.453125 L 287.472656 152.644531 L 286.601563 148.535156 L 283.480469 152.421875 L 283.78125 149.464844 L 280.347656 152.421875 L 279.09375 149.53125 L 276.839844 153.414063 L 275.46875 151.914063 L 272.335938 153.921875 L 271.324219 151.164063 L 268.695313 153.171875 L 268.449219 150.789063 L 263.683594 153.171875 L 265.316406 149.042969 L 258.324219 152.273438 L 262.335938 146.136719 L 273.828125 144.644531 Z M 325.414063 140.507813 C 327.867188 139.453125 333.765625 142.296875 336.890625 140.539063 C 340.910156 138.277344 340.910156 131.222656 346.378906 131.097656 C 341.050781 133.972656 345.535156 143.394531 339.566406 145.648438 C 334.097656 147.835938 331.714844 144.039063 329.097656 142.269531 C 333.074219 148.199219 334.324219 155.300781 325.148438 155.300781 C 333.664063 150.617188 326.015625 142.203125 318.914063 144.484375 C 315.195313 145.675781 311.625 149.808594 310.609375 158.941406 C 308.289063 155.171875 307.949219 149.402344 310.597656 145.527344 C 313.859375 140.757813 324.269531 138.050781 329.496094 134.140625 C 331.3125 132.78125 331.984375 130.828125 331.792969 129.207031 C 336.476563 136.472656 326.28125 136.632813 325.414063 140.507813 Z M 316.332031 251.667969 C 312.949219 268.847656 354.042969 268.558594 362.035156 261.65625 C 358.910156 260.609375 353.628906 250.542969 364.582031 247.132813 C 370.535156 245.285156 374.1875 250.289063 375.101563 255.703125 C 378.585938 276.355469 349.164063 279.851563 335.046875 278.195313 C 320.273438 276.464844 295.625 265.460938 302.253906 246.625 C 304.003906 241.660156 309.019531 238.464844 314.066406 239.640625 C 318.113281 240.582031 322.367188 249.011719 316.332031 251.667969 Z M 320.804688 228.695313 C 323.101563 231.125 325.398438 233.550781 327.695313 235.980469 C 329.050781 237.414063 328.652344 239.757813 326.804688 241.195313 C 326.652344 241.308594 326.507813 241.425781 326.359375 241.539063 C 325.0625 242.550781 323.378906 242.84375 322.023438 242.433594 C 321.660156 241.632813 321.21875 240.871094 320.722656 240.179688 C 319.332031 238.238281 317.410156 236.695313 315.371094 236.078125 C 314.796875 235.46875 314.21875 234.863281 313.644531 234.253906 C 312.285156 232.820313 312.6875 230.472656 314.53125 229.039063 C 314.679688 228.925781 314.832031 228.808594 314.980469 228.695313 C 316.828125 227.257813 319.441406 227.257813 320.804688 228.695313 Z M 336.082031 228.695313 L 342.972656 235.980469 C 343.378906 236.410156 343.628906 236.917969 343.726563 237.464844 L 337.785156 239.25 L 335.664063 241.382813 L 328.921875 234.253906 C 327.566406 232.820313 327.964844 230.472656 329.8125 229.039063 L 330.261719 228.695313 C 332.105469 227.257813 334.722656 227.257813 336.082031 228.695313 Z M 259.683594 228.695313 L 266.574219 235.980469 C 267.933594 237.414063 267.535156 239.757813 265.6875 241.195313 L 265.238281 241.539063 C 263.929688 242.5625 262.226563 242.851563 260.859375 242.417969 L 257.710938 239.25 L 257.070313 239.058594 L 252.527344 234.253906 C 251.167969 232.820313 251.566406 230.472656 253.414063 229.039063 L 253.863281 228.695313 C 255.707031 227.257813 258.324219 227.257813 259.683594 228.695313 Z M 274.964844 228.695313 C 277.195313 231.050781 279.421875 233.402344 281.648438 235.757813 C 281.289063 235.808594 280.929688 235.875 280.570313 235.960938 C 278.367188 236.472656 276.261719 238.09375 274.769531 240.179688 C 274.574219 240.453125 274.390625 240.730469 274.214844 241.023438 C 272.078125 238.765625 269.941406 236.511719 267.808594 234.253906 C 266.449219 232.820313 266.847656 230.472656 268.695313 229.039063 C 268.84375 228.925781 268.996094 228.808594 269.140625 228.695313 C 270.988281 227.257813 273.605469 227.257813 274.964844 228.695313 Z M 290.246094 228.695313 C 292.542969 231.125 294.839844 233.550781 297.136719 235.980469 C 298.492188 237.414063 298.09375 239.757813 296.246094 241.195313 C 296.097656 241.308594 295.949219 241.425781 295.800781 241.539063 C 295.578125 241.710938 295.347656 241.859375 295.109375 241.992188 C 292.683594 238.382813 288.707031 235.964844 284.414063 235.65625 C 283.972656 235.1875 283.527344 234.722656 283.085938 234.253906 C 281.726563 232.820313 282.128906 230.472656 283.976563 229.039063 C 284.125 228.925781 284.273438 228.808594 284.421875 228.695313 C 286.269531 227.257813 288.882813 227.257813 290.246094 228.695313 Z M 305.523438 228.695313 C 307.710938 231.007813 309.898438 233.316406 312.085938 235.625 C 308.714844 235.605469 305.472656 236.90625 302.949219 239.097656 C 301.417969 237.484375 299.890625 235.871094 298.363281 234.253906 C 297.007813 232.820313 297.40625 230.472656 299.253906 229.039063 C 299.402344 228.925781 299.550781 228.808594 299.699219 228.695313 C 301.546875 227.257813 304.164063 227.257813 305.523438 228.695313 Z M 279.164063 251.667969 C 273.128906 249.011719 277.382813 240.582031 281.433594 239.640625 C 286.480469 238.464844 291.496094 241.660156 293.246094 246.625 C 299.875 265.460938 275.226563 276.464844 260.453125 278.195313 C 246.332031 279.851563 216.914063 276.355469 220.398438 255.703125 C 221.3125 250.289063 224.964844 245.285156 230.917969 247.132813 C 241.871094 250.542969 236.589844 260.609375 233.460938 261.65625 C 241.457031 268.558594 282.550781 268.847656 279.164063 251.667969 Z M 384.066406 289 C 380.339844 289.5 377.988281 290.742188 376.707031 292.964844 C 374.839844 296.207031 374.167969 300.160156 374.25 304.582031 L 371.34375 308.652344 L 370.523438 310.832031 C 369.6875 318.726563 368.941406 326.523438 368.355469 334.429688 L 366.871094 343.144531 L 366.894531 344.679688 L 368.234375 351.976563 C 361.746094 329.292969 353.636719 301.578125 361.859375 283.683594 C 363.804688 279.449219 368.464844 273.007813 378.160156 272.40625 L 380.84375 278.574219 Z M 380.546875 335.539063 C 381.726563 339.710938 382.96875 343.949219 384.15625 348.21875 L 380.839844 346.164063 Z M 386.90625 358.765625 C 388.652344 366.109375 389.960938 373.433594 390.234375 380.519531 C 390.976563 399.671875 384.378906 417.1875 364.265625 430.714844 C 341.472656 446.050781 316.371094 457.019531 297.75 479.152344 C 279.132813 457.019531 254.03125 446.050781 231.234375 430.714844 C 211.121094 417.1875 204.527344 399.671875 205.269531 380.519531 C 205.542969 373.433594 206.847656 366.113281 208.59375 358.769531 L 220.570313 377.699219 L 221.496094 375.621094 C 219.769531 390.964844 226.65625 406.339844 238.480469 416.449219 C 242.257813 419.679688 291.652344 446.386719 297.75 457.445313 C 303.851563 446.386719 353.246094 419.679688 357.019531 416.449219 C 368.839844 406.34375 375.722656 390.980469 374.007813 375.644531 L 374.921875 377.699219 Z M 211.347656 348.210938 C 212.53125 343.953125 213.769531 339.722656 214.949219 335.558594 L 214.652344 346.164063 Z M 221.25 304.585938 C 221.335938 300.167969 220.664063 296.210938 218.796875 292.964844 C 217.515625 290.742188 215.160156 289.496094 211.429688 289 L 214.652344 278.574219 L 217.335938 272.40625 C 227.035156 273 231.699219 279.449219 233.644531 283.683594 C 241.871094 301.589844 233.742188 329.335938 227.25 352.03125 L 228.597656 344.679688 L 228.621094 343.144531 L 227.140625 334.429688 C 226.554688 326.523438 225.808594 318.726563 224.972656 310.832031 L 224.152344 308.652344 Z M 491.65625 265.542969 L 492.027344 262.441406 C 495.335938 266.324219 496.84375 270.996094 498.5 276.476563 L 499.898438 273.75 C 501.195313 277.375 501.46875 283.335938 500.507813 287.117188 L 502.8125 285.601563 C 503.121094 297.4375 498.09375 305.15625 493.546875 308.792969 C 496.5 308.429688 501.867188 308.375 505.0625 310.671875 C 502.996094 316.214844 499.222656 319.109375 497.3125 320.5625 C 505.71875 324.378906 509.535156 326.597656 512.589844 335.175781 L 510.378906 336.351563 C 512.695313 338.675781 514.445313 346.089844 514.023438 350.914063 L 511.355469 348.902344 C 510.816406 353.429688 509.910156 362.78125 507.667969 365.503906 L 505.90625 362.789063 C 502.226563 367.257813 497.019531 370.210938 493.238281 374.78125 C 492.65625 363.257813 499.65625 353.382813 497.21875 344.253906 C 492.933594 328.179688 476.367188 331.519531 463.816406 334.597656 C 468.734375 332.792969 470.90625 331.8125 474.039063 330.46875 C 476.835938 328.574219 480.890625 326.828125 481.589844 323.074219 C 481.246094 321.558594 481.15625 319.8125 480.320313 318.4375 C 477.246094 315.550781 473.695313 317.429688 469.941406 316.808594 L 464.425781 317.429688 C 474.460938 310.800781 482.394531 299.925781 484.351563 287.871094 C 485.988281 277.757813 483.800781 266.296875 483.015625 256.40625 C 484.523438 256.40625 490.238281 262.433594 491.65625 265.542969 Z M 437.199219 270.300781 C 434.105469 270.816406 432.011719 267.355469 433.769531 264.296875 C 434.789063 262.53125 437.828125 260.640625 438.996094 260.054688 C 436.144531 264.945313 435.332031 270.527344 437.199219 270.300781 Z M 442.394531 164.207031 C 443.953125 161.691406 445.742188 159.769531 447.304688 155.339844 C 447.253906 157.765625 447.082031 163.597656 446.5625 166.257813 C 449.738281 164.378906 450.632813 161.402344 453.332031 158.464844 C 453.503906 161.730469 451.5625 165.636719 450.503906 168.511719 C 452.144531 167.636719 456.050781 164.972656 458.0625 163.734375 C 457.007813 166.363281 455 169.496094 454.011719 171.628906 C 456.234375 170.371094 458.332031 168.960938 460.605469 167.742188 C 459.289063 170.5 457.316406 173.363281 456.320313 175.007813 C 458.984375 173.871094 460.503906 172.523438 463.660156 171.382813 C 461.597656 174.113281 459.828125 175.964844 458.394531 178.183594 C 460.1875 177.066406 463.386719 176.605469 466.121094 176.117188 C 464.210938 177.617188 461.433594 180.710938 459.535156 182.644531 C 462.292969 182.628906 465.210938 180.714844 467.628906 178.933594 C 467.046875 180.597656 461.8125 185.972656 461.898438 186.121094 C 465.800781 186.707031 471.484375 187.972656 473.332031 189.519531 C 471.875 189.382813 469.121094 189.273438 466.65625 189.609375 C 470.070313 191.585938 474.210938 193.839844 475.472656 196.28125 C 473.097656 195.023438 466.671875 192.175781 464.25 193.984375 C 468.039063 195.101563 471.941406 202.332031 475.144531 204.257813 C 471.476563 204.847656 466.371094 198.148438 463.628906 198.976563 C 466.898438 201.277344 471.835938 208.035156 474.738281 210.15625 C 470.0625 210.503906 464.324219 203.613281 461.691406 204.824219 C 464.835938 206.40625 468.003906 209.496094 468.132813 212.390625 C 468.332031 216.960938 470.332031 219.140625 472.765625 222.34375 C 470.3125 221.523438 467.445313 219.667969 465.804688 217.40625 C 463.941406 214.835938 463.328125 211.828125 460.679688 210.832031 C 461.4375 218.046875 470.269531 223.613281 464.25 231.625 C 458.230469 239.640625 447.269531 242.136719 444.015625 252.171875 C 442.996094 255.316406 440.914063 258.4375 437.871094 259.210938 C 433.796875 260.246094 430.558594 262.734375 430.660156 267.945313 C 428.933594 266.441406 429.152344 262.945313 429.914063 261.3125 C 432.453125 255.898438 440.261719 258.179688 441.886719 252.417969 C 439.9375 254.132813 432.976563 255.5625 428.996094 258.582031 C 427.316406 259.855469 426.394531 262.839844 426.234375 263.941406 C 425.960938 265.835938 427.160156 267.207031 427.5 268.953125 C 425.152344 267.828125 423.132813 264.980469 423.132813 262.441406 C 423.132813 258.925781 425.007813 255.53125 428.5625 254.296875 C 433.355469 252.632813 439.265625 252.042969 443.484375 248.042969 C 439.433594 249.417969 434.945313 248.703125 432.339844 247.785156 C 428.511719 246.429688 423.878906 248.800781 421.011719 250.167969 C 421.121094 245.042969 427.691406 244.441406 431.285156 245.011719 C 436.847656 245.898438 442.242188 248.527344 446.328125 243.828125 C 441.382813 245.148438 439.050781 242.414063 434.722656 240.894531 C 430.945313 239.570313 427.386719 238.160156 424.617188 239.640625 C 427.054688 237.011719 432.082031 236.25 435.132813 237.097656 C 438.691406 238.089844 441.125 244.109375 448.910156 240.765625 C 447.664063 240.144531 445.269531 240.765625 443.648438 240.273438 C 439.308594 238.644531 439.8125 232.507813 434.417969 232.375 L 429.796875 232.375 C 434.164063 230.203125 437.621094 229.871094 440.59375 232.863281 C 445.199219 237.492188 448.703125 240.109375 453.972656 237.367188 C 451.078125 236.042969 447.035156 236.523438 444.628906 234.710938 C 442.308594 231.691406 440.8125 228.621094 437.234375 226.367188 C 439.808594 226.015625 442.339844 225.976563 445.160156 227.785156 C 447.960938 229.582031 449.492188 232.425781 452.03125 233.828125 C 454.738281 235.324219 458.417969 235.238281 459.980469 232.132813 C 455.015625 231.4375 445.535156 230.832031 448.0625 222.691406 C 449.066406 223.78125 451.765625 227.511719 455.128906 229.144531 C 458.097656 230.589844 461.589844 230.226563 464.84375 227.496094 C 463.371094 225.507813 456.761719 230.359375 453.828125 225.84375 C 452.382813 223.625 451.371094 217.792969 452.585938 215.546875 C 458.285156 204.976563 459.117188 196.082031 456.808594 185.238281 C 455.269531 178.003906 450.046875 169.183594 435.464844 164.777344 C 435.023438 163.847656 434.820313 161.976563 436.136719 160.828125 C 438.730469 158.574219 439.128906 154.964844 438.832031 152.625 C 442.496094 155.207031 441.445313 162.089844 442.394531 164.207031 Z M 495.601563 367.332031 C 496.484375 364.402344 501.757813 356.894531 500.917969 349.371094 C 500.078125 341.847656 495.9375 334.105469 494.671875 331.84375 C 498.148438 335.378906 502.664063 341.773438 503.339844 348.464844 C 504.160156 356.535156 497.761719 365.09375 495.601563 367.332031 Z M 486.15625 308.851563 C 487.640625 307.464844 490.867188 302.621094 492.9375 298.007813 C 495.011719 293.398438 495.734375 286.910156 495.789063 285.179688 C 496.542969 288.386719 497.398438 295.402344 495.519531 299.476563 C 493.25 304.398438 488.125 308.292969 486.15625 308.851563 Z M 481.660156 308.289063 C 483.550781 304.941406 486.941406 297.058594 488.027344 287.59375 C 489.109375 278.125 487.890625 267.070313 486.984375 263.941406 C 490.214844 269.253906 492.273438 278.757813 491.226563 287.15625 C 489.960938 297.292969 484.910156 306.144531 481.660156 308.289063 Z M 505.539063 348.355469 C 505.671875 346.347656 504.699219 340.691406 503.027344 336 C 501.363281 331.308594 497.402344 326.214844 496.246094 324.953125 C 499.023438 326.703125 504.507813 331.066406 505.945313 335.25 C 507.683594 340.300781 506.601563 346.601563 505.539063 348.355469 Z M 466.464844 362.5625 L 464.441406 351.394531 L 467.289063 356.710938 L 470.242188 360.082031 Z M 449.261719 274.84375 L 446.542969 285.589844 L 453.277344 293.890625 L 450.324219 302.753906 L 456.894531 309.261719 L 454.746094 319.160156 C 451.746094 311.558594 448.398438 304.527344 445.84375 297.445313 C 442.664063 288.621094 440.710938 279.71875 442.195313 269.535156 Z M 463.871094 348.457031 L 455.75 321.851563 L 462.828125 327.042969 L 461.316406 336.96875 L 468.289063 342.652344 Z M 146.230469 274.84375 L 153.296875 269.535156 C 154.78125 279.71875 152.832031 288.621094 149.648438 297.445313 C 147.09375 304.527344 143.746094 311.558594 140.75 319.160156 L 138.597656 309.261719 L 145.167969 302.753906 L 142.21875 293.890625 L 148.953125 285.589844 Z M 129.027344 362.5625 L 125.253906 360.082031 L 128.207031 356.710938 L 131.054688 351.394531 Z M 89.957031 348.355469 C 88.894531 346.601563 87.8125 340.300781 89.550781 335.25 C 90.988281 331.066406 96.472656 326.703125 99.25 324.953125 C 98.09375 326.214844 94.128906 331.308594 92.464844 336 C 90.796875 340.691406 89.824219 346.347656 89.957031 348.355469 Z M 113.835938 308.289063 C 110.582031 306.144531 105.535156 297.292969 104.269531 287.15625 C 103.222656 278.757813 105.277344 269.253906 108.511719 263.941406 C 107.605469 267.070313 106.382813 278.125 107.46875 287.59375 C 108.554688 297.058594 111.941406 304.941406 113.835938 308.289063 Z M 109.335938 308.851563 C 107.371094 308.292969 102.246094 304.398438 99.976563 299.476563 C 98.097656 295.402344 98.953125 288.386719 99.707031 285.179688 C 99.761719 286.910156 100.484375 293.398438 102.554688 298.007813 C 104.625 302.621094 107.855469 307.464844 109.335938 308.851563 Z M 99.890625 367.332031 C 97.734375 365.09375 91.335938 356.535156 92.152344 348.464844 C 92.832031 341.773438 97.347656 335.378906 100.824219 331.84375 C 99.558594 334.105469 95.417969 341.847656 94.578125 349.371094 C 93.738281 356.894531 99.011719 364.402344 99.890625 367.332031 Z M 153.101563 164.207031 C 154.050781 162.089844 153 155.207031 156.664063 152.625 C 156.367188 154.964844 156.765625 158.574219 159.355469 160.828125 C 160.675781 161.976563 160.46875 163.847656 160.027344 164.777344 C 145.445313 169.183594 140.226563 178.003906 138.6875 185.238281 C 136.375 196.082031 137.207031 204.976563 142.910156 215.546875 C 144.121094 217.792969 143.113281 223.625 141.667969 225.84375 C 138.730469 230.359375 132.125 225.507813 130.648438 227.496094 C 133.90625 230.226563 137.398438 230.589844 140.367188 229.144531 C 143.730469 227.511719 146.425781 223.78125 147.433594 222.691406 C 149.960938 230.832031 140.476563 231.4375 135.515625 232.132813 C 137.074219 235.238281 140.757813 235.324219 143.464844 233.828125 C 146.003906 232.425781 147.53125 229.582031 150.332031 227.785156 C 153.15625 225.976563 155.6875 226.015625 158.257813 226.367188 C 154.683594 228.621094 153.183594 231.691406 150.867188 234.710938 C 148.460938 236.523438 144.417969 236.042969 141.523438 237.367188 C 146.792969 240.109375 150.296875 237.492188 154.902344 232.863281 C 157.875 229.871094 161.332031 230.203125 165.699219 232.375 L 161.078125 232.375 C 155.679688 232.507813 156.1875 238.644531 151.847656 240.273438 C 150.226563 240.765625 147.832031 240.144531 146.585938 240.765625 C 154.371094 244.109375 156.804688 238.089844 160.363281 237.097656 C 163.414063 236.25 168.441406 237.011719 170.878906 239.640625 C 168.105469 238.160156 164.546875 239.570313 160.769531 240.894531 C 156.445313 242.414063 154.113281 245.148438 149.167969 243.828125 C 153.253906 248.527344 158.648438 245.898438 164.210938 245.011719 C 167.800781 244.441406 174.375 245.042969 174.484375 250.167969 C 171.617188 248.800781 166.984375 246.429688 163.152344 247.785156 C 160.550781 248.703125 156.0625 249.417969 152.011719 248.042969 C 156.226563 252.042969 162.140625 252.632813 166.933594 254.296875 C 170.488281 255.53125 172.363281 258.925781 172.363281 262.441406 C 172.363281 264.980469 170.339844 267.828125 167.996094 268.953125 C 168.335938 267.207031 169.53125 265.835938 169.261719 263.941406 C 169.101563 262.839844 168.179688 259.855469 166.496094 258.582031 C 162.515625 255.5625 155.554688 254.132813 153.609375 252.417969 C 155.234375 258.179688 163.042969 255.898438 165.582031 261.3125 C 166.34375 262.945313 166.5625 266.441406 164.832031 267.945313 C 164.9375 262.734375 161.699219 260.246094 157.621094 259.210938 C 154.582031 258.4375 152.5 255.316406 151.480469 252.171875 C 148.226563 242.136719 137.265625 239.640625 131.242188 231.625 C 125.226563 223.613281 134.058594 218.046875 134.816406 210.832031 C 132.167969 211.828125 131.550781 214.835938 129.691406 217.40625 C 128.050781 219.667969 125.183594 221.523438 122.730469 222.34375 C 125.164063 219.140625 127.160156 216.960938 127.363281 212.390625 C 127.492188 209.496094 130.660156 206.40625 133.804688 204.824219 C 131.171875 203.613281 125.433594 210.503906 120.757813 210.15625 C 123.660156 208.035156 128.59375 201.277344 131.863281 198.976563 C 129.121094 198.148438 124.015625 204.847656 120.347656 204.257813 C 123.554688 202.332031 127.453125 195.101563 131.242188 193.984375 C 128.820313 192.175781 122.398438 195.023438 120.023438 196.28125 C 121.285156 193.839844 125.425781 191.585938 128.839844 189.609375 C 126.375 189.273438 123.621094 189.382813 122.160156 189.519531 C 124.011719 187.972656 129.695313 186.707031 133.59375 186.121094 C 133.683594 185.972656 128.449219 180.597656 127.867188 178.933594 C 130.285156 180.714844 133.203125 182.628906 135.960938 182.644531 C 134.0625 180.710938 131.285156 177.617188 129.375 176.117188 C 132.109375 176.605469 135.304688 177.066406 137.097656 178.183594 C 135.667969 175.964844 133.898438 174.113281 131.835938 171.382813 C 134.992188 172.523438 136.511719 173.871094 139.175781 175.007813 C 138.179688 173.363281 136.207031 170.5 134.890625 167.742188 C 137.164063 168.960938 139.257813 170.371094 141.484375 171.628906 C 140.496094 169.496094 138.484375 166.363281 137.433594 163.734375 C 139.441406 164.972656 143.351563 167.636719 144.988281 168.511719 C 143.933594 165.636719 141.988281 161.730469 142.164063 158.464844 C 144.859375 161.402344 145.757813 164.378906 148.933594 166.257813 C 148.414063 163.597656 148.238281 157.765625 148.1875 155.339844 C 149.753906 159.769531 151.539063 161.691406 153.101563 164.207031 Z M 158.296875 270.300781 C 160.164063 270.527344 159.351563 264.945313 156.5 260.054688 C 157.667969 260.640625 160.707031 262.53125 161.722656 264.296875 C 163.484375 267.355469 161.390625 270.816406 158.296875 270.300781 Z M 103.839844 265.542969 C 105.257813 262.433594 110.972656 256.40625 112.480469 256.40625 C 111.695313 266.296875 109.507813 277.757813 111.144531 287.871094 C 113.097656 299.925781 121.035156 310.800781 131.066406 317.429688 L 125.554688 316.808594 C 121.796875 317.429688 118.25 315.550781 115.175781 318.4375 C 114.339844 319.8125 114.246094 321.558594 113.90625 323.074219 C 114.605469 326.828125 118.65625 328.574219 121.457031 330.46875 C 124.589844 331.8125 126.761719 332.792969 131.679688 334.597656 C 119.128906 331.519531 102.5625 328.179688 98.273438 344.253906 C 95.839844 353.382813 102.839844 363.257813 102.253906 374.78125 C 98.476563 370.210938 93.269531 367.257813 89.585938 362.789063 L 87.824219 365.503906 C 85.582031 362.78125 84.679688 353.429688 84.140625 348.902344 L 81.472656 350.914063 C 81.050781 346.089844 82.796875 338.675781 85.117188 336.351563 L 82.90625 335.175781 C 85.957031 326.597656 89.777344 324.378906 98.183594 320.5625 C 96.273438 319.109375 92.5 316.214844 90.433594 310.671875 C 93.628906 308.375 98.996094 308.429688 101.945313 308.792969 C 97.402344 305.15625 92.375 297.4375 92.679688 285.601563 L 94.984375 287.117188 C 94.027344 283.335938 94.300781 277.375 95.59375 273.75 L 96.996094 276.476563 C 98.648438 270.996094 100.15625 266.324219 103.46875 262.441406 Z M 436.882813 451.101563 C 445.710938 449.398438 471.277344 423.558594 479.023438 432.90625 C 485.5625 440.804688 476.355469 448.1875 461.511719 455.25 C 414.359375 477.691406 354.4375 490.457031 297.746094 490.457031 C 241.058594 490.457031 181.136719 477.691406 133.984375 455.25 C 119.140625 448.1875 109.929688 440.804688 116.472656 432.90625 C 124.214844 423.558594 149.78125 449.398438 158.613281 451.101563 C 163.144531 451.972656 169.855469 453.667969 172.261719 449.335938 C 176.417969 441.855469 149.261719 441.855469 145.765625 441.691406 L 139.347656 437.257813 C 147.117188 437.914063 180.804688 436.542969 179.777344 450.214844 C 179.132813 458.777344 159.722656 456.101563 154.976563 454.480469 C 149.089844 452.46875 141.886719 448.21875 135.4375 443.570313 C 133.601563 442.246094 124.191406 433.703125 121.273438 435.839844 C 116.546875 439.296875 122.125 444.6875 137.699219 451.699219 C 188.429688 474.535156 243.058594 484.535156 297.746094 484.535156 C 352.4375 484.535156 407.066406 474.535156 457.796875 451.699219 C 473.371094 444.6875 478.949219 439.296875 474.222656 435.839844 C 471.304688 433.703125 461.890625 442.246094 460.054688 443.570313 C 453.609375 448.21875 446.40625 452.46875 440.519531 454.480469 C 435.773438 456.101563 416.363281 458.777344 415.71875 450.214844 C 414.6875 436.542969 448.378906 437.914063 456.148438 437.257813 L 449.730469 441.691406 C 446.234375 441.855469 419.078125 441.855469 423.234375 449.335938 C 425.640625 453.667969 432.351563 451.972656 436.882813 451.101563 Z M 491.261719 400.808594 C 498.144531 393.375 526.113281 381.726563 533.320313 391.765625 C 542.117188 404.039063 524.417969 420.484375 515.304688 425.785156 C 506.402344 430.96875 496.832031 434.878906 487.390625 438.664063 L 485.65625 434.574219 C 494.289063 431.6875 503.496094 427.761719 511.160156 422.652344 C 519.667969 416.980469 530.320313 408.632813 528.820313 397.109375 C 525.214844 386.871094 502.785156 396.507813 497.453125 401.488281 L 504.300781 423.160156 L 499.390625 425.296875 Z M 491.261719 400.808594 "/>
<path style=" stroke:none;fill-rule:evenodd;fill:rgb(0%,71.289063%,94.53125%);fill-opacity:1;" d="M 269.488281 56.769531 C 273.9375 55.773438 278.175781 55.246094 282.28125 55.113281 L 282.28125 62.167969 C 278.148438 62.554688 273.90625 63.570313 269.488281 65.339844 Z M 293.613281 55.710938 C 298.34375 56.355469 302.980469 57.457031 307.652344 58.878906 L 307.652344 67.121094 C 302.992188 65.011719 298.347656 63.453125 293.613281 62.632813 Z M 307.652344 77.488281 L 307.652344 84.628906 C 302.976563 83.777344 298.277344 83.105469 293.613281 82.890625 L 293.613281 73 C 298.347656 73.820313 302.992188 75.382813 307.652344 77.488281 Z M 282.28125 83.421875 C 277.933594 84.101563 273.652344 85.398438 269.488281 87.542969 L 269.488281 75.707031 C 273.90625 73.9375 278.148438 72.921875 282.28125 72.53125 Z M 282.28125 83.421875 "/>
<path style=" stroke:none;fill-rule:evenodd;fill:rgb(100%,0%,0%);fill-opacity:1;" d="M 309.21875 59.371094 C 316.546875 61.707031 324 64.789063 332.074219 68.074219 C 353.757813 76.894531 373.398438 75.894531 395.386719 72.746094 C 376.480469 86.8125 356.121094 92.636719 332.074219 89.304688 C 324.699219 88.285156 316.992188 86.394531 309.21875 84.917969 Z M 284.589844 55.078125 C 286.859375 55.082031 289.09375 55.207031 291.304688 55.433594 L 291.304688 63.832031 C 296.839844 64.5 302.238281 66.214844 307.652344 68.664063 L 307.652344 74.84375 C 302.238281 72.394531 296.839844 70.679688 291.304688 70.011719 L 291.304688 82.820313 C 289.054688 82.792969 286.816406 82.882813 284.589844 83.121094 L 284.589844 69.730469 C 279.734375 69.917969 274.734375 70.960938 269.488281 73.058594 L 269.488281 66.878906 C 274.734375 64.78125 279.734375 63.738281 284.589844 63.550781 Z M 284.589844 55.078125 "/>
</g>
</svg>
