<?xml version="1.0" encoding="UTF-8" standalone="no"?>
<!-- Created with Inkscape (http://www.inkscape.org/) -->

<svg
   xmlns:dc="http://purl.org/dc/elements/1.1/"
   xmlns:cc="http://creativecommons.org/ns#"
   xmlns:rdf="http://www.w3.org/1999/02/22-rdf-syntax-ns#"
   xmlns:svg="http://www.w3.org/2000/svg"
   xmlns="http://www.w3.org/2000/svg"
   xmlns:sodipodi="http://sodipodi.sourceforge.net/DTD/sodipodi-0.dtd"
   xmlns:inkscape="http://www.inkscape.org/namespaces/inkscape"
   width="700mm"
   height="700mm"
   viewBox="0 0 700 700"
   version="1.1"
   id="svg1065"
   inkscape:export-filename="C:\Users\suitedoalex\sites\sampdoria-logo-0.png"
   inkscape:export-xdpi="148.6263"
   inkscape:export-ydpi="148.6263"
   inkscape:version="0.92.4 (5da689c313, 2019-01-14)"
   sodipodi:docname="sampdoria-logo.svg">
  <defs
     id="defs1059">
    <clipPath
       clipPathUnits="userSpaceOnUse"
       id="clipPath180">
      <path
         d="M 200.297,102.047 H 485.696 V 203.088 H 200.297 Z"
         id="path178"
         inkscape:connector-curvature="0" />
    </clipPath>
    <clipPath
       clipPathUnits="userSpaceOnUse"
       id="clipPath144">
      <path
         d="m 225.31,176.052 -0.198,-22.444 c 0,-9.913 6.64,-20.393 18.49,-24.85 v 0 c 10.721,3.802 18.349,14.745 18.291,24.687 v 0 l 0.002,22.607 z"
         id="path142"
         inkscape:connector-curvature="0" />
    </clipPath>
  </defs>
  <sodipodi:namedview
     id="base"
     pagecolor="#ffffff"
     bordercolor="#666666"
     borderopacity="1.0"
     inkscape:pageopacity="0.0"
     inkscape:pageshadow="2"
     inkscape:zoom="0.175"
     inkscape:cx="1472.1096"
     inkscape:cy="1275.872"
     inkscape:document-units="mm"
     inkscape:current-layer="layer1"
     showgrid="false"
     inkscape:window-width="1600"
     inkscape:window-height="837"
     inkscape:window-x="-8"
     inkscape:window-y="-8"
     inkscape:window-maximized="1" />
  <metadata
     id="metadata1062">
    <rdf:RDF>
      <cc:Work
         rdf:about="">
        <dc:format>image/svg+xml</dc:format>
        <dc:type
           rdf:resource="http://purl.org/dc/dcmitype/StillImage" />
        <dc:title></dc:title>
      </cc:Work>
    </rdf:RDF>
  </metadata>
  <g
     inkscape:label="Layer 1"
     inkscape:groupmode="layer"
     id="layer1"
     transform="translate(0,403)">
    <path
       style="fill:#ffffff;stroke:none;stroke-width:0.26458332px;stroke-linecap:butt;stroke-linejoin:miter;stroke-opacity:1"
       d="m 160.16014,-295.56701 380.3823,-0.0489 -0.16706,83.08741 -0.23387,61.47199 -0.20044,30.16805 0.0334,10.89123 -0.23386,43.16404 -0.60135,13.831173 -0.3007,7.617196 -1.13588,10.590556 -1.50339,10.623973 -7.08266,31.3373292 -8.75307,20.6465748 -13.50476,27.286744 -11.90625,19.276774 -7.66358,11.500801 -22.71792,26.192399 -17.63979,17.37252 -23.787,18.97615 -17.10523,12.02711 -22.45064,13.09622 -28.53428,13.99143 -6.23662,2.12611 -11.71726,-5.81139 -33.15817,-16.72063 -39.68951,-27.12784 -23.787,-21.1143 -20.71338,-23.519709 -16.16981,-20.579773 -17.37252,-30.735983 -9.75533,-21.381561 -6.28084,-18.0406938 -7.08264,-29.9341912 -1.73725,-14.699826 -1.06908,-13.898007 -0.40091,-18.708873 0.26727,-66.550113 z"
       id="path1662"
       inkscape:connector-curvature="0"
       inkscape:export-xdpi="26.354317"
       inkscape:export-ydpi="26.354317" />
    <g
       transform="matrix(10.298265,0,0,-10.298265,-2157.3927,1518.3834)"
       id="g138"
       inkscape:export-xdpi="26.354317"
       inkscape:export-ydpi="26.354317">
      <g
         id="g140"
         clip-path="url(#clipPath144)">
        <g
           id="g146"
           transform="translate(264.7849,176.3009)">
          <path
             d="m 0,0 -40.466,-23.363 -2.896,5.017 40.465,23.363 z"
             style="fill:#004996;fill-opacity:1;fill-rule:nonzero;stroke:none"
             id="path148"
             inkscape:connector-curvature="0" />
        </g>
        <g
           id="g150"
           transform="translate(265.2681,152.0562)">
          <path
             d="m 0,0 -32.671,-18.862 -2.896,5.016 32.67,18.863 z"
             style="fill:#004996;fill-opacity:1;fill-rule:nonzero;stroke:none"
             id="path152"
             inkscape:connector-curvature="0" />
        </g>
        <g
           id="g154"
           transform="translate(263.3816,166.0705)">
          <path
             d="m 0,0 -37.833,-21.843 -1.096,1.897 37.834,21.843 z"
             style="fill:#e30613;fill-opacity:1;fill-rule:nonzero;stroke:none"
             id="path156"
             inkscape:connector-curvature="0" />
        </g>
        <g
           id="g158"
           transform="translate(264.4725,164.1718)">
          <path
             d="m 0,0 -37.833,-21.843 -1.096,1.897 37.834,21.843 z"
             style="fill:#000000;fill-opacity:1;fill-rule:nonzero;stroke:none"
             id="path160"
             inkscape:connector-curvature="0" />
        </g>
        <g
           id="g162"
           transform="translate(242.3935,142.1004)">
          <path
             d="M 0,0 C 0.375,1.422 0.114,3.393 -0.537,5.125 -0.85,4.466 -0.928,3.851 -0.946,3.654 -1.011,2.939 -1.463,2.529 -2.185,2.529 c -0.096,0 -0.198,0.008 -0.305,0.022 -0.175,0.022 -0.438,0.096 -0.835,0.208 -1.028,0.289 -2.942,0.827 -4.887,0.827 -0.257,0 -0.51,-0.009 -0.753,-0.028 l -1.325,-0.483 0.97,1.107 c 0.241,0.213 0.52,0.61 0.815,0.878 0.243,0.22 0.497,0.522 0.757,0.753 C -7.953,5.72 -8.159,5.607 -8.362,5.475 l -1.032,-0.668 0.303,1.191 c 0.003,0.014 0.273,1.075 0.484,1.96 C -8.608,7.957 -8.61,7.957 -8.611,7.956 -8.974,7.773 -9.426,7.547 -9.929,7.495 l -0.67,-0.067 0.152,0.655 c 0.058,0.251 0.215,0.57 0.397,0.938 0.069,0.14 0.144,0.292 0.214,0.442 -0.127,-0.053 -0.251,-0.106 -0.352,-0.15 -0.094,-0.041 -0.186,-0.08 -0.276,-0.118 l -1,-0.424 0.359,1.027 c 0.106,0.303 0.263,0.535 0.427,0.735 -0.252,-0.054 -0.486,-0.119 -0.633,-0.178 -0.005,-0.171 -0.011,-0.391 -0.016,-0.541 -0.019,-0.588 -0.613,-0.953 -1.552,-0.953 -0.682,0 -1.433,0.212 -1.494,0.806 l -0.001,0.021 c -0.052,0.861 -0.136,1.544 -0.242,2.408 l -0.01,0.078 c -0.028,0.211 0.037,0.419 0.183,0.586 0.317,0.366 0.986,0.496 1.463,0.496 0.565,0 1.144,-0.027 1.469,-0.355 0.145,-0.147 0.222,-0.333 0.22,-0.541 -10e-4,-0.108 -0.004,-0.208 -0.007,-0.303 v -0.008 c 0.482,0.111 1.181,0.18 2.173,0.219 h 10e-4 c 0.024,0.166 -0.003,0.492 -0.066,0.706 -0.01,0.031 -0.037,0.088 -0.061,0.139 -0.11,0.232 -0.402,0.85 0.214,1.333 0.322,0.252 0.909,0.38 1.744,0.38 0.243,0 0.495,-0.012 0.733,-0.034 0.027,0.079 0.047,0.186 0.041,0.33 -0.318,-0.035 -0.699,-0.053 -1.135,-0.053 -1.052,0 -3.402,0.141 -3.959,0.576 l -0.679,0.529 0.808,0.302 c 0.313,0.12 2.376,1.567 2.758,1.934 1.466,1.409 1.69,1.626 2.75,3.061 l 0.111,0.151 0.184,0.036 c 0.601,0.117 1.138,0.188 1.611,0.25 l 0.088,0.12 c 0.186,0.255 0.345,0.556 0.513,0.876 0.167,0.317 0.341,0.647 0.553,0.946 l 0.075,0.404 c 0.074,0.4 0.486,0.849 1.521,1.658 l 0.027,0.021 c 1.036,0.893 1.766,1.267 2.782,1.429 0.068,0.011 0.149,0.027 0.233,0.045 0.222,0.046 0.474,0.099 0.731,0.099 0.337,0 0.616,-0.094 0.829,-0.278 0.234,-0.203 0.312,-0.43 0.33,-0.624 0.085,0.008 0.174,0.012 0.265,0.012 0.628,0 1.343,-0.195 1.738,-0.475 l 0.039,-0.028 0.032,-0.034 c 0.043,-0.044 0.086,-0.086 0.129,-0.127 0.259,-0.249 0.604,-0.58 0.589,-1.288 0.216,-0.019 0.399,-0.041 0.523,-0.065 0.294,-0.007 0.595,-0.019 0.886,-0.029 0.521,-0.02 1.061,-0.041 1.603,-0.041 1.366,0 3.005,0.111 4.802,0.931 l 1.249,0.57 -0.619,-1.225 C 14.303,23.725 12.466,22.274 10.99,21.108 10.574,20.78 10.172,20.463 9.874,20.21 c 0.123,-0.107 0.236,-0.217 0.357,-0.335 0.052,-0.05 0.106,-0.103 0.165,-0.159 0.039,0.008 0.079,0.018 0.1,0.026 0.036,0.014 0.072,0.03 0.11,0.047 0.35,0.155 0.831,0.367 2.664,0.367 0.536,0 1.171,-0.018 1.887,-0.055 l 1.194,-0.059 -0.902,-0.785 C 15.269,19.1 15.02,18.913 14.73,18.698 c -0.413,-0.309 -0.925,-0.691 -1.321,-1.063 0.726,-0.31 1.217,-1.099 1.384,-2.268 0.116,-0.812 0.198,-1.132 1.036,-1.879 l 0.538,-0.48 -0.649,-0.313 c -0.192,-0.092 -0.405,-0.139 -0.635,-0.139 -0.285,0 -0.56,0.073 -0.793,0.165 -0.538,-2.104 -0.738,-3.809 -0.61,-5.198 l 0.093,-1 -0.838,0.554 c -0.513,0.34 -0.997,1.007 -1.465,1.652 -0.348,0.48 -0.996,1.373 -1.262,1.384 l -0.026,0.001 -0.025,0.004 C 10.061,10.132 9.967,10.139 9.878,10.139 9.239,10.139 8.809,9.764 8.311,9.331 8.263,9.288 8.214,9.246 8.165,9.204 7.965,9.031 7.857,8.851 7.844,8.667 7.827,8.416 7.985,8.197 8.081,8.088 L 8.102,8.066 8.119,8.04 C 8.558,7.395 9.218,6.911 10.195,6.517 L 11.919,5.821 10.074,5.593 C 9.226,5.487 7.15,4.799 6.268,4.266 L 6.259,4.262 C 4.246,3.1 2.024,1.632 0.809,-0.439 l -1.188,-1.654 z"
             style="fill:#ffffff;fill-opacity:1;fill-rule:nonzero;stroke:none"
             id="path164"
             inkscape:connector-curvature="0" />
        </g>
        <g
           id="g166"
           transform="translate(254.8719,159.3909)">
          <path
             d="M 0,0 C 0.509,0.836 2.069,1.82 2.655,2.33 -1.054,2.516 -1.375,2.171 -1.809,2.002 -1.894,1.969 -2.204,1.889 -2.298,1.966 -2.73,2.37 -2.931,2.617 -3.359,2.876 -2.597,3.71 1.189,6.245 1.94,7.732 -0.822,6.472 -3.304,6.773 -5.608,6.828 c -0.453,0.109 -2.721,0.196 -3.174,0.069 0.212,0.425 0.734,0.534 1.077,0.557 0.411,0.027 0.817,-0.13 1.126,-0.329 0.123,0.812 -0.254,1.006 -0.563,1.332 -0.435,0.309 -1.556,0.553 -2.203,0.245 -0.128,0.265 0.172,0.578 -0.166,0.871 -0.357,0.308 -0.981,0.09 -1.402,0.023 -0.967,-0.154 -1.608,-0.511 -2.553,-1.326 -0.325,-0.255 -1.309,-1.012 -1.38,-1.395 0.332,0.153 0.692,0.313 1.145,0.214 -1.336,-0.086 -1.642,-1.636 -2.37,-2.635 1.034,0.411 1.752,0.987 2.365,0.807 0.147,-0.043 0.096,-0.186 -0.036,-0.283 -1.132,-0.835 -2.371,-0.701 -4.325,-1.083 -1.077,-1.459 -1.317,-1.693 -2.804,-3.122 -0.368,-0.354 -2.506,-1.884 -2.923,-2.04 0.435,-0.339 3.54,-0.611 4.955,-0.396 l 0.276,-0.127 c 0.096,-0.457 0.06,-0.896 -0.23,-1.221 -0.779,0.108 -2.017,0.107 -2.425,-0.213 -0.408,-0.319 -0.074,-0.669 0.011,-0.956 0.085,-0.286 0.239,-1.258 -0.223,-1.317 -0.347,-0.018 -2.432,-0.061 -2.793,-0.445 -0.071,0.353 -0.031,0.627 -0.028,1.015 0.004,0.39 -0.691,0.411 -1.207,0.411 -0.517,0 -1.218,-0.191 -1.168,-0.538 0.108,-0.889 0.2,-1.614 0.254,-2.52 0.05,-0.489 2.064,-0.546 2.085,0.113 0.009,0.277 0.023,0.792 0.023,0.792 0.235,0.29 1.781,0.58 2.176,0.482 -0.292,-0.562 -0.818,-0.828 -1.041,-1.465 0.583,0.247 1.306,0.595 1.55,0.503 -0.056,-0.605 -0.768,-1.695 -0.878,-2.167 0.836,0.085 1.572,0.793 2.025,0.68 -0.182,-0.853 -0.67,-2.775 -0.67,-2.775 1.005,0.651 1.888,0.792 2.539,0.736 -0.987,-0.811 -2.136,-1.888 -2.916,-2.577 2.958,0.226 5.955,-0.929 6.573,-1.011 0.619,-0.081 0.953,0.127 1.002,0.67 0.048,0.542 0.246,1.346 0.68,2.054 0.147,0.146 0.295,0.012 0.511,-0.084 0.855,-2.018 1.031,-4.334 0.628,-5.863 1.295,2.209 3.612,3.713 5.625,4.874 0.961,0.581 3.105,1.281 3.996,1.392 -0.854,0.344 -1.714,0.847 -2.294,1.699 -0.417,0.472 -0.584,1.183 0.131,1.799 0.661,0.57 1.268,1.188 2.376,1.025 0.888,-0.035 1.968,-2.449 2.973,-3.114 -0.184,1.996 0.316,4.267 0.779,5.947 C 1.9,-4.131 2.541,-4.398 3.03,-4.162 2.11,-3.341 1.969,-2.91 1.837,-1.992 1.706,-1.072 1.275,0.128 0,0"
             style="fill:#ffffff;fill-opacity:1;fill-rule:nonzero;stroke:none"
             id="path168"
             inkscape:connector-curvature="0" />
        </g>
        <g
           id="g170"
           transform="translate(254.8719,159.3909)">
          <path
             d="M 0,0 C 0.509,0.836 2.069,1.82 2.655,2.33 -1.054,2.516 -1.375,2.171 -1.809,2.002 -1.894,1.969 -2.204,1.889 -2.298,1.966 -2.73,2.37 -2.931,2.617 -3.359,2.876 -2.597,3.71 1.189,6.245 1.94,7.732 -0.822,6.472 -3.304,6.773 -5.608,6.828 c -0.453,0.109 -2.721,0.196 -3.174,0.069 0.212,0.425 0.734,0.534 1.077,0.557 0.411,0.027 0.817,-0.13 1.126,-0.329 0.123,0.812 -0.254,1.006 -0.563,1.332 -0.435,0.309 -1.556,0.553 -2.203,0.245 -0.128,0.265 0.172,0.578 -0.166,0.871 -0.357,0.308 -0.981,0.09 -1.402,0.023 -0.967,-0.154 -1.608,-0.511 -2.553,-1.326 -0.325,-0.255 -1.309,-1.012 -1.38,-1.395 0.332,0.153 0.692,0.313 1.145,0.214 -1.336,-0.086 -1.642,-1.636 -2.37,-2.635 1.034,0.411 1.752,0.987 2.365,0.807 0.147,-0.043 0.096,-0.186 -0.036,-0.283 -1.132,-0.835 -2.371,-0.701 -4.325,-1.083 -1.077,-1.459 -1.317,-1.693 -2.804,-3.122 -0.368,-0.354 -2.506,-1.884 -2.923,-2.04 0.435,-0.339 3.54,-0.611 4.955,-0.396 l 0.276,-0.127 c 0.096,-0.457 0.06,-0.896 -0.23,-1.221 -0.779,0.108 -2.017,0.107 -2.425,-0.213 -0.408,-0.319 -0.074,-0.669 0.011,-0.956 0.085,-0.286 0.239,-1.258 -0.223,-1.317 -0.347,-0.018 -2.432,-0.061 -2.793,-0.445 -0.071,0.353 -0.031,0.627 -0.028,1.015 0.004,0.39 -0.691,0.411 -1.207,0.411 -0.517,0 -1.218,-0.191 -1.168,-0.538 0.108,-0.889 0.2,-1.614 0.254,-2.52 0.05,-0.489 2.064,-0.546 2.085,0.113 0.009,0.277 0.023,0.792 0.023,0.792 0.235,0.29 1.781,0.58 2.176,0.482 -0.292,-0.562 -0.818,-0.828 -1.041,-1.465 0.583,0.247 1.306,0.595 1.55,0.503 -0.056,-0.605 -0.768,-1.695 -0.878,-2.167 0.836,0.085 1.572,0.793 2.025,0.68 -0.182,-0.853 -0.67,-2.775 -0.67,-2.775 1.005,0.651 1.888,0.792 2.539,0.736 -0.987,-0.811 -2.136,-1.888 -2.916,-2.577 2.958,0.226 5.955,-0.929 6.573,-1.011 0.619,-0.081 0.953,0.127 1.002,0.67 0.048,0.542 0.246,1.346 0.68,2.054 0.147,0.146 0.295,0.012 0.511,-0.084 0.855,-2.018 1.031,-4.334 0.628,-5.863 1.295,2.209 3.612,3.713 5.625,4.874 0.961,0.581 3.105,1.281 3.996,1.392 -0.854,0.344 -1.714,0.847 -2.294,1.699 -0.417,0.472 -0.584,1.183 0.131,1.799 0.661,0.57 1.268,1.188 2.376,1.025 0.888,-0.035 1.968,-2.449 2.973,-3.114 -0.184,1.996 0.316,4.267 0.779,5.947 C 1.9,-4.131 2.541,-4.398 3.03,-4.162 2.11,-3.341 1.969,-2.91 1.837,-1.992 1.706,-1.072 1.275,0.128 0,0"
             style="fill:#000000;fill-opacity:1;fill-rule:nonzero;stroke:none"
             id="path172"
             inkscape:connector-curvature="0" />
        </g>
      </g>
    </g>
    <g
       transform="matrix(10.298265,0,0,-10.298265,-2157.3927,1518.3834)"
       id="g174"
       inkscape:export-xdpi="26.354317"
       inkscape:export-ydpi="26.354317">
      <g
         id="g176"
         clip-path="url(#clipPath180)">
        <g
           id="g182"
           transform="translate(260.1347,145.5272)">
          <path
             d="m 0,0 c -1.034,-2.745 -2.559,-5.268 -4.447,-7.508 -1.608,-1.907 -3.48,-3.608 -5.539,-5.065 -2.063,-1.461 -4.313,-2.677 -6.671,-3.611 -2.359,0.934 -4.61,2.15 -6.672,3.611 -2.059,1.457 -3.931,3.158 -5.538,5.065 -1.889,2.239 -3.414,4.762 -4.449,7.508 -0.975,2.588 -1.515,5.376 -1.515,8.313 V 30.304 H 1.516 V 8.313 C 1.516,5.376 0.975,2.588 0,0 M 1.787,30.851 H 1.516 -35.375 V 8.313 c 0,-3.003 0.553,-5.856 1.551,-8.506 1.058,-2.806 2.614,-5.383 4.542,-7.668 1.638,-1.943 3.544,-3.675 5.64,-5.158 2.128,-1.507 4.45,-2.758 6.886,-3.712 h 0.197 c 2.435,0.954 4.758,2.205 6.886,3.712 2.095,1.483 4.002,3.215 5.64,5.158 1.927,2.285 3.483,4.862 4.541,7.669 C 1.506,2.457 2.06,5.31 2.06,8.313 v 22.264 0.274 z"
             style="fill:#000000;fill-opacity:1;fill-rule:nonzero;stroke:none"
             id="path184"
             inkscape:connector-curvature="0" />
        </g>
      </g>
    </g>
  </g>
</svg>
