<?xml version="1.0" encoding="UTF-8" standalone="no"?>
<!-- Generator: Adobe Illustrator 16.0.0, SVG Export Plug-In . SVG Version: 6.00 Build 0)  -->

<svg
   xmlns:dc="http://purl.org/dc/elements/1.1/"
   xmlns:cc="http://creativecommons.org/ns#"
   xmlns:rdf="http://www.w3.org/1999/02/22-rdf-syntax-ns#"
   xmlns:svg="http://www.w3.org/2000/svg"
   xmlns="http://www.w3.org/2000/svg"
   xmlns:sodipodi="http://sodipodi.sourceforge.net/DTD/sodipodi-0.dtd"
   xmlns:inkscape="http://www.inkscape.org/namespaces/inkscape"
   version="1.1"
   id="Layer_1"
   x="0px"
   y="0px"
   width="181.55511"
   height="200"
   viewBox="0 0 181.55511 199.99999"
   enable-background="new 0 0 595.28 841.89"
   xml:space="preserve"
   inkscape:version="0.48.1 "
   sodipodi:docname="u.svg"><metadata
   id="metadata37"><rdf:RDF><cc:Work
       rdf:about=""><dc:format>image/svg+xml</dc:format><dc:type
         rdf:resource="http://purl.org/dc/dcmitype/StillImage" /></cc:Work></rdf:RDF></metadata><defs
   id="defs35" /><sodipodi:namedview
   pagecolor="#ffffff"
   bordercolor="#666666"
   borderopacity="1"
   objecttolerance="10"
   gridtolerance="10"
   guidetolerance="10"
   inkscape:pageopacity="0"
   inkscape:pageshadow="2"
   inkscape:window-width="1366"
   inkscape:window-height="706"
   id="namedview33"
   showgrid="false"
   fit-margin-top="0"
   fit-margin-left="0"
   fit-margin-right="0"
   fit-margin-bottom="0"
   inkscape:zoom="2.585"
   inkscape:cx="90.777557"
   inkscape:cy="100"
   inkscape:window-x="-8"
   inkscape:window-y="-8"
   inkscape:window-maximized="1"
   inkscape:current-layer="Layer_1" />
<g
   id="g3"
   transform="matrix(1.2499921,0,0,1.2499921,-281.24947,-427.3573)">
	<path
   d="m 322.723,343.425 1.313,-1.535 c 2.16,3.133 4.723,8.23 7.988,10.156 2.969,1.75 8.813,3.508 21.254,3.535 l 1.941,0.004 7.656,10.266 c -4.68,8.101 -9.055,18.637 -9.055,28.258 0,2.543 0.445,6.039 1.75,10.468 l 7.977,2.235 -1.797,3.676 5.883,2.668 -2.977,4.004 5.59,4.253 -5.66,4.301 c 2.145,5.672 4.891,14.567 4.891,21.852 0,25.441 -20.543,34.555 -59.656,41.212 l 2.77,9.647 -10.418,-4.519 -7.293,7.983 -3.184,-8.172 -12.363,3.738 3.324,-9.164 c -37.273,-6.613 -56.886,-15.875 -56.886,-40.727 0,-7.284 2.746,-16.176 4.89,-21.852 l -5.66,-4.301 5.594,-4.253 -2.985,-4.004 5.887,-2.668 -1.797,-3.676 7.977,-2.235 c 1.308,-4.429 1.75,-7.925 1.75,-10.468 0,-9.621 -4.379,-20.157 -9.055,-28.258 l 7.656,-10.266 1.938,-0.004 c 6.711,-0.015 19.765,-0.199 24.203,-6.156 1.797,-2.414 3.332,-5.055 5.043,-7.535 7.457,8.715 13.691,14.562 25.883,14.738 l 1.035,-0.031 c 10.979,-0.115 17.55,-4.939 24.593,-13.17"
   id="path5"
   inkscape:connector-curvature="0"
   style="fill:#bdbcbc" />
	<path
   d="m 298.172,360.917 c 10.461,-0.113 18.969,-4.558 25.535,-12.234 2.863,4.148 4.207,11.16 29.566,11.219 l 4.965,6.66 c 0,0 -8.301,14.371 -8.301,27.984 0,3.399 0.676,7.965 2.559,13.641 l 5.52,1.543 -1.504,3.082 5.133,2.324 -2.395,3.219 4.586,3.492 -3.941,2.992 c 2.141,5.11 5.703,15.379 5.703,23.164 0,22.672 -18.047,31.239 -60.707,38.09 l 1.703,5.938 -5.418,-2.353 -4.946,5.414 -2.218,-5.695 -8.387,2.539 2.262,-6.246 C 247,478.906 229.652,470.229 229.652,448.002 c 0,-7.785 3.563,-18.054 5.707,-23.164 l -3.941,-2.992 4.582,-3.492 -2.395,-3.219 5.137,-2.324 -1.508,-3.082 5.516,-1.543 c 1.887,-5.676 2.559,-10.242 2.559,-13.641 0,-13.613 -8.297,-27.984 -8.297,-27.984 l 4.968,-6.66 c 25.356,-0.059 26.704,-7.071 29.563,-11.219 6.57,7.676 15.074,12.121 25.535,12.266 0,-0.031 1.094,-0.031 1.094,-0.031"
   id="path7"
   inkscape:connector-curvature="0"
   style="fill:#231f20" />
	<polyline
   clip-rule="evenodd"
   points="248.191,409.457 348.02,409.457 354.867,425.886    241.414,425.886  "
   id="polyline9"
   style="fill:#00a650;fill-rule:evenodd" />
	<polyline
   points="322.496,430.542 322.496,477.786 306.664,481.618 304.605,474.773 288.656,473.746    286.941,481.071 271.719,477.101 271.719,430.542  "
   id="polyline11"
   style="fill:#00a650" />
	<path
   d="m 357.605,430.542 c 0,0 3.695,12.75 3.695,17.398 0,18.75 -19.191,23.98 -19.191,23.98 v -41.379"
   id="path13"
   inkscape:connector-curvature="0"
   style="fill:#00a650" />
	<path
   d="m 238.465,430.558 c 0,0 -3.695,12.75 -3.695,17.398 0,18.75 17.445,23.118 17.445,23.118 v -40.517"
   id="path15"
   inkscape:connector-curvature="0"
   style="fill:#00a650" />
	<polyline
   points="302.828,366.527 310.496,365.227 310.496,404.8 302.828,404.8  "
   id="polyline17"
   style="fill:#00a650" />
	<polyline
   points="320.129,360.57 323.918,357.968 327.797,361.117 327.797,404.796 320.129,404.796  "
   id="polyline19"
   style="fill:#00a650" />
	<path
   d="m 337.793,364.542 c 3.902,1.028 8.379,0.961 13.922,1.575 -10.27,25.878 -4.656,38.683 -4.656,38.683 h -9.266"
   id="path21"
   inkscape:connector-curvature="0"
   style="fill:#00a650" />
	<path
   clip-rule="evenodd"
   d="m 243.941,365.773 c 16.848,0 28.895,-8.078 28.895,-8.078 0,0 9.863,8.625 20.543,8.625 v 38.207 h -43.684 c 4.653,-12.735 -5.754,-38.754 -5.754,-38.754"
   id="path23"
   inkscape:connector-curvature="0"
   style="fill:#ffffff;fill-rule:evenodd" />
	<path
   d="m 259.379,398.796 h 8.16 c -0.062,-2.871 -0.711,-9.652 -4.219,-9.652 -3.406,10e-4 -3.882,5.902 -3.941,9.652 m 9.711,0 h 8.191 c 0.012,-0.707 0.067,-1.511 0.172,-2.351 -0.18,-3.825 -1.062,-12.707 -4.406,-12.707 -3.317,0 -4.192,6.195 -4.285,8.839 l -0.055,2.004 c 0.27,1.547 0.367,3.064 0.383,4.215 m 9.742,0 h 8.691 c -0.07,-3.644 -0.582,-9.242 -3.796,-9.242 -3.891,0 -4.832,6.192 -4.895,9.242 m 8.707,0.778 h -8.719 l -0.136,5.98 h -1.555 l 0.137,-5.98 h -8.168 v 6.046 h -1.555 v -6.046 h -8.172 c 0,0.543 0,1.019 0,1.39 0,3.406 0.25,4.391 0.25,4.391 l -1.5,0.398 c 0,0 -0.301,-1.07 -0.301,-4.789 0,-3.89 -0.203,-13.375 5.5,-13.375 0.215,0 0.422,0.016 0.618,0.047 l -0.446,-0.98 -3.972,-0.684 0.105,-1.473 3.73,-0.273 -0.304,-1.34 c -0.43,0.293 -0.949,0.465 -1.508,0.465 -1.156,0 -2.137,-0.734 -2.508,-1.762 -0.39,0.227 -0.847,0.36 -1.336,0.36 -1.469,0 -2.664,-1.196 -2.664,-2.664 0,-1.168 0.746,-2.157 1.785,-2.52 -0.683,-0.48 -1.132,-1.277 -1.132,-2.18 0,-1.468 1.195,-2.66 2.664,-2.66 0.386,0 0.75,0.078 1.082,0.227 0.136,-1.344 1.269,-2.391 2.648,-2.391 1.262,0 2.32,0.879 2.594,2.059 1.402,0.078 2.519,1.238 2.519,2.66 0,0.617 -0.211,1.183 -0.566,1.637 0.586,0.488 0.957,1.222 0.957,2.043 0,1.25 -0.856,2.296 -2.016,2.585 l 1.793,2.282 1.094,-2.633 1.438,0.203 -0.418,4.098 c 0.82,-1.137 1.968,-2.512 3.57,-2.512 1.555,0 2.699,1.543 3.539,3.043 l -0.398,-3.945 1.433,-0.207 1.098,2.636 1.793,-2.281 c -1.16,-0.289 -2.02,-1.336 -2.02,-2.582 0,-0.824 0.371,-1.559 0.957,-2.047 -0.351,-0.449 -0.562,-1.019 -0.562,-1.637 0,-1.421 1.117,-2.586 2.515,-2.66 0.278,-1.179 1.332,-2.054 2.598,-2.054 1.375,0 2.512,1.043 2.648,2.382 0.332,-0.144 0.696,-0.226 1.079,-0.226 1.472,0 2.664,1.195 2.664,2.664 0,0.902 -0.446,1.699 -1.129,2.18 1.039,0.363 1.785,1.355 1.785,2.519 0,1.469 -1.195,2.664 -2.664,2.664 -0.488,0 -0.945,-0.133 -1.336,-0.359 -0.371,1.027 -1.352,1.762 -2.508,1.762 -0.562,0 -1.078,-0.168 -1.508,-0.469 l -0.308,1.344 3.734,0.273 0.106,1.473 -3.977,0.683 -0.414,0.906 c 0.476,-0.16 0.992,-0.242 1.555,-0.242 5.515,0 5.363,9.254 5.363,13.032 l -0.024,5.476 -1.574,-0.754 0.047,-4.722 c 0,-0.387 0,-0.883 0,-1.461 m -2.461,-24.024 c -0.289,0.125 -0.601,0.203 -0.93,0.223 -0.132,0.57 -0.453,1.074 -0.886,1.437 0.343,0.438 0.551,0.992 0.562,1.594 0.227,-0.062 0.465,-0.098 0.715,-0.098 0.484,0 0.941,0.133 1.332,0.36 0.188,-0.52 0.535,-0.965 0.977,-1.281 -0.953,-0.333 -1.664,-1.196 -1.77,-2.235 m 0.219,-2.441 c 0,-0.719 -0.582,-1.301 -1.301,-1.301 -0.601,0 -1.109,0.41 -1.258,0.965 0.657,0.328 1.16,0.922 1.367,1.633 0.668,-0.054 1.192,-0.614 1.192,-1.297 m -5.047,2.055 c 0,0.426 0.207,0.805 0.523,1.043 0.125,-0.015 0.254,-0.023 0.383,-0.023 0.328,0 0.641,0.055 0.934,0.164 0.449,-0.207 0.762,-0.66 0.762,-1.184 0,-0.718 -0.582,-1.3 -1.301,-1.3 -0.719,-10e-4 -1.301,0.581 -1.301,1.3 m -18.316,-0.075 c -0.329,-0.019 -0.641,-0.097 -0.93,-0.222 -0.109,1.039 -0.816,1.902 -1.77,2.238 0.442,0.312 0.786,0.754 0.973,1.277 0.395,-0.23 0.852,-0.359 1.336,-0.359 0.25,0 0.488,0.035 0.715,0.097 0.008,-0.601 0.215,-1.152 0.562,-1.597 -0.433,-0.363 -0.754,-0.863 -0.886,-1.434 m 1.406,-2.987 c -0.149,-0.559 -0.656,-0.973 -1.258,-0.973 -0.719,0 -1.305,0.586 -1.305,1.305 0,0.68 0.524,1.238 1.196,1.297 0.211,-0.716 0.711,-1.306 1.367,-1.629 m -6.942,7.183 c 0,0.718 0.582,1.3 1.301,1.3 0.719,0 1.301,-0.582 1.301,-1.3 0,-0.719 -0.582,-1.305 -1.301,-1.305 -0.719,0 -1.301,0.586 -1.301,1.305 m 0.657,-4.7 c 0,0.723 0.582,1.305 1.297,1.305 0.722,0 1.304,-0.582 1.304,-1.305 0,-0.718 -0.582,-1.3 -1.304,-1.3 -0.715,0 -1.297,0.582 -1.297,1.3 m 6.172,-0.105 c 0,0.719 0.582,1.301 1.3,1.301 0.719,0 1.301,-0.582 1.301,-1.301 0,-0.719 -0.582,-1.301 -1.301,-1.301 -0.718,0 -1.3,0.582 -1.3,1.301 m 0.398,3.68 c 0,0.718 0.578,1.3 1.297,1.3 0.719,0 1.301,-0.582 1.301,-1.3 0,-0.715 -0.582,-1.297 -1.301,-1.297 -0.719,0 -1.297,0.582 -1.297,1.297 m -3.383,2.528 c 0,0.719 0.582,1.301 1.301,1.301 0.719,0 1.301,-0.582 1.301,-1.301 0,-0.719 -0.582,-1.297 -1.301,-1.297 -0.719,0 -1.301,0.577 -1.301,1.297 m 26.836,-0.72 c 0,0.719 0.582,1.297 1.305,1.297 0.719,0 1.301,-0.578 1.301,-1.297 0,-0.719 -0.582,-1.305 -1.301,-1.305 -0.723,10e-4 -1.305,0.587 -1.305,1.305 m -0.652,-4.698 c 0,0.719 0.582,1.301 1.301,1.301 0.718,0 1.3,-0.582 1.3,-1.301 0,-0.715 -0.582,-1.297 -1.3,-1.297 -0.719,-0.001 -1.301,0.581 -1.301,1.297 m -6.571,3.577 c 0,0.715 0.586,1.297 1.305,1.297 0.719,0 1.297,-0.582 1.297,-1.297 0,-0.723 -0.578,-1.305 -1.297,-1.305 -0.719,0 -1.305,0.583 -1.305,1.305 m 3.379,2.524 c 0,0.723 0.582,1.305 1.305,1.305 0.719,0 1.301,-0.582 1.301,-1.305 0,-0.718 -0.582,-1.3 -1.301,-1.3 -0.723,-0.001 -1.305,0.581 -1.305,1.3"
   id="path25"
   inkscape:connector-curvature="0"
   style="fill:#231f20" />
	<path
   d="m 319.613,454.519 c 0,-12.219 -9.906,-22.121 -22.121,-22.121 -12.219,0 -22.121,9.902 -22.121,22.121 0,12.215 9.902,22.121 22.121,22.121 12.215,0 22.121,-9.906 22.121,-22.121"
   id="path27"
   inkscape:connector-curvature="0"
   style="fill:#ffffff" />
	<path
   d="m 297.492,433.118 c -0.574,0 -1.144,0.022 -1.703,0.065 l -1.379,4.441 7.898,4.348 h 5.473 l 0.961,-5.66 c -3.269,-2.023 -7.121,-3.194 -11.25,-3.194 m -16.453,7.714 c -3.086,3.711 -4.945,8.48 -4.945,13.684 0,0.453 0.015,0.898 0.039,1.349 l 5.055,0.593 1.98,-2.293 0.379,-11.921 -2.508,-1.412 0,0 z m -4.465,18.207 c 0.973,4.532 3.383,8.532 6.731,11.497 l 1.23,-4.767 -4.015,-6.262 -3.946,-0.468 0,0 z m 9.438,13.539 c 3.316,2.113 7.258,3.336 11.48,3.336 1.059,0 2.102,-0.074 3.121,-0.227 l 0.188,-3.688 -10.004,-6.102 -3.25,0.634 -1.535,6.047 0,0 z m 27.515,-3.887 c 3.336,-3.777 5.367,-8.738 5.367,-14.176 0,-0.785 -0.047,-1.565 -0.125,-2.332 l -4.629,-0.565 -4.27,3.253 0.152,12.184 3.505,1.636 0,0 z m 4.649,-19.684 c -1.109,-4.191 -3.465,-7.871 -6.637,-10.637 l -0.82,4.863 3.504,5.277 3.953,0.497 0,0 z m -20.684,-17.386 c 12.645,0 22.898,10.25 22.898,22.895 0,12.646 -10.254,22.896 -22.898,22.896 -12.644,0 -22.898,-10.25 -22.898,-22.896 0,-12.645 10.254,-22.895 22.898,-22.895 m 9.426,35.461 -0.148,-11.984 -4.445,-2.526 -10.136,6.331 0.339,4.414 9.704,5.918 4.686,-2.153 0,0 z m -6.957,-22.856 -8.066,-4.438 -5.231,2.055 -0.363,11.465 4.187,2.996 9.856,-6.16"
   id="path29"
   inkscape:connector-curvature="0"
   style="fill:#231f20" />
	<path
   clip-rule="evenodd"
   d="m 335.992,419.675 c -0.91,0 -1.68,-1.992 -1.68,-3.66 0,-1.23 0.496,-1.625 1.68,-1.625 1.184,0 1.68,0.395 1.68,1.625 0,1.668 -0.77,3.66 -1.68,3.66 m 0,2.18 c 2.84,0 4.191,-3.508 4.191,-5.953 0,-1.992 -0.957,-3.66 -4.191,-3.66 -3.234,0 -4.191,1.668 -4.191,3.66 0,2.445 1.351,5.953 4.191,5.953 m -7.39,-9.414 h -2.41 v 9.207 h 5.016 l 0.563,-2.071 h -3.168 v -7.136 l -0.001,0 z m -7.704,7.234 c -0.914,0 -1.68,-1.992 -1.68,-3.66 0,-1.23 0.496,-1.625 1.68,-1.625 1.18,0 1.676,0.395 1.676,1.625 0,1.668 -0.761,3.66 -1.676,3.66 m 0,2.18 c 2.84,0 4.191,-3.508 4.191,-5.953 0,-1.992 -0.961,-3.66 -4.191,-3.66 -3.238,0 -4.195,1.668 -4.195,3.66 0,2.445 1.352,5.953 4.195,5.953 m -5.214,-9.414 h -2.414 v 7.136 h -0.902 c -0.473,0 -1.781,0 -1.781,-1.746 0,-1.941 1.207,-4.203 1.738,-5.39 h -2.605 c -0.855,1.703 -1.598,3.496 -1.598,5.422 0,2.129 0.957,3.785 3.652,3.785 h 3.91 v -9.207 l 0,0 z m -8.801,0 h -2.59 c -2.02,0 -2.48,1.308 -2.48,2.133 0,0.91 0.563,1.562 1.129,2.207 l 1.633,1.847 c 0.168,0.18 0.395,0.383 0.395,0.641 0,0.363 -0.656,0.308 -0.895,0.308 h -2.184 l 0.563,2.071 h 2.809 c 2.016,0 2.48,-1.309 2.48,-2.129 0,-0.91 -0.566,-1.567 -1.141,-2.199 l -1.68,-1.86 c -0.168,-0.175 -0.395,-0.383 -0.395,-0.64 0,-0.36 0.656,-0.301 0.891,-0.301 h 2.031 l -0.566,-2.078 0,0 z m -6.309,0 h -2.59 c -2.019,0 -2.48,1.308 -2.48,2.133 0,0.91 0.562,1.562 1.129,2.207 l 1.633,1.847 c 0.168,0.18 0.395,0.383 0.395,0.641 0,0.363 -0.652,0.308 -0.89,0.308 h -2.188 l 0.566,2.071 h 2.805 c 2.016,0 2.477,-1.309 2.477,-2.129 0,-0.91 -0.563,-1.567 -1.137,-2.199 l -1.676,-1.86 c -0.172,-0.175 -0.398,-0.383 -0.398,-0.64 0,-0.36 0.656,-0.301 0.891,-0.301 h 2.027 l -0.564,-2.078 0,0 z m -6.129,2.355 h -2.41 v 1.86 h -2.398 c 0.301,-0.786 0.742,-2.137 3.32,-2.137 h 1.895 l -0.563,-2.078 h -1.184 c -1.734,0 -3.234,0.215 -4.519,1.511 -1.148,1.149 -1.656,2.817 -1.656,4.418 0,1.622 0.539,3.231 1.433,4.575 l 1.961,-1.297 c -0.531,-0.879 -0.914,-1.883 -0.926,-2.918 h 2.637 v 2.918 h 2.41 v -6.852 l 0,0 z m -8.742,-2.355 h -2.59 c -2.019,0 -2.48,1.308 -2.48,2.133 0,0.91 0.562,1.562 1.129,2.207 l 1.633,1.847 c 0.171,0.18 0.394,0.383 0.394,0.641 0,0.363 -0.652,0.308 -0.887,0.308 h -2.191 l 0.562,2.071 h 2.809 c 2.016,0 2.481,-1.309 2.481,-2.129 0,-0.91 -0.567,-1.567 -1.141,-2.199 l -1.68,-1.86 c -0.168,-0.175 -0.394,-0.383 -0.394,-0.64 0,-0.36 0.656,-0.301 0.89,-0.301 h 2.032 l -0.567,-2.078 0,0 z m -12.008,7.136 h 2.032 v 2.075 h -2.032 v -2.075 l 0,0 z m -1.617,-7.136 h -2.594 c -2.015,0 -2.476,1.308 -2.476,2.133 0,0.91 0.558,1.562 1.125,2.207 l 1.633,1.847 c 0.168,0.18 0.394,0.383 0.394,0.641 0,0.363 -0.652,0.308 -0.89,0.308 h -2.184 l 0.562,2.071 h 2.805 c 2.02,0 2.481,-1.309 2.481,-2.129 0,-0.91 -0.567,-1.567 -1.141,-2.199 l -1.676,-1.86 c -0.172,-0.175 -0.398,-0.383 -0.398,-0.64 0,-0.36 0.656,-0.301 0.89,-0.301 h 2.032 l -0.563,-2.078 0,0 z m -8.066,7.136 h 2.027 v 2.075 h -2.027 v -2.075 l 0,0 z m -1.387,-7.136 h -2.41 v 7.136 h -0.902 c -0.473,0 -1.782,0 -1.782,-1.746 0,-1.941 1.207,-4.203 1.739,-5.39 h -2.606 c -0.855,1.703 -1.598,3.496 -1.598,5.422 0,2.129 0.954,3.785 3.653,3.785 h 3.906"
   id="path31"
   inkscape:connector-curvature="0"
   style="fill:#ffffff;fill-rule:evenodd" />
</g>
</svg>