<?xml version="1.0" encoding="UTF-8" standalone="no"?>
<svg
   xmlns:dc="http://purl.org/dc/elements/1.1/"
   xmlns:cc="http://creativecommons.org/ns#"
   xmlns:rdf="http://www.w3.org/1999/02/22-rdf-syntax-ns#"
   xmlns:svg="http://www.w3.org/2000/svg"
   xmlns="http://www.w3.org/2000/svg"
   xmlns:sodipodi="http://sodipodi.sourceforge.net/DTD/sodipodi-0.dtd"
   xmlns:inkscape="http://www.inkscape.org/namespaces/inkscape"
   id="Ebene_1"
   data-name="Ebene 1"
   viewBox="0 0 4096 4096"
   version="1.1"
   sodipodi:docname="werder-bremen-logo.svg"
   width="4096"
   height="4096"
   inkscape:version="0.92.4 (5da689c313, 2019-01-14)"
   inkscape:export-filename="G:\Users\suitedoalex\sites\werder-bremen-logo-0.png"
   inkscape:export-xdpi="96"
   inkscape:export-ydpi="96">
  <metadata
     id="metadata21">
    <rdf:RDF>
      <cc:Work
         rdf:about="">
        <dc:format>image/svg+xml</dc:format>
        <dc:type
           rdf:resource="http://purl.org/dc/dcmitype/StillImage" />
        <dc:title>Zeichenfläche 1</dc:title>
      </cc:Work>
    </rdf:RDF>
  </metadata>
  <sodipodi:namedview
     pagecolor="#ffffff"
     bordercolor="#666666"
     borderopacity="1"
     objecttolerance="10"
     gridtolerance="10"
     guidetolerance="10"
     inkscape:pageopacity="0"
     inkscape:pageshadow="2"
     inkscape:window-width="1600"
     inkscape:window-height="837"
     id="namedview19"
     showgrid="false"
     inkscape:zoom="0.041579871"
     inkscape:cx="1581.0354"
     inkscape:cy="2350.8646"
     inkscape:window-x="-8"
     inkscape:window-y="-8"
     inkscape:window-maximized="1"
     inkscape:current-layer="Ebene_1" />
  <defs
     id="defs4">
    <style
       id="style2">.cls-1{fill:#009655;}.cls-2{fill:#fff;}</style>
  </defs>
  <title
     id="title6">Zeichenfläche 1</title>
  <polygon
     class="cls-1"
     points="220.36,60 180.36,0 140.36,60 180.36,120 "
     id="polygon8"
     style="fill:#009655"
     transform="matrix(27.054274,0,0,27.054274,-2831.5089,424.74356)"
     inkscape:export-filename="G:\Users\suitedoalex\sites\werder-bremen-logo-4.png"
     inkscape:export-xdpi="17.742115"
     inkscape:export-ydpi="17.742115" />
  <path
     class="cls-2"
     d="m 1462.8161,1825.0728 a 616.02581,616.02581 0 0 1 57.8961,-277.0358 c 33.0062,-65.7419 95.7721,-131.4838 193.1675,-126.3435 35.1706,1.8938 142.8465,27.0543 143.3876,146.3637 0,55.7318 -33.2767,157.7264 -183.969,157.7264 0,0 -18.6674,149.3396 -18.6674,227.2559 0,68.9884 1.3527,378.7598 116.0628,623.601 l 274.0597,-608.4506 261.0738,610.0738 c 0,0 111.193,-271.3543 111.193,-503.2095 0,-231.8551 -64.1186,-384.9823 -117.686,-466.9567 -76.5636,-117.4156 -175.0412,-158.2675 -220.4924,-155.021 a 174.50007,174.50007 0 0 1 -124.9907,43.0163 152.5861,152.5861 0 0 1 -149.069,-156.6443 c 0,-70.6116 46.5333,-149.3395 118.7682,-195.3318 72.2349,-45.9923 189.3799,-39.4993 267.0257,-15.1504 125.2613,38.9581 232.9373,175.5822 288.3985,274.8714 52.4853,93.8783 108.2171,281.9055 108.2171,527.5584 0,204.2597 -73.8581,514.0312 -168.5481,751.5677 a 2838.5344,2838.5344 0 0 1 -147.1752,324.6513 l -225.6327,-455.8645 -224.0093,456.135 c 0,0 -214.5404,-452.618 -270.5428,-659.5832 a 2645.0963,2645.0963 0 0 1 -87.1147,-523.2296"
     id="path10"
     inkscape:connector-curvature="0"
     style="fill:#ffffff;stroke-width:27.05427361"
     inkscape:export-filename="G:\Users\suitedoalex\sites\werder-bremen-logo-4.png"
     inkscape:export-xdpi="17.742115"
     inkscape:export-ydpi="17.742115" />
  <path
     class="cls-2"
     d="M 2048,517.81026 1027.7833,2048 2048,3577.9192 3067.9461,2048 Z M 2046.6472,3454.8222 1110.84,2048 2046.6472,629.00331 2982.184,2048 Z"
     id="path12"
     inkscape:connector-curvature="0"
     style="fill:#ffffff;stroke-width:27.05427361"
     inkscape:export-filename="G:\Users\suitedoalex\sites\werder-bremen-logo-4.png"
     inkscape:export-xdpi="17.742115"
     inkscape:export-ydpi="17.742115" />
</svg>
