<?xml version="1.0" encoding="UTF-8" standalone="no"?>
<svg width="130px" height="130px" viewBox="0 0 130 130" version="1.1" xmlns="http://www.w3.org/2000/svg" xmlns:xlink="http://www.w3.org/1999/xlink">
    <!-- Generator: Sketch 39 (31667) - http://www.bohemiancoding.com/sketch -->
    <title>westham-united</title>
    <desc>Created with Sketch.</desc>
    <defs>
        <polygon id="path-1" points="116.88 0.0001 116.88 130 0 130 0 0.0001 116.88 0.0001"></polygon>
        <polygon id="path-3" points="0 130 116.88 130 116.88 0 0 0"></polygon>
    </defs>
    <g id="Page-1" stroke="none" stroke-width="1" fill="none" fill-rule="evenodd">
        <g id="westham-united">
            <g id="Page-1" transform="translate(7.000000, 0.000000)">
                <g id="Group-3">
                    <mask id="mask-2" fill="white">
                        <use xlink:href="#path-1"></use>
                    </mask>
                    <g id="Clip-2"></g>
                    <path d="M58.4406,62.7431 L58.4286,62.7311 L58.5046,62.8071 L58.4406,62.7431 Z M116.8736,4.2151 L116.8736,4.2071 C99.1186,1.5071 79.3186,0.0001 58.4366,0.0001 C37.5556,0.0001 17.7546,1.5071 -0.0004,4.2071 L-0.0004,4.3021 L0.0026,52.9721 C0.0126,94.1881 23.9126,117.3691 57.4866,129.6931 L58.4406,129.9991 L58.4436,130.0001 L59.3966,129.6931 C92.9716,117.3691 116.8676,94.1881 116.8806,52.9721 L116.8806,4.2151 L116.8736,4.2151 L116.8736,4.2151 Z" id="Fill-1" fill="#1DAFE5" mask="url(#mask-2)"></path>
                </g>
                <path d="M112.8374,8.2504 L112.8374,8.2434 C96.3104,5.7304 77.8764,4.3264 58.4374,4.3264 C38.9974,4.3264 20.5644,5.7304 4.0364,8.2434 L4.0364,8.3324 L4.0384,54.4544 C4.0484,92.8254 26.2974,114.4044 57.5524,125.8774 L58.4404,126.1614 L58.4434,126.1634 L59.3304,125.8774 C90.5864,114.4044 112.8324,92.8254 112.8444,54.4544 L112.8444,8.2504 L112.8374,8.2504" id="Fill-4" fill="#7A2638"></path>
                <path d="M85.29,104.9923 C86.151,105.8543 87.529,104.9423 88.943,103.5293 C90.356,102.1163 91.268,100.7373 90.407,99.8753 L36.46,47.2853 C35.598,46.4223 34.058,46.5673 33.019,47.6053 C31.981,48.6433 31.838,50.1833 32.7,51.0453 L85.29,104.9923" id="Fill-6" fill="#D1A340"></path>
                <path d="M38.1329,46.4816 L42.5449,41.2916 C42.5449,41.2916 42.9619,40.7366 42.3139,39.9476 C40.6119,37.8766 37.1999,34.8546 37.1999,34.8546 C36.7069,34.4846 36.3719,34.5746 35.8249,35.0996 C33.1239,37.6896 26.2499,44.3326 25.8359,44.7636 C25.3159,45.2996 25.0779,45.6596 25.2439,46.5776 C25.4119,47.5036 25.9039,49.0416 25.0529,50.5356 L20.4079,57.8456 C19.8259,58.7376 19.6569,59.5266 20.0959,59.9546 C20.3299,60.1846 20.9199,60.4516 22.1199,59.6186 C22.6939,59.2206 29.0099,54.9686 31.0219,53.3136 C32.2009,52.3436 33.1009,51.4616 33.1009,51.4616 L36.9129,47.7226 C36.9129,47.7226 37.7149,46.9356 38.1329,46.4816" id="Fill-8" fill="#F6D44C"></path>
                <path d="M22.1503,59.1498 C20.8313,60.0428 20.8353,60.1748 21.0193,60.1498 C21.3093,60.0858 21.6723,59.9288 22.1203,59.6178 C22.6933,59.2208 29.0093,54.9688 31.0223,53.3138 C31.8543,52.6288 32.5443,51.9898 32.8813,51.6718 C31.8423,51.8928 30.5173,52.3978 29.7143,53.0688 C28.6373,53.9698 24.0383,57.8708 22.1503,59.1498" id="Fill-10" fill="#D1A340"></path>
                <path d="M38.1321,46.4816 L42.5451,41.2916 C42.5451,41.2916 42.8001,40.9466 42.5951,40.4156 C42.5951,40.4156 42.2311,40.0046 40.9591,41.4896 C39.8901,42.7356 39.3841,43.2226 38.4831,44.3006 C37.7871,45.1326 37.2731,46.5196 37.0641,47.5726 C37.3171,47.3226 37.8271,46.8136 38.1321,46.4816" id="Fill-12" fill="#D1A340"></path>
                <path d="M31.7081,104.9923 C30.8471,105.8543 29.4691,104.9423 28.0541,103.5293 C26.6421,102.1163 25.7301,100.7373 26.5911,99.8753 L80.5591,47.2653 C81.4201,46.4023 82.9601,46.5463 83.9991,47.5853 C85.0371,48.6233 85.1811,50.1633 84.3191,51.0243 L31.7081,104.9923" id="Fill-14" fill="#D1A340"></path>
                <path d="M31.1834,104.4733 L81.5364,52.7633 C82.3984,51.9023 82.2544,50.3623 81.2164,49.3233 C80.6734,48.7803 79.9934,48.4843 79.3444,48.4473 L26.5904,99.8743 C25.7694,100.6973 26.5624,101.9903 27.8634,103.3343 C29.1574,104.5553 30.3904,105.2683 31.1834,104.4733" id="Fill-16" fill="#F6D44C"></path>
                <path d="M78.8854,46.4607 L74.4734,41.2707 C74.4734,41.2707 74.0564,40.7157 74.7034,39.9267 C76.4064,37.8557 79.8184,34.8337 79.8184,34.8337 C80.3124,34.4637 80.6474,34.5537 81.1934,35.0787 C83.8944,37.6687 90.7684,44.3117 91.1824,44.7427 C91.7024,45.2777 91.9404,45.6387 91.7734,46.5567 C91.6064,47.4817 91.1144,49.0207 91.9664,50.5147 L96.6114,57.8247 C97.1924,58.7167 97.3614,59.5057 96.9234,59.9337 C96.6884,60.1637 96.0984,60.4307 94.8984,59.5977 C94.3244,59.1997 88.0084,54.9477 85.9964,53.2927 C84.8164,52.3217 83.9174,51.4407 83.9174,51.4407 L80.1054,47.7017 C80.1054,47.7017 79.3034,46.9147 78.8854,46.4607" id="Fill-18" fill="#F6D44C"></path>
                <path d="M94.8687,59.1297 C96.1877,60.0227 96.1837,60.1547 95.9987,60.1297 C95.7087,60.0657 95.3457,59.9087 94.8987,59.5977 C94.3247,59.2007 88.0087,54.9487 85.9957,53.2927 C85.1647,52.6087 84.4747,51.9697 84.1377,51.6517 C85.1767,51.8727 86.5007,52.3777 87.3037,53.0487 C88.3817,53.9497 92.9797,57.8507 94.8687,59.1297" id="Fill-20" fill="#D1A340"></path>
                <path d="M78.8854,46.4607 L74.4734,41.2707 C74.4734,41.2707 74.2164,40.9257 74.4234,40.3947 C74.4234,40.3947 74.7864,39.9837 76.0584,41.4687 C77.1284,42.7147 77.6344,43.2017 78.5344,44.2797 C79.2304,45.1117 79.7444,46.4987 79.9534,47.5517 C79.7014,47.3017 79.1904,46.7927 78.8854,46.4607" id="Fill-22" fill="#D1A340"></path>
                <path d="M87.3848,47.9647 C86.9688,48.3807 86.2948,48.3807 85.8788,47.9647 L83.6188,45.7037 C83.2028,45.2887 83.2028,44.6147 83.6188,44.1997 C84.0348,43.7827 84.7088,43.7827 85.1248,44.1987 L87.3848,46.4587 C87.8008,46.8737 87.8008,47.5487 87.3848,47.9647" id="Fill-24" fill="#D1A340"></path>
                <path d="M83.923,45.7038 C83.507,45.2888 83.507,44.6148 83.923,44.1988 C84.092,44.0298 84.305,43.9308 84.523,43.8988 C84.203,43.8528 83.866,43.9528 83.619,44.1988 C83.203,44.6148 83.203,45.2888 83.619,45.7038 L85.879,47.9648 C86.126,48.2118 86.464,48.3108 86.784,48.2648 C86.564,48.2328 86.352,48.1338 86.183,47.9648 L83.923,45.7038" id="Fill-26" fill="#C7A13D"></path>
                <polygon id="Fill-28" fill="#D1A340" points="84.9168 46.534 84.7538 46.534 84.7538 46.371 85.7908 45.335 85.9538 45.334 85.9538 45.497"></polygon>
                <polygon id="Fill-30" fill="#D1A340" points="85.2585 46.8782 85.0985 46.8782 85.0985 46.7182 85.2595 46.7182"></polygon>
                <mask id="mask-4" fill="white">
                    <use xlink:href="#path-3"></use>
                </mask>
                <g id="Clip-33"></g>
                <polygon id="Fill-32" fill="#D1A340" mask="url(#mask-4)" points="84.388 46.166 84.548 46.166 84.548 46.006 84.388 46.006"></polygon>
                <polygon id="Fill-34" fill="#D1A340" mask="url(#mask-4)" points="85.3835 44.7632 85.0285 44.4082 84.8655 44.4082 84.8655 44.5712 84.9215 44.6282 84.9245 44.7042 84.0065 45.6212 84.0055 45.7852 84.1685 45.7862 85.0905 44.8642 85.1625 44.8692 85.2195 44.9272 85.3835 44.9272"></polygon>
                <polygon id="Fill-35" fill="#D1A340" mask="url(#mask-4)" points="87.28 46.6758 87.119 46.6498 86.518 47.0858 86.435 47.0798 86.423 47.0068 86.547 46.7608 86.534 46.6378 86.532 46.6368 86.527 46.6308 86.524 46.6278 86.521 46.6238 86.515 46.6198 86.513 46.6188 86.391 46.6058 86.144 46.7278 86.072 46.7168 86.065 46.6338 86.501 46.0328 86.476 45.8718 86.316 45.8968 85.454 47.0838 85.465 47.2308 85.47 47.2368 85.472 47.2378 85.6 47.2558 86.023 47.0458 86.093 47.0588 86.103 47.1338 85.896 47.5508 85.914 47.6798 85.916 47.6818 85.92 47.6868 86.068 47.6958 87.255 46.8358"></polygon>
                <path d="M37.9781,48.7659 C37.3241,48.7519 36.6151,49.0299 36.0611,49.5849 C35.0961,50.5509 34.9621,51.9819 35.7631,52.7829 L57.3211,74.8739 L60.9891,71.2059 L37.9781,48.7659" id="Fill-36" fill="#F6D44C" mask="url(#mask-4)"></path>
                <path d="M90.4066,99.8749 L63.2116,73.3709 C62.7846,73.5619 62.3846,73.8309 62.0336,74.1809 C60.6186,75.5969 60.5076,77.8219 61.7016,79.3649 L86.0246,104.3059 C86.8256,105.1079 88.1066,104.2579 89.4216,102.9449 C89.6436,102.7229 89.8516,102.5019 90.0416,102.2839 C90.7416,101.3379 91.0106,100.4799 90.4066,99.8749" id="Fill-37" fill="#F6D44C" mask="url(#mask-4)"></path>
                <polygon id="Fill-38" fill="#F6D44C" mask="url(#mask-4)" points="84.8668 46.484 84.7038 46.484 84.7038 46.32 85.7408 45.285 85.9038 45.284 85.9038 45.447"></polygon>
                <polygon id="Fill-39" fill="#F6D44C" mask="url(#mask-4)" points="85.2094 46.8282 85.0494 46.8282 85.0494 46.6682 85.2104 46.6682"></polygon>
                <polygon id="Fill-40" fill="#F6D44C" mask="url(#mask-4)" points="84.4969 46.1165 84.3369 46.1165 84.3369 45.9565 84.4969 45.9565"></polygon>
                <polygon id="Fill-41" fill="#F6D44C" mask="url(#mask-4)" points="85.3327 44.7132 84.9777 44.3572 84.8147 44.3582 84.8147 44.5202 84.8717 44.5782 84.8737 44.6542 83.9547 45.5722 83.9547 45.7342 84.1187 45.7352 85.0397 44.8142 85.1127 44.8192 85.1697 44.8762 85.3327 44.8762"></polygon>
                <polygon id="Fill-42" fill="#F6D44C" mask="url(#mask-4)" points="87.2309 46.6259 87.0699 46.5999 86.4689 47.0359 86.3859 47.0309 86.3739 46.9569 86.4979 46.7109 86.4849 46.5889 86.4829 46.5869 86.4779 46.5809 86.4749 46.5779 86.4719 46.5739 86.4659 46.5699 86.4639 46.5689 86.3409 46.5559 86.0949 46.6779 86.0229 46.6669 86.0159 46.5849 86.4519 45.9829 86.4269 45.8219 86.2669 45.8469 85.4049 47.0349 85.4159 47.1809 85.4209 47.1869 85.4229 47.1879 85.5509 47.2059 85.9739 46.9959 86.0439 47.0089 86.0549 47.0839 85.8469 47.5019 85.8649 47.6299 85.8659 47.6329 85.8709 47.6369 86.0189 47.6459 87.2059 46.7869"></polygon>
                <path d="M33.3999,44.2199 C33.8159,44.6359 33.8159,45.3099 33.3999,45.7259 L31.1389,47.9859 C30.7239,48.4019 30.0499,48.4019 29.6339,47.9859 C29.2179,47.5689 29.2179,46.8959 29.6329,46.4799 L31.8939,44.2199 C32.3089,43.8039 32.9839,43.8039 33.3999,44.2199" id="Fill-43" fill="#D1A340" mask="url(#mask-4)"></path>
                <path d="M29.8228,46.6694 L32.0838,44.4094 C32.4678,44.0254 33.0698,43.9964 33.4878,44.3214 L33.3988,44.2194 C32.9828,43.8044 32.3098,43.8044 31.8938,44.2194 L29.6338,46.4804 C29.2178,46.8954 29.2178,47.5694 29.6338,47.9844 L29.7348,48.0724 C29.4108,47.6554 29.4388,47.0534 29.8228,46.6694" id="Fill-44" fill="#C7A13D" mask="url(#mask-4)"></path>
                <polygon id="Fill-45" fill="#D1A340" mask="url(#mask-4)" points="31.9185 46.8507 31.9185 47.0137 31.7555 47.0137 30.7195 45.9767 30.7195 45.8147 30.8815 45.8147"></polygon>
                <polygon id="Fill-46" fill="#D1A340" mask="url(#mask-4)" points="32.2626 46.509 32.2626 46.669 32.1026 46.669 32.1026 46.509"></polygon>
                <polygon id="Fill-47" fill="#D1A340" mask="url(#mask-4)" points="31.5517 47.2207 31.5517 47.3807 31.3917 47.3807 31.3917 47.2207"></polygon>
                <polygon id="Fill-48" fill="#D1A340" mask="url(#mask-4)" points="30.1485 46.3849 29.7935 46.7399 29.7935 46.9019 29.9565 46.9019 30.0135 46.8459 30.0905 46.8439 31.0075 47.7619 31.1705 47.7619 31.1715 47.5989 30.2495 46.6779 30.2545 46.6049 30.3125 46.5479 30.3125 46.3849"></polygon>
                <polygon id="Fill-49" fill="#D1A340" mask="url(#mask-4)" points="32.0611 44.4875 32.0351 44.6475 32.4721 45.2495 32.4661 45.3325 32.3921 45.3435 32.1461 45.2215 32.0241 45.2335 32.0211 45.2355 32.0161 45.2405 32.0131 45.2425 32.0091 45.2465 32.0051 45.2525 32.0031 45.2545 31.9911 45.3765 32.1131 45.6225 32.1011 45.6955 32.0191 45.7025 31.4171 45.2665 31.2571 45.2915 31.2821 45.4525 32.4691 46.3125 32.6161 46.3025 32.6211 46.2975 32.6231 46.2955 32.6411 46.1675 32.4311 45.7445 32.4441 45.6745 32.5191 45.6635 32.9361 45.8705 33.0651 45.8535 33.0671 45.8525 33.0721 45.8465 33.0821 45.6995 32.2211 44.5125"></polygon>
                <polygon id="Fill-50" fill="#F6D44C" mask="url(#mask-4)" points="31.9185 46.7371 31.9185 46.9001 31.7555 46.9001 30.7195 45.8631 30.7195 45.7011 30.8815 45.7011"></polygon>
                <polygon id="Fill-51" fill="#F6D44C" mask="url(#mask-4)" points="32.2626 46.3945 32.2626 46.5545 32.1026 46.5545 32.1026 46.3935"></polygon>
                <polygon id="Fill-52" fill="#F6D44C" mask="url(#mask-4)" points="31.5517 47.1063 31.5517 47.2663 31.3917 47.2673 31.3917 47.1063"></polygon>
                <polygon id="Fill-53" fill="#F6D44C" mask="url(#mask-4)" points="30.1485 46.2704 29.7935 46.6254 29.7935 46.7884 29.9565 46.7884 30.0135 46.7324 30.0905 46.7294 31.0075 47.6484 31.1705 47.6484 31.1715 47.4854 30.2495 46.5634 30.2545 46.4914 30.3125 46.4344 30.3125 46.2704"></polygon>
                <polygon id="Fill-54" fill="#F6D44C" mask="url(#mask-4)" points="32.0611 44.373 32.0351 44.534 32.4721 45.135 32.4661 45.218 32.3921 45.229 32.1461 45.107 32.0241 45.119 32.0211 45.121 32.0161 45.126 32.0131 45.129 32.0091 45.133 32.0051 45.139 32.0031 45.141 31.9911 45.262 32.1131 45.509 32.1011 45.581 32.0191 45.589 31.4171 45.152 31.2571 45.177 31.2821 45.338 32.4691 46.199 32.6161 46.189 32.6211 46.183 32.6231 46.181 32.6411 46.053 32.4311 45.63 32.4441 45.56 32.5191 45.55 32.9361 45.756 33.0651 45.739 33.0671 45.738 33.0721 45.732 33.0821 45.586 32.2211 44.399"></polygon>
                <path d="M37.2269,31.2784 C35.1879,31.4714 33.2479,30.1044 33.1909,27.9614 C33.1289,25.9884 33.0669,24.0154 33.0049,22.0424 C33.9299,21.9694 34.3939,21.9354 35.3199,21.8694 C35.3759,23.8424 35.4329,25.8164 35.4889,27.7894 C35.5169,28.7714 36.1739,29.2484 37.1579,29.1834 C37.2949,29.1754 37.3629,29.1704 37.4989,29.1614 C38.4839,29.0984 39.1139,28.5364 39.0909,27.5534 C39.0429,25.5804 38.9949,23.6074 38.9479,21.6334 C39.8749,21.5784 40.3379,21.5534 41.2659,21.5044 C41.3079,23.4784 41.3499,25.4514 41.3919,27.4254 C41.4259,29.5794 39.6459,31.1594 37.5679,31.2564 C37.4309,31.2654 37.3629,31.2694 37.2269,31.2784" id="Fill-55" fill="#FFFFFF" mask="url(#mask-4)"></path>
                <path d="M43.0367,21.4345 C44.1127,21.3835 44.6517,21.3605 45.7277,21.3185 C46.9377,23.2655 48.1397,25.2165 49.3327,27.1745 L49.3587,27.1735 C49.3387,25.1815 49.3197,23.1905 49.3007,21.1995 C50.2277,21.1735 50.6927,21.1625 51.6217,21.1425 C51.6477,24.2655 51.6737,27.3875 51.7007,30.5095 C50.6407,30.5325 50.1107,30.5445 49.0517,30.5755 C47.8587,28.6245 46.6567,26.6785 45.4467,24.7365 L45.4197,24.7385 C45.4497,26.7255 45.4787,28.7125 45.5077,30.6985 C44.5907,30.7365 44.1317,30.7565 43.2147,30.8005 C43.1557,27.6785 43.0967,24.5565 43.0367,21.4345" id="Fill-56" fill="#FFFFFF" mask="url(#mask-4)"></path>
                <path d="M53.3272,21.1161 C54.2562,21.1021 54.7202,21.0961 55.6492,21.0881 C55.6602,24.2101 55.6712,27.3331 55.6812,30.4551 C54.7632,30.4631 54.3042,30.4691 53.3872,30.4841 C53.3662,27.3611 53.3462,24.2391 53.3272,21.1161" id="Fill-57" fill="#FFFFFF" mask="url(#mask-4)"></path>
                <path d="M60.3202,23.0465 C59.1252,23.0405 58.5282,23.0395 57.3332,23.0445 L57.3302,21.0795 C60.1012,21.0775 62.8702,21.1025 65.6412,21.1535 C65.6342,21.9405 65.6302,22.3335 65.6242,23.1195 C64.4292,23.0935 63.8312,23.0825 62.6362,23.0675 C62.6242,25.5345 62.6122,28.0015 62.5992,30.4695 C61.6812,30.4575 61.2212,30.4535 60.3042,30.4495 C60.3092,27.9805 60.3142,25.5135 60.3202,23.0465" id="Fill-58" fill="#FFFFFF" mask="url(#mask-4)"></path>
                <path d="M67.3222,21.1895 C69.4182,21.2525 71.5122,21.3285 73.6072,21.4195 C73.5932,22.2055 73.5862,22.5985 73.5712,23.3845 C71.9892,23.3105 71.1982,23.2785 69.6162,23.2245 C69.6062,23.9055 69.6012,24.2465 69.5932,24.9275 C70.8812,24.9725 71.5252,24.9975 72.8132,25.0545 C72.8002,25.8405 72.7922,26.2335 72.7792,27.0185 C71.4932,26.9625 70.8512,26.9365 69.5652,26.8925 C69.5552,27.6005 69.5512,27.9545 69.5412,28.6615 C71.1862,28.7175 72.0092,28.7505 73.6532,28.8285 C73.6382,29.6145 73.6322,30.0085 73.6162,30.7945 C71.4842,30.7005 69.3532,30.6205 67.2202,30.5565 C67.2542,27.4335 67.2882,24.3115 67.3222,21.1895" id="Fill-59" fill="#FFFFFF" mask="url(#mask-4)"></path>
                <path d="M78.7999,29.0925 C80.3879,29.1925 81.3849,28.3205 81.4359,26.5265 C81.4859,24.7445 80.4969,23.7555 78.9379,23.6575 C78.4199,23.6255 78.1609,23.6095 77.6429,23.5795 C77.5989,25.3915 77.5569,27.2035 77.5139,29.0155 C78.0289,29.0445 78.2859,29.0605 78.7999,29.0925 M75.3699,21.4875 C76.8549,21.5635 77.5969,21.6055 79.0799,21.6985 C81.7729,21.7985 83.8909,24.0015 83.8169,26.7035 C83.7429,29.3555 81.4739,31.3165 78.8419,31.0635 C77.3759,30.9705 76.6429,30.9285 75.1749,30.8535 C75.2409,27.7315 75.3059,24.6095 75.3699,21.4875" id="Fill-60" fill="#FFFFFF" mask="url(#mask-4)"></path>
                <path d="M13.5863,10.5298 C14.7933,10.3778 15.3963,10.3038 16.6053,10.1618 C17.1463,12.8218 17.6883,15.4808 18.2293,18.1398 L18.2633,18.1368 C18.8823,15.3468 19.5023,12.5568 20.1233,9.7678 C21.1633,9.6558 21.6843,9.6018 22.7253,9.4988 C23.3293,12.1618 23.9343,14.8248 24.5393,17.4878 L24.5713,17.4848 C25.1573,14.7098 25.7443,11.9348 26.3313,9.1588 C27.5223,9.0528 28.1173,9.0028 29.3093,8.9078 C28.3153,12.9148 27.3223,16.9228 26.3313,20.9308 C24.9343,21.0548 24.2353,21.1198 22.8403,21.2588 C22.3653,19.0078 21.8903,16.7568 21.4163,14.5048 L21.3833,14.5088 C20.9083,16.8578 20.4343,19.2068 19.9603,21.5558 C18.5513,21.7078 17.8473,21.7868 16.4403,21.9528 C15.4893,18.1448 14.5383,14.3378 13.5863,10.5298" id="Fill-61" fill="#FFFFFF" mask="url(#mask-4)"></path>
                <path d="M89.4039,9.0741 C90.7009,9.1851 91.3479,9.2441 92.6429,9.3681 C93.4999,11.8941 94.3549,14.4211 95.2089,16.9491 L95.2419,16.9521 C96.0959,14.6011 96.9509,12.2511 97.8059,9.9001 C99.0869,10.0421 99.7269,10.1151 101.0069,10.2691 C101.7119,14.2801 102.4169,18.2901 103.1209,22.3011 C101.9339,22.1511 101.3399,22.0791 100.1509,21.9391 C99.8039,19.3201 99.4559,16.7011 99.1079,14.0821 L99.0749,14.0781 C98.2339,16.5641 97.3919,19.0491 96.5509,21.5351 C95.5099,21.4241 94.9899,21.3701 93.9479,21.2671 C93.0909,18.6051 92.2319,15.9451 91.3719,13.2841 L91.3389,13.2811 C91.0349,15.8321 90.7299,18.3841 90.4249,20.9351 C89.2149,20.8271 88.6089,20.7761 87.3979,20.6781 C88.0669,16.8111 88.7359,12.9421 89.4039,9.0741" id="Fill-62" fill="#FFFFFF" mask="url(#mask-4)"></path>
                <path d="M30.4596,8.8404 C33.1086,8.6414 35.7576,8.4664 38.4096,8.3144 C38.3526,9.3064 38.3236,9.8014 38.2666,10.7924 C36.6236,10.8864 34.9826,10.9894 33.3406,11.0984 L33.3406,13.2384 C34.9486,13.1274 35.7516,13.0764 37.3596,12.9834 L37.3596,15.4534 C35.7516,15.5454 34.9486,15.5964 33.3406,15.7084 L33.3406,17.9304 C35.0586,17.8114 36.7776,17.7054 38.4976,17.6124 L38.4976,20.0824 C35.8156,20.2344 33.1376,20.4104 30.4596,20.6114 L30.4596,8.8404" id="Fill-63" fill="#FFFFFF" mask="url(#mask-4)"></path>
                <path d="M51.9618,10.321 C50.4728,10.346 49.7278,10.363 48.2398,10.404 L48.2398,7.934 C51.6838,7.847 55.1258,7.803 58.5718,7.802 C58.5708,8.79 58.5708,9.284 58.5708,10.272 C57.0828,10.269 56.3378,10.271 54.8478,10.284 L54.8478,19.586 C53.6938,19.596 53.1158,19.603 51.9618,19.623 L51.9618,10.321" id="Fill-64" fill="#FFFFFF" mask="url(#mask-4)"></path>
                <path d="M63.3654,7.8272 C64.5194,7.8422 65.0974,7.8502 66.2514,7.8752 L66.2514,12.5832 C67.9204,12.6212 69.5874,12.6672 71.2554,12.7212 L71.2554,8.0132 C72.4094,8.0532 72.9864,8.0752 74.1404,8.1262 L74.1404,19.8972 C72.9864,19.8472 72.4094,19.8252 71.2554,19.7842 L71.2554,15.1752 C69.5874,15.1212 67.9204,15.0742 66.2514,15.0362 L66.2514,19.6462 C65.0974,19.6222 64.5194,19.6132 63.3654,19.5982 L63.3654,7.8272" id="Fill-65" fill="#FFFFFF" mask="url(#mask-4)"></path>
                <path d="M80.7892,11.1521 C80.3572,12.5641 79.9252,13.9761 79.4932,15.3881 C80.5372,15.4481 81.0582,15.4801 82.1012,15.5501 C81.6762,14.0841 81.2482,12.6191 80.8222,11.1541 L80.7892,11.1521 M82.7772,17.9001 C81.1932,17.7921 80.4012,17.7431 78.8172,17.6531 C78.5342,18.6251 78.3922,19.1111 78.1092,20.0841 C76.9222,20.0191 76.3282,19.9891 75.1422,19.9351 C76.3332,16.0721 77.5252,12.2091 78.7182,8.3451 C80.2742,8.4331 81.0522,8.4821 82.6072,8.5861 C83.8952,12.6041 85.1802,16.6211 86.4642,20.6401 C85.2792,20.5461 84.6872,20.5031 83.5012,20.4191 C83.2112,19.4111 83.0672,18.9081 82.7772,17.9001" id="Fill-66" fill="#FFFFFF" mask="url(#mask-4)"></path>
                <path d="M43.8661,7.8683 C41.7161,7.9453 39.2811,9.2683 39.2641,11.6853 C39.2391,15.3743 44.7791,14.3833 45.1211,16.3993 C45.2161,16.9573 44.5871,17.4253 43.7931,17.4243 C42.3111,17.4223 41.1421,17.1333 39.9321,16.5133 C39.8741,17.5293 39.8251,18.0633 39.7851,18.9863 C41.0341,19.8243 42.3251,20.0043 43.7211,20.0413 C45.7921,20.0953 48.2851,18.6573 48.3061,16.2353 C48.3371,12.5743 42.8461,13.4033 42.4471,11.4993 C42.3451,11.0123 42.9411,10.5323 43.8301,10.4813 C45.1881,10.4033 46.1651,10.7403 46.9081,11.0453 C46.9681,9.8753 46.9851,9.7083 47.0511,8.5683 C46.3971,8.1933 45.3671,7.8153 43.8661,7.8683" id="Fill-67" fill="#FFFFFF" mask="url(#mask-4)"></path>
                <polygon id="Fill-68" fill="#FFFFFF" mask="url(#mask-4)" points="41.3981 105.1197 42.8001 105.7327 40.8221 110.2597 43.1621 111.2807 42.6381 112.4837 38.8951 110.8477"></polygon>
                <path d="M46.9798,112.4714 C47.8818,112.7184 48.8198,112.1424 49.1028,111.1144 C49.3728,110.1274 48.8518,109.1864 47.9498,108.9394 C47.0488,108.6904 46.1188,109.2334 45.8478,110.2204 C45.5648,111.2484 46.0778,112.2234 46.9798,112.4714 M48.3198,107.5904 C50.1418,108.0904 51.1038,109.8054 50.6278,111.5334 C50.1418,113.3044 48.4298,114.3204 46.6088,113.8204 C44.7878,113.3204 43.8358,111.5714 44.3228,109.8014 C44.7968,108.0734 46.4998,107.0894 48.3198,107.5904" id="Fill-69" fill="#FFFFFF" mask="url(#mask-4)"></path>
                <path d="M52.0932,108.6218 L53.6332,108.7778 L55.0592,111.8598 C55.2612,112.2928 55.4732,112.9748 55.4732,112.9748 L55.4902,112.9758 C55.4902,112.9758 55.4892,112.2988 55.5292,111.9068 L55.8252,109.0018 L57.3472,109.1568 L56.7142,115.3758 L55.1832,115.2208 L53.7472,112.1478 C53.5452,111.7148 53.3332,111.0338 53.3332,111.0338 L53.3162,111.0318 C53.3162,111.0318 53.3172,111.7088 53.2772,112.0998 L52.9822,114.9978 L51.4592,114.8418 L52.0932,108.6218" id="Fill-70" fill="#FFFFFF" mask="url(#mask-4)"></path>
                <path d="M60.849,113.9908 C61.906,113.9338 62.517,113.2698 62.453,112.0738 C62.389,110.8868 61.684,110.3118 60.654,110.3668 L60.025,110.4008 L60.22,114.0238 L60.849,113.9908 Z M58.427,109.1738 L60.644,109.0538 C62.609,108.9488 63.928,110.0248 64.034,111.9898 C64.139,113.9528 62.945,115.1918 60.98,115.2978 L58.763,115.4168 L58.427,109.1738 L58.427,109.1738 Z" id="Fill-71" fill="#FFFFFF" mask="url(#mask-4)"></path>
                <path d="M68.3877,113.0147 C69.3007,112.8137 69.8627,111.8657 69.6337,110.8257 C69.4137,109.8257 68.5147,109.2357 67.6007,109.4367 C66.6867,109.6377 66.1177,110.5507 66.3367,111.5497 C66.5657,112.5917 67.4737,113.2167 68.3877,113.0147 M67.2997,108.0707 C69.1447,107.6647 70.7947,108.7337 71.1787,110.4847 C71.5737,112.2787 70.5327,113.9757 68.6877,114.3817 C66.8437,114.7867 65.1857,113.6827 64.7917,111.8907 C64.4067,110.1387 65.4557,108.4757 67.2997,108.0707" id="Fill-72" fill="#FFFFFF" mask="url(#mask-4)"></path>
                <path d="M71.1153,107.2306 L72.5503,106.6516 L75.2473,108.7116 C75.6283,109.0016 76.1333,109.5046 76.1333,109.5046 L76.1493,109.4976 C76.1493,109.4976 75.8333,108.8996 75.6853,108.5346 L74.5933,105.8276 L76.0123,105.2546 L78.3513,111.0516 L76.9243,111.6276 L74.2213,109.5786 C73.8403,109.2896 73.3363,108.7866 73.3363,108.7866 L73.3193,108.7926 C73.3193,108.7926 73.6363,109.3906 73.7833,109.7546 L74.8733,112.4556 L73.4543,113.0276 L71.1153,107.2306" id="Fill-73" fill="#FFFFFF" mask="url(#mask-4)"></path>
            </g>
        </g>
    </g>
</svg>